<svg width="160" height="165" viewBox="0 0 160 165" xmlns="http://www.w3.org/2000/svg"><title>72998003-459E-44FF-AA2C-A4D2850C87D1</title><g fill="#FEFEFE" fill-rule="evenodd"><path d="M11.835 52.188c8.277 0 11.37 10.983 11.37 10.983S27.36 76 35.826 76c6.34 0 7.75-5.239 8.062-7.541.008-.105.014-.208.024-.314.017-.21.038-.417.056-.626.004-.041.005-.08.01-.125.289-3.041-2.227-3.995-2.227-3.995v-.002c-2.48-.844-4.669-2.399-6.556-4.603-5.26-6.14-2.456-14.11 3.702-19.584-2.875-3.333-6.625-7.18-9.903-8.93-7.206-3.847-12.945 2.157-13.38 2.63-.03.039-.058.079-.088.12a77.744 77.744 0 0 0-1.444 2.058 80.872 80.872 0 0 0-1.513 2.314l-.078.125c-.407.66-.817 1.317-1.205 1.989l-.245.416a80.706 80.706 0 0 0-2.436 4.534l-.21.426a78.03 78.03 0 0 0-1.039 2.201l-.049.105a83.338 83.338 0 0 0-1.023 2.37l-.182.454c-.262.64-.519 1.283-.757 1.933l-.197.521A82.48 82.48 0 0 0 4.3 54.89c-.034.101-.066.206-.099.309-.069.212-.133.428-.201.64 1.762-1.95 4.306-3.651 7.835-3.651"/><path d="M118.552 27.595c1.77-.995 4.28-.776 6.3.732 2.018 1.509 2.937 3.851 2.478 5.825-1.768.996-4.281.775-6.3-.732-2.019-1.508-2.938-3.851-2.478-5.825m-89.375-.765c4.358 1.43 9.292 5.552 12.81 8.924a25.315 25.315 0 0 1 7.214-2.9c-1.944-4.022-4.547-10.416-3.973-14.893 1.163-9.082 11.13-9.78 11.13-9.78s-9.147 1.963-8.559 10.431c.287 4.106 3.806 10.122 6.105 13.656 5.677-.08 10.61 2.191 12.84 6.501.225.434.413.88.572 1.333h.005s.704 1.513 1.905 1.95c2.97.95 6.164 2.076 9.494 3.41 4.273 1.71 9.004 3.87 13.828 6.554.744.412 1.47-.568.856-1.154C71.203 29.602 86.878 21.3 86.878 21.3c-8.024 11.581 5.384 19.945 20.777 28.582 13.562 7.607 23.167 15.85 33.668 10.302 5.237-2.765 1.58-8.92-.78-12.326-1.775-2.563-2.98-4.132-4.562-7.511-.785-1.678-1.048-3.567-.652-5.376.553-2.533-.323-5.514-2.242-8.535-1.428-2.247-4.17-4.617-6.214-6.207a17.191 17.191 0 0 1-3.474-3.598C116.1 6.378 97.164 2.086 97.164 2.086v-.003A79.763 79.763 0 0 0 79.02 0C66.333 0 54.345 2.978 43.712 8.262l-.003.001a79.43 79.43 0 0 0-15.783 10.35l-.61.514a58.831 58.831 0 0 0-3.401 3.098l-.027.027a79.223 79.223 0 0 0-1.882 1.876l-.026.028a80.614 80.614 0 0 0-3.672 4.062c-.104.124-.204.253-.308.38 2.257-1.922 5.879-3.507 11.177-1.768M43.963 87.884a82.188 82.188 0 0 1-.366-5.233 15.21 15.21 0 0 1-5.968 1.222c-15.741 0-16.136-15.596-21.684-24.207-5.801-9.005-13.878.764-14.684 6.015-.038.252-.076.449-.11.601-.09.535-.184 1.068-.265 1.608-.033.223-.061.449-.094.674a61.423 61.423 0 0 0-.248 1.95c-.026.226-.053.45-.076.675a81.9 81.9 0 0 0-.239 2.58c-.006.09-.01.182-.017.273a82.53 82.53 0 0 0-.131 2.353 78.932 78.932 0 0 0-.074 3.013c0 .098-.005.193-.005.29-.002.033 0 .065 0 .098L0 79.899c0 .337.01.671.013 1.006.004.318.004.635.012.95.011.483.032.962.05 1.44.009.194.013.389.023.582 1.27 26.31 15.073 49.31 35.539 63.123-6.573-6.5-10.506-14.74-10.506-23.708 0-11.15 6.078-21.565 15.759-28.6a7.496 7.496 0 0 0 3.073-6.808"/><path d="M105 139.353c-3.63 1.504-8.899 3.203-14.895 3.618-.874.061-1.78.095-2.712.095-10.027 0-23.08-3.92-33.13-20.638l-1.313-2.181c-1.518 2.284-2.37 4.84-2.37 7.613 0 11.34 13.551 21.626 29.82 21.626 4.254 0 9.28-.494 12.929-1.625-3.74 2.338-11.26 4.533-17.786 4.533-18.665 0-34.27-12.418-34.27-27.149 0-4.95 1.704-10.084 4.675-14.377a6.762 6.762 0 0 0 .88-5.868C38.245 109.99 33 117.6 33 126.715c0 14.033 12.457 26.035 30.082 30.935.998.214 2.003.406 3.015.584 12.735 2.134 24.036-.138 31.694-7.472 3.286-3.145 5.671-7.01 7.209-11.409"/><path d="M140.798 28c8.297 11.771 13.177 26.172 13.177 41.726.001 26.834-14.535 50.234-36.08 62.618l-.151.14c.003-.184-.01-.34.117-1.075.542-3.188 1.733-6.243 3.565-8.895 6.088-8.815 10.14-22.281-.232-39.66-5.723-9.588-17.689-23.108-42.2-33.068A136.345 136.345 0 0 0 68.1 45.897c-.05-.016-.1-.03-.148-.046-.867-.268-1.71-.52-2.529-.756-.04-.013-.081-.024-.121-.036-.825-.237-1.623-.46-2.392-.667l-.069-.019c-.37-.099-.734-.195-1.09-.288l-.054-.014c-.736-.19-1.439-.367-2.108-.53l-.11-.026a116.016 116.016 0 0 0-1.996-.468c-.271-.06-.535-.12-.79-.175l-.033-.008a92.627 92.627 0 0 0-.917-.195c-.198-.043-.39-.082-.576-.12l-.144-.03c-.213-.044-.42-.085-.614-.123l-.12-.024-.452-.088-.15-.028-.482-.09c-.03.109-.064.225-.098.344-.01.039-.023.08-.034.12l-.075.26-.042.15-.072.256c-.015.06-.033.121-.05.183l-.071.261-.053.192c-.025.095-.052.19-.077.289l-.054.198a36.266 36.266 0 0 0-.136.518l-.1.385a58.1 58.1 0 0 0-.065.254c-.04.15-.077.302-.117.458l-.056.23c-.031.123-.063.244-.092.37l-.066.264-.086.356-.071.299-.083.35a48.71 48.71 0 0 0-.159.684l-.075.323-.09.397-.07.315c-.035.151-.067.307-.102.463-.03.14-.06.279-.092.42l-.126.59-.068.33-.094.453c-.027.126-.051.254-.078.381a98.15 98.15 0 0 0-.084.42l-.08.404a106.916 106.916 0 0 0-.162.84l-.084.448c-.026.138-.053.275-.078.415l-.084.467c-.025.138-.052.276-.075.417l-.093.533-.074.422c-.047.274-.093.55-.138.827l-.068.41-.084.533-.068.44c-.027.172-.055.346-.08.52l-.07.464-.075.51-.067.48-.073.527-.064.471-.073.56-.06.464-.076.624-.05.41a132.556 132.556 0 0 0-.457 4.517l-.009.12c-.039.463-.075.933-.11 1.407 0 .013 0 .027-.002.04-.033.46-.064.93-.092 1.405l-.005.066c-.028.47-.053.945-.076 1.426l-.002.019c-.12 2.495-.171 5.131-.123 7.863.058 3.372.271 6.892.692 10.486.035.291.067.581.103.871.586 4.628 1.526 9.362 2.945 14.05 1.037 3.178 2.706 7.622 4.287 10.868a62.466 62.466 0 0 0 2.273 4.178c7.527 12.611 17.56 18.99 29.847 18.99.847 0 1.7-.03 2.57-.09 7.378-.516 13.533-3.137 16.49-4.62 4.02-20.182-6.825-48.88-29.424-72.81a133.208 133.208 0 0 0-9.89-9.46c7.522 5.701 11.316 8.79 15.683 13.414 30.868 32.682 40.55 73.975 21.628 92.228-2.805 2.705-6.082 4.747-9.727 6.167 4.8-1.382 9.061-3.734 12.58-7.128a28.438 28.438 0 0 0 3.068-3.495C139.83 142.291 160 113.687 160 80.314c0-19.99-7.237-38.268-19.202-52.314"/></g></svg>