<svg xmlns="http://www.w3.org/2000/svg" width="423" height="560" viewBox="0 0 423 560">
    <g fill="none" fill-rule="evenodd">
        <g transform="translate(173)">
            <path fill="#00CC92" d="M125 320S1 278.37 1 160 125 0 125 0s124 41.63 124 160-124 160-124 160z"/>
            <path fill="#FAFAF5" d="M188.75 292.27l-161.31-40.6 13.18 12.79 127.44 34.04z"/>
            <path fill="#00835E" fill-rule="nonzero" d="M209.5 299a1 1 0 0 1-.25 0L46 257.42a1 1 0 0 1 .49-1.94L209.75 297a1.008 1.008 0 1 1-.25 2zM16.93 134.06h-.12l-14.93-1.94a1.007 1.007 0 0 1 .24-2l14.93 1.93a1.007 1.007 0 0 1-.12 2.01zM239.5 161h-.12l-115.75-14a1.007 1.007 0 1 1 .24-2l115.75 14a1.002 1.002 0 1 1-.12 2z"/>
            <path fill="#FAFAF5" d="M171.67 171.06l-84.8-12.27A32 32 0 0 0 65 163.51l-64 41 99.27 20.65 71.4-54.1z"/>
            <path fill="#00CC92" fill-rule="nonzero" d="M102.09 184.65l-43.76-7.82"/>
            <path fill="#00835E" fill-rule="nonzero" d="M102.09 185.65h-.18l-43.76-7.82a1.015 1.015 0 1 1 .35-2l43.76 7.82a1.004 1.004 0 1 1-.17 2zM100 249.55h-.22l-98-22a1.023 1.023 0 1 1 .43-2L99 247.3v-21L1.79 205.5a1.02 1.02 0 1 1 .41-2l98 21c.47.1.8.52.79 1v23a1 1 0 0 1-.99 1.05z"/>
            <path fill="#00CC92" d="M74 89v12.13c0 2.69 6 4.88 13.5 4.88s13.5-2.18 13.5-4.87V87"/>
            <path fill="#00835E" fill-rule="nonzero" d="M87.5 107c-7.21 0-14.5-2-14.5-5.87V89a1 1 0 0 1 2 0v12.13c0 1.58 4.87 3.88 12.5 3.88s12.5-2.3 12.5-3.88V87a1 1 0 1 1 2 0v14.13c0 3.87-7.29 5.87-14.5 5.87z"/>
            <path fill="#00CC92" d="M110.79 161a26.5 26.5 0 0 1 .79 8.74c-.58 8.54-4.64 15.22-9.07 14.92-4.43-.3-7.56-7.46-7-16 .56-8.54 4.64-15.22 9.07-14.92"/>
            <path fill="#00835E" fill-rule="nonzero" d="M102.8 185.68h-.36c-5.06-.34-8.54-7.84-7.91-17.07.63-9.23 5.08-16.19 10.14-15.85a1.002 1.002 0 1 1-.13 2c-3.8-.28-7.48 6.15-8 14-.52 7.85 2.24 14.68 6.05 14.94h.22c3.73 0 7.27-6.31 7.79-14a25.49 25.49 0 0 0-.75-8.4 1 1 0 0 1 1.93-.53 27.54 27.54 0 0 1 .82 9.07c-.6 8.99-4.89 15.84-9.8 15.84zM100.06 249.55a1 1 0 0 1-1-1v-23a1 1 0 0 1 .39-.79l66.07-51.28a10.22 10.22 0 0 1 16.48 8.03 1 1 0 0 1-.36.77l-80.94 67a1 1 0 0 1-.64.27zm1-23.55v20.43L180 181a8.22 8.22 0 0 0-13.25-6l-65.69 51z"/>
            <path fill="#FAFAF5" fill-rule="nonzero" d="M50.5 153.74h29v20.43h-29z"/>
            <path fill="#00CC92" d="M84.25 126.25L34.6 147.09l3.53 7.49 58.69 9.63 47.95-22.31 4.31-8.77z"/>
            <path fill="#00835E" fill-rule="nonzero" d="M96.82 163.21h-.16L38 153.56a1 1 0 0 1-.74-.56l-3.53-7.48a1 1 0 1 1 1.81-.85l3.31 7 57.87 9.5 47.35-22 4.16-8.45a1 1 0 1 1 1.79.88l-4.31 8.77a1 1 0 0 1-.48.46l-47.99 22.29a1 1 0 0 1-.42.09z"/>
            <path fill="#00835E" fill-rule="nonzero" d="M96.33 156.12h-.16l-61.74-10a1.013 1.013 0 0 1 .32-2l61.44 10 49.16-22.36-23.66-2.61a1.006 1.006 0 1 1 .22-2l27.27 3a1 1 0 0 1 .3 1.9L96.75 156a1 1 0 0 1-.42.12z"/>
            <path fill="#FAFAF5" d="M105.04 86.91L116 77.55V30.73l-11.15 5.94L105 87"/>
            <path fill="#00835E" fill-rule="nonzero" d="M105 87.81a1 1 0 0 1-.65-1.76l10.62-9V30.72L70.87 30a1 1 0 0 1 0-2l45.13.72a1 1 0 0 1 1 1v47.83a1 1 0 0 1-.36.76l-11 9.26a1 1 0 0 1-.64.24z"/>
            <path fill="#00CC92" d="M104.85 86.81L60.6 84.4V34.46l44.25 1.21z"/>
            <path fill="#00835E" fill-rule="nonzero" d="M104.85 87.81h-.05l-44.26-2.42a1 1 0 0 1-.95-1V34.46a1 1 0 0 1 1-1l44.25 1.21a1 1 0 0 1 1 1v51.14a1 1 0 0 1-.99 1zM61.6 83.45l42.25 2.31V36.64L61.6 35.49v48-.04zM93.78 196.54a32.92 32.92 0 0 1-7.24-.8 1.024 1.024 0 0 1 .44-2c2.232.5 4.513.752 6.8.75 14.69 0 28.26-16.47 34.55-42a1 1 0 1 1 1.94.48c-6.52 26.5-20.85 43.57-36.49 43.57z"/>
            <path fill="#00CC92" d="M67 45.52c-21.1 0-43 44.31-43 84.07 0 36.83 14.63 55.11 33.56 59.41l29.2 5.78S54.6 177.85 54.6 133.72c0-40.82 17.54-87.2 39.17-87.2l-26.77-1z"/>
            <path fill="#00835E" fill-rule="nonzero" d="M86.76 195.77h-.2L57.37 190C35.49 185 23 163.25 23 129.83 23 88.49 45.59 45 67 45l26.79.75a.9.9 0 0 1 1 .9 1 1 0 0 1-1 .92c-21.14 0-38.17 47.13-38.17 86.17 0 22.45 8.59 37.59 15.79 46.36a58.92 58.92 0 0 0 15.83 13.8 1 1 0 0 1-.48 1.87zM67 46.52c-20 0-42 43.49-42 83.07 0 32.41 12 53.7 32.83 58.42l24.08 4.77a66.59 66.59 0 0 1-11.95-11.35c-7.44-9-16.31-24.62-16.31-47.71 0-36.19 13.82-77.6 32.74-86.47L67 46.52z"/>
            <path fill="#00CC92" d="M84.34 31.47l-.15-19.08a.43.43 0 0 0 0-.06c0-.92-3.12-1.67-7-1.67s-7 .55-7 1.47v-.14l.15 19.49"/>
            <path fill="#00835E" fill-rule="nonzero" d="M70.41 32a.82.82 0 0 1-1-.75l-.28-19.18s-.13.09-.13.07V12a1.17 1.17 0 0 1 .41-.7c.81-1.09 3.45-1.64 7.76-1.64 1.87 0 8 .19 8 2.67a1 1 0 0 1 0 .15l.16 18.75a.81.81 0 0 1-1 .77.82.82 0 0 1-1-.76l-.15-18.8c-.57-.35-2.64-.84-6-.84-3.55 0-5.43.48-6 .77l.15 18.84a.83.83 0 0 1-1 .78l.08.01z"/>
            <path fill="#00CC92" d="M107.34 31.47l-.15-19.08a.43.43 0 0 0 0-.06c0-.92-3.12-1.67-7-1.67s-7 .55-7 1.47v-.14l.15 19.49"/>
            <path fill="#00835E" fill-rule="nonzero" d="M93.41 32a.82.82 0 0 1-1-.75l-.28-19.18s-.13.09-.13.07V12a1.17 1.17 0 0 1 .41-.7c.81-1.09 3.45-1.64 7.76-1.64 1.87 0 8 .19 8 2.67a1 1 0 0 1 0 .15l.16 18.75a.81.81 0 0 1-1 .77.82.82 0 0 1-1-.76l-.15-18.8c-.57-.35-2.64-.84-6-.84-3.55 0-5.43.48-6 .77l.15 18.84a.83.83 0 0 1-1 .78l.08.01z"/>
            <ellipse cx="91.78" cy="59.13" fill="#FAFAF5" fill-rule="nonzero" rx="5.13" ry="11.62"/>
            <path fill="#00835E" fill-rule="nonzero" d="M93.78 70.75c-3.49 0-6.13-5.43-6.13-12.62 0-7.19 2.63-12.62 6.13-12.62s6.13 5.43 6.13 12.62c0 7.19-2.64 12.62-6.13 12.62zm0-23.24c-1.95 0-4.13 4.54-4.13 10.62 0 6.08 2.18 10.62 4.13 10.62 1.95 0 4.13-4.54 4.13-10.62 0-6.08-2.18-10.62-4.13-10.62z"/>
            <path fill="#00835E" fill-rule="nonzero" d="M93.78 71h-.05L74.2 69.87a1.06 1.06 0 0 1-.95-1.11 1 1 0 0 1 1-1l19.53 1a1.13 1.13 0 0 1 0 2.24z"/>
            <ellipse cx="90.894" cy="135.695" fill="#FAFAF5" fill-rule="nonzero" rx="31.2" ry="8.5" transform="rotate(-1.54 90.894 135.695)"/>
            <path fill="#00835E" fill-rule="nonzero" d="M88.16 145.23c-14.67 0-29.3-2.89-29.45-8.67l-.2-7.4a1 1 0 1 1 2-.05l.2 7.4c.1 3.55 12.58 7.17 30.39 6.68 13.3-.36 25.22-3 29-6.51a1.001 1.001 0 1 1 1.36 1.47c-4.15 3.83-16.31 6.66-30.28 7-1.02.06-2.02.08-3.02.08z"/>
            <path fill="#00835E" fill-rule="nonzero" d="M88 137.83c-14.67 0-29.3-2.89-29.46-8.67-.14-5.31 11.7-8 16.79-8.9a1.015 1.015 0 0 1 .35 2c-10.48 1.86-15.2 4.87-15.14 6.87.1 3.54 12.62 7.16 30.39 6.68a86.76 86.76 0 0 0 21.73-3c6.15-1.85 8.3-3.94 8.26-5.27-.07-2.44-7-5.53-19.71-6.46a1.003 1.003 0 1 1 .15-2c10.33.75 21.43 3.36 21.56 8.4.08 2.8-3.27 5.31-9.68 7.24A88.83 88.83 0 0 1 91 137.79c-1 .02-2 .04-3 .04z"/>
            <path fill="#00835E" d="M93.32 121.58c1.09-.94.22-2.19-1.08-2.42a3.33 3.33 0 0 0-3.21 1l4.29 1.42z"/>
            <path fill="#00835E" fill-rule="nonzero" d="M93.32 122.58a1 1 0 0 1-.32-.05l-4.29-1.45a1 1 0 0 1-.53-1.47 4.25 4.25 0 0 1 4.24-1.43 2.84 2.84 0 0 1 2.32 1.91 2.16 2.16 0 0 1-.77 2.25 1 1 0 0 1-.65.24z"/>
            <path fill="#00835E" fill-rule="nonzero" d="M98.3 130.71a5.9 5.9 0 0 1-2.13-.42 1.002 1.002 0 1 1 .72-1.87 2.81 2.81 0 0 0 3.21-.4 1 1 0 0 1 1-.32c2.09.55 4.38.21 5-.47a.36.36 0 0 0 .09-.43c-.67-1-7.45-2.45-13.33-3.2a1 1 0 0 1-.86-.84 1.84 1.84 0 0 0-1.37-1 4.85 4.85 0 0 0-2.93.14 1 1 0 0 1-.87 0c-2.91-1.61-8.27-3.91-10.27-3.22a1.44 1.44 0 0 0-1.08.74c0 .33.73 1.2 2.38 1.7a1 1 0 0 1-.56 1.88c-2.28-.7-3.77-2.11-3.8-3.59 0-.68.29-1.93 2.44-2.66 3.17-1.08 9.67 2.18 11.48 3.15a7 7 0 0 1 3.78 0 4.1 4.1 0 0 1 2.54 1.84c5.32.7 13.65 2.17 14.38 4.5a2.35 2.35 0 0 1-.55 2.41c-1.31 1.37-4.18 1.6-6.45 1.14a4.61 4.61 0 0 1-2.82.92z"/>
            <path fill="#FAFAF5" d="M92.06 128.66c-1.8 2.35-6.8 4.42-8.42 4-1.62-.42-2.22-4.13-.42-6.48a6.19 6.19 0 0 1 6.94-2c2.43.64 3.7 2.14 1.9 4.48z"/>
            <path fill="#00835E" fill-rule="nonzero" d="M84.16 133.68a2.92 2.92 0 0 1-.8-.1 3.07 3.07 0 0 1-2-2.16 6.65 6.65 0 0 1 1-5.89 7.13 7.13 0 0 1 8-2.38c2.27.65 3.07 1.76 3.34 2.58a3.78 3.78 0 0 1-.91 3.53c-1.63 2.22-6.13 4.42-8.63 4.42zm3.84-8.87a4.79 4.79 0 0 0-4 1.95 4.64 4.64 0 0 0-.7 4 1.3 1.3 0 0 0 .61.86c1.09.31 5.68-1.43 7.36-3.61a2.13 2.13 0 0 0 .6-1.68 2.81 2.81 0 0 0-2-1.28 7 7 0 0 0-1.87-.24zM90.63 120.09a1 1 0 0 1-.93-.63l-1.15-2.93a1 1 0 0 1 1.86-.73l1.15 2.93a1 1 0 0 1-.93 1.36zM93.32 120.57a1 1 0 0 1-.61-1.79l2.89-2.21a1 1 0 1 1 1.21 1.59l-2.89 2.21a1 1 0 0 1-.6.2z"/>
            <path fill="#00835E" fill-rule="nonzero" d="M77.66 131.68a1 1 0 0 1-.76-.35 2.94 2.94 0 0 1-.74-3c1-2.68 6.45-3.66 7.53-3.83a1.012 1.012 0 1 1 .31 2c-2.15.34-5.53 1.38-6 2.55a1 1 0 0 0 .39 1.06 1 1 0 0 1-.73 1.57zM90.93 138a1.1 1.1 0 0 1-1-1.06 1 1 0 0 1 1-1.1c1.77-.08 2.15-.82 2.28-1.05.9-1.67-.8-5.24-1.46-6.35a1 1 0 0 1 1.72-1c.32.54 3.09 5.45 1.51 8.41A4.23 4.23 0 0 1 91 138h-.07zM213.81 275.76a13.15 13.15 0 0 1-2.89-.32l-80.34-18.1a5 5 0 0 1-2.27-8.58l62.53-56.93a9 9 0 0 1 7.42-2.24l49.89 7.62a1.011 1.011 0 1 1-.3 2L198 191.56a7 7 0 0 0-5.77 1.74l-62.53 56.93a3 3 0 0 0 1.36 5.15l80.34 18.1a11 11 0 0 0 10.9-3.73l18.3-22.16a1 1 0 0 1 1.54 1.27L223.8 271a12.93 12.93 0 0 1-9.99 4.76z"/>
            <path fill="#FAFAF5" d="M136.53 247.23l56.97-52.36 55.5 8.66V233l-26.75 31.75z"/>
            <path fill="#00835E" fill-rule="nonzero" d="M222.25 265.75h-.2l-85.72-17.52a1.02 1.02 0 1 1 .4-2l85.72 17.52a1.005 1.005 0 0 1-.2 2zM248 204.53h-.16l-54.5-8.66a1.012 1.012 0 1 1 .31-2l54.5 8.66a1.003 1.003 0 1 1-.15 2z"/>
            <ellipse cx="172.92" cy="259.89" fill="#FAFAF5" fill-rule="nonzero" rx="4.42" ry="2.44"/>
            <path fill="#00835E" fill-rule="nonzero" d="M214.5 208h-.16l-21-3.47a1.014 1.014 0 1 1 .33-2l21 3.47a1.004 1.004 0 1 1-.17 2zM197.5 233h-.18l-30-5.47a1.016 1.016 0 1 1 .36-2l30 5.47a1.004 1.004 0 1 1-.18 2z"/>
            <path fill="#00CC92" fill-rule="nonzero" d="M237.63 217.25h-.16L187.58 209a1.014 1.014 0 1 1 .33-2l49.88 8.25a1.003 1.003 0 1 1-.16 2zM219.25 219.5h-.17l-36-6.09a1.014 1.014 0 1 1 .33-2l36 6.09a1.003 1.003 0 1 1-.16 2zM186.69 243.39h-.19l-29.66-5.85a1.019 1.019 0 0 1 .39-2l29.66 5.85a1.005 1.005 0 0 1-.2 2zM213.69 242.11h-.19l-51.44-9.7a1.017 1.017 0 1 1 .37-2l51.44 9.7a1.004 1.004 0 0 1-.18 2zM218.25 225.75h-.17l-41-7.12a1.014 1.014 0 1 1 .34-2l41 7.13a1 1 0 0 1-.17 1.99z"/>
        </g>
        <path fill="#CDCABA" d="M124 560s124-41.63 124-160-124-160-124-160S0 281.63 0 400s124 160 124 160z"/>
        <path fill="#756B5E" fill-rule="nonzero" d="M177.81 380.85a1.002 1.002 0 1 1-.11-2l59.19-6.71a1.006 1.006 0 1 1 .22 2l-59.19 6.71h-.11zM9.5 401a1.002 1.002 0 1 1-.12-2l12.34-1.48a1.007 1.007 0 1 1 .24 2L9.62 401H9.5z"/>
        <path fill="#FAFAF5" d="M184 404.5l-142 20L2 318l142-10z"/>
        <path fill="#756B5E" fill-rule="nonzero" d="M44 422.5a1 1 0 0 1-.94-.65l-25.32-67.43a1 1 0 1 1 1.87-.7l25 66.68 139.93-19.71-39.46-95.31a1.002 1.002 0 0 1 1.85-.77l40 96.5a1 1 0 0 1-.78 1.37l-142 20H44v.02z"/>
        <path fill="#756B5E" fill-rule="nonzero" d="M11.07 334.82a1 1 0 0 1-.94-.65l-7.07-18.82a1 1 0 0 1 .87-1.35l142-10a1 1 0 0 1 1.07.93 1 1 0 0 1-.93 1.07L5.41 315.9 12 333.47a1 1 0 0 1-.93 1.35zM17 350.49a1 1 0 0 1-.94-.65l-4.26-11.22a1 1 0 1 1 1.87-.7l4.22 11.23a1 1 0 0 1-.89 1.34z"/>
        <path fill="#756B5E" fill-rule="nonzero" d="M140.15 479.05a17 17 0 0 1-7.91-2l-92.7-48.72a1 1 0 0 1-.47-.53L.06 324a1 1 0 1 1 1.87-.7L40.8 426.79l92.36 48.54a15 15 0 0 0 10.43 1.32l103.17-24.4a1.002 1.002 0 1 1 .46 1.95l-103.16 24.4a17 17 0 0 1-3.91.45zM240 422.5a1 1 0 0 1-.34-.06l-53.39-19.3a1 1 0 0 1 .68-1.88l53.39 19.3a1 1 0 0 1-.34 1.94z"/>
        <path fill="#FAFAF5" d="M60.25 532.27l161.31-40.6-13.18 12.79L80.94 538.5z"/>
        <path fill="#756B5E" fill-rule="nonzero" d="M39.5 539a1.008 1.008 0 1 1-.25-2l163.25-41.51a1 1 0 0 1 .49 1.94L39.75 539a1 1 0 0 1-.25 0z"/>
        <path fill="#FAFAF5" d="M213 346.51c-11.09 0-20 1.92-20 4.29l1 41.62c0 2.37 6.5 7.29 19 7.29 13.13 0 19-4.92 19-7.29l1-41.62c0-2.37-8.91-4.29-20-4.29z"/>
        <path fill="#756B5E" fill-rule="nonzero" d="M213.08 356.25c-4 0-16.91-.27-16.91-3.74 0-.68 0-2.75 10.63-3.52a1.003 1.003 0 1 1 .15 2c-5.2.38-7.61 1.11-8.48 1.53 1.41.7 6.37 1.74 14.62 1.74 9.08 0 14.17-1.25 14.93-1.94a1.005 1.005 0 1 1 2 .2c-.02 3.48-12.97 3.73-16.94 3.73zM202.66 372.65c1.35 0 1.86 1.78 1.86 1.78s.68 2.08 2.06 2.08a1.29 1.29 0 0 0 1.32-1.22v-.17a.61.61 0 0 0-.36-.65 2.45 2.45 0 0 1-1.07-.75c-.86-1-.4-2.29.61-3.18a6.72 6.72 0 0 0-1.62-1.45 1.86 1.86 0 0 0-2.19.43l-.24.33-.24.36-.2.32v.07c-.14.24-.273.487-.4.74v.07l-.17.36-.17.38v.07l-.12.31v.08l-.14.39V373.15a1.7 1.7 0 0 1 1.07-.5z"/>
        <path fill="#756B5E" fill-rule="nonzero" d="M205.61 368.6a6.52 6.52 0 0 1 2.11 1.48l.22-.12a4.18 4.18 0 0 1 1-.36 5.22 5.22 0 0 1-.66-2.46 2 2 0 0 1 1.84-1.62 1.74 1.74 0 0 0-1.41 1.72 6 6 0 0 0 1 2.26 2.24 2.24 0 0 1 2.12 1.07c.035.071.065.145.09.22a.69.69 0 0 0 .31.32c.49.16 1 .34 1.57.56a20 20 0 0 1 2.28 1.08.12.12 0 0 0 .14-.19c-3.66-3.52-1.08-4.89-1.08-4.89-1.32 1.91.89 3.3 3.43 4.73 2.24 1.26 3.82 2.62 5.55 1.7.86-.46.26-1.47-.13-2a7.23 7.23 0 0 1-.75-1.24 1.4 1.4 0 0 1-.11-.89 2 2 0 0 0-.37-1.41 4.74 4.74 0 0 0-1-1 2.85 2.85 0 0 1-.57-.59c-1.2-1.7-4.33-2.41-4.33-2.41a13.13 13.13 0 0 0-8.82 1 13.1 13.1 0 0 0-2.6 1.71l-.1.08c-.193.167-.38.337-.56.51l-.31.31c-.2.207-.393.42-.58.64l-.05.06a1.81 1.81 0 0 1 1.77-.27zm14.74.13a1 1 0 1 1 .41 1 1 1 0 0 1-.4-1h-.01zM207.9 378.54c0-.27 0-.54-.06-.85a2.48 2.48 0 0 1-1 .2c-2.56 0-2.62-2.53-3.53-3.92-.91-1.39-2.26.12-2.39 1V377.87a13.07 13.07 0 0 0 5.78 10.22 5.38 5.38 0 0 1-1.71-3.84 5.81 5.81 0 0 1 2.56-4.63c.289-.28.42-.684.35-1.08z"/>
        <path fill="#756B5E" fill-rule="nonzero" d="M218 387a8 8 0 0 1-2.46.6h-.45a6.22 6.22 0 0 1-5.48-3.4l-.22-.36a2.23 2.23 0 0 0-.39 1.25c0 1.87 2.24 3.56 4.93 3.56a7.86 7.86 0 0 0 2.14-.27 6.34 6.34 0 0 1-2.94.75c-3.08 0-5.66-2-5.66-4.47a4.23 4.23 0 0 1 .77-2.37 1.11 1.11 0 0 0 .15-1 4.14 4.14 0 0 0-2.29 3.58c0 2.31 2.06 4.29 5 5.1l.5.1a5.94 5.94 0 0 0 5.24-1.23A4.72 4.72 0 0 0 218 387z"/>
        <path fill="#756B5E" fill-rule="nonzero" d="M223.75 368.72a11.74 11.74 0 0 1-3.78 17 .85.85 0 0 1 0-.18 3.6 3.6 0 0 1 .59-1.45c1-1.44 1.67-3.63 0-6.47-.94-1.56-2.92-3.77-7-5.39-.56-.22-1.09-.41-1.59-.57l-.21-.06-.42-.12-.39-.11h-.18l-.35-.09-.31-.07H209.45v3.42c0 .24-.027.487-.08.74V377.28c.008.571.045 1.142.11 1.71v.14c.098.776.262 1.542.49 2.29.2.604.437 1.195.71 1.77.12.23.24.46.37.68a5.61 5.61 0 0 0 4.92 3.1h.42a7.48 7.48 0 0 0 2.72-.75c.66-3.29-1.13-8-4.85-11.88a22 22 0 0 0-1.63-1.54 18.76 18.76 0 0 1 2.59 2.19c5.09 5.33 6.68 12.07 3.56 15a4.8 4.8 0 0 1-1.6 1 4.91 4.91 0 0 0 2.07-1.16 4.66 4.66 0 0 0 .51-.57 13.09 13.09 0 0 0 3.99-20.54zM209.19 343.67a1 1 0 0 1-.89-.55 21.29 21.29 0 0 1 0-17.6c2.37-5.3-2.11-10.83-2.16-10.88a1.001 1.001 0 0 1 1.54-1.28c.22.26 5.32 6.53 2.44 13a19.22 19.22 0 0 0 0 15.88 1 1 0 0 1-.93 1.43zM213.62 348.67a1 1 0 0 1-.89-1.45 12.69 12.69 0 0 0 0-10.49c-2-4.55 1.55-8.95 1.7-9.13a1.01 1.01 0 1 1 1.57 1.27c0 .05-2.93 3.65-1.42 7a14.8 14.8 0 0 1 0 12.2 1 1 0 0 1-.96.6z"/>
        <path fill="#FAFAF5" d="M185.98 457.11l-25.08-10.17 43.6-8.77 25.17 9.47z"/>
        <path fill="#756B5E" fill-rule="nonzero" d="M188 456.11a1 1 0 0 1-.38-.07l-25.09-10.17a1 1 0 0 1 .18-1.91l43.61-8.77a1.019 1.019 0 1 1 .39 2l-40.34 8.11 21.72 8.8 43.38-9.41a1.022 1.022 0 1 1 .42 2l-43.68 9.47-.21-.05zM109.79 450.6a1.005 1.005 0 1 1-.19-2l124.71-24.42a1.018 1.018 0 1 1 .38 2L110 450.59l-.21.01zM61.51 427.39a1.003 1.003 0 0 1-.15-2L186.16 406a1.012 1.012 0 1 1 .31 2l-124.8 19.4h-.16v-.01zM59.5 403.2a1 1 0 0 1-.94-.65l-24.4-65.33a1 1 0 0 1 .84-1.34l100.82-9.05a1 1 0 0 1 1 .64l23.59 61.24a1 1 0 0 1-.8 1.35l-100 13.13h-.11v.01zm-23-65.44l23.66 63.34 98-12.87-22.91-59.35-98.75 8.88z"/>
        <path fill="#756B5E" fill-rule="nonzero" d="M33.87 334.64a1 1 0 0 1-.94-.64l-.42-1.11a3 3 0 0 1 2.56-4.06l95.34-7.62a5 5 0 0 1 5 2.94l1.45 3.25a1.003 1.003 0 1 1-1.83.82l-1.48-3.22a3 3 0 0 0-3-1.77l-95.32 7.6a1 1 0 0 0-.86 1.35l.42 1.11a1 1 0 0 1-.92 1.35zM94.86 385.1h-.17a1 1 0 0 1-.82-1.16l7.1-41.23a1.014 1.014 0 1 1 2 .34l-7.1 41.23a1 1 0 0 1-1.01.82zM86.75 380.85a1 1 0 0 1-.58-.18l-21.11-15 14.54-17.81a1 1 0 1 1 1.55 1.26L68 365.3 87.33 379a1 1 0 0 1-.58 1.85zM114.87 377.83a1 1 0 0 1-.81-1.59l12.75-17.38L110 346.31a1 1 0 1 1 1.2-1.6l18.4 13.73-13.92 19a1 1 0 0 1-.81.39z"/>
    </g>
</svg>
