<?xml version="1.0" encoding="UTF-8"?>
<svg width="1040px" height="826px" viewBox="0 0 1040 826" version="1.1" xmlns="http://www.w3.org/2000/svg" xmlns:xlink="http://www.w3.org/1999/xlink">
    <!-- Generator: Sketch 43.2 (39069) - http://www.bohemiancoding.com/sketch -->
    <title>Branches-1</title>
    <desc>Created with Sketch.</desc>
    <defs>
        <linearGradient x1="50%" y1="0%" x2="50%" y2="100%" id="linearGradient-1">
            <stop stop-color="#FFFFFF" stop-opacity="0" offset="0%"></stop>
            <stop stop-color="#FFFFFF" offset="100%"></stop>
        </linearGradient>
        <linearGradient x1="50%" y1="0%" x2="50%" y2="100%" id="linearGradient-2">
            <stop stop-color="#E9E8DD" offset="0%"></stop>
            <stop stop-color="#FAFAF5" offset="100%"></stop>
        </linearGradient>
    </defs>
    <g id="INHS-Pages" stroke="none" stroke-width="1" fill="none" fill-rule="evenodd">
        <g id="Branches-1">
            <g transform="translate(122.000000, 0.000000)">
                <rect id="Rectangle-3-Copy-8" fill="url(#linearGradient-1)" x="606" y="1" width="12" height="824"></rect>
                <rect id="Rectangle-3-Copy-11" fill="url(#linearGradient-1)" x="680" y="1" width="12" height="824"></rect>
                <rect id="Rectangle-3-Copy-12" fill="url(#linearGradient-1)" x="906" y="1" width="12" height="824"></rect>
                <rect id="Rectangle-3-Copy-10" fill="url(#linearGradient-1)" x="734" y="1" width="4" height="824"></rect>
                <rect id="Rectangle-3-Copy-15" fill="url(#linearGradient-1)" x="746" y="1" width="4" height="824"></rect>
                <rect id="Rectangle-3-Copy-13" fill="url(#linearGradient-1)" x="868" y="1" width="4" height="824"></rect>
                <path d="M630,570.618129 L630,825 L618,825 L618,570.670427 C591.000297,567.685762 570,544.795322 570,517 L570,179 C570,177.895431 570.895431,177 572,177 C573.104569,177 574,177.895431 574,179 L574,517 C574,544.614237 596.385763,567 624,567 C632.22797,567 640.286616,564.642594 648.013327,560.260323 C648.974124,559.715398 650.194753,560.05253 650.739677,561.013327 C651.284602,561.974124 650.94747,563.194753 649.986673,563.739677 C643.550911,567.389775 636.858572,569.744483 630,570.618129 Z" id="Combined-Shape" fill="url(#linearGradient-2)"></path>
                <path d="M782,745 C778.586322,743.28942 772,738.892977 772,730.434039 C772,719.016172 784,715 784,715 C784,715 796,719.016172 796,730.434039 C796,738.892977 789.413678,743.28942 786,745 L786,725.294449 C786,724.15447 785.104569,723.231488 784,723.231488 C782.88773,723.231488 782,724.155107 782,725.294449 L782,745 L782,745 Z" id="Combined-Shape" fill="#E9E8DE"></path>
                <path d="M707,693 C703.586322,691.28942 697,686.892977 697,678.434039 C697,667.016172 709,663 709,663 C709,663 721,667.016172 721,678.434039 C721,686.892977 714.413678,691.28942 711,693 L711,673.294449 C711,672.15447 710.104569,671.231488 709,671.231488 C707.88773,671.231488 707,672.155107 707,673.294449 L707,693 L707,693 Z" id="Combined-Shape-Copy-6" fill="#E9E8DE"></path>
                <path d="M836,645 C832.586322,643.28942 826,638.892977 826,630.434039 C826,619.016172 838,615 838,615 C838,615 850,619.016172 850,630.434039 C850,638.892977 843.413678,643.28942 840,645 L840,625.294449 C840,624.15447 839.104569,623.231488 838,623.231488 C836.88773,623.231488 836,624.155107 836,625.294449 L836,645 L836,645 Z" id="Combined-Shape-Copy-5" fill="#CDCABA"></path>
                <path d="M622,561 C618.586322,559.28942 612,554.892977 612,546.434039 C612,535.016172 624,531 624,531 C624,531 636,535.016172 636,546.434039 C636,554.892977 629.413678,559.28942 626,561 L626,541.294449 C626,540.15447 625.104569,539.231488 624,539.231488 C622.88773,539.231488 622,540.155107 622,541.294449 L622,561 L622,561 Z" id="Combined-Shape-Copy-7" fill="#E9E8DE"></path>
                <path d="M716,702.670427 L716,825 L704,825 L704,702.670427 C677.000297,699.685762 656,676.795322 656,649 L656,179 C656,177.895431 656.895431,177 658,177 C659.104569,177 660,177.895431 660,179 L660,649 C660,676.614237 682.385763,699 710,699 C737.614237,699 760,676.614237 760,649 L760,187 C760,185.895431 760.895431,185 762,185 C763.104569,185 764,185.895431 764,187 L764,649 C764,676.795322 742.999703,699.685762 716,702.670427 L716,702.670427 Z" id="Combined-Shape" fill="#E9E8DE"></path>
                <path d="M730,701 C730,728.795322 751.000297,751.685762 778,754.670427 L778,825 L790,825 L790,754.664296 C803.918479,753.098696 816.570416,746.129175 825.541645,735.2741 C826.245311,734.422673 826.125527,733.162021 825.2741,732.458355 C824.422673,731.754689 823.162021,731.874473 822.458355,732.7259 C812.960884,744.217721 799.037722,751 784,751 C756.385763,751 734,728.614237 734,701 L734,179 C734,177.895431 733.104569,177 732,177 C730.895431,177 730,177.895431 730,179 L730,701 L730,701 Z" id="Combined-Shape" fill="#E9E8DE"></path>
                <path d="M838,651 C865.614237,651 888,628.614237 888,601 L888,121 C888,95.5949015 867.405098,75 842,75 C814.385763,75 792,52.6142375 792,25 L792,1 L796,1 L796,25 C796,50.4050985 816.594902,71 842,71 C869.614237,71 892,93.3857625 892,121 L892,601 C892,628.795322 870.999703,651.685762 844,654.670427 L844,825 L832,825 L832,654.670427 C805.000591,651.685794 784.000457,628.79582 784,601.000908 L785,216.997419 C784.998607,191.593509 764.40424,171 739,171 L578,171 C551.221461,171 529.359724,149.94867 528.061032,123.492254 C528.021176,123.334779 528,1 528,1 L532,1 L532,121 C532,146.405098 552.594902,167 578,167 L739,167 C766.613934,167 788.999509,189.385271 789,216.999091 L788,601.002583 C788.001394,628.615631 810.386622,651 838,651 Z" id="Combined-Shape" fill="#CDCABA"></path>
                <path d="M570,0.998266566 L570,159 C570,160.104569 570.895431,161 572,161 C573.104569,161 574,160.104569 574,159 L574,0.998266566 L570,0.998266566 Z" id="Oval-5" fill="#E9E8DE" fill-rule="nonzero"></path>
                <path d="M659.310178,557.511104 C671.144194,547.250611 678,532.781716 678,517 L678,179 C678,177.895431 677.104569,177 676,177 C674.895431,177 674,177.895431 674,179 L674,517 C674,531.600515 667.662768,544.974981 656.689822,554.488896 C655.855263,555.212488 655.765305,556.475618 656.488896,557.310178 C657.212488,558.144737 658.475618,558.234695 659.310178,557.511104 Z" id="Path" fill="#E9E8DE" fill-rule="nonzero"></path>
                <path d="M678,159 L678,0.998266566 L674,0.998266566 L674,159 C674,160.104569 674.895431,161 676,161 C677.104569,161 678,160.104569 678,159 Z" id="Path" fill="#E9E8DE" fill-rule="nonzero"></path>
                <path d="M656,0.998266566 L656,159 C656,160.104569 656.895431,161 658,161 C659.104569,161 660,160.104569 660,159 L660,0.998266566 L656,0.998266566 Z" id="Oval-5" fill="#E9E8DE" fill-rule="nonzero"></path>
                <path d="M764,164 L764,0.998266566 L760,0.998266566 L760,164 C760,165.104569 760.895431,166 762,166 C763.104569,166 764,165.104569 764,164 Z" id="Path" fill="#E9E8DE" fill-rule="nonzero"></path>
                <path d="M520,75 C521.104569,75 522,74.1045695 522,73 C522,71.8954305 521.104569,71 520,71 L314,71 C288.594902,71 268,50.4050985 268,25 L268,1 L264,1 L264,25 C264,52.6142375 286.385763,75 314,75 L520,75 Z" id="Combined-Shape" fill="#E9E8DE" fill-rule="nonzero"></path>
                <path d="M840,168.999999 C840,141.385762 817.614237,119 790,119 L732,119 C730.895431,119 730,119.895431 730,121 C730,122.104569 730.895431,123 732,123 L790,123 C815.405098,123 836,143.594902 836,169 L836,608 C836,609.104569 836.895431,610 838,610 C839.104569,610 840,609.104569 840,608 L840,169 L840,168.999999 Z" id="Combined-Shape" fill="#E9E8DE" fill-rule="nonzero"></path>
                <path d="M722,119 L540,119 C538.895431,119 538,119.895431 538,121 C538,122.104569 538.895431,123 540,123 L722,123 C723.104569,123 724,122.104569 724,121 C724,119.895431 723.104569,119 722,119 Z" id="Rectangle-2-Copy-22" fill="#E9E8DE" fill-rule="nonzero"></path>
                <path d="M50,123 L519,123 C520.104569,123 521,122.104569 521,121 C521,119.895431 520.104569,119 519,119 L50,119 C24.5949015,119 4,98.4050985 4,73 L4,0.99826391 L0,0.99826391 L0,73 C0,100.614237 22.3857625,123 50,123 L50,123 Z" id="Combined-Shape" fill="#E9E8DE" fill-rule="nonzero"></path>
                <path d="M684,75 L540,75 C538.895431,75 538,74.1045695 538,73 C538,71.8954305 538.895431,71 540,71 L684,71 C711.614237,71 734,93.3857625 734,121 L734,159.002659 C734,160.107229 733.104569,161.002659 732,161.002659 C730.895431,161.002659 730,160.107229 730,159.002659 L730,121 C730,95.5949015 709.405098,75 684,75 L684,75 Z" id="Combined-Shape" fill="#E9E8DE" fill-rule="nonzero"></path>
            </g>
        </g>
    </g>
</svg>