<?xml version="1.0" encoding="UTF-8"?>
<svg width="1040px" height="1200px" viewBox="0 0 1040 1200" version="1.1" xmlns="http://www.w3.org/2000/svg" xmlns:xlink="http://www.w3.org/1999/xlink">
    <!-- Generator: Sketch 43.2 (39069) - http://www.bohemiancoding.com/sketch -->
    <title>Branches-1</title>
    <desc>Created with Sketch.</desc>
    <defs>
        <linearGradient x1="50%" y1="0%" x2="50%" y2="100%" id="linearGradient-1">
            <stop stop-color="#FFFFFF" stop-opacity="0" offset="0%"></stop>
            <stop stop-color="#FFFFFF" offset="100%"></stop>
        </linearGradient>
        <linearGradient x1="50%" y1="0%" x2="50%" y2="100%" id="linearGradient-2">
            <stop stop-color="#E9E8DD" offset="0%"></stop>
            <stop stop-color="#FAFAF5" offset="100%"></stop>
        </linearGradient>
    </defs>
    <g id="INHS-Pages" stroke="none" stroke-width="1" fill="none" fill-rule="evenodd">
        <g id="Branches-1">
            <g transform="translate(122.000000, 0.000000)">
                <rect id="Rectangle-3-Copy-8" fill="url(#linearGradient-1)" x="606" y="0" width="12" height="1200"></rect>
                <rect id="Rectangle-3-Copy-11" fill="url(#linearGradient-1)" x="680" y="0" width="12" height="1200"></rect>
                <rect id="Rectangle-3-Copy-12" fill="url(#linearGradient-1)" x="906" y="0" width="12" height="1200"></rect>
                <rect id="Rectangle-3-Copy-10" fill="url(#linearGradient-1)" x="734" y="0" width="4" height="1200"></rect>
                <rect id="Rectangle-3-Copy-15" fill="url(#linearGradient-1)" x="746" y="0" width="4" height="1200"></rect>
                <polygon id="Rectangle-3-Copy-13" fill="url(#linearGradient-1)" points="868 0 872 0 872 1200 868 1200"></polygon>
                <path d="M630,757.618129 L630,1200 L618,1200 L618,757.670427 C591.000297,754.685762 570,731.795322 570,704 L570,366 C570,364.895431 570.895431,364 572,364 C573.104569,364 574,364.895431 574,366 L574,704 C574,731.614237 596.385763,754 624,754 C632.22797,754 640.286616,751.642594 648.013327,747.260323 C648.974124,746.715398 650.194753,747.05253 650.739677,748.013327 C651.284602,748.974124 650.94747,750.194753 649.986673,750.739677 C643.550911,754.389775 636.858572,756.744483 630,757.618129 Z" id="Combined-Shape" fill="url(#linearGradient-2)"></path>
                <path d="M782,932 C778.586322,930.28942 772,925.892977 772,917.434039 C772,906.016172 784,902 784,902 C784,902 796,906.016172 796,917.434039 C796,925.892977 789.413678,930.28942 786,932 L786,912.294449 C786,911.15447 785.104569,910.231488 784,910.231488 C782.88773,910.231488 782,911.155107 782,912.294449 L782,932 L782,932 Z" id="Combined-Shape" fill="#E9E8DE"></path>
                <path d="M707,880 C703.586322,878.28942 697,873.892977 697,865.434039 C697,854.016172 709,850 709,850 C709,850 721,854.016172 721,865.434039 C721,873.892977 714.413678,878.28942 711,880 L711,860.294449 C711,859.15447 710.104569,858.231488 709,858.231488 C707.88773,858.231488 707,859.155107 707,860.294449 L707,880 L707,880 Z" id="Combined-Shape-Copy-6" fill="#E9E8DE"></path>
                <path d="M836,832 C832.586322,830.28942 826,825.892977 826,817.434039 C826,806.016172 838,802 838,802 C838,802 850,806.016172 850,817.434039 C850,825.892977 843.413678,830.28942 840,832 L840,812.294449 C840,811.15447 839.104569,810.231488 838,810.231488 C836.88773,810.231488 836,811.155107 836,812.294449 L836,832 L836,832 Z" id="Combined-Shape-Copy-5" fill="#E9E8DE"></path>
                <path d="M622,748 C618.586322,746.28942 612,741.892977 612,733.434039 C612,722.016172 624,718 624,718 C624,718 636,722.016172 636,733.434039 C636,741.892977 629.413678,746.28942 626,748 L626,728.294449 C626,727.15447 625.104569,726.231488 624,726.231488 C622.88773,726.231488 622,727.155107 622,728.294449 L622,748 L622,748 Z" id="Combined-Shape-Copy-7" fill="#E9E8DE"></path>
                <path d="M716,1200 L704,1200 L704,889.670427 C677.000297,886.685762 656,863.795322 656,836 L656,366 C656,364.895431 656.895431,364 658,364 C659.104569,364 660,364.895431 660,366 L660,836 C660,863.614237 682.385763,886 710,886 C737.614237,886 760,863.614237 760,836 L760,374 C760,372.895431 760.895431,372 762,372 C763.104569,372 764,372.895431 764,374 L764,836 C764,863.795322 742.999703,886.685762 716,889.670427 L716,1200 Z" id="Combined-Shape" fill="#E9E8DE"></path>
                <path d="M778,941.670427 L778,1200 L790,1200 L790,941.664296 C803.918479,940.098696 816.570416,933.129175 825.541645,922.2741 C826.245311,921.422673 826.125527,920.162021 825.2741,919.458355 C824.422673,918.754689 823.162021,918.874473 822.458355,919.7259 C812.960884,931.217721 799.037722,938 784,938 C756.385763,938 734,915.614237 734,888 L734,366 C734,364.895431 733.104569,364 732,364 C730.895431,364 730,364.895431 730,366 L730,888 C730,915.795322 751.000297,938.685762 778,941.670427 Z" id="Combined-Shape" fill="#E9E8DE"></path>
                <path d="M838,838 C865.614237,838 888,815.614237 888,788 L888,308 C888,282.594902 867.405098,262 842,262 C814.385763,262 792,239.614237 792,212 L792,0 L796,0 L796,212 C796,237.405098 816.594902,258 842,258 C869.614237,258 892,280.385763 892,308 L892,788 C892,815.795322 870.999703,838.685762 844,841.670427 L844,1200 L832,1200 L832,841.670427 C805.000591,838.685794 784.000457,815.79582 784,788.000908 L785,403.997419 C784.998607,378.593509 764.40424,358 739,358 L578,358 C551.221461,358 529.359724,336.94867 528.061032,310.492254 C528.021176,310.334779 528,0 528,0 L532,0 L532,308 C532,333.405098 552.594902,354 578,354 L739,354 C766.613934,354 788.999509,376.385271 789,403.999091 L788,788.002583 C788.001394,815.615631 810.386622,838 838,838 Z" id="Combined-Shape" fill="#E9E8DE"></path>
                <path d="M570,0 L570,346 C570,347.104569 570.895431,348 572,348 C573.104569,348 574,347.104569 574,346 L574,0 L570,0 Z" id="Oval-5" fill="#E9E8DE" fill-rule="nonzero"></path>
                <path d="M659.310178,744.511104 C671.144194,734.250611 678,719.781716 678,704 L678,366 C678,364.895431 677.104569,364 676,364 C674.895431,364 674,364.895431 674,366 L674,704 C674,718.600515 667.662768,731.974981 656.689822,741.488896 C655.855263,742.212488 655.765305,743.475618 656.488896,744.310178 C657.212488,745.144737 658.475618,745.234695 659.310178,744.511104 Z" id="Path" fill="#E9E8DE" fill-rule="nonzero"></path>
                <path d="M678,346 L678,0 L674,0 L674,346 C674,347.104569 674.895431,348 676,348 C677.104569,348 678,347.104569 678,346 Z" id="Path" fill="#E9E8DE" fill-rule="nonzero"></path>
                <path d="M656,0 L656,346 C656,347.104569 656.895431,348 658,348 C659.104569,348 660,347.104569 660,346 L660,0 L656,0 Z" id="Oval-5" fill="#E9E8DE" fill-rule="nonzero"></path>
                <path d="M764,351 L764,0 L760,0 L760,351 C760,352.104569 760.895431,353 762,353 C763.104569,353 764,352.104569 764,351 Z" id="Path" fill="#E9E8DE" fill-rule="nonzero"></path>
                <path d="M520,262 C521.104569,262 522,261.104569 522,260 C522,258.895431 521.104569,258 520,258 L314,258 C288.594902,258 268,237.405098 268,212 L268,0 L264,0 L264,212 C264,239.614237 286.385763,262 314,262 L520,262 Z" id="Combined-Shape" fill="#E9E8DE" fill-rule="nonzero"></path>
                <path d="M840,355.999999 C840,328.385762 817.614237,306 790,306 L732,306 C730.895431,306 730,306.895431 730,308 C730,309.104569 730.895431,310 732,310 L790,310 C815.405098,310 836,330.594902 836,356 L836,795 C836,796.104569 836.895431,797 838,797 C839.104569,797 840,796.104569 840,795 L840,356 L840,355.999999 Z" id="Combined-Shape" fill="#E9E8DE" fill-rule="nonzero"></path>
                <path d="M722,306 L540,306 C538.895431,306 538,306.895431 538,308 C538,309.104569 538.895431,310 540,310 L722,310 C723.104569,310 724,309.104569 724,308 C724,306.895431 723.104569,306 722,306 Z" id="Rectangle-2-Copy-22" fill="#E9E8DE" fill-rule="nonzero"></path>
                <path d="M519,310 C520.104569,310 521,309.104569 521,308 C521,306.895431 520.104569,306 519,306 L50,306 C24.5949015,306 4,285.405098 4,260 L4,1.42108547e-14 L0,1.42108547e-14 L0,260 C0,287.614237 22.3857625,310 50,310 L519,310 Z" id="Combined-Shape" fill="#E9E8DE" fill-rule="nonzero"></path>
                <path d="M684,262 L540,262 C538.895431,262 538,261.104569 538,260 C538,258.895431 538.895431,258 540,258 L684,258 C711.614237,258 734,280.385763 734,308 L734,346.002659 C734,347.107229 733.104569,348.002659 732,348.002659 C730.895431,348.002659 730,347.107229 730,346.002659 L730,308 C730,282.594902 709.405098,262 684,262 L684,262 Z" id="Combined-Shape" fill="#E9E8DE" fill-rule="nonzero"></path>
            </g>
        </g>
    </g>
</svg>