<svg xmlns="http://www.w3.org/2000/svg" width="424" height="824" viewBox="0 0 424 824">
    <defs>
        <linearGradient id="a" x1="50%" x2="50%" y1="0%" y2="100%">
            <stop offset="0%" stop-color="#FFF"/>
            <stop offset="100%" stop-color="#FAFAF5"/>
        </linearGradient>
        <linearGradient id="b" x1="50%" x2="50%" y1="0%" y2="100%">
            <stop offset="0%" stop-color="#E9E8DD"/>
            <stop offset="100%" stop-color="#FFF"/>
        </linearGradient>
    </defs>
    <g fill="none" fill-rule="evenodd">
        <path fill="url(#a)" d="M0 1.999h32V825H0zM350 1.999h32V825h-32zM228 1.999h12V825h-12zM208 1.999h12V825h-12z" transform="translate(0 -1)"/>
        <path fill="url(#b)" d="M46 155h32v670H46z" transform="translate(0 -1)"/>
        <path fill="#FFF" fill-rule="nonzero" d="M58 508c0 38.66 31.34 70 70 70s70-31.34 70-70h-13.548c0 31.177-25.275 56.452-56.452 56.452S71.548 539.177 71.548 508H58z"/>
        <path fill="#E9E8DE" fill-rule="nonzero" d="M0 101c0 34.242 27.758 62 62 62 34.242 0 62-27.758 62-62h-12c0 27.614-22.386 50-50 50s-50-22.386-50-50H0z"/>
        <path fill="#E9E8DE" d="M0-.001h12v101H0zM112 0h12v101h-12z"/>
        <path fill="url(#b)" d="M290 475h32v350h-32z" transform="translate(0 -1)"/>
        <path fill="#E9E8DE" fill-rule="nonzero" d="M244 420c0 34.242 27.758 62 62 62 34.242 0 62-27.758 62-62h-12c0 27.614-22.386 50-50 50s-50-22.386-50-50h-12zM300 254c0 34.242 27.758 62 62 62 34.242 0 62-27.758 62-62h-12c0 27.614-22.386 50-50 50s-50-22.386-50-50h-12z"/>
        <path fill="#E9E8DE" d="M356 308h12v112h-12zM412-.001h12v254h-12zM300-.001h12v254h-12zM244-.001h12V420.49h-12z"/>
        <path fill="url(#b)" d="M112 563h32v262h-32z" transform="translate(0 -1)"/>
        <path fill="#E9E8DE" fill-rule="nonzero" d="M66 508c0 34.242 27.758 62 62 62 34.242 0 62-27.758 62-62h-12c0 27.614-22.386 50-50 50s-50-22.386-50-50H66z"/>
        <path fill="#E9E8DE" d="M178-.001h12v508h-12zM66-.001h12v508H66z"/>
        <path fill="#FFF" d="M58 145.76h8V508h-8z"/>
        <path fill="#E9E8DE" d="M198 698h32v126h-32z"/>
        <path fill="#E9E8DE" fill-rule="nonzero" d="M152 644c0 34.242 27.758 62 62 62 34.242 0 62-27.758 62-62h-12c0 27.614-22.386 50-50 50s-50-22.386-50-50h-12z"/>
        <path fill="#E9E8DE" d="M264-.001h12v644.219h-12zM152-.001h12v644.219h-12z"/>
        <path fill="#FFF" d="M144 543.341h8v31.961h-8zM256 412.499h8v54.933h-8z"/>
        <path fill="#E9E8DE" d="M360 295c-7.004-2.887-30-14.294-30-39.619C330 225.508 362 215 362 215s32 10.508 32 40.381c0 25.325-22.996 36.732-30 39.619v-61.835a2.008 2.008 0 0 0-2-2.013c-1.112 0-2 .901-2 2.013V295zM304 460c-7.004-2.887-30-14.294-30-39.619C274 390.508 306 380 306 380s32 10.508 32 40.381c0 25.325-22.996 36.732-30 39.619v-61.835a2.008 2.008 0 0 0-2-2.013c-1.112 0-2 .901-2 2.013V460zM212 684c-7.004-2.887-30-14.294-30-39.619C182 614.508 214 604 214 604s32 10.508 32 40.381c0 25.325-22.996 36.732-30 39.619v-61.835a2.008 2.008 0 0 0-2-2.013c-1.112 0-2 .901-2 2.013V684zM126 548c-7.004-2.887-30-14.294-30-39.619C96 478.508 128 468 128 468s32 10.508 32 40.381c0 25.325-22.996 36.732-30 39.619v-61.835a2.008 2.008 0 0 0-2-2.013c-1.112 0-2 .901-2 2.013V548zM62 142c-7.004-2.887-30-14.294-30-39.619C32 72.508 64 62 64 62s32 10.508 32 40.381c0 25.325-22.996 36.732-30 39.619V80.165a2.008 2.008 0 0 0-2-2.013c-1.112 0-2 .901-2 2.013V142z"/>
    </g>
</svg>
