<svg xmlns="http://www.w3.org/2000/svg" width="424" height="824" viewBox="0 0 424 824">
    <defs>
        <linearGradient id="a" x1="50%" x2="50%" y1="0%" y2="100%">
            <stop offset="0%" stop-color="#FFF" stop-opacity="0"/>
            <stop offset="100%" stop-color="#FFF"/>
        </linearGradient>
        <linearGradient id="b" x1="50%" x2="50%" y1="0%" y2="100%">
            <stop offset="0%" stop-color="#E9E8DD"/>
            <stop offset="100%" stop-color="#FAFAF5"/>
        </linearGradient>
    </defs>
    <g fill="none" fill-rule="evenodd">
        <path fill="url(#a)" d="M292 0h32v824h-32zM388 0h32v824h-32zM0 0h80v824H0zM196 0h32v824h-32z"/>
        <path fill="url(#b)" d="M80 700h80v124H80zM372 315h32v509h-32z"/>
        <path fill="#E9E8DD" fill-rule="nonzero" d="M172 649.953C161.632 667.913 142.228 680 120 680c-33.137 0-60-26.863-60-60H28c0 50.81 41.19 92 92 92 19.298 0 37.207-5.941 52-16.095v-45.952z"/>
        <path fill="#E9E8DD" d="M28 0h32v620H28zM218 511.43V183l-32-24v346.156c9.869 4.045 20.674 6.275 32 6.275z"/>
        <path fill="#E9E8DE" d="M180 536h80v288h-80z"/>
        <path fill="#E9E8DE" fill-rule="nonzero" d="M88 422c0 71.797 58.203 130 130 130s130-58.203 130-130h-32c0 54.124-43.876 98-98 98s-98-43.876-98-98H88z"/>
        <path fill="#E9E8DE" d="M316 330h32v93h-32z"/>
        <path fill="#E9E8DE" fill-rule="nonzero" d="M240 262c0 50.81 41.19 92 92 92s92-41.19 92-92h-32c0 33.137-26.863 60-60 60s-60-26.863-60-60h-32zM164 106c0 50.81 41.19 92 92 92s92-41.19 92-92h-32c0 33.137-26.863 60-60 60s-60-26.863-60-60h-32z"/>
        <path fill="#E9E8DE" d="M240 184h32v79h-32zM164 0h32v107h-32zM316 0h32v107h-32zM88 0h32v423H88zM392 0h32v263h-32z"/>
        <path fill="#CDCABA" fill-rule="nonzero" d="M223 607c0-16.067-3.695-29-9-29s-9 12.933-9 29 3.695 29 9 29c4.232 0 7.388-7.987 8.553-19.694a1 1 0 0 0-1.99-.198C219.506 626.724 216.63 634 214 634c-3.532 0-7-12.14-7-27s3.468-27 7-27 7 12.14 7 27a1 1 0 1 0 2 0zM238.273 736.686C239.51 738.774 241.157 740 243 740c4.054 0 7-5.891 7-13s-2.946-13-7-13-7 5.891-7 13a1 1 0 1 0 2 0c0-6.146 2.427-11 5-11s5 4.854 5 11-2.427 11-5 11c-1.027 0-2.095-.796-3.006-2.334a1 1 0 0 0-1.72 1.02z"/>
        <path fill="#CDCABA" fill-rule="nonzero" d="M249.766 706.5c-1.99-2.26-4.309-3.5-6.766-3.5-7.362 0-13 11.04-13 24.5a1 1 0 1 0 2 0c0-12.498 5.107-22.5 11-22.5 1.828 0 3.629.962 5.265 2.822a1 1 0 0 0 1.501-1.321zM232.055 740.822C234.388 747.69 238.405 752 243 752c3.349 0 6.413-2.293 8.745-6.275a1 1 0 0 0-1.725-1.011c-2.008 3.428-4.491 5.286-7.02 5.286-3.54 0-6.962-3.673-9.051-9.821a1 1 0 1 0-1.894.643zM205 641v49.064a1 1 0 1 0 2 0V641a1 1 0 1 0-2 0zM229 652v26.173a1 1 0 0 0 2 0V652a1 1 0 1 0-2 0zM205 699.494v48.659a1 1 0 1 0 2 0v-48.66a1 1 0 1 0-2 0zM228 751v25a1 1 0 1 0 2 0v-25a1 1 0 1 0-2 0zM236 763v46.012a1 1 0 1 0 2 0V763a1 1 0 1 0-2 0zM240 563v26.173a1 1 0 0 0 2 0V563a1 1 0 1 0-2 0zM234.327 642.445c.39-.135.94-.497 1.578-1.184.969-1.043 1.912-2.61 2.775-4.804 2.397-6.086 3.82-15.945 3.82-30.457a1 1 0 1 0-2 0c0 14.282-1.39 23.905-3.68 29.724-.777 1.973-1.592 3.327-2.38 4.176a3.804 3.804 0 0 1-.668.59c-.084.055-.119.072-.099.065a1 1 0 0 0 .654 1.89zM188 608v14.173a1 1 0 0 0 2 0V608a1 1 0 1 0-2 0zM197 568v18.173a1 1 0 0 0 2 0V568a1 1 0 1 0-2 0zM205 534.95v40.223a1 1 0 0 0 2 0V534.95a1 1 0 1 0-2 0zM199 669v-73a1 1 0 1 0-2 0v73a1 1 0 1 0 2 0zM219.822 644.288c1.719-1.411 3.428-3.304 5.016-5.742 2.124-3.261 3.869-7.26 5.11-12.07a1 1 0 0 0-1.936-.5c-1.188 4.601-2.846 8.4-4.85 11.478-1.475 2.265-3.046 4.005-4.61 5.289-.538.443-1.035.796-1.476 1.068a5.642 5.642 0 0 1-.497.282A1 1 0 0 0 216 645v73a1 1 0 1 0 2 0v-72.404a15.237 15.237 0 0 0 1.822-1.308zM222.5 544.48a1 1 0 1 0-2 0v25.02a1 1 0 0 0 .312.726c.049.046.164.167.335.368.301.353.64.799 1.01 1.343 1.072 1.58 2.15 3.624 3.163 6.181 2.92 7.378 4.68 17.379 4.68 30.382a1 1 0 1 0 2 0c0-13.247-1.803-23.496-4.82-31.118-1.066-2.693-2.214-4.867-3.368-6.569-.526-.774-.974-1.34-1.312-1.716V544.48z"/>
    </g>
</svg>
