<svg xmlns="http://www.w3.org/2000/svg" width="272" height="496" viewBox="0 0 272 496">
    <defs>
        <linearGradient id="a" x1="50%" x2="50%" y1="0%" y2="100%">
            <stop offset="0%" stop-color="#FFF"/>
            <stop offset="100%" stop-color="#FAFAF5"/>
        </linearGradient>
        <linearGradient id="b" x1="50%" x2="50%" y1="0%" y2="100%">
            <stop offset="0%" stop-color="#FFF"/>
            <stop offset="100%" stop-color="#E9E8DD"/>
        </linearGradient>
        <linearGradient id="c" x1="50%" x2="50%" y1="0%" y2="100%">
            <stop offset="0%" stop-color="#FFF"/>
            <stop offset="100%" stop-color="#CDC9BA"/>
        </linearGradient>
    </defs>
    <g fill="none" fill-rule="evenodd">
        <path fill="url(#a)" d="M174 496V372.715c-31.101-2.987-55.49-28.95-55.992-60.715L118 0h12v311.001c0 27.614 22.386 50 50 50s50-22.386 50-50V0h12v312c-.51 31.764-24.899 57.728-56 60.715V496h-12z"/>
        <path fill="url(#b)" d="M78 199.916V496H46V199.916C19.82 192.943.454 169.268.008 140.998L0 0h12v140c0 27.614 22.386 50 50 50s50-22.386 50-50V0h12v141c-.455 28.269-19.821 51.943-46 58.916z"/>
        <path fill="#CDCABA" fill-rule="nonzero" d="M60 238.49v52.03a1 1 0 0 0 2 0v-52.03a1 1 0 1 0-2 0zM60 304.843v19.46a1 1 0 1 0 2 0v-19.46a1 1 0 0 0-2 0zM50 283v68.469a1 1 0 1 0 2 0V283a1 1 0 1 0-2 0zM50 358v18.028a1 1 0 1 0 2 0V358a1 1 0 1 0-2 0zM55 224v19.46a1 1 0 1 0 2 0V224a1 1 0 1 0-2 0zM55 254v73.164a1 1 0 1 0 2 0V254a1 1 0 1 0-2 0z"/>
        <path fill="#F6C323" d="M97.32 133.48l-3.709-2.22a2138.92 2138.92 0 0 1 3.087-10.278 1.46 1.46 0 0 0-.282-1.365c-.318-.372-.8-.54-1.268-.444a6449.84 6449.84 0 0 1-9.108 1.864l-2.709-5.016a1.348 1.348 0 0 0-1.044-.71 1.319 1.319 0 0 0-1.158.483l-7.233 8.79a9017.85 9017.85 0 0 1 4.17-19.118 1.445 1.445 0 0 0-.504-1.442 1.307 1.307 0 0 0-1.466-.109 799.46 799.46 0 0 1-6.478 3.698l-6.446-11.898A1.344 1.344 0 0 0 61.995 95c-.488 0-.937.274-1.177.717l-6.425 11.896a776.97 776.97 0 0 1-6.485-3.698 1.307 1.307 0 0 0-1.466.109c-.425.335-.623.899-.504 1.442l4.19 19.13-7.257-8.803a1.32 1.32 0 0 0-1.157-.483c-.438.045-.828.31-1.044.711l-2.707 5.013c-1.479-.3-5.977-1.22-9.11-1.861-.47-.096-.95.072-1.268.444a1.46 1.46 0 0 0-.28 1.365 2245.73 2245.73 0 0 1 3.09 10.275l-3.716 2.222a1.42 1.42 0 0 0-.675 1.118c-.034.466.155.92.506 1.212l17.247 14.32c-.296 1.253-1.167 4.805-1.734 7.107-.117.473.009.975.332 1.328.323.353.812.505 1.27.406l16.405-3.338v-26.623c0-1.11.896-2.01 2-2.01 1.105 0 2 .9 2 2.01v26.623l16.382 3.338c.092.02.178.03.27.03.365 0 .716-.155.974-.437.323-.354.446-.856.329-1.33a1236.14 1236.14 0 0 1-1.748-7.099l17.253-14.326c.351-.29.54-.745.506-1.21a1.417 1.417 0 0 0-.676-1.118z"/>
        <path fill="#756B5E" fill-rule="nonzero" d="M61.83 158.612l16.382 3.338c.149.032.306.05.47.05a1 1 0 1 0 0-2 .243.243 0 0 1-.057-.007l-16.395-3.341a1 1 0 0 0-.4 1.96zM78.876 152.904l17.253-14.327c.6-.497.922-1.266.864-2.053a1 1 0 0 0-1.994.146.437.437 0 0 1-.146.368l-17.255 14.327a1 1 0 1 0 1.278 1.539zM92.57 133.542c.439-1.492 1.81-6.052 3.085-10.27a2.461 2.461 0 0 0-.479-2.305 1 1 0 1 0-1.52 1.3.46.46 0 0 1 .084.427 2064.407 2064.407 0 0 0-3.088 10.284 1 1 0 1 0 1.918.564zM84.92 122.561l-2.71-5.015a1 1 0 1 0-1.759.95l2.71 5.016a1 1 0 0 0 1.759-.95zM72.874 126.794c.525-2.443 2.304-10.597 4.169-19.115a1 1 0 0 0-1.954-.427 8533.644 8533.644 0 0 0-4.17 19.122 1 1 0 1 0 1.955.42zM46.407 105.048a2.307 2.307 0 0 0-2.582.189 2.447 2.447 0 0 0-.864 2.443l3.304 15.085-4.622-5.608a2.32 2.32 0 0 0-2.034-.841 2.347 2.347 0 0 0-1.82 1.231l-2.354 4.36c-1.814-.37-5.41-1.105-8.381-1.714a2.317 2.317 0 0 0-2.229.774 2.46 2.46 0 0 0-.477 2.306c1.165 3.85 2.303 7.627 2.868 9.524l-3.05 1.823a2.42 2.42 0 0 0-1.16 1.907 2.438 2.438 0 0 0 .865 2.051l16.769 13.923c-.327 1.36-.947 3.894-1.588 6.496-.197.795.015 1.641.566 2.242a2.344 2.344 0 0 0 2.22.708l16.391-3.335a1 1 0 0 0 .801-.98v-26.623c0-.558.45-1.01 1-1.01.551 0 1 .452 1 1.01a1 1 0 0 0 2 0c0-1.66-1.342-3.01-3-3.01-1.657 0-3 1.35-3 3.01v25.806l-15.604 3.175a.35.35 0 0 1-.333-.101.455.455 0 0 1-.1-.412c.757-3.069 1.482-6.039 1.737-7.118a1 1 0 0 0-.334-1l-17.247-14.32a.44.44 0 0 1-.148-.37.422.422 0 0 1 .193-.333l3.714-2.22a1 1 0 0 0 .446-1.141c-.433-1.473-1.743-5.826-3.092-10.282a.461.461 0 0 1 .084-.427.317.317 0 0 1 .308-.113c3.449.706 7.737 1.583 9.11 1.86a1 1 0 0 0 1.079-.504l2.707-5.012a.35.35 0 0 1 .267-.192.323.323 0 0 1 .282.124l7.257 8.804c.668.81 1.973.175 1.749-.85l-4.19-19.131a.447.447 0 0 1 .147-.444.306.306 0 0 1 .347-.026 758.462 758.462 0 0 0 6.496 3.704 1 1 0 0 0 1.368-.398l6.425-11.895a.344.344 0 0 1 .297-.193c.117 0 .231.07.298.193a1 1 0 1 0 1.758-.955A2.344 2.344 0 0 0 59.995 96c-.859 0-1.643.479-2.056 1.241l-5.942 11.001a942.998 942.998 0 0 1-5.59-3.194z"/>
        <rect width="2" height="24" x="61" y="158" fill="#756B5E" rx="1"/>
        <path fill="#00CC92" d="M220.327 234.628c0-2.343 2.433-4.533 4.623-6.03 1.352-.922 15.742-9.955 10.132-18.035-5.169-7.443-15.149 8.15-18.701 4.315-2.953-3.19-.222-11.333.783-13.988.04-.093.073-.193.109-.288.14-.362.229-.574.229-.574.179-1 .295-1.448.295-2.222a7.802 7.802 0 0 0-7.801-7.805c-4.308 0-7.801 3.496-7.801 7.808 0 1.206.281 2.344.77 3.364 1.074 2.91 3.531 10.622.676 13.705-3.552 3.836-13.531-11.758-18.7-4.315-5.61 8.08 8.78 17.113 10.131 18.036 2.19 1.496 4.624 3.686 4.624 6.029 0 5.559-5.107 3.85-10.377 3.85-6.254 0-11.319 3.072-11.319 9.33 0 18.884 23.027 21.757 30.027 22.194v-46.13a2 2 0 1 1 4 0v46.13c7-.433 30.018-3.297 30.018-22.194 0-6.258-5.088-9.33-11.341-9.33-5.27 0-10.377 1.709-10.377-3.85z"/>
        <path fill="#756B5E" fill-rule="nonzero" d="M210.089 273c6.055-.375 12.454-1.647 18-4.267 8.171-3.861 12.956-10.05 12.956-18.925a1 1 0 1 0-2 0c0 8.019-4.284 13.56-11.811 17.117-5.274 2.492-11.445 3.719-17.269 4.08a1 1 0 1 0 .124 1.996zM228.704 239.479c-.87 0-1.618.035-3.021.126-2.884.186-3.905.176-4.847-.149-1.03-.354-1.509-1.122-1.509-2.828 0-1.58 1.584-3.425 4.187-5.204.04-.026.528-.351.745-.498a50.61 50.61 0 0 0 1.347-.941 42.325 42.325 0 0 0 3.679-2.972c4.413-4.016 6.784-8.09 5.92-12.092-.22-1.014-.652-1.994-1.302-2.929a1 1 0 1 0-1.642 1.141c.5.722.825 1.458.988 2.211.67 3.094-1.377 6.61-5.31 10.19a40.358 40.358 0 0 1-3.506 2.83c-.443.321-.865.615-1.294.905-.207.14-.701.468-.753.504-3.114 2.127-5.059 4.393-5.059 6.855 0 2.515.971 4.069 2.857 4.72 1.303.448 2.427.46 5.628.252 1.361-.088 2.077-.121 2.892-.121a1 1 0 1 0 0-2zM214.34 202.241l-.04.107-.011.033a2.19 2.19 0 0 1-.044.114c-2.413 6.373-3.325 12.116-.598 15.062a1 1 0 1 0 1.468-1.359c-1.951-2.108-1.106-7.432.984-12.954.013-.028.036-.089.07-.18l.012-.035.027-.073c.1-.256.175-.444.216-.541l.062-.211.148-.805c.052-.285.085-.492.11-.701.036-.294.053-.576.053-.892a1 1 0 1 0-2 0c0 .236-.012.438-.038.652-.02.163-.047.335-.092.585l-.13.701c-.049.12-.116.287-.197.497zM188.816 266.918c-7.53-3.557-11.816-9.097-11.816-17.11 0-5.255 4.063-8.33 10.319-8.33.815 0 1.53.034 2.892.122 3.201.207 4.325.196 5.628-.253 1.886-.65 2.857-2.204 2.857-4.72 0-2.461-1.945-4.727-5.06-6.854l-.753-.504c-.429-.29-.85-.584-1.294-.905a40.365 40.365 0 0 1-3.505-2.83c-3.933-3.58-5.98-7.096-5.31-10.19.163-.753.487-1.49.988-2.211 1.551-2.233 3.61-2.088 7.051.053.699.435 1.402.916 2.412 1.636 3.13 2.235 3.506 2.489 4.671 3.048 1.836.88 3.358.897 4.479-.313 2.663-2.876 1.849-8.442-.472-14.73-.476-1.005-.708-1.997-.708-3.018a6.805 6.805 0 0 1 6.801-6.808 1 1 0 1 0 0-2c-4.86 0-8.801 3.944-8.801 8.808 0 1.325.3 2.612.868 3.796 1.992 5.41 2.743 10.543.844 12.593-.754.815-2.024.206-6.52-3.004-1.042-.743-1.775-1.244-2.517-1.706-4.228-2.631-7.417-2.856-9.75.504-.65.935-1.082 1.915-1.301 2.93-.865 4 1.506 8.075 5.919 12.091a42.332 42.332 0 0 0 3.679 2.972c.461.334.9.64 1.346.94.216.147.704.472.745.5 2.604 1.778 4.188 3.623 4.188 5.203 0 1.706-.48 2.474-1.509 2.828-.942.325-1.963.335-4.847.149-1.403-.091-2.15-.126-3.021-.126-7.259 0-12.319 3.83-12.319 10.329 0 8.87 4.787 15.056 12.961 18.918 5.547 2.621 11.948 3.896 18.004 4.274a1 1 0 0 0 1.062-.998v-46.13a1 1 0 1 1 2 0 1 1 0 1 0 2 0 3.001 3.001 0 1 0-6 0v45.056c-5.508-.442-11.255-1.668-16.211-4.01z"/>
        <path fill="url(#c)" d="M210 304.001c27.614 0 50-22.386 50-50V0h12v255.22c-.555 28.172-19.889 51.742-46 58.697v182.084h-32V313.917c-26.111-6.955-45.445-30.525-45.988-58.698L148 0h12v254.001c0 27.614 22.386 50 50 50z"/>
        <path fill="#756B5E" fill-rule="nonzero" d="M192.257 314.95c-26.075-6.945-44.719-30.425-45.245-57.75L147 82a1 1 0 1 0-2 0l.012 175.22c.544 28.24 19.798 52.49 46.73 59.663a1 1 0 0 0 .515-1.932z"/>
        <path fill="#756B5E" fill-rule="nonzero" d="M157 129v31.001a1 1 0 1 0 2 0V129a1 1 0 1 0-2 0zM157 168.001v15a1 1 0 1 0 2 0v-15a1 1 0 1 0-2 0zM157 191.501v54.5a1 1 0 1 0 2 0v-54.5a1 1 0 1 0-2 0zM208 307.001c28.167 0 51-22.833 51-51a1 1 0 1 0-2 0c0 27.062-21.938 49-49 49a1 1 0 1 0 0 2z"/>
        <path fill="#756B5E" fill-rule="nonzero" d="M269 173.501v83.718c-.538 27.308-19.184 50.787-45.257 57.732a1 1 0 0 0 .514 1.932c26.93-7.173 46.187-31.42 46.743-59.644v-83.738a1 1 0 1 0-2 0z"/>
        <path fill="#FAFAF5" fill-rule="nonzero" d="M220 409.015v57.972c0 .56.448 1.014 1 1.014s1-.454 1-1.014v-57.972c0-.56-.448-1.014-1-1.014s-1 .454-1 1.014zM220 382.108v18.009a1 1 0 0 0 2 0v-18.009a1 1 0 0 0-2 0zM220 364.108v10.009a1 1 0 0 0 2 0v-10.009a1 1 0 0 0-2 0zM220 314.001v42.116a1 1 0 0 0 2 0V314a1 1 0 1 0-2 0zM198.184 409.028c.605 6.436 2.521 10.973 5.316 10.973 3.344 0 5.5-6.707 5.5-15s-2.156-15-5.5-15c-1.345 0-2.45 1.024-3.32 2.76a1 1 0 1 0 1.788.896c.567-1.132 1.132-1.656 1.532-1.656 1.626 0 3.5 5.83 3.5 13 0 7.171-1.874 13-3.5 13-1.23 0-2.817-3.755-3.324-9.16a1 1 0 1 0-1.992.187z"/>
        <path fill="#FAFAF5" fill-rule="nonzero" d="M198.131 401.59a43.691 43.691 0 0 0-.131 3.411 1 1 0 1 0 2 0c0-1.108.042-2.198.125-3.254a1 1 0 0 0-1.994-.156zM204 345.001v21.889a1 1 0 1 0 2 0V345a1 1 0 1 0-2 0zM198 423.001v21.889a1 1 0 1 0 2 0V423a1 1 0 1 0-2 0zM198 334.001v13.369a1 1 0 1 0 2 0V334a1 1 0 1 0-2 0zM198 356.001v29.369a1 1 0 1 0 2 0V356a1 1 0 1 0-2 0z"/>
        <rect width="2" height="24" x="209" y="271" fill="#756B5E" rx="1"/>
        <path fill="#00835E" d="M127.477 33.89c3.501.842 7.79.121 12.451-4.494C122.134 28.11 121.8 14.963 121.8 14.963c-.399.555-.755 1.1-1.075 1.631-3.989 6.638-.776 15.483 6.753 17.295"/>
        <path fill="#9CEF28" d="M218.986 18.698L220 16l-2.308-1.258c-5.933-3.025-22.07-10.792-34.535-12.514-.033-.005-21.267-3.865-36.083 21.982-14.827 25.867-27.947 6.705-27.947 6.705s12.49 36 48 36c30.515 0 47.644-37.63 51.859-48.217z"/>
        <path fill="#00835D" fill-rule="nonzero" d="M218.05 18.346c-3.677 9.233-8.984 19.184-15.91 27.804-10.076 12.538-21.745 19.765-35.013 19.765-12.18 0-22.41-4.268-30.878-11.791-6.17-5.483-10.865-12.174-14.22-19.025a1 1 0 0 0-1.795.88c3.46 7.066 8.299 13.964 14.687 19.64 8.818 7.835 19.512 12.296 32.206 12.296 13.968 0 26.151-7.546 36.571-20.512 7.071-8.8 12.466-18.915 16.217-28.335l1.021-2.716a1 1 0 0 0-.458-1.23l-2.308-1.258a1 1 0 0 0-.957 1.756l1.545.842-.708 1.884zM209.743 9.83c-9.84-4.416-19.007-7.564-26.45-8.592a11.66 11.66 0 0 0-.847-.108c-7.395-.73-16.384 1.374-24.998 8.69-4.166 3.54-7.942 8.137-11.242 13.893a1 1 0 1 0 1.735.995c3.187-5.56 6.816-9.977 10.802-13.363 8.154-6.927 16.61-8.905 23.507-8.225.366.036.615.071.757.097 7.224.998 16.237 4.093 25.917 8.438a1 1 0 1 0 .819-1.824z"/>
        <path fill="#00835D" d="M248.763 24.75a32.924 32.924 0 0 1 5.235 6.853 1 1 0 0 1-1.732 1c-9.26-16.037-26.979-15.77-27.157-15.765a1 1 0 1 1-.051-1.998c.16-.005 13.587-.207 23.705 9.91"/>
        <path fill="#E9E8DE" fill-rule="nonzero" d="M224.42 31.497c.155.012.466.048.91.116.75.115 1.589.28 2.493.508 2.587.649 5.174 1.65 7.58 3.077 2.942 1.742 5.41 4.003 7.259 6.847 1.87 2.878 3.884 5.323 6.006 7.335a1 1 0 1 0 1.376-1.452c-2.006-1.9-3.919-4.224-5.706-6.973-2.025-3.116-4.72-5.586-7.915-7.478-2.586-1.532-5.35-2.603-8.113-3.296a29.31 29.31 0 0 0-2.678-.545c-.492-.076-.85-.117-1.052-.133a1 1 0 1 0-.16 1.994zM253.175 52.898C256.49 54.967 259.882 56 263 56a1 1 0 1 0 0-2c-2.731 0-5.76-.922-8.766-2.798a1 1 0 0 0-1.059 1.696z"/>
        <path fill="#00835D" d="M166.714 45.022c0 1.216-.494 1.824-1.482 1.824-.95 0-1.482-.608-1.482-1.824V18.726h-3.496v26.296c0 3.572 1.672 5.32 4.978 5.32s4.978-1.748 4.978-5.32V18.726h-3.496v26.296zm13.882-14.288v-5.662c0-1.9-.266-2.812-1.938-2.812h-1.33v10.488h1.368c1.33 0 1.9-.646 1.9-2.014zM184.434 50h-3.838c-.532-4.712-1.064-9.386-1.824-14.06h-1.444V50h-3.534V18.726h4.864c3.648 0 5.51 1.52 5.51 5.624v6.346c0 2.356-.646 3.724-2.052 4.522.912 4.94 1.634 9.956 2.318 14.782zm6.586 0V18.726h-3.496V50h3.496z"/>
        <path fill="#9CEF28" d="M155 405.238c0-22.091-17.909-40-40-40-22.09 0-40 17.909-40 40 0 22.09 17.91 40 40 40 22.091 0 40-17.91 40-40"/>
        <path fill="#00835E" d="M113 447.238c-22.607 0-41-18.393-41-41 0-21.303 16.619-39.26 37.835-40.88a41.43 41.43 0 0 1 3.165-.12 1 1 0 1 1 0 2c-1.01 0-2.023.038-3.013.114C89.808 368.893 74 385.974 74 406.238c0 21.505 17.495 39 39 39 13.676 0 26.113-6.97 33.272-18.643a1.001 1.001 0 0 1 1.706 1.045c-7.526 12.272-20.602 19.598-34.978 19.598"/>
        <path fill="#413A31" d="M114.999 375.071a.998.998 0 0 1-.684-.271c-.237-.223-5.81-5.546-5.926-13.03-.071-4.575 1.916-8.918 5.904-12.906a.999.999 0 1 1 1.414 1.414c-3.586 3.587-5.375 7.437-5.318 11.444.093 6.629 5.245 11.572 5.297 11.621a1 1 0 1 1-.687 1.728"/>
        <path fill="#413A31" d="M118.55 381.571a1 1 0 0 1-.97-.765c-.841-3.478-2.424-5.794-4.703-6.881-3.864-1.843-8.597.36-8.644.381a.998.998 0 0 1-1.333-.472.998.998 0 0 1 .47-1.332c.229-.108 5.624-2.636 10.355-.389 2.857 1.357 4.807 4.124 5.799 8.223a1 1 0 0 1-.973 1.235M117.928 373.072a1 1 0 0 1-.694-1.719c.136-.131 3.4-3.203 7.253-1.341a1 1 0 0 1-.872 1.801c-2.591-1.255-4.901.893-4.998.984a1 1 0 0 1-.69.275"/>
        <path fill="#00835E" d="M107.016 355.71s-10.337 5.14-17.724-2.246c-7.387-7.387-2.247-17.724-2.247-17.724s10.337-5.14 17.724 2.246c7.387 7.387 2.247 17.725 2.247 17.725"/>
        <path fill="#00835D" d="M88.65 419.76c.458.115.993.192 1.72.192.917 0 1.452-.611 1.452-1.911V391.82h3.555v26.22c0 3.784-1.758 5.466-5.007 5.466-.689 0-1.3-.114-1.72-.228v-3.518zM104.97 413.95c0-1.337-.267-2.102-1.107-3.172-1.414-1.797-2.867-3.25-4.396-5.428-.765-1.07-.955-2.408-.955-3.975v-4.701c0-3.517 1.644-5.2 5.007-5.2 3.516 0 4.854 1.683 4.854 5.2v5.733h-3.287v-5.695c0-.993-.421-1.682-1.491-1.682-1.032 0-1.49.497-1.49 1.644v4.663c0 .84.114 1.49.61 2.14 1.415 1.835 3.059 3.517 4.435 5.428 1.07 1.49 1.338 2.867 1.338 5.008v4.51c0 3.325-1.453 5.198-4.97 5.198-3.478 0-5.006-1.873-5.006-5.198v-6.69h3.4v6.69c0 1.032.498 1.68 1.493 1.68 1.069 0 1.566-.572 1.566-1.68v-4.472zM118.12 396.827c0-1.186-.497-1.797-1.528-1.797-.956 0-1.492.61-1.492 1.797v21.443c0 1.223.536 1.834 1.492 1.834 1.031 0 1.528-.611 1.528-1.834v-21.443zm-6.536 0c0-3.48 1.643-5.352 5.008-5.352 3.401 0 5.045 1.873 5.045 5.352v21.443c0 3.478-1.644 5.35-5.045 5.35-3.365 0-5.008-1.872-5.008-5.35v-21.443zM132.568 423.277c-2.369-10.855-3.555-15.978-4.625-21.1.077 4.32.077 8.64.077 12.958v8.142h-3.019V391.82h4.128c2.063 11.658 2.981 16.475 3.936 21.367-.076-3.593-.076-7.147-.076-10.664V391.82h3.02v31.458h-3.44z"/>
        <rect width="2" height="10" x="94" y="361.439" fill="#00835D" rx="1"/>
        <rect width="2" height="48" x="94" y="282.439" fill="#00835D" rx="1"/>
        <rect width="2" height="28" x="100" y="293.439" fill="#00835D" rx="1"/>
        <rect width="2" height="38" x="128" y="311.439" fill="#00835D" rx="1"/>
        <rect width="2" height="91" x="122" y="267.439" fill="#00835D" rx="1"/>
    </g>
</svg>
