<svg xmlns="http://www.w3.org/2000/svg" width="918" height="826" viewBox="0 0 918 826">
    <defs>
        <linearGradient id="a" x1="50%" x2="50%" y1="0%" y2="100%">
            <stop offset="0%" stop-color="#FFF" stop-opacity="0"/>
            <stop offset="100%" stop-color="#FFF"/>
        </linearGradient>
        <linearGradient id="b" x1="50%" x2="50%" y1="0%" y2="100%">
            <stop offset="0%" stop-color="#E9E8DD"/>
            <stop offset="100%" stop-color="#FAFAF5"/>
        </linearGradient>
    </defs>
    <g fill="none" fill-rule="evenodd">
        <path fill="url(#a)" d="M606 3h12v824h-12zM680 3h12v824h-12zM906 3h12v824h-12zM734 3h4v824h-4zM746 3h4v824h-4zM868 3h4v824h-4z" transform="translate(0 -1)"/>
        <path fill="url(#b)" d="M618 571h12v256h-12z" transform="translate(0 -1)"/>
        <path fill="#E9E8DE" d="M782 746c-3.414-1.71-10-6.107-10-14.566C772 720.016 784 716 784 716s12 4.016 12 15.434c0 8.459-6.586 12.855-10 14.566v-19.706c0-1.14-.895-2.063-2-2.063-1.112 0-2 .924-2 2.063V746zM707 694c-3.414-1.71-10-6.107-10-14.566C697 668.016 709 664 709 664s12 4.016 12 15.434c0 8.459-6.586 12.855-10 14.566v-19.706c0-1.14-.895-2.063-2-2.063-1.112 0-2 .924-2 2.063V694zM836 646c-3.414-1.71-10-6.107-10-14.566C826 620.016 838 616 838 616s12 4.016 12 15.434c0 8.459-6.586 12.855-10 14.566v-19.706c0-1.14-.895-2.063-2-2.063-1.112 0-2 .924-2 2.063V646zM622 562c-3.414-1.71-10-6.107-10-14.566C612 536.016 624 532 624 532s12 4.016 12 15.434c0 8.459-6.586 12.855-10 14.566v-19.706c0-1.14-.895-2.063-2-2.063-1.112 0-2 .924-2 2.063V562z"/>
        <path fill="url(#b)" d="M704 703h12v124h-12z" transform="translate(0 -1)"/>
        <path fill="#E9E8DE" d="M778 754h12v72h-12zM832 654h12v172h-12z"/>
        <path fill="#E9E8DE" fill-rule="nonzero" d="M570 1.998V160a2 2 0 0 0 4 0V1.998a2 2 0 0 0-4 0zM570 170v348c0 29.823 24.177 54 54 54 8.96 0 17.687-2.553 25.987-7.26a2 2 0 1 0-1.974-3.48C640.287 565.643 632.228 568 624 568c-27.614 0-50-22.386-50-50V170a2 2 0 0 0-4 0zM659.31 558.511C671.144 548.251 678 533.781 678 518V170a2 2 0 0 0-4 0v348c0 14.6-6.337 27.975-17.31 37.489a2 2 0 0 0 2.62 3.022zM678 160V1.998a2 2 0 0 0-4 0V160a2 2 0 0 0 4 0zM656 1.998V160a2 2 0 0 0 4 0V1.998a2 2 0 0 0-4 0z"/>
        <path fill="#E9E8DE" fill-rule="nonzero" d="M656 170v480c0 29.823 24.177 54 54 54s54-24.177 54-54V176a2 2 0 0 0-4 0v474c0 27.614-22.386 50-50 50s-50-22.386-50-50V170a2 2 0 0 0-4 0zM764 165V1.998a2 2 0 0 0-4 0V165a2 2 0 0 0 4 0z"/>
        <path fill="#E9E8DE" fill-rule="nonzero" d="M528 122c0 27.614 22.386 50 50 50h161c25.405 0 46 20.595 46 46a2 2 0 0 0 4 0c0-27.614-22.386-50-50-50H578c-25.405 0-46-20.595-46-46a2 2 0 0 0-4 0zM792 2v24c0 27.614 22.386 50 50 50a2 2 0 0 0 0-4c-25.405 0-46-20.595-46-46V2a2 2 0 0 0-4 0zM528 2v110a2 2 0 0 0 4 0V2a2 2 0 0 0-4 0zM520 72H314a2 2 0 0 0 0 4h206a2 2 0 0 0 0-4zM790 120h-58a2 2 0 0 0 0 4h58a2 2 0 0 0 0-4z"/>
        <path fill="#E9E8DE" fill-rule="nonzero" d="M722 120H50a2 2 0 0 0 0 4h672a2 2 0 0 0 0-4zM684 72H530a2 2 0 0 0 0 4h154a2 2 0 0 0 0-4z"/>
        <path fill="#E9E8DE" fill-rule="nonzero" d="M0 1.998V74c0 27.614 22.386 50 50 50a2 2 0 0 0 0-4C24.595 120 4 99.405 4 74V1.998a2 2 0 1 0-4 0zM264 2v24c0 27.614 22.386 50 50 50a2 2 0 0 0 0-4c-25.405 0-46-20.595-46-46V2a2 2 0 0 0-4 0zM840 170c0-27.614-22.386-50-50-50a2 2 0 0 0 0 4c25.405 0 46 20.595 46 46a2 2 0 0 0 4 0zM892 122c0-27.614-22.386-50-50-50a2 2 0 0 0 0 4c25.405 0 46 20.595 46 46a2 2 0 0 0 4 0zM734 160.003V122c0-27.614-22.386-50-50-50a2 2 0 0 0 0 4c25.405 0 46 20.595 46 46v38.003a2 2 0 1 0 4 0zM784 602c0 29.823 24.177 54 54 54s54-24.177 54-54a2 2 0 0 0-4 0c0 27.614-22.386 50-50 50s-50-22.386-50-50a2 2 0 0 0-4 0zM730 702c0 29.823 24.177 54 54 54 16.25 0 31.296-7.33 41.542-19.726a2 2 0 0 0-3.084-2.548C812.961 745.218 799.038 752 784 752c-27.614 0-50-22.386-50-50a2 2 0 0 0-4 0z"/>
        <path fill="#E9E8DE" fill-rule="nonzero" d="M730 170v532a2 2 0 0 0 4 0V170a2 2 0 0 0-4 0zM836 170v439a2 2 0 0 0 4 0V170a2 2 0 0 0-4 0zM888 122v480a2 2 0 0 0 4 0V122a2 2 0 0 0-4 0zM785 217.995l-1 384a2 2 0 1 0 4 .01l1-384a2 2 0 1 0-4-.01z"/>
    </g>
</svg>
