<svg xmlns="http://www.w3.org/2000/svg" width="348" height="1040" viewBox="0 0 348 1040">
    <defs>
        <linearGradient id="a" x1="50%" x2="50%" y1="0%" y2="100%">
            <stop offset="0%" stop-color="#FFF" stop-opacity="0"/>
            <stop offset="100%" stop-color="#FFF"/>
        </linearGradient>
        <linearGradient id="b" x1="50%" x2="50%" y1="29.992%" y2="100%">
            <stop offset="0%" stop-color="#E9E8DD"/>
            <stop offset="100%" stop-color="#FAFAF5"/>
        </linearGradient>
        <linearGradient id="c" x1="50%" x2="50%" y1="59.581%" y2="100%">
            <stop offset="0%" stop-color="#E9E8DD"/>
            <stop offset="100%" stop-color="#FAFAF5"/>
        </linearGradient>
    </defs>
    <g fill="none" fill-rule="evenodd">
        <path fill="url(#a)" d="M36 0h12v1040H36zM110 0h12v1040h-12zM336 0h12v1040h-12zM164 0h4v1040h-4zM176 0h4v1040h-4zM298 0h4v1040h-4z"/>
        <path fill="#E9E8DE" d="M51 470c-3.414-1.71-10-6.107-10-14.566C41 444.016 53 440 53 440s12 4.016 12 15.434c0 8.459-6.586 12.855-10 14.566v-19.706c0-1.14-.895-2.063-2-2.063-1.112 0-2 .924-2 2.063V470z"/>
        <path fill="url(#b)" d="M60 1040H48V479.67C21 476.686 0 453.795 0 426V0h4v426c0 27.614 22.386 50 50 50s50-22.386 50-50V299c0-1.104.888-2 2-2 1.105 0 2 .893 2 2v127c0 27.795-21 50.686-48 53.67V1040z"/>
        <path fill="#E9E8DE" d="M212 772c-3.414-1.71-10-6.107-10-14.566C202 746.016 214 742 214 742s12 4.016 12 15.434c0 8.459-6.586 12.855-10 14.566v-19.706c0-1.14-.895-2.063-2-2.063-1.112 0-2 .924-2 2.063V772zM137 290c-3.414-1.71-10-6.107-10-14.566C127 264.016 139 260 139 260s12 4.016 12 15.434c0 8.459-6.586 12.855-10 14.566v-19.706c0-1.14-.895-2.063-2-2.063-1.112 0-2 .924-2 2.063V290zM266 672c-3.414-1.71-10-6.107-10-14.566C256 646.016 268 642 268 642s12 4.016 12 15.434c0 8.459-6.586 12.855-10 14.566v-19.706c0-1.14-.895-2.063-2-2.063-1.112 0-2 .924-2 2.063V672z"/>
        <path fill="#E9E8DE" d="M146 1040h-12V299.67c-27-2.984-48-25.875-48-53.67V0h4v246c0 27.614 22.386 50 50 50s50-22.386 50-50V0h4v246c0 27.795-21 50.686-48 53.67V1040z"/>
        <path fill="url(#c)" d="M208 781.67V1040h12V781.664c13.918-1.565 26.57-8.535 35.542-19.39a2 2 0 0 0-3.084-2.548C242.961 771.218 229.038 778 214 778c-27.614 0-50-22.386-50-50V308a2 2 0 0 0-4 0v420c0 27.795 21 50.686 48 53.67z"/>
        <path fill="#E9E8DD" d="M268 678c27.614 0 50-22.386 50-50V0h4v628c0 27.795-21 50.686-48 53.67V1040h-12V681.67c-27-2.984-48-25.874-48-53.67V0h4v628.003c.001 27.613 22.387 49.997 50 49.997z"/>
        <path fill="#E9E8DE" fill-rule="nonzero" d="M266 0v635a2 2 0 0 0 4 0V0h-4zM160 0v278a2 2 0 0 0 4 0V0h-4zM104 0v270a2 2 0 0 0 4 0V0h-4z"/>
    </g>
</svg>
