<svg xmlns="http://www.w3.org/2000/svg" width="348" height="1040" viewBox="0 0 348 1040">
    <defs>
        <linearGradient id="a" x1="50%" x2="50%" y1="0%" y2="100%">
            <stop offset="0%" stop-color="#FFF"/>
            <stop offset="100%" stop-color="#FAFAF5"/>
        </linearGradient>
        <linearGradient id="b" x1="50%" x2="50%" y1="0%" y2="56.971%">
            <stop offset="0%" stop-color="#FFF"/>
            <stop offset="100%" stop-color="#E9E8DD"/>
        </linearGradient>
        <linearGradient id="c" x1="50%" x2="50%" y1="0%" y2="74.992%">
            <stop offset="0%" stop-color="#FFF"/>
            <stop offset="100%" stop-color="#E9E8DD"/>
        </linearGradient>
        <linearGradient id="d" x1="50%" x2="50%" y1="56.27%" y2="0%">
            <stop offset="0%" stop-color="#CDCABA"/>
            <stop offset="100%" stop-color="#FFF"/>
        </linearGradient>
    </defs>
    <g fill="none" fill-rule="evenodd">
        <path fill="url(#a)" d="M136 0h16v1040h-16zM8 0h16v1040H8zM94 0h16v1040H94zM316 0h32v1040h-32z"/>
        <path fill="url(#b)" d="M118 344c-27.614 0-50-22.386-50-50v-63.287c31.101-2.986 55.49-28.95 55.992-60.714L124 0h-12v169c0 27.614-22.386 50-50 50s-50-22.386-50-50V0H0v169.999c.51 31.764 24.899 57.728 56 60.714V295c.455 28.269 19.821 51.943 46 58.916V1040h32V353.916c26.028-6.933 45.321-30.374 45.982-58.426L180 0h-12v294c0 27.614-22.386 50-50 50z" transform="translate(168)"/>
        <path fill="#CDCABA" fill-rule="nonzero" d="M296 441.631v21.889a1 1 0 0 0 2 0V441.63a1 1 0 0 0-2 0zM284 356v68.469a1 1 0 1 0 2 0V356a1 1 0 1 0-2 0zM284 431v18.028a1 1 0 1 0 2 0V431a1 1 0 1 0-2 0zM296 374v60.52a1 1 0 0 0 2 0V374a1 1 0 1 0-2 0zM290 395.665v79.341a1 1 0 1 0 2 0v-79.341a1 1 0 0 0-2 0z"/>
        <g transform="translate(249 248)">
            <path fill="#F6C323" d="M74.32 38.48l-3.709-2.22c.495-1.685 2.027-6.772 3.087-10.277a1.46 1.46 0 0 0-.282-1.366c-.318-.371-.8-.54-1.268-.444-3.139.644-7.646 1.568-9.108 1.864l-2.709-5.015a1.348 1.348 0 0 0-1.044-.711 1.319 1.319 0 0 0-1.158.484l-7.233 8.79c.605-2.815 2.71-12.445 4.17-19.119a1.445 1.445 0 0 0-.504-1.442 1.307 1.307 0 0 0-1.466-.108 799.421 799.421 0 0 1-6.478 3.697L40.172.716A1.344 1.344 0 0 0 38.995 0c-.488 0-.937.275-1.177.718l-6.425 11.895a776.939 776.939 0 0 1-6.485-3.697 1.307 1.307 0 0 0-1.466.108c-.425.336-.623.9-.504 1.442l4.19 19.131-7.257-8.803a1.32 1.32 0 0 0-1.157-.483c-.438.045-.828.31-1.044.711l-2.707 5.012c-1.479-.3-5.977-1.219-9.11-1.86-.47-.096-.95.072-1.268.443a1.46 1.46 0 0 0-.28 1.366c1.06 3.503 2.593 8.585 3.09 10.275L3.68 38.479a1.42 1.42 0 0 0-.675 1.119c-.034.466.155.92.506 1.212l17.247 14.32c-.296 1.253-1.167 4.805-1.734 7.107-.117.472.01.975.332 1.327.323.353.812.506 1.27.406l16.405-3.338V34.01c0-1.11.896-2.01 2-2.01 1.105 0 2 .9 2 2.01v26.622l16.382 3.338c.092.02.178.03.27.03.365 0 .716-.154.974-.437.323-.353.446-.856.33-1.329-.572-2.297-1.448-5.84-1.749-7.1L74.49 40.81c.351-.29.54-.745.506-1.211a1.417 1.417 0 0 0-.676-1.118z"/>
            <path fill="#756B5E" fill-rule="nonzero" d="M38.83 63.612l16.383 3.338c.148.033.305.05.47.05a1 1 0 0 0 0-2 .243.243 0 0 1-.057-.007l-16.396-3.34a1 1 0 1 0-.4 1.96zM55.876 57.904l17.253-14.326c.6-.497.922-1.266.865-2.053a1 1 0 1 0-1.995.145.437.437 0 0 1-.146.368L54.598 56.365a1 1 0 1 0 1.278 1.539zM69.57 38.542c.439-1.492 1.81-6.051 3.085-10.27a2.461 2.461 0 0 0-.479-2.305 1 1 0 0 0-1.52 1.3.46.46 0 0 1 .085.428 2064.401 2064.401 0 0 0-3.09 10.284 1 1 0 1 0 1.92.563zM61.92 27.562l-2.709-5.015a1 1 0 0 0-1.76.95l2.71 5.015a1 1 0 1 0 1.759-.95zM49.874 31.794c.525-2.443 2.304-10.596 4.17-19.114a1 1 0 0 0-1.955-.428 8533.656 8533.656 0 0 0-4.17 19.122 1 1 0 0 0 1.955.42zM23.407 10.049a2.307 2.307 0 0 0-2.582.188 2.447 2.447 0 0 0-.864 2.443l3.304 15.085-4.622-5.607a2.32 2.32 0 0 0-2.034-.842 2.347 2.347 0 0 0-1.82 1.232l-2.353 4.359c-1.815-.37-5.41-1.104-8.382-1.713a2.317 2.317 0 0 0-2.229.773 2.46 2.46 0 0 0-.477 2.306c1.166 3.851 2.303 7.627 2.868 9.525l-3.05 1.823a2.42 2.42 0 0 0-1.16 1.906 2.438 2.438 0 0 0 .865 2.052l16.77 13.923c-.328 1.359-.948 3.894-1.589 6.496-.197.794.015 1.64.566 2.242a2.344 2.344 0 0 0 2.22.708l16.392-3.336a1 1 0 0 0 .8-.98V36.01c0-.558.45-1.01 1-1.01.551 0 1 .451 1 1.01a1 1 0 0 0 2 0c0-1.661-1.342-3.01-3-3.01-1.657 0-3 1.35-3 3.01v25.805L18.426 64.99a.35.35 0 0 1-.333-.101.455.455 0 0 1-.1-.412c.757-3.068 1.483-6.038 1.737-7.117a1 1 0 0 0-.334-1L2.149 42.04a.44.44 0 0 1-.147-.37.422.422 0 0 1 .192-.334l3.714-2.22a1 1 0 0 0 .447-1.14C5.92 36.501 4.61 32.15 3.262 27.692a.461.461 0 0 1 .084-.427.317.317 0 0 1 .308-.113c3.449.707 7.737 1.583 9.11 1.861a1 1 0 0 0 1.08-.505l2.706-5.012a.35.35 0 0 1 .267-.192.323.323 0 0 1 .282.124l7.258 8.804c.667.81 1.973.176 1.748-.85l-4.19-19.13a.447.447 0 0 1 .147-.444.306.306 0 0 1 .347-.027 758.443 758.443 0 0 0 6.497 3.704 1 1 0 0 0 1.367-.397l6.425-11.896a.344.344 0 0 1 .297-.192c.117 0 .232.07.298.192a1 1 0 1 0 1.758-.954A2.344 2.344 0 0 0 36.995 1c-.859 0-1.643.478-2.056 1.24l-5.942 11.002a943.015 943.015 0 0 1-5.59-3.194z"/>
            <rect width="2" height="24" x="38" y="63" fill="#756B5E" rx="1"/>
        </g>
        <path fill="#FAFAF5" fill-rule="nonzero" d="M154.131 897.59A43.691 43.691 0 0 0 154 901a1 1 0 1 0 2 0c0-1.108.042-2.198.125-3.254a1 1 0 0 0-1.994-.157z"/>
        <g>
            <path fill="url(#c)" d="M78 497.916V1040H46V497.916C19.82 490.943.454 467.268.008 438.998L0 0h12v438c0 27.614 22.386 50 50 50s50-22.386 50-50V215h12v224c-.455 28.269-19.821 51.943-46 58.916z"/>
            <path fill="#CDCABA" fill-rule="nonzero" d="M60 536.49v52.03a1 1 0 0 0 2 0v-52.03a1 1 0 1 0-2 0zM60 602.843v19.46a1 1 0 1 0 2 0v-19.46a1 1 0 0 0-2 0zM60 632.843v73.164a1 1 0 1 0 2 0v-73.164a1 1 0 0 0-2 0zM50 581v68.469a1 1 0 1 0 2 0V581a1 1 0 1 0-2 0zM50 656v18.028a1 1 0 1 0 2 0V656a1 1 0 1 0-2 0z"/>
            <path fill="#37EBD5" d="M89.709 396.285c-2.03.981-5.965 4.284-7.327 8.15C79.209 382.746 61.926 374 61.926 374s-16.883 8.746-20.056 30.435c-1.362-3.866-5.097-7.169-7.127-8.15C31.987 401.33 30 407.34 30 414.462c0 21.13 19.926 34.398 29.926 39.538v-45.774c0-1.117.896-2.023 2-2.023 1.105 0 2 .906 2 2.023v45.618c10-5.245 30.076-18.455 30.076-39.382 0-7.122-1.537-13.133-4.293-18.177"/>
            <path fill="#756B5E" fill-rule="nonzero" d="M87.274 397.385c-2.91 1.406-6.571 5.13-7.835 8.718a1 1 0 1 0 1.886.665c1.076-3.055 4.359-6.393 6.82-7.582a1 1 0 0 0-.871-1.801z"/>
            <path fill="#756B5E" d="M33.178 397.385a1 1 0 0 0-1.313.42C28.712 403.578 27 409.73 27 416.463c0 9.86 4.164 18.696 11.486 26.452 5.415 5.736 12.166 10.472 18.983 13.976a1 1 0 0 0 1.457-.89v-45.774c0-.567.45-1.023 1-1.023s1 .456 1 1.023a1 1 0 1 0 2 0c0-1.667-1.34-3.023-3-3.023-1.659 0-3 1.357-3 3.023v44.116c-6.13-3.32-12.128-7.656-16.986-12.8-6.996-7.412-10.94-15.78-10.94-25.08 0-6.035 1.45-11.575 4.145-16.802 2.219 1.427 4.814 4.362 5.782 7.108.347.984 1.781.845 1.932-.188 1.235-8.435 4.639-15.479 9.545-21.235a41.225 41.225 0 0 1 6.901-6.454c.82-.603 1.58-1.112 2.26-1.527.4-.246.68-.403.821-.476a1 1 0 0 0-.92-1.776c-.181.094-.503.275-.946.546-.726.444-1.533.984-2.4 1.623a43.215 43.215 0 0 0-7.238 6.767c-4.55 5.337-7.87 11.737-9.467 19.257-1.667-2.601-4.152-4.913-6.237-5.92zM62.39 456.73c6.761-3.546 13.295-8.09 18.65-13.593a1 1 0 0 0-1.434-1.395c-5.189 5.332-11.556 9.761-18.144 13.217a1 1 0 1 0 .928 1.77z"/>
            <path fill="#CDCABA" fill-rule="nonzero" d="M55 522v19.46a1 1 0 1 0 2 0V522a1 1 0 1 0-2 0zM55 552v73.164a1 1 0 1 0 2 0V552a1 1 0 1 0-2 0z"/>
            <rect width="2" height="24" x="61" y="456" fill="#756B5E" rx="1"/>
        </g>
        <g transform="translate(109)">
            <rect width="2" height="24" x="64" y="648" fill="#756B5E" rx="1"/>
            <path fill="#00CC92" d="M75.327 610.626c0-2.342 2.433-4.533 4.623-6.029 1.352-.923 15.742-9.956 10.132-18.035-5.169-7.443-15.149 8.15-18.701 4.314-2.953-3.19-.222-11.332.783-13.987.04-.094.073-.193.109-.288.14-.362.229-.574.229-.574.179-1 .295-1.449.295-2.223A7.802 7.802 0 0 0 64.996 566c-4.308 0-7.801 3.495-7.801 7.808 0 1.206.281 2.344.77 3.364 1.074 2.91 3.531 10.621.676 13.704-3.552 3.837-13.531-11.757-18.7-4.314-5.61 8.08 8.78 17.112 10.131 18.035 2.19 1.496 4.624 3.687 4.624 6.03 0 5.559-5.107 3.85-10.377 3.85-6.254 0-11.319 3.072-11.319 9.33C33 642.69 56.027 645.563 63.027 646v-46.13a2 2 0 1 1 4 0v46.131c7-.433 30.018-3.298 30.018-22.194 0-6.259-5.088-9.33-11.341-9.33-5.27 0-10.377 1.709-10.377-3.85z"/>
            <path fill="#756B5E" fill-rule="nonzero" d="M65.089 649c6.055-.376 12.454-1.648 18-4.268 8.171-3.861 12.956-10.05 12.956-18.925a1 1 0 1 0-2 0c0 8.018-4.284 13.56-11.811 17.116-5.274 2.492-11.445 3.72-17.269 4.08A1 1 0 0 0 65.09 649zM83.704 615.477c-.87 0-1.618.036-3.021.126-2.884.187-3.905.177-4.847-.148-1.03-.355-1.509-1.123-1.509-2.829 0-1.58 1.584-3.424 4.187-5.203l.745-.498a50.61 50.61 0 0 0 1.347-.941 42.324 42.324 0 0 0 3.679-2.972c4.413-4.016 6.784-8.09 5.92-12.092-.22-1.015-.652-1.994-1.302-2.929a1 1 0 1 0-1.642 1.14c.5.722.825 1.458.988 2.212.67 3.094-1.377 6.61-5.31 10.19a40.358 40.358 0 0 1-3.506 2.83c-.443.321-.865.615-1.294.905-.207.14-.701.468-.753.504-3.114 2.127-5.059 4.393-5.059 6.854 0 2.516.971 4.07 2.857 4.72 1.303.449 2.427.46 5.628.253 1.361-.088 2.077-.122 2.892-.122a1 1 0 1 0 0-2zM43.816 642.917C36.286 639.359 32 633.819 32 625.807c0-5.255 4.063-8.33 10.319-8.33.815 0 1.53.034 2.892.122 3.201.207 4.325.196 5.628-.253 1.886-.65 2.857-2.204 2.857-4.72 0-2.461-1.945-4.727-5.06-6.854l-.753-.504c-.429-.29-.85-.584-1.294-.905a40.365 40.365 0 0 1-3.505-2.83c-3.933-3.58-5.98-7.096-5.31-10.19.163-.754.487-1.49.988-2.211 1.551-2.233 3.61-2.088 7.051.053.699.435 1.402.915 2.412 1.636 3.13 2.235 3.506 2.489 4.671 3.048 1.836.88 3.358.897 4.479-.313 2.663-2.876 1.849-8.442-.472-14.73-.476-1.005-.708-1.997-.708-3.019A6.805 6.805 0 0 1 62.996 569a1 1 0 1 0 0-2c-4.86 0-8.801 3.944-8.801 8.808 0 1.325.3 2.612.868 3.797 1.992 5.41 2.743 10.542.844 12.593-.754.814-2.024.206-6.52-3.004-1.042-.743-1.775-1.244-2.517-1.706-4.228-2.631-7.417-2.856-9.75.504-.65.935-1.082 1.914-1.301 2.93-.865 4 1.506 8.075 5.919 12.09a42.332 42.332 0 0 0 3.679 2.972c.461.335.9.64 1.346.942.216.146.704.47.745.498 2.604 1.78 4.188 3.624 4.188 5.203 0 1.706-.48 2.474-1.509 2.829-.942.325-1.963.335-4.847.148-1.403-.09-2.15-.125-3.021-.125-7.259 0-12.319 3.83-12.319 10.329 0 8.869 4.787 15.056 12.961 18.918 5.547 2.621 11.948 3.895 18.004 4.274a1 1 0 0 0 1.062-.999v-46.13a1 1 0 1 1 2 0 1 1 0 1 0 2 0 3.001 3.001 0 1 0-6 0v45.057c-5.508-.442-11.255-1.668-16.211-4.01z"/>
            <path fill="url(#d)" d="M65 680c27.614 0 50-22.386 50-50V0h12v631.218c-.555 28.172-19.889 51.743-46 58.698V1040H49V689.916C22.889 682.96 3.555 659.39 3.012 631.218L3 0h12v630c0 27.614 22.386 50 50 50z"/>
            <path fill="#756B5E" fill-rule="nonzero" d="M47.257 690.95c-26.075-6.946-44.719-30.427-45.245-57.751L2 157.999a1 1 0 0 0-2 0l.012 475.22c.544 28.24 19.798 52.49 46.73 59.663a1 1 0 0 0 .515-1.933z"/>
            <path fill="#756B5E" fill-rule="nonzero" d="M12 224.999V336a1 1 0 1 0 2 0V224.999a1 1 0 1 0-2 0zM12 346v23a1 1 0 1 0 2 0v-23a1 1 0 1 0-2 0zM12 377.5V592a1 1 0 1 0 2 0V377.5a1 1 0 1 0-2 0zM63 683c28.167 0 51-22.833 51-51a1 1 0 1 0-2 0c0 27.062-21.938 49-49 49a1 1 0 1 0 0 2z"/>
            <path fill="#756B5E" fill-rule="nonzero" d="M124 549.5v83.718c-.538 27.307-19.184 50.787-45.257 57.731a1 1 0 0 0 .514 1.933c26.93-7.173 46.187-31.42 46.743-59.644V549.5a1 1 0 1 0-2 0z"/>
            <path fill="#FAFAF5" fill-rule="nonzero" d="M75 785.014v57.972c0 .56.448 1.014 1 1.014s1-.454 1-1.014v-57.972c0-.56-.448-1.014-1-1.014s-1 .454-1 1.014zM75 758.107v18.009a1 1 0 1 0 2 0v-18.009a1 1 0 0 0-2 0zM75 740.107v10.009a1 1 0 1 0 2 0v-10.009a1 1 0 0 0-2 0zM75 690v42.116a1 1 0 1 0 2 0V690a1 1 0 1 0-2 0zM53.184 785.027C53.79 791.463 55.705 796 58.5 796c3.344 0 5.5-6.707 5.5-15s-2.156-15-5.5-15c-1.345 0-2.45 1.023-3.32 2.76a1 1 0 1 0 1.788.896C57.535 768.524 58.1 768 58.5 768c1.626 0 3.5 5.829 3.5 13s-1.874 13-3.5 13c-1.23 0-2.817-3.755-3.324-9.16a1 1 0 1 0-1.992.187zM59 721v21.888a1 1 0 1 0 2 0V721a1 1 0 1 0-2 0zM53 799v21.888a1 1 0 1 0 2 0V799a1 1 0 1 0-2 0zM53 710v13.369a1 1 0 0 0 2 0V710a1 1 0 1 0-2 0zM53 732v29.369a1 1 0 0 0 2 0V732a1 1 0 1 0-2 0z"/>
        </g>
        <g>
            <path fill="#E9E8DE" d="M232.754 154.43c-.55 0-.998-.232-1-.784-.002-.551.444-.894.997-.896 7.355-.022 14.755-.453 21.997-1.387a1.013 1.013 0 0 1 1.12.891c.071.548-.316.849-.864.92-7.324.943-14.81 1.256-22.247 1.256h-.003zM215.77 154.105a.957.957 0 0 1-.093-.004c-53.128-4.843-90.15-31.675-90.519-31.945a1 1 0 0 1 1.185-1.612c.363.268 36.966 26.776 89.516 31.565a1 1 0 0 1-.09 1.996M231.41 138.99c-19.752 0-35.514-5.446-35.735-5.524a1.001 1.001 0 0 1-.611-1.276 1.005 1.005 0 0 1 1.276-.61c.307.108 30.965 10.687 60.06 1.984a.999.999 0 1 1 .572 1.916c-8.656 2.59-17.448 3.51-25.562 3.51"/>
            <path fill="#00835E" d="M63.477 113.89c3.501.842 7.79.121 12.451-4.494C58.134 108.11 57.8 94.963 57.8 94.963c-.399.555-.755 1.1-1.075 1.631-3.989 6.638-.776 15.483 6.753 17.295"/>
            <path fill="#9CEF28" d="M154.986 98.698L156 96l-2.308-1.258c-5.933-3.025-22.07-10.792-34.535-12.514-.033-.005-21.267-3.865-36.083 21.982-14.827 25.867-27.947 6.705-27.947 6.705s12.49 36 48 36c30.515 0 47.644-37.63 51.859-48.217z"/>
            <path fill="#00835D" fill-rule="nonzero" d="M154.05 98.346c-3.677 9.233-8.984 19.184-15.91 27.804-10.076 12.538-21.745 19.765-35.013 19.765-12.18 0-22.41-4.268-30.878-11.791-6.17-5.483-10.865-12.174-14.22-19.025a1 1 0 0 0-1.795.88c3.46 7.066 8.299 13.964 14.687 19.64 8.818 7.835 19.512 12.296 32.206 12.296 13.968 0 26.151-7.546 36.571-20.512 7.071-8.8 12.466-18.915 16.217-28.335l1.021-2.716a1 1 0 0 0-.458-1.23l-2.308-1.258a1 1 0 0 0-.957 1.756l1.545.842-.708 1.884zM145.743 89.83c-9.84-4.416-19.007-7.564-26.45-8.592a11.66 11.66 0 0 0-.847-.108c-7.395-.73-16.384 1.374-24.998 8.69-4.166 3.54-7.942 8.137-11.242 13.893a1 1 0 1 0 1.735.995c3.187-5.56 6.816-9.977 10.802-13.363 8.154-6.927 16.61-8.905 23.507-8.225.366.036.615.071.757.097 7.224.998 16.237 4.093 25.917 8.438a1 1 0 0 0 .819-1.824z"/>
            <path fill="#00835D" d="M184.763 104.75a32.924 32.924 0 0 1 5.235 6.853 1 1 0 0 1-1.732 1c-9.26-16.037-26.979-15.77-27.157-15.765a1 1 0 1 1-.051-1.998c.16-.005 13.587-.207 23.705 9.91M102.714 125.022c0 1.216-.494 1.824-1.482 1.824-.95 0-1.482-.608-1.482-1.824V98.726h-3.496v26.296c0 3.572 1.672 5.32 4.978 5.32s4.978-1.748 4.978-5.32V98.726h-3.496v26.296zm13.882-14.288v-5.662c0-1.9-.266-2.812-1.938-2.812h-1.33v10.488h1.368c1.33 0 1.9-.646 1.9-2.014zM120.434 130h-3.838c-.532-4.712-1.064-9.386-1.824-14.06h-1.444V130h-3.534V98.726h4.864c3.648 0 5.51 1.52 5.51 5.624v6.346c0 2.356-.646 3.724-2.052 4.522.912 4.94 1.634 9.956 2.318 14.782zm6.586 0V98.726h-3.496V130h3.496z"/>
        </g>
        <g transform="translate(240 779)">
            <path fill="#9CEF28" d="M83 138.238c0-22.091-17.909-40-40-40-22.09 0-40 17.909-40 40 0 22.09 17.91 40 40 40 22.091 0 40-17.91 40-40"/>
            <path fill="#00835E" d="M41 180.238c-22.607 0-41-18.393-41-41 0-21.303 16.619-39.26 37.835-40.88a41.43 41.43 0 0 1 3.165-.12 1 1 0 1 1 0 2c-1.01 0-2.023.038-3.013.114C17.808 101.893 2 118.974 2 139.238c0 21.505 17.495 39 39 39 13.676 0 26.113-6.97 33.272-18.643a1.001 1.001 0 0 1 1.706 1.045C68.452 172.912 55.376 180.238 41 180.238"/>
            <path fill="#413A31" d="M42.999 108.071a.998.998 0 0 1-.684-.271c-.237-.223-5.81-5.546-5.926-13.03-.071-4.575 1.916-8.918 5.904-12.906a.999.999 0 1 1 1.414 1.414c-3.586 3.587-5.375 7.437-5.318 11.444.093 6.629 5.245 11.572 5.297 11.621a1 1 0 1 1-.687 1.728"/>
            <path fill="#413A31" d="M46.55 114.571a1 1 0 0 1-.97-.765c-.841-3.478-2.424-5.794-4.703-6.881-3.864-1.843-8.597.36-8.644.381a.998.998 0 0 1-1.333-.472.998.998 0 0 1 .47-1.332c.229-.108 5.624-2.636 10.355-.389 2.857 1.357 4.807 4.124 5.799 8.223a1 1 0 0 1-.973 1.235M45.928 106.072a1 1 0 0 1-.694-1.719c.136-.131 3.4-3.203 7.253-1.341a1 1 0 0 1-.872 1.801c-2.591-1.255-4.901.893-4.998.984a1 1 0 0 1-.69.275"/>
            <path fill="#00835E" d="M35.016 88.71s-10.337 5.14-17.724-2.246c-7.387-7.388-2.247-17.724-2.247-17.724s10.337-5.14 17.724 2.247c7.387 7.387 2.247 17.724 2.247 17.724"/>
            <path fill="#00835D" d="M16.65 152.76c.458.115.993.192 1.72.192.917 0 1.452-.612 1.452-1.911V124.82h3.555v26.22c0 3.785-1.758 5.466-5.007 5.466-.689 0-1.3-.114-1.72-.228v-3.517zM32.97 146.95c0-1.337-.267-2.102-1.107-3.172-1.414-1.797-2.867-3.25-4.396-5.428-.765-1.07-.955-2.408-.955-3.975v-4.701c0-3.517 1.644-5.2 5.007-5.2 3.516 0 4.854 1.683 4.854 5.2v5.733h-3.287v-5.695c0-.993-.421-1.682-1.491-1.682-1.032 0-1.49.497-1.49 1.644v4.663c0 .84.114 1.49.61 2.14 1.415 1.835 3.059 3.517 4.435 5.428 1.07 1.49 1.338 2.867 1.338 5.008v4.51c0 3.325-1.453 5.198-4.97 5.198-3.478 0-5.006-1.873-5.006-5.198v-6.69h3.4v6.69c0 1.032.498 1.68 1.493 1.68 1.069 0 1.566-.572 1.566-1.68v-4.472zM46.12 129.827c0-1.186-.497-1.797-1.528-1.797-.956 0-1.492.61-1.492 1.797v21.443c0 1.223.536 1.834 1.492 1.834 1.031 0 1.528-.611 1.528-1.834v-21.443zm-6.536 0c0-3.48 1.643-5.352 5.008-5.352 3.401 0 5.045 1.873 5.045 5.352v21.443c0 3.478-1.644 5.35-5.045 5.35-3.365 0-5.008-1.872-5.008-5.35v-21.443zM60.568 156.277c-2.369-10.855-3.555-15.978-4.625-21.1.077 4.32.077 8.64.077 12.958v8.142h-3.019V124.82h4.128c2.063 11.658 2.981 16.475 3.936 21.367-.076-3.593-.076-7.147-.076-10.664V124.82h3.02v31.458h-3.44z"/>
            <rect width="2" height="10" x="22" y="94.439" fill="#00835D" rx="1"/>
            <rect width="2" height="48" x="22" y="15.439" fill="#00835D" rx="1"/>
            <rect width="2" height="28" x="28" y="26.439" fill="#00835D" rx="1"/>
            <rect width="2" height="38" x="56" y="44.439" fill="#00835D" rx="1"/>
            <rect width="2" height="91" x="50" y=".439" fill="#00835D" rx="1"/>
        </g>
        <g transform="translate(52 696)">
            <path fill="#9CEF28" d="M59.927 124.572h.108c-9.841-11-9.53-21-9.53-21h-.016c-.183-9-6.983-15.342-15.983-15.589-8.49.247-15.305 6.761-15.488 15.589H19s.313 10-9.528 21h.108A31.85 31.85 0 0 0 3 144c0 17.508 14.062 31.723 31.506 31.988 18-.265 31.753-14.48 31.753-31.988 0-7.308-2.208-14.041-6.332-19.428"/>
            <path fill="#00835D" d="M36.208 123.014v3.588c.521-.276 1.027-.414 1.518-.414.95 0 1.671.322 2.162.966.49.644.736 1.457.736 2.438 0 .798-.161 1.978-.483 3.542-.322 1.564-.483 2.79-.483 3.68 0 1.718.483 3.174 1.449 4.37.966 1.196 2.354 1.932 4.163 2.208-1.81.276-3.197 1.02-4.163 2.231-.966 1.212-1.449 2.66-1.449 4.347 0 .92.161 2.162.483 3.726.322 1.564.483 2.745.483 3.542 0 .982-.245 1.794-.736 2.438-.49.644-1.211.966-2.162.966-.49 0-.997-.138-1.518-.414v3.542c.644.246 1.365.368 2.162.368 1.687 0 3.105-.62 4.255-1.863 1.15-1.242 1.725-2.905 1.725-4.99 0-.829-.161-1.963-.483-3.405-.322-1.441-.483-2.5-.483-3.174 0-3.097 1.35-4.922 4.048-5.474.276-.061.72-.092 1.334-.092v-3.542c-.552 0-.997-.03-1.334-.092-1.319-.184-2.323-.774-3.013-1.77-.69-.997-1.035-2.201-1.035-3.612 0-.674.161-1.732.483-3.174.322-1.441.483-2.576.483-3.404 0-2.085-.583-3.756-1.748-5.014-1.165-1.257-2.576-1.886-4.232-1.886-.644 0-1.365.123-2.162.368zM27.766 123.014v3.588c-.521-.276-1.027-.414-1.518-.414-.95 0-1.671.322-2.162.966-.49.644-.736 1.457-.736 2.438 0 .798.161 1.978.483 3.542.322 1.564.483 2.79.483 3.68 0 1.718-.483 3.174-1.449 4.37-.966 1.196-2.354 1.932-4.163 2.208 1.81.276 3.197 1.02 4.163 2.231.966 1.212 1.449 2.66 1.449 4.347 0 .92-.161 2.162-.483 3.726-.322 1.564-.483 2.745-.483 3.542 0 .982.245 1.794.736 2.438.49.644 1.211.966 2.162.966.49 0 .997-.138 1.518-.414v3.542c-.644.246-1.365.368-2.162.368-1.687 0-3.105-.62-4.255-1.863-1.15-1.242-1.725-2.905-1.725-4.99 0-.829.161-1.963.483-3.405.322-1.441.483-2.5.483-3.174 0-3.097-1.35-4.922-4.048-5.474-.276-.061-.72-.092-1.334-.092v-3.542c.552 0 .997-.03 1.334-.092 1.319-.184 2.323-.774 3.013-1.77.69-.997 1.035-2.201 1.035-3.612 0-.674-.161-1.732-.483-3.174-.322-1.441-.483-2.576-.483-3.404 0-2.085.583-3.756 1.748-5.014 1.165-1.257 2.576-1.886 4.232-1.886.644 0 1.365.123 2.162.368z"/>
            <path fill="#00835E" d="M32.52 177.988C14.575 177.716 0 162.917 0 145.001c0-7.15 2.245-13.936 6.498-19.657a.997.997 0 0 1 .228-.439c9.466-10.579 9.277-20.206 9.274-20.302a1.038 1.038 0 0 1 .023-.243c.285-9.085 7.326-16.111 16.454-16.377.523.017 1.013.418 1.029.971a1 1 0 0 1-.97 1.029c-8.11.235-14.35 6.517-14.519 14.609a1.02 1.02 0 0 1-.015.159c-.008 1.545-.447 10.848-9.473 21.136a1 1 0 0 1-.155.292c-4.17 5.448-6.375 11.955-6.375 18.822 0 16.83 13.693 30.731 30.523 30.987 17.223-.255 30.736-13.866 30.736-30.987 0-7.077-2.117-13.585-6.126-18.822a.998.998 0 1 1 1.589-1.214c4.278 5.586 6.538 12.515 6.538 20.036 0 18.226-14.38 32.716-32.739 32.987M41.58 85.712s-5.14-10.338 2.247-17.725c7.387-7.386 17.724-2.246 17.724-2.246s5.14 10.337-2.247 17.724C51.917 90.85 41.58 85.71 41.58 85.71"/>
            <path fill="#413A31" d="M34.072 96.844a1 1 0 0 1-.762-1.647c.283-.335 6.602-8.012-.018-16.282a.999.999 0 1 1 1.56-1.25c7.672 9.582.06 18.735-.018 18.826a1 1 0 0 1-.762.353"/>
            <path fill="#413A31" d="M32.036 100.572a1 1 0 0 1-.973-1.235c.6-2.482 1.797-4.165 3.558-5.001 2.897-1.377 6.168.158 6.307.222a1 1 0 0 1-.862 1.806c-.05-.024-2.579-1.183-4.596-.218-1.184.568-2.013 1.799-2.463 3.661-.11.457-.52.765-.97.765M30.394 95.698a1 1 0 0 1-.69-.275c-.063-.06-1.19-1.072-2.387-.491a1 1 0 1 1-.871-1.8c2.477-1.195 4.554.76 4.64.845a1 1 0 0 1-.692 1.721"/>
            <rect width="2" height="38" x="18" y="34" fill="#00835D" rx="1"/>
            <rect width="2" height="10" x="50" y="45" fill="#00835D" rx="1"/>
            <rect width="2" height="48" x="34" y="16" fill="#00835D" rx="1"/>
            <rect width="2" height="81" x="24" fill="#00835D" rx="1"/>
        </g>
    </g>
</svg>
