<svg xmlns="http://www.w3.org/2000/svg" width="108" height="755" viewBox="0 0 108 755">
    <defs>
        <linearGradient id="a" x1="50%" x2="50%" y1="0%" y2="100%">
            <stop offset="0%" stop-color="#E9E8DD"/>
            <stop offset="100%" stop-color="#FAFAF5"/>
        </linearGradient>
    </defs>
    <path fill="url(#a)" fill-rule="evenodd" d="M206 314.434C206 303.016 218 299 218 299s12 4.016 12 15.434c0 8.459-6.586 12.855-10 14.566v-19.706c0-1.14-.895-2.063-2-2.063-1.112 0-2 .924-2 2.063V329c-3.414-1.71-10-6.107-10-14.566zm-38-29.431c.001 27.613 22.387 49.997 50 49.997 27.614 0 50-22.386 50-50V1h4v284.111c-.056 27.745-21.036 50.579-48 53.56V755.5h-12V338.67c-27-2.984-48-25.874-48-53.67L165 .998 169 1l-1 284.004z" transform="translate(-164 -1)"/>
</svg>
