<svg xmlns="http://www.w3.org/2000/svg" width="512" height="824" viewBox="0 0 512 824">
    <defs>
        <linearGradient id="a" x1="50%" x2="50%" y1="0%" y2="100%">
            <stop offset="0%" stop-color="#FFF"/>
            <stop offset="100%" stop-color="#FAFAF5"/>
        </linearGradient>
        <linearGradient id="b" x1="50%" x2="50%" y1="0%" y2="100%">
            <stop offset="0%" stop-color="#E9E8DD"/>
            <stop offset="100%" stop-color="#FFF"/>
        </linearGradient>
    </defs>
    <g fill="none" fill-rule="evenodd" transform="translate(0 -1)">
        <path fill="url(#a)" d="M0 1.999h32V825H0zM364 1.999h32V825h-32zM232 1.999h12V825h-12zM204 1.999h12V825h-12z"/>
        <path fill="url(#b)" d="M128 539c-27.614 0-50-22.386-50-50H66c0 28.71 19.513 52.86 46 59.916V825h32V548.916c26.18-6.973 45.546-30.648 45.992-58.917L190 1h-12v488c0 27.614-22.386 50-50 50z"/>
        <path fill="#FAFAF5" d="M126 529c-7.004-2.887-30-14.294-30-39.619C96 459.508 128 449 128 449s32 10.508 32 40.381c0 25.325-22.996 36.732-30 39.619v-61.835a2.008 2.008 0 0 0-2-2.013c-1.112 0-2 .901-2 2.013V529z"/>
        <path fill="#E9E8DE" d="M306 439c27.614 0 50-22.386 50-50v-63.287c-31.101-2.986-55.49-28.95-55.992-60.714L300 .999h12V264c0 27.614 22.386 50 50 50s50-22.386 50-50V.999h12v264c-.51 31.764-24.899 57.728-56 60.714V390c-.455 28.269-19.821 51.943-46 58.916V825h-32V448.916c-26.028-6.933-45.321-30.374-45.982-58.426L244 1h12v388c0 27.614 22.386 50 50 50z"/>
        <path fill="#CDCABA" fill-rule="nonzero" d="M316 536.631v21.889a1 1 0 0 0 2 0V536.63a1 1 0 0 0-2 0zM304 451v68.469a1 1 0 1 0 2 0V451a1 1 0 1 0-2 0zM304 526v18.028a1 1 0 1 0 2 0V526a1 1 0 1 0-2 0zM316 469v60.52a1 1 0 0 0 2 0V469a1 1 0 1 0-2 0zM310 490.665v79.341a1 1 0 1 0 2 0v-79.341a1 1 0 0 0-2 0z"/>
        <path fill="#FFF" d="M144 544.341h8v31.961h-8zM256 413.499h8v54.933h-8z"/>
        <path fill="#37EBD5" d="M397.32 257.48l-3.709-2.22a2138.92 2138.92 0 0 1 3.087-10.277 1.46 1.46 0 0 0-.282-1.366c-.318-.371-.8-.54-1.268-.444a6449.84 6449.84 0 0 1-9.108 1.864l-2.709-5.015a1.348 1.348 0 0 0-1.044-.711 1.319 1.319 0 0 0-1.158.484l-7.233 8.79a9017.85 9017.85 0 0 1 4.17-19.119 1.445 1.445 0 0 0-.504-1.442 1.307 1.307 0 0 0-1.466-.108 799.46 799.46 0 0 1-6.478 3.697l-6.446-11.897a1.344 1.344 0 0 0-1.177-.716c-.488 0-.937.275-1.177.718l-6.425 11.895a776.97 776.97 0 0 1-6.485-3.697 1.307 1.307 0 0 0-1.466.108c-.425.336-.623.9-.504 1.442l4.19 19.131-7.257-8.803a1.32 1.32 0 0 0-1.157-.483c-.438.045-.828.31-1.044.711l-2.707 5.012c-1.479-.3-5.977-1.219-9.11-1.86-.47-.096-.95.072-1.268.443a1.46 1.46 0 0 0-.28 1.366 2245.73 2245.73 0 0 1 3.09 10.275l-3.716 2.221a1.42 1.42 0 0 0-.675 1.119c-.034.466.155.92.506 1.212l17.247 14.32c-.296 1.253-1.167 4.805-1.734 7.107-.117.472.01.975.332 1.327.323.353.812.506 1.27.406l16.405-3.338V253.01c0-1.11.896-2.01 2-2.01 1.105 0 2 .9 2 2.01v26.622l16.382 3.338c.092.02.178.03.27.03.365 0 .716-.154.974-.437.323-.353.446-.856.33-1.329a1236.14 1236.14 0 0 1-1.749-7.1l17.253-14.325c.351-.29.54-.745.506-1.211a1.417 1.417 0 0 0-.676-1.118z"/>
        <path fill="#756B5E" fill-rule="nonzero" d="M361.83 282.612l16.383 3.338c.148.033.305.05.47.05a1 1 0 1 0 0-2 .243.243 0 0 1-.057-.007l-16.396-3.34a1 1 0 1 0-.4 1.96zM378.876 276.904l17.253-14.326c.6-.497.922-1.266.865-2.053a1 1 0 0 0-1.995.145.437.437 0 0 1-.146.368l-17.255 14.327a1 1 0 0 0 1.278 1.539zM392.57 257.542c.439-1.492 1.81-6.051 3.085-10.27a2.461 2.461 0 0 0-.479-2.305 1 1 0 1 0-1.52 1.3.46.46 0 0 1 .085.428 2064.348 2064.348 0 0 0-3.09 10.284 1 1 0 1 0 1.92.563zM384.92 246.562l-2.709-5.015a1 1 0 1 0-1.76.95l2.71 5.015a1 1 0 1 0 1.759-.95zM372.874 250.794a8536.42 8536.42 0 0 1 4.17-19.114 1 1 0 0 0-1.955-.428 8533.486 8533.486 0 0 0-4.17 19.122 1 1 0 0 0 1.955.42zM346.407 229.049a2.307 2.307 0 0 0-2.582.188 2.447 2.447 0 0 0-.864 2.443l3.304 15.085-4.622-5.607a2.32 2.32 0 0 0-2.034-.842 2.347 2.347 0 0 0-1.82 1.232l-2.353 4.359c-1.815-.37-5.41-1.104-8.382-1.713a2.317 2.317 0 0 0-2.229.773 2.46 2.46 0 0 0-.477 2.306c1.166 3.851 2.303 7.627 2.868 9.525l-3.05 1.823a2.42 2.42 0 0 0-1.16 1.906 2.438 2.438 0 0 0 .865 2.052l16.77 13.923c-.328 1.359-.948 3.894-1.589 6.496-.197.794.015 1.64.566 2.242a2.344 2.344 0 0 0 2.22.708l16.392-3.336a1 1 0 0 0 .8-.98V255.01c0-.558.45-1.01 1-1.01.551 0 1 .451 1 1.01a1 1 0 0 0 2 0c0-1.661-1.342-3.01-3-3.01-1.657 0-3 1.35-3 3.01v25.805l-15.604 3.175a.35.35 0 0 1-.333-.101.455.455 0 0 1-.1-.412c.757-3.068 1.483-6.038 1.737-7.117a1 1 0 0 0-.334-1l-17.247-14.32a.44.44 0 0 1-.147-.37.422.422 0 0 1 .192-.334l3.714-2.22a1 1 0 0 0 .447-1.14c-.434-1.474-1.744-5.826-3.093-10.283a.461.461 0 0 1 .084-.427.317.317 0 0 1 .308-.113c3.449.707 7.737 1.583 9.11 1.861a1 1 0 0 0 1.08-.505l2.706-5.012a.35.35 0 0 1 .267-.192.323.323 0 0 1 .282.124l7.258 8.804c.667.81 1.973.176 1.748-.85l-4.19-19.13a.447.447 0 0 1 .147-.444.306.306 0 0 1 .347-.027 758.45 758.45 0 0 0 6.497 3.704 1 1 0 0 0 1.367-.397l6.425-11.896a.344.344 0 0 1 .297-.193c.117 0 .232.07.298.193a1 1 0 0 0 1.758-.954 2.344 2.344 0 0 0-2.056-1.239c-.859 0-1.643.479-2.056 1.242l-5.942 11.001a942.987 942.987 0 0 1-5.59-3.194z"/>
        <rect width="2" height="24" x="361" y="282" fill="#756B5E" rx="1"/>
        <path fill="#E9E8DE" d="M304 429c-7.004-2.887-30-14.294-30-39.619C274 359.508 306 349 306 349s32 10.508 32 40.381c0 25.325-22.996 36.732-30 39.619v-61.835a2.008 2.008 0 0 0-2-2.013c-1.112 0-2 .901-2 2.013V429z"/>
        <rect width="2" height="24" x="213" y="613" fill="#756B5E" rx="1"/>
        <path fill="#00CC92" d="M224.327 575.626c0-2.342 2.433-4.533 4.623-6.029 1.352-.923 15.742-9.956 10.132-18.035-5.169-7.443-15.149 8.15-18.701 4.314-2.953-3.19-.222-11.332.783-13.987.04-.094.073-.193.109-.288.14-.362.229-.574.229-.574.179-1 .295-1.449.295-2.223a7.802 7.802 0 0 0-7.801-7.804c-4.308 0-7.801 3.495-7.801 7.808 0 1.206.281 2.344.77 3.364 1.074 2.91 3.531 10.621.676 13.704-3.552 3.837-13.531-11.757-18.7-4.314-5.61 8.08 8.78 17.112 10.131 18.035 2.19 1.496 4.624 3.687 4.624 6.03 0 5.559-5.107 3.85-10.377 3.85-6.254 0-11.319 3.072-11.319 9.33 0 18.884 23.027 21.756 30.027 22.193v-46.13a2 2 0 1 1 4 0v46.131c7-.433 30.018-3.298 30.018-22.194 0-6.259-5.088-9.33-11.341-9.33-5.27 0-10.377 1.709-10.377-3.85z"/>
        <path fill="#756B5E" fill-rule="nonzero" d="M214.089 614c6.055-.376 12.454-1.648 18-4.268 8.171-3.861 12.956-10.05 12.956-18.925a1 1 0 1 0-2 0c0 8.018-4.284 13.56-11.811 17.116-5.274 2.492-11.445 3.72-17.269 4.08a1 1 0 0 0 .124 1.997zM232.704 580.477c-.87 0-1.618.036-3.021.126-2.884.187-3.905.177-4.847-.148-1.03-.355-1.509-1.123-1.509-2.829 0-1.58 1.584-3.424 4.187-5.203l.745-.498a50.61 50.61 0 0 0 1.347-.941 42.324 42.324 0 0 0 3.679-2.972c4.413-4.016 6.784-8.09 5.92-12.092-.22-1.015-.652-1.994-1.302-2.929a1 1 0 0 0-1.642 1.14c.5.722.825 1.458.988 2.212.67 3.094-1.377 6.61-5.31 10.19a40.358 40.358 0 0 1-3.506 2.83c-.443.321-.865.615-1.294.905-.207.14-.701.468-.753.504-3.114 2.127-5.059 4.393-5.059 6.854 0 2.516.971 4.07 2.857 4.72 1.303.449 2.427.46 5.628.253 1.361-.088 2.077-.122 2.892-.122a1 1 0 1 0 0-2zM218.34 543.24l-.04.107-.011.033a2.19 2.19 0 0 1-.044.113c-2.413 6.374-3.325 12.117-.598 15.063a1 1 0 1 0 1.468-1.359c-1.951-2.108-1.106-7.433.984-12.954.013-.028.036-.089.07-.18l.012-.035.027-.073c.1-.256.175-.444.216-.541l.062-.211.148-.805c.052-.285.085-.492.11-.701.036-.294.053-.576.053-.893a1 1 0 1 0-2 0c0 .237-.012.439-.038.653-.02.163-.047.335-.092.584l-.13.702c-.049.12-.116.287-.197.497zM192.816 607.917c-7.53-3.558-11.816-9.098-11.816-17.11 0-5.255 4.063-8.33 10.319-8.33.815 0 1.53.034 2.892.122 3.201.207 4.325.196 5.628-.253 1.886-.65 2.857-2.204 2.857-4.72 0-2.461-1.945-4.727-5.06-6.854l-.753-.504c-.429-.29-.85-.584-1.294-.905a40.365 40.365 0 0 1-3.505-2.83c-3.933-3.58-5.98-7.096-5.31-10.19.163-.754.487-1.49.988-2.211 1.551-2.233 3.61-2.088 7.051.053.699.435 1.402.915 2.412 1.636 3.13 2.235 3.506 2.489 4.671 3.048 1.836.88 3.358.897 4.479-.313 2.663-2.876 1.849-8.442-.472-14.73-.476-1.005-.708-1.997-.708-3.019a6.805 6.805 0 0 1 6.801-6.808 1 1 0 1 0 0-2c-4.86 0-8.801 3.944-8.801 8.808 0 1.325.3 2.612.868 3.797 1.992 5.41 2.743 10.542.844 12.593-.754.814-2.024.206-6.52-3.004-1.042-.743-1.775-1.244-2.517-1.706-4.228-2.631-7.417-2.856-9.75.504-.65.935-1.082 1.914-1.301 2.93-.865 4 1.506 8.075 5.919 12.09a42.332 42.332 0 0 0 3.679 2.972c.461.335.9.64 1.346.942.216.146.704.47.745.498 2.604 1.78 4.188 3.624 4.188 5.203 0 1.706-.48 2.474-1.509 2.829-.942.325-1.963.335-4.847.148-1.403-.09-2.15-.125-3.021-.125-7.259 0-12.319 3.83-12.319 10.329 0 8.869 4.787 15.056 12.961 18.918 5.547 2.621 11.948 3.895 18.004 4.274a1 1 0 0 0 1.062-.999v-46.13a1 1 0 1 1 2 0 1 1 0 1 0 2 0 3.001 3.001 0 1 0-6 0v45.057c-5.508-.442-11.255-1.668-16.211-4.01z"/>
        <path fill="#E9E8DE" d="M78 243.916V825H46V243.916C19.82 236.943.454 213.268.008 184.998L0 1h12v183c0 27.614 22.386 50 50 50s50-22.386 50-50V1h12v184c-.455 28.269-19.821 51.943-46 58.916z"/>
        <path fill="#CDCABA" fill-rule="nonzero" d="M60 282.49v52.03a1 1 0 0 0 2 0v-52.03a1 1 0 1 0-2 0zM60 348.843v19.46a1 1 0 1 0 2 0v-19.46a1 1 0 0 0-2 0zM60 378.843v73.164a1 1 0 1 0 2 0v-73.164a1 1 0 0 0-2 0zM50 327v68.469a1 1 0 1 0 2 0V327a1 1 0 1 0-2 0zM55 486v36.424a1 1 0 0 0 2 0V486a1 1 0 1 0-2 0zM55 529.369v8.062a1 1 0 1 0 2 0v-8.062a1 1 0 1 0-2 0zM50 402v18.028a1 1 0 1 0 2 0V402a1 1 0 1 0-2 0zM50 436v94.048a1 1 0 1 0 2 0V436a1 1 0 1 0-2 0z"/>
        <path fill="#F6C323" d="M89.709 142.285c-2.03.981-5.965 4.284-7.327 8.15C79.209 128.746 61.926 120 61.926 120s-16.883 8.746-20.056 30.435c-1.362-3.866-5.097-7.169-7.127-8.15C31.987 147.33 30 153.34 30 160.462c0 21.13 19.926 34.398 29.926 39.538v-45.774c0-1.117.896-2.023 2-2.023 1.105 0 2 .906 2 2.023v45.618c10-5.245 30.076-18.455 30.076-39.382 0-7.122-1.537-13.133-4.293-18.177"/>
        <path fill="#756B5E" fill-rule="nonzero" d="M87.274 143.385c-2.91 1.406-6.571 5.13-7.835 8.718a1 1 0 1 0 1.886.665c1.076-3.055 4.359-6.393 6.82-7.582a1 1 0 0 0-.871-1.801zm-54.096 0a1 1 0 0 0-1.313.42C28.712 149.578 27 155.73 27 162.463c0 9.86 4.164 18.696 11.486 26.452 5.415 5.736 12.166 10.472 18.983 13.976a1 1 0 0 0 1.457-.89v-45.774c0-.567.45-1.023 1-1.023s1 .456 1 1.023a1 1 0 1 0 2 0c0-1.667-1.34-3.023-3-3.023-1.659 0-3 1.357-3 3.023v44.116c-6.13-3.32-12.128-7.656-16.986-12.8-6.996-7.412-10.94-15.78-10.94-25.08 0-6.035 1.45-11.575 4.145-16.802 2.219 1.427 4.814 4.362 5.782 7.108.347.984 1.781.845 1.932-.188 1.235-8.436 4.639-15.479 9.545-21.235a41.225 41.225 0 0 1 6.901-6.454c.82-.603 1.58-1.112 2.26-1.527.4-.246.68-.403.821-.476a1 1 0 0 0-.92-1.776c-.181.094-.503.275-.946.546-.726.444-1.533.984-2.4 1.623a43.215 43.215 0 0 0-7.238 6.767c-4.55 5.337-7.87 11.737-9.467 19.257-1.667-2.601-4.152-4.913-6.237-5.92zM62.39 202.73c6.761-3.546 13.295-8.09 18.65-13.593a1 1 0 0 0-1.434-1.395c-5.189 5.332-11.556 9.761-18.144 13.217a1 1 0 1 0 .928 1.77z"/>
        <path fill="#CDCABA" fill-rule="nonzero" d="M55 268v19.46a1 1 0 1 0 2 0V268a1 1 0 1 0-2 0zM55 298v73.164a1 1 0 1 0 2 0V298a1 1 0 1 0-2 0z"/>
        <rect width="2" height="24" x="61" y="202" fill="#756B5E" rx="1"/>
        <path fill="#FFF" d="M144 411h8v214h-8zM256 373h8v82h-8z"/>
        <path fill="#CDCABA" d="M214 645c27.614 0 50-22.386 50-50V.999h12v595.22c-.555 28.171-19.889 51.742-46 58.697V825h-32V654.916c-26.111-6.955-45.445-30.526-45.988-58.698L152 .998h12V595c0 27.614 22.386 50 50 50z"/>
        <path fill="#756B5E" fill-rule="nonzero" d="M196.257 655.95c-26.075-6.946-44.719-30.427-45.245-57.751L151 22.999a1 1 0 1 0-2 0l.012 575.22c.544 28.24 19.798 52.49 46.73 59.663a1 1 0 0 0 .515-1.933z"/>
        <path fill="#756B5E" fill-rule="nonzero" d="M161 189.999V301a1 1 0 1 0 2 0V189.999a1 1 0 1 0-2 0zM161 311v23a1 1 0 1 0 2 0v-23a1 1 0 1 0-2 0zM161 342.5V557a1 1 0 1 0 2 0V342.5a1 1 0 1 0-2 0zM212 648c28.167 0 51-22.833 51-51a1 1 0 1 0-2 0c0 27.062-21.938 49-49 49a1 1 0 1 0 0 2z"/>
        <path fill="#756B5E" fill-rule="nonzero" d="M273 514.5v83.718c-.538 27.307-19.184 50.787-45.257 57.731a1 1 0 0 0 .514 1.933c26.93-7.173 46.187-31.42 46.743-59.644V514.5a1 1 0 1 0-2 0z"/>
        <path fill="#FAFAF5" fill-rule="nonzero" d="M224 750.014v57.972c0 .56.448 1.014 1 1.014s1-.454 1-1.014v-57.972c0-.56-.448-1.014-1-1.014s-1 .454-1 1.014zM224 723.107v18.009a1 1 0 1 0 2 0v-18.009a1 1 0 0 0-2 0zM224 705.107v10.009a1 1 0 1 0 2 0v-10.009a1 1 0 0 0-2 0zM224 655v42.116a1 1 0 1 0 2 0V655a1 1 0 1 0-2 0zM202.184 750.027c.605 6.436 2.521 10.973 5.316 10.973 3.344 0 5.5-6.707 5.5-15s-2.156-15-5.5-15c-1.345 0-2.45 1.023-3.32 2.76a1 1 0 1 0 1.788.896c.567-1.132 1.132-1.656 1.532-1.656 1.626 0 3.5 5.829 3.5 13s-1.874 13-3.5 13c-1.23 0-2.817-3.755-3.324-9.16a1 1 0 1 0-1.992.187z"/>
        <path fill="#FAFAF5" fill-rule="nonzero" d="M202.131 742.59A43.691 43.691 0 0 0 202 746a1 1 0 1 0 2 0c0-1.108.042-2.198.125-3.254a1 1 0 0 0-1.994-.157zM208 686v21.888a1 1 0 1 0 2 0V686a1 1 0 1 0-2 0zM202 764v21.888a1 1 0 1 0 2 0V764a1 1 0 1 0-2 0zM202 675v13.369a1 1 0 0 0 2 0V675a1 1 0 1 0-2 0zM202 697v29.369a1 1 0 0 0 2 0V697a1 1 0 1 0-2 0z"/>
        <g transform="translate(16 503.561)">
            <path fill="#9CEF28" d="M83 138.238c0-22.091-17.909-40-40-40-22.09 0-40 17.909-40 40 0 22.09 17.91 40 40 40 22.091 0 40-17.91 40-40"/>
            <path fill="#00835E" d="M41 180.238c-22.607 0-41-18.393-41-41 0-21.303 16.619-39.26 37.835-40.88a41.43 41.43 0 0 1 3.165-.12 1 1 0 1 1 0 2c-1.01 0-2.023.038-3.013.114C17.808 101.893 2 118.974 2 139.238c0 21.505 17.495 39 39 39 13.676 0 26.113-6.97 33.272-18.643a1.001 1.001 0 0 1 1.706 1.045C68.452 172.912 55.376 180.238 41 180.238"/>
            <path fill="#413A31" d="M42.999 108.071a.998.998 0 0 1-.684-.271c-.237-.223-5.81-5.546-5.926-13.03-.071-4.575 1.916-8.918 5.904-12.906a.999.999 0 1 1 1.414 1.414c-3.586 3.587-5.375 7.437-5.318 11.444.093 6.629 5.245 11.572 5.297 11.621a1 1 0 1 1-.687 1.728"/>
            <path fill="#413A31" d="M46.55 114.571a1 1 0 0 1-.97-.765c-.841-3.478-2.424-5.794-4.703-6.881-3.864-1.843-8.597.36-8.644.381a.998.998 0 0 1-1.333-.472.998.998 0 0 1 .47-1.332c.229-.108 5.624-2.636 10.355-.389 2.857 1.357 4.807 4.124 5.799 8.223a1 1 0 0 1-.973 1.235M45.928 106.072a1 1 0 0 1-.694-1.719c.136-.131 3.4-3.203 7.253-1.341a1 1 0 0 1-.872 1.801c-2.591-1.255-4.901.893-4.998.984a1 1 0 0 1-.69.275"/>
            <path fill="#00835E" d="M35.016 88.71s-10.337 5.14-17.724-2.246c-7.387-7.388-2.247-17.724-2.247-17.724s10.337-5.14 17.724 2.247c7.387 7.387 2.247 17.724 2.247 17.724"/>
            <path fill="#00835D" d="M16.65 152.76c.458.115.993.192 1.72.192.917 0 1.452-.612 1.452-1.911V124.82h3.555v26.22c0 3.785-1.758 5.466-5.007 5.466-.689 0-1.3-.114-1.72-.228v-3.517zM32.97 146.95c0-1.337-.267-2.102-1.107-3.172-1.414-1.797-2.867-3.25-4.396-5.428-.765-1.07-.955-2.408-.955-3.975v-4.701c0-3.517 1.644-5.2 5.007-5.2 3.516 0 4.854 1.683 4.854 5.2v5.733h-3.287v-5.695c0-.993-.421-1.682-1.491-1.682-1.032 0-1.49.497-1.49 1.644v4.663c0 .84.114 1.49.61 2.14 1.415 1.835 3.059 3.517 4.435 5.428 1.07 1.49 1.338 2.867 1.338 5.008v4.51c0 3.325-1.453 5.198-4.97 5.198-3.478 0-5.006-1.873-5.006-5.198v-6.69h3.4v6.69c0 1.032.498 1.68 1.493 1.68 1.069 0 1.566-.572 1.566-1.68v-4.472zM46.12 129.827c0-1.186-.497-1.797-1.528-1.797-.956 0-1.492.61-1.492 1.797v21.443c0 1.223.536 1.834 1.492 1.834 1.031 0 1.528-.611 1.528-1.834v-21.443zm-6.536 0c0-3.48 1.643-5.352 5.008-5.352 3.401 0 5.045 1.873 5.045 5.352v21.443c0 3.478-1.644 5.35-5.045 5.35-3.365 0-5.008-1.872-5.008-5.35v-21.443zM60.568 156.277c-2.369-10.855-3.555-15.978-4.625-21.1.077 4.32.077 8.64.077 12.958v8.142h-3.019V124.82h4.128c2.063 11.658 2.981 16.475 3.936 21.367-.076-3.593-.076-7.147-.076-10.664V124.82h3.02v31.458h-3.44z"/>
            <rect width="2" height="10" x="22" y="94.439" fill="#00835D" rx="1"/>
            <rect width="2" height="48" x="22" y="15.439" fill="#00835D" rx="1"/>
            <rect width="2" height="28" x="28" y="26.439" fill="#00835D" rx="1"/>
            <rect width="2" height="38" x="56" y="44.439" fill="#00835D" rx="1"/>
            <rect width="2" height="91" x="50" y=".439" fill="#00835D" rx="1"/>
        </g>
        <g transform="translate(313 599)">
            <path fill="#9CEF28" d="M59.927 124.572h.108c-9.841-11-9.53-21-9.53-21h-.016c-.183-9-6.983-15.342-15.983-15.589-8.49.247-15.305 6.761-15.488 15.589H19s.313 10-9.528 21h.108A31.85 31.85 0 0 0 3 144c0 17.508 14.062 31.723 31.506 31.988 18-.265 31.753-14.48 31.753-31.988 0-7.308-2.208-14.041-6.332-19.428"/>
            <path fill="#00835D" d="M36.208 123.014v3.588c.521-.276 1.027-.414 1.518-.414.95 0 1.671.322 2.162.966.49.644.736 1.457.736 2.438 0 .798-.161 1.978-.483 3.542-.322 1.564-.483 2.79-.483 3.68 0 1.718.483 3.174 1.449 4.37.966 1.196 2.354 1.932 4.163 2.208-1.81.276-3.197 1.02-4.163 2.231-.966 1.212-1.449 2.66-1.449 4.347 0 .92.161 2.162.483 3.726.322 1.564.483 2.745.483 3.542 0 .982-.245 1.794-.736 2.438-.49.644-1.211.966-2.162.966-.49 0-.997-.138-1.518-.414v3.542c.644.246 1.365.368 2.162.368 1.687 0 3.105-.62 4.255-1.863 1.15-1.242 1.725-2.905 1.725-4.99 0-.829-.161-1.963-.483-3.405-.322-1.441-.483-2.5-.483-3.174 0-3.097 1.35-4.922 4.048-5.474.276-.061.72-.092 1.334-.092v-3.542c-.552 0-.997-.03-1.334-.092-1.319-.184-2.323-.774-3.013-1.77-.69-.997-1.035-2.201-1.035-3.612 0-.674.161-1.732.483-3.174.322-1.441.483-2.576.483-3.404 0-2.085-.583-3.756-1.748-5.014-1.165-1.257-2.576-1.886-4.232-1.886-.644 0-1.365.123-2.162.368zM27.766 123.014v3.588c-.521-.276-1.027-.414-1.518-.414-.95 0-1.671.322-2.162.966-.49.644-.736 1.457-.736 2.438 0 .798.161 1.978.483 3.542.322 1.564.483 2.79.483 3.68 0 1.718-.483 3.174-1.449 4.37-.966 1.196-2.354 1.932-4.163 2.208 1.81.276 3.197 1.02 4.163 2.231.966 1.212 1.449 2.66 1.449 4.347 0 .92-.161 2.162-.483 3.726-.322 1.564-.483 2.745-.483 3.542 0 .982.245 1.794.736 2.438.49.644 1.211.966 2.162.966.49 0 .997-.138 1.518-.414v3.542c-.644.246-1.365.368-2.162.368-1.687 0-3.105-.62-4.255-1.863-1.15-1.242-1.725-2.905-1.725-4.99 0-.829.161-1.963.483-3.405.322-1.441.483-2.5.483-3.174 0-3.097-1.35-4.922-4.048-5.474-.276-.061-.72-.092-1.334-.092v-3.542c.552 0 .997-.03 1.334-.092 1.319-.184 2.323-.774 3.013-1.77.69-.997 1.035-2.201 1.035-3.612 0-.674-.161-1.732-.483-3.174-.322-1.441-.483-2.576-.483-3.404 0-2.085.583-3.756 1.748-5.014 1.165-1.257 2.576-1.886 4.232-1.886.644 0 1.365.123 2.162.368z"/>
            <path fill="#00835E" d="M32.52 177.988C14.575 177.716 0 162.917 0 145.001c0-7.15 2.245-13.936 6.498-19.657a.997.997 0 0 1 .228-.439c9.466-10.579 9.277-20.206 9.274-20.302a1.038 1.038 0 0 1 .023-.243c.285-9.085 7.326-16.111 16.454-16.377.523.017 1.013.418 1.029.971a1 1 0 0 1-.97 1.029c-8.11.235-14.35 6.517-14.519 14.609a1.02 1.02 0 0 1-.015.159c-.008 1.545-.447 10.848-9.473 21.136a1 1 0 0 1-.155.292c-4.17 5.448-6.375 11.955-6.375 18.822 0 16.83 13.693 30.731 30.523 30.987 17.223-.255 30.736-13.866 30.736-30.987 0-7.077-2.117-13.585-6.126-18.822a.998.998 0 1 1 1.589-1.214c4.278 5.586 6.538 12.515 6.538 20.036 0 18.226-14.38 32.716-32.739 32.987M41.58 85.712s-5.14-10.338 2.247-17.725c7.387-7.386 17.724-2.246 17.724-2.246s5.14 10.337-2.247 17.724C51.917 90.85 41.58 85.71 41.58 85.71"/>
            <path fill="#413A31" d="M34.072 96.844a1 1 0 0 1-.762-1.647c.283-.335 6.602-8.012-.018-16.282a.999.999 0 1 1 1.56-1.25c7.672 9.582.06 18.735-.018 18.826a1 1 0 0 1-.762.353"/>
            <path fill="#413A31" d="M32.036 100.572a1 1 0 0 1-.973-1.235c.6-2.482 1.797-4.165 3.558-5.001 2.897-1.377 6.168.158 6.307.222a1 1 0 0 1-.862 1.806c-.05-.024-2.579-1.183-4.596-.218-1.184.568-2.013 1.799-2.463 3.661-.11.457-.52.765-.97.765M30.394 95.698a1 1 0 0 1-.69-.275c-.063-.06-1.19-1.072-2.387-.491a1 1 0 1 1-.871-1.8c2.477-1.195 4.554.76 4.64.845a1 1 0 0 1-.692 1.721"/>
            <rect width="2" height="38" x="18" y="34" fill="#00835D" rx="1"/>
            <rect width="2" height="10" x="50" y="45" fill="#00835D" rx="1"/>
            <rect width="2" height="48" x="34" y="16" fill="#00835D" rx="1"/>
            <rect width="2" height="81" x="24" fill="#00835D" rx="1"/>
        </g>
        <path fill="#FFF" fill-rule="nonzero" d="M473.948 98.265c.147.359.291.716.433 1.073l4.78-6.125a50.702 50.702 0 0 1-8.299-1.83c-8.538-2.653-16.857-7.73-24.487-15.882-11.329-12.105-21.654-17.802-30.884-18.308-2.51-.138-4.825.12-6.929.694-.851.232-1.668.516-2.449.846-1.788.758-3.133 1.64-4.01 2.421-.49.426-.897.91-1.223 1.432-1.477 2.368-1.277 5.534.676 7.738a6.5 6.5 0 0 0 8.975.723c.069-.057-2.784-3.539-2.784-3.539l.321.385 2.563 3.069c.123-.04.389-.165.721-.282 1.09-.383 2.459-.547 4.153-.355 5.6.637 12.739 4.827 21.378 14.059 8.43 9.008 17.629 15.009 27.133 18.506a62.326 62.326 0 0 0 12.606 3.193l-1.398-8.463a205.123 205.123 0 0 1-5.649 2.77 174.14 174.14 0 0 1-6.619 2.949c-7.507 3.15-14.802 5.512-20.84 6.346a8.558 8.558 0 0 1-.634.083c-2.062.204-4.734.08-7.778-.632-4.49-1.05-8.923-3.213-13.12-6.777-3.671-3.12-7.042-7.222-10.03-12.436-5.347-9.328-11.22-14.427-17.594-15.561a15.488 15.488 0 0 0-3.042-.241 59.128 59.128 0 0 1 2.914-3.77c2.476-2.948 5.155-5.55 8.048-7.765a42.336 42.336 0 0 1 7.682-4.7c5.413-2.552 11.443-3.93 18.14-3.93v-9c-16.984 0-30.512 7.406-40.761 19.605-3.542 4.216-6.435 8.717-8.738 13.221a63.059 63.059 0 0 0-2.047 4.394 33.8 33.8 0 0 0-.705 1.805l-11.007 31.725 18.972-27.708c.214-.284.368-.476.548-.687.53-.621 1.148-1.247 1.835-1.823 2.165-1.817 4.382-2.658 6.583-2.266 3.36.598 7.222 3.95 11.364 11.177 3.497 6.102 7.532 11.014 12.012 14.82 5.318 4.517 11.05 7.313 16.895 8.68 4.07.953 7.72 1.121 10.713.826.503-.05.878-.103 1.04-.133 10.56-1.458 23.575-6.667 35.906-12.954l12.615-6.432-14.014-2.03a53.866 53.866 0 0 1-4.813-.924c-10.31-2.472-20.413-8.153-29.646-18.018-9.989-10.674-18.97-15.946-26.933-16.851-3.067-.349-5.802-.02-8.155.807-1.565.55-2.771 1.252-3.504 1.864.99-.825 2.53-.714 3.43.3.898 1.015.82 2.6-.212 3.529.23-.194.747-.525 1.543-.862 1.477-.626 3.257-.958 5.375-.842 6.665.366 14.943 4.933 24.806 15.472 9.145 9.772 19.308 15.766 29.771 18.738a59.728 59.728 0 0 0 8.387 1.744l7.627 1.025-2.847-7.15c-3.868-9.716-9.416-20.119-16.74-29.232-11.022-13.716-24.105-21.82-39.3-21.82v9c12.044 0 22.812 6.67 32.285 18.458 4.73 5.887 8.697 12.454 11.875 18.969a116.199 116.199 0 0 1 3.086 6.882z"/>
        <path fill="#E9E8DD" d="M426.703 49.456c30.515 0 47.644 37.631 51.859 48.217-9.297-1.25-22.838-5.597-35.472-19.097-24.146-25.8-37.443-14.552-37.996-14.06a1.983 1.983 0 0 0-.17 2.823 1.999 1.999 0 0 0 2.823.17c.09-.077 11.145-8.936 32.422 13.8 13.2 14.104 27.167 18.881 37.099 20.32-5.933 3.025-22.07 10.792-34.535 12.514-.033.005-21.267 3.865-36.083-21.982-14.827-25.867-27.947-6.705-27.947-6.705s12.49-36 48-36"/>
        <path fill="#E9E8DE" d="M506.34 91.62a32.924 32.924 0 0 0 5.234-6.851 1 1 0 0 0-1.732-1c-9.26 16.037-26.979 15.769-27.157 15.765a1 1 0 1 0-.051 1.998c.16.005 13.587.207 23.705-9.911M469.597 131.615a.998.998 0 0 1-.912-.59.997.997 0 0 1 .5-1.321 202.788 202.788 0 0 0 16.074-8.145 1 1 0 0 1 .983 1.743 204.95 204.95 0 0 1-16.235 8.224.985.985 0 0 1-.41.089M443.66 141.113a1 1 0 0 1-.271-1.962 185.092 185.092 0 0 0 19.947-6.924 1 1 0 0 1 .761 1.85 187.427 187.427 0 0 1-20.164 6.998.983.983 0 0 1-.273.038M395.754 147.43c-.55 0-.998-.232-1-.784-.002-.551.444-.894.997-.896 7.355-.022 14.755-.453 21.997-1.387a1.013 1.013 0 0 1 1.12.891c.071.548-.316.849-.864.92-7.324.943-14.81 1.256-22.247 1.256h-.003zM378.77 147.105a.957.957 0 0 1-.093-.004c-53.128-4.843-90.15-31.675-90.519-31.945a1 1 0 0 1 1.185-1.612c.363.268 36.966 26.776 89.516 31.565a1 1 0 0 1-.09 1.996M394.41 131.99c-19.752 0-35.514-5.446-35.735-5.524a1.001 1.001 0 0 1-.611-1.275 1.005 1.005 0 0 1 1.276-.612c.307.11 30.965 10.689 60.06 1.986a.999.999 0 1 1 .572 1.916c-8.656 2.59-17.448 3.51-25.562 3.51"/>
        <path fill="#FFF" fill-rule="nonzero" d="M317.453 87.734a3.947 3.947 0 0 1 3.133.923c1.222 1.052 1.795 2.816 1.116 4.521-3.852 9.674-9.378 20.036-16.665 29.104-10.937 13.61-23.891 21.633-38.91 21.633a4 4 0 1 1 0-8c12.218 0 23.115-6.75 32.674-18.644 5.004-6.228 9.155-13.207 12.427-20.085a116.899 116.899 0 0 0 3.041-6.967l4.25 5.444c-2.44.328-4.873.83-7.29 1.523-9 2.577-17.78 7.778-25.795 16.343-11.247 12.018-21.459 17.652-30.547 18.15-3.447.19-6.514-.383-9.155-1.501-1.735-.735-3.034-1.588-3.842-2.307-2.527-2.201-2.738-6.007-.536-8.492a6 6 0 0 1 8.32-.638c.28.157.573.294.936.422 1.16.408 2.605.581 4.375.38 5.732-.652 12.973-4.902 21.687-14.214 8.728-9.325 18.276-15.402 28.131-18.802a61.835 61.835 0 0 1 11.315-2.743l-1.243 7.522a206.654 206.654 0 0 0-4.44-2.196 180.023 180.023 0 0 0-5.632-2.583c-8.322-3.64-16.522-6.415-23.246-7.344a7.761 7.761 0 0 0-.602-.077c-2.114-.209-4.84-.084-7.941.642-4.565 1.068-9.07 3.266-13.329 6.883-3.717 3.158-7.124 7.306-10.141 12.568-5.28 9.212-11.041 14.214-17.248 15.319-1.353.24-2.672.292-3.953.176a59.937 59.937 0 0 0 3.53 4.648c8.743 10.407 20.006 16.573 34.254 16.573a4 4 0 1 1 0 8c-16.824 0-30.219-7.333-40.38-19.427-3.515-4.185-6.388-8.654-8.675-13.127a62.56 62.56 0 0 1-2.03-4.358 33.34 33.34 0 0 1-.694-1.777c-1.53-4.408 4.443-7.42 7.08-3.57.069.101.267.363.58.73.547.64 1.184 1.285 1.894 1.88 2.268 1.904 4.623 2.797 6.992 2.375 3.527-.628 7.5-4.077 11.71-11.42 3.469-6.052 7.467-10.92 11.902-14.687 5.256-4.465 10.916-7.225 16.685-8.576 4.013-.938 7.609-1.104 10.55-.814.49.049.854.1.963.122 10.546 1.457 23.522 6.65 35.805 12.913 1.834.935 2.461 2.822 2.077 4.478-.343 1.482-1.497 2.78-3.32 3.044a54.37 54.37 0 0 0-3.896.71c-10.736 2.368-21.268 8.14-30.857 18.384-9.914 10.594-18.793 15.806-26.624 16.697-2.991.34-5.65.02-7.933-.782-1.507-.53-2.661-1.202-3.35-1.777.784.653 2.016.564 2.735-.248.725-.817.654-2.106-.165-2.818.217.193.79.569 1.676.944 1.545.654 3.4 1 5.597.88 6.808-.373 15.2-5.003 25.144-15.629 9.458-10.107 20.006-16.14 30.842-18.952a59.246 59.246 0 0 1 7.018-1.376z"/>
        <path fill="#00835E" d="M226.477 106.89c3.501.842 7.79.121 12.451-4.494-17.794-1.286-18.129-14.433-18.129-14.433-.399.555-.755 1.1-1.075 1.631-3.989 6.638-.776 15.483 6.753 17.295"/>
        <path fill="#00CC92" d="M266.127 139.915c30.515 0 47.644-37.63 51.859-48.217-9.297 1.25-22.838 5.597-35.472 19.097-24.146 25.801-37.443 14.552-37.996 14.06a1.983 1.983 0 0 1-.17-2.823 1.999 1.999 0 0 1 2.823-.169c.09.076 11.145 8.935 32.422-13.8 13.2-14.105 27.167-18.882 37.099-20.32-5.933-3.026-22.07-10.793-34.535-12.515-.033-.005-21.267-3.865-36.083 21.982-14.827 25.867-27.947 6.705-27.947 6.705s12.49 36 48 36"/>
        <path fill="#00835E" d="M317.106 85.913a1 1 0 0 1-.564 1.697c-9.385 1.36-23.337 5.937-36.511 20.014-9 9.616-17.334 14.92-24.774 15.766-5.888.669-8.895-1.776-9.02-1.881a1.016 1.016 0 0 0-.745-.27 1.001 1.001 0 0 0-.688.335 1 1 0 0 1-1.412.086c-.392-.375-.452-1-.085-1.412a2.98 2.98 0 0 1 2.064-1.005 2.975 2.975 0 0 1 2.17.75c.07.055 10.666 8.023 31.03-13.735 12.22-13.06 25.124-18.186 34.654-20.103-7.346-3.592-20.793-9.58-31.499-11.06-.88-.15-20.882-3.274-35.077 21.492a1 1 0 1 1-1.736-.995c14.883-25.966 36.214-22.627 37.116-22.472 12.488 1.725 28.514 9.393 34.824 12.609.096.049.18.11.252.184"/>
        <path fill="#756B5E" d="M345.763 97.75a32.924 32.924 0 0 1 5.235 6.853 1 1 0 0 1-1.732 1c-9.26-16.037-26.979-15.77-27.157-15.765a1 1 0 1 1-.051-1.998c.16-.005 13.587-.207 23.705 9.91"/>
    </g>
</svg>
