<svg xmlns="http://www.w3.org/2000/svg" width="250" height="320" viewBox="0 0 250 320">
    <g fill="none" fill-rule="evenodd">
        <path fill="#CDCABA" d="M125 320s124-41.63 124-160S125 0 125 0 1 41.63 1 160s124 160 124 160z"/>
        <path stroke="#756B5E" stroke-linecap="round" stroke-linejoin="round" stroke-width="2" d="M178.81 139.85l59.19-6.71M10.5 160l12.34-1.48"/>
        <path fill="#FAFAF5" d="M185 164.5l-142 20L3 78l142-10z"/>
        <path stroke="#756B5E" stroke-linecap="round" stroke-linejoin="round" stroke-width="2" d="M19.67 114.07L45 181.5l142-20L147 65M12.07 93.82L5 75l142-10M17.95 109.49l-4.21-11.23"/>
        <path stroke="#756B5E" stroke-linecap="round" stroke-linejoin="round" stroke-width="2" d="M1 81l40 106.5 92.7 48.72a16 16 0 0 0 11.12 1.41L249 213M187.61 162.19L241 181.5"/>
        <path fill="#FAFAF5" d="M61.25 292.27l161.31-40.6-13.18 12.79L81.94 298.5z"/>
        <path stroke="#756B5E" stroke-linecap="round" stroke-linejoin="round" stroke-width="2" d="M40.5 298l163.24-41.54"/>
        <path fill="#FAFAF5" d="M214 106.51c-11.09 0-20 1.92-20 4.29l1 41.62c0 2.37 6.5 7.29 19 7.29 13.13 0 19-4.92 19-7.29l1-41.62c0-2.37-8.91-4.29-20-4.29z"/>
        <path stroke="#756B5E" stroke-linecap="round" stroke-linejoin="round" stroke-width="2" d="M230 112.51c0 1.52-7.13 2.74-15.91 2.74-8.78 0-15.91-1.23-15.91-2.74 0-1.14 4-2.11 9.7-2.53"/>
        <path fill="#756B5E" fill-rule="nonzero" d="M203.66 132.65c1.35 0 1.86 1.78 1.86 1.78s.68 2.08 2.06 2.08a1.29 1.29 0 0 0 1.32-1.22v-.17a.61.61 0 0 0-.36-.65 2.45 2.45 0 0 1-1.07-.75c-.86-1-.4-2.29.61-3.18a6.72 6.72 0 0 0-1.62-1.45 1.86 1.86 0 0 0-2.19.43l-.24.33-.24.36-.2.32v.07c-.14.24-.273.487-.4.74v.07l-.17.36-.17.38v.07l-.12.31v.08l-.14.39V133.15a1.7 1.7 0 0 1 1.07-.5z"/>
        <path fill="#756B5E" fill-rule="nonzero" d="M206.61 128.6a6.52 6.52 0 0 1 2.11 1.48l.22-.12a4.18 4.18 0 0 1 1-.36 5.22 5.22 0 0 1-.66-2.46 2 2 0 0 1 1.84-1.62 1.74 1.74 0 0 0-1.41 1.72 6 6 0 0 0 1 2.26 2.24 2.24 0 0 1 2.12 1.07c.035.071.065.145.09.22a.69.69 0 0 0 .31.32c.49.16 1 .34 1.57.56a20 20 0 0 1 2.28 1.08.12.12 0 0 0 .14-.19c-3.66-3.52-1.08-4.89-1.08-4.89-1.32 1.91.89 3.3 3.43 4.73 2.24 1.26 3.82 2.62 5.55 1.7.86-.46.26-1.47-.13-2a7.23 7.23 0 0 1-.75-1.24 1.4 1.4 0 0 1-.11-.89 2 2 0 0 0-.37-1.41 4.74 4.74 0 0 0-1-1 2.85 2.85 0 0 1-.57-.59c-1.2-1.7-4.33-2.41-4.33-2.41a13.13 13.13 0 0 0-8.82 1 13.1 13.1 0 0 0-2.6 1.71l-.1.08c-.193.167-.38.337-.56.51l-.31.31c-.2.207-.393.42-.58.64l-.05.06a1.81 1.81 0 0 1 1.77-.27zm14.74.13a1 1 0 1 1 .41 1 1 1 0 0 1-.4-1h-.01zM208.9 138.54c0-.27 0-.54-.06-.85a2.48 2.48 0 0 1-1 .2c-2.56 0-2.62-2.53-3.53-3.92-.91-1.39-2.26.12-2.39 1V137.87a13.07 13.07 0 0 0 5.78 10.22 5.38 5.38 0 0 1-1.71-3.84 5.81 5.81 0 0 1 2.56-4.63c.289-.28.42-.684.35-1.08z"/>
        <path fill="#756B5E" fill-rule="nonzero" d="M219 147a8 8 0 0 1-2.46.6h-.45a6.22 6.22 0 0 1-5.48-3.4l-.22-.36a2.23 2.23 0 0 0-.39 1.25c0 1.87 2.24 3.56 4.93 3.56a7.86 7.86 0 0 0 2.14-.27 6.34 6.34 0 0 1-2.94.75c-3.08 0-5.66-2-5.66-4.47a4.23 4.23 0 0 1 .77-2.37 1.11 1.11 0 0 0 .15-1 4.14 4.14 0 0 0-2.29 3.58c0 2.31 2.06 4.29 5 5.1l.5.1a5.94 5.94 0 0 0 5.24-1.23A4.72 4.72 0 0 0 219 147z"/>
        <path fill="#756B5E" fill-rule="nonzero" d="M224.75 128.72a11.74 11.74 0 0 1-3.78 17 .85.85 0 0 1 0-.18 3.6 3.6 0 0 1 .59-1.45c1-1.44 1.67-3.63 0-6.47-.94-1.56-2.92-3.77-7-5.39-.56-.22-1.09-.41-1.59-.57l-.21-.06-.42-.12-.39-.11h-.18l-.35-.09-.31-.07H210.45v3.42c0 .24-.027.487-.08.74V137.28c.008.571.045 1.142.11 1.71v.14c.098.776.262 1.542.49 2.29.2.604.437 1.195.71 1.77.12.23.24.46.37.68a5.61 5.61 0 0 0 4.92 3.1h.42a7.48 7.48 0 0 0 2.72-.75c.66-3.29-1.13-8-4.85-11.88a22 22 0 0 0-1.63-1.54 18.76 18.76 0 0 1 2.59 2.19c5.09 5.33 6.68 12.07 3.56 15a4.8 4.8 0 0 1-1.6 1 4.91 4.91 0 0 0 2.07-1.16 4.66 4.66 0 0 0 .51-.57 13.09 13.09 0 0 0 3.99-20.54z"/>
        <path stroke="#756B5E" stroke-linecap="round" stroke-linejoin="round" stroke-width="2" d="M207.86 74s5 6 2.3 11.93a20.32 20.32 0 0 0 0 16.74M216.2 88.24s-3.36 4.05-1.56 8.09a13.77 13.77 0 0 1 0 11.35"/>
        <path fill="#FAFAF5" d="M186.98 217.11l-25.08-10.17 43.6-8.77 25.17 9.47z"/>
        <path stroke="#756B5E" stroke-linecap="round" stroke-linejoin="round" stroke-width="2" d="M232.67 205.64l-43.69 9.47-25.08-10.17 43.6-8.77M110.79 209.6l124.71-24.41M62.51 186.39l124.8-19.4M36.1 96.87l24.4 65.32 100-13.13-23.59-61.24zM136.91 87.82l-1.45-3.25a4 4 0 0 0-4-2.35l-95.31 7.61a2 2 0 0 0-1.71 2.71l.42 1.11"/>
        <path stroke="#756B5E" stroke-linecap="round" stroke-width="2" d="M102.96 102.88l-7.1 41.22M81.38 108.49L67.51 125.5l20.24 14.35M111.6 105.51l17.6 13.14-13.33 18.18"/>
    </g>
</svg>
