<svg width="204" height="27" viewBox="0 0 204 27" xmlns="http://www.w3.org/2000/svg"><title>23A1D97E-FDC8-4AE2-93AE-27DC77383522</title><g fill="#FFF" fill-rule="evenodd"><path d="M17.851 0H.001v3.367h6.89v23.018h1.491a2.54 2.54 0 0 0 2.54-2.539V3.367h6.93V0zM29.321 19.77c0 1.122-.359 2.03-1.077 2.72-.718.693-1.702 1.038-2.955 1.038-1.096 0-1.932-.26-2.506-.784-.574-.521-.86-1.238-.86-2.152 0-.887.371-1.618 1.115-2.192.744-.574 1.846-.861 3.308-.861h2.975v2.23zM25.445 6.224c-2.53 0-4.567.444-6.107 1.332v3.718c1.723-1.173 3.641-1.761 5.755-1.761 1.513 0 2.597.347 3.25 1.037.651.692.978 1.716.978 3.073v1.136h-3.288c-2.584 0-4.594.528-6.029 1.585-1.436 1.057-2.153 2.538-2.153 4.444 0 1.67.567 3.046 1.703 4.13 1.135 1.082 2.642 1.625 4.521 1.625 2.558 0 4.346-.835 5.363-2.506v2.349h1.258a2.54 2.54 0 0 0 2.54-2.54V13.78c0-5.037-2.597-7.555-7.79-7.555zM70.65 21.531c-.928 1.305-2.278 1.957-4.053 1.957-1.67 0-2.988-.67-3.954-2.016-.965-1.344-1.448-2.995-1.448-4.952 0-1.983.47-3.647 1.41-4.99.94-1.345 2.256-2.017 3.953-2.017 1.88 0 3.262.66 4.15 1.977.887 1.318 1.331 3.008 1.331 5.07 0 2.01-.464 3.666-1.39 4.971M66.597 6.263c-2.818 0-5.089.986-6.81 2.956-1.724 1.971-2.585 4.443-2.585 7.42 0 2.922.835 5.336 2.505 7.241 1.67 1.905 3.967 2.858 6.89 2.858 2.95 0 5.266-.966 6.95-2.897 1.682-1.93 2.524-4.385 2.524-7.36 0-2.975-.822-5.422-2.466-7.34-1.645-1.918-3.98-2.878-7.008-2.878M91.457 6.264c-2.95 0-5.01 1.227-6.185 3.68v-.866a2.54 2.54 0 0 0-2.54-2.54h-1.297v19.848h1.297a2.54 2.54 0 0 0 2.54-2.54V15.62c0-1.905.482-3.386 1.448-4.443.965-1.057 2.127-1.585 3.484-1.585 1.148 0 2.068.365 2.76 1.096.691.73 1.038 1.788 1.038 3.17v9.988a2.54 2.54 0 0 0 2.54 2.54h1.296V12.958c0-2.061-.574-3.692-1.722-4.893-1.149-1.2-2.702-1.801-4.659-1.801M147.561 21.531c-.927 1.305-2.277 1.957-4.052 1.957-1.67 0-2.988-.67-3.954-2.016-.965-1.344-1.448-2.995-1.448-4.952 0-1.983.47-3.647 1.409-4.99.94-1.345 2.257-2.017 3.954-2.017 1.879 0 3.262.66 4.15 1.977.887 1.318 1.331 3.008 1.331 5.07 0 2.01-.464 3.666-1.39 4.971m-4.052-15.268c-2.818 0-5.089.986-6.811 2.956-1.723 1.971-2.584 4.443-2.584 7.42 0 2.922.835 5.336 2.505 7.241 1.67 1.905 3.967 2.858 6.89 2.858 2.949 0 5.266-.966 6.949-2.897 1.683-1.93 2.525-4.385 2.525-7.36 0-2.975-.822-5.422-2.466-7.34-1.645-1.918-3.981-2.878-7.008-2.878M161.655 10.022v-.945a2.54 2.54 0 0 0-2.54-2.54h-1.296v19.849h1.296a2.54 2.54 0 0 0 2.54-2.54v-8.03c0-1.618.43-3.015 1.292-4.19.86-1.173 1.957-1.761 3.288-1.761.679 0 1.292.118 1.84.353V6.342h-1.213c-2.506 0-4.242 1.227-5.207 3.68M201.86 17.534c-.875-.848-2.082-1.611-3.62-2.29-.132-.052-.36-.15-.686-.294a15.266 15.266 0 0 1-.685-.313 40.488 40.488 0 0 0-.607-.293 3.39 3.39 0 0 1-.587-.333 6.38 6.38 0 0 0-.49-.333 1.708 1.708 0 0 1-.45-.372 4.509 4.509 0 0 1-.293-.43 1.687 1.687 0 0 1-.216-.509 2.356 2.356 0 0 1-.058-.529c0-.678.267-1.226.802-1.644.535-.417 1.26-.626 2.173-.626 2.01 0 3.653.378 4.932 1.135V7.219c-1.2-.574-2.87-.862-5.01-.862-1.958 0-3.589.497-4.894 1.488-1.305.992-1.957 2.362-1.957 4.11 0 2.48 1.552 4.359 4.658 5.638 1.096.47 1.873.816 2.33 1.037.456.222.906.562 1.35 1.018.443.457.666.973.666 1.546 0 .679-.28 1.227-.842 1.645-.562.417-1.35.626-2.369.626-1.957 0-3.849-.561-5.676-1.683v3.64c1.566.783 3.523 1.175 5.872 1.175 2.14 0 3.837-.503 5.09-1.508 1.252-1.004 1.878-2.394 1.878-4.169 0-1.409-.437-2.538-1.31-3.386M52.458 6.498a3.386 3.386 0 0 0-2.797 1.478l-3.604 5.282-3.604-5.281a3.383 3.383 0 0 0-2.797-1.479H37.1l6.784 9.944-6.784 9.944h2.556c1.12 0 2.167-.553 2.797-1.479l3.604-5.28 3.604 5.28a3.386 3.386 0 0 0 2.797 1.479h2.557l-6.785-9.944 6.785-9.944h-2.557zM184.5 6.498a3.386 3.386 0 0 0-2.798 1.478l-5.67 8.31V2.54a2.54 2.54 0 0 0-2.54-2.538h-1.323v26.385h1.323a2.54 2.54 0 0 0 2.54-2.54v-7.25l5.67 8.311a3.386 3.386 0 0 0 2.797 1.479h2.557l-6.785-9.944 6.785-9.944H184.5zM128.416 1.897l-4.444 16.991-4.444-16.991A2.54 2.54 0 0 0 117.07 0h-.001a2.54 2.54 0 0 0-2.457 1.897l-4.444 16.991-4.444-16.991A2.54 2.54 0 0 0 103.268 0h-1.961l6.9 26.385h1.962a2.539 2.539 0 0 0 2.457-1.897l4.444-16.99 4.445 16.99a2.538 2.538 0 0 0 2.457 1.897h1.96L132.835 0h-1.961a2.54 2.54 0 0 0-2.457 1.897"/></g></svg>