<svg xmlns="http://www.w3.org/2000/svg" width="250" height="320" viewBox="0 0 250 320">
    <g fill="none" fill-rule="evenodd" transform="translate(1)">
        <path fill="#FAFAF5" d="M124 320s124-41.63 124-160S124 0 124 0 0 41.63 0 160s124 160 124 160z"/>
        <path fill="#00CC92" fill-rule="nonzero" d="M130.49 172a32 32 0 0 0-9.54 1.37c-.58 22.87-6.34 40.89-13.88 52.9 5.87 15.92 16.4 29.36 23.42 29.36 6.21 0 15.18-10.53 21.22-24-9.47-11.83-17.24-32.29-17.71-59.47-1.15-.06-2.32-.16-3.51-.16z"/>
        <path stroke="#00CC92" stroke-linecap="round" stroke-width="2" d="M210 244V79.86a19.59 19.59 0 0 0-15-19.15"/>
        <path stroke="#00835E" stroke-linecap="round" stroke-width="2" d="M53 60.83a19.45 19.45 0 0 0-15 19V294"/>
        <path fill="#00CC92" d="M56 39v21.19c0 11.43 32 20.7 71 20.7s71-9.27 71-20.7V39H56z"/>
        <path stroke="#00835E" stroke-width="2" d="M53 39v21.19c0 11.43 32 20.7 71 20.7s71-9.27 71-20.7V39H53z"/>
        <path fill="#00835E" stroke="#00835E" stroke-linecap="round" stroke-width="2" d="M210 118.12c0-4.8-4.65-9.29-12.7-13.1v26.19h12.6l.1-13.09z"/>
        <ellipse cx="124" cy="39.15" fill="#FAFAF5" fill-rule="nonzero" stroke="#00835E" stroke-width="2" rx="71" ry="20.7"/>
        <path stroke="#00CC92" stroke-linecap="round" stroke-width="2" d="M176.35 276.47c3.09.69 6 1.45 8.75 2.26 2.75.81 5.16 1.63 7.45 2.51M168.33 274.88c1.193.213 2.37.433 3.53.66M124 271.29a267.24 267.24 0 0 1 39.46 2.79M82.83 274.35c6.73-1.07 14-1.89 21.67-2.41M66.32 277.77c3.39-.9 7-1.71 10.87-2.44"/>
        <path fill="#00CC92" d="M213 116.12c0 7.31-10.75 13.88-27.9 18.45v74.78c17.15-4.57 27.9-11.14 27.9-18.45v-74.78z"/>
        <path stroke="#00835E" stroke-linecap="round" stroke-width="2" d="M210 118.12c0 7.31-10.75 13.88-27.9 18.45v74.78c17.15-4.57 27.9-11.14 27.9-18.45v-74.78zM57 93.4c-11.76-4.28-18.9-9.72-18.9-15.63M82.74 99.71c-4.08-.65-8-1.4-11.61-2.23M124 102.79a274.12 274.12 0 0 1-34-2"/>
        <path stroke="#00CC92" stroke-linecap="round" stroke-width="2" d="M192.27 92.93a118.17 118.17 0 0 1-16.62 4.82M209.89 77.78c0 2.73-1.6 5.36-4.38 7.82a31.6 31.6 0 0 1-5.88 4"/>
        <path stroke="#00835E" stroke-linecap="round" stroke-linejoin="round" stroke-width="2" d="M113 147.83c0-7.05 6.46-12.77 14.43-12.77s14.43 5.72 14.43 12.77M182.1 201.41c-10.62-23.4-36.82-42.54-36.82-42.54a21.49 21.49 0 0 0-17.8-9.87 21.49 21.49 0 0 0-17.8 9.87S60 195.17 69.75 228.92 121 234.63 121 169.63c0 0 .26-7.88-6.12-9.63"/>
        <path stroke="#00835E" stroke-linecap="round" stroke-linejoin="round" stroke-width="2" d="M140.09 160c-6.37 1.75-6.12 9.63-6.12 9.63 0 65 41.5 93 51.25 59.29a33.22 33.22 0 0 0 1.13-12.17M121 172.62a35.38 35.38 0 0 1 13 0M147.2 234.68c-6 12-14.07 21-19.81 21-5.74 0-13.79-8.94-19.76-20.87M118.21 136.87l-12.38-14.46M134.73 136.87l12.39-14.46M93.11 240.75c1.08 3 3.46 6.13 7.69 9.25M161.81 240.75c-1.08 3-3.46 6.13-7.69 9.25M152.28 164.59c5.06-6.27 7.59-14.91-4.16-23.59M102.63 164.59c-5.06-6.27-7.63-14.91 4.17-23.59"/>
        <path stroke="#00CC92" stroke-linecap="round" stroke-linejoin="round" stroke-width="2" d="M111.34 167.14s-26.41 27.59-26.93 59.66M96.89 186.91s-2.77 6.93 6.76 12.71M88.47 205s-4.09 8.75-11.28 7.73M142.19 167.14s26.42 27.59 26.93 59.66M156.64 186.91s2.77 6.93-6.76 12.71M165.06 205s4.09 8.75 11.28 7.73"/>
        <path stroke="#00835E" stroke-linecap="round" stroke-width="2" d="M0 126h38"/>
        <path stroke="#00CC92" stroke-linecap="round" stroke-width="2" d="M44 126h9M58 126h3"/>
        <path stroke="#00835E" stroke-linecap="round" stroke-width="2" d="M221 126h27"/>
    </g>
</svg>
