<svg xmlns="http://www.w3.org/2000/svg" width="248" height="320" viewBox="0 0 248 320">
    <g fill="none" fill-rule="evenodd">
        <path fill="#00835E" d="M124 320s124-41.63 124-160S124 0 124 0 0 41.63 0 160s124 160 124 160z"/>
        <path fill="#00CC92" fill-rule="nonzero" d="M32.99 258.28l2.09 11.85 89.66-78.63-12.49-2.14z"/>
        <path stroke="#00CC92" stroke-linecap="round" stroke-width="2" d="M100.27 173.13c-14.26 2.193-27.963 4.627-41.11 7.3"/>
        <path fill="#00835E" fill-rule="nonzero" d="M122.24 204.88c3.75 9.74 11.55 20.87 29.06 29.3 30.21 14.55 55.76 23.39 53.19 44.72-2.57 21.33 19.66 16.66 19.66 16.66S248 291.77 248 266.34c0-19.58-5.8-37.58-22.24-56.46-16-18.42 15.53-52.26 8-71.8"/>
        <path stroke="#00CC92" stroke-linecap="round" stroke-width="2" d="M226.2 210.58c-15.73-18.35 15.22-52 7.83-71.49"/>
        <path stroke="#FAFAF5" stroke-linecap="round" stroke-width="2" d="M124.74 205.6c3.68 9.69 11.32 20.78 28.48 29.18 29.61 14.49 54.66 23.29 52.13 44.53-2.53 21.24 19.27 16.59 19.27 16.59"/>
        <path stroke="#FAFAF5" stroke-linecap="round" stroke-width="2" d="M151.73 212.2a51 51 0 0 0 19.72 20.57c24.13 14.49 44.53 23.29 42.47 44.53a24.83 24.83 0 0 0 .45 8.6"/>
        <path fill="#00CC92" stroke="#FAFAF5" stroke-linecap="round" stroke-width="2" d="M121.42 194.61c14.49 4.33 38.44-.65 61.82-14.15C215 162.12 233.69 135 225 119.92c-8.69-15.08-41.53-12.47-73.29 5.87-31.76 18.34-50.47 45.44-41.71 60.53a15.47 15.47 0 0 0 2.3 3"/>
        <ellipse cx="167.627" cy="153.791" fill="#00835E" fill-rule="nonzero" rx="52.25" ry="22.1" transform="rotate(-30 167.627 153.791)"/>
        <path stroke="#FAFAF5" stroke-linecap="round" stroke-width="2" d="M128 152.18c-8.33 9.51-11.86 18.68-8.4 24.67 6.13 10.62 31.91 7.22 57.57-7.6s41.5-35.44 35.37-46.06c-6.13-10.62-31.93-7.19-57.54 7.6M19.33 270.13l95.43-83a5 5 0 0 1 7.15.51"/>
        <path stroke="#FFF" stroke-linecap="round" stroke-linejoin="round" stroke-width="2" d="M59.18 61.84c1.16-2.53 4.42-3.51 7.27-2.2 2.85 1.31 4.23 4.42 3.07 6.95"/>
        <path stroke="#00CC92" stroke-linecap="round" stroke-linejoin="round" stroke-width="2" d="M65.71 87.11s11 15.05-4 18.18"/>
        <path fill="#00835E" stroke="#FFF" stroke-linecap="round" stroke-linejoin="round" stroke-width="2" d="M69.83 86.68a16 16 0 0 0 4.83 5.64C81 96.25 84.24 90 84.24 90c6.84 2.92 15.58.22 13.87-7.52C96.4 74.74 68.59 71.9 68.59 71.9A8.35 8.35 0 0 0 55.84 66S35.58 46.75 28.59 50.49c-6.99 3.74-3.35 12.15 3.32 15.44 0 0-2.66 6.52 4.47 8.79a16 16 0 0 0 7.42 0"/>
        <path fill="#00CC92" d="M66.67 90.75c-3.8 8.27-14.76 15.5-18.4 13.83-3.64-1.67-5.29-14.7-1.49-23s9.77-9.52 15.26-7c5.49 2.52 8.43 7.89 4.63 16.17z"/>
        <path stroke="#FFF" stroke-linecap="round" stroke-linejoin="round" stroke-width="2" d="M64.67 89.75c-3.8 8.27-14.76 15.5-18.4 13.83-3.64-1.67-5.29-14.7-1.49-23s9.77-9.52 15.26-7c5.49 2.52 8.43 7.89 4.63 16.17zM62.87 58.78l-2.06-7.22M68.79 61.5l6.82-3.14M46.12 78.1S27.52 79.54 34.94 93"/>
        <path stroke="#00CC92" stroke-linecap="round" stroke-width="2" d="M136.39 107.13a88.51 88.51 0 0 1-9.29-12.18c4.69 1.33 9.51-1.21 3.39-7.88a91.64 91.64 0 0 1-9.77-14c3.26.84 6.38-1.24 2.11-6.43-6.8-8.29-16.48-31.14-16.48-31.14-1.36-3.81-5.8-3.33-7 0 0 0-6.39 13.51-8.05 15.51"/>
        <path stroke="#00CC92" stroke-linecap="round" stroke-width="2" d="M153.94 87.7a60.24 60.24 0 0 1-6.33-8.29c3.19.9 6.48-.82 2.31-5.37a62.37 62.37 0 0 1-6.65-9.53c2.22.57 4.34-.85 1.44-4.38-4.63-5.64-11.22-21.19-11.22-21.19a2.46 2.46 0 0 0-4.75 0l-10.22 19.41"/>
        <path fill="#00CC92" fill-rule="nonzero" d="M8.47 148.65c-5.14 36.5 15.33 82.24 26.24 82.55 10.91.31 8.76-9.06 15-8.62 6.24.44 9.89-10.45 9.89-10.45 5.64.2 11.61-4.26 3.84-12.3A99.2 99.2 0 0 1 53 186.19c5.26 1.49 10.66-1.36 3.81-8.84-3.4-3.71-7.27-9.52-10.95-15.7 3.66.94 7.15-1.39 2.37-7.21-7.62-9.29-18.47-34.9-18.47-34.9-1.53-4.27-6.5-3.73-7.82 0 0 0-5.51 12.9-9.95 21.72l-3.52 7.39z"/>
        <path stroke="#FAFAF5" stroke-linecap="round" stroke-linejoin="round" stroke-width="2" d="M60.62 212.13c5.64.2 10.61-4.26 2.84-12.3A99.2 99.2 0 0 1 53 186.19c5.26 1.49 10.66-1.36 3.81-8.84-3.4-3.71-7.27-9.52-10.95-15.7 3.66.94 7.15-1.39 2.37-7.21-7.62-9.29-18.47-34.9-18.47-34.9-1.53-4.27-6.5-3.73-7.82 0 0 0-9.08 20.29-13.52 29.11M47.69 222c5.22 2.33 11.5-1.55 7.45-10.2M28.76 230c-.49-.48 17.48 7.33 14.36-11"/>
        <path stroke="#00CC92" stroke-linecap="round" stroke-width="2" d="M205.58 95.32a83.23 83.23 0 0 1-8.87-12.72c3 .76 5.79-1.13 1.92-5.84-6.18-7.53-15-28.28-15-28.28-1.24-3.46-5.27-3-6.33 0 0 0-9.49 21.9-15 28.17-3.16 3.58-1 5.81 1.68 5.93-3.1 5.21-6.29 10-8.87 12.61-4.91 5-.61 7.86 3.67 7.32a68.44 68.44 0 0 1-8.41 10.88"/>
        <circle cx="98.34" cy="115" r="2" fill="#00CC92" fill-rule="nonzero"/>
        <circle cx="74.2" cy="125" r="2" fill="#FAFAF5" fill-rule="nonzero"/>
        <circle cx="86.45" cy="105.29" r="2" fill="#FAFAF5" fill-rule="nonzero"/>
        <circle cx="89.8" cy="140.6" r="2" fill="#00CC92" fill-rule="nonzero"/>
        <circle cx="59.16" cy="130.01" r="2" fill="#00CC92" fill-rule="nonzero"/>
        <circle cx="102.34" cy="134.29" r="2" fill="#FAFAF5" fill-rule="nonzero"/>
        <circle cx="92.01" cy="123" r="2" fill="#FAFAF5" fill-rule="nonzero"/>
        <circle cx="77.44" cy="144.57" r="2" fill="#00CC92" fill-rule="nonzero"/>
        <circle cx="107.21" cy="123" r="2" fill="#00CC92" fill-rule="nonzero"/>
        <circle cx="74.21" cy="157.27" r="2" fill="#FAFAF5" fill-rule="nonzero"/>
        <circle cx="86.46" cy="162.06" r="2" fill="#00CC92" fill-rule="nonzero"/>
    </g>
</svg>
