<?xml version="1.0" encoding="UTF-8" standalone="no"?>
<!-- Generator: Adobe Illustrator 25.4.1, SVG Export Plug-In . SVG Version: 6.00 Build 0)  -->

<svg
   version="1.1"
   id="Layer_1"
   x="0px"
   y="0px"
   viewBox="0 0 300.9 78.2"
   xml:space="preserve"
   sodipodi:docname="inhs-footer-logo.svg"
   style="enable-background:new 0 0 300.9 78.2;"
   inkscape:version="1.1.2 (0a00cf5339, 2022-02-04)"
   xmlns:inkscape="http://www.inkscape.org/namespaces/inkscape"
   xmlns:sodipodi="http://sodipodi.sourceforge.net/DTD/sodipodi-0.dtd"
   xmlns="http://www.w3.org/2000/svg"
   xmlns:svg="http://www.w3.org/2000/svg"><defs
   id="defs233" /><sodipodi:namedview
   id="namedview231"
   pagecolor="#ffffff"
   bordercolor="#666666"
   borderopacity="1.0"
   inkscape:pageshadow="2"
   inkscape:pageopacity="0.0"
   inkscape:pagecheckerboard="true"
   showgrid="false"
   scale-x="1"
   inkscape:zoom="3.7770023"
   inkscape:cx="159.1209"
   inkscape:cy="47.259701"
   inkscape:window-width="2486"
   inkscape:window-height="1376"
   inkscape:window-x="2634"
   inkscape:window-y="27"
   inkscape:window-maximized="1"
   inkscape:current-layer="g144" />
<style
   type="text/css"
   id="style138">
	.st0{fill:#FFFFFF;}
	.st1{fill:#FF552E;}
</style>
<g
   id="g228">
	<g
   id="g146">
		<g
   id="g144">
			<path
   class="st0"
   d="M54.2,21.1V0H0v21.1h12v36.1H0v21.1h54.2V57.2h-12V21.1H54.2z M42.1,60.2h9v15H3v-15h9c1.7,0,3-1.3,3-3V21.1     c0-1.7-1.3-3-3-3H3V3h48.1v15h-9c-1.7,0-3,1.3-3,3v36.1C39.1,58.8,40.5,60.2,42.1,60.2"
   id="path140"
   style="fill:#13294b;fill-opacity:1" />
			<path
   class="st1"
   d="M42.1,18.1h9V3H3v15h9c1.7,0,3,1.3,3,3v36.1c0,1.7-1.3,3-3,3H3v15h48.1v-15h-9c-1.7,0-3-1.3-3-3V21.1     C39.1,19.4,40.5,18.1,42.1,18.1"
   id="path142" />
		</g>
	</g>
	<g
   id="g192"
   style="fill:#13294b;fill-opacity:1">
		<g
   id="g164"
   style="fill:#13294b;fill-opacity:1">
			<path
   class="st0"
   d="M96.6,57.6V25.2h7.1v32.4H96.6z"
   id="path148"
   style="fill:#13294b;fill-opacity:1" />
			<path
   class="st0"
   d="M112.2,57.6V25.2h7.1v25.9h16.2v6.5H112.2z"
   id="path150"
   style="fill:#13294b;fill-opacity:1" />
			<path
   class="st0"
   d="M140.8,57.6V25.2h7.1v25.9h16.2v6.5H140.8z"
   id="path152"
   style="fill:#13294b;fill-opacity:1" />
			<path
   class="st0"
   d="M169.5,57.6V25.2h7.1v32.4H169.5z"
   id="path154"
   style="fill:#13294b;fill-opacity:1" />
			<path
   class="st0"
   d="M207.8,57.6L192.1,37v20.6h-7V25.2h6.6l15.2,20v-20h7v32.4H207.8z"
   id="path156"
   style="fill:#13294b;fill-opacity:1" />
			<path
   class="st0"
   d="M237.8,58.2c-10,0-17.2-7.5-17.2-16.7v-0.1c0-9.2,7.3-16.8,17.3-16.8c10,0,17.2,7.5,17.2,16.7v0.1     C255.1,50.6,247.8,58.2,237.8,58.2z M247.6,41.4c0-5.6-4.1-10.2-9.8-10.2c-5.7,0-9.7,4.5-9.7,10.1v0.1c0,5.6,4.1,10.2,9.8,10.2     C243.7,51.6,247.6,47,247.6,41.4L247.6,41.4z"
   id="path158"
   style="fill:#13294b;fill-opacity:1" />
			<path
   class="st0"
   d="M262,57.6V25.2h7.1v32.4H262z"
   id="path160"
   style="fill:#13294b;fill-opacity:1" />
			<path
   class="st0"
   d="M289,58.1c-4.9,0-9.9-1.7-13.8-5.2l4.2-5.1c2.9,2.4,6,3.9,9.7,3.9c2.9,0,4.7-1.2,4.7-3.1v-0.1     c0-1.8-1.1-2.7-6.5-4.1c-6.5-1.7-10.7-3.5-10.7-9.9v-0.1c0-5.9,4.7-9.8,11.4-9.8c4.7,0,8.8,1.5,12,4.1l-3.7,5.4     c-2.9-2-5.7-3.2-8.4-3.2c-2.7,0-4.2,1.3-4.2,2.8v0.1c0,2.1,1.4,2.8,7,4.3c6.6,1.7,10.3,4.1,10.3,9.7V48     C300.9,54.4,296,58.1,289,58.1z"
   id="path162"
   style="fill:#13294b;fill-opacity:1" />
		</g>
		<g
   id="g190"
   style="fill:#13294b;fill-opacity:1">
			<path
   class="st0"
   d="M101,15.9c-3.4,0-5.5-1.9-5.5-5.6V3.1h2.8v7.2c0,2.1,1,3.1,2.7,3.1c1.7,0,2.7-1,2.7-3V3.1h2.8v7.1     C106.6,14.1,104.4,15.9,101,15.9z"
   id="path166"
   style="fill:#13294b;fill-opacity:1" />
			<path
   class="st0"
   d="M123.4,15.7l-6.1-8v8h-2.7V3.1h2.6l5.9,7.8V3.1h2.7v12.7H123.4z"
   id="path168"
   style="fill:#13294b;fill-opacity:1" />
			<path
   class="st0"
   d="M134,15.7V3.1h2.8v12.7H134z"
   id="path170"
   style="fill:#13294b;fill-opacity:1" />
			<path
   class="st0"
   d="M151.2,15.8h-2.5l-5.1-12.8h3.1L150,12l3.3-8.9h3L151.2,15.8z"
   id="path172"
   style="fill:#13294b;fill-opacity:1" />
			<path
   class="st0"
   d="M163.2,15.7V3.1h9.6v2.5h-6.8v2.6h6v2.5h-6v2.7h6.9v2.5H163.2z"
   id="path174"
   style="fill:#13294b;fill-opacity:1" />
			<path
   class="st0"
   d="M188.1,15.7l-2.7-4.1h-2.2v4.1h-2.8V3.1h5.8c3,0,4.8,1.6,4.8,4.2v0c0,2-1.1,3.3-2.7,3.9l3.1,4.5H188.1z      M188.2,7.4c0-1.2-0.8-1.8-2.2-1.8h-2.8v3.6h2.8C187.4,9.2,188.2,8.5,188.2,7.4L188.2,7.4z"
   id="path176"
   style="fill:#13294b;fill-opacity:1" />
			<path
   class="st0"
   d="M203,15.9c-1.9,0-3.9-0.7-5.4-2l1.6-2c1.1,0.9,2.3,1.5,3.8,1.5c1.1,0,1.8-0.5,1.8-1.2v0     c0-0.7-0.4-1.1-2.6-1.6c-2.6-0.7-4.2-1.4-4.2-3.9v0c0-2.3,1.8-3.8,4.4-3.8c1.8,0,3.4,0.6,4.7,1.6l-1.4,2.1     c-1.1-0.8-2.2-1.2-3.3-1.2c-1.1,0-1.6,0.5-1.6,1.1v0c0,0.8,0.5,1.1,2.7,1.7c2.6,0.7,4,1.6,4,3.8v0     C207.6,14.5,205.7,15.9,203,15.9z"
   id="path178"
   style="fill:#13294b;fill-opacity:1" />
			<path
   class="st0"
   d="M215.1,15.7V3.1h2.8v12.7H215.1z"
   id="path180"
   style="fill:#13294b;fill-opacity:1" />
			<path
   class="st0"
   d="M231.5,5.7v10.1h-2.8V5.7h-3.9V3.1h10.5v2.6H231.5z"
   id="path182"
   style="fill:#13294b;fill-opacity:1" />
			<path
   class="st0"
   d="M249.3,10.7v5h-2.8v-5l-4.9-7.7h3.3l3,5.1l3.1-5.1h3.2L249.3,10.7z"
   id="path184"
   style="fill:#13294b;fill-opacity:1" />
			<path
   class="st0"
   d="M276.9,16c-3.9,0-6.7-2.9-6.7-6.5v0c0-3.6,2.8-6.5,6.7-6.5s6.7,2.9,6.7,6.5v0C283.6,13,280.8,16,276.9,16z      M280.7,9.4c0-2.2-1.6-4-3.8-4c-2.2,0-3.8,1.8-3.8,3.9v0c0,2.2,1.6,4,3.8,4C279.1,13.4,280.7,11.6,280.7,9.4L280.7,9.4z"
   id="path186"
   style="fill:#13294b;fill-opacity:1" />
			<path
   class="st0"
   d="M293.9,5.6v2.7h6v2.5h-6v4.9h-2.8V3.1h9.6v2.5H293.9z"
   id="path188"
   style="fill:#13294b;fill-opacity:1" />
		</g>
	</g>
	<g
   id="g226"
   style="fill:#13294b;fill-opacity:1">
		<path
   class="st0"
   d="M96.6,71.7V67h1.8v4.6c0,1.3,0.7,2,1.8,2c1.1,0,1.8-0.7,1.8-2V67h1.8v4.6c0,2.5-1.4,3.7-3.6,3.7    C97.9,75.3,96.6,74.1,96.6,71.7z"
   id="path194"
   style="fill:#13294b;fill-opacity:1" />
		<path
   class="st0"
   d="M110.4,67h3.7c1,0,1.8,0.3,2.4,0.8c0.5,0.5,0.7,1.1,0.7,1.9v0c0,1.3-0.7,2.1-1.8,2.5l2,2.9h-2.1l-1.8-2.6    h-1.4v2.6h-1.8V67z M114,71c0.9,0,1.4-0.5,1.4-1.2v0c0-0.8-0.5-1.2-1.4-1.2h-1.8V71H114z"
   id="path196"
   style="fill:#13294b;fill-opacity:1" />
		<path
   class="st0"
   d="M123.7,67h3.8c0.9,0,1.7,0.3,2.1,0.7c0.4,0.4,0.6,0.8,0.6,1.4v0c0,0.9-0.5,1.4-1.1,1.8c0.9,0.4,1.5,0.9,1.5,2    v0c0,1.5-1.2,2.2-3.1,2.2h-3.9V67z M128.4,69.5c0-0.5-0.4-0.8-1.2-0.8h-1.8v1.7h1.7C127.9,70.3,128.4,70.1,128.4,69.5L128.4,69.5z     M127.5,71.8h-2.1v1.8h2.1c0.8,0,1.3-0.3,1.3-0.9v0C128.9,72.2,128.5,71.8,127.5,71.8z"
   id="path198"
   style="fill:#13294b;fill-opacity:1" />
		<path
   class="st0"
   d="M139.8,67h1.7l3.5,8.2h-1.9l-0.7-1.8h-3.5l-0.7,1.8h-1.8L139.8,67z M141.7,71.8l-1.1-2.7l-1.1,2.7H141.7z"
   id="path200"
   style="fill:#13294b;fill-opacity:1" />
		<path
   class="st0"
   d="M151.1,67h1.7l3.8,5v-5h1.8v8.2h-1.5l-4-5.2v5.2h-1.8V67z"
   id="path202"
   style="fill:#13294b;fill-opacity:1" />
		<path
   class="st0"
   d="M167.9,67h1.7l3.5,8.2h-1.9l-0.7-1.8H167l-0.7,1.8h-1.8L167.9,67z M169.8,71.8l-1.1-2.7l-1.1,2.7H169.8z"
   id="path204"
   style="fill:#13294b;fill-opacity:1" />
		<path
   class="st0"
   d="M178.6,70.7h3.6v1.7h-3.6V70.7z"
   id="path206"
   style="fill:#13294b;fill-opacity:1" />
		<path
   class="st0"
   d="M187.8,71.1L187.8,71.1c0-2.3,1.8-4.2,4.3-4.2c1.5,0,2.5,0.5,3.2,1.3l-1.1,1.3c-0.6-0.6-1.3-0.9-2.1-0.9    c-1.4,0-2.4,1.1-2.4,2.5v0c0,1.4,1,2.6,2.4,2.6c0.9,0,1.5-0.4,2.1-1l1.1,1.2c-0.8,0.9-1.8,1.5-3.4,1.5    C189.6,75.3,187.8,73.5,187.8,71.1z"
   id="path208"
   style="fill:#13294b;fill-opacity:1" />
		<path
   class="st0"
   d="M201.6,67h1.8v3.2h3.3V67h1.8v8.2h-1.8v-3.3h-3.3v3.3h-1.8V67z"
   id="path210"
   style="fill:#13294b;fill-opacity:1" />
		<path
   class="st0"
   d="M218.1,67h1.7l3.5,8.2h-1.9l-0.7-1.8h-3.5l-0.7,1.8h-1.8L218.1,67z M220,71.8l-1.1-2.7l-1.1,2.7H220z"
   id="path212"
   style="fill:#13294b;fill-opacity:1" />
		<path
   class="st0"
   d="M229.4,67h1.9l2.1,3.5l2.1-3.5h1.9v8.2h-1.8v-5.3l-2.3,3.5h0l-2.3-3.5v5.3h-1.8V67z"
   id="path214"
   style="fill:#13294b;fill-opacity:1" />
		<path
   class="st0"
   d="M244.4,67h3.3c1.9,0,3.1,1.2,3.1,2.8v0c0,1.9-1.5,2.9-3.3,2.9h-1.4v2.5h-1.8V67z M247.6,71.2    c0.9,0,1.4-0.5,1.4-1.2v0c0-0.8-0.6-1.2-1.5-1.2h-1.4v2.5H247.6z"
   id="path216"
   style="fill:#13294b;fill-opacity:1" />
		<path
   class="st0"
   d="M259,67h1.7l3.5,8.2h-1.9l-0.7-1.8h-3.5l-0.7,1.8h-1.8L259,67z M260.9,71.8l-1.1-2.7l-1.1,2.7H260.9z"
   id="path218"
   style="fill:#13294b;fill-opacity:1" />
		<path
   class="st0"
   d="M270.4,67h1.8v8.2h-1.8V67z"
   id="path220"
   style="fill:#13294b;fill-opacity:1" />
		<path
   class="st0"
   d="M278.7,71.1L278.7,71.1c0-2.3,1.8-4.2,4.3-4.2c1.5,0,2.4,0.4,3.2,1.1l-1.1,1.4c-0.6-0.5-1.2-0.8-2.1-0.8    c-1.3,0-2.3,1.2-2.3,2.5v0c0,1.5,1,2.6,2.5,2.6c0.7,0,1.2-0.2,1.7-0.5v-1.2H283v-1.6h3.5v3.5c-0.8,0.7-2,1.3-3.5,1.3    C280.5,75.3,278.7,73.6,278.7,71.1z"
   id="path222"
   style="fill:#13294b;fill-opacity:1" />
		<path
   class="st0"
   d="M293.1,67h1.7l3.8,5v-5h1.8v8.2h-1.5l-4-5.2v5.2h-1.8V67z"
   id="path224"
   style="fill:#13294b;fill-opacity:1" />
	</g>
</g>
</svg>
