<svg xmlns="http://www.w3.org/2000/svg" xmlns:xlink="http://www.w3.org/1999/xlink" width="336" height="77" viewBox="0 0 336 77">
    <defs>
        <path id="a" d="M76.679 76.09H.064V0H76.679z"/>
        <path id="c" d="M17.442 10.571H.042V.051h17.4v10.52z"/>
        <path id="e" d="M.617 10.571h20.045V.023H.617V10.57z"/>
        <path id="g" d="M19.261 10.571H.088V.051h19.173z"/>
        <path id="i" d="M19.258 10.513H.054V.14h19.204z"/>
    </defs>
    <g fill="none" fill-rule="evenodd">
        <g>
            <mask id="b" fill="#fff">
                <use xlink:href="#a"/>
            </mask>
            <path fill="#C6D633" d="M39.732 17.307H76.68V0H39.732z" mask="url(#b)"/>
            <path fill="#6CB744" d="M59.252 76.09h17.427V20.076H59.252z" mask="url(#b)"/>
            <path fill="#DAE7AF" d="M21.666 17.307h15.279V2.131L21.666 17.307" mask="url(#b)"/>
            <path fill="#86B740" d="M35.151 0H0v34.906L35.151 0" mask="url(#b)"/>
            <path fill="#054A27" d="M35.051 39.388H0v34.81l35.051-34.81" mask="url(#b)"/>
            <path fill="#50953F" d="M1.973 76.154h54.49V22.04L1.974 76.154" mask="url(#b)"/>
        </g>
        <path fill="#B6D58A" d="M14.934 20.076L2.733 32.191l12.2-12.115M18.877 20.076L2.217 36.618h35.622L54.5 20.076H18.878"/>
        <path fill="#1A1918" d="M90.474 31.8h2.56V17.337h-2.56zM97.754 17.337h2.557v12.146h7.655v2.315H97.754V17.337M111.46 17.337h2.559v12.146h7.654v2.315h-10.214V17.337M125.309 31.798h2.558V17.337h-2.558zM132.59 17.337h2.369l7.801 10.001V17.337h2.517v14.46h-2.144l-8.027-10.288v10.288h-2.516v-14.46M161.749 24.61v-.042c0-2.81-2.06-5.143-4.95-5.143-2.894 0-4.91 2.293-4.91 5.1v.043c0 2.81 2.061 5.145 4.95 5.145 2.89 0 4.91-2.293 4.91-5.103zm-12.543 0v-.042c0-4.069 3.162-7.479 7.633-7.479 4.473 0 7.593 3.369 7.593 7.437v.042c0 4.07-3.162 7.478-7.634 7.478-4.471 0-7.592-3.367-7.592-7.436zM168.505 31.798h2.56V17.337h-2.56zM174.805 29.692l1.54-1.819c1.394 1.198 2.786 1.881 4.596 1.881 1.582 0 2.58-.722 2.58-1.817v-.042c0-1.034-.581-1.592-3.286-2.211-3.099-.744-4.85-1.652-4.85-4.318v-.04c0-2.48 2.082-4.192 4.973-4.192 2.124 0 3.808.638 5.286 1.816l-1.375 1.92c-1.306-.97-2.618-1.487-3.948-1.487-1.502 0-2.374.765-2.374 1.715v.043c0 1.115.666 1.61 3.452 2.272 3.079.743 4.68 1.835 4.68 4.233v.042c0 2.706-2.14 4.319-5.2 4.319-2.224 0-4.328-.766-6.074-2.315M196.997 17.337h2.37l7.8 10.001V17.337h2.518v14.46h-2.143l-8.028-10.288v10.288h-2.517v-14.46M223.078 26.056l-2.517-5.784-2.498 5.784h5.015zm-3.661-8.82h2.37l6.408 14.561h-2.704l-1.476-3.489h-6.888l-1.493 3.49h-2.626l6.409-14.563zM233.226 19.693h-4.62v-2.356h11.818v2.356h-4.619v12.104h-2.58V19.693M243.729 25.664v-8.327h2.559v8.222c0 2.686 1.393 4.133 3.681 4.133 2.264 0 3.659-1.363 3.659-4.028v-8.327h2.56v8.201c0 4.319-2.453 6.486-6.262 6.486-3.784 0-6.197-2.167-6.197-6.36M266.835 24.505c1.83 0 2.995-.95 2.995-2.416v-.04c0-1.55-1.123-2.397-3.017-2.397h-3.723v4.853h3.745zm-6.301-7.168h6.488c1.83 0 3.265.538 4.202 1.448.769.784 1.206 1.859 1.206 3.119v.041c0 2.376-1.437 3.801-3.475 4.38l3.933 5.472h-3.017l-3.58-5.038h-3.201v5.038h-2.556v-14.46zM285.221 26.056l-2.519-5.784-2.495 5.784h5.014zm-3.663-8.82h2.375l6.403 14.561h-2.705l-1.473-3.489h-6.886l-1.498 3.49h-2.621l6.405-14.563zM293.661 17.337h2.56v12.146h7.652v2.314h-10.212v-14.46M90.33 41.564h2.557v6.011h6.948v-6.01h2.557v14.458h-2.557V49.93h-6.948v6.092H90.33V41.564M107.114 56.023h2.558V41.564h-2.558zM113.414 53.918l1.539-1.82c1.394 1.198 2.788 1.881 4.598 1.881 1.58 0 2.579-.723 2.579-1.82v-.041c0-1.031-.583-1.591-3.287-2.209-3.099-.743-4.846-1.652-4.846-4.317v-.044c0-2.476 2.08-4.19 4.97-4.19 2.123 0 3.807.64 5.283 1.817l-1.372 1.92c-1.31-.971-2.62-1.486-3.952-1.486-1.497 0-2.371.764-2.371 1.715v.04c0 1.115.666 1.612 3.453 2.273 3.08.742 4.68 1.839 4.68 4.234v.042c0 2.706-2.142 4.317-5.201 4.317-2.226 0-4.325-.766-6.073-2.312M131.797 43.919h-4.617v-2.355h11.816v2.355h-4.617v12.104h-2.582V43.919M153.636 48.835v-.043c0-2.807-2.058-5.141-4.948-5.141-2.893 0-4.91 2.292-4.91 5.1v.041c0 2.812 2.058 5.144 4.95 5.144 2.892 0 4.908-2.292 4.908-5.101zm-12.54 0v-.043c0-4.067 3.162-7.476 7.632-7.476 4.473 0 7.593 3.367 7.593 7.435v.041c0 4.07-3.162 7.478-7.633 7.478-4.473 0-7.592-3.365-7.592-7.435zM166.55 48.73c1.832 0 2.995-.95 2.995-2.415v-.04c0-1.55-1.121-2.398-3.014-2.398h-3.726v4.853h3.745zm-6.3-7.166h6.488c1.83 0 3.266.535 4.201 1.446.771.783 1.206 1.86 1.206 3.118v.04c0 2.378-1.435 3.802-3.471 4.382l3.929 5.473h-3.014l-3.578-5.039h-3.206v5.039h-2.556V41.564zM179.882 50.32l-5.781-8.756h3.016l4.074 6.404 4.12-6.404h2.933l-5.78 8.698v5.76h-2.582v-5.701M197.413 53.918l1.54-1.82c1.392 1.198 2.787 1.881 4.595 1.881 1.58 0 2.58-.723 2.58-1.82v-.041c0-1.031-.582-1.591-3.287-2.209-3.095-.743-4.846-1.652-4.846-4.317v-.044c0-2.476 2.08-4.19 4.972-4.19 2.121 0 3.806.64 5.284 1.817l-1.376 1.92c-1.307-.971-2.62-1.486-3.95-1.486-1.497 0-2.372.764-2.372 1.715v.04c0 1.115.665 1.612 3.454 2.273 3.08.742 4.68 1.839 4.68 4.234v.042c0 2.706-2.144 4.317-5.2 4.317-2.227 0-4.327-.766-6.074-2.312M212.303 49.888v-8.324h2.559v8.22c0 2.686 1.394 4.134 3.682 4.134 2.266 0 3.661-1.367 3.661-4.03v-8.324h2.558v8.202c0 4.315-2.454 6.484-6.261 6.484-3.786 0-6.199-2.17-6.199-6.362M235.412 48.73c1.831 0 2.995-.95 2.995-2.415v-.04c0-1.55-1.122-2.398-3.017-2.398h-3.725v4.853h3.747zm-6.305-7.166h6.492c1.829 0 3.265.535 4.2 1.446.773.783 1.205 1.86 1.205 3.118v.04c0 2.378-1.432 3.802-3.47 4.382l3.93 5.473h-3.016l-3.577-5.041h-3.206v5.04h-2.558V41.565zM243.313 41.564h2.83l4.39 11.111 4.37-11.11h2.761l-6.052 14.561h-2.246l-6.053-14.562M260.99 41.564h10.797v2.27h-8.237v3.761h7.302v2.271h-7.302v3.884h8.34v2.273h-10.9V41.564M280.043 50.32l-5.784-8.756h3.017l4.077 6.404 4.115-6.404h2.939l-5.787 8.698v5.76h-2.577V50.32M93.807 71.448c1.919 0 3.217-.996 3.217-2.52v-.029c0-1.63-1.268-2.48-3.13-2.48h-2.92v5.03h2.833zm-3.6-5.732h3.748c2.273 0 3.837 1.159 3.837 3.138v.03c0 2.153-1.874 3.268-4.028 3.268h-2.79v3.824h-.767v-10.26zM104.907 71.037c1.727 0 3.011-.863 3.011-2.345v-.03c0-1.379-1.093-2.242-2.967-2.242h-3.529v4.617h3.485zm-4.252-5.321h4.34c1.27 0 2.29.394 2.907 1.013.488.484.783 1.172.783 1.905v.027c0 1.717-1.284 2.7-3.025 2.933l3.41 4.382h-.975l-3.292-4.249h-3.38v4.25h-.768V65.715zM118.914 72.415l-2.717-5.937-2.73 5.937h5.447zm-3.072-6.774h.74l4.81 10.335h-.839l-1.317-2.871h-6.094l-1.315 2.871h-.797l4.812-10.335zM124.27 75.976h.767v-10.26h-.768zM133.053 71.037c1.726 0 3.011-.863 3.011-2.345v-.03c0-1.377-1.092-2.242-2.967-2.242h-3.53v4.617h3.486zm-4.252-5.321h4.34c1.27 0 2.288.394 2.908 1.013.488.484.782 1.172.782 1.905v.027c0 1.717-1.283 2.7-3.026 2.933l3.41 4.382h-.975l-3.29-4.249h-3.383v4.25h-.766V65.715zM140.165 75.976h.769v-10.26h-.77zM144.698 65.716h7.35v.704h-6.583v4.032h5.918v.702h-5.918v4.122h6.657v.7h-7.424v-10.26M164.443 71.037c1.728 0 3.011-.863 3.011-2.345v-.03c0-1.377-1.09-2.242-2.964-2.242h-3.528v4.617h3.481zm-4.248-5.321h4.339c1.268 0 2.286.394 2.907 1.013.488.484.781 1.172.781 1.905v.027c0 1.717-1.285 2.7-3.022 2.933l3.406 4.382h-.974l-3.29-4.249h-3.38v4.25h-.767V65.715z"/>
        <g transform="translate(171.414 65.52)">
            <mask id="d" fill="#fff">
                <use xlink:href="#c"/>
            </mask>
            <path fill="#1A1918" d="M.042.196h7.35v.705H.805v4.032h5.921v.702H.806v4.122h6.66v.7H.041V.197M9.858 8.965l.499-.574c1.138 1.041 2.186 1.524 3.704 1.524 1.55 0 2.615-.862 2.615-2.037V7.85c0-1.083-.578-1.715-2.923-2.185-2.481-.497-3.483-1.334-3.483-2.887v-.03c0-1.524 1.397-2.697 3.32-2.697 1.506 0 2.495.412 3.544 1.247l-.487.6c-.975-.834-1.952-1.157-3.09-1.157-1.52 0-2.52.862-2.52 1.932v.029c0 1.085.56 1.747 3.008 2.243 2.395.484 3.397 1.337 3.397 2.83v.031c0 1.655-1.433 2.801-3.425 2.801-1.652 0-2.922-.545-4.16-1.642" mask="url(#d)"/>
        </g>
        <path fill="#1A1918" d="M191.968 65.716h7.354v.704h-6.586v4.032h5.92v.702h-5.92v4.122h6.658v.7h-7.426v-10.26M209.449 72.415l-2.717-5.937-2.733 5.937h5.45zm-3.074-6.774h.74l4.811 10.335h-.841l-1.314-2.871h-6.096l-1.314 2.871h-.797l4.81-10.335z"/>
        <g transform="translate(214.083 65.52)">
            <mask id="f" fill="#fff">
                <use xlink:href="#e"/>
            </mask>
            <path fill="#1A1918" d="M4.866 5.518c1.728 0 3.012-.864 3.012-2.345v-.031C7.878 1.766 6.788.9 4.912.9H1.385v4.617h3.481zM.616.196h4.34c1.273 0 2.288.395 2.909 1.014.487.484.781 1.171.781 1.904v.028c0 1.717-1.283 2.7-3.024 2.933l3.411 4.382h-.978l-3.29-4.249h-3.38v4.249H.617V.197zM11.419 5.357v-.03c0-2.902 2.184-5.304 5.168-5.304 1.842 0 2.951.671 4.012 1.641l-.544.558c-.9-.867-1.931-1.514-3.483-1.514-2.48 0-4.354 2.01-4.354 4.59v.03c0 2.594 1.9 4.617 4.369 4.617 1.49 0 2.511-.573 3.557-1.597l.518.5c-1.092 1.067-2.274 1.787-4.104 1.787-2.955 0-5.14-2.333-5.14-5.278" mask="url(#f)"/>
        </g>
        <path fill="#1A1918" d="M237.442 65.716h.77v4.749h6.613v-4.75h.765v10.261h-.765V71.17h-6.614v4.806h-.769v-10.26M254.37 75.976h.769v-10.26h-.77z"/>
        <g transform="translate(258.817 65.52)">
            <mask id="h" fill="#fff">
                <use xlink:href="#g"/>
            </mask>
            <path fill="#1A1918" d="M.088.196h.724l7.127 8.928V.196h.74v10.26h-.578L.824 1.342v9.116H.088V.197M11.672 8.965l.502-.574c1.136 1.041 2.187 1.524 3.705 1.524 1.551 0 2.614-.862 2.614-2.037V7.85c0-1.083-.577-1.715-2.922-2.185-2.481-.497-3.486-1.334-3.486-2.887v-.03c0-1.524 1.404-2.697 3.323-2.697 1.505 0 2.495.412 3.543 1.247l-.488.6c-.976-.834-1.95-1.157-3.087-1.157-1.52 0-2.523.862-2.523 1.932v.029c0 1.085.56 1.747 3.01 2.243 2.395.484 3.398 1.337 3.398 2.83v.031c0 1.655-1.432 2.801-3.425 2.801-1.655 0-2.922-.545-4.164-1.642" mask="url(#h)"/>
        </g>
        <path fill="#1A1918" d="M283.83 66.42h-3.599v-.704h7.97v.704h-3.6v9.556h-.77V66.42M291.225 75.976h.768v-10.26h-.768z"/>
        <g transform="translate(294.965 65.577)">
            <mask id="j" fill="#fff">
                <use xlink:href="#i"/>
            </mask>
            <path fill="#1A1918" d="M3.657.843H.054V.139h7.973v.704H4.423v9.556h-.766V.843M10.785 6.136V.139h.771v5.923c0 2.419 1.31 3.81 3.495 3.81 2.097 0 3.44-1.26 3.44-3.736V.139h.767v5.908c0 2.949-1.725 4.514-4.237 4.514-2.478 0-4.236-1.552-4.236-4.425" mask="url(#j)"/>
        </g>
        <path fill="#1A1918" d="M320.584 66.42h-3.603v-.704h7.97v.704h-3.6v9.556h-.767V66.42M327.875 65.716h7.35v.704h-6.585v4.032h5.92v.702h-5.92v4.12h6.66v.702h-7.425v-10.26"/>
    </g>
</svg>
