<svg xmlns="http://www.w3.org/2000/svg" width="249" height="321" viewBox="0 0 249 321">
    <g fill="none" fill-rule="evenodd">
        <path fill="#FAFAF5" d="M124 320.5s124-41.63 124-160S124 .5 124 .5 0 42.13 0 160.5s124 160 124 160z"/>
        <path fill="#00CC92" d="M99.43 111.2c9.14 1.2 11.76-6.29 11.76-6.29s3.29-10.82 5.73-10.61c4.08.36 5.91-3.3 5.08-5.18a24.52 24.52 0 0 1-1.8-6.46 15.8 15.8 0 0 1 .72-7.42c2.19-6.34 6-19.93.45-25.7-7.32-7.64-43.19-25.37-57.51 3s-7.19 53.04 35.57 58.66z"/>
        <path fill="#00835E" fill-rule="nonzero" d="M173.41 260.06c-1-7.31-4.2-12.82-8.17-16.39-9.52-8.57-31.44 0-31.44 0-7.16-7.62-23.43 0-23.43 0l-3 1c1.47 7.91 3 14.36 4.55 17.92 0 0-2.46 9-17.15 15.41l-33.05 8c27.88 23.4 53.8 31.74 53.8 31.74 31.6-13 60-35.36 60-35.36l-2.11-22.32z"/>
        <path fill="#FAFAF5" d="M138.71 188.08l35.83-61.49a8.48 8.48 0 0 1 7.33-4.21h60.89a4.24 4.24 0 0 1 3.8 6.13l-30.47 61.25a8.48 8.48 0 0 1-7.59 4.7h-66.13a4.24 4.24 0 0 1-3.66-6.38z"/>
        <path stroke="#00835E" stroke-linecap="round" stroke-linejoin="round" stroke-width="2" d="M173.08 194.46h-29.71a4.24 4.24 0 0 1-3.66-6.37l35.83-61.49a8.48 8.48 0 0 1 7.33-4.21h50.89M248 128.5l-30.92 61.25a8.48 8.48 0 0 1-7.59 4.7h-11.9"/>
        <path fill="#00CC92" d="M179 127h64l-28.5 57H146zM236.25 233h-127l-1.33-10.48h128.33z"/>
        <path fill="#FAFAF5" fill-rule="nonzero" d="M210.33 184.2c-.06-.86-.7-8.48-5-10.91-3.17-1.78-14.32-3.89-19.77-2.12a5.21 5.21 0 0 0-3.36 2.65c-.09.19-.21.43-.37.71a12.6 12.6 0 0 0-1.35.3c-3.81 1.08-4.71 6-4.77 8.51-3.11 4.16-6.15 8-6.18 8l-2 2.49 16.75 3.81h.26c9.18-.34 14.16-5.63 17.14-10.59.36-.6.76-1.26 1.12-1.83 1.32 2.9 2.68 1.3 4.35 1.49a3.06 3.06 0 0 0 2.81-1.24l.41-.58-.04-.69z"/>
        <ellipse cx="174.9" cy="188.53" fill="#00835E" fill-rule="nonzero" rx="3.35" ry="2.15"/>
        <path fill="#00CC92" d="M206.33 174c-3.5-2-18.5-4.36-20.33-.38a17.35 17.35 0 0 1-1 1.73 11.46 11.46 0 0 0-2 .37c-2.78.78-3.41 5.43-3.3 7.24-3.3 4.44-6.62 8.62-6.62 8.62l13.39 3c13.67-.5 17.17-21.63 19.7-15.32 2.53 6.31 4.17 4 4.17 4s-.51-7.26-4.01-9.26z"/>
        <path fill="#00CC92" d="M96.57 181.38c.19 1.67 13.75 36.14 29.62 43.68 15.87 7.54 61.22-31.2 61.22-31.2l-14.33-2.26s-33.56 11.15-36.08 12.82c-2.52 1.67-14.84-28.36-14.84-28.36s-26.45-2.33-25.59 5.32z"/>
        <path stroke="#00835E" stroke-linecap="round" stroke-width="2" d="M96.57 181.38c.19 1.67 13.75 36.14 29.62 43.68 15.87 7.54 61.22-31.2 61.22-31.2"/>
        <path fill="#FAFAF5" stroke="#00835E" stroke-linecap="round" stroke-linejoin="round" stroke-width="2" d="M102.76 205.16s3.87 38.06 11.29 55.18c0 0-6.13 22.17-52.29 25.67"/>
        <path fill="#FAFAF5" stroke="#00CC92" stroke-linecap="round" stroke-linejoin="round" stroke-width="2" d="M128.19 173.65s-14.69-34.65-21.52-49c-2.2-4.61-8.42-7.58-14.18-9.32"/>
        <path fill="#FAFAF5" stroke="#00835E" stroke-linecap="round" stroke-linejoin="round" stroke-width="2" d="M81.82 161.68l9.3 24.54s25.19 2.56 37.06-12.57"/>
        <path fill="#FAFAF5" d="M91.19 111.33c-2.88-19.66-5.1-51.13 7.62-62.76a20.1 20.1 0 0 1 3.63 10s10.43-2.19 24.34 3.31c0 0-13.67-62.55-66.61-32.87-23.94 13.42-36 49.58-40.9 74.12-.44 2.2 73.36 18.01 71.92 8.2z"/>
        <path stroke="#00835E" stroke-linecap="round" stroke-linejoin="round" stroke-width="2" d="M88.5 56.85s-9.67 36.94 6.38 83.45a138.31 138.31 0 0 1-20 9.73c-1.7.64-6.85-39.31-6.85-39.31s2.09 40.55.06 41.17c-19.98 6.11-43.97 1.6-49.59-15.4 0 0-12.51-18 12-71M105.27 59.12s0-7.51-4.63-11.83c0 0-10.31 11.88-8.48 36.72M113 59.37a9.42 9.42 0 0 0-.66-6.59M120.2 60.85s.81-4.3-.9-7.31M26.6 118.62c.27-2.07.62-4.21 1.07-6.41M27.64 148s-2.5-9.29-1.66-23"/>
        <path stroke="#00835E" stroke-linecap="round" stroke-linejoin="round" stroke-width="2" d="M33.33 59.34S51.81 15.48 92.47 21c41.72 5.67 34.31 42.34 34.31 42.34"/>
        <path stroke="#00CC92" stroke-linecap="round" stroke-linejoin="round" stroke-width="2" d="M13.51 146s-.51 37.34-4.06 75"/>
        <path fill="#FAFAF5" d="M156.5 282.25s-4.91 15.51-17.75 24.2l15.35-8.33s-.43-4.32 2.4-15.87z"/>
        <path stroke="#00CC92" stroke-linecap="round" stroke-linejoin="round" stroke-width="2" d="M121.67 251s16-14.27 39-10c0 0 10.06 1.23 11.85 14.75 1.79 13.52 3 25.47 3 25.47"/>
        <path stroke="#00835E" stroke-linecap="round" stroke-linejoin="round" stroke-width="2" d="M107 233h116"/>
        <path stroke="#00CC92" stroke-linecap="round" stroke-linejoin="round" stroke-width="2" d="M140 106h107M126 106h8"/>
        <path stroke="#00835E" stroke-linecap="round" stroke-linejoin="round" stroke-width="2" d="M112.17 67.76s7-2.41 10.67 0M200.41 138.24a3.1 3.1 0 0 1 6.1 1.07M209.73 151.33a10.59 10.59 0 0 0 3.63 2.63c4.26 1.56 4.91-2.39 4.9-2.4 4.32 1 8.51-1.5 6-5.93s-17.43-2.5-17.5-2.42a4.71 4.71 0 0 0-3.45-2.86 4.66 4.66 0 0 0-4.19 1.49c-.17-.17-12.85-7-16.14-3.59-3.49 3.18-1 6.74 3.08 7.35 0 0-.91 3.79 3.35 3.87a10.15 10.15 0 0 0 4.16-1.14"/>
        <path stroke="#00835E" stroke-linecap="round" stroke-linejoin="round" stroke-width="2" d="M207.32 153.68c-.81 5.12-6.19 10.39-8.65 9.9-2.46-.49-5-7.29-3.84-12.26 1.16-4.97 4.25-6.58 7.58-6 3.33.58 5.75 3.25 4.91 8.36zM202 136c-.667-1.207-1.333-2.4-2-3.58M205.41 136.6c1.04-.913 2.063-1.83 3.07-2.75M195.29 149.79c.09 0-10.45 3.52-4.68 9.56M207.5 152.08c-.12-.08 8.78 7.28.56 10.7M166 158h11"/>
        <path stroke="#FAFAF5" stroke-linecap="round" stroke-linejoin="round" stroke-width="2" d="M163 162h19M159 170h19M161 166h12"/>
    </g>
</svg>
