<svg xmlns="http://www.w3.org/2000/svg" width="250" height="320" viewBox="0 0 250 320">
    <g fill="none" fill-rule="evenodd" transform="translate(1)">
        <path fill="#00CC92" d="M124 320S0 278.37 0 160 124 0 124 0s124 41.63 124 160-124 160-124 160z"/>
        <path fill="#FAFAF5" d="M187.75 292.27l-161.31-40.6 13.18 12.79 127.44 34.04z"/>
        <path stroke="#00835E" stroke-linecap="round" stroke-linejoin="round" stroke-width="2" d="M208.5 298L45.26 256.46M15.93 133.06L0 131.13M238.5 160l-115.75-14.01"/>
        <path fill="#FAFAF5" d="M170.67 171.06l-84.8-12.27A32 32 0 0 0 64 163.51l-64 41 99.27 20.65 71.4-54.1z"/>
        <path fill="#00CC92" fill-rule="nonzero" stroke="#00835E" stroke-linecap="round" stroke-linejoin="round" stroke-width="2" d="M101.09 184.65l-43.76-7.82"/>
        <path stroke="#00835E" stroke-linecap="round" stroke-linejoin="round" stroke-width="2" d="M0 204.53l99 20.97v23.05L0 226.6"/>
        <path fill="#00CC92" stroke="#00835E" stroke-linecap="round" stroke-linejoin="round" stroke-width="2" d="M73 89v12.13c0 2.69 6 4.88 13.5 4.88s13.5-2.18 13.5-4.87V87M109.79 161a26.5 26.5 0 0 1 .79 8.74c-.58 8.54-4.64 15.22-9.07 14.92-4.43-.3-7.56-7.46-7-16 .56-8.54 4.64-15.22 9.07-14.92"/>
        <path stroke="#00835E" stroke-linecap="round" stroke-linejoin="round" stroke-width="2" d="M99.06 248.55l80.94-67a9.22 9.22 0 0 0-14.87-7.28L99.06 225.5v23.05z"/>
        <path fill="#FAFAF5" fill-rule="nonzero" d="M49.5 153.74h29v20.43h-29z"/>
        <path fill="#00CC92" d="M83.25 126.25L33.6 147.09l3.53 7.49 58.69 9.63 47.95-22.31 4.31-8.77z"/>
        <path stroke="#00835E" stroke-linecap="round" stroke-linejoin="round" stroke-width="2" d="M33.6 145.09l3.53 7.49 58.69 9.63 47.95-22.31 4.31-8.77"/>
        <path stroke="#00835E" stroke-linecap="round" stroke-linejoin="round" stroke-width="2" d="M120.81 128.12l27.27 3.01-52.75 23.99-61.73-10.03"/>
        <path fill="#FAFAF5" d="M104.04 86.91L115 77.55V30.73l-11.15 5.94L104 87"/>
        <path stroke="#00835E" stroke-linecap="round" stroke-linejoin="round" stroke-width="2" d="M104.02 86.81L115 77.55V29.73l-45.12-.7"/>
        <path fill="#00CC92" stroke="#00835E" stroke-linecap="round" stroke-linejoin="round" stroke-width="2" d="M103.85 86.81L59.6 84.4V34.46l44.25 1.21z"/>
        <path stroke="#00835E" stroke-linecap="round" stroke-linejoin="round" stroke-width="2" d="M128.3 152.81c-6.23 25.23-19.8 42.72-35.52 42.72a31.84 31.84 0 0 1-7-.77"/>
        <path fill="#00CC92" stroke="#00835E" stroke-linecap="round" stroke-linejoin="round" stroke-width="2" d="M66 45.52c-21.1 0-43 44.31-43 84.07 0 36.83 14.63 55.11 33.56 59.41l29.2 5.78S53.6 177.85 53.6 133.72c0-40.82 17.54-87.2 39.17-87.2l-26.77-1zM83.34 31.47l-.15-19.08a.43.43 0 0 0 0-.06c0-.92-3.12-1.67-7-1.67s-7 .55-7 1.47v-.14l.15 19.49M106.34 31.47l-.15-19.08a.43.43 0 0 0 0-.06c0-.92-3.12-1.67-7-1.67s-7 .55-7 1.47v-.14l.15 19.49"/>
        <ellipse cx="90.78" cy="59.13" fill="#FAFAF5" fill-rule="nonzero" rx="5.13" ry="11.62"/>
        <ellipse cx="92.78" cy="58.13" stroke="#00835E" stroke-linecap="round" stroke-linejoin="round" stroke-width="2" rx="5.13" ry="11.62"/>
        <path stroke="#00835E" stroke-linecap="round" stroke-linejoin="round" stroke-width="2" d="M92.78 69.75l-19.53-1"/>
        <ellipse cx="89.894" cy="135.695" fill="#FAFAF5" fill-rule="nonzero" rx="31.2" ry="8.5" transform="rotate(-1.54 89.894 135.695)"/>
        <path stroke="#00835E" stroke-linecap="round" stroke-linejoin="round" stroke-width="2" d="M119.75 137.42c-3.86 3.57-15.63 6.4-29.63 6.77-17.23.46-31.29-3-31.42-7.66l-.2-7.4"/>
        <path stroke="#00835E" stroke-linecap="round" stroke-linejoin="round" stroke-width="2" d="M100.25 120c12 .87 20.54 3.77 20.64 7.43.13 4.69-13.74 8.87-31 9.34-17.26.47-31.29-3-31.42-7.66-.09-3.21 6.37-6.18 16-7.88"/>
        <path fill="#00835E" stroke="#00835E" stroke-linecap="round" stroke-linejoin="round" stroke-width="2" d="M92.32 121.58c1.09-.94.22-2.19-1.08-2.42a3.33 3.33 0 0 0-3.21 1l4.29 1.42z"/>
        <path stroke="#00835E" stroke-linecap="round" stroke-linejoin="round" stroke-width="2" d="M95.53 129.36a3.79 3.79 0 0 0 4.33-.69c3 .8 7 0 6.32-2.17-.68-2.17-14.18-3.89-14.18-3.89a2.66 2.66 0 0 0-2.08-1.79 5.82 5.82 0 0 0-3.59.18s-7.9-4.37-11.08-3.3c-3.18 1.07-1.63 3.44 1.33 4.35"/>
        <path fill="#FAFAF5" stroke="#00835E" stroke-linecap="round" stroke-linejoin="round" stroke-width="2" d="M91.06 128.66c-1.8 2.35-6.8 4.42-8.42 4-1.62-.42-2.22-4.13-.42-6.48a6.19 6.19 0 0 1 6.94-2c2.43.64 3.7 2.14 1.9 4.48z"/>
        <path stroke="#00835E" stroke-linecap="round" stroke-linejoin="round" stroke-width="2" d="M89.63 119.09l-1.15-2.92M92.32 119.57l2.89-2.21M82.85 125.44s-9.37 1.47-6.18 5.24M91.56 127.91s5.11 8.55-1.63 8.87M248 198.33l-50.9-7.76a8 8 0 0 0-6.59 2L128 249.5a4 4 0 0 0 1.81 6.86l80.34 18.1A12 12 0 0 0 222 270.4l18.3-22.16"/>
        <path fill="#FAFAF5" d="M135.53 247.23l56.97-52.36 55.5 8.66V233l-26.75 31.75z"/>
        <path stroke="#00835E" stroke-linecap="round" stroke-linejoin="round" stroke-width="2" d="M135.53 247.23l85.72 17.52M192.5 194.87l55.5 8.66"/>
        <ellipse cx="171.92" cy="259.89" fill="#FAFAF5" fill-rule="nonzero" rx="4.42" ry="2.44"/>
        <path stroke="#00835E" stroke-linecap="round" stroke-linejoin="round" stroke-width="2" d="M192.5 203.53l21 3.47M166.5 226.53l30 5.47"/>
        <path stroke="#00CC92" stroke-linecap="round" stroke-width="2" d="M186.75 208l49.88 8.25M182.25 212.41l36 6.09M156.02 236.54l29.67 5.85M161.25 231.41l51.44 9.7M176.25 217.63l41 7.12"/>
    </g>
</svg>
