<svg xmlns="http://www.w3.org/2000/svg" width="273" height="72" viewBox="0 0 273 72">
    <g fill="none" fill-rule="evenodd">
        <path fill="#CDCABA" d="M10 46C6.586 44.29 0 39.893 0 31.434 0 20.016 12 16 12 16s12 4.016 12 15.434C24 39.893 17.414 44.289 14 46V26.294c0-1.14-.895-2.063-2-2.063-1.112 0-2 .924-2 2.063V46z"/>
        <path fill="#00CC92" d="M58 72c-3.414-1.71-10-6.107-10-14.566C48 46.016 60 42 60 42s12 4.016 12 15.434C72 65.893 65.414 70.289 62 72V52.294c0-1.14-.895-2.063-2-2.063-1.112 0-2 .924-2 2.063V72zM259 54c-3.414-1.71-10-6.107-10-14.566C249 28.016 261 24 261 24s12 4.016 12 15.434c0 8.459-6.586 12.855-10 14.566V34.294c0-1.14-.895-2.063-2-2.063-1.112 0-2 .924-2 2.063V54zM204 0c.572 2.6 1 5.405 1 8.381 0 25.325-22.996 36.732-30 39.619V0h29zM142 0c-.572 2.6-1 5.405-1 8.381 0 25.325 22.996 36.732 30 39.619V0h-29z"/>
    </g>
</svg>
