<svg xmlns="http://www.w3.org/2000/svg" width="992" height="104" viewBox="0 0 992 104">
    <g fill="none" fill-rule="evenodd">
        <path fill="#CDCABA" d="M626 84c-3.414-1.71-10-6.107-10-14.566C616 58.016 628 54 628 54s12 4.016 12 15.434c0 8.459-6.586 12.855-10 14.566V64.294c0-1.14-.895-2.063-2-2.063-1.112 0-2 .924-2 2.063V84zM10 70C6.586 68.29 0 63.893 0 55.434 0 44.016 12 40 12 40s12 4.016 12 15.434C24 63.893 17.414 68.289 14 70V50.294c0-1.14-.895-2.063-2-2.063-1.112 0-2 .924-2 2.063V70z"/>
        <path fill="#FFF" d="M58 102c-3.414-1.71-10-6.107-10-14.566C48 76.016 60 72 60 72s12 4.016 12 15.434c0 8.459-6.586 12.855-10 14.566V82.294c0-1.14-.895-2.063-2-2.063-1.112 0-2 .924-2 2.063V102zM714 54c-3.414-1.71-10-6.107-10-14.566C704 28.016 716 24 716 24s12 4.016 12 15.434c0 8.459-6.586 12.855-10 14.566V34.294c0-1.14-.895-2.063-2-2.063-1.112 0-2 .924-2 2.063V54z"/>
        <path fill="#00CC92" d="M474 54c-3.414-1.71-10-6.107-10-14.566C464 28.016 476 24 476 24s12 4.016 12 15.434c0 8.459-6.586 12.855-10 14.566V34.294c0-1.14-.895-2.063-2-2.063-1.112 0-2 .924-2 2.063V54zM938 102c-3.414-1.71-10-6.107-10-14.566C928 76.016 940 72 940 72s12 4.016 12 15.434c0 8.459-6.586 12.855-10 14.566V82.294c0-1.14-.895-2.063-2-2.063-1.112 0-2 .924-2 2.063V102z"/>
        <path fill="#CDCABA" d="M978 78c-3.414-1.71-10-6.107-10-14.566C968 52.016 980 48 980 48s12 4.016 12 15.434c0 8.459-6.586 12.855-10 14.566V58.294c0-1.14-.895-2.063-2-2.063-1.112 0-2 .924-2 2.063V78z"/>
        <path fill="#FFF" d="M294 104c-7.004-2.887-30-14.294-30-39.619C264 34.508 296 24 296 24s32 10.508 32 40.381c0 25.325-22.996 36.732-30 39.619V42.165a2.008 2.008 0 0 0-2-2.013c-1.112 0-2 .901-2 2.013V104z"/>
        <path fill="#00CC92" d="M822 104c-7.004-2.887-30-14.294-30-39.619C792 34.508 824 24 824 24s32 10.508 32 40.381c0 25.325-22.996 36.732-30 39.619V42.165a2.008 2.008 0 0 0-2-2.013c-1.112 0-2 .901-2 2.013V104zM239 0c.572 2.6 1 5.405 1 8.381 0 25.325-22.996 36.732-30 39.619V0h29zM177 0c-.572 2.6-1 5.405-1 8.381 0 25.325 22.996 36.732 30 39.619V0h-29z"/>
    </g>
</svg>
