<svg xmlns="http://www.w3.org/2000/svg" width="1040" height="504" viewBox="0 0 1040 504">
    <g fill="none" fill-rule="evenodd">
        <path fill="#FAFAF5" d="M298 416c-3.414-1.71-10-6.107-10-14.566C288 390.016 300 386 300 386s12 4.016 12 15.434c0 8.459-6.586 12.855-10 14.566v-19.706c0-1.14-.895-2.063-2-2.063-1.112 0-2 .924-2 2.063V416z"/>
        <path fill="#00835D" d="M713 168c-3.414-1.71-10-6.107-10-14.566C703 142.016 715 138 715 138s12 4.016 12 15.434c0 8.459-6.586 12.855-10 14.566v-19.706c0-1.14-.895-2.063-2-2.063-1.112 0-2 .924-2 2.063V168z"/>
        <path fill="#FAFAF5" d="M10 84C6.586 82.29 0 77.893 0 69.434 0 58.016 12 54 12 54s12 4.016 12 15.434C24 77.893 17.414 82.289 14 84V64.294c0-1.14-.895-2.063-2-2.063-1.112 0-2 .924-2 2.063V84z"/>
        <path fill="#00835D" d="M42 54c-3.414-1.71-10-6.107-10-14.566C32 28.016 44 24 44 24s12 4.016 12 15.434C56 47.893 49.414 52.289 46 54V34.294c0-1.14-.895-2.063-2-2.063-1.112 0-2 .924-2 2.063V54z"/>
        <path fill="#FAFAF5" d="M737 80c-3.414-1.71-10-6.107-10-14.566C727 54.016 739 50 739 50s12 4.016 12 15.434c0 8.459-6.586 12.855-10 14.566V60.294c0-1.14-.895-2.063-2-2.063-1.112 0-2 .924-2 2.063V80z"/>
        <path fill="#00835D" d="M458 388c-3.414-1.71-10-6.107-10-14.566C448 362.016 460 358 460 358s12 4.016 12 15.434c0 8.459-6.586 12.855-10 14.566v-19.706c0-1.14-.895-2.063-2-2.063-1.112 0-2 .924-2 2.063V388z"/>
        <path fill="#FAFAF5" d="M482 442c-3.414-1.71-10-6.107-10-14.566C472 416.016 484 412 484 412s12 4.016 12 15.434c0 8.459-6.586 12.855-10 14.566v-19.706c0-1.14-.895-2.063-2-2.063-1.112 0-2 .924-2 2.063V442z"/>
        <path fill="#00835D" d="M1026 58c-3.414-1.71-10-6.107-10-14.566C1016 32.016 1028 28 1028 28s12 4.016 12 15.434c0 8.459-6.586 12.855-10 14.566V38.294c0-1.14-.895-2.063-2-2.063-1.112 0-2 .924-2 2.063V58z"/>
        <path fill="#FAFAF5" d="M518 80c-7.004-2.887-30-14.294-30-39.619C488 10.508 520 0 520 0s32 10.508 32 40.381c0 25.325-22.996 36.732-30 39.619V18.165a2.008 2.008 0 0 0-2-2.013c-1.112 0-2 .901-2 2.013V80z"/>
        <path fill="#00835D" d="M781 160c-7.004-2.887-30-14.294-30-39.619C751 90.508 783 80 783 80s32 10.508 32 40.381c0 25.325-22.996 36.732-30 39.619V98.165a2.008 2.008 0 0 0-2-2.013c-1.112 0-2 .901-2 2.013V160zM254 504c-7.004-2.887-30-14.294-30-39.619C224 434.508 256 424 256 424s32 10.508 32 40.381c0 25.325-22.996 36.732-30 39.619v-61.835a2.008 2.008 0 0 0-2-2.013c-1.112 0-2 .901-2 2.013V504z"/>
        <g transform="translate(792 103)">
            <path fill="#FAFAF5" d="M124 320.5s124-41.63 124-160S124 .5 124 .5 0 42.13 0 160.5s124 160 124 160z"/>
            <path fill="#00CC92" d="M99.43 111.2c9.14 1.2 11.76-6.29 11.76-6.29s3.29-10.82 5.73-10.61c4.08.36 5.91-3.3 5.08-5.18a24.52 24.52 0 0 1-1.8-6.46 15.8 15.8 0 0 1 .72-7.42c2.19-6.34 6-19.93.45-25.7-7.32-7.64-43.19-25.37-57.51 3s-7.19 53.04 35.57 58.66z"/>
            <path fill="#00835E" fill-rule="nonzero" d="M173.41 260.06c-1-7.31-4.2-12.82-8.17-16.39-9.52-8.57-31.44 0-31.44 0-7.16-7.62-23.43 0-23.43 0l-3 1c1.47 7.91 3 14.36 4.55 17.92 0 0-2.46 9-17.15 15.41l-33.05 8c27.88 23.4 53.8 31.74 53.8 31.74 31.6-13 60-35.36 60-35.36l-2.11-22.32z"/>
            <path fill="#FAFAF5" d="M138.71 188.08l35.83-61.49a8.48 8.48 0 0 1 7.33-4.21h60.89a4.24 4.24 0 0 1 3.8 6.13l-30.47 61.25a8.48 8.48 0 0 1-7.59 4.7h-66.13a4.24 4.24 0 0 1-3.66-6.38z"/>
            <path fill="#00835E" fill-rule="nonzero" d="M173.08 195.46h-29.71a5.24 5.24 0 0 1-4.53-7.88l35.83-61.49a9.51 9.51 0 0 1 8.19-4.71h50.89a1 1 0 1 1 0 2h-50.89a7.5 7.5 0 0 0-6.46 3.71l-35.83 61.49a3.24 3.24 0 0 0 2.8 4.87h29.71a1.005 1.005 0 0 1 0 2.01zM209.48 195.46h-11.9a1 1 0 1 1 0-2h11.9a7.44 7.44 0 0 0 6.7-4.15L246.11 130a1.002 1.002 0 0 1 1.79.9L218 190.21a9.42 9.42 0 0 1-8.52 5.25z"/>
            <path fill="#00CC92" d="M179 127h64l-28.5 57H146zM236.25 233h-127l-1.33-10.48h128.33z"/>
            <path fill="#FAFAF5" fill-rule="nonzero" d="M210.33 184.2c-.06-.86-.7-8.48-5-10.91-3.17-1.78-14.32-3.89-19.77-2.12a5.21 5.21 0 0 0-3.36 2.65c-.09.19-.21.43-.37.71a12.6 12.6 0 0 0-1.35.3c-3.81 1.08-4.71 6-4.77 8.51-3.11 4.16-6.15 8-6.18 8l-2 2.49 16.75 3.81h.26c9.18-.34 14.16-5.63 17.14-10.59.36-.6.76-1.26 1.12-1.83 1.32 2.9 2.68 1.3 4.35 1.49a3.06 3.06 0 0 0 2.81-1.24l.41-.58-.04-.69z"/>
            <ellipse cx="174.9" cy="188.53" fill="#00835E" fill-rule="nonzero" rx="3.35" ry="2.15"/>
            <path fill="#00CC92" d="M206.33 174c-3.5-2-18.5-4.36-20.33-.38a17.35 17.35 0 0 1-1 1.73 11.46 11.46 0 0 0-2 .37c-2.78.78-3.41 5.43-3.3 7.24-3.3 4.44-6.62 8.62-6.62 8.62l13.39 3c13.67-.5 17.17-21.63 19.7-15.32 2.53 6.31 4.17 4 4.17 4s-.51-7.26-4.01-9.26z"/>
            <path fill="#00CC92" d="M96.57 181.38c.19 1.67 13.75 36.14 29.62 43.68 15.87 7.54 61.22-31.2 61.22-31.2l-14.33-2.26s-33.56 11.15-36.08 12.82c-2.52 1.67-14.84-28.36-14.84-28.36s-26.45-2.33-25.59 5.32z"/>
            <path fill="#00835E" fill-rule="nonzero" d="M131 227a12.09 12.09 0 0 1-5.22-1c-16.56-7.87-30-43-30.18-44.47a1.007 1.007 0 1 1 2-.24c.34 1.78 13.55 35.53 29.05 42.9 6.16 2.92 18.46-1.47 35.58-12.71a278 278 0 0 0 24.56-18.35 1 1 0 0 1 1.3 1.52C186.36 196.07 149.9 227 131 227z"/>
            <path fill="#FAFAF5" d="M102.76 205.16s3.87 38.06 11.29 55.18c0 0-6.13 22.17-52.29 25.67"/>
            <path fill="#00835E" fill-rule="nonzero" d="M61.75 287a1 1 0 0 1-.07-2c23.46-1.78 36.2-8.49 42.75-13.8 6.08-4.93 8.1-9.6 8.55-10.83-7.29-17.21-11.05-53.57-11.21-55.12a1.005 1.005 0 1 1 2-.2c0 .38 3.94 38.11 11.21 54.88a1 1 0 0 1 0 .66c-.26.93-6.85 22.88-53.18 26.4h-.05v.01z"/>
            <path fill="#FAFAF5" d="M128.19 173.65s-14.69-34.65-21.52-49c-2.2-4.61-8.42-7.58-14.18-9.32"/>
            <path fill="#00CC92" fill-rule="nonzero" d="M128.19 174.65a1 1 0 0 1-.92-.61c-.15-.35-14.76-34.79-21.5-48.95-1.69-3.54-6.51-6.67-13.56-8.79a1.003 1.003 0 0 1 .58-1.92c5.38 1.62 12.31 4.64 14.79 9.85 6.76 14.19 21.39 48.68 21.54 49a1 1 0 0 1-.93 1.42z"/>
            <path fill="#FAFAF5" d="M81.82 161.68l9.3 24.54s25.19 2.56 37.06-12.57"/>
            <path fill="#00835E" fill-rule="nonzero" d="M95.33 187.38c-2.56 0-4.18-.16-4.31-.17a1 1 0 0 1-.83-.64L80.89 162a1 1 0 0 1 1.87-.71l9.08 23.94c4.43.26 8.877.04 13.26-.66 6.91-1.12 16.38-4 22.31-11.58a1 1 0 0 1 1.57 1.23c-5 6.39-13.18 10.65-23.61 12.33a63.93 63.93 0 0 1-10.04.83z"/>
            <path fill="#FAFAF5" d="M91.19 111.33c-2.88-19.66-5.1-51.13 7.62-62.76a20.1 20.1 0 0 1 3.63 10s10.43-2.19 24.34 3.31c0 0-13.67-62.55-66.61-32.87-23.94 13.42-36 49.58-40.9 74.12-.44 2.2 73.36 18.01 71.92 8.2z"/>
            <path fill="#00835E" fill-rule="nonzero" d="M51 155.43c-15 0-29.14-5.82-33.42-18.51-1.18-1.85-11.67-20.7 12-71.85a1 1 0 1 1 1.81.84c-24 51.83-12.21 69.82-12.08 70a1 1 0 0 1 .13.26c5.45 16.49 29.08 20.53 48 14.86.92-2.77.47-22.54-.45-40.26a1 1 0 0 1 1.99-.13c1.71 13.23 4.79 34.42 6.21 38.24a139.31 139.31 0 0 0 18.47-9C78.07 94 87.44 57 87.53 56.6a1.003 1.003 0 0 1 1.94.51c-.1.37-9.4 37.21 6.36 82.87a1 1 0 0 1-.43 1.18A140.57 140.57 0 0 1 75.21 151a1.13 1.13 0 0 1-1-.09c-.64-.39-1.52-.91-4.44-20.24v.42c.56 21.19-.41 21.49-1.44 21.8A59.82 59.82 0 0 1 51 155.43z"/>
            <path fill="#00835E" fill-rule="nonzero" d="M92.17 85a1 1 0 0 1-1-.93c-1.84-25 8.29-36.95 8.72-37.44a1 1 0 0 1 1.44-.07c4.89 4.57 4.95 12.24 4.95 12.56a1 1 0 1 1-2 0c0-.07-.06-6.25-3.54-10.3-2.21 3.15-9.07 14.74-7.57 35.1a1 1 0 0 1-.93 1.08h-.07zM113 60.37a1 1 0 0 1-.28 0 1 1 0 0 1-.68-1.24 8.46 8.46 0 0 0-.57-5.81 1.003 1.003 0 0 1 1.74-1 10.39 10.39 0 0 1 .75 7.36 1 1 0 0 1-.96.69zM120.2 61.85h-.19a1 1 0 0 1-.8-1.17s.72-4-.79-6.63a1.003 1.003 0 0 1 1.74-1c1.87 3.29 1.05 7.8 1 8a1 1 0 0 1-.96.8zM26.6 119.62h-.13a1 1 0 0 1-.86-1.12c.28-2.17.65-4.35 1.08-6.48a1.02 1.02 0 1 1 2 .4c-.42 2.09-.78 4.22-1.06 6.34a1 1 0 0 1-1.03.86zM27.64 149a1 1 0 0 1-1-.74c-.1-.39-2.53-9.6-1.69-23.35a1.002 1.002 0 1 1 2 .12 78.65 78.65 0 0 0 1.62 22.71 1 1 0 0 1-.67 1.26 1 1 0 0 1-.26 0z"/>
            <path fill="#00835E" fill-rule="nonzero" d="M126.78 64.34h-.2a1 1 0 0 1-.78-1.18c0-.15 2.84-14.77-5.56-26.56-5.65-7.94-15-12.85-27.9-14.59-39.45-5.37-57.9 37.29-58.09 37.72a1 1 0 0 1-1.84-.73c.19-.49 19.24-44.56 60.2-39 13.44 1.83 23.29 7 29.27 15.43 8.9 12.51 6 27.47 5.88 28.1a1 1 0 0 1-.98.81z"/>
            <path fill="#00CC92" fill-rule="nonzero" d="M9.45 222h-.1a1 1 0 0 1-.9-1.09c3.47-37.19 4.06-74.55 4.06-74.92a1 1 0 1 1 2 0c0 .37-.6 37.81-4.07 75.08a1 1 0 0 1-.99.93z"/>
            <path fill="#FAFAF5" d="M156.5 282.25s-4.91 15.51-17.75 24.2l15.35-8.33s-.43-4.32 2.4-15.87z"/>
            <path fill="#00CC92" fill-rule="nonzero" d="M175.47 282.25a1 1 0 0 1-1-.9c0-.12-1.18-12.08-3-25.43-1.68-12.61-10.89-13.88-11-13.89-22.34-4.17-38 9.58-38.2 9.72a1 1 0 0 1-1.33-1.49c.16-.15 16.62-14.55 39.84-10.21 0 0 10.78 1.48 12.66 15.6 1.78 13.38 3 25.38 3 25.5a1 1 0 0 1-.9 1.09h-.1l.03.01z"/>
            <path fill="#00835E" fill-rule="nonzero" d="M223 234H107a1 1 0 1 1 0-2h116a1 1 0 1 1 0 2z"/>
            <path fill="#00CC92" fill-rule="nonzero" d="M247 107H140a1 1 0 1 1 0-2h107a1 1 0 1 1 0 2zM134 107h-8a1 1 0 1 1 0-2h8a1 1 0 1 1 0 2z"/>
            <path fill="#00835E" fill-rule="nonzero" d="M112.17 68.76a1 1 0 0 1-.32-1.95c.31-.11 7.52-2.53 11.54.11a1 1 0 1 1-1.1 1.67c-2.67-1.75-8-.51-9.8.11a1 1 0 0 1-.32.06zM206.51 140.31h-.16a1 1 0 0 1-.83-1.14 2.07 2.07 0 0 0-1.75-2.24 2 2 0 0 0-2.37 1.51 1.018 1.018 0 1 1-2-.38 4.1 4.1 0 0 1 8.07 1.42 1 1 0 0 1-.96.83z"/>
            <path fill="#00835E" fill-rule="nonzero" d="M215.18 155.33a6.34 6.34 0 0 1-2.17-.42 11.37 11.37 0 0 1-4-2.87 1 1 0 1 1 1.43-1.4 9.64 9.64 0 0 0 3.25 2.39 3 3 0 0 0 2.5.05 2.63 2.63 0 0 0 1.07-1.64 1 1 0 0 1 .14-.41 1 1 0 0 1 1.07-.45c2.15.48 4.26 0 5.13-1.18.87-1.18.33-2.37-.19-3.29-1.81-3.41-14.29-2.36-16.36-1.94a1 1 0 0 1-1.2-.6 3.52 3.52 0 0 0-6-1.07 1 1 0 0 1-.71.34 1 1 0 0 1-.62-.19c-2.22-1.39-12.56-6-14.84-3.71a3.12 3.12 0 0 0-1.27 3.09c.38 1.26 1.9 2.29 3.78 2.57a1 1 0 0 1 .74.52 1 1 0 0 1 .09.68 2.55 2.55 0 0 0 .33 1.93 2.59 2.59 0 0 0 2.06.73 9.12 9.12 0 0 0 3.72-1 1 1 0 0 1 .85 1.81 11.13 11.13 0 0 1-4.5 1.23h-.1a4.45 4.45 0 0 1-3.58-1.47 4.07 4.07 0 0 1-.83-2.6 6.08 6.08 0 0 1-4.47-3.78c-.31-1-.49-3 1.8-5.11a4.78 4.78 0 0 1 3.48-1.2h.08c4.3 0 10.76 3 13.09 4.3a5.49 5.49 0 0 1 8.38 1.51 52.6 52.6 0 0 1 10.62-.25c3.89.42 6.24 1.49 7.19 3.28 1.52 2.73.67 4.58 0 5.44-1.21 1.62-3.64 2.41-6.25 2.09a6.36 6.36 0 0 1-.54 1 3.84 3.84 0 0 1-3.17 1.62z"/>
            <path fill="#00835E" fill-rule="nonzero" d="M199 164.62a2.73 2.73 0 0 1-.52 0 4.62 4.62 0 0 1-2.73-2.28 16 16 0 0 1-1.89-11.2c1.18-5 4.44-7.51 8.73-6.73 3.41.62 6.71 3.43 5.72 9.48a16 16 0 0 1-6.21 9.57 5.69 5.69 0 0 1-3.1 1.16zm2.11-18.39c-2.62 0-4.49 1.85-5.31 5.33a14 14 0 0 0 1.63 9.67 2.93 2.93 0 0 0 1.43 1.39 3.34 3.34 0 0 0 2.08-.84 14.05 14.05 0 0 0 5.38-8.24c.65-4-.84-6.6-4.1-7.19a6.25 6.25 0 0 0-1.11-.12zM202 137a1 1 0 0 1-.88-.52 578.345 578.345 0 0 0-2-3.59 1.012 1.012 0 1 1 1.76-1c.667 1.18 1.333 2.373 2 3.58A1 1 0 0 1 202 137zM205.41 137.6a1 1 0 0 1-.66-1.75 316.146 316.146 0 0 0 3.06-2.74 1.002 1.002 0 1 1 1.35 1.48c-1.013.92-2.04 1.84-3.08 2.76a1 1 0 0 1-.67.25z"/>
            <path fill="#00835E" fill-rule="nonzero" d="M190.6 160.35a1 1 0 0 1-.72-.31c-1.64-1.72-2.28-3.47-1.89-5.2.7-3.14 4.58-5.07 6.83-5.94a1 1 0 0 0-.51 1.05l2-.32a1 1 0 0 1-.74 1.13c-3.15 1.22-5.25 2.91-5.6 4.51-.23 1 .24 2.17 1.39 3.38a1 1 0 0 1-.76 1.7zM208.06 163.78a1 1 0 0 1-.38-1.92c1.7-.71 2.65-1.62 2.83-2.71.33-2-1.66-4.53-3.63-6.28a1.06 1.06 0 0 1-.18-1.39l1.59 1.21-.79-.61.68-.73c1.5 1.34 4.87 4.75 4.31 8.13-.3 1.82-1.66 3.24-4 4.22a1 1 0 0 1-.43.08zM177 159h-11a1 1 0 1 1 0-2h11a1 1 0 1 1 0 2z"/>
            <path fill="#FAFAF5" fill-rule="nonzero" d="M182 163h-19a1 1 0 1 1 0-2h19a1 1 0 1 1 0 2zM178 171h-19a1 1 0 1 1 0-2h19a1 1 0 1 1 0 2zM173 167h-12a1 1 0 1 1 0-2h12a1 1 0 1 1 0 2z"/>
        </g>
        <g transform="translate(528 184)">
            <path fill="#00835E" d="M124 320s124-41.63 124-160S124 0 124 0 0 41.63 0 160s124 160 124 160z"/>
            <path fill="#00835E" fill-rule="nonzero" d="M22.59 51h167.08v144.91H22.59z"/>
            <path fill="#00CC92" fill-rule="nonzero" d="M12.73 46h198.9v8H12.73zM165 74h38.75v8H165z"/>
            <path fill="#FAFAF5" fill-rule="nonzero" d="M204.75 83H164V73h40.75v10zM166 81h36.75v-6H166v6z"/>
            <path fill="#00CC92" fill-rule="nonzero" d="M145 138h38.75v8H145z"/>
            <path fill="#FAFAF5" fill-rule="nonzero" d="M184.75 147H144v-10h40.75v10zM146 145h36.75v-6H146v6z"/>
            <path fill="#FAFAF5" fill-rule="nonzero" d="M235.5 199.91H18.59V53h211.57a1 1 0 1 1 0 2H20.59v142.91H235.5a1 1 0 1 1 0 2z"/>
            <path fill="#00CC92" fill-rule="nonzero" d="M86.14 94.71a1 1 0 0 1-1-1c0-4.79-4.46-8.69-10-8.69s-10 3.9-10 8.69a1 1 0 0 1-2 0c0-5.89 5.36-10.69 12-10.69s12 4.8 12 10.69a1 1 0 0 1-1 1zM32.25 135.71a13.32 13.32 0 0 1-7.9-2.29 1 1 0 0 1 1.16-1.63c2.3 1.64 5.36 2.23 9.09 1.77 3.49-.43 7.7-2.38 12.53-5.79a1 1 0 0 1 1.15 1.63c-5.1 3.6-9.62 5.67-13.44 6.14-.86.11-1.724.166-2.59.17z"/>
            <path fill="#00CC92" fill-rule="nonzero" d="M118.3 135.73a21.35 21.35 0 0 1-2.6-.17c-3.81-.47-8.33-2.54-13.44-6.15a1 1 0 0 1 1.15-1.63c4.84 3.42 9.05 5.37 12.53 5.79 4.08.5 7.34-.25 9.71-2.25 3.76-3.17 4.06-8.51 4.06-8.56a1 1 0 0 1 1-1c8.48-.23 16.39-4.53 19.24-10.45 1.9-4 1.29-8.2-1.78-12.25-7.2-9.5-45 .79-59 5.56a1 1 0 0 1-1.18-.42 15.08 15.08 0 0 0-25.32 0 1 1 0 0 1-1.18.42c-.2-.07-19.78-6.73-36.58-8.88a1.008 1.008 0 0 1 .25-2c15.15 1.93 32.49 7.48 36.24 8.72a17.11 17.11 0 0 1 27.86 0c6.58-2.19 51.5-16.54 60.53-4.63 3.5 4.62 4.21 9.71 2 14.32-3.05 6.36-11.24 11-20.1 11.55a14.69 14.69 0 0 1-4.66 9.07 13 13 0 0 1-8.73 2.96z"/>
            <path fill="#00CC92" fill-rule="nonzero" d="M75.19 178.09c-8.52 0-22.07-21.83-22.07-40 0-23 15.44-25.5 22.07-25.5 6.63 0 22.07 2.48 22.07 25.5.01 18.17-13.55 40-22.07 40zm0-63.48c-12.76 0-20.07 8.57-20.07 23.5 0 17.48 13.27 38 20.07 38 6.8 0 20.07-20.5 20.07-38 .01-14.94-7.31-23.51-20.07-23.51v.01zM68.23 86.39a1 1 0 0 1-.76-.39l-9.41-11a1 1 0 0 1 1.52-1.3l9.41 11a1 1 0 0 1-.76 1.69zM80.77 86.39a1 1 0 0 1-.77-1.65l9.4-11a1 1 0 0 1 1.52 1.3l-9.4 11a1 1 0 0 1-.75.35z"/>
            <path fill="#00CC92" fill-rule="nonzero" d="M46.9 168.71a1 1 0 0 1-.59-.2c-6.53-4.83-9.66-10.14-9.3-15.8.75-11.77 16.31-20.56 17-20.93a1.008 1.008 0 0 1 1 1.75c-.15.08-15.26 8.63-15.95 19.31-.31 4.94 2.54 9.67 8.49 14.06a1 1 0 0 1-.65 1.81zM103.54 168.71a1 1 0 0 1-.59-1.8c5.95-4.39 8.8-9.12 8.49-14.06-.68-10.68-15.79-19.23-15.95-19.31a1.008 1.008 0 0 1 1-1.75c.66.37 16.21 9.16 17 20.93.36 5.66-2.77 11-9.3 15.8a1 1 0 0 1-.65.19zM98.11 101.45a1 1 0 0 1-1-1.31c1.48-4.57-.52-8.92-5.94-12.92a1.001 1.001 0 0 1 1.19-1.61c6.19 4.57 8.43 9.67 6.65 15.15a1 1 0 0 1-.9.69zM52 101.72a1 1 0 0 1-.94-.67c-2-5.59.25-10.78 6.56-15.43a1.001 1.001 0 1 1 1.19 1.61c-5.52 4.07-7.49 8.5-5.86 13.16a1 1 0 0 1-.95 1.33z"/>
            <path fill="#FAFAF5" fill-rule="nonzero" d="M11.59 55a1 1 0 0 1-1-1v-9H235.5a1 1 0 1 1 0 2H12.59v7a1 1 0 0 1-1 1z"/>
            <circle cx="117.37" cy="96.23" r="8" fill="#00CC92" fill-rule="nonzero"/>
            <path fill="#FAFAF5" fill-rule="nonzero" d="M117.37 105.23a9 9 0 1 1 0-18 9 9 0 0 1 0 18zm0-16a7 7 0 1 0 0 14 7 7 0 0 0 0-14z"/>
            <circle cx="202.67" cy="141.9" r="4.1" fill="#FAFAF5" fill-rule="nonzero"/>
            <circle cx="215.35" cy="141.9" r="4.1" fill="#FAFAF5" fill-rule="nonzero"/>
            <circle cx="228.04" cy="141.9" r="4.1" fill="#00CC92" fill-rule="nonzero"/>
            <circle cx="202.67" cy="155" r="4.1" fill="#FAFAF5" fill-rule="nonzero"/>
            <circle cx="215.35" cy="155" r="4.1" fill="#00CC92" fill-rule="nonzero"/>
            <circle cx="228.04" cy="155" r="4.1" fill="#FAFAF5" fill-rule="nonzero"/>
            <circle cx="202.67" cy="168.1" r="4.1" fill="#FAFAF5" fill-rule="nonzero"/>
            <circle cx="215.35" cy="168.1" r="4.1" fill="#00CC92" fill-rule="nonzero"/>
            <circle cx="228.04" cy="168.1" r="4.1" fill="#00CC92" fill-rule="nonzero"/>
            <circle cx="112.46" cy="155" r="8" fill="#00CC92" fill-rule="nonzero"/>
            <path fill="#FAFAF5" fill-rule="nonzero" d="M112.46 164a9 9 0 1 1 0-18 9 9 0 0 1 0 18zm0-16a7 7 0 1 0 0 14 7 7 0 0 0 0-14zM122.73 91.3a1 1 0 0 1-.7-1.71L134.77 77H165a1 1 0 1 1 0 2h-29.41l-12.16 12a1 1 0 0 1-.7.3zM203.75 89h-38.66a1 1 0 1 1 0-2h38.66a1 1 0 1 1 0 2zM183.75 153h-38.66a1 1 0 1 1 0-2h38.66a1 1 0 1 1 0 2zM174.42 159h-29.33a1 1 0 1 1 0-2h29.33a1 1 0 1 1 0 2zM179.71 165h-34.62a1 1 0 1 1 0-2h34.62a1 1 0 1 1 0 2zM183.75 171h-38.66a1 1 0 1 1 0-2h38.66a1 1 0 1 1 0 2zM174.42 177h-29.33a1 1 0 1 1 0-2h29.33a1 1 0 1 1 0 2zM194.32 95h-29.23a1 1 0 1 1 0-2h29.24a1 1 0 0 1-.01 2zM198.77 101h-33.68a1 1 0 1 1 0-2h33.69a1 1 0 0 1-.01 2zM183.75 107h-18.66a1 1 0 1 1 0-2h18.66a1 1 0 1 1 0 2z"/>
            <path fill="#FAFAF5" fill-rule="nonzero" d="M118.28 150.53a1 1 0 0 1-.71-1.71l7.83-7.82H145a1 1 0 1 1 0 2h-18.77l-7.23 7.24a1 1 0 0 1-.72.29z"/>
            <path fill="#00CC92" fill-rule="nonzero" d="M141.67 203.91v39.75l-31.78 15.71a2 2 0 0 0 .89 3.79h70.33a2 2 0 0 0 .89-3.79l-31.78-15.71v-39.75"/>
            <path fill="#00CC92" fill-rule="nonzero" d="M134 231H29a1 1 0 1 1 0-2h105a1 1 0 1 1 0 2zM246.6 231H151a1 1 0 1 1 0-2h95.6a1 1 0 1 1 0 2z"/>
        </g>
        <g transform="translate(264 24)">
            <path fill="#FAFAF5" d="M124 320s124-41.63 124-160S124 0 124 0 0 41.63 0 160s124 160 124 160z"/>
            <path fill="#00CC92" fill-rule="nonzero" d="M130.49 172a32 32 0 0 0-9.54 1.37c-.58 22.87-6.34 40.89-13.88 52.9 5.87 15.92 16.4 29.36 23.42 29.36 6.21 0 15.18-10.53 21.22-24-9.47-11.83-17.24-32.29-17.71-59.47-1.15-.06-2.32-.16-3.51-.16zM210 245a1 1 0 0 1-1-1V79.86a18.68 18.68 0 0 0-14.24-18.18 1 1 0 0 1 .48-1.94A20.68 20.68 0 0 1 211 79.86V244a1 1 0 0 1-1 1z"/>
            <path fill="#00835E" fill-rule="nonzero" d="M38 295a1 1 0 0 1-1-1V79.86a20.34 20.34 0 0 1 15.77-20 1 1 0 0 1 .48 1.94A18.37 18.37 0 0 0 39 79.86V294a1 1 0 0 1-1 1z"/>
            <path fill="#00CC92" d="M56 39v21.19c0 11.43 32 20.7 71 20.7s71-9.27 71-20.7V39H56z"/>
            <path fill="#00835E" fill-rule="nonzero" d="M124 81.89c-40.37 0-72-9.53-72-21.7V38h144v22.19c0 12.17-31.63 21.7-72 21.7zM54 40v20.19c0 10.68 32.06 19.7 70 19.7s70-9 70-19.7V40H54z"/>
            <path fill="#00835E" d="M210 118.12c0-4.8-4.65-9.29-12.7-13.1v26.19h12.6l.1-13.09z"/>
            <path fill="#00835E" fill-rule="nonzero" d="M210.89 132.22H196.3v-28.78l1.43.68c8.68 4.11 13.27 8.95 13.27 14l-.11 14.1zm-12.59-2h10.6l.1-12.1c0-4-3.69-7.92-10.7-11.49v23.59z"/>
            <ellipse cx="124" cy="39.15" fill="#FAFAF5" fill-rule="nonzero" rx="71" ry="20.7"/>
            <path fill="#00835E" fill-rule="nonzero" d="M124 60.86c-40.37 0-72-9.53-72-21.7s31.63-21.7 72-21.7c40.37 0 72 9.53 72 21.7s-31.63 21.7-72 21.7zm0-41.41c-37.94 0-70 9-70 19.7s32.06 19.7 70 19.7 70-9 70-19.7-32.06-19.7-70-19.7z"/>
            <path fill="#00CC92" fill-rule="nonzero" d="M192.55 282.24a1 1 0 0 1-.36-.07c-2.25-.87-4.74-1.7-7.37-2.48s-5.64-1.55-8.69-2.24a1.024 1.024 0 1 1 .44-2c3.1.69 6.06 1.46 8.82 2.27 2.76.81 5.22 1.65 7.53 2.54a1.007 1.007 0 1 1-.37 1.98zM171.86 276.53h-.19a165.045 165.045 0 0 0-3.51-.65 1.015 1.015 0 1 1 .35-2c1.2.213 2.383.433 3.55.66a1 1 0 0 1-.2 1.99zM163.46 275.08h-.15a268.28 268.28 0 0 0-39.31-2.79 1 1 0 1 1 0-2 266.49 266.49 0 0 1 39.61 2.8 1 1 0 0 1-.15 1.99zM82.83 275.35a1.003 1.003 0 0 1-.16-2c6.85-1.09 14.17-1.91 21.76-2.42a1 1 0 0 1 1.07.93 1 1 0 0 1-.93 1.07c-7.53.51-14.79 1.32-21.58 2.4h-.16v.02zM66.32 278.77a1.008 1.008 0 1 1-.25-2c3.42-.9 7.1-1.73 10.94-2.46a1.017 1.017 0 1 1 .37 2c-3.8.72-7.43 1.54-10.8 2.43a1 1 0 0 1-.26.03z"/>
            <path fill="#00CC92" d="M213 116.12c0 7.31-10.75 13.88-27.9 18.45v74.78c17.15-4.57 27.9-11.14 27.9-18.45v-74.78z"/>
            <path fill="#00835E" fill-rule="nonzero" d="M181.1 212.65V135.8l.74-.2c17.26-4.6 27.16-11 27.16-17.48h2v74.78c0 7.6-10.17 14.49-28.64 19.42l-1.26.33zm2-75.31V210c16.48-4.57 25.9-10.79 25.9-17.14v-69.02c-3.73 5.21-12.61 9.87-25.9 13.5zM57 94.4a1 1 0 0 1-.34-.06C43.87 89.69 37.11 84 37.11 77.78a1 1 0 0 1 2 0c0 5.19 6.48 10.41 18.24 14.69A1 1 0 0 1 57 94.4zM82.74 100.71h-.16c-4.07-.65-8-1.41-11.67-2.25a1.025 1.025 0 0 1 .45-2c3.63.83 7.52 1.58 11.54 2.22a1.018 1.018 0 1 1-.16 2.03zM124 103.79a274.33 274.33 0 0 1-34.14-2.05 1.008 1.008 0 1 1 .25-2 272.28 272.28 0 0 0 33.89 2 1.025 1.025 0 0 1 0 2.05z"/>
            <path fill="#00CC92" fill-rule="nonzero" d="M175.65 98.75a1.005 1.005 0 1 1-.21-2A117.19 117.19 0 0 0 191.91 92a1 1 0 0 1 .71 1.87 119.18 119.18 0 0 1-16.76 4.87l-.21.01zM199.64 90.59a1 1 0 0 1-.48-1.88 30.75 30.75 0 0 0 5.69-3.87c2.68-2.38 4-4.76 4-7.07a1 1 0 1 1 2 0c0 2.91-1.58 5.79-4.71 8.57a32.77 32.77 0 0 1-6.07 4.13 1 1 0 0 1-.43.12z"/>
            <path fill="#00835E" fill-rule="nonzero" d="M141.82 148.83a1 1 0 0 1-1-1c0-6.49-6-11.77-13.43-11.77S114 141.34 114 147.83a1 1 0 1 1-2 0c0-7.59 6.92-13.77 15.43-13.77s15.43 6.17 15.43 13.77a1 1 0 0 1-1.04 1z"/>
            <path fill="#00835E" fill-rule="nonzero" d="M84.42 244.3c-7.19 0-12.82-5.39-15.63-15.1-4.08-14.14 1.63-30.94 16.51-48.6a155.86 155.86 0 0 1 23.64-22.42A22.6 22.6 0 0 1 127.48 148 22.6 22.6 0 0 1 146 158.18c2.22 1.66 26.8 20.4 37 42.82a1 1 0 0 1-1.82.83c-10.39-22.89-36.24-42-36.5-42.15a1 1 0 0 1-.26-.28 20 20 0 0 0-33.89 0 1 1 0 0 1-.26.28c-.49.36-49 36.28-39.57 69 2.77 9.6 8.45 14.54 15.57 13.52 13.6-1.92 33.71-26.31 33.71-72.54 0-.32.14-7.14-5.38-8.66a1 1 0 1 1 .53-1.93c5.64 1.55 6.95 7.63 6.85 10.62 0 42.9-18.39 72.07-35.43 74.49-.706.09-1.418.13-2.13.12z"/>
            <path fill="#00835E" fill-rule="nonzero" d="M170.56 244.3c-.72 0-1.438-.05-2.15-.15-17-2.41-35.43-31.59-35.43-74.52-.1-3 1.21-9 6.85-10.59a1 1 0 0 1 .53 1.93c-5.53 1.52-5.39 8.34-5.38 8.63 0 46.26 20.12 70.65 33.71 72.57 7.12 1 12.8-3.92 15.57-13.52a32.34 32.34 0 0 0 1.1-11.81 1 1 0 0 1 .91-1.08 1 1 0 0 1 1.08.91 34.3 34.3 0 0 1-1.17 12.53c-2.8 9.71-8.43 15.1-15.62 15.1z"/>
            <path fill="#00835E" fill-rule="nonzero" d="M134 173.66h-.2a34.59 34.59 0 0 0-12.65 0 1.018 1.018 0 1 1-.38-2 36.63 36.63 0 0 1 13.42 0 1.005 1.005 0 1 1-.19 2zM127.39 256.67c-6.87 0-15.32-10.76-20.65-21.43a1 1 0 1 1 1.79-.89c6 12 13.74 20.32 18.86 20.32 5.12 0 12.93-8.4 18.91-20.43a1 1 0 1 1 1.79.89c-5.33 10.72-13.8 21.54-20.7 21.54zM118.21 137.87a1 1 0 0 1-.76-.35l-12.39-14.45a1 1 0 0 1 1.52-1.3L119 136.22a1 1 0 0 1-.79 1.65zM134.73 137.87a1 1 0 0 1-.76-1.65l12.39-14.45a1 1 0 0 1 1.52 1.3l-12.39 14.45a1 1 0 0 1-.76.35zM100.79 251a1 1 0 0 1-.59-.2c-4.11-3-6.81-6.3-8-9.72a1 1 0 0 1 1.88-.67c1.09 3 3.56 6 7.34 8.78a1 1 0 0 1-.63 1.81zM154.12 251a1 1 0 0 1-.59-1.8c3.78-2.79 6.25-5.75 7.34-8.78a1 1 0 0 1 1.88.67c-1.22 3.42-3.93 6.68-8 9.72a1 1 0 0 1-.63.19zM152.28 165.59a1 1 0 0 1-.78-1.63c3.06-3.79 4.38-7.5 3.93-11-.5-3.87-3.16-7.62-7.91-11.13a1.001 1.001 0 1 1 1.19-1.61c5.21 3.84 8.13 8 8.7 12.48.53 4.09-.94 8.31-4.36 12.54a1 1 0 0 1-.77.35zM102.64 165.59a1 1 0 0 1-.78-.37c-3.42-4.22-4.86-8.45-4.36-12.54.57-4.44 3.5-8.64 8.7-12.48a1.001 1.001 0 1 1 1.19 1.61c-4.75 3.51-7.41 7.25-7.9 11.13-.45 3.53.87 7.24 3.93 11a1 1 0 0 1-.78 1.65z"/>
            <path fill="#00CC92" fill-rule="nonzero" d="M84.42 228a1.09 1.09 0 0 1-1-1.12c.51-32.09 26.94-60.1 27.2-60.38a1 1 0 0 1 1.41-.06 1 1 0 0 1 0 1.4c-.26.27-26.15 27.78-26.65 59.07a1.09 1.09 0 0 1-.96 1.09z"/>
            <path fill="#00CC92" fill-rule="nonzero" d="M103.66 200.62a1 1 0 0 1-.52-.14c-5.24-3.18-6.93-6.74-7.42-9.18a8.93 8.93 0 0 1 .25-4.76 1 1 0 1 1 1.86.74c-.1.26-2.28 6.25 6.35 11.49a1 1 0 0 1-.52 1.85zM78.37 213.83a9.42 9.42 0 0 1-1.33-.09 1.01 1.01 0 1 1 .28-2c6.37.89 10.2-7.08 10.23-7.17a1 1 0 0 1 1.81.85c-.16.38-3.99 8.41-10.99 8.41zM169.11 228a1.09 1.09 0 0 1-1-1.08c-.5-31.31-26.39-58.76-26.65-59a1 1 0 0 1 0-1.44 1 1 0 0 1 1.41 0c.27.28 26.7 28.34 27.21 60.43a1.08 1.08 0 0 1-1 1.11l.03-.02z"/>
            <path fill="#00CC92" fill-rule="nonzero" d="M149.87 200.62a1 1 0 0 1-.52-1.86c8.64-5.24 6.45-11.23 6.35-11.49a1 1 0 0 1 1.86-.74c0 .08 3 7.78-7.17 13.94a1 1 0 0 1-.52.15zM175.16 213.83c-7 0-10.83-8-11-8.39a1 1 0 0 1 1.81-.85c0 .08 3.87 8.08 10.23 7.17a1.01 1.01 0 0 1 .28 2 9.41 9.41 0 0 1-1.32.07z"/>
            <path fill="#00835E" fill-rule="nonzero" d="M38 127H1a1 1 0 1 1 0-2h37a1 1 0 1 1 0 2z"/>
            <path fill="#00CC92" fill-rule="nonzero" d="M53 127h-9a1 1 0 1 1 0-2h9a1 1 0 1 1 0 2zM61 127h-3a1 1 0 1 1 0-2h3a1 1 0 1 1 0 2z"/>
            <path fill="#00835E" fill-rule="nonzero" d="M247 127h-26a1 1 0 1 1 0-2h26a1 1 0 1 1 0 2z"/>
        </g>
        <g transform="translate(0 104)">
            <path fill="#00835E" d="M124 320s124-41.63 124-160S124 0 124 0 0 41.63 0 160s124 160 124 160z"/>
            <path fill="#00CC92" fill-rule="nonzero" d="M32.99 258.28l2.09 11.85 89.66-78.63-12.49-2.14zM59.16 181.42a1.005 1.005 0 0 1-.2-2c13.13-2.67 27-5.13 41.16-7.31a1.011 1.011 0 1 1 .3 2c-14.15 2.17-28 4.63-41.06 7.29l-.2.02z"/>
            <path fill="#00835E" fill-rule="nonzero" d="M122.24 204.88c3.75 9.74 11.55 20.87 29.06 29.3 30.21 14.55 55.76 23.39 53.19 44.72-2.57 21.33 19.66 16.66 19.66 16.66S248 291.77 248 266.34c0-19.58-5.8-37.58-22.24-56.46-16-18.42 15.53-52.26 8-71.8"/>
            <path fill="#00CC92" fill-rule="nonzero" d="M226.2 211.58a1 1 0 0 1-.76-.35c-9.09-10.61-3.36-25.84 2.19-40.57 4.44-11.77 8.63-22.89 5.46-31.22a1 1 0 0 1 1.87-.71c3.43 9-.89 20.5-5.46 32.64-5.34 14.18-10.87 28.85-2.55 38.56a1 1 0 0 1-.75 1.65z"/>
            <path fill="#FAFAF5" fill-rule="nonzero" d="M219.84 297.34c-3.51 0-8.16-.69-11.52-3.75-3.36-3.06-4.73-7.94-4-14.4 2.14-18-16.92-27-41-38.47-3.41-1.62-6.94-3.29-10.53-5.05-14.43-7.06-24.18-17.06-29-29.72a1 1 0 0 1 1.87-.71c4.68 12.34 13.84 21.71 28 28.63 3.58 1.75 7.1 3.42 10.51 5 24.85 11.8 44.48 21.12 42.17 40.51-.69 5.78.43 10 3.32 12.68 5.23 4.77 14.65 2.83 14.75 2.81a1.022 1.022 0 1 1 .42 2 25.9 25.9 0 0 1-4.99.47z"/>
            <path fill="#FAFAF5" fill-rule="nonzero" d="M214.36 286.91a1 1 0 0 1-1-.75 26 26 0 0 1-.47-8.95c1.75-18-13-26.63-33.41-38.53-2.78-1.62-5.66-3.3-8.58-5.05a52.34 52.34 0 0 1-20.09-21 1.002 1.002 0 1 1 1.78-.92A50.36 50.36 0 0 0 172 231.92c2.92 1.75 5.78 3.42 8.56 5 20.26 11.81 36.27 21.14 34.39 40.45a24.07 24.07 0 0 0 .42 8.25 1 1 0 0 1-.72 1.22 1 1 0 0 1-.29.07z"/>
            <path fill="#00CC92" d="M121.42 194.61c14.49 4.33 38.44-.65 61.82-14.15C215 162.12 233.69 135 225 119.92c-8.69-15.08-41.53-12.47-73.29 5.87-31.76 18.34-50.47 45.44-41.71 60.53a15.47 15.47 0 0 0 2.3 3"/>
            <path fill="#FAFAF5" fill-rule="nonzero" d="M133 197.12a41.62 41.62 0 0 1-11.87-1.56 1.001 1.001 0 0 1 .57-1.92c14.68 4.39 38.64-1.13 61-14.06 15.24-8.8 27.92-19.87 35.72-31.19 7.65-11.1 9.65-21 5.64-28-4.01-7-13.62-10.18-27.06-9.1-13.7 1.1-29.63 6.55-44.87 15.34-31.23 18-49.79 44.58-41.36 59.17a14.51 14.51 0 0 0 2.15 2.84 1 1 0 1 1-1.44 1.39 16.54 16.54 0 0 1-2.45-3.24c-9-15.55 9.91-43.32 42.1-61.9 15.49-8.94 31.72-14.48 45.71-15.6 14.25-1.14 24.53 2.44 28.95 10.1 4.42 7.66 2.38 18.35-5.73 30.12-8 11.55-20.88 22.84-36.37 31.78-17.53 10.18-36.13 15.83-50.69 15.83z"/>
            <ellipse cx="167.627" cy="153.791" fill="#00835E" fill-rule="nonzero" rx="52.25" ry="22.1" transform="rotate(-30 167.627 153.791)"/>
            <path fill="#FAFAF5" fill-rule="nonzero" d="M134.69 184c-7.87 0-13.44-2.3-16-6.68-3.56-6.17-.46-15.58 8.52-25.83a1 1 0 0 1 1.5 1.32c-8.37 9.56-11.4 18.13-8.29 23.51 2.75 4.76 10 6.63 20.46 5.25 10.75-1.42 23.44-6.11 35.74-13.21 25.15-14.52 40.85-34.57 35-44.69-5.85-10.12-31.06-6.55-56.2 8a1 1 0 0 1-1-1.73c26.54-15.33 52.43-18.5 58.94-7.24 6.51 11.26-9.19 32.1-35.73 47.42-12.52 7.23-25.48 12-36.48 13.46-2.142.28-4.3.42-6.46.42zM19.33 271.13a1 1 0 0 1-.66-1.75l95.43-83a6 6 0 0 1 8.58.64 1 1 0 1 1-1.53 1.29A4 4 0 0 0 119 187a4 4 0 0 0-3.54.91L20 270.88a1 1 0 0 1-.67.25z"/>
            <path fill="#FFF" fill-rule="nonzero" d="M69.52 67.59a1 1 0 0 1-.91-1.42 3.74 3.74 0 0 0 0-3.11 5.23 5.23 0 0 0-6.11-2.81 3.74 3.74 0 0 0-2.38 2 1 1 0 0 1-1.82-.83 5.71 5.71 0 0 1 3.62-3.08 7.22 7.22 0 0 1 8.51 3.91 5.72 5.72 0 0 1 0 4.75 1 1 0 0 1-.91.59z"/>
            <path fill="#00CC92" fill-rule="nonzero" d="M61.68 106.29a1.005 1.005 0 0 1-.2-2c3.59-.75 5.85-2.26 6.71-4.5 1.9-5-3.22-12-3.28-12.12a1 1 0 0 1 1.61-1.18c.24.33 5.82 8.06 3.53 14-1.12 2.91-3.87 4.84-8.17 5.74l-.2.06z"/>
            <path fill="#00835E" d="M69.83 86.68a16 16 0 0 0 4.83 5.64C81 96.25 84.24 90 84.24 90c6.84 2.92 15.58.22 13.87-7.52C96.4 74.74 68.59 71.9 68.59 71.9A8.35 8.35 0 0 0 55.84 66S35.58 46.75 28.59 50.49c-6.99 3.74-3.35 12.15 3.32 15.44 0 0-2.66 6.52 4.47 8.79a16 16 0 0 0 7.42 0"/>
            <path fill="#FFF" fill-rule="nonzero" d="M78.69 94.62a8.68 8.68 0 0 1-4.55-1.45 16.77 16.77 0 0 1-5.17-6 1 1 0 0 1 1.73-1 14.9 14.9 0 0 0 4.49 5.29 5.89 5.89 0 0 0 4.68 1 6.37 6.37 0 0 0 3.48-2.92 1 1 0 0 1 1.28-.46c3.83 1.64 8.4 1.35 10.85-.69a5.42 5.42 0 0 0 1.65-5.69c-.35-1.58-2.71-4.63-14.64-7.43a127.24 127.24 0 0 0-14-2.38 1 1 0 0 1-.89-.89 7.35 7.35 0 0 0-11.21-5.15 1 1 0 0 1-1.25-.11 127.24 127.24 0 0 0-10.92-9.1c-9.88-7.24-13.74-7-15.16-6.29a5.43 5.43 0 0 0-3.25 5c.05 3.19 2.8 6.85 6.54 8.69a1 1 0 0 1 .48 1.27 6.39 6.39 0 0 0 .05 4.55 5.88 5.88 0 0 0 3.8 2.91 14.88 14.88 0 0 0 6.94 0 1.017 1.017 0 0 1 .37 2 16.73 16.73 0 0 1-7.91 0 7.77 7.77 0 0 1-5-4 8 8 0 0 1-.36-5.27c-4-2.29-6.83-6.32-6.9-10a7.41 7.41 0 0 1 4.3-6.77c7-3.73 24.06 11.65 27.85 15.18A9.38 9.38 0 0 1 69.45 71c5.14.58 27.94 3.57 29.64 11.28a7.4 7.4 0 0 1-2.33 7.67c-2.87 2.38-7.75 2.88-12.12 1.3a8 8 0 0 1-4.22 3.15 6.45 6.45 0 0 1-1.73.22z"/>
            <path fill="#00CC92" d="M66.67 90.75c-3.8 8.27-14.76 15.5-18.4 13.83-3.64-1.67-5.29-14.7-1.49-23s9.77-9.52 15.26-7c5.49 2.52 8.43 7.89 4.63 16.17z"/>
            <path fill="#FFF" fill-rule="nonzero" d="M47.53 104.81a4 4 0 0 1-1.69-.33c-4.57-2.1-5.71-16.18-2-24.3 3.59-7.81 9.79-10.61 16.59-7.48a11.43 11.43 0 0 1 6.33 6.49c1.11 3.14.7 6.83-1.21 11a30.07 30.07 0 0 1-9.59 11c-3.24 2.36-6.25 3.62-8.43 3.62zm7.55-31.38c-3.85 0-7.1 2.58-9.4 7.59-3.83 8.34-1.7 20.41 1 21.65 1.13.52 4.16-.23 8.14-3.09a28 28 0 0 0 8.93-10.25c1.68-3.66 2.06-6.85 1.14-9.47a9.49 9.49 0 0 0-5.28-5.34 10.87 10.87 0 0 0-4.53-1.09zM62.87 59.78a1 1 0 0 1-1-.73l-2.06-7.22a1 1 0 0 1 1.92-.55l2.06 7.22a1 1 0 0 1-.92 1.28zM68.79 62.5a1 1 0 0 1-.42-1.91l6.82-3.14a1 1 0 0 1 .81 1.82l-6.82 3.14a1 1 0 0 1-.39.09z"/>
            <path fill="#FFF" fill-rule="nonzero" d="M34.94 94a1 1 0 0 1-.88-.52c-2.12-3.85-2.44-7.19-1-9.94 3-5.62 12.53-6.42 12.94-6.45a1.003 1.003 0 0 1 .16 2c-.09 0-8.82.75-11.33 5.41-1.14 2.11-.81 4.81 1 8a1 1 0 0 1-.89 1.5z"/>
            <path fill="#00CC92" fill-rule="nonzero" d="M136.39 108.13a1 1 0 0 1-.72-.31 88.76 88.76 0 0 1-9.41-12.32l-1.48-2.25 2.59.75c2.1.6 4.16.28 4.79-.73.63-1.01-.23-3.15-2.4-5.51a90.81 90.81 0 0 1-9.89-14.17l-1.24-2.08 2.35.6c1.24.32 2.38.11 2.77-.5.39-.61.17-2.09-1.68-4.33-6.82-8.3-16.23-30.44-16.63-31.38a2.7 2.7 0 0 0-2.49-2.07 2.84 2.84 0 0 0-2.61 2v.09c-.71 1.39-6.54 13.68-8.24 15.72a1.001 1.001 0 1 1-1.54-1.28c1.29-1.55 6.12-11.49 7.9-15.25a4.81 4.81 0 0 1 4.48-3.3 4.67 4.67 0 0 1 4.35 3.34c.09.18 9.71 22.76 16.32 30.85 2.82 3.44 2.55 5.53 1.82 6.68a3.64 3.64 0 0 1-2.84 1.55 82.11 82.11 0 0 0 8.64 12.17c3.71 4 3.48 6.54 2.63 7.92-.85 1.38-2.58 2.06-4.66 2a79 79 0 0 0 7.91 10.14 1 1 0 0 1-.72 1.67z"/>
            <path fill="#00CC92" fill-rule="nonzero" d="M153.94 88.7a1 1 0 0 1-.72-.31 60.61 60.61 0 0 1-6.44-8.39l-1.48-2.25 2.59.73c1.42.4 2.59.13 2.9-.36.31-.49 0-1.6-1.6-3.37a62.1 62.1 0 0 1-6.77-9.7l-1.24-2.08 2.35.6a1.55 1.55 0 0 0 1.54-.2c.16-.25.11-1.08-1.12-2.57-4.67-5.69-11.09-20.8-11.37-21.44a1.55 1.55 0 0 0-1.4-1.22 1.61 1.61 0 0 0-1.48 1.16l-.06.13-10.24 19.38a1 1 0 1 1-1.77-.93l10.2-19.35a3.58 3.58 0 0 1 3.33-2.42 3.49 3.49 0 0 1 3.26 2.49c0 .1 6.56 15.43 11 20.89 2 2.49 1.81 4 1.26 4.92a2.64 2.64 0 0 1-1.68 1.12 53.88 53.88 0 0 0 5.59 7.83c2.66 2.9 2.46 4.74 1.83 5.77a3.53 3.53 0 0 1-2.85 1.49 51.34 51.34 0 0 0 5 6.37 1 1 0 0 1-.63 1.71zM8.47 148.65c-5.14 36.5 15.33 82.24 26.24 82.55 10.91.31 8.76-9.06 15-8.62 6.24.44 9.89-10.45 9.89-10.45 5.64.2 11.61-4.26 3.84-12.3A99.2 99.2 0 0 1 53 186.19c5.26 1.49 10.66-1.36 3.81-8.84-3.4-3.71-7.27-9.52-10.95-15.7 3.66.94 7.15-1.39 2.37-7.21-7.62-9.29-18.47-34.9-18.47-34.9-1.53-4.27-6.5-3.73-7.82 0 0 0-5.51 12.9-9.95 21.72l-3.52 7.39z"/>
            <path fill="#FAFAF5" fill-rule="nonzero" d="M61 213.14h-.42a1 1 0 1 1 .07-2c2.63.09 4.8-.9 5.53-2.53.89-2-.33-4.86-3.44-8.08a99.19 99.19 0 0 1-10.53-13.79 1 1 0 0 1 1.11-1.51c2.45.69 4.76.33 5.5-.87.74-1.2-.2-3.59-2.71-6.33-3.07-3.35-6.8-8.69-11.07-15.86a1 1 0 0 1 1.11-1.48c1.44.37 2.77.12 3.24-.61.61-1-.1-2.82-1.89-5-7.63-9.29-18.17-34.09-18.62-35.14a3.13 3.13 0 0 0-2.9-2.4 3.3 3.3 0 0 0-3 2.34c-.12.28-9.17 20.48-13.57 29.22a1.002 1.002 0 1 1-1.79-.9C12 139.5 21 119.34 21.07 119.14a5.24 5.24 0 0 1 4.89-3.6 5.12 5.12 0 0 1 4.77 3.67c.09.2 10.86 25.53 18.3 34.6 3.12 3.8 2.83 6.09 2 7.34a4 4 0 0 1-3.29 1.7 92.83 92.83 0 0 0 9.8 13.83c4.11 4.48 3.86 7.22 2.93 8.73-.93 1.51-3 2.29-5.35 2.16a89.51 89.51 0 0 0 9 11.58c4.76 4.92 4.71 8.31 3.83 10.28-.95 2.28-3.69 3.71-6.95 3.71zM50.72 223.65a8.45 8.45 0 0 1-3.44-.75 1.003 1.003 0 1 1 .82-1.83 5.43 5.43 0 0 0 6.07-.75c1.66-1.69 1.69-4.65.07-8.11a1 1 0 1 1 1.81-.85c2 4.26 1.83 8-.45 10.35a6.77 6.77 0 0 1-4.88 1.94zM35.71 232.25a23.68 23.68 0 0 1-6.71-1.17l-.25-.08a1 1 0 0 1-.69-.29 1 1 0 0 1-.17-1.24c.41-.7 1.08-.5 1.73-.3 5.15 1.54 8.79 1.41 10.84-.39 2.05-1.8 2.48-4.93 1.68-9.64a1.014 1.014 0 1 1 2-.34c.92 5.43.14 9.29-2.33 11.47a9 9 0 0 1-6.1 1.98z"/>
            <path fill="#00CC92" fill-rule="nonzero" d="M150.36 114.38a1 1 0 0 1-.69-1.72 59.94 59.94 0 0 0 7.22-9.13 5.57 5.57 0 0 1-4.6-2.65c-.53-1.06-1-3.31 2.1-6.4 2.07-2.09 4.75-5.85 8-11.19a3.85 3.85 0 0 1-2.39-2.07c-.45-1.07-.55-2.85 1.56-5.24 5.38-6.08 14.77-27.68 14.86-27.9a4.43 4.43 0 0 1 4.14-3 4.33 4.33 0 0 1 4 3.1c.07.15 8.78 20.65 14.8 28 2.6 3.17 2.34 5.1 1.66 6.17a3.35 3.35 0 0 1-2.5 1.43 74 74 0 0 0 7.76 10.92 1 1 0 0 1-1.44 1.3 82.54 82.54 0 0 1-9-12.89L194.61 81l2.35.6a2.32 2.32 0 0 0 2.42-.41c.34-.54.13-1.83-1.52-3.83-6.2-7.55-14.75-27.67-15.12-28.52a2.37 2.37 0 0 0-2.18-1.84 2.49 2.49 0 0 0-2.29 1.77c-.42 1-9.64 22.18-15.23 28.5-1.09 1.24-1.54 2.38-1.22 3.13a2.41 2.41 0 0 0 2.18 1.18l1.67.07-.86 1.44c-3.65 6.13-6.68 10.43-9 12.8-1.62 1.64-2.23 3.09-1.73 4.1.5 1.01 2.52 1.78 4.57 1.52l2.16-.27-1.2 1.82a68.4 68.4 0 0 1-8.55 11.05 1 1 0 0 1-.7.27z"/>
            <circle cx="98.34" cy="115" r="2" fill="#00CC92" fill-rule="nonzero"/>
            <circle cx="74.2" cy="125" r="2" fill="#FAFAF5" fill-rule="nonzero"/>
            <circle cx="86.45" cy="105.29" r="2" fill="#FAFAF5" fill-rule="nonzero"/>
            <circle cx="89.8" cy="140.6" r="2" fill="#00CC92" fill-rule="nonzero"/>
            <circle cx="59.16" cy="130.01" r="2" fill="#00CC92" fill-rule="nonzero"/>
            <circle cx="102.34" cy="134.29" r="2" fill="#FAFAF5" fill-rule="nonzero"/>
            <circle cx="92.01" cy="123" r="2" fill="#FAFAF5" fill-rule="nonzero"/>
            <circle cx="77.44" cy="144.57" r="2" fill="#00CC92" fill-rule="nonzero"/>
            <circle cx="107.21" cy="123" r="2" fill="#00CC92" fill-rule="nonzero"/>
            <circle cx="74.21" cy="157.27" r="2" fill="#FAFAF5" fill-rule="nonzero"/>
            <circle cx="86.46" cy="162.06" r="2" fill="#00CC92" fill-rule="nonzero"/>
        </g>
    </g>
</svg>
