<svg xmlns="http://www.w3.org/2000/svg" viewBox="0 0 352.86 191.65">
    <!-- Copyright 2017, Pixo -->
    <title>Pixo logo</title>
    <defs>
        <style>
            .dot { fill: #00b4ac; }
            .letter { fill: #444545; }
        </style>
    </defs>
    <g id="logo">
        <polygon class="dot" points="150.83 36.13 109.53 43.43 99.4 10.91 160.65 0 150.83 36.13"/>
        <g id="letters">
            <path id="letter-p" class="letter" d="M56.12,54.18A47,47,0,0,0,30.68,62l-.46-11.81L0,60,10,180A12.68,12.68,0,0,0,23.69,191.6h0a12.68,12.68,0,0,0,11.57-13.16l-1.1-28a46.89,46.89,0,0,0,22.94,5.74c26.94-.26,48.54-23.28,48.29-51.45S83,53.92,56.12,54.18Zm.62,78.16a21.9,21.9,0,1,1,21.9-21.9A21.9,21.9,0,0,1,56.74,132.35Z"/>
            <path id="letter-i" class="letter" d="M113.58,55.95l34.66-6-3.06,94.26a12.5,12.5,0,0,1-12.14,12h0a12.5,12.5,0,0,1-12.81-11.63Z"/>
            <path id="letter-x" class="letter" d="M225.79,104.1l37-48.06-35.59-6L207.83,78.8,191.46,55.75,156.87,61.6l34,42.42-21.81,32.47a12.62,12.62,0,0,0,20.48,14.73l19.18-24.94L229,151.56a12.44,12.44,0,0,0,19.85-15Z"/>
            <path id="letter-o" class="letter" d="M303.6,54.18c-26.92.25-48.57,23.27-48.3,51.43s22.33,50.78,49.27,50.52,48.54-23.28,48.29-51.45S330.52,53.92,303.6,54.18Zm.62,78.16a21.9,21.9,0,1,1,21.9-21.9A21.9,21.9,0,0,1,304.22,132.35Z"/>
        </g>
    </g>
</svg>