<svg xmlns="http://www.w3.org/2000/svg" width="272" height="60" viewBox="0 0 272 60">
    <g fill="none" fill-rule="evenodd">
        <path fill="#FAFAF5" d="M258 45c-3.414-1.71-10-6.107-10-14.566C248 19.016 260 15 260 15s12 4.016 12 15.434c0 8.459-6.586 12.855-10 14.566V25.294c0-1.14-.895-2.063-2-2.063-1.112 0-2 .924-2 2.063V45zM10 60C6.586 58.29 0 53.893 0 45.434 0 34.016 12 30 12 30s12 4.016 12 15.434C24 53.893 17.414 58.289 14 60V40.294c0-1.14-.895-2.063-2-2.063-1.112 0-2 .924-2 2.063V60z"/>
        <path fill="#00835D" d="M42 30c-3.414-1.71-10-6.107-10-14.566C32 4.016 44 0 44 0s12 4.016 12 15.434C56 23.893 49.414 28.289 46 30V10.294c0-1.14-.895-2.063-2-2.063-1.112 0-2 .924-2 2.063V30z"/>
    </g>
</svg>
