<svg xmlns="http://www.w3.org/2000/svg" width="1070" height="960" viewBox="0 0 1070 960">
    <g fill="none" fill-rule="evenodd">
        <path fill="#413A32" d="M877.736 704.784l-35.614-25.203c-14.769-10.452-19.31-30.986-10.74-46.85l1.928-3.307c1.813-3.113 2.88-4.948 3.323-5.716 9.721-14.822 29.168-20.105 44.941-11.885l39.084 20.367a2 2 0 1 0 1.846-3.547l-39.082-20.367c-17.512-9.126-39.062-3.355-49.832 12.77-.199.267-.255.363-.346.515l-.102.173c-.003.003-.005.008-.006.011l-.55.933c-.185.314-.378.517-.57.846-.204.347-.207.312-.258.311-.012.001-.024.168-.035.19-.015.036-.022.134-.034.17-.029.05-.057.128-.086.178-.48.826-1.061 1.84-1.75 3.022-.281.484-.542.908-.784 1.322-.033.051-.057.118-.09.118h-.003c-.038 0-.058.135-.113.228-.329.538-.62 1.054-.888 1.545-.43.737-.625 1.216-.816 1.545-.145.253-.158.262-.158.421v.002c0 .018-.111.053-.118.063.001-.001-.026-.001-.022-.002-.026.089-.077.255-.11.46-.023.049-.055.097-.076.145-7.85 17.242-2.554 38.495 13.143 49.603l35.61 25.205a2 2 0 1 0 2.308-3.265M908.051 194.855c.131.421.209.662.343 1.175.248.944.548 2.304.899 4.15 1.015 5.342 2.218 13.481 3.6 24.981 1.208 10.056 1.956 17.77 2.33 23.448.251 3.81.305 6.41.25 7.681 1.204 28.035 24.53 50.546 52.116 50.546h31.992a2 2 0 0 0 0-4h-31.992c-25.406 0-46.943-20.762-48.133-46.11.075-1.698.018-4.333-.242-8.275-.359-5.448-1.059-12.792-2.164-22.138l76.76-8.883a2.012 2.012 0 0 0 1.758-2.229 2.004 2.004 0 0 0-2.216-1.764l-76.779 8.855c-1.271-10.329-2.389-17.798-3.35-22.858-.367-1.93-.687-3.378-.96-4.419a15.546 15.546 0 0 0-.315-1.076c-4.754-24.989 11.125-50.012 35.707-56.078l30.405-7.502a2 2 0 1 0-.958-3.884l-30.405 7.503c-26.709 6.59-43.899 33.753-38.646 60.877"/>
        <path fill="#413A32" d="M824.891 773.906l-35.812-31.037c-14.174-12.284-35.95-11.08-48.667 2.695-.129.14-.234.285-.317.43-.717.74-1.88 1.928-3.534 3.6l-21.33-20.957c-17.138-16.836-18.82-44.342-4.583-63.483.841-1.025 2.307-2.814 4.481-5.47 28.59-34.924 52.88-72.99 72.256-113.402 2.543-5.305 3.88-8.111 4.23-8.88.224-.594.233-.623.243-.736 10.997-20.94 36.615-31.242 59.203-23.11l104.843 37.743a2 2 0 0 0 1.355-3.763l-104.843-37.744c-25.943-9.34-55.5 3.724-66.059 29.196-.017.08-.019.156-.029.234-.839 1.758-1.614 3.377-2.55 5.33-19.237 40.124-43.356 77.92-71.744 112.598l-1.705 2.082c-.07.078-.132.15-.2.228l-.007-.006-.172.21a49.363 49.363 0 0 0-2.308 2.83l-.52.64c-.486.602-.486.602-.523.654a.385.385 0 0 0 .037.09c-.09.13-.183.258-.272.388-14.245 20.636-12.074 49.406 6.062 67.224l21.32 20.947-1.212 1.222c-.093.086-.17.16-.255.24l-.009-.01-.282.288-.024.023c-.363.353-.655.653-.934.953l-.405.414c-.24.253-.24.253-.36.409-.013.018-.028.047-.042.072l-.025.029c-11.449 13.182-11.64 33.392.07 46.647l31.814 36.017a2 2 0 1 0 2.998-2.648l-31.815-36.017c-10.523-11.912-10.187-30.228.416-41.897.62-.62 2.013-2.025 4.321-4.354.002-.002 0-.003 0-.005l-.002-.001v-.001c3-3.03 4.762-4.821 5.51-5.608.166-.175.287-.303.37-.395.212-.26.23-.28.286-.388 11.35-11.38 30.05-12.146 42.292-1.535l35.813 31.037a2.001 2.001 0 0 0 2.62-3.023M536.596-278.943l4.923 2.188c17.125 7.611 37.845.245 46.32-16.469l21.526-42.454a2 2 0 0 0-3.569-1.809l-21.525 42.454c-7.51 14.814-25.948 21.37-41.127 14.623l-6.75-3-7.642-3.304c-15.242-6.592-22.853-24.56-16.978-40.086l16.678-44.075a2 2 0 0 0-3.74-1.416l-16.678 44.075c-6.63 17.525 1.927 37.733 19.132 45.173l5.767 2.494-11.683 26.287c-9.798 22.045-35.232 33.51-58.32 27.002a15580.504 15580.504 0 0 0-13.75-4.54c-22.072-8.625-35.062-32.742-29.509-56.008l25.855-108.31a2 2 0 1 0-3.89-.929L415.78-288.736c-5.922 24.81 7.574 50.466 30.624 60.132l.017.033c.326.177.326.177.362.191.324.113.514.177.777.265l.384.127.141.047c1.388.521 2.69.956 4.006 1.331l.035.012h.001l.084.025c.026.005.05.004.076.008l.906.3L375.186 4.276a2 2 0 0 0 3.79 1.282L456.99-225.01l.767.254c.101.038.194.071.294.107l-.004.011.301.098c1.126.41 2.127.736 3.124 1.025a205.569 205.569 0 0 0 1.54.503c.206.067.206.067.558.12l.028-.055c24.498 5.995 50.94-6.364 61.306-29.689l11.691-26.306zM695.559 894.163a2 2 0 0 0 .657-2.897l-110.363-156.75c-13.857-19.68-10.614-47.257 6.8-63.756l3.245-2.837c21.784-19.054 41.936-40.236 60.248-63.26 4.175-5.25 11.69-12.104 19.496-17.105 3.029-1.941 6.039-3.581 9.007-4.89a2.006 2.006 0 0 0 1.193-2.114h-.001a2.004 2.004 0 0 0-2.791-1.555c-3.17 1.398-6.365 3.14-9.566 5.19-8.182 5.243-16.024 12.396-20.467 17.984a490.26 490.26 0 0 1-26.401 30.499l-21.101-20.362c-19.817-19.121-52.166-19.467-72.372-.797l-16.66 12.23c-.803.59-1.144 1.685-.69 2.57a2.002 2.002 0 0 0 2.973.717l16.836-12.36.178-.147c18.643-17.305 48.64-17.008 66.956.665l21.14 20.4a473.873 473.873 0 0 1-30.913 29.588 53.124 53.124 0 0 0-2.996 2.62l-1.396 1.22-.358.315-.424.37.004.004c-.11.102-.19.179-.19.179l.145.146c-16.944 18.217-19.537 46.378-5.166 66.79L692.88 893.476c.602.855 1.767 1.2 2.678.687M665.91 206.94a249.54 249.54 0 0 0-.467-1.984 385.136 385.136 0 0 0-1.857-7.408 509.132 509.132 0 0 0-7.42-25.612 2.001 2.001 0 0 0-3.812 1.212 503.451 503.451 0 0 1 7.361 25.41 375.635 375.635 0 0 1 1.838 7.328c.178.745.331 1.397.458 1.95l.15.661c7.166 26.652 35 45.403 62.305 42.045l115.86-14.64a2 2 0 0 0-.49-3.97l-115.859 14.64c-25.326 3.115-51.305-14.386-57.932-39.025a26.816 26.816 0 0 0-.136-.608M-139.574-283.215a2 2 0 0 0-.477 2.787l233.5 330a2 2 0 1 0 3.265-2.31l-233.5-330a2 2 0 0 0-2.788-.477M43.741 514.932l-299.5 270a2 2 0 0 0 2.68 2.97l299.5-270a2 2 0 1 0-2.68-2.97M700.346 896.657l27.188 36.08a1.992 1.992 0 0 1-.396 2.798 1.994 1.994 0 0 1-2.8-.391l-27.187-36.08c-3.03 5.556-10.527 22.586 1.19 38.137 14.248 18.906 38.426 11.112 38.426 11.112s14.156-21.093-.091-40c-11.718-15.55-30.154-13.038-36.33-11.656M770.903 841.138l30.229 33.573c.738.82.677 2.078-.15 2.822a1.994 1.994 0 0 1-2.822-.145l-30.23-33.573c-2.534 5.798-8.518 23.417 4.51 37.887 15.841 17.592 39.248 7.72 39.248 7.72s12.264-22.246-3.577-39.838c-13.028-14.47-31.176-10.361-37.208-8.446M867.599 782.869c-14.695-12.774-32.207-6.484-37.96-3.848l34.095 29.639c.833.723.925 1.98.195 2.819a1.995 1.995 0 0 1-2.819.2l-34.096-29.64c-1.809 6.065-5.601 24.282 9.094 37.056 17.867 15.53 39.896 2.88 39.896 2.88s9.461-23.575-8.405-39.106M921.365 711.178c-15.551-11.718-32.581-4.221-38.137-1.191l36.08 27.188a1.993 1.993 0 0 1 .391 2.799 1.994 1.994 0 0 1-2.798.396l-36.08-27.188c-1.382 6.175-3.894 24.612 11.657 36.33 18.906 14.247 39.999.091 39.999.091s7.794-24.178-11.112-38.425M1001.886 540.589c-18.178-6.978-32.482 4.923-36.987 9.367l42.176 16.19a1.993 1.993 0 0 1 1.147 2.583 1.994 1.994 0 0 1-2.58 1.152l-42.177-16.191c.374 6.318 3.041 24.733 21.219 31.71 22.101 8.485 38.476-10.937 38.476-10.937s.827-25.39-21.274-33.874M1036.75 278.976c-19.468.34-28.273 16.731-30.785 22.54l45.17-.789a1.995 1.995 0 0 1 2.032 1.966 1.995 1.995 0 0 1-1.962 2.034l-45.17.788c2.713 5.717 12.085 21.793 31.553 21.453 23.669-.412 31.576-24.555 31.576-24.555s-8.744-23.85-32.414-23.438M1028.522 186.317c-19.326 2.373-26.368 19.596-28.26 25.635l44.841-5.506a1.993 1.993 0 0 1 2.225 1.742 1.995 1.995 0 0 1-1.738 2.229l-44.84 5.505c3.296 5.403 14.296 20.41 33.622 18.037 23.497-2.885 28.837-27.721 28.837-27.721s-11.19-22.806-34.687-19.921M1009.956 95.615c-18.972 4.38-24.176 22.246-25.426 28.45l44.02-10.163a1.994 1.994 0 0 1 2.395 1.5 1.994 1.994 0 0 1-1.496 2.396l-44.019 10.163c3.843 5.029 16.351 18.804 35.324 14.424 23.066-5.326 25.781-30.583 25.781-30.583s-13.513-21.513-36.579-16.187"/>
        <path fill="#413A32" d="M662.019 674.503l-32.498-31.383c-2.124 5.962-6.865 23.955 7.142 37.48 17.029 16.445 39.69 4.966 39.69 4.966s10.682-23.05-6.347-39.494c-14.006-13.525-31.823-8.16-37.707-5.83l32.498 31.384c.793.766.82 2.025.047 2.825a1.994 1.994 0 0 1-2.825.052M807.706 617.522l-39.125-22.589c-.619 6.3-.865 24.904 15.997 34.64 20.502 11.836 39.713-4.785 39.713-4.785s4.79-24.948-15.713-36.784c-16.862-9.736-32.852-.22-37.997 3.465l39.125 22.59a1.993 1.993 0 0 1 .73 2.73 1.995 1.995 0 0 1-2.73.733M708.623 573.686l38.725 23.268c.728-6.286 1.299-24.885-15.391-34.913-20.292-12.193-39.79 4.09-39.79 4.09s-5.223 24.86 15.069 37.054c16.69 10.028 32.843.793 38.051-2.802l-38.724-23.268a1.994 1.994 0 0 1-.681-2.743 1.994 1.994 0 0 1 2.741-.686M774.626 789.243l-33.041-30.811c-2.02 5.998-6.445 24.071 7.795 37.35 17.314 16.145 39.771 4.272 39.771 4.272s10.279-23.232-7.035-39.377c-14.24-13.279-31.961-7.603-37.803-5.17l33.041 30.811c.806.752.854 2.011.096 2.824a1.994 1.994 0 0 1-2.824.101M875.967 655.85l-39.513-21.902c-.509 6.308-.43 24.915 16.599 34.355 20.706 11.477 39.624-5.477 39.624-5.477s4.352-25.028-16.353-36.505c-17.03-9.44-32.851.354-37.931 4.128l39.513 21.902a1.994 1.994 0 0 1 .777 2.718 1.995 1.995 0 0 1-2.716.78M377.95 524.061l19.804 40.605a1.992 1.992 0 0 1-.922 2.671 1.994 1.994 0 0 1-2.673-.918l-19.804-40.605c-4.035 4.876-14.644 20.163-6.108 37.663 10.378 21.278 35.599 18.241 35.599 18.241s17.92-18.005 7.543-39.282c-8.536-17.5-27.113-18.553-33.44-18.375M473.609 297.573c-19.444-1.019-29.371 14.72-32.282 20.338l45.115 2.365a1.993 1.993 0 0 1 1.889 2.102 1.994 1.994 0 0 1-2.098 1.892l-45.116-2.364c2.308 5.893 10.535 22.582 29.98 23.601 23.64 1.24 33.212-22.292 33.212-22.292s-7.06-24.403-30.7-25.642M561.716 365.464l-44.347-8.62c1.466 6.156 7.29 23.829 26.403 27.544 23.239 4.517 35.992-17.453 35.992-17.453s-3.595-25.148-26.833-29.665c-19.113-3.716-31.134 10.488-34.8 15.647l44.349 8.62a1.995 1.995 0 0 1 1.578 2.345 1.994 1.994 0 0 1-2.342 1.582M645.183 333.505l-45.067-3.15c2.205 5.931 10.139 22.761 29.563 24.12 23.615 1.651 33.596-21.71 33.596-21.71s-6.632-24.522-30.248-26.174c-19.424-1.358-29.623 14.205-32.632 19.772l45.067 3.152a1.993 1.993 0 0 1 1.852 2.134 1.994 1.994 0 0 1-2.131 1.856M-7.887 647.889a1.994 1.994 0 0 1-2.812.293 1.995 1.995 0 0 1-.298-2.81l28.431-35.11c-6.123-1.596-24.46-4.75-36.715 10.382-14.897 18.397-1.486 39.972-1.486 39.972s23.892 8.633 38.79-9.765c12.254-15.132 5.356-32.413 2.52-38.071l-28.43 35.109zM652.357 528.338c21.093 10.747 39.408-6.856 39.408-6.856s3.477-25.165-17.616-35.912c-17.349-8.84-32.819 1.5-37.764 5.449l40.253 20.51a1.994 1.994 0 0 1 .871 2.689 1.994 1.994 0 0 1-2.687.875l-40.253-20.51c-.288 6.322.44 24.915 17.788 33.755M130.81 640.496a1.993 1.993 0 0 1-2.64 1.01 1.994 1.994 0 0 1-1.015-2.637l18.375-41.271c-6.328.042-24.858 1.742-32.778 19.53-9.628 21.626 8.91 38.995 8.91 38.995s25.312 2.155 34.941-19.472c7.92-17.787-3.216-32.695-7.419-37.426l-18.375 41.27zM604.875 449.184c22.245 8.097 38.278-11.608 38.278-11.608s.384-25.4-21.861-33.497c-18.297-6.66-32.391 5.488-36.818 10.011l42.452 15.451a1.993 1.993 0 0 1 1.192 2.563 1.994 1.994 0 0 1-2.56 1.196l-42.452-15.45c.484 6.31 3.472 24.675 21.769 31.334M550.146 531.434c18.655 14.575 39.993.79 39.993.79s8.214-24.04-10.441-38.614c-15.343-11.988-32.502-4.79-38.11-1.857l35.6 27.814a1.993 1.993 0 0 1 .342 2.805 1.993 1.993 0 0 1-2.804.347l-35.6-27.814c-1.49 6.151-4.323 24.541 11.02 36.53M372.093 612.85l13.208 43.202a1.993 1.993 0 0 1-1.328 2.494 1.995 1.995 0 0 1-2.497-1.324l-13.208-43.203c-4.748 4.184-17.618 17.623-11.925 36.243 6.922 22.64 32.308 23.585 32.308 23.585s20.516-14.98 13.595-37.619c-5.693-18.62-23.877-22.565-30.153-23.379M863.468 229.25l44.84-5.505c-3.296-5.402-14.296-20.41-33.622-18.037-23.497 2.885-28.837 27.72-28.837 27.72s11.19 22.808 34.687 19.923c19.326-2.373 26.369-19.596 28.26-25.636l-44.841 5.506a1.994 1.994 0 0 1-2.225-1.742 1.994 1.994 0 0 1 1.738-2.228M628.084 36.555c-15.95 11.168-14.082 29.68-12.917 35.9l37.007-25.911a1.992 1.992 0 0 1 2.782.493c.634.905.42 2.147-.488 2.783l-37.007 25.913c5.447 3.223 22.205 11.309 38.155.14 19.392-13.578 12.447-38.013 12.447-38.013s-20.587-14.884-39.979-1.305M188.854 89.301l16.19 42.177a1.992 1.992 0 0 1-1.152 2.58 1.993 1.993 0 0 1-2.582-1.147l-16.19-42.176c-4.445 4.505-16.345 18.809-9.367 36.987 8.483 22.101 33.873 21.274 33.873 21.274s19.422-16.375 10.94-38.476c-6.979-18.178-25.394-20.845-31.712-21.219M369.74 24.957a1.994 1.994 0 0 1 1.242 2.539l-14.708 42.716c6.3-.595 24.61-3.903 30.95-22.313 7.708-22.384-12.274-38.07-12.274-38.07s-25.403.059-33.111 22.443c-6.34 18.41 6.054 32.29 10.653 36.637L367.2 26.193a1.993 1.993 0 0 1 2.54-1.236M966.149 626.57c-17.349-8.84-32.819 1.5-37.764 5.45l40.253 20.51c.983.5 1.376 1.697.871 2.688a1.995 1.995 0 0 1-2.687.876l-40.253-20.51c-.288 6.322.439 24.915 17.788 33.754 21.093 10.748 39.408-6.856 39.408-6.856s3.477-25.165-17.616-35.912M1003.222 24.557a1.995 1.995 0 0 1-1.147 2.583l-42.176 16.19c4.505 4.444 18.809 16.345 36.987 9.367 22.101-8.484 21.274-33.874 21.274-33.874S1001.785-.6 979.684 7.885c-18.178 6.978-20.845 25.393-21.219 31.71l42.177-16.19a1.993 1.993 0 0 1 2.58 1.152"/>
        <path fill="#00CC92" d="M-.082 937.474a1.993 1.993 0 0 1-2.689.871 1.994 1.994 0 0 1-.876-2.687l20.51-40.253c-6.321-.289-24.914.439-33.755 17.788-10.747 21.093 6.858 39.408 6.858 39.408s25.164 3.477 35.912-17.616c8.838-17.349-1.502-32.819-5.45-37.764l-20.51 40.253zM548.47 447.035s4.352-25.028-16.353-36.505c-17.03-9.44-32.851.354-37.931 4.13l39.513 21.901a1.994 1.994 0 0 1 .777 2.717 1.994 1.994 0 0 1-2.716.781l-39.513-21.902c-.509 6.308-.431 24.915 16.599 34.355 20.705 11.477 39.624-5.477 39.624-5.477M445.693-20.56a1.992 1.992 0 0 1 2.688-.871 1.994 1.994 0 0 1 .876 2.687l-20.51 40.253c6.322.288 24.915-.44 33.755-17.788 10.747-21.093-6.857-39.408-6.857-39.408s-25.164-3.477-35.912 17.616c-8.839 17.349 1.501 32.819 5.45 37.764l20.51-40.253zM5.212 525.726c15.344-11.988 12.51-30.378 11.021-36.529l-35.6 27.814c-.869.68-2.12.53-2.805-.347a1.994 1.994 0 0 1 .342-2.805l35.6-27.814c-5.608-2.933-22.766-10.13-38.11 1.856-18.654 14.575-10.44 38.614-10.44 38.614s21.337 13.786 39.992-.789M75.662 305.762c-19.365 2.035-26.707 19.133-28.703 25.138l44.929-4.722a1.993 1.993 0 0 1 2.195 1.78 1.995 1.995 0 0 1-1.777 2.198l-44.93 4.722c3.202 5.459 13.939 20.656 33.303 18.621 23.544-2.474 29.316-27.213 29.316-27.213s-10.79-22.999-34.333-20.524M262.77 792.324l-1.577 45.15a1.992 1.992 0 0 1-2.068 1.925 1.994 1.994 0 0 1-1.929-2.065l1.577-45.15c-5.852 2.411-22.396 10.928-23.075 30.388-.826 23.658 22.869 32.817 22.869 32.817s24.276-7.483 25.102-31.143c.679-19.459-15.23-29.108-20.899-31.922M115.462 185.225c18.135 15.217 39.94 2.184 39.94 2.184s9.048-23.737-9.086-38.954c-14.916-12.516-32.315-5.92-38.022-3.185l34.608 29.04c.844.708.959 1.962.244 2.814a1.993 1.993 0 0 1-2.815.25l-34.608-29.04c-1.703 6.095-5.177 24.375 9.739 36.891M549.804 689.211s15.241-20.324 2.003-39.95c-10.888-16.142-29.431-14.598-35.671-13.542l25.263 37.454c.616.914.38 2.151-.542 2.773a1.993 1.993 0 0 1-2.774-.537l-25.263-37.453c-3.317 5.39-11.695 22.004-.807 38.146 13.238 19.626 37.791 13.11 37.791 13.11M337.545 867.568l2.364 45.115a1.993 1.993 0 0 1-1.891 2.1 1.995 1.995 0 0 1-2.103-1.89l-2.363-45.116c-5.62 2.912-21.359 12.838-20.34 32.283 1.24 23.641 25.643 30.7 25.643 30.7s23.53-9.572 22.291-33.212c-1.018-19.445-17.708-27.672-23.6-29.98M150.653 552.696c10.318-16.513 1.366-32.825-2.138-38.095l-23.94 38.312a1.994 1.994 0 0 1-2.754.634 1.995 1.995 0 0 1-.638-2.753l23.94-38.313c-6.272-.838-24.858-1.734-35.176 14.779-12.545 20.076 3.396 39.855 3.396 39.855s24.765 5.657 37.31-14.42M466.83 214.277l-40.605 19.804c4.875 4.035 20.162 14.644 37.663 6.108 21.277-10.377 18.24-35.6 18.24-35.6s-18.005-17.92-39.282-7.542c-17.501 8.536-18.552 27.113-18.375 33.439l40.605-19.804a1.994 1.994 0 0 1 2.672.922 1.995 1.995 0 0 1-.918 2.673M339.168 766.567s22.402-11.979 18.7-35.36c-3.047-19.232-20.506-25.669-26.607-27.349l7.067 44.621a1.993 1.993 0 0 1-1.663 2.285 1.995 1.995 0 0 1-2.288-1.659l-7.067-44.62c-5.284 3.482-19.898 15-16.852 34.23 3.703 23.382 28.71 27.852 28.71 27.852M159.915 688.019l-13.209 43.203a1.993 1.993 0 0 1-2.496 1.325 1.995 1.995 0 0 1-1.329-2.494l13.21-43.204c-6.277.814-24.46 4.759-30.154 23.38-6.922 22.639 13.595 37.619 13.595 37.619s25.386-.947 32.307-23.585c5.693-18.621-7.176-32.06-11.924-36.244M575.099 122.034a1.992 1.992 0 0 1-2.773-.542 1.994 1.994 0 0 1 .536-2.774l37.454-25.263c-5.389-3.317-22.004-11.695-38.146-.807-19.626 13.238-13.109 37.792-13.109 37.792s20.324 15.24 39.95 2.002c16.142-10.888 14.599-29.431 13.542-35.671l-37.454 25.263zM7.178 732.337a1.993 1.993 0 0 1 2.755-.633 1.994 1.994 0 0 1 .638 2.753l-23.94 38.312c6.273.838 24.858 1.734 35.177-14.778 12.544-20.076-3.396-39.856-3.396-39.856s-24.766-5.657-37.311 14.42c-10.318 16.512-1.366 32.824 2.137 38.095l23.94-38.313zM22.19 167.587a1.993 1.993 0 0 1-.965-2.656 1.994 1.994 0 0 1 2.654-.97l40.945 19.094c.068-6.33-1.308-24.885-18.955-33.114-21.456-10.005-39.145 8.228-39.145 8.228s-2.596 25.27 18.86 35.275c17.646 8.229 32.745-2.645 37.55-6.764L22.19 167.587zM270.07 70.953l2.364 45.115a1.993 1.993 0 0 1-1.892 2.099 1.995 1.995 0 0 1-2.102-1.89l-2.365-45.115c-5.619 2.912-21.357 12.838-20.338 32.283 1.24 23.64 25.642 30.7 25.642 30.7s23.531-9.572 22.292-33.212c-1.019-19.445-17.708-27.672-23.6-29.98"/>
        <path fill="#877C6B" d="M323.665 589.764a1.995 1.995 0 0 1-2.288-1.659l-7.067-44.62c-5.284 3.482-19.898 15-16.852 34.23 3.703 23.382 28.71 27.852 28.71 27.852s22.402-11.979 18.7-35.36c-3.047-19.232-20.506-25.669-26.607-27.349l7.067 44.621a1.993 1.993 0 0 1-1.663 2.285M94.787 467.507c-5.842-2.433-23.563-8.11-37.803 5.17-17.313 16.146-7.035 39.377-7.035 39.377s22.458 11.874 39.771-4.271c14.24-13.28 9.815-31.353 7.795-37.351l-33.04 30.81a1.994 1.994 0 0 1-2.825-.1 1.995 1.995 0 0 1 .096-2.824l33.041-30.811zM108.402 66.468a1.995 1.995 0 0 1 2.792.44l26.554 36.549c3.127-5.502 10.92-22.4-.525-38.151-13.915-19.152-38.225-11.782-38.225-11.782s-14.523 20.843-.608 39.995c11.445 15.753 29.923 13.563 36.122 12.289l-26.555-36.55a1.994 1.994 0 0 1 .445-2.79M625.242 944.628l21.21 39.89c.517.973.153 2.18-.83 2.701a1.995 1.995 0 0 1-2.702-.824l-21.21-39.889c-3.862 5.013-13.93 20.661-4.79 37.853 11.115 20.902 36.215 16.987 36.215 16.987s17.28-18.619 6.167-39.522c-9.141-17.192-27.744-17.595-34.06-17.196M553.333 891.365l18.376 41.271a1.994 1.994 0 0 1-1.015 2.638 1.995 1.995 0 0 1-2.64-1.01l-18.375-41.272c-4.202 4.732-15.338 19.64-7.418 37.427 9.628 21.626 34.94 19.472 34.94 19.472s18.539-17.369 8.91-38.996c-7.92-17.787-26.449-19.487-32.778-19.53M169.144 942.484l-7.067 44.621a1.994 1.994 0 0 1-2.288 1.66 1.994 1.994 0 0 1-1.663-2.286l7.067-44.62c-6.101 1.68-23.56 8.116-26.606 27.348-3.703 23.381 18.699 35.36 18.699 35.36s25.007-4.47 28.71-27.852c3.046-19.23-11.568-30.748-16.852-34.23M403.59 939.904l9.393 44.19a1.994 1.994 0 0 1-1.54 2.37 1.996 1.996 0 0 1-2.373-1.538l-9.393-44.19c-5.094 3.754-19.086 16.02-15.037 35.066 4.922 23.156 30.128 26.311 30.128 26.311s21.745-13.135 16.823-36.29c-4.049-19.046-21.82-24.56-28-25.919M500.222 515.058s11.083-22.859-5.657-39.598c-13.768-13.768-31.676-8.715-37.6-6.487l31.946 31.945c.78.78.784 2.04-.002 2.826a1.994 1.994 0 0 1-2.826.003l-31.945-31.945c-2.228 5.923-7.282 23.831 6.486 37.6 16.74 16.74 39.598 5.656 39.598 5.656M447.726 425.72l-35.6-27.815c-1.49 6.151-4.323 24.541 11.02 36.53 18.655 14.574 39.993.788 39.993.788s8.214-24.039-10.441-38.614c-15.343-11.987-32.502-4.789-38.11-1.856l35.6 27.814a1.994 1.994 0 0 1 .343 2.805 1.994 1.994 0 0 1-2.805.347M565.853 287.887l-45.006 3.938c3.106 5.514 13.576 20.896 32.973 19.199 23.583-2.064 29.786-26.698 29.786-26.698s-10.387-23.183-33.97-21.12c-19.397 1.697-27.037 18.664-29.137 24.634l45.005-3.938a1.994 1.994 0 0 1 2.163 1.819 1.995 1.995 0 0 1-1.814 2.166M216.16 621.479c-6.072 1.786-23.415 8.527-26.125 27.808-3.295 23.443 19.312 35.029 19.312 35.029s24.926-4.905 28.22-28.348c2.71-19.282-12.103-30.542-17.447-33.932l-6.287 44.737a1.994 1.994 0 0 1-2.259 1.699 1.994 1.994 0 0 1-1.702-2.256l6.287-44.737zM721.479 4.033l-37.007 25.913c5.446 3.222 22.204 11.309 38.154.14 19.392-13.578 12.447-38.014 12.447-38.014s-20.586-14.883-39.978-1.305c-15.95 11.168-14.083 29.682-12.918 35.902L719.184.756a1.994 1.994 0 0 1 2.783.494c.633.904.42 2.147-.488 2.783M676.684 125.885c-18.178 6.978-20.845 25.393-21.219 31.71l42.177-16.19a1.993 1.993 0 0 1 2.58 1.152 1.995 1.995 0 0 1-1.147 2.583l-42.176 16.19c4.505 4.444 18.809 16.345 36.987 9.367 22.101-8.484 21.274-33.874 21.274-33.874s-16.375-19.422-38.476-10.938"/>
        <path fill="#877C6B" d="M177.217 937.88l.023.005c.01.018.016.028-.064-.014a.91.91 0 0 1 .04.009m444.313 2.292a2 2 0 0 0 .807-2.71l-22.733-41.88c-8.915-16.423-29.596-22.904-46.382-14.603l-.043.019-.06.028a2.477 2.477 0 0 0-.36.22c-.804.38-1.88.886-3.217 1.513L468.81 711.007c-10.084-21.454-2.448-47.503 16.983-60.9 1.032-.636 2.624-1.62 4.839-2.988a372.066 372.066 0 0 0 9.196-5.87l10.955-8.233c.043-.032.076-.071.115-.106.055-.05.113-.096.162-.15.042-.045.074-.095.11-.143.043-.057.088-.111.124-.171.032-.053.055-.11.082-.165.028-.061.06-.12.083-.183.02-.058.034-.12.049-.18.017-.063.036-.125.046-.19.01-.062.01-.125.015-.188.004-.065.01-.13.008-.194-.002-.065-.014-.13-.022-.193-.01-.063-.014-.126-.028-.19-.016-.066-.041-.13-.064-.196-.02-.058-.036-.116-.062-.173-.03-.066-.071-.13-.11-.193-.025-.044-.044-.092-.075-.135l-110.363-156.75c-15.832-22.485-48.572-30.89-73.274-18.813l-1.876.918c-6.735 3.142-13.956 4.998-22.333 5.934-6.435.719-11.682.862-23.79.862-87.26 0-158-70.74-158-158 0-12.632.77-21.775 2.914-30.405l1.107-2.95c9.665-25.773-2.255-56.882-26.664-69.602l-26.712-13.92a238.799 238.799 0 0 1 31.527-43.501 1.994 1.994 0 0 0 .548-.598c43.498-47.345 105.919-77.024 175.28-77.024 67.912 0 131.997 26.483 170.484 71.303l2.412 3.094c16.934 21.698 49.565 27.528 72.974 13.037l27.656-17.28A2 2 0 0 0 551 133.17l-27.656 17.28c-21.672 13.416-52.037 7.99-67.715-12.097l-2.471-3.166c-39.346-45.824-104.55-72.77-173.577-72.77-3.54 0-7.058.093-10.562.243l-11.385-316.322.566-.022.22-.008c.055.01.104.029.16.037 27.608-.046 51.033-22.258 52.427-49.774l1.468-29.008 6.05.456c18.713 1.403 35.217-12.607 36.873-31.301l4.175-47.124a1.999 1.999 0 1 0-3.984-.353l-4.175 47.123c-1.464 16.515-16.06 29.113-32.59 27.873l-8.093-.401h-.034c-.005 0-.01-.21-.014-.21-.008 0-.016-.101-.024-.101l-7.044-.235c-16.583-.425-30.23-14.273-30.44-30.862l-.594-47.023a2.005 2.005 0 0 0-2.025-1.981 1.996 1.996 0 0 0-1.974 2.02l.594 47.01c.238 18.74 15.605 34.303 34.337 34.784l4.967.126-1.468 28.773c-1.253 24.733-21.853 44.699-46.478 45.699h-.005c-.015 0-.03.226-.045.223-.377-.042-.377.074-.58.08-.463.01-1.86.119-4.403.222-5.622.226-8.455.374-9.02.405-.06 0-.06.015-.54.096-23.188-.265-43.431-17.84-46.403-41.322l-13.972-110.377a1.998 1.998 0 0 0-2.236-1.731 1.999 1.999 0 0 0-1.733 2.235l13.973 110.382c3.413 26.97 27.788 46.726 55.078 44.613l.045-.002.706-.025-.002-.03c.153-.014.306-.02.46-.035l1.78-.072 11.387 316.368c-27.94 1.658-54.604 8.043-79.198 18.389L60.223-209.51a51.68 51.68 0 0 0 2.682-1.162l.002-.001 1.508-.642.666-.284.194-.082a2.388 2.388 0 0 0-.13-.013.885.885 0 0 0 .043-.122l.177-.094c21.916-11.763 33.263-38.001 25.669-62.047l-8.935-28.295 7.41-2.221c17.963-5.39 28.517-24.414 23.582-42.511l-12.58-46.125a2 2 0 1 0-3.86 1.052l12.58 46.125c4.365 16.005-4.986 32.862-20.871 37.628l-9.353 2.805-.022.008h-.006l-.01.006-3.871 1.364c-15.652 5.524-33.31-2.526-39.4-17.96l-17.256-43.736a2 2 0 0 0-3.721 1.468l17.257 43.737c6.879 17.435 26.77 26.503 44.45 20.263l1.869-.66 8.923 28.257c7.249 22.955-4.25 48.146-25.907 58.408-1.101.469-2.595 1.232-4.514 2.049-.003 0-.005.13-.008.13h-.003l-.002-.125c-3.814 1.622-6.048 2.51-6.937 2.89-21.881 7.778-47.14-1.53-58.41-22.288l-53.1-97.833a2.003 2.003 0 0 0-2.712-.812 1.995 1.995 0 0 0-.803 2.708l53.1 97.816c12.15 22.38 39.24 32.434 62.802 24.279.154-.05.254-.085.336-.113-.063.039-.06.037-.046.03l.202-.086a3.5 3.5 0 0 0 .126-.051l.035-.015a50.992 50.992 0 0 0 5.145-2.184l.013-.008L182.156 82.847c-30.352 13.365-57.433 32.78-79.723 56.723L-131.631-74.658l.88-.956c.097-.095.186-.195.282-.291l.019.017.535-.585.129-.14a54.117 54.117 0 0 0 1.85-2.026 346.73 346.73 0 0 0 .877-.965c.014 0 .015 0 .349-.498 15.927-19.765 15.727-48.573-1.294-67.521l-73.927-82.296a2 2 0 1 0-2.976 2.673l73.927 82.296c15.798 17.586 15.886 44.452 1.045 62.56l-.021.026a.683.683 0 0 0-.046.045 1679.4 1679.4 0 0 0-5.888 6.382 2590.607 2590.607 0 0 0-5.512 5.995c-.018.022-.038.052-.057.078a2.525 2.525 0 0 1-.052.05c-16.614 15.908-43.182 17.793-61.876 3.55l-23.22-17.691c1.482-1.923 2.553-3.307 3.243-4.192.115-.096.227-.208.332-.34.015-.017.028-.037.043-.055a.79.79 0 0 1 .027-.035c11.696-14.607 9.79-36.238-4.335-48.48l-35.812-31.037a2 2 0 1 0-2.62 3.023l35.812 31.036c12.167 10.545 14.094 29.013 4.633 41.918-.188.19-.188.19-.24.254-.07.083-.174.212-.324.402-.678.855-2.324 2.979-5.155 6.658a1113.97 1113.97 0 0 0-4.31 5.618l-.133.19-.044.054c-10.107 12.013-28.221 14.76-41.45 5.94l-39.37-26.246a2 2 0 0 0-2.218 3.328l39.369 26.246c15.549 10.367 37.005 6.588 48.087-8.422l.085-.11.038-.05c.072-.1.135-.2.187-.3l1.715-2.23 23.236 17.704c21.947 16.72 53.844 12.956 71.285-8.411.015-.02.022-.04.036-.06l.15-.163 234.067 214.23C61.1 185.399 37.58 242.16 37.58 304.418c0 9.5.563 18.892 1.639 28.144l-75.854 8.753c-.477-4.414-.777-9.145-.891-14.19-.255-11.27.354-23.367 1.525-35.345.346-3.538.717-6.8 1.087-9.707.129-1.016.249-1.915.357-2.687 2.809-28.487-16.452-55.541-43.193-61.712l-29.776-6.871c1.5-6.18 3.159-12.434 5.026-18.824l.49-1.677c.028-.08.047-.152.074-.23l.006.002c.025-.084.254-.131.283-.23.577-1.692.646-3.308 1.646-4.922v-.002c0-.567-.047-.58-.032-.633.022-.094-.071-.247-.06-.392.005-.022-.043-.046-.04-.068 5.22-24.424-7.387-50.238-30.562-60.2l-175.07-75.25c.748-1.698 1.313-2.99 1.724-3.907.11-.134.208-.29.294-.467 8.194-16.912 1.436-37.436-15.215-46l-41.542-21.363a2 2 0 1 0-1.83 3.557l41.54 21.364c14.179 7.29 20.248 24.427 14.182 39.054l-.005.012a1.024 1.024 0 0 0-.084.109 6.404 6.404 0 0 0-.342.65c-.405.872-1.427 3.172-3.208 7.228-1.776 4.047-2.768 6.336-3.123 7.195a7.317 7.317 0 0 0-.183.475c-.028.08-.028.08-.083.347a.794.794 0 0 0-.012.064l-.022.05c-6.574 14.185-23.126 21.094-37.963 15.479l-44.075-16.676a2 2 0 1 0-1.415 3.74l44.074 16.678c17.556 6.642 37.225-2.186 43.93-19.721.069-.181.113-.356.135-.525.387-.896.918-2.116 1.603-3.68l175.083 75.262c21.65 9.307 33.317 33.688 28.019 56.525-.307 1.045-.973 3.32-2.056 7.03-3.217 11.013-5.893 21.663-8.04 32.16a1499.67 1499.67 0 0 0-1.695 8.34c-.018.332-.026.51-.03.615l-.012.05c-5.734 22.442-27.496 38.553-51.014 36.767l-30.115-2.287c.434-4.748 1.003-9.332 2.15-17.89.36-2.684.48-3.583.658-4.933l.213-1.63c.01-.067.018-.212.03-.212h.005c.009 0 .016-.11.026-.186.235-1.402.41-2.72.527-4.03l.13-.992.087-.672.003-.032.014-.107c0 .005-.005.018-.007.027.015-.196.022-.478.022-.478l-.096-.022c1.12-24.886-15.631-48.08-40.2-53.855l-187.28-44.018a2 2 0 1 0-.914 3.893l187.279 44.019c23.29 5.474 39.006 27.983 36.995 51.697-.171 1.29-.433 3.29-.8 6.077a1330.62 1330.62 0 0 1-.656 4.923c-1.322 9.86-1.883 14.495-2.354 20.172a2.001 2.001 0 0 0 1.828 2.159c.228.018.446-.01.655-.063.116.03.235.054.359.064l31.138 2.365c27.489 2.087 52.693-18.34 56.334-45.657 0-.047-.008-.088-.01-.134l.649-3.168a363.421 363.421 0 0 1 2.003-9.126l29.808 6.879c24.759 5.714 42.702 30.898 40.262 56.339-.241 1.71-.364 2.624-.495 3.656-.375 2.945-.75 6.246-1.1 9.824-1.186 12.125-1.802 24.375-1.543 35.824.133 5.882.499 11.386 1.12 16.447a250.311 250.311 0 0 0 8.533 41.239c2.235 7.546 4.63 14.339 7.029 20.273a150.333 150.333 0 0 0 2.327 5.468c.247.548.467 1.025.658 1.428 9.393 24.169-1.337 53.285-23.748 65.376l-172.763 93.212a2.001 2.001 0 0 0 1.899 3.52l172.763-93.211c24.212-13.063 35.725-44.362 25.748-70.004-.464-.985-.674-1.44-.911-1.966a148.355 148.355 0 0 1-2.265-5.322c-2.351-5.818-4.704-12.491-6.902-19.91a246.706 246.706 0 0 1-8.121-38.48l75.874-8.754c12.355 92.782 77.525 170.752 167.427 198.942.756.206 1.46.386 2.185.562 2.78.675 5.75 1.258 8.717 1.75 1.038.172 2.002.32 2.868.445 26.162 4.402 45.822 28.59 44.862 54.083l-7.12 189.07-15.378-.278c-28.414-.731-52.384 16.813-57.093 43.214l-19.223 107.789c-.885-.154-1.66-.29-2.298-.4a2.259 2.259 0 0 0-.302-.078l-.044-.008-.36-.061-.808-.137-.381-.063a94.326 94.326 0 0 0-.756-.124c-.035-.008-.035-.008-.44-.03-17.461-1.924-34.343 9.549-38.6 26.8l-11.333 45.932a2 2 0 1 0 3.883.959l11.334-45.931c3.823-15.493 19.195-25.763 34.905-23.707.868.154 2.949.517 6.468 1.127.004 0 .006 0 .01.002 4.624.802 7.362 1.266 8.558 1.456.259.04.446.069.573.086a4.56 4.56 0 0 0 .462.03c15.786 2.963 26.97 17.948 25.139 34.022l-5.378 47.209a2.001 2.001 0 0 0 3.975.453l5.378-47.21c2.118-18.592-11.14-35.85-29.643-38.616l-.018-.003-.084-.014a2.302 2.302 0 0 0-.485-.022 850.85 850.85 0 0 1-5.814-.99l19.22-107.77c4.345-24.36 26.532-40.6 53.067-39.915l17.355.313.019-.001h.017c25.28 0 42.568 4.48 53.427 13.057 9.302 7.345 13.977 17.804 15.419 32.04l2.955 29.323h-.005c-27.525 1-49.54 25.179-49.195 52.757l1.4 111.922c.013 1.105.92 1.952 2.024 1.939 1.105-.014 1.989-.94 1.975-2.043l-1.4-112.004c-.318-25.443 20.042-47.34 45.435-48.864l2.085.088c.024-.003.046.205.069.205h.013c.004 0 .007-.216.01-.216 5.55-.525 8.374-.903 9.014-.97 23.572-.893 45.014 15.922 49.18 39.436l5.282 29.77c-1.641.318-2.922.55-3.862.729-.161-.01-.332.102-.511.13-.032.005-.062.12-.094.12h-.002c-18.498 3-31.531 20.153-29.184 38.692l5.98 47.197c.14 1.096 1.14 1.844 2.236 1.705a2.014 2.014 0 0 0 1.734-2.25l-5.982-47.258c-1.996-15.77 8.617-30.536 24.007-34 .287-.012.287-.014.357-.023.105-.012.244-.035.47-.075.9-.157 3.302-.616 7.545-1.442 4.623-.9 7.303-1.436 8.405-1.675.25-.054.424-.094.545-.126a2.1 2.1 0 0 0 .459-.17l.015-.003c15.616-2.876 30.874 6.984 34.529 22.618l10.718 45.848a2 2 0 0 0 3.895-.911l-10.718-45.848c-4.274-18.284-22.553-29.604-40.83-25.287a2.247 2.247 0 0 0-.53.194c-1.118.229-2.854.574-5.255 1.044l-5.27-29.731c-4.52-25.508-27.741-43.774-53.18-42.795l-.081.005c-.087 0-.105 0-.13.002l-.17.014a51.908 51.908 0 0 0-4.6.417c-.045.012-.083.032-.128.046l-.185.018-2.081.198-2.965-29.274c-3.238-31.984-23.11-48.071-70.75-48.526l7.118-188.976c1.035-27.5-20.05-53.44-47.17-58.038a149.7 149.7 0 0 1-3.904-.587c-2.877-.477-5.754-1.042-8.428-1.691a79.712 79.712 0 0 1-2.007-.514C109.89 500.785 41.58 409.213 41.58 304.417c0-41.051 10.394-79.674 28.693-113.383l26.814 13.973c22.617 11.786 33.722 40.77 24.767 64.65l-1.146 3.058c-2.328 9.259-3.128 18.717-3.128 31.702 0 89.47 72.53 162 162 162 12.256 0 17.6-.146 24.233-.887 8.784-.982 16.42-2.944 23.613-6.3l1.909-.933c22.937-11.214 53.546-3.356 68.246 17.523L506.83 630.984l-9.255 6.959a367.585 367.585 0 0 1-9.045 5.773l-.577.356a52.87 52.87 0 0 0-4.329 2.673l-.56.346-.634.392-.023.015-.176.108.002.003-.172.114.065.096c-20.03 14.942-27.583 42.238-16.936 64.89l80.729 171.746a678.6 678.6 0 0 1-5.185 2.404 2.266 2.266 0 0 0-.518.155c-17.243 7.364-25.665 27.464-18.822 44.925l17.325 44.208a2 2 0 0 0 3.724-1.46l-17.324-44.207c-5.89-15.028 1.017-32.305 15.44-39.231.122-.012.149-.023.467-.143.118-.048.29-.318.528-.425 1.075-.478 3.575-1.833 7.817-3.817 3.759-1.702 5.905-2.58 6.62-2.925.165-.08.383-.09.536-.18.013-.004.079.014.092.009 14.54-6.14 31.849-.276 39.442 13.71l22.749 41.887a2.01 2.01 0 0 0 2.719.807"/>
        <path fill="#877C6B" d="M-50.419 756.417l1.065-1.693.091.057.083.066-1.239 1.57zM27.65 890.836h-.002v.001l-.09-.039a2.392 2.392 0 0 0-.435-.126c-.75-.328-1.724-.757-2.897-1.274l12.635-28.332c11.22-25.159.345-55.295-24.304-67.399l-62.064-39.079c-21.65-17.092-53.737-13.989-71.719 6.932l-72.709 84.593a2 2 0 0 0 3.034 2.608l72.708-84.594c16.585-19.295 46.24-22.163 66.207-6.399l.503.382 62.188 39.104c22.78 11.125 32.861 38.996 22.502 62.223l-12.639 28.344a841.602 841.602 0 0 1-3.95-1.759 2.282 2.282 0 0 0-.455-.286c-16.91-8.193-37.367-1.385-45.839 15.323l-21.526 42.454a2 2 0 0 0 3.568 1.809l21.526-42.454c7.204-14.209 24.246-20.319 38.85-14.284.03.025.056.041.302.193.098.053.232.118.447.218.87.406 3.187 1.441 7.283 3.251 3.838 1.697 5.96 2.626 6.684 2.932.254.107.336.14.468.178.034.012.065.02.16.036a.036.036 0 0 0 .008.004c14.125 6.786 21.314 23.611 16.117 38.601l-15.519 44.765a2 2 0 0 0 3.78 1.31l15.518-44.766c6.13-17.678-2.97-37.47-20.34-44.47zM720.642-156.491l.018.018h.001c.023.022.045.045.07.067.131.123.267.223.405.303.782.76 1.977 1.93 3.618 3.543L703.8-131.23c-19.327 19.671-19.87 52.04-1.218 72.34l.133.146-22.168 19.211c-19.15 16.599-23.437 45.212-10.936 66.683.082.163.135.268.182.355-.083-.089-.016.02.171.293.04.06.087.129.152.222l.133.194a51.38 51.38 0 0 0 2.99 4.338l.004.007.063.086.006.006c.236.344.43.623.623.903l2.981 4.327c.053.154.126.307.221.462 14.514 23.55 45.488 32.144 69.707 19.174L915.525-32.82a1.999 1.999 0 1 0-1.888-3.526L744.955 53.99c-21.07 11.283-47.758 4.854-61.977-14.165 0-.002-.002-.003-.003-.004-.123-.345-.132-.356-.153-.37-.574-.875-2.295-3.388-5.595-8.17a4717.983 4717.983 0 0 0-3.645-5.283c-12.166-19.948-8.346-46.97 9.585-62.51L705.3-55.691l1.176 1.505c16.965 21.737 48.967 26.504 71.537 10.653l91.718-64.413a2 2 0 1 0-2.299-3.274l-91.718 64.413c-20.827 14.626-50.43 10.217-66.085-9.84l-2.47-3.165-.039-.041c-.01-.012-.017-.026-.027-.04-.018-.02-.04-.034-.058-.055l-1.508-1.65c-17.212-18.73-16.708-48.677 1.127-66.83l20.95-21.323c1.363 1.346 2.393 2.365 3.116 3.082.08.124.176.245.29.363.017.018.034.033.051.052l.071.07c13.052 13.384 34.705 14.18 48.592 1.704l35.194-31.615a2 2 0 0 0-2.673-2.976l-35.194 31.615c-11.9 10.692-30.3 10.366-41.948-.435l-.009-.009c-.024-.036-.034-.048-.044-.061a8.084 8.084 0 0 0-.434-.468 833.26 833.26 0 0 0-5.628-5.575l-.005-.005c-.002-.002-.004-.002-.006-.005-3.223-3.175-5.097-5.007-5.87-5.745a18.429 18.429 0 0 0-.38-.353c-.067-.062-.067-.062-.316-.24-.009-.007-.017-.01-.025-.015-.002-.004-.004-.005-.006-.007-11.178-11.375-11.869-29.92-1.324-42.087l31.037-35.812a2 2 0 0 0-3.023-2.62l-31.037 35.813c-12.257 14.143-11.08 35.857 2.61 48.59"/>
        <path fill="#877C6B" d="M538.976 6.936l1.2.994c.913.763 1.975 1.663 3.172 2.693a425.139 425.139 0 0 1 11.357 10.147c11.754 10.869 23.507 22.797 34.472 35.41 11.152 12.828 20.86 25.66 28.705 38.292 10.79 19.454 24.75 49.977 30.808 67.595a1.998 1.998 0 0 0 2.541 1.24 1.998 1.998 0 0 0 1.241-2.54c-6.138-17.854-20.195-48.587-31.142-68.32-8.017-12.914-17.85-25.912-29.134-38.891-11.068-12.732-22.922-24.762-34.775-35.722A432.86 432.86 0 0 0 545.957 7.59a287.452 287.452 0 0 0-4.073-3.438c-19.138-17.505-22.992-48.35-8.775-69.396l152.13-225.22a2 2 0 1 0-3.315-2.238L529.795-67.483c-15.344 22.716-11.198 55.798 9.181 74.419M950.86 43.552l-230 88.5a1.999 1.999 0 1 0 1.442 3.73l230-88.5a2 2 0 0 0-1.442-3.73M110.653 571.228a2 2 0 0 0-2.76.617l-88 139a2 2 0 1 0 3.377 2.143l88-139a2 2 0 0 0-.617-2.76"/>
    </g>
</svg>
