<svg xmlns="http://www.w3.org/2000/svg" width="1200" height="1200" viewBox="0 0 1200 1200">
    <g fill="none" fill-rule="evenodd">
        <path fill="#413A32" d="M904.008 1053.977l-19.118-27.049c-7.928-11.216-23.503-14.666-35.536-8.156l-2.51 1.463a1582.323 1582.323 0 0 1-4.335 2.525c-11.243 7.383-15.25 22.152-9.015 34.132l15.45 29.683a1.516 1.516 0 1 1-2.69 1.403l-15.45-29.682c-6.923-13.3-2.545-29.668 9.686-37.848.203-.15.276-.193.391-.262l.131-.078a.031.031 0 0 1 .009-.005l.707-.418c.238-.14.392-.286.641-.433.264-.155.238-.157.237-.195 0-.009.127-.019.143-.027.028-.012.102-.016.13-.026.037-.021.097-.043.135-.065.627-.365 1.396-.806 2.292-1.329.367-.214.688-.412 1.002-.596.04-.024.09-.043.09-.068v-.002c0-.029.103-.045.174-.086.408-.25.798-.47 1.17-.674.56-.327.924-.475 1.173-.62.192-.11.198-.12.32-.12h.001c.014 0 .04-.085.047-.09 0 .001 0-.02-.001-.016.067-.02.194-.06.35-.084.036-.017.072-.042.109-.058 13.078-5.961 29.2-1.94 37.626 9.982l19.118 27.046a1.516 1.516 0 1 1-2.477 1.753M517.21 1077c.32.1.502.16.891.261.716.189 1.748.416 3.147.683 4.053.77 10.227 1.685 18.95 2.734 7.628.918 13.48 1.486 17.786 1.77 2.89.19 4.862.231 5.827.19 21.265.914 38.34 18.63 38.34 39.581v24.298a1.518 1.518 0 1 1-3.034 0v-24.298c0-19.295-15.748-35.652-34.977-36.556-1.287.057-3.285.013-6.276-.184-4.132-.273-9.703-.804-16.792-1.644l-6.738 58.3a1.527 1.527 0 0 1-1.69 1.334 1.522 1.522 0 0 1-1.339-1.683l6.717-58.313c-7.835-.965-13.5-1.814-17.339-2.544-1.464-.279-2.562-.522-3.352-.73-.369-.096-.634-.175-.816-.238-18.955-3.611-37.936 8.449-42.537 27.119l-5.69 23.092a1.517 1.517 0 1 1-2.947-.727l5.692-23.093c4.999-20.285 25.603-33.34 46.177-29.351"/>
        <path fill="#413A32" d="M956.44 1013.841l-23.543-27.199c-9.318-10.765-8.404-27.303 2.044-36.962.106-.098.216-.178.327-.24.561-.545 1.462-1.43 2.73-2.685l-15.897-16.2c-12.77-13.016-33.635-14.294-48.154-3.48-.777.638-2.134 1.752-4.149 3.403-26.49 21.713-55.365 40.162-86.02 54.878-4.023 1.931-6.152 2.946-6.735 3.212-.45.17-.472.177-.558.185-15.883 8.352-23.698 27.809-17.53 44.964l28.63 79.628a1.516 1.516 0 1 1-2.854 1.03l-28.631-79.629c-7.084-19.703 2.825-42.152 22.146-50.171.06-.013.118-.014.178-.022a3009.86 3009.86 0 0 0 4.043-1.937c30.435-14.61 59.105-32.928 85.409-54.489l1.58-1.295c.058-.053.114-.1.172-.152l-.004-.005c.054-.044.084-.07.16-.13a37.453 37.453 0 0 1 2.146-1.754l.485-.394c.457-.37.457-.37.496-.398.002-.002.03.01.07.028.097-.068.194-.139.293-.206 15.653-10.82 37.476-9.17 50.991 4.604l15.89 16.192.926-.92.183-.194-.008-.007.218-.214.018-.018c.267-.276.495-.498.723-.71.13-.129.238-.233.314-.307.191-.182.191-.182.31-.274.013-.01.035-.02.054-.031l.022-.02c10-8.695 25.33-8.84 35.384.053l27.32 24.163a1.52 1.52 0 0 1 .133 2.144 1.516 1.516 0 0 1-2.142.133l-27.32-24.163c-9.036-7.992-22.929-7.737-31.78.316-.47.47-1.536 1.529-3.303 3.282h-.004v-.002h-.001c-2.298 2.279-3.657 3.617-4.254 4.185-.133.126-.23.218-.3.28-.197.162-.212.175-.294.218-8.632 8.62-9.213 22.822-1.164 32.12l23.542 27.2c.549.635.48 1.594-.153 2.144-.633.549-1.591.48-2.14-.154M157.818 794.883l1.66 3.74c5.773 13.006.186 28.742-12.492 35.178l-32.203 16.35c-.748.379-1.66.08-2.04-.668a1.521 1.521 0 0 1 .668-2.043l32.202-16.348c11.237-5.704 16.21-19.707 11.093-31.235l-2.276-5.128-2.506-5.803c-5-11.576-18.63-17.357-30.407-12.895l-33.432 12.667a1.518 1.518 0 1 1-1.074-2.841l33.432-12.666c13.293-5.037 28.622 1.463 34.265 14.53l1.892 4.38 19.94-8.873c16.722-7.441 25.418-26.758 20.482-44.294a11838.582 11838.582 0 0 1-3.445-10.443c-6.542-16.763-24.835-26.629-42.483-22.411l-82.157 19.636a1.519 1.519 0 1 1-.705-2.955l82.158-19.637c18.82-4.497 38.28 5.753 45.612 23.26l.025.012c.134.248.134.248.145.275.086.246.134.39.201.59l.096.292.036.107a38.976 38.976 0 0 1 1.01 3.042l.009.027h-.001l.02.064.006.058.227.688 174.873-59.246a1.52 1.52 0 0 1 .972 2.878l-174.893 59.253.192.582c.029.077.054.148.081.224l.009-.003.074.228c.311.855.558 1.616.778 2.373a156.196 156.196 0 0 1 .381 1.17c.05.156.05.156.091.423l-.042.022c4.548 18.606-4.827 38.687-22.52 46.561l-19.954 8.88zM651.897 178.78c-.326-.003-.415-.012-.535-.024-.028-.003-.06.029-.09.026-1.147-.065-3.36-.342-3.385-.346-.023-.006-13.295-1.228-15.04-1.358l-1.712 22.73c-1.581 20.842-19.728 37.154-40.624 37.154h-.004c-.013 0-7.69-.064-9.863.026-.838.035-1.545-.636-1.579-1.475a1.527 1.527 0 0 1 1.453-1.59c2.193-.09 11.356.001 11.356.001 18.716-.76 34.809-15.537 36.236-34.348l1.71-22.641c-.747-.054-1.459-.144-2.097-.188-.268-.02-.427-.05-.71-.07-.12-.008-14.179-.023-14.179-.023-19.452 0-35.986-15.753-36.958-35.204l-1.272-25.482-2.765.153a1.72 1.72 0 0 1-.314.05l-.047.004c-.016 0-.045.001-.063.003-14.165 1.044-26.598-9.464-27.85-23.61l-3.167-35.79a1.518 1.518 0 1 1 3.022-.268l3.168 35.767c1.065 12.036 11.307 20.888 23.253 20.888h.01c.018 0 .032.016.055.013.07-.01.154.153.325.142.631-.043 2.453-.155 5.73-.155h-.359v-.238c3.035-.151 4.75-.277 5.707-.31.41-.015.757-.04.909-.035.073.003.119-.007.318.017 12.358-.53 22.459-10.874 22.616-23.304l.463-35.706c.01-.839.704-1.511 1.542-1.5a1.52 1.52 0 0 1 1.5 1.537l-.45 35.704c-.18 14.233-11.84 26.01-26.06 26.312-.14.003-.272-.009-.55-.03-.75.027-2.05.089-3.963.189l1.273 25.652c.89 17.834 16.091 32.471 33.927 32.471h14.03c.643 0 .801-.108 1.07-.089.767.054 1.622.035 2.543.101 2.63.19 5.262.348 7.719.545 1.252.1 2.429.178 3.516.272 1.665.144 9.225.902 9.943.979 16.457.76 31.56-10.847 34.71-27.248l4.715-24.553c-.608-.116-1.143-.218-1.591-.302a1.898 1.898 0 0 1-.238-.025l-.035-.008v.001l-.277-.053-.606-.118a67.517 67.517 0 0 1-.751-.149c-.138-.026-.138-.026-.327-.08l-.034-.018-.085-.022c-12.91-3.278-21.87-15.913-20.346-29.31l4.08-35.856a1.517 1.517 0 1 1 3.014.344l-4.08 35.855c-1.367 12.02 6.824 23.539 18.507 26.273.612.113 2.162.297 4.828 1.056h.036V121.301c3.034.603 4.915.903 5.507 1.023.182.037.244.034.32.056.027.008.037.005.056.011.004 0 .006-.003.01-.002 11.809 1.782 23.601-5.77 26.78-17.44l9.541-35.033a1.517 1.517 0 1 1 2.927.8l-9.542 35.03c-3.74 13.732-17.998 22.375-31.878 19.325a1.873 1.873 0 0 1-.293-.09c-.644-.125-1.496-.288-2.541-.486l-4.718 24.56c-3.419 17.802-19.707 30.403-37.447 29.725M1047.658 915.614a1.515 1.515 0 0 1-2.197.5l-118.9-83.82c-14.928-10.525-35.847-8.062-48.362 5.164l-2.152 2.464c-14.453 16.545-30.52 31.85-47.984 45.758-3.982 3.171-9.182 8.879-12.975 14.807-1.472 2.3-2.716 4.587-3.709 6.841a1.521 1.521 0 0 1-1.604.906 1.522 1.522 0 0 1-1.18-2.12c1.061-2.407 2.382-4.835 3.938-7.266 3.976-6.214 9.402-12.17 13.64-15.544a372.013 372.013 0 0 0 23.135-20.052l-15.445-16.026c-14.504-15.05-14.766-39.62-.604-54.966l9.276-12.653c.448-.61 1.279-.869 1.95-.524a1.522 1.522 0 0 1 .544 2.258l-9.376 12.787-.111.135c-13.127 14.16-12.901 36.942.504 50.853l15.474 16.056a359.705 359.705 0 0 0 22.444-23.479 40.332 40.332 0 0 1 1.987-2.275c.4-.46.472-.54.926-1.06l.238-.272.282-.323.002.004.136-.144.11.11c13.819-12.87 35.18-14.839 50.663-3.924l118.829 83.771c.649.457.911 1.342.521 2.034M526.376 893.096c-.427-.1-.93-.217-1.505-.354a291.837 291.837 0 0 1-5.619-1.41 385.82 385.82 0 0 1-19.427-5.636 1.52 1.52 0 0 1-.986-1.908 1.517 1.517 0 0 1 1.905-.987 381.513 381.513 0 0 0 19.274 5.59c2.08.543 3.942 1.009 5.56 1.396.565.135 1.059.252 1.478.348l.502.114c20.217 5.443 34.44 26.582 31.892 47.32l-11.104 87.995a1.518 1.518 0 1 1-3.012-.372l11.105-87.994c2.362-19.235-10.913-38.966-29.602-44a20.318 20.318 0 0 1-.46-.102M154.578 281.336a1.516 1.516 0 0 1 2.114-.362l250.316 177.342a1.52 1.52 0 0 1 .362 2.117 1.516 1.516 0 0 1-2.114.362L154.939 283.454a1.52 1.52 0 0 1-.361-2.118M760 420.563l204.803-227.468a1.516 1.516 0 0 1 2.143-.11 1.52 1.52 0 0 1 .11 2.144L762.252 422.598a1.515 1.515 0 0 1-2.143.11 1.52 1.52 0 0 1-.11-2.145M1049.55 919.25l27.368 20.65a1.51 1.51 0 0 0 2.122-.302 1.516 1.516 0 0 0-.296-2.125l-27.368-20.65c4.214-2.3 17.132-7.995 28.928.905 14.341 10.82 8.429 29.184 8.429 29.184s-16 10.751-30.341-.07c-11.796-8.9-9.89-22.901-8.842-27.592M1007.437 972.838l25.466 22.958a1.51 1.51 0 0 0 2.14-.113c.561-.624.516-1.58-.11-2.144l-25.465-22.96c4.398-1.924 17.762-6.469 28.738 3.426 13.344 12.031 5.857 29.809 5.857 29.809s-16.875 9.314-30.22-2.717c-10.975-9.895-7.859-23.678-6.406-28.26M963.238 1046.278c-9.69-11.161-4.918-24.461-2.919-28.83l22.482 25.894a1.51 1.51 0 0 0 2.139.148c.632-.55.703-1.505.151-2.14l-22.482-25.896c4.6-1.374 18.418-4.254 28.108 6.907 11.78 13.57 2.185 30.3 2.185 30.3s-17.883 7.186-29.664-6.383M908.858 1087.113c-8.888-11.811-3.202-24.745-.903-28.965l20.623 27.402a1.51 1.51 0 0 0 2.123.297 1.516 1.516 0 0 0 .3-2.125l-20.623-27.402c4.684-1.05 18.67-2.958 27.558 8.853 10.807 14.36.069 30.38.069 30.38s-18.34 5.919-29.147-8.44M779.46 1148.268c-5.293-13.806 3.735-24.67 7.106-28.092l12.28 32.033a1.51 1.51 0 0 0 1.96.871 1.515 1.515 0 0 0 .873-1.96l-12.281-32.033c4.792.284 18.76 2.31 24.054 16.116 6.435 16.786-8.297 29.222-8.297 29.222s-19.26.628-25.695-16.157M581.018 1174.747c.258-14.786 12.692-21.473 17.098-23.381l-.598 34.306a1.514 1.514 0 0 0 1.49 1.543 1.514 1.514 0 0 0 1.544-1.49l.598-34.306c4.336 2.06 16.53 9.178 16.272 23.964-.313 17.977-18.625 23.982-18.625 23.982s-18.092-6.64-17.779-24.618M510.734 1168.498c1.8-14.678 14.864-20.027 19.445-21.464l-4.177 34.057a1.514 1.514 0 0 0 1.321 1.69 1.514 1.514 0 0 0 1.691-1.32l4.176-34.056c4.098 2.503 15.482 10.858 13.682 25.536-2.189 17.846-21.028 21.901-21.028 21.901s-17.299-8.498-15.11-26.344M441.933 1154.397c3.323-14.41 16.874-18.361 21.58-19.31l-7.71 33.431a1.515 1.515 0 0 0 1.139 1.82 1.513 1.513 0 0 0 1.818-1.136l7.709-33.432c3.814 2.918 14.263 12.418 10.941 26.828-4.04 17.519-23.199 19.58-23.199 19.58s-16.318-10.262-12.278-27.781M261.513 1079.398a1.514 1.514 0 0 0 .374 2.113 1.51 1.51 0 0 0 2.11-.371l19.657-28.107c2.444 4.137 8.578 16.865.107 28.979-10.3 14.728-28.835 9.453-28.835 9.453s-11.29-15.635-.99-30.363c8.471-12.114 22.514-10.696 27.232-9.81l-19.655 28.106zM204.752 1033.803a1.516 1.516 0 0 0 .04 2.146c.602.583 1.559.57 2.143-.035l23.804-24.682c1.768 4.469 5.838 18-4.422 28.638-12.474 12.933-29.956 4.82-29.956 4.82s-8.708-17.211 3.765-30.145c10.26-10.637 23.91-7.037 28.43-5.424l-23.804 24.682zM154.929 982.108a1.515 1.515 0 0 0-.222 2.135 1.511 1.511 0 0 0 2.131.226l26.632-21.593c1.21 4.651 3.603 18.579-7.875 27.885-13.955 11.315-30.32 1.13-30.32 1.13s-6.548-18.146 7.407-29.461c11.478-9.306 24.586-4.067 28.878-1.915l-26.631 21.593zM76.465 864.345a1.515 1.515 0 0 0-.766 2.005 1.512 1.512 0 0 0 2 .77l31.305-13.956c-.032 4.807-1.321 18.88-14.814 24.895-16.405 7.313-29.579-6.767-29.579-6.767s-1.635-19.224 14.77-26.537c13.492-6.015 24.8 2.443 28.39 5.634l-31.306 13.956zM49.382 800.742a1.515 1.515 0 0 0-.87 1.962 1.512 1.512 0 0 0 1.958.874l31.992-12.296c-.284 4.798-2.307 18.784-16.096 24.084-16.763 6.443-29.184-8.307-29.184-8.307s-.628-19.284 16.137-25.728c13.788-5.3 24.638 3.739 28.056 7.115l-31.993 12.296zM62.794 724.633l-33.52 7.134a1.514 1.514 0 0 0-1.165 1.8 1.514 1.514 0 0 0 1.797 1.172l33.52-7.134c-1.03 4.694-5.214 18.191-19.66 21.266-17.565 3.738-27.528-12.776-27.528-12.776s2.393-19.145 19.958-22.883c14.447-3.075 23.75 7.552 26.598 11.421M66.227 458.082l-32.94-9.458a1.512 1.512 0 0 0-1.874 1.043 1.515 1.515 0 0 0 1.038 1.878l32.94 9.458c-3.11 3.66-13.133 13.611-27.33 9.535-17.261-4.956-18.315-24.22-18.315-24.22s11.09-15.78 28.351-10.823c14.197 4.076 17.43 17.832 18.13 22.587M114.99 334.973l-30.8-15.04a1.51 1.51 0 0 0-2.026.7 1.516 1.516 0 0 0 .695 2.03l30.8 15.04c-3.697 3.065-15.293 11.123-28.567 4.64-16.14-7.882-13.837-27.038-13.837-27.038s13.658-13.61 29.797-5.728c13.275 6.482 14.073 20.592 13.938 25.396M151.34 276.585l-27.368-20.65a1.51 1.51 0 0 0-2.122.3c-.504.671-.375 1.62.297 2.127l27.368 20.65c-4.215 2.3-17.133 7.995-28.929-.905-14.34-10.82-8.428-29.184-8.428-29.184s16-10.752 30.34.069c11.796 8.9 9.89 22.902 8.842 27.593M356.848 78.67c6.242 13.403-2.007 24.871-5.131 28.52l-14.483-31.097a1.512 1.512 0 0 0-2.015-.732 1.515 1.515 0 0 0-.735 2.016l14.482 31.097c-4.8.052-18.875-.993-25.117-14.396-7.59-16.295 6.241-29.73 6.241-29.73s19.168-1.972 26.758 14.323M557.926 25.445c1.03 14.753-10.774 22.5-14.998 24.784l-2.39-34.228a1.513 1.513 0 0 0-1.62-1.406 1.515 1.515 0 0 0-1.407 1.618l2.39 34.228c-4.499-1.674-17.266-7.7-18.296-22.453-1.252-17.935 16.467-25.516 16.467-25.516s18.602 5.037 19.854 22.973M609.416 48l.597-34.307a1.512 1.512 0 0 0-1.49-1.543 1.513 1.513 0 0 0-1.543 1.49l-.598 34.306c-4.337-2.06-16.53-9.178-16.272-23.964C590.423 6.005 608.735 0 608.735 0s18.092 6.641 17.779 24.618C626.256 39.404 613.82 46.091 609.416 48M748.286 30.058a1.512 1.512 0 0 0-1.876 1.04l-9.445 32.982c-3.657-3.115-13.595-13.15-9.524-27.365 4.95-17.283 24.19-18.338 24.19-18.338s15.759 11.103 10.81 28.386c-4.072 14.216-17.811 17.453-22.56 18.154l9.446-32.983a1.514 1.514 0 0 0-1.041-1.876M994.194 164.978a1.515 1.515 0 0 0-.152-2.141 1.51 1.51 0 0 0-2.138.148L969.42 188.88c-1.998-4.37-6.77-17.67 2.92-28.83 11.78-13.57 29.663-6.384 29.663-6.384s9.596 16.73-2.184 30.3c-9.69 11.161-23.508 8.281-28.109 6.908l22.483-25.896zM1137.484 473.914l32.941-9.458a1.513 1.513 0 0 0 1.038-1.877 1.513 1.513 0 0 0-1.874-1.043l-32.941 9.458c.7-4.755 3.933-18.512 18.131-22.588 17.261-4.956 28.35 10.823 28.35 10.823s-1.053 19.265-18.315 24.22c-14.197 4.077-24.219-5.874-27.33-9.535"/>
        <path fill="#413A32" d="M881.039 890.141l-23.805-24.682c4.522-1.613 18.17-5.214 28.43 5.424 12.474 12.934 3.766 30.145 3.766 30.145s-17.483 8.113-29.957-4.82c-10.26-10.638-6.19-24.17-4.422-28.64l23.805 24.683a1.51 1.51 0 0 0 2.143.036c.603-.583.624-1.54.04-2.146M837.817 1000.79l-17.134-29.716c4.778-.47 18.89-.657 26.275 12.15 8.978 15.571-3.63 30.162-3.63 30.162s-18.923 3.637-27.901-11.934c-7.385-12.807-.167-24.951 2.628-28.859l17.135 29.715a1.51 1.51 0 0 0 2.07.554c.726-.42.977-1.343.557-2.073M804.566 925.536l17.65 29.412c-4.769.553-18.877.986-26.483-11.69-9.25-15.411 3.103-30.22 3.103-30.22s18.857-3.967 28.106 11.445c7.606 12.676.601 24.944-2.126 28.9l-17.65-29.411a1.511 1.511 0 0 0-2.08-.517 1.515 1.515 0 0 0-.52 2.081M968.073 975.665l-23.371-25.094c4.55-1.534 18.259-4.895 28.331 5.92 12.247 13.15 3.24 30.206 3.24 30.206s-17.622 7.807-29.868-5.343c-10.073-10.815-5.767-24.274-3.922-28.711l23.371 25.094c.57.612 1.526.649 2.142.073.613-.573.65-1.53.077-2.145M866.89 1052.633l-16.614-30.01c4.785-.386 18.9-.326 26.06 12.607 8.705 15.726-4.155 30.094-4.155 30.094s-18.984 3.306-27.69-12.42c-7.16-12.934.269-24.95 3.131-28.808l16.614 30.01c.405.733 1.323 1 2.061.59.733-.407 1-1.326.593-2.063M766.924 674.392l30.8 15.041a1.51 1.51 0 0 0 2.026-.7 1.516 1.516 0 0 0-.696-2.03l-30.8-15.041c3.698-3.065 15.294-11.122 28.568-4.64 16.14 7.883 13.837 27.038 13.837 27.038S797 707.671 780.862 699.79c-13.275-6.483-14.073-20.592-13.938-25.397"/>
        <path fill="#756B5E" d="M595.125 747.045c-.773-14.768 11.165-22.308 15.427-24.518l1.794 34.264a1.513 1.513 0 0 0 1.594 1.435 1.513 1.513 0 0 0 1.436-1.594l-1.794-34.265c4.47 1.753 17.13 8.001 17.903 22.77.94 17.954-16.91 25.224-16.91 25.224s-18.51-5.362-19.45-23.316"/>
        <path fill="#413A32" d="M646.622 813.961l-6.538-33.68c4.67 1.113 18.075 5.536 20.893 20.052 3.426 17.65-13.239 27.336-13.239 27.336s-19.075-2.73-22.502-20.38c-2.818-14.516 7.956-23.646 11.87-26.43l6.538 33.683c.16.821.95 1.36 1.778 1.198a1.515 1.515 0 0 0 1.2-1.779M309.992 619.636s5.355-18.534 23.287-19.475c14.75-.774 22.279 11.18 24.488 15.448l-34.222 1.795a1.514 1.514 0 0 0-1.433 1.597 1.514 1.514 0 0 0 1.592 1.437l34.221-1.796c-1.75 4.476-7.99 17.151-22.74 17.925-17.932.941-25.193-16.93-25.193-16.93M622.38 877.354l-2.39-34.228c4.5 1.675 17.266 7.7 18.297 22.453 1.252 17.935-16.468 25.516-16.468 25.516s-18.6-5.037-19.854-22.973c-1.03-14.753 10.775-22.499 14.998-24.784l2.391 34.228a1.512 1.512 0 0 0 1.619 1.407 1.514 1.514 0 0 0 1.408-1.619M860.851 381.351c.65-.527.753-1.478.222-2.135a1.512 1.512 0 0 0-2.131-.226l-26.631 21.593c-1.212-4.651-3.604-18.578 7.874-27.885 13.955-11.315 30.32-1.129 30.32-1.129s6.548 18.146-7.407 29.46c-11.478 9.308-24.586 4.069-28.878 1.915l26.631-21.593zM607.19 259.281l-1.196 34.291c-4.3-2.136-16.368-9.465-15.852-24.245.626-17.97 19.04-23.653 19.04-23.653s17.974 6.957 17.347 24.925c-.515 14.78-13.064 21.248-17.503 23.079l1.197-34.29a1.513 1.513 0 0 0-1.464-1.57c-.837-.029-1.54.621-1.569 1.463M770.168 882.803c8.152 16.02-5.2 29.93-5.2 29.93s-19.09 2.64-27.241-13.38c-6.706-13.176 1.138-24.925 4.133-28.68l15.558 30.571a1.511 1.511 0 0 0 2.04.662 1.515 1.515 0 0 0 .663-2.041l-15.557-30.572c4.795-.219 18.898.333 25.604 13.51M855.243 486.69a1.514 1.514 0 0 0 .766-2.004 1.512 1.512 0 0 0-2-.77l-31.305 13.955c.032-4.806 1.321-18.88 14.814-24.895 16.404-7.312 29.579 6.767 29.579 6.767s1.635 19.225-14.77 26.538c-13.492 6.014-24.8-2.443-28.39-5.635l31.306-13.955zM710.127 846.74c6.142 16.895-8.805 29.072-8.805 29.072s-19.267.292-25.408-16.603c-5.052-13.896 4.162-24.6 7.593-27.963l11.72 32.242a1.512 1.512 0 0 0 1.944.905 1.515 1.515 0 0 0 .908-1.944l-11.72-32.242c4.786.368 18.717 2.637 23.768 16.534M772.516 805.174c11.056 14.169.599 30.375.599 30.375s-18.235 6.238-29.29-7.93c-9.093-11.653-3.633-24.685-1.408-28.945l21.098 27.038a1.51 1.51 0 0 0 2.128.26c.66-.516.78-1.466.263-2.13l-21.098-27.037c4.666-1.132 18.615-3.284 27.708 8.37M834.272 669.944l32.771 10.031c.8.246 1.646-.201 1.892-1.008.245-.803-.2-1.65-1.004-1.897L835.16 667.04c3.174-3.606 13.368-13.38 27.491-9.057 17.173 5.257 17.89 24.538 17.89 24.538s-11.362 15.581-28.535 10.325c-14.124-4.324-17.116-18.135-17.734-22.901M652.558 333.38c-2.056 14.644-15.211 19.764-19.816 21.12l4.769-33.978a1.513 1.513 0 0 0-1.292-1.712 1.512 1.512 0 0 0-1.713 1.29l-4.77 33.977c-4.053-2.574-15.29-11.126-13.234-25.77 2.5-17.805 21.406-21.532 21.406-21.532s17.149 8.8 14.65 26.605M460.295 300.49c6.933 13.056-.704 24.94-3.634 28.748l-16.088-30.295a1.512 1.512 0 0 0-2.05-.626 1.516 1.516 0 0 0-.629 2.052l16.089 30.296c-4.791.303-18.903-.003-25.837-13.06-8.43-15.876 4.68-30.017 4.68-30.017s19.038-2.974 27.469 12.901M543.3 1043.14l-4.176 34.056c-4.098-2.503-15.482-10.858-13.682-25.536 2.188-17.846 21.027-21.901 21.027-21.901s17.3 8.498 15.112 26.344c-1.8 14.678-14.864 20.027-19.446 21.464l4.177-34.057a1.514 1.514 0 0 0-1.322-1.69 1.513 1.513 0 0 0-1.69 1.32M152.261 797.231c-.2 4.803-1.979 18.822-15.673 24.362-16.65 6.735-29.325-7.796-29.325-7.796s-.964-19.27 15.685-26.005c13.694-5.54 24.7 3.307 28.176 6.622l-31.773 12.854a1.514 1.514 0 0 0-.835 1.976 1.512 1.512 0 0 0 1.972.841l31.773-12.854zM163.652 724.675c14.124-4.324 24.318 5.45 27.492 9.056l-32.771 10.032a1.514 1.514 0 0 0-1.005 1.896 1.512 1.512 0 0 0 1.892 1.009l32.771-10.031c-.617 4.766-3.61 18.577-17.734 22.9-17.172 5.257-28.535-10.326-28.535-10.326s.718-19.28 17.89-24.536M63.152 624.89s5.676-18.438 23.623-19.065c14.76-.517 22.08 11.566 24.214 15.872l-34.248 1.197c-.836.03-1.49.727-1.46 1.572.03.838.725 1.494 1.566 1.465l34.248-1.198c-1.83 4.445-8.29 17.009-23.05 17.525-17.946.628-24.893-17.368-24.893-17.368M306.758 250.41c9.69 11.162 4.917 24.462 2.919 28.831l-22.483-25.895a1.51 1.51 0 0 0-2.138-.148 1.516 1.516 0 0 0-.152 2.141l22.483 25.896c-4.601 1.374-18.418 4.254-28.109-6.907-11.78-13.57-2.184-30.3-2.184-30.3s17.883-7.186 29.664 6.383M301.02 178.565c9.494 11.329 4.492 24.543 2.416 28.878l-22.027-26.285a1.511 1.511 0 0 0-2.136-.185 1.517 1.517 0 0 0-.189 2.138l22.028 26.284c-4.623 1.294-18.49 3.932-27.983-7.396-11.543-13.774-1.657-30.334-1.657-30.334s18.006-6.873 29.548 6.9M385.184 103.743s19.225-1.301 26.241 15.25c5.771 13.612-2.871 24.785-6.12 28.322l-13.39-31.584a1.511 1.511 0 0 0-1.989-.802 1.515 1.515 0 0 0-.804 1.989l13.39 31.584c-4.8-.116-18.83-1.652-24.602-15.265-7.016-16.55 7.274-29.494 7.274-29.494M698.733 83.347l-5.95 33.79c-3.962-2.714-14.894-11.654-12.328-26.218 3.117-17.706 22.143-20.769 22.143-20.769s16.831 9.394 13.713 27.1c-2.565 14.564-15.89 19.22-20.54 20.415l5.95-33.79c.146-.825-.4-1.61-1.231-1.757-.825-.146-1.61.4-1.757 1.23M397.134 864.368c8.471-12.114 22.514-10.696 27.232-9.81l-19.655 28.106a1.514 1.514 0 0 0 .374 2.113 1.511 1.511 0 0 0 2.11-.37l19.657-28.108c2.445 4.137 8.578 16.865.107 28.979-10.3 14.728-28.835 9.453-28.835 9.453s-11.29-15.635-.99-30.363M437.144 530.775l31.992 12.297a1.51 1.51 0 0 0 1.957-.875c.3-.783-.085-1.66-.87-1.961l-31.992-12.297c3.418-3.376 14.268-12.414 28.056-7.114 16.765 6.443 16.137 25.727 16.137 25.727s-12.42 14.75-29.185 8.308c-13.789-5.3-15.812-19.286-16.095-24.085M388.336 668.157a1.512 1.512 0 0 0 1.926.943l32.402-11.17c-.451 4.784-2.96 18.691-16.925 23.506-16.98 5.854-28.878-9.322-28.878-9.322s.045-19.294 17.024-25.148c13.965-4.814 24.493 4.598 27.79 8.091l-32.401 11.17a1.514 1.514 0 0 0-.938 1.93M1152.061 606.514l34.263.599a1.512 1.512 0 0 0 1.541-1.492 1.513 1.513 0 0 0-1.487-1.545l-34.263-.599c2.057-4.343 9.166-16.552 23.934-16.293 17.953.313 23.951 18.65 23.951 18.65s-6.633 18.114-24.587 17.8c-14.767-.258-21.446-12.709-23.352-17.12M1147.266 672.401l33.935 4.775a1.512 1.512 0 0 0 1.71-1.293 1.515 1.515 0 0 0-1.288-1.715l-33.935-4.775c2.572-4.059 11.113-15.31 25.739-13.251 17.782 2.502 21.503 21.433 21.503 21.433s-8.788 17.17-26.57 14.668c-14.626-2.058-19.74-15.231-21.094-19.842M844.68 1121.126c-6.706-13.177 1.138-24.926 4.134-28.682l15.557 30.572a1.51 1.51 0 0 0 2.04.662 1.516 1.516 0 0 0 .664-2.041l-15.558-30.572c4.796-.219 18.9.333 25.604 13.51 8.153 16.02-5.2 29.93-5.2 29.93s-19.09 2.64-27.241-13.38M388.033 1149.283c.782.3 1.657-.086 1.96-.872l12.28-32.032c3.37 3.422 12.398 14.285 7.105 28.091-6.435 16.786-25.694 16.158-25.694 16.158s-14.733-12.437-8.297-29.222c5.293-13.807 19.261-15.832 24.053-16.116l-12.28 32.033c-.3.782.086 1.657.873 1.96"/>
        <path fill="#00CC92" d="M192.608 227.31l-24.65-23.836a1.511 1.511 0 0 0-2.144.04 1.517 1.517 0 0 0 .036 2.146l24.65 23.835c-4.463 1.77-17.978 5.845-28.602-4.428-12.917-12.49-4.814-29.994-4.814-29.994s17.19-8.72 30.107 3.77c10.624 10.273 7.028 23.94 5.417 28.466M1080.511 387.28a1.515 1.515 0 0 0 .66-2.042 1.512 1.512 0 0 0-2.037-.666L1048.6 400.15c-.22-4.801.332-18.922 13.492-25.636 16-8.162 29.893 5.208 29.893 5.208s2.637 19.112-13.363 27.275c-13.16 6.713-24.894-1.14-28.645-4.14l30.533-15.577z"/>
        <path fill="#756B5E" d="M708.497 803.901s-18.985 3.306-27.69-12.42c-7.16-12.934.268-24.95 3.132-28.808l16.613 30.01c.406.732 1.323 1 2.061.59.733-.407 1-1.327.592-2.063l-16.613-30.01c4.785-.386 18.899-.327 26.06 12.607 8.705 15.725-4.155 30.094-4.155 30.094"/>
        <path fill="#00CC92" d="M353.81 725.843a1.514 1.514 0 0 0-.66 2.042 1.512 1.512 0 0 0 2.038.665l30.533-15.577c.218 4.801-.333 18.922-13.493 25.636-16 8.163-29.892-5.207-29.892-5.207s-2.637-19.112 13.362-27.275c13.16-6.714 24.895 1.14 28.646 4.139l-30.534 15.577zM768.187 391.3c-9.093 11.654-23.043 9.502-27.709 8.37l21.098-27.037c.515-.66.402-1.61-.263-2.13a1.511 1.511 0 0 0-2.128.26L738.087 397.8c-2.224-4.259-7.684-17.29 1.408-28.944 11.056-14.168 29.29-7.93 29.29-7.93s10.457 16.206-.598 30.374M601.337 444.806c1.543-14.707 14.513-20.284 19.068-21.8l-3.582 34.124a1.513 1.513 0 0 0 1.35 1.667 1.514 1.514 0 0 0 1.667-1.35l3.582-34.123c4.14 2.431 15.668 10.586 14.125 25.293-1.877 17.881-20.642 22.265-20.642 22.265s-17.446-8.195-15.568-26.076M291.33 964.562s-10.174-16.386 1.126-30.358c9.295-11.493 23.205-9.097 27.85-7.885l-21.565 26.666c-.527.65-.43 1.602.226 2.134a1.51 1.51 0 0 0 2.131-.223l21.566-26.665c2.15 4.297 7.383 17.422-1.912 28.915-11.3 13.973-29.423 7.416-29.423 7.416M170.845 579.627l-34.248-1.198a1.513 1.513 0 0 0-1.566 1.465c-.03.838.62 1.542 1.46 1.571l34.248 1.198c-2.134 4.306-9.454 16.388-24.214 15.872-17.946-.627-23.623-19.065-23.623-19.065s6.948-17.996 24.894-17.369c14.76.517 21.22 13.081 23.05 17.526M530.16 297.157l-8.29-33.292a1.513 1.513 0 0 0-1.838-1.105 1.516 1.516 0 0 0-1.106 1.839l8.29 33.293c-4.722-.866-18.34-4.582-21.912-18.931-4.344-17.446 11.791-27.991 11.791-27.991s19.193 1.726 23.537 19.172c3.573 14.349-6.71 24.03-10.472 27.015M804.952 217.757s-12.86-14.368-4.154-30.094c7.16-12.934 21.274-12.993 26.059-12.607l-16.613 30.01a1.514 1.514 0 0 0 .592 2.062 1.512 1.512 0 0 0 2.06-.59l16.614-30.009c2.864 3.858 10.293 15.874 3.132 28.808-8.705 15.726-27.69 12.42-27.69 12.42M970.41 586.914l34.248-1.198a1.512 1.512 0 0 0 1.46-1.57 1.513 1.513 0 0 0-1.566-1.465l-34.248 1.197c1.83-4.444 8.29-17.01 23.05-17.525 17.946-.627 24.893 17.369 24.893 17.369s-5.676 18.437-23.623 19.065c-14.76.515-22.08-11.568-24.214-15.873M509.905 475.034c11.543 13.774 1.657 30.334 1.657 30.334s-18.005 6.872-29.548-6.9c-9.494-11.33-4.491-24.543-2.416-28.878l22.027 26.285a1.51 1.51 0 0 0 2.136.185c.642-.54.73-1.493.188-2.138l-22.027-26.285c4.624-1.293 18.49-3.931 27.983 7.397M.634 592.084s6.633-18.115 24.587-17.8c14.767.257 21.446 12.707 23.352 17.119l-34.263-.6a1.513 1.513 0 0 0-1.54 1.493c-.016.84.645 1.53 1.487 1.546l34.263.598c-2.058 4.342-9.167 16.552-23.934 16.294C6.632 610.42.634 592.084.634 592.084M53.316 524.139l-34.013-4.182a1.512 1.512 0 0 0-1.688 1.323 1.515 1.515 0 0 0 1.319 1.693l34.012 4.181c-2.5 4.104-10.844 15.501-25.503 13.699-17.823-2.191-21.874-21.054-21.874-21.054s8.488-17.32 26.31-15.13c14.66 1.802 20.002 14.883 21.437 19.47M419.823 52.14c5.052 13.897-4.163 24.601-7.593 27.963L400.509 47.86a1.512 1.512 0 0 0-1.944-.905 1.515 1.515 0 0 0-.907 1.945l11.72 32.242c-4.786-.367-18.717-2.637-23.768-16.533-6.142-16.896 8.805-29.073 8.805-29.073s19.266-.291 25.408 16.604M474.787 60.912l-8.29-33.293a1.513 1.513 0 0 0-1.838-1.104 1.516 1.516 0 0 0-1.106 1.839l8.29 33.293c-4.721-.867-18.34-4.582-21.912-18.931-4.344-17.446 11.791-27.991 11.791-27.991s19.193 1.726 23.537 19.172c3.573 14.349-6.71 24.03-10.472 27.015M814.459 52.496a1.513 1.513 0 0 0-1.96.87L800.22 85.4c-3.37-3.422-12.398-14.286-7.105-28.092 6.435-16.785 25.694-16.157 25.694-16.157s14.733 12.436 8.297 29.222c-5.293 13.806-19.261 15.831-24.053 16.115l12.28-32.032a1.515 1.515 0 0 0-.873-1.96M1043.278 217.173c.62-.56.675-1.516.11-2.143a1.513 1.513 0 0 0-2.14-.115l-25.467 22.96c-1.453-4.581-4.57-18.365 6.406-28.26 13.345-12.03 30.22-2.716 30.22-2.716s7.488 17.777-5.857 29.808c-10.976 9.895-24.34 5.35-28.739 3.426l25.467-22.96zM1148.105 540.066l34.013-4.182a1.513 1.513 0 0 0 1.318-1.692 1.513 1.513 0 0 0-1.687-1.323l-34.014 4.181c1.435-4.587 6.778-17.667 21.437-19.47 17.823-2.19 26.31 15.13 26.31 15.13s-4.05 18.863-21.873 21.055c-14.66 1.802-23.003-9.597-25.504-13.7M892.196 804.914s-15.417 11.576-30.304 1.522c-12.244-8.27-11.073-22.353-10.272-27.092l28.41 19.187a1.51 1.51 0 0 0 2.104-.412 1.515 1.515 0 0 0-.408-2.107l-28.409-19.187c4.088-2.519 16.69-8.882 28.935-.613 14.887 10.055 9.944 28.702 9.944 28.702M1027.486 643.705l34.22 1.796a1.512 1.512 0 0 0 1.593-1.437 1.514 1.514 0 0 0-1.433-1.597l-34.222-1.795c2.209-4.268 9.738-16.221 24.488-15.447 17.932.94 23.287 19.475 23.287 19.475s-7.26 17.871-25.193 16.93c-14.75-.774-20.99-13.449-22.74-17.925M788.644 501.762c-12.526 7.836-24.899 1.037-28.896-1.624l29.06-18.182c.71-.444.928-1.376.482-2.092a1.512 1.512 0 0 0-2.089-.484l-29.061 18.182c-.636-4.764-1.316-18.88 11.21-26.716 15.228-9.528 30.231 2.58 30.231 2.58s4.291 18.808-10.937 28.336M531.942 741.896l15.022-30.84c3.06 3.703 11.108 15.314 4.633 28.606-7.871 16.16-27.003 13.853-27.003 13.853S511 739.84 518.872 723.68c6.475-13.292 20.567-14.09 25.365-13.955l-15.022 30.839a1.516 1.516 0 0 0 .7 2.03c.753.367 1.658.058 2.027-.698M256.717 676.942s2.06-19.183 19.557-23.228c14.39-3.326 23.878 7.136 26.794 10.955l-33.39 7.718a1.514 1.514 0 0 0-1.135 1.822 1.513 1.513 0 0 0 1.817 1.138l33.39-7.718c-.948 4.712-4.895 18.28-19.286 21.606-17.497 4.045-27.747-12.293-27.747-12.293M293.504 425.75s14.35-12.876 30.055-4.159c12.918 7.17 12.977 21.302 12.592 26.093l-29.972-16.635a1.51 1.51 0 0 0-2.06.593 1.515 1.515 0 0 0 .588 2.064l29.972 16.634c-3.853 2.867-15.854 10.306-28.772 3.136-15.705-8.717-12.403-27.725-12.403-27.725M950.873 644.938s-9.087 17.014-26.822 14.202c-14.588-2.314-19.47-15.574-20.745-20.207l33.847 5.367a1.512 1.512 0 0 0 1.733-1.263 1.515 1.515 0 0 0-1.259-1.738l-33.846-5.367c2.642-4.013 11.378-15.113 25.965-12.8 17.736 2.813 21.127 21.806 21.127 21.806M891.291 508.796l32.771-10.032a1.514 1.514 0 0 0 1.005-1.895 1.513 1.513 0 0 0-1.892-1.01l-32.771 10.032c.617-4.766 3.61-18.577 17.734-22.9 17.173-5.258 28.535 10.325 28.535 10.325s-.718 19.28-17.89 24.537c-14.124 4.323-24.318-5.45-27.492-9.057M691.251 271.181a1.512 1.512 0 0 0-1.876 1.04l-9.445 32.982c-3.657-3.115-13.594-13.15-9.523-27.365 4.95-17.283 24.19-18.338 24.19-18.338s15.758 11.103 10.809 28.386c-4.072 14.216-17.81 17.453-22.56 18.155l9.446-32.984a1.514 1.514 0 0 0-1.04-1.876M461.973 824.126a1.514 1.514 0 0 0-.412-2.106 1.511 1.511 0 0 0-2.104.407l-19.163 28.446c-2.516-4.093-8.87-16.712-.612-28.972 10.042-14.906 28.667-9.956 28.667-9.956s11.56 15.436 1.518 30.342c-8.259 12.26-22.324 11.088-27.057 10.285l19.163-28.446zM205.181 427.35l-31.057-14.5a1.511 1.511 0 0 0-2.014.735 1.516 1.516 0 0 0 .73 2.018l31.059 14.5c-3.645 3.13-15.098 11.387-28.484 5.138-16.274-7.598-14.305-26.792-14.305-26.792s13.419-13.847 29.693-6.248c13.386 6.25 14.43 20.343 14.378 25.15M924.908 392.794a1.515 1.515 0 0 0-.48 2.091 1.511 1.511 0 0 0 2.088.485l29.061-18.182c.636 4.764 1.315 18.88-11.21 26.716-15.228 9.528-30.232-2.579-30.232-2.579s-4.29-18.81 10.938-28.337c12.525-7.837 24.899-1.038 28.897 1.624l-29.062 18.182zM496.526 404.194a1.511 1.511 0 0 0-2.015-.732 1.515 1.515 0 0 0-.735 2.016l14.483 31.097c-4.8.052-18.876-.993-25.118-14.396-7.59-16.296 6.241-29.73 6.241-29.73s19.168-1.972 26.757 14.323c6.242 13.403-2.006 24.87-5.13 28.52l-14.483-31.098zM423.226 592.458l34.221 1.796a1.513 1.513 0 0 0 1.592-1.437 1.514 1.514 0 0 0-1.433-1.597l-34.221-1.796c2.208-4.267 9.738-16.22 24.487-15.446 17.933.94 23.287 19.475 23.287 19.475s-7.26 17.871-25.192 16.93c-14.75-.774-20.99-13.449-22.741-17.925M1134.622 737.968l33.39 7.719a1.513 1.513 0 0 0 1.817-1.14 1.516 1.516 0 0 0-1.135-1.82l-33.39-7.719c2.915-3.82 12.403-14.281 26.795-10.955 17.496 4.045 19.555 23.228 19.555 23.228s-10.25 16.338-27.746 12.294c-14.39-3.327-18.338-16.895-19.286-21.607M1113.756 801.155l31.992 12.296a1.51 1.51 0 0 0 1.957-.874c.3-.784-.085-1.66-.87-1.962l-31.992-12.296c3.418-3.376 14.268-12.414 28.056-7.114 16.765 6.443 16.136 25.727 16.136 25.727s-12.42 14.75-29.184 8.307c-13.789-5.3-15.812-19.286-16.095-24.084"/>
        <path fill="#756B5E" d="M677.36 17.003a1.513 1.513 0 0 0-1.69 1.32l-4.176 34.055c-4.098-2.503-15.481-10.857-13.681-25.535C660 8.997 678.84 4.94 678.84 4.94s17.299 8.499 15.11 26.345c-1.8 14.678-14.864 20.027-19.444 21.463l4.176-34.057a1.514 1.514 0 0 0-1.321-1.69M816.762 633.164a1.515 1.515 0 0 0-1.259-1.738l-33.846-5.368c2.642-4.013 11.378-15.112 25.965-12.799 17.736 2.813 21.127 21.806 21.127 21.806s-9.086 17.014-26.822 14.201c-14.588-2.313-19.47-15.573-20.745-20.207l33.847 5.368a1.512 1.512 0 0 0 1.733-1.263M262.91 548.031a1.513 1.513 0 0 0 1.287 1.715l33.935 4.776c-2.571 4.058-11.113 15.309-25.738 13.25-17.782-2.501-21.504-21.432-21.504-21.432s8.789-17.17 26.57-14.668c14.627 2.058 19.74 15.23 21.095 19.841l-33.935-4.775a1.512 1.512 0 0 0-1.71 1.293M724.025 459.332c-1.845-4.437-6.15-17.896 3.923-28.71 12.246-13.15 29.868-5.344 29.868-5.344s9.007 17.057-3.24 30.206c-10.073 10.815-23.782 7.454-28.332 5.92l23.371-25.094c.57-.612.541-1.569-.076-2.145a1.512 1.512 0 0 0-2.142.073l-23.372 25.094zM577.38 109.092L576.184 74.8a1.512 1.512 0 0 0-1.568-1.462 1.513 1.513 0 0 0-1.464 1.568l1.197 34.291c-4.44-1.831-16.988-8.3-17.504-23.079-.626-17.969 17.347-24.925 17.347-24.925s18.414 5.684 19.041 23.652c.515 14.78-11.552 22.11-15.853 24.246M633.349 136.526l-2.987 34.18c-4.183-2.358-15.85-10.31-14.563-25.041 1.565-17.912 20.251-22.624 20.251-22.624s17.585 7.89 16.02 25.8c-1.288 14.732-14.157 20.535-18.685 22.13l2.987-34.18a1.514 1.514 0 0 0-1.38-1.644 1.514 1.514 0 0 0-1.643 1.379M419.824 469.672a1.517 1.517 0 0 0 .334 2.121l27.723 20.168c-4.173 2.375-16.99 8.293-28.938-.4-14.528-10.568-8.938-29.03-8.938-29.03s15.81-11.03 30.338-.463c11.95 8.693 10.288 22.727 9.322 27.435l-27.724-20.168a1.511 1.511 0 0 0-2.117.337M1085.938 862.209l30.257 16.109a1.512 1.512 0 0 0 2.05-.63 1.516 1.516 0 0 0-.625-2.053l-30.257-16.108c3.802-2.934 15.672-10.58 28.712-3.638 15.855 8.441 12.886 27.505 12.886 27.505s-14.124 13.124-29.98 4.683c-13.04-6.942-13.346-21.071-13.043-25.868M317.528 1129.844s-13.109-14.142-4.679-30.017c6.934-13.057 21.045-13.363 25.836-13.06l-16.088 30.296a1.514 1.514 0 0 0 .628 2.051c.74.394 1.656.118 2.052-.625l16.087-30.296c2.93 3.808 10.567 15.692 3.634 28.75-8.43 15.875-27.47 12.901-27.47 12.901M112.265 925.232a1.515 1.515 0 0 0-.553 2.074 1.511 1.511 0 0 0 2.07.557l29.677-17.156c.47 4.784.657 18.915-12.134 26.308-15.552 8.99-30.124-3.633-30.124-3.633s-3.632-18.948 11.919-27.938c12.791-7.394 24.92-.166 28.822 2.632l-29.677 17.156zM52.078 658.14l-34.222 1.795a1.514 1.514 0 0 0-1.433 1.597 1.514 1.514 0 0 0 1.592 1.438l34.221-1.797c-1.75 4.476-7.99 17.152-22.74 17.926-17.932.941-25.193-16.931-25.193-16.931s5.355-18.534 23.287-19.475c14.75-.774 22.279 11.18 24.488 15.447M86.984 395.59l-32.202-11.735a1.512 1.512 0 0 0-1.942.91 1.515 1.515 0 0 0 .904 1.945l32.202 11.736c-3.358 3.434-14.05 12.661-27.928 7.603-16.874-6.15-16.582-25.44-16.582-25.44s12.161-14.967 29.035-8.817c13.879 5.057 16.145 19.006 16.513 23.799M238.83 152.24c9.295 11.493 4.063 24.618 1.913 28.916l-21.566-26.666a1.51 1.51 0 0 0-2.132-.223 1.516 1.516 0 0 0-.226 2.135l21.566 26.665c-4.645 1.213-18.555 3.608-27.85-7.885-11.3-13.972-1.127-30.358-1.127-30.358s18.122-6.557 29.422 7.416M295.13 111.432c7.827 12.541 1.037 24.93-1.62 28.933l-18.16-29.098a1.511 1.511 0 0 0-2.09-.481 1.515 1.515 0 0 0-.483 2.09l18.16 29.099c-4.76.636-18.856 1.317-26.683-11.225-9.516-15.247 2.575-30.27 2.575-30.27s18.786-4.296 28.302 10.952M863.33 114.258l16.614-30.01a1.515 1.515 0 0 0-.593-2.063 1.512 1.512 0 0 0-2.06.59l-16.615 30.01c-2.862-3.858-10.292-15.874-3.131-28.808 8.706-15.726 27.69-12.42 27.69-12.42s12.86 14.368 4.155 30.094c-7.16 12.934-21.275 12.993-26.06 12.607M938.934 120.634a1.516 1.516 0 0 0-.448-2.1 1.513 1.513 0 0 0-2.097.445l-18.664 28.777c-2.587-4.05-9.16-16.554-1.116-28.957 9.78-15.079 28.487-10.455 28.487-10.455s11.828 15.23 2.048 30.31c-8.044 12.402-22.128 11.476-26.874 10.757l18.664-28.777zM1087.167 270.527c.677-.492.83-1.437.334-2.12a1.512 1.512 0 0 0-2.117-.338l-27.724 20.168c-.966-4.708-2.628-18.742 9.322-27.434 14.527-10.568 30.337.461 30.337.461s5.59 18.464-8.937 29.032c-11.948 8.692-24.765 2.774-28.939.4l27.724-20.17zM1121.518 332.693a1.514 1.514 0 0 0 .589-2.063 1.512 1.512 0 0 0-2.06-.594l-29.971 16.635c-.386-4.79-.327-18.923 12.59-26.092 15.706-8.717 30.056 4.16 30.056 4.16s3.302 19.008-12.404 27.725c-12.917 7.168-24.918-.27-28.772-3.136l29.972-16.635zM1149.87 397.446a1.514 1.514 0 0 0 .87-1.962 1.511 1.511 0 0 0-1.958-.874l-31.992 12.296c.283-4.798 2.306-18.785 16.095-24.084 16.764-6.443 29.185 8.308 29.185 8.308s.628 19.283-16.137 25.726c-13.788 5.3-24.638-3.738-28.056-7.114l31.992-12.296zM1045.536 807.595l31.306 13.956c.764.34 1.658 0 2-.77a1.516 1.516 0 0 0-.766-2.006l-31.306-13.956c3.59-3.19 14.897-11.649 28.39-5.633 16.404 7.312 14.77 26.536 14.77 26.536s-13.175 14.08-29.58 6.767c-13.492-6.015-14.781-20.087-14.814-24.894M1084.312 515.805l33.846-5.367a1.514 1.514 0 0 0 1.259-1.738 1.513 1.513 0 0 0-1.734-1.263l-33.846 5.368c1.274-4.634 6.157-17.894 20.745-20.208 17.735-2.812 26.822 14.202 26.822 14.202s-3.39 18.993-21.127 21.805c-14.587 2.314-23.323-8.786-25.965-12.799M1082.355 693.866l33.52 7.134a1.512 1.512 0 0 0 1.796-1.17 1.516 1.516 0 0 0-1.166-1.802l-33.52-7.134c2.848-3.869 12.153-14.496 26.6-11.42 17.564 3.738 19.957 22.882 19.957 22.882s-9.963 16.515-27.528 12.777c-14.446-3.076-18.63-16.573-19.66-21.267M760.095 767.257s-17.34 8.418-30.037-4.296c-10.443-10.457-6.61-24.058-4.92-28.557l24.231 24.263a1.51 1.51 0 0 0 2.144-.002c.592-.593.597-1.55.002-2.146l-24.231-24.262c4.492-1.693 18.076-5.531 28.52 4.926 12.698 12.714 4.29 30.074 4.29 30.074"/>
        <path fill="#00CC92" d="M692.328 727.387l-21.098-27.038c4.666-1.131 18.615-3.284 27.709 8.37 11.055 14.168.598 30.374.598 30.374s-18.234 6.238-29.29-7.93c-9.092-11.653-3.632-24.685-1.408-28.944l21.098 27.038c.515.66 1.463.78 2.128.26.66-.516.781-1.467.263-2.13"/>
        <path fill="#413A31" d="M587.778 817.104l2.987-34.182c4.182 2.359 15.85 10.31 14.563 25.043-1.566 17.91-20.252 22.622-20.252 22.622s-17.585-7.889-16.02-25.8c1.287-14.732 14.157-20.535 18.686-22.13l-2.987 34.181c-.073.834.54 1.57 1.38 1.643.834.073 1.569-.539 1.643-1.377"/>
        <path fill="#756B5E" d="M840.818 551.513c1.355-4.61 6.468-17.783 21.094-19.84 17.782-2.503 26.57 14.667 26.57 14.667s-3.72 18.93-21.502 21.432c-14.627 2.059-23.168-9.192-25.739-13.25l33.934-4.775a1.514 1.514 0 0 0 1.29-1.716 1.513 1.513 0 0 0-1.712-1.293l-33.935 4.775zM372.465 935.3l19.656-28.106c2.444 4.136 8.578 16.864.106 28.978-10.3 14.728-28.835 9.453-28.835 9.453s-11.29-15.635-.99-30.363c8.472-12.114 22.515-10.696 27.233-9.811l-19.656 28.106c-.48.686-.317 1.63.375 2.114.686.48 1.629.32 2.111-.37M249.437 943.068l-24.651 23.834a1.516 1.516 0 0 0-.035 2.147 1.512 1.512 0 0 0 2.143.04l24.65-23.836c1.612 4.527 5.207 18.194-5.417 28.467-12.917 12.489-30.107 3.77-30.107 3.77s-8.102-17.505 4.815-29.995c10.625-10.273 24.139-6.197 28.602-4.427M134.335 444.501l-32.77-10.031a1.511 1.511 0 0 0-1.892 1.008c-.245.803.2 1.65 1.004 1.897l32.771 10.031c-3.174 3.606-13.368 13.38-27.492 9.057-17.172-5.257-17.89-24.538-17.89-24.538s11.363-15.582 28.536-10.325c14.124 4.324 17.116 18.134 17.733 22.901M573.78 230.032l-3.582-34.124a1.513 1.513 0 0 0-1.667-1.349 1.513 1.513 0 0 0-1.35 1.667l3.582 34.124c-4.556-1.516-17.525-7.093-19.068-21.8-1.878-17.882 15.568-26.077 15.568-26.077s18.764 4.385 20.642 22.266c1.543 14.707-9.984 22.862-14.125 25.293"/>
        <path fill="#413A31" d="M464.894 901.279c5.293-13.806 19.261-15.832 24.053-16.116l-12.28 32.033c-.3.782.086 1.658.873 1.96.782.3 1.657-.085 1.96-.871l12.28-32.033c3.37 3.422 12.398 14.286 7.105 28.092-6.435 16.785-25.695 16.157-25.695 16.157s-14.732-12.436-8.296-29.222"/>
        <path fill="#756B5E" d="M954.78 357.073c-.801-4.74-1.972-18.822 10.273-27.092 14.887-10.054 30.303 1.522 30.303 1.522s4.944 18.647-9.943 28.702c-12.245 8.269-24.848 1.906-28.935-.613l28.409-19.187c.694-.468.879-1.407.407-2.107a1.51 1.51 0 0 0-2.103-.412l-28.41 19.187z"/>
        <path fill="#756B5E" d="M1080.819 521.937l.004.017c.013.008.02.012-.01-.048a.693.693 0 0 0 .006.03m1.738 337.453a1.516 1.516 0 0 1-2.055.613l-31.768-17.266c-12.457-6.77-17.373-22.478-11.076-35.227.005-.012.874-1.779 1.35-2.794L908.728 743.4c-16.273-7.659-36.032-1.86-46.194 12.898l-2.267 3.676a282.631 282.631 0 0 1-4.453 6.984l-6.245 8.32c-.024.033-.054.058-.08.087-.037.042-.073.086-.114.123-.034.032-.072.057-.108.085-.044.032-.084.066-.13.093-.04.024-.083.042-.125.062-.046.022-.091.046-.139.063-.044.016-.09.026-.136.038-.048.013-.095.027-.145.035-.047.007-.094.008-.142.011-.05.003-.098.008-.147.006-.05-.001-.098-.01-.147-.017-.048-.006-.095-.01-.143-.02-.051-.013-.1-.032-.15-.05-.044-.015-.088-.027-.13-.047-.05-.022-.099-.053-.147-.082-.034-.02-.07-.035-.103-.058l-118.899-83.82c-17.056-12.024-23.431-36.89-14.271-55.651l.696-1.425c2.384-5.115 3.791-10.6 4.501-16.962.546-4.887.654-8.872.654-18.067 0-66.274-53.658-120-119.848-120-9.582 0-16.517.584-23.063 2.212l-2.238.84c-19.55 7.341-43.147-1.712-52.795-20.25l-10.56-20.288a181.145 181.145 0 0 0-32.996 23.945 1.514 1.514 0 0 1-.454.416c-35.912 33.036-58.425 80.445-58.425 133.125 0 51.578 20.088 100.25 54.086 129.48l2.347 1.832c16.458 12.862 20.88 37.645 9.889 55.424l-13.108 21.004a1.517 1.517 0 1 1-2.58-1.6l13.108-21.004c10.176-16.46 6.061-39.522-9.176-51.429l-2.402-1.877c-34.759-29.883-55.198-79.405-55.198-131.83 0-2.689.07-5.36.184-8.022l-239.94-8.647-.017.43-.006.168c.008.04.022.078.028.121-.035 20.968-16.884 38.759-37.756 39.817l-22.003 1.115.346 4.596c1.064 14.212-9.563 26.746-23.743 28.004l-35.745 3.171a1.519 1.519 0 1 1-.268-3.026l35.744-3.17c12.528-1.113 22.373-12.16 21.432-24.714l-.45-6.24-.368-5.35c-.322-12.594-10.921-22.958-23.504-23.118l-35.716-.452c-.838-.01-1.537-.7-1.527-1.538.01-.84.684-1.51 1.522-1.5l35.652.452c14.215.18 26.017 11.852 26.381 26.079l.094 3.772 22.584-1.115c18.76-.951 33.652-16.512 34.41-35.214 0-.002.004-1.977.082-3.908.172-4.27.19-6.422.213-6.85 0-.046-.037-.046.025-.41-.201-17.612-13.556-32.986-31.368-35.244L59.3 528.278a1.522 1.522 0 0 1-1.319-1.698 1.515 1.515 0 0 1 1.693-1.317l83.727 10.613c20.458 2.592 35.443 21.105 33.84 41.831l-.002.034c-.015.43-.104 1.751-.123 2.236l239.975 8.649c1.258-21.22 6.101-41.472 13.95-60.15L210.484 433.08c-.28.695-1.796 3.86-1.82 3.905-8.923 16.645-28.825 25.263-47.065 19.495l-21.463-6.786-1.684 5.628c-4.088 13.643-18.52 21.659-32.246 17.91l-34.988-9.554a1.519 1.519 0 0 1 .798-2.93l34.988 9.553c12.14 3.315 24.926-3.787 28.542-15.852l2.127-7.103.006-.017.001-.004c0-.003.003-.006.004-.008l1.035-2.94c4.19-11.888-1.917-25.299-13.623-29.923l-33.176-13.107a1.52 1.52 0 0 1 1.114-2.826l33.176 13.107c13.225 5.224 20.103 20.331 15.37 33.76l-.5 1.419 21.433 6.777c17.412 5.505 36.52-3.228 44.304-19.677.356-.836 3.842-8.031 4.13-8.706 5.9-16.619-1.35-35.803-17.096-44.362l-74.304-40.33c-.737-.4-1.063-1.322-.663-2.06a1.485 1.485 0 0 1 2.03-.61l74.185 40.33c16.976 9.228 24.596 29.803 18.41 47.698-.038.117-.067.193-.089.255.03-.048-1.128 2.878-1.752 4.148-.001.004-.004.006-.006.01l220.585 95.407c10.138-23.052 24.864-43.62 43.026-60.55l-162.5-177.77-.724.67c-.072.073-.148.14-.221.213l.013.015c-.089.08-.089.08-.444.406l-.106.098c-.503.484-1.015.952-1.537 1.406a262.65 262.65 0 0 1-.732.665c.001.01.001.012-.378.265-14.992 12.097-36.844 11.945-51.216-.983l-62.425-56.147a1.52 1.52 0 0 1-.115-2.145 1.516 1.516 0 0 1 2.143-.115l62.424 56.147c13.34 11.999 33.718 12.065 47.455.794l.019-.016a1274.51 1274.51 0 0 1 4.875-4.507c2.944-2.714 4.364-4.02 4.547-4.186.017-.014.04-.03.06-.044l.038-.04c12.066-12.617 13.496-32.796 2.693-46.994l-13.42-17.635a787.666 787.666 0 0 0-3.18 2.463 1.804 1.804 0 0 1-.257.252l-.043.033a.598.598 0 0 0-.026.02c-11.08 8.883-27.488 7.437-36.774-3.292l-23.542-27.199a1.52 1.52 0 0 1 .152-2.143 1.516 1.516 0 0 1 2.14.153l23.542 27.2c8 9.24 22.008 10.703 31.797 3.518.144-.143.144-.143.192-.182.063-.054.161-.133.305-.247.649-.514 2.26-1.765 5.05-3.915a845.114 845.114 0 0 1 4.262-3.273l.145-.101.04-.034c9.112-7.676 11.196-21.433 4.506-31.48l-19.909-29.901a1.52 1.52 0 0 1 .421-2.107 1.515 1.515 0 0 1 2.104.422l19.908 29.9c7.864 11.81 4.997 28.105-6.388 36.522a8.785 8.785 0 0 1-.084.064l-.038.03a1.8 1.8 0 0 1-.226.141l-1.693 1.303 13.43 17.647c12.683 16.67 9.827 40.895-6.38 54.141-.016.011-.03.017-.046.027-.042.04-.083.077-.124.114L477.51 463.084c32.527-29.337 75.582-47.2 122.807-47.2 7.207 0 14.33.428 21.348 1.245l6.64-57.61c-3.349-.363-6.937-.59-10.764-.677-8.548-.194-17.725.268-26.81 1.158-2.684.263-5.158.544-7.363.825-.771.098-1.453.19-2.039.272-21.608 2.133-42.13-12.496-46.81-32.805l-5.212-22.615c-4.688 1.14-9.432 2.4-14.279 3.817l-1.272.372-.173.061c-.063.02-4.577 1.007-4.687 1.016-.016.003-.035.157-.051.16-18.527 3.964-38.108-5.516-45.664-23.118L406.101 155.07c-1.289.568-2.268 1.02-2.964 1.333-.102.083-.22.169-.354.234-12.829 6.224-28.397 1.097-34.893-11.55l-16.205-31.547a1.518 1.518 0 1 1 2.699-1.388l16.205 31.55c5.53 10.77 18.529 15.379 29.624 10.772a.046.046 0 0 1 .009-.004.777.777 0 0 1 .082-.064c.226-.133.33-.183.494-.26.66-.307 2.405-1.084 5.482-2.436 3.07-1.35 4.806-2.103 5.458-2.372.17-.07.274-.111.36-.14.061-.02.061-.02.263-.062a.6.6 0 0 1 .049-.01l.038-.016c10.76-4.993 16-17.564 11.741-28.833l-12.65-33.474a1.517 1.517 0 1 1 2.838-1.075l12.65 33.474c5.039 13.334-1.658 28.272-14.959 33.364a1.75 1.75 0 0 1-.398.103c-.68.294-1.605.697-2.791 1.217l57.089 132.975c7.06 16.444 25.553 25.304 42.876 21.28.792-.233 2.519-.739 5.333-1.561 8.353-2.444 16.431-4.476 24.394-6.107a1136.4 1136.4 0 0 1 6.327-1.287c.25-.014.386-.02.465-.023l.038-.009c17.023-4.355 29.244-20.883 27.89-38.745l-1.736-22.872c-3.601.33-7.078.762-13.569 1.634-2.037.273-10.063.83-10.063.83-18.878.76-36.471-11.675-40.851-30.335l-33.39-142.139c-.192-.817.314-1.585 1.13-1.777.815-.192 1.632.339 1.823 1.155l33.39 142.25c4.152 17.69 21.226 29.631 39.214 28.104.979-.13 2.496-.327 4.61-.604 1.02-.134 1.7-.224 3.734-.497 7.48-1.004 10.994-1.43 15.3-1.787a1.519 1.519 0 0 1 1.638 1.388c.014.173-.007.34-.047.498a1.6 1.6 0 0 1 .048.273l1.794 23.65c1.583 20.877-13.91 40.02-34.632 42.784-.036.001-.067-.006-.102-.006l-2.403.492c-2.295.47-4.604.983-6.922 1.521l5.218 22.639c4.334 18.804 23.437 32.432 42.735 30.579 1.297-.183 1.99-.277 2.773-.376 2.234-.285 4.738-.57 7.452-.836 9.197-.9 18.489-1.368 27.173-1.172 4.462.101 8.637.38 12.476.851a189.66 189.66 0 0 1 31.281 6.48c5.724 1.698 10.877 3.518 15.378 5.34 1.578.638 2.964 1.232 4.147 1.767.416.187.778.354 1.084.5 18.333 7.133 40.418-1.016 49.59-18.037l70.704-131.212a1.517 1.517 0 1 1 2.67 1.442l-70.704 131.212c-9.908 18.39-33.65 27.133-53.1 19.556a88.51 88.51 0 0 0-1.491-.692 112.456 112.456 0 0 0-4.037-1.72c-4.413-1.786-9.475-3.573-15.103-5.243a186.93 186.93 0 0 0-29.187-6.167l-6.641 57.625c70.378 9.384 129.52 58.88 150.904 127.16.156.574.293 1.109.426 1.66a92.757 92.757 0 0 1 1.328 6.62c.13.789.242 1.52.337 2.178 3.34 19.87 21.687 34.802 41.024 34.073l143.416-5.408-.21-11.68c-.555-21.58 12.752-39.785 32.778-43.361l81.762-14.6c-.117-.672-.626-3.54-.66-3.759-.007-.026-.007-.026-.023-.333-1.46-13.262 7.243-26.084 20.329-29.317l34.84-8.608a1.518 1.518 0 1 1 .727 2.95l-34.84 8.608c-11.752 2.903-19.542 14.578-17.982 26.51.117.66.392 2.24.855 4.912l.001.008c.609 3.512.96 5.591 1.105 6.5.03.196.052.338.065.435a3.47 3.47 0 0 1 .023.35c2.247 11.99 13.614 20.485 25.806 19.094l35.81-4.085a1.518 1.518 0 0 1 .344 3.019l-35.81 4.085c-14.103 1.608-27.193-8.461-29.292-22.514l-.003-.014-.01-.064a1.75 1.75 0 0 1-.017-.368c-.144-.875-.39-2.329-.75-4.416L995.21 531.74c-18.478 3.3-30.797 20.15-30.278 40.304l.238 13.18-.001.015v.013c0 19.2 3.399 32.33 9.904 40.578 5.571 7.065 14.263 10.615 25.062 11.71l23.001 2.245-1.615-.158c.759-20.905 19.956-37.471 40.874-37.21l84.518 1.064c.838.01 1.29.699 1.28 1.537-.01.84-.806 1.51-1.644 1.5l-85.006-1.063c-19.3-.242-35.933 15.222-37.088 34.507 0 0-.271 8.014-.322 8.5-.678 17.903 11.887 34.188 29.724 37.353l22.486 4.01s.625-2.316.933-4.025c2.276-14.05 15.76-23.316 29.823-21.534l35.421 4.543c.831.105 1.21.866 1.104 1.697-.106.833-.97 1.422-1.801 1.317l-35.895-4.543c-11.962-1.516-23.186 6.544-25.812 18.233-.011.218-2.68 13.488-2.688 13.505l-.003.01c-2.182 11.861 5.298 23.45 17.157 26.226l34.777 8.14a1.52 1.52 0 0 1-.691 2.958l-34.778-8.14c-13.869-3.246-22.455-17.13-19.18-31.01.034-.15.582-2.57.939-4.394l-22.552-4.002c-19.35-3.434-32.966-21.07-32.224-40.39.001-.022.238-5.03.293-5.602l-22.205-2.252c-24.261-2.459-36.464-17.552-36.809-53.733l-143.344 5.405c-20.86.786-40.536-15.227-44.024-35.824-.21-1.489-.319-2.2-.445-2.966a89.8 89.8 0 0 0-1.283-6.401 60.598 60.598 0 0 0-.39-1.524c-23.4-74.715-92.86-126.596-172.351-126.596-31.139 0-60.435 7.894-86.005 21.792l10.6 20.365c8.94 17.178 30.925 25.612 49.04 18.81l2.318-.87c7.023-1.768 14.197-2.375 24.047-2.375 67.867 0 122.882 55.086 122.882 123.038 0 9.308-.11 13.367-.672 18.404-.745 6.672-2.234 12.472-4.78 17.934l-.707 1.45c-8.506 17.42-2.545 40.668 13.292 51.833l117.697 82.973 5.279-7.03c1.5-2.279 2.96-4.568 4.379-6.869l.27-.438.002-.003a40.163 40.163 0 0 1 2.025-3.285l.263-.425.297-.482.011-.017.082-.134.003.002.086-.131.073.05c11.334-15.213 32.039-20.95 49.221-12.864l130.275 61.314a205.623 205.623 0 0 0 1.941-4.332c5.586-13.096 20.833-19.492 34.077-14.295l33.534 13.158a1.52 1.52 0 0 1 .86 1.969 1.517 1.517 0 0 1-1.967.86l-33.533-13.158c-11.4-4.473-24.505.773-29.758 11.727-.01.092-5.671 12.187-5.675 12.197-4.656 11.043-.21 24.19 10.4 29.956l31.772 17.278c.737.4 1.012 1.327.612 2.065M852.774 185.998a1.54 1.54 0 0 1-.225-.068c-.273-.15-.396-.225-.57-.328l-.295-.175a39.422 39.422 0 0 1-2.76-1.645c-.019-.016-.032-.032-.05-.047l-2.054-1.23c-10.649-6.374-21.177-12.156-31.754-17.412-1.69-.839-3.049-1.513-4.101-2.033a1.757 1.757 0 0 1-.382-.122l-.068-.033c-19.113-8.551-28.609-31.006-21.238-50.51l8.356-22.112a1.518 1.518 0 1 1 2.838 1.076l-8.356 22.112c-6.454 17.077 1.132 36.661 17.017 45.361.342.117.399.144.475.18.617.293 2.771 1.354 6.807 3.36 4.585 2.278 9.16 4.66 13.74 7.139l27.481-52.058a1.516 1.516 0 1 1 2.682 1.42l-27.498 52.09a492.103 492.103 0 0 1 15.558 8.934 5589.26 5589.26 0 0 1 4.933 2.956c15.94 8.43 36.201 3.831 46.7-11.022l13.86-19.609a1.518 1.518 0 0 1 2.477 1.754l-13.86 19.61c-11.215 15.867-32.662 20.94-49.681 12.428l-.032-.016"/>
        <path fill="#756B5E" d="M943.173 349.049l-1.284.809.043.069.05.063 1.191-.941zm102.53 59.938s-1.243-2.512-1.635-3.403l-21.503 9.675c-19.084 8.521-41.949.301-51.13-18.42l-29.646-47.118c-12.965-16.443-10.613-40.803 5.257-54.46l64.166-55.217a1.516 1.516 0 0 1 2.139.164 1.522 1.522 0 0 1-.162 2.143l-64.167 55.223c-14.636 12.596-16.812 35.12-4.854 50.284l.29.382 29.661 47.23c8.439 17.302 29.58 24.96 47.199 17.092l21.5-9.6a640.881 640.881 0 0 0-1.335-3 1.733 1.733 0 0 1-.217-.345c-6.214-12.843-1.05-28.38 11.623-34.815l32.203-16.349a1.516 1.516 0 0 1 2.039.669 1.52 1.52 0 0 1-.667 2.041l-32.203 16.35c-10.778 5.47-15.412 18.414-10.834 29.506.019.022.03.042.146.229.04.074.09.176.165.34.308.66 1.093 2.42 2.466 5.53a516.78 516.78 0 0 1 2.224 5.077c.081.193.107.255.135.356a.668.668 0 0 1 .03.127c5.148 10.728 17.91 16.188 29.28 12.241l33.957-11.787a1.52 1.52 0 0 1 .994 2.87l-33.199 11.787c-13.41 4.655-28.612-1.608-33.921-14.802zM250.702 934.665l.013.014c.017.018.035.034.051.053.094.1.17.203.23.308.577.594 1.464 1.502 2.688 2.748l16.178-15.915c14.922-14.678 39.475-15.091 54.873-.925l.11.101 14.573-16.836c12.59-14.545 34.295-17.8 50.582-8.306.123.062.202.103.268.138-.067-.063.015-.012.222.13.047.03.098.066.17.116l.147.1c1.14.704 2.23 1.457 3.29 2.27l.005.005c.022.016.044.03.065.047l.005.005.685.473c1.316.91 2.406 1.661 3.282 2.264.116.04.233.096.35.168 17.864 11.023 24.383 34.548 14.545 52.942l-68.524 128.112a1.515 1.515 0 0 1-2.053.622 1.52 1.52 0 0 1-.621-2.056l68.523-128.113c8.56-16.002 3.682-36.271-10.744-47.07l-.002-.003c-.262-.093-.27-.1-.281-.116-.665-.436-2.57-1.743-6.198-4.25a3576.851 3576.851 0 0 1-4.007-2.768c-15.132-9.24-35.628-6.339-47.416 7.28l-14.55 16.81 1.143.893c16.487 12.885 20.103 37.19 8.08 54.332l-48.86 69.659a1.516 1.516 0 0 1-2.112.37 1.52 1.52 0 0 1-.37-2.116l48.859-69.66c11.094-15.817 7.75-38.301-7.464-50.19l-2.402-1.877-.03-.029c-.01-.008-.02-.013-.03-.02-.016-.014-.027-.03-.042-.045l-1.252-1.145c-14.207-13.072-36.923-12.69-50.693.856l-16.174 15.911c1.02 1.036 1.794 1.818 2.338 2.367.094.06.186.134.275.22l.04.04v-.002l.052.055c10.152 9.913 10.756 26.358 1.294 36.905l-23.982 26.73c-.56.623-1.519.675-2.142.115a1.52 1.52 0 0 1-.115-2.145l23.981-26.73c8.11-9.039 7.863-23.013-.33-31.86-.003-.001-.004-.004-.007-.006-.028-.018-.037-.026-.047-.033a6.135 6.135 0 0 1-.354-.33 632.498 632.498 0 0 1-4.229-4.274l-.004-.004a13.99 13.99 0 0 1-4.63-4.752c-.046-.05-.046-.05-.182-.24l-.011-.019-.005-.004c-8.628-8.49-22.695-9.015-31.924-1.006l-27.165 23.573c-.633.549-1.591.48-2.14-.154a1.52 1.52 0 0 1 .153-2.142l27.165-23.573c10.728-9.309 27.198-8.416 36.857 1.982"/>
        <path fill="#413A31" d="M374.667 796.69l.754.911c.579.695 1.261 1.501 2.043 2.41a322.755 322.755 0 0 0 7.696 8.626c8.245 8.927 17.293 17.853 26.86 26.181 9.73 8.47 19.464 15.843 29.046 21.801 14.756 8.194 37.91 18.798 51.273 23.399a1.518 1.518 0 0 1-.986 2.872c-13.543-4.662-36.855-15.338-51.823-23.652-9.796-6.089-19.655-13.558-29.5-22.127-9.658-8.406-18.783-17.41-27.097-26.411a328.618 328.618 0 0 1-7.77-8.707 218.245 218.245 0 0 1-2.608-3.094c-13.278-14.535-36.674-17.462-52.639-6.664L149.08 907.775a1.515 1.515 0 0 1-2.107-.407 1.52 1.52 0 0 1 .408-2.11l170.837-115.54c17.23-11.654 42.324-8.505 56.449 6.973M402.441 1109.514l67.13-174.684a1.516 1.516 0 0 1 1.962-.869 1.52 1.52 0 0 1 .869 1.964l-67.13 174.684a1.517 1.517 0 1 1-2.83-1.095"/>
        <path fill="#756B5E" d="M1053.652 291.985a1.52 1.52 0 0 1-.39 2.113l-52.717 36.076c-.69.475-1.635.3-2.11-.39a1.521 1.521 0 0 1 .388-2.113l52.719-36.076a1.516 1.516 0 0 1 2.11.39M802.702 471.382a1.52 1.52 0 0 1 .468-2.096l105.436-66.836a1.516 1.516 0 0 1 2.093.468 1.52 1.52 0 0 1-.468 2.097L804.795 471.85c-.707.45-1.644.24-2.093-.468"/>
        <g fill="#FAFAF5">
            <path d="M540.356 573.546c7.242 0 9.95 9.585 9.95 9.585s3.633 11.196 11.042 11.196c5.546 0 6.78-4.572 7.053-6.581l.021-.274c.015-.183.033-.364.05-.546.002-.036.004-.07.008-.11.253-2.653-1.949-3.486-1.949-3.486v-.001c-2.17-.737-4.085-2.094-5.736-4.018-4.604-5.359-2.15-12.315 3.24-17.092-2.517-2.908-5.798-6.266-8.666-7.792-6.305-3.358-11.327 1.882-11.708 2.294-.026.034-.05.07-.077.105-.43.592-.852 1.19-1.263 1.796l-.05.072a70.56 70.56 0 0 0-1.275 1.948c-.022.036-.045.071-.067.109-.356.575-.715 1.149-1.055 1.735l-.214.364a70.375 70.375 0 0 0-2.131 3.957l-.185.372a68.019 68.019 0 0 0-1.846 4.08l-.16.396c-.23.559-.453 1.12-.662 1.687-.057.153-.116.303-.172.455a71.858 71.858 0 0 0-.741 2.107c-.03.088-.058.18-.087.27-.06.185-.117.373-.176.558 1.541-1.7 3.767-3.186 6.856-3.186"/>
            <path d="M633.733 552.083c1.548-.868 3.745-.677 5.512.639 1.766 1.317 2.57 3.36 2.168 5.083-1.547.87-3.745.677-5.512-.639-1.766-1.315-2.57-3.36-2.168-5.083m-78.203-.667c3.813 1.247 8.13 4.844 11.21 7.788a22.188 22.188 0 0 1 6.312-2.53c-1.702-3.512-3.98-9.091-3.478-12.999 1.018-7.926 9.739-8.535 9.739-8.535s-8.004 1.713-7.488 9.103c.25 3.584 3.33 8.834 5.341 11.918 4.967-.07 9.284 1.913 11.236 5.674.196.378.36.767.5 1.164h.004s.616 1.32 1.667 1.7c2.6.83 5.393 1.812 8.307 2.976a106.263 106.263 0 0 1 12.1 5.721c.65.36 1.285-.496.748-1.008-19.425-18.554-5.71-25.798-5.71-25.798-7.02 10.107 4.711 17.407 18.18 24.944 11.867 6.64 20.271 13.833 29.46 8.99 4.582-2.412 1.383-7.783-.682-10.756-1.554-2.237-2.609-3.607-3.992-6.555-.687-1.465-.918-3.113-.572-4.692.484-2.21-.282-4.812-1.96-7.449-1.25-1.96-3.65-4.03-5.438-5.417a15.02 15.02 0 0 1-3.04-3.14c-6.388-8.949-22.955-12.695-22.955-12.695v-.003A69.966 69.966 0 0 0 599.142 528c-11.1 0-21.59 2.599-30.894 7.21-.001 0-.003 0-.003.002a69.519 69.519 0 0 0-13.81 9.033l-.533.447a51.43 51.43 0 0 0-2.977 2.705l-.023.023a69.23 69.23 0 0 0-1.646 1.637l-.023.024a70.419 70.419 0 0 0-3.092 3.403l-.121.143c-.091.108-.179.22-.27.33 1.975-1.676 5.144-3.06 9.78-1.541M568.468 604.699a71.544 71.544 0 0 1-.321-4.567 13.339 13.339 0 0 1-5.222 1.066c-13.773 0-14.119-13.61-18.973-21.125-5.076-7.86-12.144.666-12.849 5.248-.033.22-.066.392-.097.525-.078.467-.16.932-.23 1.403-.03.195-.054.392-.083.589-.085.565-.151 1.133-.217 1.702-.023.196-.046.392-.067.588-.08.748-.152 1.499-.209 2.252-.005.08-.008.16-.015.238a71.841 71.841 0 0 0-.114 2.054 68.707 68.707 0 0 0-.065 2.63c0 .085-.005.168-.005.252v.086l-.001.09c0 .294.008.586.011.878.004.277.004.554.011.83.01.42.028.839.044 1.256.007.169.011.34.02.508 1.111 22.96 13.189 43.035 31.096 55.089-5.751-5.673-9.192-12.864-9.192-20.69 0-9.732 5.318-18.821 13.789-24.96a6.535 6.535 0 0 0 2.689-5.942"/>
            <path d="M621.875 649.617c-3.176 1.313-7.787 2.796-13.033 3.158-.765.053-1.558.083-2.373.083-8.774 0-20.195-3.422-28.988-18.012l-1.15-1.903c-1.328 1.993-2.073 4.225-2.073 6.644 0 9.897 11.857 18.874 26.093 18.874 3.72 0 8.118-.432 11.312-1.419-3.273 2.04-9.852 3.957-15.563 3.957-16.332 0-29.987-10.838-29.987-23.694 0-4.32 1.491-8.8 4.091-12.548a5.889 5.889 0 0 0 .77-5.12c-7.51 4.355-12.099 10.997-12.099 18.95 0 12.248 10.9 22.722 26.322 26.999.873.186 1.752.354 2.638.509 11.143 1.862 21.032-.12 27.732-6.52 2.875-2.745 4.962-6.118 6.308-9.958"/>
            <path d="M653.198 552.436c7.26 10.273 11.53 22.841 11.53 36.416a62.89 62.89 0 0 1-31.57 54.649c-.045.04-.087.08-.132.122.002-.16-.008-.297.102-.94.475-2.78 1.517-5.447 3.12-7.761 5.327-7.694 8.872-19.446-.203-34.613-5.008-8.367-15.478-20.167-36.926-28.86a119.505 119.505 0 0 0-9.53-3.393l-.13-.04c-.759-.234-1.497-.454-2.213-.66-.035-.011-.07-.02-.106-.032-.722-.206-1.42-.401-2.093-.582l-.06-.016c-.325-.087-.642-.17-.955-.252l-.046-.012a123.445 123.445 0 0 0-3.687-.894l-.692-.153-.029-.006a81.226 81.226 0 0 0-.802-.17c-.173-.038-.342-.072-.504-.105l-.126-.027a45.685 45.685 0 0 0-.537-.107l-.105-.02c-.138-.028-.27-.053-.396-.077l-.13-.025-.422-.079-.086.3-.03.105-.066.228-.037.13c-.02.074-.04.148-.062.223a9.569 9.569 0 0 1-.044.16l-.063.228-.046.168-.067.252-.048.173-.073.278-.046.174-.087.336-.057.221-.102.4-.05.201c-.027.107-.054.213-.08.323-.02.076-.038.153-.057.23l-.075.31c-.02.087-.043.174-.063.262-.025.1-.048.202-.072.305l-.066.276-.074.32-.065.283c-.026.114-.052.23-.08.346l-.06.275-.09.404c-.026.123-.052.244-.08.368l-.11.514-.06.289-.082.394-.068.333c-.025.121-.05.242-.074.366l-.07.353-.073.377a206.532 206.532 0 0 0-.142.747c-.023.12-.046.24-.068.363l-.074.407c-.022.12-.045.24-.065.364-.028.153-.055.31-.082.465a99.165 99.165 0 0 0-.186 1.09c-.019.118-.04.24-.058.358l-.074.465-.06.385c-.023.15-.048.3-.07.452l-.061.406-.065.445-.06.418c-.02.153-.041.307-.063.46-.02.137-.037.274-.056.412-.022.16-.042.324-.064.488l-.052.406-.067.544-.044.358a115.394 115.394 0 0 0-.4 3.942l-.007.104c-.035.405-.066.815-.096 1.228-.001.011-.001.024-.003.035-.028.403-.056.812-.08 1.226l-.004.058c-.025.41-.047.825-.067 1.245l-.001.016c-.105 2.178-.15 4.479-.108 6.863.05 2.943.237 6.014.605 9.15l.09.761c.513 4.039 1.336 8.17 2.577 12.262.907 2.773 2.368 6.652 3.752 9.485a54.471 54.471 0 0 0 1.988 3.646c6.586 11.006 15.364 16.573 26.116 16.573.741 0 1.489-.027 2.248-.079 6.457-.45 11.842-2.738 14.43-4.031 3.517-17.614-5.972-42.66-25.746-63.543a116.427 116.427 0 0 0-8.654-8.257c6.582 4.976 9.902 7.671 13.723 11.707 27.01 28.523 35.48 64.56 18.924 80.49-2.454 2.361-5.321 4.143-8.51 5.382 4.2-1.206 7.928-3.259 11.006-6.22a24.838 24.838 0 0 0 2.685-3.05C652.352 652.18 670 627.216 670 598.091c0-17.445-6.332-33.397-16.802-45.656"/>
        </g>
    </g>
</svg>
