<svg xmlns="http://www.w3.org/2000/svg" width="1200" height="1200" viewBox="0 0 1200 1200">
    <g fill="none" fill-rule="evenodd">
        <path fill="#413A32" d="M1053.977 904.008l-27.049-19.118c-11.216-7.928-14.666-23.503-8.156-35.536l1.463-2.51c1.378-2.36 2.188-3.753 2.525-4.335 7.383-11.243 22.152-15.25 34.132-9.015l29.683 15.45a1.516 1.516 0 1 0 1.403-2.69l-29.682-15.45c-13.3-6.923-29.668-2.545-37.848 9.686-.15.203-.193.276-.262.391l-.078.131a.031.031 0 0 0-.005.009l-.418.707c-.14.238-.286.392-.433.641-.155.264-.157.238-.195.237-.009 0-.019.127-.027.143-.012.028-.016.102-.026.13-.021.037-.043.097-.065.135-.365.627-.806 1.396-1.329 2.292-.214.367-.412.688-.596 1.002-.024.04-.043.09-.068.09h-.002c-.029 0-.045.103-.086.174-.25.408-.47.798-.674 1.17-.327.56-.475.924-.62 1.173-.11.192-.12.198-.12.32v.001c0 .014-.085.04-.09.047.001 0-.02 0-.016-.001-.02.067-.06.194-.084.35-.017.036-.042.072-.058.109-5.961 13.078-1.94 29.2 9.982 37.626l27.046 19.118a1.516 1.516 0 1 0 1.753-2.477M1077 517.21c.1.32.16.502.261.891.189.716.416 1.748.683 3.147.77 4.053 1.685 10.227 2.734 18.95.918 7.628 1.486 13.48 1.77 17.786.19 2.89.231 4.862.19 5.827.914 21.265 18.63 38.34 39.581 38.34h24.298a1.518 1.518 0 1 0 0-3.034h-24.298c-19.295 0-35.652-15.748-36.556-34.977.057-1.287.013-3.285-.184-6.276-.273-4.132-.804-9.703-1.644-16.792l58.3-6.738a1.527 1.527 0 0 0 1.334-1.69 1.522 1.522 0 0 0-1.683-1.339l-58.313 6.717c-.965-7.835-1.814-13.5-2.544-17.339-.279-1.464-.522-2.562-.73-3.352-.096-.369-.175-.634-.238-.816-3.611-18.955 8.449-37.936 27.119-42.537l23.092-5.69a1.517 1.517 0 1 0-.727-2.947l-23.093 5.692c-20.285 4.999-33.34 25.603-29.351 46.177"/>
        <path fill="#413A32" d="M1013.841 956.44l-27.199-23.543c-10.765-9.318-27.303-8.404-36.962 2.044a1.786 1.786 0 0 0-.24.327c-.545.561-1.43 1.462-2.685 2.73l-16.2-15.897c-13.016-12.77-14.294-33.635-3.48-48.154.638-.777 1.752-2.134 3.403-4.149 21.713-26.49 40.162-55.365 54.878-86.02 1.931-4.023 2.946-6.152 3.212-6.735.17-.45.177-.472.185-.558 8.352-15.883 27.809-23.698 44.964-17.53l79.628 28.63a1.516 1.516 0 1 0 1.03-2.854l-79.629-28.631c-19.703-7.084-42.152 2.825-50.171 22.146-.013.06-.014.118-.022.178a3009.86 3009.86 0 0 1-1.937 4.043c-14.61 30.435-32.928 59.105-54.489 85.409l-1.295 1.58c-.053.058-.1.114-.152.172l-.005-.004c-.044.054-.07.084-.13.16a37.453 37.453 0 0 0-1.754 2.146l-.394.485c-.37.457-.37.457-.398.496-.002.002.01.03.028.07-.068.097-.139.194-.206.293-10.82 15.653-9.17 37.476 4.604 50.991l16.192 15.89-.92.926-.194.183-.007-.008-.214.218-.018.018c-.276.267-.498.495-.71.723-.129.13-.233.238-.307.314-.182.191-.182.191-.274.31-.01.013-.02.035-.031.054l-.02.022c-8.695 10-8.84 25.33.053 35.384l24.163 27.32a1.52 1.52 0 0 0 2.144.133 1.516 1.516 0 0 0 .133-2.142l-24.163-27.32c-7.992-9.036-7.737-22.929.316-31.78.47-.47 1.529-1.536 3.282-3.303v-.004h-.002v-.001c2.279-2.298 3.617-3.657 4.185-4.254.126-.133.218-.23.28-.3.162-.197.175-.212.218-.294 8.62-8.632 22.822-9.213 32.12-1.164l27.2 23.542c.635.549 1.594.48 2.144-.153.549-.633.48-1.591-.154-2.14M794.883 157.818l3.74 1.66c13.006 5.773 28.742.186 35.178-12.492l16.35-32.203c.379-.748.08-1.66-.668-2.04a1.521 1.521 0 0 0-2.043.668l-16.348 32.202c-5.704 11.237-19.707 16.21-31.235 11.093l-5.128-2.276-5.803-2.506c-11.576-5-17.357-18.63-12.895-30.407l12.667-33.432a1.518 1.518 0 1 0-2.841-1.074l-12.666 33.432c-5.037 13.293 1.463 28.622 14.53 34.265l4.38 1.892-8.873 19.94c-7.441 16.722-26.758 25.418-44.294 20.482a11838.582 11838.582 0 0 0-10.443-3.445c-16.763-6.542-26.629-24.835-22.411-42.483l19.636-82.157a1.519 1.519 0 1 0-2.955-.705l-19.637 82.158c-4.497 18.82 5.753 38.28 23.26 45.612l.012.025c.248.134.248.134.275.145.246.086.39.134.59.201l.292.096.107.036c1.054.395 2.043.725 3.042 1.01l.027.009v-.001l.064.02.058.006.688.227-59.246 174.873a1.52 1.52 0 0 0 2.878.972l59.253-174.893.582.192c.077.029.148.054.224.081l-.003.009.228.074c.855.311 1.616.558 2.373.778a156.196 156.196 0 0 0 1.17.381c.156.05.156.05.423.091l.022-.042c18.606 4.548 38.687-4.827 46.561-22.52l8.88-19.954zM178.78 651.897c-.003-.326-.012-.415-.024-.535-.003-.028.029-.06.026-.09-.065-1.147-.342-3.36-.346-3.385-.006-.023-1.228-13.295-1.358-15.04l22.73-1.712c20.842-1.581 37.154-19.728 37.154-40.624v-.004c0-.013-.064-7.69.026-9.863.035-.838-.636-1.545-1.475-1.579a1.527 1.527 0 0 0-1.59 1.453c-.09 2.193.001 11.356.001 11.356-.76 18.716-15.537 34.809-34.348 36.236l-22.641 1.71c-.054-.747-.144-1.459-.188-2.097-.02-.268-.05-.427-.07-.71a8215.5 8215.5 0 0 1-.023-14.179c0-19.452-15.753-35.986-35.204-36.958l-25.482-1.272.153-2.765a1.72 1.72 0 0 0 .05-.314l.004-.047c0-.016.001-.045.003-.063 1.044-14.165-9.464-26.598-23.61-27.85l-35.79-3.167a1.518 1.518 0 1 0-.268 3.022l35.767 3.168c12.036 1.065 20.888 11.307 20.888 23.253v.01c0 .018.016.032.013.055-.01.07.153.154.142.325-.043.631-.155 2.453-.155 5.73v-.359h-.238c-.151 3.035-.277 4.75-.31 5.707-.015.41-.04.757-.035.909.003.073-.007.119.017.318-.53 12.358-10.874 22.459-23.304 22.616l-35.706.463c-.839.01-1.511.704-1.5 1.542a1.52 1.52 0 0 0 1.537 1.5l35.704-.45c14.233-.18 26.01-11.84 26.312-26.06.003-.14-.009-.272-.03-.55.027-.75.089-2.05.189-3.963l25.652 1.273c17.834.89 32.471 16.091 32.471 33.927v14.03c0 .643-.108.801-.089 1.07.054.767.035 1.622.101 2.543.19 2.63.348 5.262.545 7.719.1 1.252.178 2.429.272 3.516.144 1.665.902 9.225.979 9.943.76 16.457-10.847 31.56-27.248 34.71l-24.553 4.715c-.116-.608-.218-1.143-.302-1.591a1.898 1.898 0 0 0-.025-.238l-.008-.035h.001l-.053-.277-.118-.606a67.517 67.517 0 0 0-.149-.751c-.026-.138-.026-.138-.08-.327l-.018-.034-.022-.085c-3.278-12.91-15.913-21.87-29.31-20.346l-35.856 4.08a1.517 1.517 0 1 0 .344 3.014l35.855-4.08c12.02-1.367 23.539 6.824 26.273 18.507.113.612.297 2.162 1.056 4.828v.036H121.301c.603 3.034.903 4.915 1.023 5.507.037.182.034.244.056.32.008.027.005.037.011.056 0 .004-.003.006-.002.01 1.782 11.809-5.77 23.601-17.44 26.78l-35.033 9.541a1.517 1.517 0 1 0 .8 2.927l35.03-9.542c13.732-3.74 22.375-17.998 19.325-31.878a1.873 1.873 0 0 0-.09-.293c-.125-.644-.288-1.496-.486-2.541l24.56-4.718c17.802-3.419 30.403-19.707 29.725-37.447M915.614 1047.658a1.515 1.515 0 0 0 .5-2.197l-83.82-118.9c-10.525-14.928-8.062-35.847 5.164-48.362l2.464-2.152c16.545-14.453 31.85-30.52 45.758-47.984 3.171-3.982 8.879-9.182 14.807-12.975 2.3-1.472 4.587-2.716 6.841-3.709a1.521 1.521 0 0 0 .906-1.604 1.522 1.522 0 0 0-2.12-1.18c-2.407 1.061-4.835 2.382-7.266 3.938-6.214 3.976-12.17 9.402-15.544 13.64a372.013 372.013 0 0 1-20.052 23.135l-16.026-15.445c-15.05-14.504-39.62-14.766-54.966-.604l-12.653 9.276c-.61.448-.869 1.279-.524 1.95a1.522 1.522 0 0 0 2.258.544l12.787-9.376.135-.111c14.16-13.127 36.942-12.901 50.853.504l16.056 15.474a359.705 359.705 0 0 1-23.479 22.444 40.332 40.332 0 0 0-2.275 1.987c-.46.4-.54.472-1.06.926l-.272.238a112.8 112.8 0 0 0-.323.282l.004.002-.144.136.11.11c-12.87 13.819-14.839 35.18-3.924 50.663l83.771 118.829c.457.649 1.342.911 2.034.521M893.096 526.376c-.1-.427-.217-.93-.354-1.505a291.837 291.837 0 0 0-1.41-5.619 385.82 385.82 0 0 0-5.636-19.427 1.52 1.52 0 0 0-1.908-.986 1.517 1.517 0 0 0-.987 1.905 381.513 381.513 0 0 1 5.59 19.274c.543 2.08 1.009 3.942 1.396 5.56.135.565.252 1.059.348 1.478l.114.502c5.443 20.217 26.582 34.44 47.32 31.892l87.995-11.104a1.518 1.518 0 1 0-.372-3.012l-87.994 11.105c-19.235 2.362-38.966-10.913-44-29.602a20.318 20.318 0 0 0-.102-.46M281.336 154.578a1.516 1.516 0 0 0-.362 2.114l177.342 250.316a1.52 1.52 0 0 0 2.117.362c.684-.484.847-1.43.362-2.114L283.454 154.939a1.52 1.52 0 0 0-2.118-.361M420.563 760L193.095 964.802a1.516 1.516 0 0 0-.11 2.143 1.52 1.52 0 0 0 2.144.11l227.469-204.804c.623-.561.673-1.52.11-2.143a1.52 1.52 0 0 0-2.145-.11M919.25 1049.55l20.65 27.368a1.51 1.51 0 0 1-.302 2.122 1.516 1.516 0 0 1-2.125-.296l-20.65-27.368c-2.3 4.214-7.995 17.132.905 28.928 10.82 14.341 29.184 8.429 29.184 8.429s10.751-16-.07-30.341c-8.9-11.796-22.901-9.89-27.592-8.842M972.838 1007.437l22.958 25.466a1.51 1.51 0 0 1-.113 2.14c-.624.561-1.58.516-2.144-.11l-22.96-25.465c-1.924 4.398-6.469 17.762 3.426 28.738 12.031 13.344 29.809 5.857 29.809 5.857s9.314-16.875-2.717-30.22c-9.895-10.975-23.678-7.858-28.26-6.406M1046.278 963.238c-11.161-9.69-24.461-4.918-28.83-2.919l25.894 22.482a1.51 1.51 0 0 1 .148 2.139 1.516 1.516 0 0 1-2.14.151l-25.896-22.482c-1.374 4.6-4.254 18.418 6.907 28.108 13.57 11.78 30.3 2.185 30.3 2.185s7.186-17.883-6.383-29.664M1087.113 908.858c-11.811-8.888-24.745-3.202-28.965-.903l27.402 20.623c.67.503.806 1.45.297 2.123a1.516 1.516 0 0 1-2.125.3l-27.402-20.623c-1.05 4.684-2.958 18.67 8.853 27.558 14.36 10.807 30.38.069 30.38.069s5.919-18.34-8.44-29.147M1148.268 779.46c-13.806-5.293-24.67 3.735-28.092 7.106l32.033 12.28a1.51 1.51 0 0 1 .871 1.96 1.515 1.515 0 0 1-1.96.873l-32.033-12.281c.284 4.792 2.31 18.76 16.116 24.054 16.786 6.435 29.222-8.297 29.222-8.297s.628-19.26-16.157-25.695M1174.747 581.018c-14.786.258-21.473 12.692-23.381 17.098l34.306-.598a1.514 1.514 0 0 1 1.543 1.49 1.514 1.514 0 0 1-1.49 1.544l-34.306.598c2.06 4.336 9.178 16.53 23.964 16.272 17.977-.313 23.982-18.625 23.982-18.625s-6.64-18.092-24.618-17.779M1168.498 510.734c-14.678 1.8-20.027 14.864-21.464 19.445l34.057-4.177a1.514 1.514 0 0 1 1.69 1.321 1.514 1.514 0 0 1-1.32 1.691l-34.056 4.176c2.503 4.098 10.858 15.482 25.536 13.682 17.846-2.189 21.901-21.028 21.901-21.028s-8.498-17.299-26.344-15.11M1154.397 441.933c-14.41 3.323-18.361 16.874-19.31 21.58l33.431-7.71a1.515 1.515 0 0 1 1.82 1.139 1.513 1.513 0 0 1-1.136 1.818l-33.432 7.709c2.918 3.814 12.418 14.263 26.828 10.941 17.519-4.04 19.58-23.199 19.58-23.199s-10.262-16.318-27.781-12.278M1079.398 261.513a1.514 1.514 0 0 1 2.113.374 1.51 1.51 0 0 1-.371 2.11l-28.107 19.657c4.137 2.444 16.865 8.578 28.979.107 14.728-10.3 9.453-28.835 9.453-28.835s-15.635-11.29-30.363-.99c-12.114 8.471-10.696 22.514-9.81 27.232l28.106-19.655zM1033.803 204.752a1.516 1.516 0 0 1 2.146.04c.583.602.57 1.559-.035 2.143l-24.682 23.804c4.469 1.768 18 5.838 28.638-4.422 12.933-12.474 4.82-29.956 4.82-29.956s-17.211-8.708-30.145 3.765c-10.637 10.26-7.037 23.91-5.424 28.43l24.682-23.804zM982.108 154.929a1.515 1.515 0 0 1 2.135-.222c.652.527.756 1.478.226 2.131l-21.593 26.632c4.651 1.21 18.579 3.603 27.885-7.875 11.315-13.955 1.13-30.32 1.13-30.32s-18.146-6.548-29.461 7.407c-9.306 11.478-4.067 24.586-1.915 28.878l21.593-26.631zM864.345 76.465a1.515 1.515 0 0 1 2.005-.766 1.512 1.512 0 0 1 .77 2l-13.956 31.305c4.807-.032 18.88-1.321 24.895-14.814 7.313-16.405-6.767-29.579-6.767-29.579s-19.224-1.635-26.537 14.77c-6.015 13.492 2.443 24.8 5.634 28.39l13.956-31.306zM800.742 49.382a1.515 1.515 0 0 1 1.962-.87c.783.3 1.176 1.173.874 1.958l-12.296 31.992c4.798-.284 18.784-2.307 24.084-16.096 6.443-16.763-8.307-29.184-8.307-29.184s-19.284-.628-25.728 16.137c-5.3 13.788 3.739 24.638 7.115 28.056l12.296-31.993zM724.633 62.794l7.134-33.52a1.514 1.514 0 0 1 1.8-1.165 1.514 1.514 0 0 1 1.172 1.797l-7.134 33.52c4.694-1.03 18.191-5.214 21.266-19.66 3.738-17.565-12.776-27.528-12.776-27.528s-19.145 2.393-22.883 19.958c-3.075 14.447 7.552 23.75 11.421 26.598M458.082 66.227l-9.458-32.94a1.512 1.512 0 0 1 1.043-1.874 1.515 1.515 0 0 1 1.878 1.038l9.458 32.94c3.66-3.11 13.611-13.133 9.535-27.33-4.956-17.261-24.22-18.315-24.22-18.315s-15.78 11.09-10.823 28.351c4.076 14.197 17.832 17.43 22.587 18.13M334.973 114.99l-15.04-30.8a1.51 1.51 0 0 1 .7-2.026 1.516 1.516 0 0 1 2.03.695l15.04 30.8c3.065-3.697 11.123-15.293 4.64-28.567-7.882-16.14-27.038-13.837-27.038-13.837s-13.61 13.658-5.728 29.797c6.482 13.275 20.592 14.073 25.396 13.938M276.585 151.34l-20.65-27.368a1.51 1.51 0 0 1 .3-2.122 1.516 1.516 0 0 1 2.127.297l20.65 27.368c2.3-4.215 7.995-17.133-.905-28.929-10.82-14.34-29.184-8.428-29.184-8.428s-10.752 16 .069 30.34c8.9 11.796 22.902 9.89 27.593 8.842M78.67 356.848c13.403 6.242 24.871-2.007 28.52-5.131l-31.097-14.483a1.512 1.512 0 0 1-.732-2.015 1.515 1.515 0 0 1 2.016-.735l31.097 14.482c.052-4.8-.993-18.875-14.396-25.117-16.295-7.59-29.73 6.241-29.73 6.241s-1.972 19.168 14.323 26.758M25.445 557.926c14.753 1.03 22.5-10.774 24.784-14.998l-34.228-2.39a1.513 1.513 0 0 1-1.406-1.62 1.515 1.515 0 0 1 1.618-1.407l34.228 2.39c-1.674-4.499-7.7-17.266-22.453-18.296-17.935-1.252-25.516 16.467-25.516 16.467s5.037 18.602 22.973 19.854M48 609.416l-34.307.597a1.512 1.512 0 0 1-1.543-1.49 1.513 1.513 0 0 1 1.49-1.543l34.306-.598c-2.06-4.337-9.178-16.53-23.964-16.272C6.005 590.423 0 608.735 0 608.735s6.641 18.092 24.618 17.779c14.786-.258 21.473-12.693 23.381-17.098M30.058 748.286a1.512 1.512 0 0 1 1.04-1.876l32.982-9.445c-3.115-3.657-13.15-13.595-27.365-9.524-17.283 4.95-18.338 24.19-18.338 24.19s11.103 15.759 28.386 10.81c14.216-4.072 17.453-17.811 18.154-22.56l-32.983 9.446a1.514 1.514 0 0 1-1.876-1.041M164.978 994.194a1.515 1.515 0 0 1-2.141-.152 1.51 1.51 0 0 1 .148-2.138l25.895-22.483c-4.37-1.998-17.67-6.77-28.83 2.92-13.57 11.78-6.384 29.663-6.384 29.663s16.73 9.596 30.3-2.184c11.161-9.69 8.281-23.508 6.908-28.109l-25.896 22.483zM473.914 1137.484l-9.458 32.941a1.513 1.513 0 0 1-1.877 1.038 1.513 1.513 0 0 1-1.043-1.874l9.458-32.941c-4.755.7-18.512 3.933-22.588 18.131-4.956 17.261 10.823 28.35 10.823 28.35s19.265-1.053 24.22-18.315c4.077-14.197-5.874-24.219-9.535-27.33"/>
        <path fill="#413A32" d="M890.141 881.039l-24.682-23.805c-1.613 4.522-5.214 18.17 5.424 28.43 12.934 12.474 30.145 3.766 30.145 3.766s8.113-17.483-4.82-29.957c-10.638-10.26-24.17-6.19-28.64-4.422l24.683 23.805a1.51 1.51 0 0 1 .036 2.143 1.515 1.515 0 0 1-2.146.04M1000.79 837.817l-29.716-17.134c-.47 4.778-.657 18.89 12.15 26.275 15.571 8.978 30.162-3.63 30.162-3.63s3.637-18.923-11.934-27.901c-12.807-7.385-24.951-.167-28.859 2.628l29.715 17.135a1.51 1.51 0 0 1 .554 2.07 1.516 1.516 0 0 1-2.073.557M925.536 804.566l29.412 17.65c.553-4.769.986-18.877-11.69-26.483-15.411-9.25-30.22 3.103-30.22 3.103s-3.967 18.857 11.445 28.106c12.676 7.606 24.944.601 28.9-2.126l-29.411-17.65a1.511 1.511 0 0 1-.517-2.08 1.515 1.515 0 0 1 2.081-.52M975.665 968.073l-25.094-23.371c-1.534 4.55-4.895 18.259 5.92 28.331 13.15 12.247 30.206 3.24 30.206 3.24s7.807-17.622-5.343-29.868c-10.815-10.073-24.274-5.767-28.711-3.922l25.094 23.371c.612.57.649 1.526.073 2.142-.573.613-1.53.65-2.145.077M1052.633 866.89l-30.01-16.614c-.386 4.785-.326 18.9 12.607 26.06 15.726 8.705 30.094-4.155 30.094-4.155s3.306-18.984-12.42-27.69c-12.934-7.16-24.95.269-28.808 3.131l30.01 16.614c.733.405 1 1.323.59 2.061-.407.733-1.326 1-2.063.593M674.392 766.924l15.041 30.8a1.51 1.51 0 0 1-.7 2.026 1.516 1.516 0 0 1-2.03-.696l-15.041-30.8c-3.065 3.698-11.122 15.294-4.64 28.568 7.883 16.14 27.038 13.837 27.038 13.837s13.611-13.658 5.729-29.797c-6.483-13.275-20.592-14.073-25.397-13.938M747.045 595.125c-14.768-.773-22.308 11.165-24.518 15.427l34.264 1.794a1.513 1.513 0 0 1 1.435 1.594 1.513 1.513 0 0 1-1.594 1.436l-34.265-1.794c1.753 4.47 8.001 17.13 22.77 17.903 17.954.94 25.224-16.91 25.224-16.91s-5.362-18.51-23.316-19.45M813.961 646.622l-33.68-6.538c1.113 4.67 5.536 18.075 20.052 20.893 17.65 3.426 27.336-13.239 27.336-13.239s-2.73-19.075-20.38-22.502c-14.516-2.818-23.646 7.956-26.43 11.87l33.683 6.538c.821.16 1.36.95 1.198 1.778a1.515 1.515 0 0 1-1.779 1.2M619.636 309.992s-18.534 5.355-19.475 23.287c-.774 14.75 11.18 22.279 15.448 24.488l1.795-34.222a1.514 1.514 0 0 1 1.597-1.433 1.514 1.514 0 0 1 1.437 1.592l-1.796 34.221c4.476-1.75 17.151-7.99 17.925-22.74.941-17.932-16.93-25.193-16.93-25.193M877.354 622.38l-34.228-2.39c1.675 4.5 7.7 17.266 22.453 18.297 17.935 1.252 25.516-16.468 25.516-16.468s-5.037-18.6-22.973-19.854c-14.753-1.03-22.499 10.775-24.784 14.998l34.228 2.391a1.512 1.512 0 0 1 1.407 1.619 1.514 1.514 0 0 1-1.619 1.408M381.351 860.851a1.515 1.515 0 0 1-2.135.222 1.512 1.512 0 0 1-.226-2.131l21.593-26.631c-4.651-1.212-18.578-3.604-27.885 7.874-11.315 13.955-1.129 30.32-1.129 30.32s18.146 6.548 29.46-7.407c9.308-11.478 4.069-24.586 1.915-28.878l-21.593 26.631zM259.281 607.19l34.291-1.196c-2.136-4.3-9.465-16.368-24.245-15.852-17.97.626-23.653 19.04-23.653 19.04s6.957 17.974 24.925 17.347c14.78-.515 21.248-13.064 23.079-17.503l-34.29 1.197a1.513 1.513 0 0 1-1.57-1.464c-.029-.837.621-1.54 1.463-1.569M882.803 770.168c16.02 8.152 29.93-5.2 29.93-5.2s2.64-19.09-13.38-27.241c-13.176-6.706-24.925 1.138-28.68 4.133l30.571 15.558a1.511 1.511 0 0 1 .662 2.04 1.515 1.515 0 0 1-2.041.663l-30.572-15.557c-.219 4.795.333 18.898 13.51 25.604M486.69 855.243a1.514 1.514 0 0 1-2.004.766 1.512 1.512 0 0 1-.77-2l13.955-31.305c-4.806.032-18.88 1.321-24.895 14.814-7.312 16.404 6.767 29.579 6.767 29.579s19.225 1.635 26.538-14.77c6.014-13.492-2.443-24.8-5.635-28.39l-13.955 31.306zM846.74 710.127c16.895 6.142 29.072-8.805 29.072-8.805s.292-19.267-16.603-25.408c-13.896-5.052-24.6 4.162-27.963 7.593l32.242 11.72a1.512 1.512 0 0 1 .905 1.944 1.515 1.515 0 0 1-1.944.908l-32.242-11.72c.368 4.786 2.637 18.717 16.534 23.768M805.174 772.516c14.169 11.056 30.375.599 30.375.599s6.238-18.235-7.93-29.29c-11.653-9.093-24.685-3.633-28.945-1.408l27.038 21.098c.66.515.78 1.463.26 2.128a1.515 1.515 0 0 1-2.13.263l-27.037-21.098c-1.132 4.666-3.284 18.615 8.37 27.708M669.944 834.272l10.031 32.771c.246.8-.201 1.646-1.008 1.892-.803.245-1.65-.2-1.897-1.004L667.04 835.16c-3.606 3.174-13.38 13.368-9.057 27.491 5.257 17.173 24.538 17.89 24.538 17.89s15.581-11.362 10.325-28.535c-4.324-14.124-18.135-17.116-22.901-17.734M333.38 652.558c14.644-2.056 19.764-15.211 21.12-19.816l-33.978 4.769a1.513 1.513 0 0 1-1.712-1.292 1.512 1.512 0 0 1 1.29-1.713l33.977-4.77c-2.574-4.053-11.126-15.29-25.77-13.234-17.805 2.5-21.532 21.406-21.532 21.406s8.8 17.149 26.605 14.65M300.49 460.295c13.056 6.933 24.94-.704 28.748-3.634l-30.295-16.088a1.512 1.512 0 0 1-.626-2.05 1.516 1.516 0 0 1 2.052-.629l30.296 16.089c.303-4.791-.003-18.903-13.06-25.837-15.876-8.43-30.017 4.68-30.017 4.68s-2.974 19.038 12.901 27.469M1043.14 543.3l34.056-4.176c-2.503-4.098-10.858-15.482-25.536-13.682-17.846 2.188-21.901 21.027-21.901 21.027s8.498 17.3 26.344 15.112c14.678-1.8 20.027-14.864 21.464-19.446l-34.057 4.177a1.514 1.514 0 0 1-1.69-1.322 1.513 1.513 0 0 1 1.32-1.69M797.231 152.261c4.803-.2 18.822-1.979 24.362-15.673 6.735-16.65-7.796-29.325-7.796-29.325s-19.27-.964-26.005 15.685c-5.54 13.694 3.307 24.7 6.622 28.176l12.854-31.773a1.514 1.514 0 0 1 1.976-.835 1.512 1.512 0 0 1 .841 1.972l-12.854 31.773zM724.675 163.652c-4.324 14.124 5.45 24.318 9.056 27.492l10.032-32.771a1.514 1.514 0 0 1 1.896-1.005 1.512 1.512 0 0 1 1.009 1.892l-10.031 32.771c4.766-.617 18.577-3.61 22.9-17.734 5.257-17.172-10.326-28.535-10.326-28.535s-19.28.718-24.536 17.89M624.89 63.152s-18.438 5.676-19.065 23.623c-.517 14.76 11.566 22.08 15.872 24.214l1.197-34.248c.03-.836.727-1.49 1.572-1.46.838.03 1.494.725 1.465 1.566l-1.198 34.248c4.445-1.83 17.009-8.29 17.525-23.05.628-17.946-17.368-24.893-17.368-24.893M250.41 306.758c11.162 9.69 24.462 4.917 28.831 2.919l-25.895-22.483a1.51 1.51 0 0 1-.148-2.138 1.516 1.516 0 0 1 2.141-.152l25.896 22.483c1.374-4.601 4.254-18.418-6.907-28.109-13.57-11.78-30.3-2.184-30.3-2.184s-7.186 17.883 6.383 29.664M178.565 301.02c11.329 9.494 24.543 4.492 28.878 2.416l-26.285-22.027a1.511 1.511 0 0 1-.185-2.136 1.517 1.517 0 0 1 2.138-.189l26.284 22.028c1.294-4.623 3.932-18.49-7.396-27.983-13.774-11.543-30.334-1.657-30.334-1.657s-6.873 18.006 6.9 29.548M103.743 385.184s-1.301 19.225 15.25 26.241c13.612 5.771 24.785-2.871 28.322-6.12l-31.584-13.39a1.511 1.511 0 0 1-.802-1.989 1.515 1.515 0 0 1 1.989-.804l31.584 13.39c-.116-4.8-1.652-18.83-15.265-24.602-16.55-7.016-29.494 7.274-29.494 7.274M83.347 698.733l33.79-5.95c-2.714-3.962-11.654-14.894-26.218-12.328-17.706 3.117-20.769 22.143-20.769 22.143s9.394 16.831 27.1 13.713c14.564-2.565 19.22-15.89 20.415-20.54l-33.79 5.95c-.825.146-1.61-.4-1.757-1.231-.146-.825.4-1.61 1.23-1.757M864.368 397.134c-12.114 8.471-10.696 22.514-9.81 27.232l28.106-19.655a1.514 1.514 0 0 1 2.113.374 1.511 1.511 0 0 1-.37 2.11l-28.108 19.657c4.137 2.445 16.865 8.578 28.979.107 14.728-10.3 9.453-28.835 9.453-28.835s-15.635-11.29-30.363-.99M530.775 437.144l12.297 31.992a1.51 1.51 0 0 1-.875 1.957c-.783.3-1.66-.085-1.961-.87l-12.297-31.992c-3.376 3.418-12.414 14.268-7.114 28.056 6.443 16.765 25.727 16.137 25.727 16.137s14.75-12.42 8.308-29.185c-5.3-13.789-19.286-15.812-24.085-16.095M668.157 388.336a1.512 1.512 0 0 1 .943 1.926l-11.17 32.402c4.784-.451 18.691-2.96 23.506-16.925 5.854-16.98-9.322-28.878-9.322-28.878s-19.294.045-25.148 17.024c-4.814 13.965 4.598 24.493 8.091 27.79l11.17-32.401a1.514 1.514 0 0 1 1.93-.938M606.514 1152.061l.599 34.263a1.512 1.512 0 0 1-1.492 1.541 1.513 1.513 0 0 1-1.545-1.487l-.599-34.263c-4.343 2.057-16.552 9.166-16.293 23.934.313 17.953 18.65 23.951 18.65 23.951s18.114-6.633 17.8-24.587c-.258-14.767-12.709-21.446-17.12-23.352M672.401 1147.266l4.775 33.935a1.512 1.512 0 0 1-1.293 1.71 1.515 1.515 0 0 1-1.715-1.288l-4.775-33.935c-4.059 2.572-15.31 11.113-13.251 25.739 2.502 17.782 21.433 21.503 21.433 21.503s17.17-8.788 14.668-26.57c-2.058-14.626-15.231-19.74-19.842-21.094M1121.126 844.68c-13.177-6.706-24.926 1.138-28.682 4.134l30.572 15.557a1.51 1.51 0 0 1 .662 2.04 1.516 1.516 0 0 1-2.041.664l-30.572-15.558c-.219 4.796.333 18.9 13.51 25.604 16.02 8.153 29.93-5.2 29.93-5.2s2.64-19.09-13.38-27.241M1149.283 388.033c.3.782-.086 1.657-.872 1.96l-32.032 12.28c3.422 3.37 14.285 12.398 28.091 7.105 16.786-6.435 16.158-25.694 16.158-25.694s-12.437-14.733-29.222-8.297c-13.807 5.293-15.832 19.261-16.116 24.053l32.033-12.28c.782-.3 1.657.086 1.96.873"/>
        <path fill="#00CC92" d="M227.31 192.608l-23.836-24.65a1.511 1.511 0 0 1 .04-2.144 1.517 1.517 0 0 1 2.146.036l23.835 24.65c1.77-4.463 5.845-17.978-4.428-28.602-12.49-12.917-29.994-4.814-29.994-4.814s-8.72 17.19 3.77 30.107c10.273 10.624 23.94 7.028 28.466 5.417M387.28 1080.511a1.515 1.515 0 0 1-2.042.66 1.512 1.512 0 0 1-.666-2.037l15.577-30.533c-4.801-.22-18.922.332-25.636 13.492-8.162 16 5.208 29.893 5.208 29.893s19.112 2.637 27.275-13.363c6.713-13.16-1.14-24.894-4.14-28.645l-15.577 30.533z"/>
        <path fill="#413A31" d="M803.901 708.497s3.306-18.985-12.42-27.69c-12.934-7.16-24.95.268-28.808 3.132l30.01 16.613c.732.406 1 1.323.59 2.061-.407.733-1.327 1-2.063.592l-30.01-16.613c-.386 4.785-.327 18.899 12.607 26.06 15.725 8.705 30.094-4.155 30.094-4.155"/>
        <path fill="#00CC92" d="M725.843 353.81a1.514 1.514 0 0 1 2.042-.66 1.512 1.512 0 0 1 .665 2.038l-15.577 30.533c4.801.218 18.922-.333 25.636-13.493 8.163-16-5.207-29.892-5.207-29.892s-19.112-2.637-27.275 13.362c-6.714 13.16 1.14 24.895 4.139 28.646l15.577-30.534zM391.3 768.187c11.654-9.093 9.502-23.043 8.37-27.709l-27.037 21.098c-.66.515-1.61.402-2.13-.263a1.511 1.511 0 0 1 .26-2.128l27.037-21.098c-4.259-2.224-17.29-7.684-28.944 1.408-14.168 11.056-7.93 29.29-7.93 29.29s16.206 10.457 30.374-.598M444.806 601.337c-14.707 1.543-20.284 14.513-21.8 19.068l34.124-3.582a1.513 1.513 0 0 1 1.667 1.35 1.514 1.514 0 0 1-1.35 1.667l-34.123 3.582c2.431 4.14 10.586 15.668 25.293 14.125 17.881-1.877 22.265-20.642 22.265-20.642s-8.195-17.446-26.076-15.568M964.562 291.33s-16.386-10.174-30.358 1.126c-11.493 9.295-9.097 23.205-7.885 27.85l26.666-21.565a1.515 1.515 0 0 1 2.134.226 1.51 1.51 0 0 1-.223 2.131l-26.665 21.566c4.297 2.15 17.422 7.383 28.915-1.912 13.973-11.3 7.416-29.423 7.416-29.423M579.627 170.845l-1.198-34.248a1.513 1.513 0 0 1 1.465-1.566c.838-.03 1.542.62 1.571 1.46l1.198 34.248c4.306-2.134 16.388-9.454 15.872-24.214-.627-17.946-19.065-23.623-19.065-23.623s-17.996 6.948-17.369 24.894c.517 14.76 13.081 21.22 17.526 23.05M297.157 530.16l-33.292-8.29a1.513 1.513 0 0 1-1.105-1.838 1.516 1.516 0 0 1 1.839-1.106l33.293 8.29c-.866-4.722-4.582-18.34-18.931-21.912-17.446-4.344-27.991 11.791-27.991 11.791s1.726 19.193 19.172 23.537c14.349 3.573 24.03-6.71 27.015-10.472M217.757 804.952s-14.368-12.86-30.094-4.154c-12.934 7.16-12.993 21.274-12.607 26.059l30.01-16.613a1.514 1.514 0 0 1 2.062.592 1.512 1.512 0 0 1-.59 2.06L176.53 829.51c3.858 2.864 15.874 10.293 28.808 3.132 15.726-8.705 12.42-27.69 12.42-27.69M586.914 970.41l-1.198 34.248a1.512 1.512 0 0 1-1.57 1.46 1.513 1.513 0 0 1-1.465-1.566l1.197-34.248c-4.444 1.83-17.01 8.29-17.525 23.05-.627 17.946 17.369 24.893 17.369 24.893s18.437-5.676 19.065-23.623c.515-14.76-11.568-22.08-15.873-24.214M475.034 509.905c13.774 11.543 30.334 1.657 30.334 1.657s6.872-18.005-6.9-29.548c-11.33-9.494-24.543-4.491-28.878-2.416l26.285 22.027a1.51 1.51 0 0 1 .185 2.136c-.54.642-1.493.73-2.138.188l-26.285-22.027c-1.293 4.624-3.931 18.49 7.397 27.983M592.084.634s-18.115 6.633-17.8 24.587c.257 14.767 12.707 21.446 17.119 23.352l-.6-34.263a1.513 1.513 0 0 1 1.493-1.54c.84-.016 1.53.645 1.546 1.487l.598 34.263c4.342-2.058 16.552-9.167 16.294-23.934C610.42 6.632 592.084.634 592.084.634M524.139 53.316l-4.182-34.013a1.512 1.512 0 0 1 1.323-1.688 1.515 1.515 0 0 1 1.693 1.319l4.181 34.012c4.104-2.5 15.501-10.844 13.699-25.503-2.191-17.823-21.054-21.874-21.054-21.874s-17.32 8.488-15.13 26.31c1.802 14.66 14.883 20.002 19.47 21.437M52.14 419.823c13.897 5.052 24.601-4.163 27.963-7.593L47.86 400.509a1.512 1.512 0 0 1-.905-1.944 1.515 1.515 0 0 1 1.945-.907l32.242 11.72c-.367-4.786-2.637-18.717-16.533-23.768-16.896-6.142-29.073 8.805-29.073 8.805s-.291 19.266 16.604 25.408M60.912 474.787l-33.293-8.29a1.513 1.513 0 0 1-1.104-1.838 1.516 1.516 0 0 1 1.839-1.106l33.293 8.29c-.867-4.721-4.582-18.34-18.931-21.912-17.446-4.344-27.991 11.791-27.991 11.791s1.726 19.193 19.172 23.537c14.349 3.573 24.03-6.71 27.015-10.472M52.496 814.459c-.301-.782.085-1.657.87-1.96L85.4 800.22c-3.422-3.37-14.286-12.398-28.092-7.105-16.785 6.435-16.157 25.694-16.157 25.694s12.436 14.733 29.222 8.297c13.806-5.293 15.831-19.261 16.115-24.053l-32.032 12.28a1.515 1.515 0 0 1-1.96-.873M217.173 1043.278a1.516 1.516 0 0 1-2.143.11 1.513 1.513 0 0 1-.115-2.14l22.96-25.467c-4.581-1.453-18.365-4.57-28.26 6.406-12.03 13.345-2.716 30.22-2.716 30.22s17.777 7.488 29.808-5.857c9.895-10.976 5.35-24.34 3.426-28.739l-22.96 25.467zM540.066 1148.105l-4.182 34.013a1.513 1.513 0 0 1-1.692 1.318 1.513 1.513 0 0 1-1.323-1.687l4.181-34.014c-4.587 1.435-17.667 6.778-19.47 21.437-2.19 17.823 15.13 26.31 15.13 26.31s18.863-4.05 21.055-21.873c1.802-14.66-9.597-23.003-13.7-25.504M804.914 892.196s11.576-15.417 1.522-30.304c-8.27-12.244-22.353-11.073-27.092-10.272l19.187 28.41a1.51 1.51 0 0 1-.412 2.104 1.515 1.515 0 0 1-2.107-.408l-19.187-28.409c-2.519 4.088-8.882 16.69-.613 28.935 10.055 14.887 28.702 9.944 28.702 9.944M643.705 1027.486l1.796 34.22a1.512 1.512 0 0 1-1.437 1.593 1.514 1.514 0 0 1-1.597-1.433l-1.795-34.222c-4.268 2.209-16.221 9.738-15.447 24.488.94 17.932 19.475 23.287 19.475 23.287s17.871-7.26 16.93-25.193c-.774-14.75-13.449-20.99-17.925-22.74M501.762 788.644c7.836-12.526 1.037-24.899-1.624-28.896l-18.182 29.06a1.515 1.515 0 0 1-2.092.482 1.512 1.512 0 0 1-.484-2.089l18.182-29.061c-4.764-.636-18.88-1.316-26.716 11.21-9.528 15.228 2.58 30.231 2.58 30.231s18.808 4.291 28.336-10.937M741.896 531.942l-30.84 15.022c3.703 3.06 15.314 11.108 28.606 4.633 16.16-7.871 13.853-27.003 13.853-27.003S739.84 511 723.68 518.872c-13.292 6.475-14.09 20.567-13.955 25.365l30.839-15.022a1.516 1.516 0 0 1 2.03.7c.367.753.058 1.658-.698 2.027M676.942 256.717s-19.183 2.06-23.228 19.557c-3.326 14.39 7.136 23.878 10.955 26.794l7.718-33.39a1.514 1.514 0 0 1 1.822-1.135 1.513 1.513 0 0 1 1.138 1.817l-7.718 33.39c4.712-.948 18.28-4.895 21.606-19.286 4.045-17.497-12.293-27.747-12.293-27.747M425.75 293.504s-12.876 14.35-4.159 30.055c7.17 12.918 21.302 12.977 26.093 12.592l-16.635-29.972a1.51 1.51 0 0 1 .593-2.06 1.515 1.515 0 0 1 2.064.588l16.634 29.972c2.867-3.853 10.306-15.854 3.136-28.772-8.717-15.705-27.725-12.403-27.725-12.403M644.938 950.873s17.014-9.087 14.202-26.822c-2.314-14.588-15.574-19.47-20.207-20.745l5.367 33.847a1.512 1.512 0 0 1-1.263 1.733 1.515 1.515 0 0 1-1.738-1.259l-5.367-33.846c-4.013 2.642-15.113 11.378-12.8 25.965 2.813 17.736 21.806 21.127 21.806 21.127M508.796 891.291l-10.032 32.771a1.514 1.514 0 0 1-1.895 1.005 1.513 1.513 0 0 1-1.01-1.892l10.032-32.771c-4.766.617-18.577 3.61-22.9 17.734-5.258 17.173 10.325 28.535 10.325 28.535s19.28-.718 24.537-17.89c4.323-14.124-5.45-24.318-9.057-27.492M271.181 691.251a1.512 1.512 0 0 1 1.04-1.876l32.982-9.445c-3.115-3.657-13.15-13.594-27.365-9.523-17.283 4.95-18.338 24.19-18.338 24.19s11.103 15.758 28.386 10.809c14.216-4.072 17.453-17.81 18.155-22.56l-32.984 9.446a1.514 1.514 0 0 1-1.876-1.04M824.126 461.973a1.514 1.514 0 0 1-2.106-.412 1.511 1.511 0 0 1 .407-2.104l28.446-19.163c-4.093-2.516-16.712-8.87-28.972-.612-14.906 10.042-9.956 28.667-9.956 28.667s15.436 11.56 30.342 1.518c12.26-8.259 11.088-22.324 10.285-27.057l-28.446 19.163zM427.35 205.181l-14.5-31.057a1.511 1.511 0 0 1 .735-2.014 1.516 1.516 0 0 1 2.018.73l14.5 31.059c3.13-3.645 11.387-15.098 5.138-28.484-7.598-16.274-26.792-14.305-26.792-14.305s-13.847 13.419-6.248 29.693c6.25 13.386 20.343 14.43 25.15 14.378M392.794 924.908a1.515 1.515 0 0 1 2.091-.48c.712.444.932 1.374.485 2.088l-18.182 29.061c4.764.636 18.88 1.315 26.716-11.21 9.528-15.228-2.579-30.232-2.579-30.232s-18.81-4.29-28.337 10.938c-7.837 12.525-1.038 24.899 1.624 28.897l18.182-29.062zM404.194 496.526a1.511 1.511 0 0 1-.732-2.015 1.515 1.515 0 0 1 2.016-.735l31.097 14.483c.052-4.8-.993-18.876-14.396-25.118-16.296-7.59-29.73 6.241-29.73 6.241s-1.972 19.168 14.323 26.757c13.403 6.242 24.87-2.006 28.52-5.13l-31.098-14.483zM592.458 423.226l1.796 34.221a1.513 1.513 0 0 1-1.437 1.592 1.514 1.514 0 0 1-1.597-1.433l-1.796-34.221c-4.267 2.208-16.22 9.738-15.446 24.487.94 17.933 19.475 23.287 19.475 23.287s17.871-7.26 16.93-25.192c-.774-14.75-13.449-20.99-17.925-22.741M737.968 1134.622l7.719 33.39a1.513 1.513 0 0 1-1.14 1.817 1.516 1.516 0 0 1-1.82-1.135l-7.719-33.39c-3.82 2.915-14.281 12.403-10.955 26.795 4.045 17.496 23.228 19.555 23.228 19.555s16.338-10.25 12.294-27.746c-3.327-14.39-16.895-18.338-21.607-19.286M801.155 1113.756l12.296 31.992a1.51 1.51 0 0 1-.874 1.957c-.784.3-1.66-.085-1.962-.87l-12.296-31.992c-3.376 3.418-12.414 14.268-7.114 28.056 6.443 16.765 25.727 16.136 25.727 16.136s14.75-12.42 8.307-29.184c-5.3-13.789-19.286-15.812-24.084-16.095"/>
        <path fill="#756B5E" d="M17.003 677.36a1.513 1.513 0 0 1 1.32-1.69l34.055-4.176c-2.503-4.098-10.857-15.481-25.535-13.681C8.997 660 4.94 678.84 4.94 678.84s8.499 17.299 26.345 15.11c14.678-1.8 20.027-14.864 21.463-19.444l-34.057 4.176a1.514 1.514 0 0 1-1.69-1.321M633.164 816.762a1.515 1.515 0 0 1-1.738-1.259l-5.368-33.846c-4.013 2.642-15.112 11.378-12.799 25.965 2.813 17.736 21.806 21.127 21.806 21.127s17.014-9.086 14.201-26.822c-2.313-14.588-15.573-19.47-20.207-20.745l5.368 33.847a1.512 1.512 0 0 1-1.263 1.733M548.031 262.91a1.513 1.513 0 0 1 1.715 1.287l4.776 33.935c4.058-2.571 15.309-11.113 13.25-25.738-2.501-17.782-21.432-21.504-21.432-21.504s-17.17 8.789-14.668 26.57c2.058 14.627 15.23 19.74 19.841 21.095l-4.775-33.935a1.512 1.512 0 0 1 1.293-1.71M459.332 724.025c-4.437-1.845-17.896-6.15-28.71 3.923-13.15 12.246-5.344 29.868-5.344 29.868s17.057 9.007 30.206-3.24c10.815-10.073 7.454-23.782 5.92-28.332l-25.094 23.371c-.612.57-1.569.541-2.145-.076a1.512 1.512 0 0 1 .073-2.142l25.094-23.372zM109.092 577.38L74.8 576.184a1.512 1.512 0 0 1-1.462-1.568 1.513 1.513 0 0 1 1.568-1.464l34.291 1.197c-1.831-4.44-8.3-16.988-23.079-17.504-17.969-.626-24.925 17.347-24.925 17.347s5.684 18.414 23.652 19.041c14.78.515 22.11-11.552 24.246-15.853M136.526 633.349l34.18-2.987c-2.358-4.183-10.31-15.85-25.041-14.563-17.912 1.565-22.624 20.251-22.624 20.251s7.89 17.585 25.8 16.02c14.732-1.288 20.535-14.157 22.13-18.685l-34.18 2.987a1.514 1.514 0 0 1-1.644-1.38 1.514 1.514 0 0 1 1.379-1.643M469.672 419.824a1.517 1.517 0 0 1 2.121.334l20.168 27.723c2.375-4.173 8.293-16.99-.4-28.938-10.568-14.528-29.03-8.938-29.03-8.938s-11.03 15.81-.463 30.338c8.693 11.95 22.727 10.288 27.435 9.322l-20.168-27.724a1.511 1.511 0 0 1 .337-2.117M862.209 1085.938l16.109 30.257a1.512 1.512 0 0 1-.63 2.05 1.516 1.516 0 0 1-2.053-.625l-16.108-30.257c-2.934 3.802-10.58 15.672-3.638 28.712 8.441 15.855 27.505 12.886 27.505 12.886s13.124-14.124 4.683-29.98c-6.942-13.04-21.071-13.346-25.868-13.043M1129.844 317.528s-14.142-13.109-30.017-4.679c-13.057 6.934-13.363 21.045-13.06 25.836l30.296-16.088a1.514 1.514 0 0 1 2.051.628c.394.74.118 1.656-.625 2.052l-30.296 16.087c3.808 2.93 15.692 10.567 28.75 3.634 15.875-8.43 12.901-27.47 12.901-27.47M925.232 112.265a1.515 1.515 0 0 1 2.074-.553c.726.419.978 1.341.557 2.07l-17.156 29.677c4.784.47 18.915.657 26.308-12.134 8.99-15.552-3.633-30.124-3.633-30.124s-18.948-3.632-27.938 11.919c-7.394 12.791-.166 24.92 2.632 28.822l17.156-29.677zM658.14 52.078l1.795-34.222a1.514 1.514 0 0 1 1.597-1.433 1.514 1.514 0 0 1 1.438 1.592l-1.797 34.221c4.476-1.75 17.152-7.99 17.926-22.74.941-17.932-16.931-25.193-16.931-25.193s-18.534 5.355-19.475 23.287c-.774 14.75 11.18 22.279 15.447 24.488M395.59 86.984l-11.735-32.202a1.512 1.512 0 0 1 .91-1.942 1.515 1.515 0 0 1 1.945.904l11.736 32.202c3.434-3.358 12.661-14.05 7.603-27.928-6.15-16.874-25.44-16.582-25.44-16.582s-14.967 12.161-8.817 29.035c5.057 13.879 19.006 16.145 23.799 16.513M152.24 238.83c11.493 9.295 24.618 4.063 28.916 1.913l-26.666-21.566a1.51 1.51 0 0 1-.223-2.132 1.516 1.516 0 0 1 2.135-.226l26.665 21.566c1.213-4.645 3.608-18.555-7.885-27.85-13.972-11.3-30.358-1.127-30.358-1.127s-6.557 18.122 7.416 29.422M111.432 295.13c12.541 7.827 24.93 1.037 28.933-1.62l-29.098-18.16a1.511 1.511 0 0 1-.481-2.09 1.515 1.515 0 0 1 2.09-.483l29.099 18.16c.636-4.76 1.317-18.856-11.225-26.683-15.247-9.516-30.27 2.575-30.27 2.575s-4.296 18.786 10.952 28.302M114.258 863.33l-30.01 16.614a1.515 1.515 0 0 1-2.063-.593 1.512 1.512 0 0 1 .59-2.06l30.01-16.615c-3.858-2.862-15.874-10.292-28.808-3.131-15.726 8.706-12.42 27.69-12.42 27.69s14.368 12.86 30.094 4.155c12.934-7.16 12.993-21.275 12.607-26.06M120.634 938.934a1.516 1.516 0 0 1-2.1-.448 1.513 1.513 0 0 1 .445-2.097l28.777-18.664c-4.05-2.587-16.554-9.16-28.957-1.116-15.079 9.78-10.455 28.487-10.455 28.487s15.23 11.828 30.31 2.048c12.402-8.044 11.476-22.128 10.757-26.874l-28.777 18.664zM270.527 1087.167a1.515 1.515 0 0 1-2.12.334 1.512 1.512 0 0 1-.338-2.117l20.168-27.724c-4.708-.966-18.742-2.628-27.434 9.322-10.568 14.527.461 30.337.461 30.337s18.464 5.59 29.032-8.937c8.692-11.948 2.774-24.765.4-28.939l-20.17 27.724zM332.693 1121.518a1.514 1.514 0 0 1-2.063.589 1.512 1.512 0 0 1-.594-2.06l16.635-29.971c-4.79-.386-18.923-.327-26.092 12.59-8.717 15.706 4.16 30.056 4.16 30.056s19.008 3.302 27.725-12.404c7.168-12.917-.27-24.918-3.136-28.772l-16.635 29.972zM397.446 1149.87a1.514 1.514 0 0 1-1.962.87 1.511 1.511 0 0 1-.874-1.958l12.296-31.992c-4.798.283-18.785 2.306-24.084 16.095-6.443 16.764 8.308 29.185 8.308 29.185s19.283.628 25.726-16.137c5.3-13.788-3.738-24.638-7.114-28.056l-12.296 31.992zM807.595 1045.536l13.956 31.306c.34.764 0 1.658-.77 2a1.516 1.516 0 0 1-2.006-.766l-13.956-31.306c-3.19 3.59-11.649 14.897-5.633 28.39 7.312 16.404 26.536 14.77 26.536 14.77s14.08-13.175 6.767-29.58c-6.015-13.492-20.087-14.781-24.894-14.814M515.805 1084.312l-5.367 33.846a1.514 1.514 0 0 1-1.738 1.259 1.513 1.513 0 0 1-1.263-1.734l5.368-33.846c-4.634 1.274-17.894 6.157-20.208 20.745-2.812 17.735 14.202 26.822 14.202 26.822s18.993-3.39 21.805-21.127c2.314-14.587-8.786-23.323-12.799-25.965M693.866 1082.355l7.134 33.52a1.512 1.512 0 0 1-1.17 1.796 1.516 1.516 0 0 1-1.802-1.166l-7.134-33.52c-3.869 2.848-14.496 12.153-11.42 26.6 3.738 17.564 22.882 19.957 22.882 19.957s16.515-9.963 12.777-27.528c-3.076-14.446-16.573-18.63-21.267-19.66"/>
        <path fill="#413A31" d="M767.257 760.095s8.418-17.34-4.296-30.037c-10.457-10.443-24.058-6.61-28.557-4.92l24.263 24.231a1.51 1.51 0 0 1-.002 2.144 1.516 1.516 0 0 1-2.146.002l-24.262-24.231c-1.693 4.492-5.531 18.076 4.926 28.52 12.714 12.698 30.074 4.29 30.074 4.29"/>
        <path fill="#756B5E" d="M727.387 692.328l-27.038-21.098c-1.131 4.666-3.284 18.615 8.37 27.709 14.168 11.055 30.374.598 30.374.598s6.238-18.234-7.93-29.29c-11.653-9.092-24.685-3.632-28.944-1.408l27.038 21.098c.66.515.78 1.463.26 2.128a1.516 1.516 0 0 1-2.13.263"/>
        <path fill="#413A31" d="M817.104 587.778l-34.182 2.987c2.359 4.182 10.31 15.85 25.043 14.563 17.91-1.566 22.622-20.252 22.622-20.252s-7.889-17.585-25.8-16.02c-14.732 1.287-20.535 14.157-22.13 18.686l34.181-2.987c.834-.073 1.57.54 1.643 1.38.073.834-.539 1.569-1.377 1.643"/>
        <path fill="#756B5E" d="M551.513 840.818c-4.61 1.355-17.783 6.468-19.84 21.094-2.503 17.782 14.667 26.57 14.667 26.57s18.93-3.72 21.432-21.502c2.059-14.627-9.192-23.168-13.25-25.739l-4.775 33.934a1.514 1.514 0 0 1-1.716 1.29 1.513 1.513 0 0 1-1.293-1.712l4.775-33.935zM935.3 372.465l-28.106 19.656c4.136 2.444 16.864 8.578 28.978.106 14.728-10.3 9.453-28.835 9.453-28.835s-15.635-11.29-30.363-.99c-12.114 8.472-10.696 22.515-9.811 27.233l28.106-19.656a1.515 1.515 0 0 1 2.114.375c.48.686.32 1.629-.37 2.111M943.068 249.437l23.834-24.651a1.516 1.516 0 0 1 2.147-.035c.603.582.624 1.538.04 2.143l-23.836 24.65c4.527 1.612 18.194 5.207 28.467-5.417 12.489-12.917 3.77-30.107 3.77-30.107s-17.505-8.102-29.995 4.815c-10.273 10.625-6.197 24.139-4.427 28.602M444.501 134.335l-10.031-32.77a1.511 1.511 0 0 1 1.008-1.892c.803-.245 1.65.2 1.897 1.004l10.031 32.771c3.606-3.174 13.38-13.368 9.057-27.492-5.257-17.172-24.538-17.89-24.538-17.89S416.343 99.43 421.6 116.602c4.324 14.124 18.134 17.116 22.901 17.733M230.032 573.78l-34.124-3.582a1.513 1.513 0 0 1-1.349-1.667 1.513 1.513 0 0 1 1.667-1.35l34.124 3.582c-1.516-4.556-7.093-17.525-21.8-19.068-17.882-1.878-26.077 15.568-26.077 15.568s4.385 18.764 22.266 20.642c14.707 1.543 22.862-9.984 25.293-14.125M901.279 464.894c-13.806 5.293-15.832 19.261-16.116 24.053l32.033-12.28c.782-.3 1.658.086 1.96.873.3.782-.085 1.657-.871 1.96l-32.033 12.28c3.422 3.37 14.286 12.398 28.092 7.105 16.785-6.435 16.157-25.695 16.157-25.695s-12.436-14.732-29.222-8.296M357.073 954.78c-4.74-.801-18.822-1.972-27.092 10.273-10.054 14.887 1.522 30.303 1.522 30.303s18.647 4.944 28.702-9.943c8.269-12.245 1.906-24.848-.613-28.935l-19.187 28.409a1.514 1.514 0 0 1-2.107.407 1.51 1.51 0 0 1-.412-2.103l19.187-28.41z"/>
        <path fill="#756B5E" d="M521.937 1080.819l.017.004c.008.013.012.02-.048-.01a.693.693 0 0 1 .03.006m337.453 1.738c.737-.4 1.013-1.32.613-2.055l-17.266-31.768c-6.77-12.457-22.478-17.373-35.227-11.076-.012.005-1.779.874-2.794 1.35L743.4 908.728c-7.659-16.273-1.86-36.032 12.898-46.194l3.676-2.267a282.631 282.631 0 0 0 6.984-4.453l8.32-6.245c.033-.024.058-.054.087-.08.042-.037.086-.073.123-.114.032-.034.057-.072.085-.108.032-.044.066-.084.093-.13.024-.04.042-.083.062-.125.022-.046.046-.091.063-.139.016-.044.026-.09.038-.136.013-.048.027-.095.035-.145.007-.047.008-.094.011-.142.003-.05.008-.098.006-.147-.001-.05-.01-.098-.017-.147-.006-.048-.01-.095-.02-.143-.013-.051-.032-.1-.05-.15-.015-.044-.027-.088-.047-.13-.022-.05-.053-.099-.082-.147-.02-.034-.035-.07-.058-.103l-83.82-118.899c-12.024-17.056-36.89-23.431-55.651-14.271l-1.425.696c-5.115 2.384-10.6 3.791-16.962 4.501-4.887.546-8.872.654-18.067.654-66.274 0-120-53.658-120-119.848 0-9.582.584-16.517 2.212-23.063l.84-2.238c7.341-19.55-1.712-43.147-20.25-52.795l-20.288-10.56a181.145 181.145 0 0 1 23.945-32.996 1.514 1.514 0 0 0 .416-.454c33.036-35.912 80.445-58.425 133.125-58.425 51.578 0 100.25 20.088 129.48 54.086l1.832 2.347c12.862 16.458 37.645 20.88 55.424 9.889l21.004-13.108a1.517 1.517 0 1 0-1.6-2.58l-21.004 13.108c-16.46 10.176-39.522 6.061-51.429-9.176l-1.877-2.402c-29.883-34.759-79.405-55.198-131.83-55.198-2.689 0-5.36.07-8.022.184l-8.647-239.94.43-.017.168-.006c.04.008.078.022.121.028 20.968-.035 38.759-16.884 39.817-37.756l1.115-22.003 4.596.346c14.212 1.064 26.746-9.563 28.004-23.743l3.171-35.745a1.519 1.519 0 1 0-3.026-.268l-3.17 35.744c-1.113 12.528-12.16 22.373-24.714 21.432l-6.24-.45-5.35-.368c-12.594-.322-22.958-10.921-23.118-23.504l-.452-35.716c-.01-.838-.7-1.537-1.538-1.527-.84.01-1.51.684-1.5 1.522l.452 35.652c.18 14.215 11.852 26.017 26.079 26.381l3.772.094-1.115 22.584c-.951 18.76-16.512 33.652-35.214 34.41-.002 0-1.977.004-3.908.082-4.27.172-6.422.19-6.85.213-.046 0-.046-.037-.41.025-17.612-.201-32.986-13.556-35.244-31.368L528.278 59.3a1.522 1.522 0 0 0-1.698-1.319 1.515 1.515 0 0 0-1.317 1.693l10.613 83.727c2.592 20.458 21.105 35.443 41.831 33.84l.034-.002c.43-.015 1.751-.104 2.236-.123l8.649 239.975c-21.22 1.258-41.472 6.101-60.15 13.95L433.08 210.484c.695-.28 3.86-1.796 3.905-1.82 16.645-8.923 25.263-28.825 19.495-47.065l-6.786-21.463 5.628-1.684c13.643-4.088 21.659-18.52 17.91-32.246l-9.554-34.988a1.519 1.519 0 0 0-2.93.798l9.553 34.988c3.315 12.14-3.787 24.926-15.852 28.542l-7.103 2.127-.017.006-.004.001c-.003 0-.006.003-.008.004l-2.94 1.035c-11.888 4.19-25.299-1.917-29.923-13.623l-13.107-33.176a1.52 1.52 0 0 0-2.826 1.114l13.107 33.176c5.224 13.225 20.331 20.103 33.76 15.37l1.419-.5 6.777 21.433c5.505 17.412-3.228 36.52-19.677 44.304-.836.356-8.031 3.842-8.706 4.13-16.619 5.9-35.803-1.35-44.362-17.096l-40.33-74.304c-.4-.737-1.322-1.063-2.06-.663a1.485 1.485 0 0 0-.61 2.03l40.33 74.185c9.228 16.976 29.803 24.596 47.698 18.41.117-.038.193-.067.255-.089-.048.03 2.878-1.128 4.148-1.752.004-.001.006-.004.01-.006l95.407 220.585c-23.052 10.138-43.62 24.864-60.55 43.026l-177.77-162.5.67-.724c.073-.072.14-.148.213-.221l.015.013c.08-.089.08-.089.406-.444l.098-.106c.484-.503.952-1.015 1.406-1.537a262.65 262.65 0 0 0 .665-.732c.01.001.012.001.265-.378 12.097-14.992 11.945-36.844-.983-51.216l-56.147-62.425a1.52 1.52 0 0 0-2.145-.115 1.516 1.516 0 0 0-.115 2.143l56.147 62.424c11.999 13.34 12.065 33.718.794 47.455l-.016.019a1274.51 1274.51 0 0 0-4.507 4.875c-2.714 2.944-4.02 4.364-4.186 4.547-.014.017-.03.04-.044.06a1.913 1.913 0 0 1-.04.038c-12.617 12.066-32.796 13.496-46.994 2.693l-17.635-13.42a787.666 787.666 0 0 1 2.463-3.18c.087-.073.172-.158.252-.257l.033-.043a.598.598 0 0 1 .02-.026c8.883-11.08 7.437-27.488-3.292-36.774l-27.199-23.542a1.52 1.52 0 0 0-2.143.152c-.55.633-.48 1.591.153 2.14l27.2 23.542c9.24 8 10.703 22.008 3.518 31.797-.143.144-.143.144-.182.192-.054.063-.133.161-.247.305-.514.649-1.765 2.26-3.915 5.05a845.114 845.114 0 0 0-3.273 4.262l-.101.145-.034.04c-7.676 9.112-21.433 11.196-31.48 4.506l-29.901-19.909a1.52 1.52 0 0 0-2.107.421 1.515 1.515 0 0 0 .422 2.104l29.9 19.908c11.81 7.864 28.105 4.997 36.522-6.388l.064-.084.03-.038a1.8 1.8 0 0 0 .141-.226l1.303-1.693 17.647 13.43c16.67 12.683 40.895 9.827 54.141-6.38.011-.016.017-.03.027-.046.04-.042.077-.083.114-.124L463.084 477.51c-29.337 32.527-47.2 75.582-47.2 122.807 0 7.207.428 14.33 1.245 21.348l-57.61 6.64c-.363-3.349-.59-6.937-.677-10.764-.194-8.548.268-17.725 1.158-26.81.263-2.684.544-5.158.825-7.363.098-.771.19-1.453.272-2.039 2.133-21.608-12.496-42.13-32.805-46.81l-22.615-5.212c1.14-4.688 2.4-9.432 3.817-14.279l.372-1.272.061-.173c.02-.063 1.007-4.577 1.016-4.687.003-.016.157-.035.16-.051 3.964-18.527-5.516-38.108-23.118-45.664L155.07 406.101c.568-1.289 1.02-2.268 1.333-2.964.083-.102.169-.22.234-.354 6.224-12.829 1.097-28.397-11.55-34.893l-31.547-16.205a1.518 1.518 0 1 0-1.388 2.699l31.55 16.205c10.77 5.53 15.379 18.529 10.772 29.624-.002.003-.004.006-.004.009a.777.777 0 0 0-.064.082c-.133.226-.183.33-.26.494-.307.66-1.084 2.405-2.436 5.482-1.35 3.07-2.103 4.806-2.372 5.458-.07.17-.111.274-.14.36-.02.061-.02.061-.062.263a.6.6 0 0 0-.01.049l-.016.038c-4.993 10.76-17.564 16-28.833 11.741l-33.474-12.65a1.517 1.517 0 1 0-1.075 2.838l33.474 12.65c13.334 5.039 28.272-1.658 33.364-14.959a1.75 1.75 0 0 0 .103-.398c.294-.68.697-1.605 1.217-2.791l132.975 57.089c16.444 7.06 25.304 25.553 21.28 42.876-.233.792-.739 2.519-1.561 5.333-2.444 8.353-4.476 16.431-6.107 24.394a1136.4 1136.4 0 0 0-1.287 6.327c-.014.25-.02.386-.023.465l-.009.038c-4.355 17.023-20.883 29.244-38.745 27.89l-22.872-1.736c.33-3.601.762-7.078 1.634-13.569.273-2.037.83-10.063.83-10.063.76-18.878-11.675-36.471-30.335-40.851l-142.139-33.39c-.817-.192-1.585.314-1.777 1.13-.192.815.339 1.632 1.155 1.823l142.25 33.39c17.69 4.152 29.631 21.226 28.104 39.214-.13.979-.327 2.496-.604 4.61-.134 1.02-.224 1.7-.497 3.734-1.004 7.48-1.43 10.994-1.787 15.3a1.519 1.519 0 0 0 1.388 1.638c.173.014.34-.007.498-.047a1.6 1.6 0 0 0 .273.048l23.65 1.794c20.877 1.583 40.02-13.91 42.784-34.632.001-.036-.006-.067-.006-.102l.492-2.403c.47-2.295.983-4.604 1.521-6.922l22.639 5.218c18.804 4.334 32.432 23.437 30.579 42.735-.183 1.297-.277 1.99-.376 2.773-.285 2.234-.57 4.738-.836 7.452-.9 9.197-1.368 18.489-1.172 27.173.101 4.462.38 8.637.851 12.476a189.66 189.66 0 0 0 6.48 31.281c1.698 5.724 3.518 10.877 5.34 15.378a113.958 113.958 0 0 0 1.767 4.147c.187.416.354.778.5 1.084 7.133 18.333-1.016 40.418-18.037 49.59l-131.212 70.704a1.517 1.517 0 1 0 1.442 2.67l131.212-70.704c18.39-9.908 27.133-33.65 19.556-53.1a88.51 88.51 0 0 1-.692-1.491 112.456 112.456 0 0 1-1.72-4.037c-1.786-4.413-3.573-9.475-5.243-15.103a186.93 186.93 0 0 1-6.167-29.187l57.625-6.641c9.384 70.378 58.88 129.52 127.16 150.904.574.156 1.109.293 1.66.426 2.112.512 4.367.954 6.62 1.328.789.13 1.52.242 2.178.337 19.87 3.34 34.802 21.687 34.073 41.024l-5.408 143.416-11.68-.21c-21.58-.555-39.785 12.752-43.361 32.778l-14.6 81.762c-.672-.117-3.54-.626-3.759-.66-.026-.007-.026-.007-.333-.023-13.262-1.46-26.084 7.243-29.317 20.329l-8.608 34.84a1.518 1.518 0 1 0 2.95.727l8.608-34.84c2.903-11.752 14.578-19.542 26.51-17.982.66.117 2.24.392 4.912.855l.008.001c3.512.609 5.591.96 6.5 1.105.196.03.338.052.435.065a3.47 3.47 0 0 0 .35.023c11.99 2.247 20.485 13.614 19.094 25.806l-4.085 35.81a1.518 1.518 0 0 0 3.019.344l4.085-35.81c1.608-14.103-8.461-27.193-22.514-29.292l-.014-.003-.064-.01a1.75 1.75 0 0 0-.368-.017c-.875-.144-2.329-.39-4.416-.75l14.598-81.747c3.3-18.478 20.15-30.797 40.304-30.278l13.18.238.015-.001h.013c19.2 0 32.33 3.399 40.578 9.904 7.065 5.571 10.615 14.263 11.71 25.062l2.245 23.001-.158-1.615c-20.905.759-37.471 19.956-37.21 40.874l1.064 84.518c.01.838.699 1.29 1.537 1.28.84-.01 1.51-.806 1.5-1.644l-1.063-85.006c-.242-19.3 15.222-35.933 34.507-37.088 0 0 8.014-.271 8.5-.322 17.903-.678 34.188 11.887 37.353 29.724l4.01 22.486s-2.316.625-4.025.933c-14.05 2.276-23.316 15.76-21.534 29.823l4.543 35.421c.105.831.866 1.21 1.697 1.104.833-.106 1.422-.97 1.317-1.801l-4.543-35.895c-1.516-11.962 6.544-23.186 18.233-25.812.218-.011 13.488-2.68 13.505-2.688l.01-.003c11.861-2.182 23.45 5.298 26.226 17.157l8.14 34.777a1.52 1.52 0 0 0 2.958-.691l-8.14-34.778c-3.246-13.869-17.13-22.455-31.01-19.18-.15.034-2.57.582-4.394.939l-4.002-22.552c-3.434-19.35-21.07-32.966-40.39-32.224-.022.001-5.03.238-5.602.293l-2.252-22.205c-2.459-24.261-17.552-36.464-53.733-36.809l5.405-143.344c.786-20.86-15.227-40.536-35.824-44.024-1.489-.21-2.2-.319-2.966-.445a89.8 89.8 0 0 1-6.401-1.283 60.598 60.598 0 0 1-1.524-.39c-74.715-23.4-126.596-92.86-126.596-172.351 0-31.139 7.894-60.435 21.792-86.005l20.365 10.6c17.178 8.94 25.612 30.925 18.81 49.04l-.87 2.318c-1.768 7.023-2.375 14.197-2.375 24.047 0 67.867 55.086 122.882 123.038 122.882 9.308 0 13.367-.11 18.404-.672 6.672-.745 12.472-2.234 17.934-4.78l1.45-.707c17.42-8.506 40.668-2.545 51.833 13.292l82.973 117.697-7.03 5.279c-2.279 1.5-4.568 2.96-6.869 4.379l-.438.27-.003.002a40.163 40.163 0 0 0-3.285 2.025l-.425.263-.482.297-.017.011-.134.082.002.003-.131.086.05.073c-15.213 11.334-20.95 32.039-12.864 49.221l61.314 130.275a205.623 205.623 0 0 1-4.332 1.941c-13.096 5.586-19.492 20.833-14.295 34.077l13.158 33.534a1.52 1.52 0 0 0 1.969.86 1.517 1.517 0 0 0 .86-1.967l-13.158-33.533c-4.473-11.4.773-24.505 11.727-29.758.092-.01 12.187-5.671 12.197-5.675 11.043-4.656 24.19-.21 29.956 10.4l17.278 31.772a1.527 1.527 0 0 0 2.065.612M185.998 852.774a1.54 1.54 0 0 0-.068-.225c-.15-.273-.225-.396-.328-.57l-.175-.295a39.422 39.422 0 0 0-1.645-2.76c-.016-.019-.032-.032-.047-.05l-1.23-2.054c-6.374-10.649-12.156-21.177-17.412-31.754-.839-1.69-1.513-3.049-2.033-4.101a1.757 1.757 0 0 0-.122-.382l-.033-.068c-8.551-19.113-31.006-28.609-50.51-21.238l-22.112 8.356a1.518 1.518 0 1 0 1.076 2.838l22.112-8.356c17.077-6.454 36.661 1.132 45.361 17.017.117.342.144.399.18.475.293.617 1.354 2.771 3.36 6.807 2.278 4.585 4.66 9.16 7.139 13.74l-52.058 27.481a1.516 1.516 0 1 0 1.42 2.682l52.09-27.498a492.103 492.103 0 0 0 8.934 15.558 5589.26 5589.26 0 0 0 2.956 4.933c8.43 15.94 3.831 36.201-11.022 46.7l-19.609 13.86a1.518 1.518 0 0 0 1.754 2.477l19.61-13.86c15.867-11.215 20.94-32.662 12.428-49.681l-.016-.032"/>
        <path fill="#756B5E" d="M349.049 943.173l.809-1.284.069.043.063.05-.941 1.191zm59.938 102.53s-2.512-1.243-3.403-1.635l9.675-21.503c8.521-19.084.301-41.949-18.42-51.13l-47.118-29.646c-16.443-12.965-40.803-10.613-54.46 5.257l-55.217 64.166a1.516 1.516 0 0 0 .164 2.139 1.522 1.522 0 0 0 2.143-.162l55.223-64.167c12.596-14.636 35.12-16.812 50.284-4.854l.382.29 47.23 29.661c17.302 8.439 24.96 29.58 17.092 47.199l-9.6 21.5a640.881 640.881 0 0 1-3-1.335 1.733 1.733 0 0 0-.345-.217c-12.843-6.214-28.38-1.05-34.815 11.623l-16.349 32.203a1.52 1.52 0 0 0 2.71 1.372l16.35-32.203c5.47-10.778 18.414-15.412 29.506-10.834.022.019.042.03.229.146.074.04.176.09.34.165.66.308 2.42 1.093 5.53 2.466a516.78 516.78 0 0 0 5.077 2.224c.193.081.255.107.356.135a.668.668 0 0 0 .127.03c10.728 5.148 16.188 17.91 12.241 29.28l-11.787 33.957a1.52 1.52 0 0 0 2.87.994l11.787-33.199c4.655-13.41-1.608-28.612-14.802-33.921zM934.665 250.702l.014.013c.018.017.034.035.053.051.1.094.203.17.308.23.594.577 1.502 1.464 2.748 2.688l-15.915 16.178c-14.678 14.922-15.091 39.475-.925 54.873l.101.11-16.836 14.573c-14.545 12.59-17.8 34.295-8.306 50.582.062.123.103.202.138.268-.063-.067-.012.015.13.222.03.047.066.098.116.17l.1.147a38.971 38.971 0 0 0 2.27 3.29l.005.005c.016.022.03.044.047.065l.005.005.473.685c.91 1.316 1.661 2.406 2.264 3.282.04.116.096.233.168.35 11.023 17.864 34.548 24.383 52.942 14.545l128.112-68.524a1.515 1.515 0 0 0 .622-2.053 1.52 1.52 0 0 0-2.056-.621L953.13 410.359c-16.002 8.56-36.271 3.682-47.07-10.744l-.003-.002c-.093-.262-.1-.27-.116-.281-.436-.665-1.743-2.57-4.25-6.198a3576.851 3576.851 0 0 0-2.768-4.007c-9.24-15.132-6.339-35.628 7.28-47.416l16.81-14.55.893 1.143c12.885 16.487 37.19 20.103 54.332 8.08l69.659-48.86a1.516 1.516 0 0 0 .37-2.112 1.52 1.52 0 0 0-2.116-.37l-69.66 48.859c-15.817 11.094-38.301 7.75-50.19-7.464l-1.877-2.402-.029-.03c-.008-.01-.013-.02-.02-.03-.014-.016-.03-.027-.045-.042l-1.145-1.252c-13.072-14.207-12.69-36.923.856-50.693l15.911-16.174c1.036 1.02 1.818 1.794 2.367 2.338.06.094.134.186.22.275l.04.04h-.002l.055.052c9.913 10.152 26.358 10.756 36.905 1.294l26.73-23.982c.623-.56.675-1.519.115-2.142a1.52 1.52 0 0 0-2.145-.115l-26.73 23.981c-9.039 8.11-23.013 7.863-31.86-.33-.001-.003-.004-.004-.006-.007-.018-.028-.026-.037-.033-.047a6.135 6.135 0 0 0-.33-.354 632.498 632.498 0 0 0-4.274-4.229l-.004-.004a13.99 13.99 0 0 0-4.752-4.63c-.05-.046-.05-.046-.24-.182l-.019-.011-.004-.005c-8.49-8.628-9.015-22.695-1.006-31.924l23.573-27.165c.549-.633.48-1.591-.154-2.14a1.52 1.52 0 0 0-2.142.153l-23.573 27.165c-9.309 10.728-8.416 27.198 1.982 36.857"/>
        <path fill="#756B5E" d="M796.69 374.667l.911.754c.695.579 1.501 1.261 2.41 2.043a322.755 322.755 0 0 1 8.626 7.696c8.927 8.245 17.853 17.293 26.181 26.86 8.47 9.73 15.843 19.464 21.801 29.046 8.194 14.756 18.798 37.91 23.399 51.273a1.518 1.518 0 0 0 2.872-.986c-4.662-13.543-15.338-36.855-23.652-51.823-6.089-9.796-13.558-19.655-22.127-29.5-8.406-9.658-17.41-18.783-26.411-27.097a328.618 328.618 0 0 0-8.707-7.77 218.245 218.245 0 0 0-3.094-2.608c-14.535-13.278-17.462-36.674-6.664-52.639l115.54-170.836a1.515 1.515 0 0 0-.407-2.107 1.52 1.52 0 0 0-2.11.408l-115.54 170.837c-11.654 17.23-8.505 42.324 6.973 56.449M1109.514 402.441l-174.684 67.13a1.516 1.516 0 0 0-.869 1.962 1.52 1.52 0 0 0 1.964.869l174.684-67.13a1.517 1.517 0 1 0-1.095-2.83M291.985 1053.652a1.52 1.52 0 0 0 2.113-.39l36.076-52.717c.475-.69.3-1.635-.39-2.11a1.521 1.521 0 0 0-2.113.388l-36.076 52.719a1.516 1.516 0 0 0 .39 2.11M471.382 802.702a1.52 1.52 0 0 0-2.096.468L402.45 908.606c-.45.707-.24 1.644.468 2.093a1.52 1.52 0 0 0 2.097-.468l66.835-105.436c.45-.707.24-1.644-.468-2.093"/>
        <g fill="#FAFAF5">
            <path d="M540.356 573.546c7.242 0 9.95 9.585 9.95 9.585s3.633 11.196 11.042 11.196c5.546 0 6.78-4.572 7.053-6.581l.021-.274c.015-.183.033-.364.05-.546.002-.036.004-.07.008-.11.253-2.653-1.949-3.486-1.949-3.486v-.001c-2.17-.737-4.085-2.094-5.736-4.018-4.604-5.359-2.15-12.315 3.24-17.092-2.517-2.908-5.798-6.266-8.666-7.792-6.305-3.358-11.327 1.882-11.708 2.294-.026.034-.05.07-.077.105-.43.592-.852 1.19-1.263 1.796l-.05.072a70.56 70.56 0 0 0-1.275 1.948c-.022.036-.045.071-.067.109-.356.575-.715 1.149-1.055 1.735l-.214.364a70.375 70.375 0 0 0-2.131 3.957l-.185.372a68.019 68.019 0 0 0-1.846 4.08l-.16.396c-.23.559-.453 1.12-.662 1.687-.057.153-.116.303-.172.455a71.858 71.858 0 0 0-.741 2.107c-.03.088-.058.18-.087.27-.06.185-.117.373-.176.558 1.541-1.7 3.767-3.186 6.856-3.186"/>
            <path d="M633.733 552.083c1.548-.868 3.745-.677 5.512.639 1.766 1.317 2.57 3.36 2.168 5.083-1.547.87-3.745.677-5.512-.639-1.766-1.315-2.57-3.36-2.168-5.083m-78.203-.667c3.813 1.247 8.13 4.844 11.21 7.788a22.188 22.188 0 0 1 6.312-2.53c-1.702-3.512-3.98-9.091-3.478-12.999 1.018-7.926 9.739-8.535 9.739-8.535s-8.004 1.713-7.488 9.103c.25 3.584 3.33 8.834 5.341 11.918 4.967-.07 9.284 1.913 11.236 5.674.196.378.36.767.5 1.164h.004s.616 1.32 1.667 1.7c2.6.83 5.393 1.812 8.307 2.976a106.263 106.263 0 0 1 12.1 5.721c.65.36 1.285-.496.748-1.008-19.425-18.554-5.71-25.798-5.71-25.798-7.02 10.107 4.711 17.407 18.18 24.944 11.867 6.64 20.271 13.833 29.46 8.99 4.582-2.412 1.383-7.783-.682-10.756-1.554-2.237-2.609-3.607-3.992-6.555-.687-1.465-.918-3.113-.572-4.692.484-2.21-.282-4.812-1.96-7.449-1.25-1.96-3.65-4.03-5.438-5.417a15.02 15.02 0 0 1-3.04-3.14c-6.388-8.949-22.955-12.695-22.955-12.695v-.003A69.966 69.966 0 0 0 599.142 528c-11.1 0-21.59 2.599-30.894 7.21-.001 0-.003 0-.003.002a69.519 69.519 0 0 0-13.81 9.033l-.533.447a51.43 51.43 0 0 0-2.977 2.705l-.023.023a69.23 69.23 0 0 0-1.646 1.637l-.023.024a70.419 70.419 0 0 0-3.092 3.403l-.121.143c-.091.108-.179.22-.27.33 1.975-1.676 5.144-3.06 9.78-1.541M568.468 604.699a71.544 71.544 0 0 1-.321-4.567 13.339 13.339 0 0 1-5.222 1.066c-13.773 0-14.119-13.61-18.973-21.125-5.076-7.86-12.144.666-12.849 5.248-.033.22-.066.392-.097.525-.078.467-.16.932-.23 1.403-.03.195-.054.392-.083.589-.085.565-.151 1.133-.217 1.702-.023.196-.046.392-.067.588-.08.748-.152 1.499-.209 2.252-.005.08-.008.16-.015.238a71.841 71.841 0 0 0-.114 2.054 68.707 68.707 0 0 0-.065 2.63c0 .085-.005.168-.005.252v.086l-.001.09c0 .294.008.586.011.878.004.277.004.554.011.83.01.42.028.839.044 1.256.007.169.011.34.02.508 1.111 22.96 13.189 43.035 31.096 55.089-5.751-5.673-9.192-12.864-9.192-20.69 0-9.732 5.318-18.821 13.789-24.96a6.535 6.535 0 0 0 2.689-5.942"/>
            <path d="M621.875 649.617c-3.176 1.313-7.787 2.796-13.033 3.158-.765.053-1.558.083-2.373.083-8.774 0-20.195-3.422-28.988-18.012l-1.15-1.903c-1.328 1.993-2.073 4.225-2.073 6.644 0 9.897 11.857 18.874 26.093 18.874 3.72 0 8.118-.432 11.312-1.419-3.273 2.04-9.852 3.957-15.563 3.957-16.332 0-29.987-10.838-29.987-23.694 0-4.32 1.491-8.8 4.091-12.548a5.889 5.889 0 0 0 .77-5.12c-7.51 4.355-12.099 10.997-12.099 18.95 0 12.248 10.9 22.722 26.322 26.999.873.186 1.752.354 2.638.509 11.143 1.862 21.032-.12 27.732-6.52 2.875-2.745 4.962-6.118 6.308-9.958"/>
            <path d="M653.198 552.436c7.26 10.273 11.53 22.841 11.53 36.416a62.89 62.89 0 0 1-31.57 54.649c-.045.04-.087.08-.132.122.002-.16-.008-.297.102-.94.475-2.78 1.517-5.447 3.12-7.761 5.327-7.694 8.872-19.446-.203-34.613-5.008-8.367-15.478-20.167-36.926-28.86a119.505 119.505 0 0 0-9.53-3.393l-.13-.04c-.759-.234-1.497-.454-2.213-.66-.035-.011-.07-.02-.106-.032-.722-.206-1.42-.401-2.093-.582l-.06-.016c-.325-.087-.642-.17-.955-.252l-.046-.012a123.445 123.445 0 0 0-3.687-.894l-.692-.153-.029-.006a81.226 81.226 0 0 0-.802-.17c-.173-.038-.342-.072-.504-.105l-.126-.027a45.685 45.685 0 0 0-.537-.107l-.105-.02c-.138-.028-.27-.053-.396-.077l-.13-.025-.422-.079-.086.3-.03.105-.066.228-.037.13c-.02.074-.04.148-.062.223a9.569 9.569 0 0 1-.044.16l-.063.228-.046.168-.067.252-.048.173-.073.278-.046.174-.087.336-.057.221-.102.4-.05.201c-.027.107-.054.213-.08.323-.02.076-.038.153-.057.23l-.075.31c-.02.087-.043.174-.063.262-.025.1-.048.202-.072.305l-.066.276-.074.32-.065.283c-.026.114-.052.23-.08.346l-.06.275-.09.404c-.026.123-.052.244-.08.368l-.11.514-.06.289-.082.394-.068.333c-.025.121-.05.242-.074.366l-.07.353-.073.377a206.532 206.532 0 0 0-.142.747c-.023.12-.046.24-.068.363l-.074.407c-.022.12-.045.24-.065.364-.028.153-.055.31-.082.465a99.165 99.165 0 0 0-.186 1.09c-.019.118-.04.24-.058.358l-.074.465-.06.385c-.023.15-.048.3-.07.452l-.061.406-.065.445-.06.418c-.02.153-.041.307-.063.46-.02.137-.037.274-.056.412-.022.16-.042.324-.064.488l-.052.406-.067.544-.044.358a115.394 115.394 0 0 0-.4 3.942l-.007.104c-.035.405-.066.815-.096 1.228-.001.011-.001.024-.003.035-.028.403-.056.812-.08 1.226l-.004.058c-.025.41-.047.825-.067 1.245l-.001.016c-.105 2.178-.15 4.479-.108 6.863.05 2.943.237 6.014.605 9.15l.09.761c.513 4.039 1.336 8.17 2.577 12.262.907 2.773 2.368 6.652 3.752 9.485a54.471 54.471 0 0 0 1.988 3.646c6.586 11.006 15.364 16.573 26.116 16.573.741 0 1.489-.027 2.248-.079 6.457-.45 11.842-2.738 14.43-4.031 3.517-17.614-5.972-42.66-25.746-63.543a116.427 116.427 0 0 0-8.654-8.257c6.582 4.976 9.902 7.671 13.723 11.707 27.01 28.523 35.48 64.56 18.924 80.49-2.454 2.361-5.321 4.143-8.51 5.382 4.2-1.206 7.928-3.259 11.006-6.22a24.838 24.838 0 0 0 2.685-3.05C652.352 652.18 670 627.216 670 598.091c0-17.445-6.332-33.397-16.802-45.656"/>
        </g>
    </g>
</svg>
