<svg xmlns="http://www.w3.org/2000/svg" width="424" height="636" viewBox="0 0 424 636"><defs><linearGradient id="a" x1="50%" x2="50%" y1="0%" y2="100%"><stop offset="0%" stop-color="#FAFAF5"/><stop offset="100%" stop-color="#FFF"/></linearGradient><linearGradient id="b" x1="50%" x2="50%" y1="0%" y2="100%"><stop offset="0%" stop-color="#FAFAF5"/><stop offset="100%" stop-color="#CDC9BA"/></linearGradient><linearGradient id="c" x1="50%" x2="50%" y1="0%" y2="100%"><stop offset="0%" stop-color="#FAFAF5"/><stop offset="100%" stop-color="#E9E8DD"/></linearGradient></defs><g fill="none" fill-rule="evenodd"><path fill="url(#a)" d="M344 209.84V0h80v210.84c-.4 61.8-37.7 114.83-91 138.2V248.07c6.97-11.08 11-24.2 11-38.24z"/><path fill="url(#b)" d="M370.7 611.94h2.3V606a2 2 0 0 1 4 0v7.5a6.04 6.04 0 0 1 2 4.5 6 6 0 0 1-2.07 4.54A2 2 0 0 1 375 624c-1.14-.05-1.56 0-2 0H254c-35.08 0-51.5-15.65-58.86-29.58-10.86 3.6-22.38 5.58-31.14 5.58H77a6 6 0 0 1-6-6 6.05 6.05 0 0 1 6-6.04l2.3-.02a42.46 42.46 0 0 0 5.7-.7V579a2 2 0 0 1 4 0v7.27a46.1 46.1 0 0 0 8-3.2V576a2 2 0 0 1 4 0v4.8a54.56 54.56 0 0 0 4-2.77V570a2 2 0 0 1 4 0v4.7c3.4-3.13 6.58-6.7 9.46-10.7H37a5.98 5.98 0 0 1-4.05-1.57A2 2 0 0 1 29 562v-24a2 2 0 0 1 4 0v15.48a6.1 6.1 0 0 1 4-1.62V542a2 2 0 0 1 4 0v9.77l2.47-.06a72.3 72.3 0 0 0 1.53-.14V545a2 2 0 0 1 4 0v6c1.35-.22 2.68-.48 4-.78V535a2 2 0 0 1 4 0v14.2a71.5 71.5 0 0 0 12-4.68V538a2 2 0 0 1 4 0v4.37a72.03 72.03 0 0 0 4-2.5V524a2 2 0 0 1 4 0v13c17.03-13.17 28-33.8 28-57V96 0h80v94c0 30.93 25.07 56 56 56s56-25.07 56-56V0h80v95c-.3 41.15-18.87 77.95-48 102.7V480c0 23.64 11.4 44.63 29 57.76V528a2 2 0 0 1 4 0v12.53a71.98 71.98 0 0 0 4 2.4V524a2 2 0 0 1 4 0v21a71.47 71.47 0 0 0 18 5.83V538a2 2 0 0 1 4 0v13.44c.84.1 1.68.2 2.53.27l1.47.05V544a2 2 0 0 1 4 0v7.84c4.32.1 7 2.85 7 6.16 0 3.3-2.7 6-6 6h-83c3.45 8.96 7.86 17.32 13 24.47V572a2 2 0 0 1 4 0v21.6c3.13 3.7 6.47 6.97 10 9.67V597a2 2 0 0 1 4 0v9.05a44.1 44.1 0 0 0 4 2.22V592a2 2 0 0 1 4 0v17.95c1.32.47 2.65.87 4 1.18V604a2 2 0 0 1 4 0v7.8c.57.06 1.13.1 1.7.14z"/><path fill="#756B5E" d="M333 197.7v26.6c-16.3 6.88-34.2 10.7-53 10.7-12.72 0-25.03-1.75-36.7-5h1.7c33.56 0 64.28-12.16 88-32.3zM195 594.45c-10.8 3.57-22.27 5.54-31 5.54h-7.5s38.5-7.25 38.5-80v74.46zM118.5 564s18-33.5 18-78c0 0-3.5 57.5-35.5 78h17.5zm203.5 0s-18-33.5-18-78c0 0 3.5 57.5 35.5 78H322z"/><g fill-rule="nonzero"><path fill="#CDCABA" d="M420 551v11a2 2 0 0 0 4 0v-11a2 2 0 0 0-4 0zm-8-12v23a2 2 0 0 0 4 0v-23a2 2 0 0 0-4 0zM21 551v11a2 2 0 1 0 4 0v-11a2 2 0 1 0-4 0zm44 36v11a2 2 0 1 0 4 0v-11a2 2 0 1 0-4 0zm-26 4v7a2 2 0 1 0 4 0v-7a2 2 0 1 0-4 0zm18 0v7a2 2 0 1 0 4 0v-7a2 2 0 1 0-4 0zm352 24v7a2 2 0 0 0 4 0v-7a2 2 0 0 0-4 0zM0 559v3a2 2 0 1 0 4 0v-3a2 2 0 1 0-4 0zm13-12v15a2 2 0 1 0 4 0v-15a2 2 0 1 0-4 0zm374 63v12a2 2 0 0 0 4 0v-12a2 2 0 0 0-4 0zm8-10v22a2 2 0 0 0 4 0v-22a2 2 0 0 0-4 0z"/><path fill="#FAFAF5" d="M87 542v24a2 2 0 1 0 4 0v-24a2 2 0 1 0-4 0zm61 28v34a2 2 0 0 0 4 0v-34a2 2 0 0 0-4 0zm55 14v34a2 2 0 0 0 4 0v-34a2 2 0 0 0-4 0zM95 550v16a2 2 0 1 0 4 0v-16a2 2 0 1 0-4 0zm305 9v16a2 2 0 0 0 4 0v-16a2 2 0 0 0-4 0zm-33-6v16a2 2 0 0 0 4 0v-16a2 2 0 0 0-4 0zm8 7v16a2 2 0 0 0 4 0v-16a2 2 0 0 0-4 0zm-16-4v16a2 2 0 0 0 4 0v-16a2 2 0 0 0-4 0zm-8-7v16a2 2 0 0 0 4 0v-16a2 2 0 0 0-4 0zm-12 4v14a2 2 0 0 0 4 0v-14a2 2 0 0 0-4 0zm45-9v22a2 2 0 0 0 4 0v-22a2 2 0 0 0-4 0zm-246 43v16a2 2 0 0 0 4 0v-16a2 2 0 0 0-4 0zm73 13v16a2 2 0 0 0 4 0v-16a2 2 0 0 0-4 0zm14-3v26a2 2 0 0 0 4 0v-26a2 2 0 0 0-4 0zm-116-4v16a2 2 0 0 0 4 0v-16a2 2 0 0 0-4 0zm154 19v16a2 2 0 0 0 4 0v-16a2 2 0 0 0-4 0zm-146-17v16a2 2 0 0 0 4 0v-16a2 2 0 0 0-4 0zm166 6v24a2 2 0 0 0 4 0v-24a2 2 0 0 0-4 0zm-8 13v16a2 2 0 0 0 4 0v-16a2 2 0 0 0-4 0zm-174-19v16a2 2 0 0 0 4 0v-16a2 2 0 0 0-4 0zm154 19v16a2 2 0 0 0 4 0v-16a2 2 0 0 0-4 0zm50 4v16a2 2 0 0 0 4 0v-16a2 2 0 0 0-4 0zM93 591v16a2 2 0 1 0 4 0v-16a2 2 0 1 0-4 0zm154 19v16a2 2 0 0 0 4 0v-16a2 2 0 0 0-4 0zm50 0v16a2 2 0 0 0 4 0v-16a2 2 0 0 0-4 0zM79 595v16a2 2 0 1 0 4 0v-16a2 2 0 1 0-4 0zm154 19v16a2 2 0 0 0 4 0v-16a2 2 0 0 0-4 0zm-48-27v16a2 2 0 0 0 4 0v-16a2 2 0 0 0-4 0zm140 29v16a2 2 0 0 0 4 0v-16a2 2 0 0 0-4 0zm-195-35v22a2 2 0 0 0 4 0v-22a2 2 0 0 0-4 0zm35-2v24a2 2 0 0 0 4 0v-24a2 2 0 0 0-4 0zm-96-21v16a2 2 0 1 0 4 0v-16a2 2 0 1 0-4 0zm-8-4v16a2 2 0 1 0 4 0v-16a2 2 0 1 0-4 0zm-8 3v16a2 2 0 1 0 4 0v-16a2 2 0 1 0-4 0z"/></g><path fill="url(#a)" d="M0 135V0h80v134c0 21.32 6 40 21 47v97C40.87 258 .43 201.74 0 135z"/><path fill="#756B5E" fill-rule="nonzero" d="M70 88v58c0 .55.45 1 1 1s1-.45 1-1V88c0-.55-.45-1-1-1s-1 .45-1 1zm9-28v15.94a1 1 0 0 0 2 0V60a1 1 0 0 0-2 0zm0 23.6v41.6a1 1 0 1 0 2 0V83.6a1 1 0 1 0-2 0zm0 50.4c0 23.7 7.2 41.2 21.58 47.9a1 1 0 1 0 .84-1.8C87.9 173.77 81 157 81 134a1 1 0 1 0-2 0z"/><path fill="url(#c)" d="M269 0h-64v119.78c8.12 13.62 23 22.75 40 22.75 8.78 0 17-2.43 24-6.66V0z"/><path fill="#FAFAF5" fill-rule="nonzero" d="M323 33.5V85.5a1 1 0 1 0 2 0V33.5a1 1 0 1 0-2 0zm0 66.34v19.46a1 1 0 1 0 2 0V99.84a1 1 0 1 0-2 0zM309 29v68.47a1 1 0 1 0 2 0V29a1 1 0 1 0-2 0zm7 20v73.16a1 1 0 1 0 2 0V49a1 1 0 1 0-2 0z"/><path fill="#756B5E" fill-rule="nonzero" d="M154.9 243.1c3 5.03 6.9 7.9 11.1 7.9 9.58 0 17-14.85 17-33s-7.42-33-17-33c-3.27 0-6.36 1.74-9 4.9a1 1 0 1 0 1.54 1.3c2.3-2.76 4.85-4.2 7.46-4.2 8.1 0 15 13.8 15 31s-6.9 31-15 31c-3.4 0-6.7-2.44-9.4-6.94a1 1 0 1 0-1.7 1.03zM149 218c0 5.32.64 10.46 1.85 15.08a1 1 0 1 0 1.93-.5c-1.16-4.46-1.78-9.43-1.78-14.58a1 1 0 1 0-2 0z"/><path fill="#756B5E" fill-rule="nonzero" d="M165.5 324.05a1 1 0 1 0 2 0V265a1 1 0 0 0-1-1c-1.8 0-3.6-.45-5.33-1.32C151.24 257.65 144 239.3 144 218c0-25.48 10.26-46 22.5-46 4.56 0 8.97 2.85 12.74 8.18a1 1 0 0 0 1.63-1.16c-4.1-5.8-9.08-9.02-14.37-9.02-13.72 0-24.5 21.56-24.5 48 0 21.98 7.5 41.02 18.27 46.46 1.7.86 3.45 1.36 5.23 1.5v58.1z"/><path fill="#756B5E" fill-rule="nonzero" d="M171.57 206.46c-1.62-4.05-3.9-6.46-6.57-6.46-5.22 0-9 9.45-9 21s3.78 21 9 21 9-9.45 9-21a1 1 0 1 0-2 0c0 10.54-3.38 19-7 19s-7-8.46-7-19 3.38-19 7-19c1.63 0 3.37 1.83 4.72 5.2a1 1 0 0 0 1.85-.74zM300.73 414.8c-1.36 3.37-3.1 5.2-4.72 5.2-3.62 0-7-8.46-7-19s3.38-19 7-19 7 8.46 7 19a1 1 0 1 0 2 0c0-11.55-3.78-21-9-21s-9 9.45-9 21 3.78 21 9 21c2.66 0 4.95-2.4 6.58-6.46a1 1 0 0 0-1.86-.75zM141 252.5v52.02a1 1 0 0 0 2 0V252.5a1 1 0 1 0-2 0zm9 25.34v79.68a1 1 0 0 0 2 0v-79.68a1 1 0 0 0-2 0z"/><path fill="#756B5E" fill-rule="nonzero" d="M278 317.84v79.68c0 .6 0 1.44.06 2.5a81.15 81.15 0 0 0 .4 5.37c.6 5.34 1.68 10.65 3.38 15.63 3.46 10.16 9.06 17.68 17.25 21.38a1 1 0 0 0 .8-1.8c-7.6-3.45-12.87-10.53-16.17-20.2-1.64-4.84-2.7-10.02-3.27-15.22a79.16 79.16 0 0 1-.4-5.24 48.9 48.9 0 0 1-.06-2.36v-79.74a1 1 0 0 0-2 0zm-137 1v19.46a1 1 0 1 0 2 0v-19.46a1 1 0 0 0-2 0zM169 135v19.46a1 1 0 1 0 2 0V135a1 1 0 1 0-2 0zm-28 213.84V422a1 1 0 1 0 2 0v-73.16a1 1 0 0 0-2 0zm-22-46V360a1 1 0 1 0 2 0v-57.16a1 1 0 0 0-2 0zm0-29.84v18a1 1 0 1 0 2 0v-18a1 1 0 1 0-2 0zm0-18v10a1 1 0 1 0 2 0v-10a1 1 0 1 0-2 0zm71 58v10a1 1 0 1 0 2 0v-10a1 1 0 1 0-2 0zm-71-108.1V247a1 1 0 1 0 2 0v-42.1a1 1 0 1 0-2 0zm71 58V305a1 1 0 1 0 2 0v-42.1a1 1 0 1 0-2 0zm-40-119.27v21.9a1 1 0 0 0 2 0v-21.9a1 1 0 0 0-2 0zM288 448v21.9a1 1 0 1 0 2 0V448a1 1 0 1 0-2 0zM141 44v21.9a1 1 0 1 0 2 0V44a1 1 0 1 0-2 0zm138 386.63V444a1 1 0 1 0 2 0v-13.37a1 1 0 0 0-2 0zm0 22V482a1 1 0 1 0 2 0v-29.37a1 1 0 0 0-2 0zm32-143v36.42a1 1 0 1 0 2 0v-36.42a1 1 0 0 0-2 0zM131 57v68.47a1 1 0 1 0 2 0V57a1 1 0 1 0-2 0zm157 217v68.47a1 1 0 1 0 2 0V274a1 1 0 1 0-2 0zM131 132v18.03a1 1 0 1 0 2 0V132a1 1 0 1 0-2 0z"/><path fill="#756B5E" fill-rule="nonzero" d="M288 349v18.03a1 1 0 1 0 2 0V349a1 1 0 1 0-2 0zm23 4v8.06a1 1 0 0 0 2 0V353a1 1 0 1 0-2 0zm0-58v8.06a1 1 0 0 0 2 0V295a1 1 0 1 0-2 0zm-23-44v17.06a1 1 0 0 0 2 0V251a1 1 0 1 0-2 0zm15 89a1 1 0 1 0-2 0v30a1 1 0 0 0 .4.8l.4.34c.33.3.7.65 1.1 1.07 1.2 1.23 2.37 2.72 3.48 4.5 2.25 3.6 3.9 7.92 4.63 12.95.8 5.23 1.02 18.75.83 37.92-.08 7.33-.2 15.15-.4 23.13a2424.78 2424.78 0 0 1-.42 17.04c-.02.88.42 1.34.97 1.36a1 1 0 0 0 1.03-.97 1157.42 1157.42 0 0 0 .14-4.9l.3-12.48c.18-8 .3-15.82.4-23.15.18-19.3-.05-32.86-.85-38.25-.8-5.3-2.53-9.87-4.93-13.72-1.18-1.9-2.45-3.5-3.72-4.8a19.63 19.63 0 0 0-1.35-1.3V340zM131 166v94.05a1 1 0 1 0 2 0V166a1 1 0 1 0-2 0zm19-90v60.52a1 1 0 0 0 2 0V76a1 1 0 1 0-2 0zm-9 21.67V177a1 1 0 1 0 2 0V97.68a1 1 0 1 0-2 0zm43.08 158.02c1.4-1.78 2.8-4.1 4.08-6.98 3.66-8.18 5.84-19.43 5.84-34.22h-2c0 14.52-2.13 25.5-5.66 33.4-1.23 2.74-2.53 4.9-3.83 6.55a15.28 15.28 0 0 1-1.2 1.4 5.63 5.63 0 0 1-.42.36l-.38.3V280h2v-22.54c.4-.4.95-.97 1.58-1.77z"/><path fill="#00835D" d="M198.7 451.57a1 1 0 0 1-.9-1.42c.92-2.02-.23-4.54-2.58-5.62s-5.02-.3-5.95 1.7a1 1 0 1 1-1.8-.83c1.38-3.02 5.23-4.23 8.58-2.7 3.36 1.55 4.95 5.26 3.56 8.3a1 1 0 0 1-.9.57"/><path fill="#00CC92" d="M190.86 490.27a1 1 0 0 1-.2-1.98c3.6-.76 5.84-2.27 6.7-4.5 1.9-4.94-3.22-12.05-3.27-12.13a1 1 0 0 1 1.6-1.18c.24.32 5.82 8.05 3.53 14-1.12 2.92-3.87 4.85-8.17 5.75a1.03 1.03 0 0 1-.2.02"/><path fill="#FFF" d="M208.87 478.6c-1.46 0-3-.5-4.55-1.45-1.76-1.1-3.5-3.1-5.17-6a1 1 0 1 1 1.73-1c1.5 2.6 3 4.38 4.5 5.3 1.68 1.04 3.26 1.38 4.68 1 2.25-.63 3.47-2.9 3.48-2.93.24-.46.8-.67 1.28-.46 3.83 1.63 8.4 1.34 10.85-.7 1.6-1.32 2.18-3.3 1.65-5.68-.35-1.58-2.7-4.64-14.64-7.44-7.02-1.65-13.94-2.37-14-2.37a1 1 0 0 1-.9-.88c-.28-2.34-1.97-4.6-4.2-5.63-2.24-1.02-5.05-.84-7 .47a1 1 0 0 1-1.25-.1c-.05-.05-5.1-4.84-10.92-9.1-9.87-7.25-13.73-7.06-15.15-6.3-2.16 1.16-3.28 2.88-3.25 4.98.05 3.2 2.8 6.84 6.54 8.7a1 1 0 0 1 .48 1.26c0 .02-.95 2.43.05 4.55.63 1.33 1.9 2.3 3.8 2.9 1.67.54 4 .53 6.94-.02a1 1 0 1 1 .38 1.98c-3.27.6-5.93.6-7.9-.03-2.47-.8-4.16-2.13-5.02-3.98-.95-2.02-.65-4.12-.36-5.27-4.04-2.3-6.84-6.32-6.9-10.05-.05-2.85 1.48-5.26 4.3-6.77 6.96-3.73 24.07 11.65 27.85 15.18 2.48-1.32 5.63-1.42 8.26-.2 2.65 1.2 4.63 3.66 5.23 6.4 5.14.58 27.94 3.57 29.64 11.28.7 3.13-.13 5.85-2.32 7.67-2.87 2.4-7.75 2.9-12.12 1.3-.68.98-2.08 2.56-4.22 3.16a6.46 6.46 0 0 1-1.73.24"/><path fill="#00CC92" d="M195.85 474.72c-3.8 8.28-14.76 15.5-18.4 13.83-3.65-1.68-5.3-14.7-1.5-22.97 3.8-8.28 9.78-9.52 15.27-7 5.5 2.53 8.43 7.87 4.63 16.14"/><path fill="#00835D" d="M185.27 457.42c-1.03 0-2.02.18-2.95.54-2.6 1-4.77 3.38-6.45 7.04-1.65 3.58-2.4 8.6-1.97 13.45.43 4.9 1.84 7.67 2.96 8.2 1.13.5 4.16-.24 8.15-3.1 3.95-2.83 7.3-6.66 8.94-10.25 1.68-3.65 2.06-6.84 1.14-9.47-.8-2.27-2.63-4.12-5.28-5.34-1.55-.72-3.08-1.08-4.53-1.08m-7.55 31.37c-.64 0-1.2-.12-1.7-.34-2.12-.98-3.66-4.66-4.1-9.84-.46-5.16.34-10.57 2.13-14.46 1.9-4.15 4.44-6.86 7.54-8.06 2.75-1.07 5.88-.87 9.04.58 3.15 1.45 5.34 3.7 6.32 6.48 1.1 3.14.7 6.83-1.2 10.98-1.8 3.9-5.37 8.02-9.6 11.04-3.25 2.34-6.26 3.6-8.44 3.6m14.33-45.02a1 1 0 0 1-.96-.73l-2.07-7.22a1 1 0 1 1 1.92-.54l2.06 7.22a1 1 0 0 1-.95 1.28m5.92 2.72a1 1 0 0 1-.42-1.9l6.82-3.15a1 1 0 0 1 .84 1.82l-6.8 3.13a1 1 0 0 1-.43.1"/><path fill="#00835D" d="M164.13 477.98a1 1 0 0 1-.88-.52c-2.12-3.84-2.45-7.18-.96-9.93 3.02-5.62 12.52-6.42 12.92-6.45.57-.03 1.03.37 1.08.92a1 1 0 0 1-.92 1.08c-.1 0-8.82.74-11.33 5.4-1.14 2.1-.82 4.8.95 8.02a1 1 0 0 1-.87 1.48"/></g></svg>