<svg xmlns="http://www.w3.org/2000/svg" width="428" height="762" viewBox="0 0 428 762">
    <defs>
        <linearGradient id="a" x1="50%" x2="50%" y1="0%" y2="100%">
            <stop offset="0%" stop-color="#FFF"/>
            <stop offset="100%" stop-color="#E9E8DD"/>
        </linearGradient>
        <linearGradient id="b" x1="50%" x2="50%" y1="0%" y2="100%">
            <stop offset="0%" stop-color="#FFF"/>
            <stop offset="100%" stop-color="#FAFAF5"/>
        </linearGradient>
        <linearGradient id="c" x1="50%" x2="50%" y1="0%" y2="100%">
            <stop offset="0%" stop-color="#FAFAF5"/>
            <stop offset="100%" stop-color="#E9E8DD"/>
        </linearGradient>
    </defs>
    <g fill="none" fill-rule="evenodd">
        <path fill="#E9E8DE" d="M113 222l192 100v284c0 37.584 28.798 68.443 65.531 71.713l6.48.15c3.307.075 5.989 2.83 5.989 6.137 0 3.314-2.688 6-6.004 6h-83.01c10.026 25.923 27.914 46.814 48.718 47.938l2.3.017A6.047 6.047 0 0 1 351 744c0 3.307-2.685 6-5.996 6H258c-35.081 0-51.513-15.648-58.863-29.582C188.282 724.013 176.763 726 168 726H80.996A6.002 6.002 0 0 1 75 720a6.047 6.047 0 0 1 5.996-6.045l2.3-.017c15.323-.828 29.024-9.905 39.169-23.938H41.004A6.006 6.006 0 0 1 35 684c0-3.314 2.68-6.062 5.99-6.138l6.479-.149C84.202 674.443 113 643.584 113 606V222z"/>
        <path fill="#CDCABA" d="M199 720.463C188.186 724.03 176.727 726 168 726h-7.5s38.5-7.251 38.5-80v74.463zM122.5 690s18-33.5 18-78c0 0-3.5 57.5-35.5 78h17.5zM294 690s-18-33.5-18-78c0 0 3.5 57.5 35.5 78H294z"/>
        <g fill-rule="nonzero">
            <path fill="#E9E8DE" d="M371 670v16a2 2 0 0 0 4 0v-16a2 2 0 0 0-4 0zM363 664v24a2 2 0 0 0 4 0v-24a2 2 0 0 0-4 0zM393 677v11a2 2 0 0 0 4 0v-11a2 2 0 0 0-4 0zM409 681v7a2 2 0 0 0 4 0v-7a2 2 0 0 0-4 0zM401 685v3a2 2 0 0 0 4 0v-3a2 2 0 0 0-4 0zM385 665v23a2 2 0 0 0 4 0v-23a2 2 0 0 0-4 0zM423 677v11a2 2 0 0 0 4 0v-11a2 2 0 0 0-4 0zM333 654v16a2 2 0 0 0 4 0v-16a2 2 0 0 0-4 0zM341 650v24a2 2 0 0 0 4 0v-24a2 2 0 0 0-4 0zM88 705v16a2 2 0 1 0 4 0v-16a2 2 0 1 0-4 0zM40 668v16a2 2 0 1 0 4 0v-16a2 2 0 1 0-4 0zM328 718v21a2 2 0 0 0 4 0v-21a2 2 0 0 0-4 0zM32 664v24a2 2 0 1 0 4 0v-24a2 2 0 1 0-4 0zM320 723v24a2 2 0 0 0 4 0v-24a2 2 0 0 0-4 0zM306 698v24a2 2 0 0 0 4 0v-24a2 2 0 0 0-4 0zM24 677v11a2 2 0 1 0 4 0v-11a2 2 0 1 0-4 0zM68 713v11a2 2 0 1 0 4 0v-11a2 2 0 1 0-4 0zM42 717v7a2 2 0 1 0 4 0v-7a2 2 0 1 0-4 0zM60 717v7a2 2 0 1 0 4 0v-7a2 2 0 1 0-4 0zM8 681v7a2 2 0 1 0 4 0v-7a2 2 0 1 0-4 0zM380 741v7a2 2 0 0 0 4 0v-7a2 2 0 0 0-4 0zM0 685v3a2 2 0 1 0 4 0v-3a2 2 0 1 0-4 0zM16 673v15a2 2 0 1 0 4 0v-15a2 2 0 1 0-4 0zM108 696v16a2 2 0 0 0 4 0v-16a2 2 0 0 0-4 0zM56 661v16a2 2 0 1 0 4 0v-16a2 2 0 1 0-4 0zM344 732v16a2 2 0 0 0 4 0v-16a2 2 0 0 0-4 0zM72 664v16a2 2 0 1 0 4 0v-16a2 2 0 1 0-4 0zM80 650v16a2 2 0 1 0 4 0v-16a2 2 0 1 0-4 0zM100 702v16a2 2 0 0 0 4 0v-16a2 2 0 0 0-4 0zM358 736v12a2 2 0 0 0 4 0v-12a2 2 0 0 0-4 0zM366 726v22a2 2 0 0 0 4 0v-22a2 2 0 0 0-4 0zM48 671v16a2 2 0 1 0 4 0v-16a2 2 0 1 0-4 0zM336 730v16a2 2 0 0 0 4 0v-16a2 2 0 0 0-4 0z"/>
            <path fill="#FFF" d="M90 668v24a2 2 0 1 0 4 0v-24a2 2 0 1 0-4 0zM151 696v34a2 2 0 0 0 4 0v-34a2 2 0 0 0-4 0zM206 710v34a2 2 0 0 0 4 0v-34a2 2 0 0 0-4 0zM98 676v16a2 2 0 1 0 4 0v-16a2 2 0 0 0-4 0zM371 685v16a2 2 0 0 0 4 0v-16a2 2 0 0 0-4 0zM338 679v16a2 2 0 0 0 4 0v-16a2 2 0 0 0-4 0zM346 686v16a2 2 0 0 0 4 0v-16a2 2 0 0 0-4 0zM330 682v16a2 2 0 0 0 4 0v-16a2 2 0 0 0-4 0zM322 675v16a2 2 0 0 0 4 0v-16a2 2 0 0 0-4 0zM310 679v14a2 2 0 0 0 4 0v-14a2 2 0 0 0-4 0zM355 670v22a2 2 0 0 0 4 0v-22a2 2 0 0 0-4 0zM141 713v16a2 2 0 0 0 4 0v-16a2 2 0 0 0-4 0zM214 726v16a2 2 0 0 0 4 0v-16a2 2 0 0 0-4 0zM228 723v26a2 2 0 0 0 4 0v-26a2 2 0 0 0-4 0zM112 719v16a2 2 0 0 0 4 0v-16a2 2 0 0 0-4 0zM266 738v16a2 2 0 0 0 4 0v-16a2 2 0 0 0-4 0zM120 721v16a2 2 0 0 0 4 0v-16a2 2 0 0 0-4 0zM286 727v24a2 2 0 0 0 4 0v-24a2 2 0 0 0-4 0zM278 740v16a2 2 0 0 0 4 0v-16a2 2 0 0 0-4 0zM104 721v16a2 2 0 0 0 4 0v-16a2 2 0 0 0-4 0zM258 740v16a2 2 0 0 0 4 0v-16a2 2 0 0 0-4 0zM308 744v16a2 2 0 0 0 4 0v-16a2 2 0 0 0-4 0zM96 717v16a2 2 0 1 0 4 0v-16a2 2 0 1 0-4 0zM250 736v16a2 2 0 0 0 4 0v-16a2 2 0 0 0-4 0zM300 736v16a2 2 0 0 0 4 0v-16a2 2 0 0 0-4 0zM82 721v16a2 2 0 1 0 4 0v-16a2 2 0 1 0-4 0zM236 740v16a2 2 0 0 0 4 0v-16a2 2 0 0 0-4 0zM188 713v16a2 2 0 0 0 4 0v-16a2 2 0 0 0-4 0zM328 742v16a2 2 0 0 0 4 0v-16a2 2 0 0 0-4 0zM133 707v22a2 2 0 0 0 4 0v-22a2 2 0 0 0-4 0zM168 705v24a2 2 0 0 0 4 0v-24a2 2 0 0 0-4 0zM72 684v16a2 2 0 1 0 4 0v-16a2 2 0 1 0-4 0zM64 680v16a2 2 0 1 0 4 0v-16a2 2 0 1 0-4 0zM56 683v16a2 2 0 1 0 4 0v-16a2 2 0 1 0-4 0z"/>
        </g>
        <path fill="url(#a)" d="M1.003 261L1 0h80v260c0 21.324 9.27 40.483 24 53.667v90.599C44.875 384.27 1.433 327.739 1.003 261z"/>
        <path fill="url(#b)" d="M305 485.237C374.76 471.76 427.523 410.585 428 337V0h-80v336c0 29.447-17.678 54.765-43 65.921v83.316z"/>
        <path fill="#CDCABA" d="M305 343.972v19.545A136.699 136.699 0 0 1 279 366c-20.646 0-40.217-4.6-57.745-12.832A136.59 136.59 0 0 0 249 356c19.963 0 38.922-4.301 56-12.028z"/>
        <path fill="url(#c)" d="M273 0h-64v245.784c8.116 13.62 22.993 22.745 40 22.745 8.78 0 16.993-2.432 24-6.659V0z"/>
        <path fill="#E9E8DE" fill-rule="nonzero" d="M113 220c0 75.11 60.89 136 136 136s136-60.89 136-136h-80c0 30.928-25.072 56-56 56s-56-25.072-56-56h-80z"/>
        <path fill="#E9E8DE" d="M113 0h80v220h-80zM305 0h80v220h-80z"/>
        <path fill="#CDCABA" fill-rule="nonzero" d="M158.893 369.087C161.913 374.13 165.795 377 170 377c9.577 0 17-14.845 17-33s-7.423-33-17-33c-3.269 0-6.358 1.738-9 4.913a1 1 0 1 0 1.538 1.28c2.29-2.753 4.85-4.193 7.462-4.193 8.096 0 15 13.808 15 31s-6.904 31-15 31c-3.393 0-6.699-2.443-9.391-6.94a1 1 0 1 0-1.716 1.027zM153 344c0 5.318.64 10.457 1.849 15.076a1 1 0 1 0 1.935-.506C155.618 354.118 155 349.15 155 344a1 1 0 1 0-2 0z"/>
        <path fill="#CDCABA" fill-rule="nonzero" d="M169.5 450.053a1 1 0 1 0 2 0V391a1 1 0 0 0-1-1c-1.808 0-3.591-.446-5.328-1.324C155.238 383.65 148 365.306 148 344c0-25.476 10.262-46 22.5-46 4.557 0 8.974 2.855 12.737 8.177a1 1 0 0 0 1.633-1.154c-4.106-5.808-9.08-9.023-14.37-9.023-13.72 0-24.5 21.561-24.5 48 0 21.979 7.512 41.02 18.269 46.46 1.695.858 3.447 1.364 5.231 1.501v58.092z"/>
        <path fill="#CDCABA" fill-rule="nonzero" d="M175.575 332.46c-1.625-4.049-3.912-6.46-6.575-6.46-5.221 0-9 9.448-9 21s3.779 21 9 21 9-9.448 9-21a1 1 0 1 0-2 0c0 10.539-3.384 19-7 19s-7-8.461-7-19 3.384-19 7-19c1.628 0 3.365 1.832 4.719 5.206a1 1 0 0 0 1.856-.746zM277.719 546.794C276.365 550.168 274.628 552 273 552c-3.616 0-7-8.461-7-19s3.384-19 7-19 7 8.461 7 19a1 1 0 1 0 2 0c0-11.552-3.779-21-9-21s-9 9.448-9 21 3.779 21 9 21c2.663 0 4.95-2.411 6.575-6.46a1 1 0 0 0-1.856-.746zM145 378.49v52.03a1 1 0 0 0 2 0v-52.03a1 1 0 1 0-2 0zM154 403.843v79.677a1 1 0 0 0 2 0v-79.677a1 1 0 0 0-2 0z"/>
        <path fill="#CDCABA" fill-rule="nonzero" d="M255 449.843v79.677c-.005.603.009 1.437.055 2.505a81.15 81.15 0 0 0 .417 5.369c.589 5.342 1.67 10.66 3.367 15.638 3.464 10.159 9.063 17.676 17.249 21.38a1 1 0 0 0 .824-1.823c-7.606-3.44-12.878-10.52-16.18-20.203-1.645-4.825-2.698-10.004-3.272-15.211a79.156 79.156 0 0 1-.407-5.236 48.896 48.896 0 0 1-.054-2.36l.001-79.736a1 1 0 0 0-2 0zM145 444.843v19.46a1 1 0 1 0 2 0v-19.46a1 1 0 0 0-2 0zM173 260.843v19.46a1 1 0 1 0 2 0v-19.46a1 1 0 0 0-2 0zM145 474.843v73.164a1 1 0 1 0 2 0v-73.164a1 1 0 0 0-2 0zM123 428.843v57.166a1 1 0 1 0 2 0v-57.166a1 1 0 0 0-2 0zM123 399v18.009a1 1 0 1 0 2 0V399a1 1 0 1 0-2 0zM123 381v10.009a1 1 0 1 0 2 0V381a1 1 0 1 0-2 0zM194 439v10.009a1 1 0 1 0 2 0V439a1 1 0 1 0-2 0zM123 330.893v42.116a1 1 0 1 0 2 0v-42.116a1 1 0 1 0-2 0zM194 388.893v42.116a1 1 0 1 0 2 0v-42.116a1 1 0 1 0-2 0zM154 269.631v21.889a1 1 0 0 0 2 0V269.63a1 1 0 0 0-2 0zM265 579.631v21.889a1 1 0 0 0 2 0V579.63a1 1 0 0 0-2 0zM256 562.631V576a1 1 0 1 0 2 0v-13.369a1 1 0 0 0-2 0zM256 584.631V614a1 1 0 1 0 2 0v-29.369a1 1 0 0 0-2 0zM288 441.631v36.424a1 1 0 1 0 2 0v-36.424a1 1 0 0 0-2 0zM135 183v68.469a1 1 0 1 0 2 0V183a1 1 0 1 0-2 0zM265 406v68.469a1 1 0 1 0 2 0V406a1 1 0 1 0-2 0zM135 258v18.028a1 1 0 1 0 2 0V258a1 1 0 1 0-2 0z"/>
        <path fill="#CDCABA" fill-rule="nonzero" d="M265 481v18.028a1 1 0 1 0 2 0V481a1 1 0 1 0-2 0zM288 485v8.062a1 1 0 0 0 2 0V485a1 1 0 1 0-2 0zM288 427v8.062a1 1 0 0 0 2 0V427a1 1 0 1 0-2 0zM265 383v17.062a1 1 0 0 0 2 0V383a1 1 0 1 0-2 0zM280 472a1 1 0 1 0-2 0v30.01a1 1 0 0 0 .4.8c.063.048.197.155.392.326.336.292.713.65 1.122 1.072 1.177 1.217 2.357 2.709 3.462 4.482 2.255 3.623 3.89 7.93 4.635 12.957.775 5.233 1.007 18.755.815 37.927-.074 7.329-.207 15.148-.381 23.128a2424.78 2424.78 0 0 1-.435 17.04c-.026.881.407 1.342.96 1.36a1 1 0 0 0 1.03-.97 1157.421 1157.421 0 0 0 .139-4.888c.104-3.847.208-8.058.305-12.499.175-7.986.308-15.813.382-23.15.193-19.308-.039-32.857-.837-38.242-.786-5.305-2.518-9.87-4.916-13.72-1.181-1.898-2.45-3.5-3.721-4.815a19.632 19.632 0 0 0-1.352-1.285V472zM135 292v94.048a1 1 0 1 0 2 0V292a1 1 0 1 0-2 0zM154 202v60.52a1 1 0 0 0 2 0V202a1 1 0 1 0-2 0zM145 223.665v79.341a1 1 0 1 0 2 0v-79.341a1 1 0 0 0-2 0zM188.082 381.69c1.4-1.775 2.79-4.078 4.081-6.97 3.654-8.181 5.837-19.429 5.837-34.22h-2c0 14.521-2.13 25.492-5.663 33.405-1.224 2.74-2.529 4.902-3.825 6.546a15.278 15.278 0 0 1-1.222 1.386 5.628 5.628 0 0 1-.406.375l-.384.3V406h2v-22.544c.409-.382.948-.963 1.582-1.766z"/>
    </g>
</svg>
