<svg xmlns="http://www.w3.org/2000/svg" width="425" height="762" viewBox="0 0 425 762">
    <defs>
        <linearGradient id="a" x1="50%" x2="50%" y1="0%" y2="100%">
            <stop offset="0%" stop-color="#E9E8DD"/>
            <stop offset="100%" stop-color="#CDC9BA"/>
        </linearGradient>
        <linearGradient id="b" x1="50%" x2="50%" y1="0%" y2="100%">
            <stop offset="0%" stop-color="#FAFAF5"/>
            <stop offset="100%" stop-color="#E9E8DD"/>
        </linearGradient>
    </defs>
    <g fill="none" fill-rule="evenodd">
        <path fill="#FFF" d="M333 374.084c6.97-11.08 11-24.194 11-38.248V0h80v336.836c-.4 61.794-37.71 114.833-91 138.197V374.084z"/>
        <path fill="#756B5E" fill-rule="nonzero" d="M423 336.83c-.123 19.032-3.775 37.561-10.682 54.876a1 1 0 1 0 1.858.74c7-17.544 10.699-36.32 10.824-55.604a1 1 0 0 0-2-.013zM423 152v11a1 1 0 1 0 2 0v-11a1 1 0 1 0-2 0zM423 173.5V327a1 1 0 1 0 2 0V173.5a1 1 0 1 0-2 0zM415 278.5V342a1 1 0 1 0 2 0v-63.5a1 1 0 1 0-2 0z"/>
        <path fill="#CDCABA" d="M109 222l224 100v284c0 37.584 28.798 68.443 65.531 71.713l6.48.15c3.307.075 5.989 2.83 5.989 6.137 0 3.314-2.688 6-6.004 6h-83.01c10.026 25.923 27.914 46.814 48.718 47.938l2.3.017A6.047 6.047 0 0 1 379 744c0 3.307-2.685 6-5.996 6H254c-35.081 0-51.513-15.648-58.863-29.582C184.282 724.013 172.763 726 164 726H76.996A6.002 6.002 0 0 1 71 720a6.047 6.047 0 0 1 5.996-6.045l2.3-.017c15.323-.828 29.024-9.905 39.169-23.938H37.004A6.006 6.006 0 0 1 31 684c0-3.314 2.68-6.062 5.99-6.138l6.479-.149C80.202 674.443 109 643.584 109 606V222z"/>
        <path fill="#756B5E" d="M144.603 237.894L333 322v28.286C316.712 357.185 298.802 361 280 361c-70.762 0-128.902-54.043-135.397-123.106zM195 720.463C184.186 724.03 172.727 726 164 726h-7.5s38.5-7.251 38.5-80v74.463zM118.5 690s18-33.5 18-78c0 0-3.5 57.5-35.5 78h17.5zM322 690s-18-33.5-18-78c0 0 3.5 57.5 35.5 78H322z"/>
        <g fill-rule="nonzero">
            <path fill="#CDCABA" d="M400 670v16a2 2 0 0 0 4 0v-16a2 2 0 0 0-4 0zM392 664v24a2 2 0 0 0 4 0v-24a2 2 0 0 0-4 0zM420 677v11a2 2 0 0 0 4 0v-11a2 2 0 0 0-4 0zM412 665v23a2 2 0 0 0 4 0v-23a2 2 0 0 0-4 0zM362 654v16a2 2 0 0 0 4 0v-16a2 2 0 0 0-4 0zM370 650v24a2 2 0 0 0 4 0v-24a2 2 0 0 0-4 0zM85 705v16a2 2 0 1 0 4 0v-16a2 2 0 1 0-4 0zM37 668v16a2 2 0 1 0 4 0v-16a2 2 0 1 0-4 0zM357 718v21a2 2 0 0 0 4 0v-21a2 2 0 0 0-4 0zM29 664v24a2 2 0 1 0 4 0v-24a2 2 0 1 0-4 0zM349 723v24a2 2 0 0 0 4 0v-24a2 2 0 0 0-4 0zM335 698v24a2 2 0 0 0 4 0v-24a2 2 0 0 0-4 0zM21 677v11a2 2 0 1 0 4 0v-11a2 2 0 1 0-4 0zM65 713v11a2 2 0 1 0 4 0v-11a2 2 0 1 0-4 0zM39 717v7a2 2 0 1 0 4 0v-7a2 2 0 1 0-4 0zM57 717v7a2 2 0 1 0 4 0v-7a2 2 0 1 0-4 0zM409 741v7a2 2 0 0 0 4 0v-7a2 2 0 0 0-4 0zM0 685v3a2 2 0 1 0 4 0v-3a2 2 0 1 0-4 0zM13 673v15a2 2 0 1 0 4 0v-15a2 2 0 1 0-4 0zM105 696v16a2 2 0 0 0 4 0v-16a2 2 0 0 0-4 0zM53 661v16a2 2 0 1 0 4 0v-16a2 2 0 1 0-4 0zM373 732v16a2 2 0 0 0 4 0v-16a2 2 0 0 0-4 0zM69 664v16a2 2 0 1 0 4 0v-16a2 2 0 1 0-4 0zM77 650v16a2 2 0 1 0 4 0v-16a2 2 0 1 0-4 0zM97 702v16a2 2 0 1 0 4 0v-16a2 2 0 0 0-4 0zM387 736v12a2 2 0 0 0 4 0v-12a2 2 0 0 0-4 0zM395 726v22a2 2 0 0 0 4 0v-22a2 2 0 0 0-4 0zM45 671v16a2 2 0 1 0 4 0v-16a2 2 0 1 0-4 0zM365 730v16a2 2 0 0 0 4 0v-16a2 2 0 0 0-4 0z"/>
            <path fill="#FAFAF5" d="M87 668v24a2 2 0 1 0 4 0v-24a2 2 0 1 0-4 0zM148 696v34a2 2 0 0 0 4 0v-34a2 2 0 0 0-4 0zM203 710v34a2 2 0 0 0 4 0v-34a2 2 0 0 0-4 0zM95 676v16a2 2 0 1 0 4 0v-16a2 2 0 1 0-4 0zM400 685v16a2 2 0 0 0 4 0v-16a2 2 0 0 0-4 0zM367 679v16a2 2 0 0 0 4 0v-16a2 2 0 0 0-4 0zM375 686v16a2 2 0 0 0 4 0v-16a2 2 0 0 0-4 0zM359 682v16a2 2 0 0 0 4 0v-16a2 2 0 0 0-4 0zM351 675v16a2 2 0 0 0 4 0v-16a2 2 0 0 0-4 0zM339 679v14a2 2 0 0 0 4 0v-14a2 2 0 0 0-4 0zM384 670v22a2 2 0 0 0 4 0v-22a2 2 0 0 0-4 0zM138 713v16a2 2 0 0 0 4 0v-16a2 2 0 0 0-4 0zM211 726v16a2 2 0 0 0 4 0v-16a2 2 0 0 0-4 0zM225 723v26a2 2 0 0 0 4 0v-26a2 2 0 0 0-4 0zM109 719v16a2 2 0 0 0 4 0v-16a2 2 0 0 0-4 0zM263 738v16a2 2 0 0 0 4 0v-16a2 2 0 0 0-4 0zM117 721v16a2 2 0 0 0 4 0v-16a2 2 0 0 0-4 0zM283 727v24a2 2 0 0 0 4 0v-24a2 2 0 0 0-4 0zM275 740v16a2 2 0 0 0 4 0v-16a2 2 0 0 0-4 0zM101 721v16a2 2 0 0 0 4 0v-16a2 2 0 0 0-4 0zM255 740v16a2 2 0 0 0 4 0v-16a2 2 0 0 0-4 0zM305 744v16a2 2 0 0 0 4 0v-16a2 2 0 0 0-4 0zM93 717v16a2 2 0 1 0 4 0v-16a2 2 0 1 0-4 0zM247 736v16a2 2 0 0 0 4 0v-16a2 2 0 0 0-4 0zM297 736v16a2 2 0 0 0 4 0v-16a2 2 0 0 0-4 0zM79 721v16a2 2 0 1 0 4 0v-16a2 2 0 1 0-4 0zM233 740v16a2 2 0 0 0 4 0v-16a2 2 0 0 0-4 0zM185 713v16a2 2 0 0 0 4 0v-16a2 2 0 0 0-4 0zM325 742v16a2 2 0 0 0 4 0v-16a2 2 0 0 0-4 0zM130 707v22a2 2 0 0 0 4 0v-22a2 2 0 0 0-4 0zM165 705v24a2 2 0 0 0 4 0v-24a2 2 0 0 0-4 0zM69 684v16a2 2 0 1 0 4 0v-16a2 2 0 1 0-4 0zM61 680v16a2 2 0 1 0 4 0v-16a2 2 0 1 0-4 0zM53 683v16a2 2 0 1 0 4 0v-16a2 2 0 1 0-4 0z"/>
        </g>
        <path fill="url(#a)" d="M.003 261L0 0h80v260c0 21.324 6 40 21 47v97C40.875 384.005.433 327.74.003 261z"/>
        <path fill="#FAFAF5" fill-rule="nonzero" d="M70 214.014v57.972c0 .56.448 1.014 1 1.014s1-.454 1-1.014v-57.972c0-.56-.448-1.014-1-1.014s-1 .454-1 1.014zM70 187.107v18.009a1 1 0 1 0 2 0v-18.009a1 1 0 0 0-2 0zM70 169.107v10.009a1 1 0 1 0 2 0v-10.009a1 1 0 0 0-2 0zM70 119v42.116a1 1 0 1 0 2 0V119a1 1 0 1 0-2 0zM48.184 214.027C48.79 220.463 50.705 225 53.5 225c3.344 0 5.5-6.707 5.5-15s-2.156-15-5.5-15c-1.345 0-2.45 1.023-3.32 2.76a1 1 0 1 0 1.788.896C52.535 197.524 53.1 197 53.5 197c1.626 0 3.5 5.829 3.5 13s-1.874 13-3.5 13c-1.23 0-2.817-3.755-3.324-9.16a1 1 0 1 0-1.992.187z"/>
        <path fill="#FAFAF5" fill-rule="nonzero" d="M48.131 206.59A43.691 43.691 0 0 0 48 210a1 1 0 1 0 2 0c0-1.108.042-2.198.125-3.254a1 1 0 0 0-1.994-.157zM54 150v21.888a1 1 0 1 0 2 0V150a1 1 0 1 0-2 0zM48 228v21.888a1 1 0 1 0 2 0V228a1 1 0 1 0-2 0zM48 139v13.369a1 1 0 0 0 2 0V139a1 1 0 1 0-2 0zM48 161v29.369a1 1 0 0 0 2 0V161a1 1 0 1 0-2 0z"/>
        <path fill="#756B5E" fill-rule="nonzero" d="M79 186v15.943a1 1 0 1 0 2 0V186a1 1 0 1 0-2 0zM79 209.61v41.583a1 1 0 1 0 2 0V209.61a1 1 0 1 0-2 0zM79 260c0 23.711 7.186 41.19 21.577 47.906a1 1 0 1 0 .846-1.812C87.89 299.779 81 283.018 81 260a1 1 0 1 0-2 0z"/>
        <path fill="url(#b)" d="M269 0h-64v245.784c8.116 13.62 22.993 22.745 40 22.745 8.78 0 16.993-2.432 24-6.659V0z"/>
        <path fill="#756B5E" fill-rule="nonzero" d="M204 16v221.784a1 1 0 1 0 2 0V16a1 1 0 1 0-2 0z"/>
        <path fill="#CDCABA" fill-rule="nonzero" d="M109 220c0 75.11 60.89 136 136 136s136-60.89 136-136h-80c0 30.928-25.072 56-56 56s-56-25.072-56-56h-80z"/>
        <path fill="#CDCABA" d="M109 0h80v220h-80zM301 0h80v220h-80z"/>
        <path fill="#FAFAF5" fill-rule="nonzero" d="M319 39.49v52.03a1 1 0 1 0 2 0V39.49a1 1 0 1 0-2 0zM319 105.843v19.46a1 1 0 1 0 2 0v-19.46a1 1 0 0 0-2 0zM319 135.843v73.164a1 1 0 1 0 2 0v-73.164a1 1 0 0 0-2 0zM309 84v68.469a1 1 0 1 0 2 0V84a1 1 0 1 0-2 0zM309 159v18.028a1 1 0 1 0 2 0V159a1 1 0 1 0-2 0zM314 25v19.46a1 1 0 1 0 2 0V25a1 1 0 1 0-2 0zM314 55v73.164a1 1 0 1 0 2 0V55a1 1 0 1 0-2 0z"/>
        <path fill="#756B5E" fill-rule="nonzero" d="M154.893 369.087C157.913 374.13 161.795 377 166 377c9.577 0 17-14.845 17-33s-7.423-33-17-33c-3.269 0-6.358 1.738-9 4.913a1 1 0 1 0 1.538 1.28c2.29-2.753 4.85-4.193 7.462-4.193 8.096 0 15 13.808 15 31s-6.904 31-15 31c-3.393 0-6.699-2.443-9.391-6.94a1 1 0 1 0-1.716 1.027zM149 344c0 5.318.64 10.457 1.849 15.076a1 1 0 1 0 1.935-.506C151.618 354.118 151 349.15 151 344a1 1 0 1 0-2 0z"/>
        <path fill="#756B5E" fill-rule="nonzero" d="M165.5 450.053a1 1 0 1 0 2 0V391a1 1 0 0 0-1-1c-1.808 0-3.591-.446-5.328-1.324C151.238 383.65 144 365.306 144 344c0-25.476 10.262-46 22.5-46 4.557 0 8.974 2.855 12.737 8.177a1 1 0 0 0 1.633-1.154c-4.106-5.808-9.08-9.023-14.37-9.023-13.72 0-24.5 21.561-24.5 48 0 21.979 7.512 41.02 18.269 46.46 1.695.858 3.447 1.364 5.231 1.501v58.092z"/>
        <path fill="#756B5E" fill-rule="nonzero" d="M171.575 332.46c-1.625-4.049-3.912-6.46-6.575-6.46-5.221 0-9 9.448-9 21s3.779 21 9 21 9-9.448 9-21a1 1 0 1 0-2 0c0 10.539-3.384 19-7 19s-7-8.461-7-19 3.384-19 7-19c1.628 0 3.365 1.832 4.719 5.206a1 1 0 0 0 1.856-.746zM300.719 540.794C299.365 544.168 297.628 546 296 546c-3.616 0-7-8.461-7-19s3.384-19 7-19 7 8.461 7 19a1 1 0 1 0 2 0c0-11.552-3.779-21-9-21s-9 9.448-9 21 3.779 21 9 21c2.663 0 4.95-2.411 6.575-6.46a1 1 0 0 0-1.856-.746zM141 378.49v52.03a1 1 0 0 0 2 0v-52.03a1 1 0 1 0-2 0zM150 403.843v79.677a1 1 0 0 0 2 0v-79.677a1 1 0 0 0-2 0z"/>
        <path fill="#756B5E" fill-rule="nonzero" d="M278 443.843v79.677c-.005.603.009 1.437.055 2.505a81.15 81.15 0 0 0 .417 5.369c.589 5.342 1.67 10.66 3.367 15.638 3.464 10.159 9.063 17.676 17.249 21.38a1 1 0 0 0 .824-1.823c-7.606-3.44-12.878-10.52-16.18-20.203-1.645-4.825-2.698-10.004-3.272-15.211a79.156 79.156 0 0 1-.407-5.236 48.896 48.896 0 0 1-.054-2.36l.001-79.736a1 1 0 0 0-2 0zM141 444.843v19.46a1 1 0 1 0 2 0v-19.46a1 1 0 0 0-2 0zM169 261v19.46a1 1 0 1 0 2 0V261a1 1 0 1 0-2 0zM131 115v19.46a1 1 0 1 0 2 0V115a1 1 0 1 0-2 0zM141 474.843v73.164a1 1 0 1 0 2 0v-73.164a1 1 0 0 0-2 0zM119 428.843v57.166a1 1 0 1 0 2 0v-57.166a1 1 0 0 0-2 0zM119 399v18.009a1 1 0 1 0 2 0V399a1 1 0 1 0-2 0zM119 381v10.009a1 1 0 1 0 2 0V381a1 1 0 1 0-2 0zM190 439v10.009a1 1 0 1 0 2 0V439a1 1 0 1 0-2 0zM119 330.893v42.116a1 1 0 1 0 2 0v-42.116a1 1 0 1 0-2 0zM190 388.893v42.116a1 1 0 1 0 2 0v-42.116a1 1 0 1 0-2 0zM150 269.631v21.889a1 1 0 0 0 2 0V269.63a1 1 0 0 0-2 0zM288 574v21.888a1 1 0 1 0 2 0V574a1 1 0 1 0-2 0zM141 170v21.888a1 1 0 1 0 2 0V170a1 1 0 1 0-2 0zM279 556.631V570a1 1 0 1 0 2 0v-13.369a1 1 0 0 0-2 0zM279 578.631V608a1 1 0 1 0 2 0v-29.369a1 1 0 0 0-2 0zM311 435.631v36.424a1 1 0 1 0 2 0v-36.424a1 1 0 0 0-2 0zM131 183v68.469a1 1 0 1 0 2 0V183a1 1 0 1 0-2 0zM288 400v68.469a1 1 0 1 0 2 0V400a1 1 0 1 0-2 0zM141 56v68.469a1 1 0 1 0 2 0V56a1 1 0 1 0-2 0zM131 258v18.028a1 1 0 1 0 2 0V258a1 1 0 1 0-2 0z"/>
        <path fill="#756B5E" fill-rule="nonzero" d="M288 475v18.028a1 1 0 1 0 2 0V475a1 1 0 1 0-2 0zM141 131v18.028a1 1 0 1 0 2 0V131a1 1 0 1 0-2 0zM311 479v8.062a1 1 0 0 0 2 0V479a1 1 0 1 0-2 0zM311 421v8.062a1 1 0 0 0 2 0V421a1 1 0 1 0-2 0zM288 377v17.062a1 1 0 0 0 2 0V377a1 1 0 1 0-2 0zM303 466a1 1 0 1 0-2 0v30.01a1 1 0 0 0 .4.8c.063.048.197.155.392.326.336.292.713.65 1.122 1.072 1.177 1.217 2.357 2.709 3.462 4.482 2.255 3.623 3.89 7.93 4.635 12.957.775 5.233 1.007 18.755.815 37.927-.074 7.329-.207 15.148-.381 23.128a2424.78 2424.78 0 0 1-.435 17.04c-.026.881.407 1.342.96 1.36a1 1 0 0 0 1.03-.97 1157.421 1157.421 0 0 0 .139-4.888c.104-3.847.208-8.058.305-12.499.175-7.986.308-15.813.382-23.15.193-19.308-.039-32.857-.837-38.242-.786-5.305-2.518-9.87-4.916-13.72-1.181-1.898-2.45-3.5-3.721-4.815a19.632 19.632 0 0 0-1.352-1.285V466zM131 292v94.048a1 1 0 1 0 2 0V292a1 1 0 1 0-2 0zM150 202v60.52a1 1 0 0 0 2 0V202a1 1 0 1 0-2 0zM141 223.665v79.341a1 1 0 1 0 2 0v-79.341a1 1 0 0 0-2 0zM184.082 381.69c1.4-1.775 2.79-4.078 4.081-6.97 3.654-8.181 5.837-19.429 5.837-34.22h-2c0 14.521-2.13 25.492-5.663 33.405-1.224 2.74-2.529 4.902-3.825 6.546a15.278 15.278 0 0 1-1.222 1.386 5.628 5.628 0 0 1-.406.375l-.384.3V406h2v-22.544c.409-.382.948-.963 1.582-1.766z"/>
        <path fill="#00835D" d="M393.703 407.57a.999.999 0 0 1-.907-1.418c.928-2.02-.227-4.545-2.576-5.625-2.349-1.075-5.016-.312-5.946 1.708a.999.999 0 1 1-1.816-.836c1.388-3.02 5.245-4.229 8.597-2.689 3.351 1.541 4.947 5.254 3.557 8.277a1 1 0 0 1-.909.582"/>
        <path fill="#00CC92" d="M385.858 446.27a1 1 0 0 1-.203-1.98c3.59-.748 5.847-2.259 6.707-4.495 1.901-4.939-3.224-12.048-3.275-12.12a1 1 0 0 1 1.614-1.18c.24.326 5.82 8.056 3.53 14.014-1.12 2.912-3.868 4.843-8.168 5.74a1.034 1.034 0 0 1-.205.02"/>
        <path fill="#00CC92" d="M403.87 434.597c-1.463 0-2.986-.484-4.55-1.451-1.763-1.09-3.505-3.104-5.174-5.986a.999.999 0 1 1 1.731-1.001c1.502 2.592 3.014 4.37 4.494 5.286 1.694 1.048 3.27 1.38 4.685.993 2.257-.62 3.47-2.898 3.482-2.921.242-.461.8-.663 1.28-.46 3.835 1.637 8.4 1.347 10.852-.688 1.61-1.334 2.18-3.304 1.652-5.694-.348-1.575-2.713-4.635-14.637-7.432-7.023-1.648-13.942-2.37-14.01-2.375a1.002 1.002 0 0 1-.892-.876c-.28-2.334-1.97-4.593-4.205-5.621-2.233-1.026-5.048-.837-7.003.468a1 1 0 0 1-1.245-.106c-.05-.048-5.099-4.838-10.919-9.104-9.879-7.242-13.739-7.046-15.163-6.285-2.159 1.156-3.282 2.876-3.247 4.973.053 3.193 2.803 6.847 6.54 8.69a.999.999 0 0 1 .482 1.275c-.008.02-.95 2.429.051 4.55.625 1.326 1.904 2.303 3.801 2.907 1.665.53 3.997.522 6.936-.027a1 1 0 1 1 .366 1.967c-3.266.607-5.927.597-7.909-.034-2.457-.782-4.143-2.121-5.012-3.98-.946-2.02-.65-4.12-.359-5.265-4.037-2.286-6.834-6.317-6.896-10.05-.048-2.854 1.48-5.258 4.304-6.77 6.958-3.734 24.065 11.649 27.85 15.182 2.471-1.321 5.625-1.418 8.26-.207 2.633 1.21 4.614 3.669 5.22 6.404 5.14.578 27.935 3.57 29.64 11.284.691 3.125-.136 5.847-2.329 7.666-2.87 2.38-7.75 2.878-12.115 1.3-.68.966-2.078 2.554-4.224 3.152a6.458 6.458 0 0 1-1.738.236"/>
        <path fill="#00CC92" d="M390.85 430.721c-3.804 8.275-14.758 15.504-18.405 13.828-3.647-1.676-5.292-14.697-1.489-22.972 3.804-8.274 9.77-9.518 15.262-6.993 5.494 2.525 8.434 7.862 4.631 16.137"/>
        <path fill="#00835D" d="M380.268 413.422c-1.03 0-2.02.18-2.952.542-2.6 1.009-4.77 3.374-6.451 7.032-1.65 3.589-2.382 8.618-1.961 13.455.426 4.888 1.833 7.67 2.96 8.19 1.127.518 4.156-.227 8.142-3.086 3.946-2.83 7.285-6.662 8.935-10.251 1.68-3.657 2.063-6.845 1.137-9.475-.802-2.272-2.626-4.117-5.277-5.336-1.551-.713-3.08-1.071-4.533-1.071m-7.553 31.365c-.637 0-1.205-.108-1.687-.33-2.126-.976-3.665-4.652-4.116-9.832-.451-5.167.348-10.574 2.136-14.465 1.906-4.145 4.445-6.857 7.544-8.06 2.762-1.074 5.89-.874 9.045.577 3.153 1.449 5.34 3.692 6.326 6.488 1.106 3.136.7 6.828-1.206 10.975-1.787 3.889-5.371 8.016-9.585 11.04-3.267 2.344-6.276 3.607-8.457 3.607M387.05 399.756a1 1 0 0 1-.96-.726l-2.06-7.22a1 1 0 1 1 1.924-.549l2.06 7.22a1 1 0 0 1-.963 1.275M392.972 402.476a1 1 0 0 1-.42-1.908l6.82-3.139a1 1 0 0 1 .836 1.817l-6.82 3.138a.986.986 0 0 1-.416.092"/>
        <path fill="#00835D" d="M359.126 433.981a1 1 0 0 1-.877-.518c-2.12-3.846-2.444-7.188-.963-9.934 3.032-5.618 12.532-6.417 12.936-6.448.565-.03 1.032.37 1.074.92a1.001 1.001 0 0 1-.919 1.074c-.088.007-8.82.747-11.332 5.407-1.136 2.108-.815 4.806.956 8.017a.999.999 0 0 1-.875 1.482"/>
    </g>
</svg>
