<svg xmlns="http://www.w3.org/2000/svg" width="320" height="636" viewBox="0 0 320 636">
    <defs>
        <linearGradient id="a" x1="50%" x2="50%" y1="0%" y2="100%">
            <stop offset="0%" stop-color="#FAFAF5"/>
            <stop offset="100%" stop-color="#FFF"/>
        </linearGradient>
        <linearGradient id="b" x1="50%" x2="50%" y1="0%" y2="100%">
            <stop offset="0%" stop-color="#FAFAF5"/>
            <stop offset="100%" stop-color="#CDC9BA"/>
        </linearGradient>
        <linearGradient id="c" x1="50%" x2="50%" y1="0%" y2="100%">
            <stop offset="0%" stop-color="#FAFAF5"/>
            <stop offset="100%" stop-color="#E9E8DD"/>
        </linearGradient>
    </defs>
    <g fill="none" fill-rule="evenodd">
        <path fill="url(#a)" d="M344 209.836V0h80v210.836c-.4 61.794-37.71 114.833-91 138.197V248.084c6.97-11.08 11-24.194 11-38.248z" transform="translate(-61)"/>
        <path fill="url(#b)" d="M370.704 611.938l2.296.017V606a2 2 0 0 1 4 0v7.509a6.035 6.035 0 0 1 2 4.491 5.99 5.99 0 0 1-2.072 4.535A2 2 0 0 1 375 624c-1.135-.047-1.56 0-1.996 0H254c-35.081 0-51.513-15.648-58.863-29.582C184.282 598.013 172.763 600 164 600H76.996A6.002 6.002 0 0 1 71 594a6.047 6.047 0 0 1 5.996-6.045l2.3-.017A42.458 42.458 0 0 0 85 587.24V579a2 2 0 0 1 4 0v7.274a46.108 46.108 0 0 0 8-3.19V576a2 2 0 0 1 4 0v4.81a54.565 54.565 0 0 0 4-2.782V570a2 2 0 0 1 4 0v4.686c3.412-3.112 6.582-6.699 9.465-10.686H37.004a5.982 5.982 0 0 1-4.05-1.573A2 2 0 0 1 29 562v-24a2 2 0 0 1 4 0v15.478a6.097 6.097 0 0 1 3.99-1.616L37 542a2 2 0 0 1 4 0v9.77l2.469-.057a72.286 72.286 0 0 0 1.531-.152V545a2 2 0 0 1 4 0v6.004c1.346-.225 2.68-.489 4-.788V535a2 2 0 0 1 4 0v14.186a71.51 71.51 0 0 0 12-4.67V538a2 2 0 0 1 4 0v4.368a72.03 72.03 0 0 0 4-2.492V524a2 2 0 0 1 4 0v12.996c17.032-13.168 28-33.801 28-56.996V96c.01-.329 0-96 0-96h80v94c0 30.928 25.072 56 56 56s56-25.072 56-56V0h80l-.004 95c-.296 41.147-18.865 77.95-47.996 102.695V480c0 23.645 11.398 44.629 29 57.755V528a2 2 0 0 1 4 0v12.533a71.977 71.977 0 0 0 4 2.403V524a2 2 0 0 1 4 0v21.003a71.474 71.474 0 0 0 18 5.826V538a2 2 0 0 1 4 0v13.443c.84.105 1.683.195 2.531.27l1.469.034V544a2 2 0 0 1 4 0v7.84c4.318.098 7 2.853 7 6.16 0 3.314-2.688 6-6.004 6h-83.01c3.467 8.962 7.873 17.323 13.014 24.474V572a2 2 0 0 1 4 0v21.611c3.125 3.699 6.47 6.956 10 9.662V597a2 2 0 0 1 4 0v9.049a44.095 44.095 0 0 0 4 2.218V592a2 2 0 0 1 4 0v17.954c1.317.47 2.651.863 4 1.174V604a2 2 0 0 1 4 0v7.801c.566.06 1.134.106 1.704.137z" transform="translate(-61)"/>
        <path fill="#756B5E" d="M272 197.695v26.59c-16.288 6.9-34.198 10.715-53 10.715-12.718 0-25.028-1.746-36.704-5.01.567.007 1.135.01 1.704.01 33.56 0 64.281-12.156 88-32.305zM134 594.463C123.186 598.03 111.727 600 103 600h-7.5s38.5-7.251 38.5-80v74.463zM57.5 564s18-33.5 18-78c0 0-3.5 57.5-35.5 78h17.5zM261 564s-18-33.5-18-78c0 0 3.5 57.5 35.5 78H261z"/>
        <g fill-rule="nonzero">
            <path fill="#CDCABA" d="M4 587v11a2 2 0 1 0 4 0v-11a2 2 0 1 0-4 0z"/>
            <path fill="#FAFAF5" d="M26 542v24a2 2 0 1 0 4 0v-24a2 2 0 1 0-4 0zM87 570v34a2 2 0 0 0 4 0v-34a2 2 0 0 0-4 0zM142 584v34a2 2 0 0 0 4 0v-34a2 2 0 0 0-4 0zM34 550v16a2 2 0 1 0 4 0v-16a2 2 0 1 0-4 0zM306 553v16a2 2 0 0 0 4 0v-16a2 2 0 0 0-4 0zM314 560v16a2 2 0 0 0 4 0v-16a2 2 0 0 0-4 0zM298 556v16a2 2 0 0 0 4 0v-16a2 2 0 0 0-4 0zM290 549v16a2 2 0 0 0 4 0v-16a2 2 0 0 0-4 0zM278 553v14a2 2 0 0 0 4 0v-14a2 2 0 0 0-4 0zM77 587v16a2 2 0 0 0 4 0v-16a2 2 0 0 0-4 0zM150 600v16a2 2 0 0 0 4 0v-16a2 2 0 0 0-4 0zM164 597v26a2 2 0 0 0 4 0v-26a2 2 0 0 0-4 0zM48 593v16a2 2 0 0 0 4 0v-16a2 2 0 0 0-4 0zM202 612v16a2 2 0 0 0 4 0v-16a2 2 0 0 0-4 0zM56 595v16a2 2 0 0 0 4 0v-16a2 2 0 0 0-4 0zM222 601v24a2 2 0 0 0 4 0v-24a2 2 0 0 0-4 0zM214 614v16a2 2 0 0 0 4 0v-16a2 2 0 0 0-4 0zM40 595v16a2 2 0 0 0 4 0v-16a2 2 0 0 0-4 0zM194 614v16a2 2 0 0 0 4 0v-16a2 2 0 0 0-4 0zM244 618v16a2 2 0 0 0 4 0v-16a2 2 0 0 0-4 0zM32 591v16a2 2 0 1 0 4 0v-16a2 2 0 1 0-4 0zM186 610v16a2 2 0 0 0 4 0v-16a2 2 0 0 0-4 0zM236 610v16a2 2 0 0 0 4 0v-16a2 2 0 0 0-4 0zM18 595v16a2 2 0 1 0 4 0v-16a2 2 0 1 0-4 0zM172 614v16a2 2 0 0 0 4 0v-16a2 2 0 0 0-4 0zM124 587v16a2 2 0 0 0 4 0v-16a2 2 0 0 0-4 0zM264 616v16a2 2 0 0 0 4 0v-16a2 2 0 0 0-4 0zM69 581v22a2 2 0 0 0 4 0v-22a2 2 0 0 0-4 0zM104 579v24a2 2 0 0 0 4 0v-24a2 2 0 0 0-4 0zM8 558v16a2 2 0 1 0 4 0v-16a2 2 0 1 0-4 0zM0 554v16a2 2 0 1 0 4 0v-16a2 2 0 1 0-4 0z"/>
        </g>
        <path fill="url(#a)" d="M.003 135L0 0h80v134c0 21.324 6 40 21 47v97C40.875 258.005.433 201.74.003 135z" transform="translate(-61)"/>
        <path fill="#756B5E" fill-rule="nonzero" d="M9 88.014v57.972c0 .56.448 1.014 1 1.014s1-.454 1-1.014V88.014c0-.56-.448-1.014-1-1.014s-1 .454-1 1.014zM18 60v15.943a1 1 0 0 0 2 0V60a1 1 0 0 0-2 0zM18 83.61v41.583a1 1 0 1 0 2 0V83.61a1 1 0 1 0-2 0zM18 134c0 23.711 7.186 41.19 21.577 47.906a1 1 0 1 0 .846-1.812C26.89 173.779 20 157.018 20 134a1 1 0 1 0-2 0z"/>
        <path fill="url(#c)" d="M269 0h-64v119.784c8.116 13.62 22.993 22.745 40 22.745 8.78 0 16.993-2.432 24-6.659V0z" transform="translate(-61)"/>
        <path fill="#FAFAF5" fill-rule="nonzero" d="M262 33.49v52.03a1 1 0 1 0 2 0V33.49a1 1 0 1 0-2 0zM262 99.843v19.46a1 1 0 1 0 2 0v-19.46a1 1 0 1 0-2 0zM248 29v68.469a1 1 0 1 0 2 0V29a1 1 0 1 0-2 0zM255 49v73.164a1 1 0 1 0 2 0V49a1 1 0 1 0-2 0z"/>
        <path fill="#756B5E" fill-rule="nonzero" d="M93.893 243.087C96.913 248.13 100.795 251 105 251c9.577 0 17-14.845 17-33s-7.423-33-17-33c-3.269 0-6.358 1.738-9 4.913a1 1 0 1 0 1.538 1.28c2.29-2.753 4.85-4.193 7.462-4.193 8.096 0 15 13.808 15 31s-6.904 31-15 31c-3.393 0-6.699-2.443-9.391-6.94a1 1 0 1 0-1.716 1.027zM88 218c0 5.318.64 10.457 1.849 15.076a1 1 0 1 0 1.935-.506C90.618 228.118 90 223.15 90 218a1 1 0 1 0-2 0z"/>
        <path fill="#756B5E" fill-rule="nonzero" d="M104.5 324.053a1 1 0 1 0 2 0V265a1 1 0 0 0-1-1c-1.808 0-3.591-.446-5.328-1.324C90.238 257.65 83 239.306 83 218c0-25.476 10.262-46 22.5-46 4.557 0 8.974 2.855 12.737 8.177a1 1 0 0 0 1.633-1.154c-4.106-5.808-9.08-9.023-14.37-9.023-13.72 0-24.5 21.561-24.5 48 0 21.979 7.512 41.02 18.269 46.46 1.695.858 3.447 1.364 5.231 1.501v58.092z"/>
        <path fill="#756B5E" fill-rule="nonzero" d="M110.575 206.46c-1.625-4.049-3.912-6.46-6.575-6.46-5.221 0-9 9.448-9 21s3.779 21 9 21 9-9.448 9-21a1 1 0 1 0-2 0c0 10.539-3.384 19-7 19s-7-8.461-7-19 3.384-19 7-19c1.628 0 3.365 1.832 4.719 5.206a1 1 0 0 0 1.856-.746zM239.719 414.794C238.365 418.168 236.628 420 235 420c-3.616 0-7-8.461-7-19s3.384-19 7-19 7 8.461 7 19a1 1 0 1 0 2 0c0-11.552-3.779-21-9-21s-9 9.448-9 21 3.779 21 9 21c2.663 0 4.95-2.411 6.575-6.46a1 1 0 0 0-1.856-.746zM80 252.49v52.03a1 1 0 0 0 2 0v-52.03a1 1 0 1 0-2 0zM89 277.843v79.677a1 1 0 0 0 2 0v-79.677a1 1 0 0 0-2 0z"/>
        <path fill="#756B5E" fill-rule="nonzero" d="M217 317.843v79.677c-.005.603.009 1.437.055 2.505a81.15 81.15 0 0 0 .417 5.369c.589 5.342 1.67 10.66 3.367 15.638 3.464 10.159 9.063 17.676 17.249 21.38a1 1 0 0 0 .824-1.823c-7.606-3.44-12.878-10.52-16.18-20.203-1.645-4.825-2.698-10.004-3.272-15.211a79.156 79.156 0 0 1-.407-5.236 48.896 48.896 0 0 1-.054-2.36l.001-79.736a1 1 0 0 0-2 0zM80 318.843v19.46a1 1 0 1 0 2 0v-19.46a1 1 0 0 0-2 0zM108 135v19.46a1 1 0 1 0 2 0V135a1 1 0 1 0-2 0zM80 348.843v73.164a1 1 0 1 0 2 0v-73.164a1 1 0 0 0-2 0zM58 302.843v57.166a1 1 0 1 0 2 0v-57.166a1 1 0 0 0-2 0zM58 273v18.009a1 1 0 1 0 2 0V273a1 1 0 1 0-2 0zM58 255v10.009a1 1 0 1 0 2 0V255a1 1 0 1 0-2 0zM129 313v10.009a1 1 0 1 0 2 0V313a1 1 0 1 0-2 0zM58 204.893v42.116a1 1 0 1 0 2 0v-42.116a1 1 0 1 0-2 0zM129 262.893v42.116a1 1 0 1 0 2 0v-42.116a1 1 0 1 0-2 0zM89 143.631v21.889a1 1 0 0 0 2 0V143.63a1 1 0 0 0-2 0zM227 448v21.888a1 1 0 1 0 2 0V448a1 1 0 1 0-2 0zM80 44v21.888a1 1 0 1 0 2 0V44a1 1 0 1 0-2 0zM218 430.631V444a1 1 0 1 0 2 0v-13.369a1 1 0 0 0-2 0zM218 452.631V482a1 1 0 1 0 2 0v-29.369a1 1 0 0 0-2 0zM250 309.631v36.424a1 1 0 1 0 2 0v-36.424a1 1 0 0 0-2 0zM70 57v68.469a1 1 0 1 0 2 0V57a1 1 0 1 0-2 0zM227 274v68.469a1 1 0 1 0 2 0V274a1 1 0 1 0-2 0zM70 132v18.028a1 1 0 1 0 2 0V132a1 1 0 1 0-2 0z"/>
        <path fill="#756B5E" fill-rule="nonzero" d="M227 349v18.028a1 1 0 1 0 2 0V349a1 1 0 1 0-2 0zM250 353v8.062a1 1 0 0 0 2 0V353a1 1 0 1 0-2 0zM250 295v8.062a1 1 0 0 0 2 0V295a1 1 0 1 0-2 0zM227 251v17.062a1 1 0 0 0 2 0V251a1 1 0 1 0-2 0zM242 340a1 1 0 1 0-2 0v30.01a1 1 0 0 0 .4.8c.063.048.197.155.392.326.336.292.713.65 1.122 1.072 1.177 1.217 2.357 2.709 3.462 4.482 2.255 3.623 3.89 7.93 4.635 12.957.775 5.233 1.007 18.755.815 37.927-.074 7.329-.207 15.148-.381 23.128a2424.78 2424.78 0 0 1-.435 17.04c-.026.881.407 1.342.96 1.36a1 1 0 0 0 1.03-.97 1157.421 1157.421 0 0 0 .139-4.888c.104-3.847.208-8.058.305-12.499.175-7.986.308-15.813.382-23.15.193-19.308-.039-32.857-.837-38.242-.786-5.305-2.518-9.87-4.916-13.72-1.181-1.898-2.45-3.5-3.721-4.815a19.632 19.632 0 0 0-1.352-1.285V340zM70 166v94.048a1 1 0 1 0 2 0V166a1 1 0 1 0-2 0zM89 76v60.52a1 1 0 0 0 2 0V76a1 1 0 1 0-2 0zM80 97.665v79.341a1 1 0 1 0 2 0V97.665a1 1 0 1 0-2 0zM123.082 255.69c1.4-1.775 2.79-4.078 4.081-6.97 3.654-8.181 5.837-19.429 5.837-34.22h-2c0 14.521-2.13 25.492-5.663 33.405-1.224 2.74-2.529 4.902-3.825 6.546a15.278 15.278 0 0 1-1.222 1.386 5.628 5.628 0 0 1-.406.375l-.384.3V280h2v-22.544c.409-.382.948-.963 1.582-1.766z"/>
        <path fill="#00835D" d="M137.703 451.57a.999.999 0 0 1-.907-1.418c.928-2.02-.227-4.545-2.576-5.625-2.349-1.075-5.016-.312-5.946 1.708a.999.999 0 1 1-1.816-.836c1.388-3.02 5.245-4.229 8.597-2.689 3.351 1.541 4.947 5.254 3.557 8.277a1 1 0 0 1-.909.582"/>
        <path fill="#00CC92" d="M129.858 490.27a1 1 0 0 1-.203-1.98c3.59-.748 5.847-2.259 6.707-4.495 1.901-4.939-3.224-12.048-3.275-12.12a1 1 0 0 1 1.614-1.18c.24.326 5.82 8.056 3.53 14.014-1.12 2.912-3.868 4.843-8.168 5.74a1.034 1.034 0 0 1-.205.02"/>
        <path fill="#FFF" d="M147.87 478.597c-1.463 0-2.986-.484-4.55-1.451-1.763-1.09-3.505-3.104-5.174-5.986a.999.999 0 1 1 1.731-1.001c1.502 2.592 3.014 4.37 4.494 5.286 1.694 1.048 3.27 1.38 4.685.993 2.257-.62 3.47-2.898 3.482-2.921.242-.461.8-.663 1.28-.46 3.835 1.637 8.4 1.347 10.852-.688 1.61-1.334 2.18-3.304 1.652-5.694-.348-1.575-2.713-4.635-14.637-7.432-7.023-1.648-13.942-2.37-14.01-2.375a1.002 1.002 0 0 1-.892-.876c-.28-2.334-1.97-4.593-4.205-5.621-2.233-1.026-5.048-.837-7.003.468a1 1 0 0 1-1.245-.106c-.05-.048-5.099-4.838-10.919-9.104-9.879-7.242-13.739-7.046-15.163-6.285-2.159 1.156-3.282 2.876-3.247 4.973.053 3.193 2.803 6.847 6.54 8.69a.999.999 0 0 1 .482 1.275c-.008.02-.95 2.429.051 4.55.625 1.326 1.904 2.303 3.801 2.907 1.665.53 3.997.522 6.936-.027a1 1 0 1 1 .366 1.967c-3.266.607-5.927.597-7.909-.034-2.457-.782-4.143-2.121-5.012-3.98-.946-2.02-.65-4.12-.359-5.265-4.037-2.286-6.834-6.317-6.896-10.05-.048-2.854 1.48-5.258 4.304-6.77 6.958-3.734 24.065 11.649 27.85 15.182 2.471-1.321 5.625-1.418 8.26-.207 2.633 1.21 4.614 3.669 5.22 6.404 5.14.578 27.935 3.57 29.64 11.284.691 3.125-.136 5.847-2.329 7.666-2.87 2.38-7.75 2.878-12.115 1.3-.68.966-2.078 2.554-4.224 3.152a6.458 6.458 0 0 1-1.738.236"/>
        <path fill="#00CC92" d="M134.85 474.721c-3.804 8.275-14.758 15.504-18.405 13.828-3.647-1.676-5.292-14.697-1.489-22.972 3.804-8.274 9.77-9.518 15.262-6.993 5.494 2.525 8.434 7.862 4.631 16.137"/>
        <path fill="#00835D" d="M124.268 457.422c-1.03 0-2.02.18-2.952.542-2.6 1.009-4.77 3.374-6.451 7.032-1.65 3.589-2.382 8.618-1.961 13.455.426 4.888 1.833 7.67 2.96 8.19 1.127.518 4.156-.227 8.142-3.086 3.946-2.83 7.285-6.662 8.935-10.251 1.68-3.657 2.063-6.845 1.137-9.475-.802-2.272-2.626-4.117-5.277-5.336-1.551-.713-3.08-1.071-4.533-1.071m-7.553 31.365c-.637 0-1.205-.108-1.687-.33-2.126-.976-3.665-4.652-4.116-9.832-.451-5.167.348-10.574 2.136-14.465 1.906-4.145 4.445-6.857 7.544-8.06 2.762-1.074 5.89-.874 9.045.577 3.153 1.449 5.34 3.692 6.326 6.488 1.106 3.136.7 6.828-1.206 10.975-1.787 3.889-5.371 8.016-9.585 11.04-3.267 2.344-6.276 3.607-8.457 3.607M131.05 443.756a1 1 0 0 1-.96-.726l-2.06-7.22a1 1 0 1 1 1.924-.549l2.06 7.22a1 1 0 0 1-.963 1.275M136.972 446.476a1 1 0 0 1-.42-1.908l6.82-3.139a1 1 0 0 1 .836 1.817l-6.82 3.138a.986.986 0 0 1-.416.092"/>
        <path fill="#00835D" d="M103.126 477.981a1 1 0 0 1-.877-.518c-2.12-3.846-2.444-7.188-.963-9.934 3.032-5.618 12.532-6.417 12.936-6.448.565-.03 1.032.37 1.074.92a1.001 1.001 0 0 1-.919 1.074c-.088.007-8.82.747-11.332 5.407-1.136 2.108-.815 4.806.956 8.017a.999.999 0 0 1-.875 1.482"/>
    </g>
</svg>
