<svg id="Layer_1" data-name="Layer 1" xmlns="http://www.w3.org/2000/svg" viewBox="0 0 314.81 72"><defs><style>.cls-1{fill:#cbdb2a;}.cls-2{fill:#72bf44;}.cls-3{fill:#dbeab5;}.cls-4{fill:#8ebe3f;}.cls-5{fill:#005426;}.cls-6{fill:#519d41;}.cls-7{fill:#bbdb91;}.cls-8{fill:#231f20;}</style></defs><title>INHS_horiz_cmyk_cs4</title><rect class="cls-1" x="37.3" width="34.69" height="16.36"/><rect class="cls-2" x="55.63" y="18.98" width="16.36" height="53.01"/><polygon class="cls-3" points="20.34 16.36 34.69 16.36 34.69 2.02 20.34 16.36"/><polygon class="cls-4" points="33 0 0 0 0 33 33 0"/><polygon class="cls-5" points="32.91 37.24 0 37.24 0 70.15 32.91 37.24"/><polygon class="cls-6" points="1.85 72 53.01 72 53.01 20.84 1.85 72"/><polygon class="cls-7" points="14.02 18.98 14.02 18.98 2.57 30.44 14.02 18.98"/><polygon class="cls-7" points="17.72 18.98 2.08 34.62 35.53 34.62 51.17 18.98 17.72 18.98"/><path class="cls-8" d="M120.94,52.41h2.4V66.08h-2.4V52.41Z" transform="translate(-36 -36.02)"/><path class="cls-8" d="M127.77,52.41h2.4V63.9h7.19v2.19h-9.59V52.41Z" transform="translate(-36 -36.02)"/><path class="cls-8" d="M140.64,52.41H143V63.9h7.19v2.19h-9.59V52.41Z" transform="translate(-36 -36.02)"/><path class="cls-8" d="M153.65,52.41H156V66.08h-2.4V52.41Z" transform="translate(-36 -36.02)"/><path class="cls-8" d="M160.48,52.41h2.22L170,61.87V52.41h2.36V66.08h-2l-7.54-9.73v9.73h-2.36V52.41Z" transform="translate(-36 -36.02)"/><path class="cls-8" d="M176.08,59.29v0a7.15,7.15,0,0,1,14.29,0v0A7.15,7.15,0,0,1,176.08,59.29Zm11.78,0v0a4.68,4.68,0,0,0-4.65-4.86,4.62,4.62,0,0,0-4.61,4.82v0a4.69,4.69,0,0,0,4.65,4.86A4.62,4.62,0,0,0,187.86,59.29Z" transform="translate(-36 -36.02)"/><path class="cls-8" d="M194.2,52.41h2.4V66.08h-2.4V52.41Z" transform="translate(-36 -36.02)"/><path class="cls-8" d="M200.12,64.09l1.45-1.72a6.3,6.3,0,0,0,4.31,1.78c1.49,0,2.42-.68,2.42-1.72v0c0-1-.55-1.5-3.08-2.09-2.91-.7-4.55-1.56-4.55-4.08v0c0-2.34,2-4,4.67-4a7.58,7.58,0,0,1,5,1.72L209,55.75a6.19,6.19,0,0,0-3.71-1.41c-1.41,0-2.23.72-2.23,1.62v0c0,1.05.63,1.52,3.24,2.15,2.89,0.7,4.39,1.74,4.39,4v0c0,2.56-2,4.08-4.88,4.08A8.43,8.43,0,0,1,200.12,64.09Z" transform="translate(-36 -36.02)"/><path class="cls-8" d="M221,52.41h2.23l7.32,9.46V52.41h2.36V66.08h-2l-7.54-9.73v9.73H221V52.41Z" transform="translate(-36 -36.02)"/><path class="cls-8" d="M242,52.31h2.22l6,13.77h-2.54l-1.39-3.3h-6.47l-1.4,3.3H236Zm3.44,8.34-2.36-5.47-2.34,5.47h4.71Z" transform="translate(-36 -36.02)"/><path class="cls-8" d="M255,54.64h-4.34V52.41h11.1v2.23h-4.34V66.08H255V54.64Z" transform="translate(-36 -36.02)"/><path class="cls-8" d="M264.83,60.28V52.41h2.4v7.77c0,2.54,1.31,3.91,3.46,3.91s3.44-1.29,3.44-3.81V52.41h2.4v7.75c0,4.08-2.3,6.13-5.88,6.13S264.83,64.25,264.83,60.28Z" transform="translate(-36 -36.02)"/><path class="cls-8" d="M280.61,52.41h6.09a5.51,5.51,0,0,1,3.95,1.37,4.14,4.14,0,0,1,1.13,2.95v0a4.1,4.1,0,0,1-3.26,4.14l3.69,5.17h-2.83L286,61.32h-3v4.76h-2.4V52.41Zm5.92,6.78c1.72,0,2.81-.9,2.81-2.28v0c0-1.46-1.05-2.27-2.83-2.27H283v4.59h3.52Z" transform="translate(-36 -36.02)"/><path class="cls-8" d="M300.35,52.31h2.23l6,13.77H306l-1.38-3.3H298.2l-1.41,3.3h-2.46Zm3.44,8.34-2.36-5.47-2.34,5.47h4.71Z" transform="translate(-36 -36.02)"/><path class="cls-8" d="M311.71,52.41h2.4V63.9h7.18v2.19h-9.59V52.41Z" transform="translate(-36 -36.02)"/><path class="cls-8" d="M120.8,75.32h2.4V81h6.52V75.32h2.4V89h-2.4V83.23h-6.52V89h-2.4V75.32Z" transform="translate(-36 -36.02)"/><path class="cls-8" d="M136.56,75.32H139V89h-2.4V75.32Z" transform="translate(-36 -36.02)"/><path class="cls-8" d="M142.48,87l1.44-1.72a6.3,6.3,0,0,0,4.32,1.78c1.48,0,2.42-.68,2.42-1.72v0c0-1-.55-1.5-3.09-2.09-2.91-.7-4.55-1.56-4.55-4.08v0c0-2.34,2-4,4.67-4a7.57,7.57,0,0,1,5,1.72l-1.29,1.81a6.21,6.21,0,0,0-3.71-1.4c-1.41,0-2.23.72-2.23,1.62v0c0,1.06.63,1.53,3.24,2.15,2.89,0.7,4.39,1.74,4.39,4v0c0,2.56-2,4.08-4.88,4.08A8.43,8.43,0,0,1,142.48,87Z" transform="translate(-36 -36.02)"/><path class="cls-8" d="M159.74,77.54H155.4V75.32H166.5v2.23h-4.34V89h-2.42V77.54Z" transform="translate(-36 -36.02)"/><path class="cls-8" d="M168.47,82.19v0a7.15,7.15,0,0,1,14.29,0v0A7.15,7.15,0,0,1,168.47,82.19Zm11.77,0v0a4.68,4.68,0,0,0-4.65-4.86A4.62,4.62,0,0,0,171,82.11v0A4.68,4.68,0,0,0,175.63,87,4.62,4.62,0,0,0,180.24,82.19Z" transform="translate(-36 -36.02)"/><path class="cls-8" d="M186.45,75.32h6.09a5.5,5.5,0,0,1,3.94,1.37,4.12,4.12,0,0,1,1.13,2.95v0a4.1,4.1,0,0,1-3.26,4.14L198.05,89h-2.83l-3.36-4.76h-3V89h-2.4V75.32Zm5.92,6.78c1.72,0,2.81-.9,2.81-2.28v0c0-1.46-1.05-2.27-2.83-2.27h-3.5v4.59h3.52Z" transform="translate(-36 -36.02)"/><path class="cls-8" d="M204.88,83.6l-5.43-8.28h2.83l3.82,6.06L210,75.32h2.75l-5.43,8.22V89h-2.42V83.6Z" transform="translate(-36 -36.02)"/><path class="cls-8" d="M221.34,87l1.45-1.72a6.29,6.29,0,0,0,4.31,1.78c1.48,0,2.42-.68,2.42-1.72v0c0-1-.55-1.5-3.09-2.09-2.91-.7-4.55-1.56-4.55-4.08v0c0-2.34,2-4,4.67-4a7.58,7.58,0,0,1,5,1.72l-1.29,1.81a6.2,6.2,0,0,0-3.71-1.4c-1.41,0-2.23.72-2.23,1.62v0c0,1.06.62,1.53,3.24,2.15,2.89,0.7,4.39,1.74,4.39,4v0c0,2.56-2,4.08-4.88,4.08A8.43,8.43,0,0,1,221.34,87Z" transform="translate(-36 -36.02)"/><path class="cls-8" d="M235.32,83.19V75.32h2.4v7.77c0,2.54,1.31,3.91,3.46,3.91s3.44-1.29,3.44-3.81V75.32H247v7.75c0,4.08-2.3,6.13-5.88,6.13S235.32,87.15,235.32,83.19Z" transform="translate(-36 -36.02)"/><path class="cls-8" d="M251.1,75.32h6.09a5.49,5.49,0,0,1,3.94,1.37,4.12,4.12,0,0,1,1.13,2.95v0A4.1,4.1,0,0,1,259,83.81L262.7,89h-2.83l-3.36-4.77h-3V89h-2.4V75.32ZM257,82.09c1.72,0,2.81-.9,2.81-2.28v0c0-1.46-1.05-2.27-2.83-2.27h-3.5v4.59H257Z" transform="translate(-36 -36.02)"/><path class="cls-8" d="M264.44,75.32h2.66l4.12,10.5,4.1-10.5h2.59l-5.68,13.77h-2.11Z" transform="translate(-36 -36.02)"/><path class="cls-8" d="M281,75.32h10.14v2.15h-7.73V81h6.86v2.15h-6.86v3.67h7.83V89H281V75.32Z" transform="translate(-36 -36.02)"/><path class="cls-8" d="M298.92,83.6l-5.43-8.28h2.83l3.83,6.06L304,75.32h2.76l-5.43,8.22V89h-2.42V83.6Z" transform="translate(-36 -36.02)"/><path class="cls-8" d="M120.69,98.15h3.52c2.13,0,3.6,1.1,3.6,3v0c0,2-1.76,3.09-3.78,3.09h-2.62v3.62h-0.72v-9.7Zm3.38,5.42c1.8,0,3-.94,3-2.38v0c0-1.54-1.19-2.34-2.94-2.34h-2.74v4.75h2.66Z" transform="translate(-36 -36.02)"/><path class="cls-8" d="M130.5,98.15h4.08a3.8,3.8,0,0,1,2.73,1,2.56,2.56,0,0,1,.73,1.8v0c0,1.62-1.21,2.55-2.84,2.77l3.2,4.14h-0.91l-3.09-4h-3.17v4H130.5v-9.7Zm4,5c1.62,0,2.83-.82,2.83-2.22v0c0-1.3-1-2.12-2.79-2.12h-3.31v4.37h3.27Z" transform="translate(-36 -36.02)"/><path class="cls-8" d="M144.76,98.08h0.69l4.52,9.77h-0.79l-1.24-2.71h-5.72L141,107.85h-0.75Zm2.88,6.4-2.55-5.61-2.56,5.61h5.11Z" transform="translate(-36 -36.02)"/><path class="cls-8" d="M152.67,98.15h0.72v9.7h-0.72v-9.7Z" transform="translate(-36 -36.02)"/><path class="cls-8" d="M156.93,98.15H161a3.81,3.81,0,0,1,2.73,1,2.55,2.55,0,0,1,.73,1.8v0c0,1.62-1.21,2.55-2.84,2.77l3.2,4.14h-0.91l-3.09-4h-3.18v4h-0.72v-9.7Zm4,5c1.62,0,2.83-.82,2.83-2.22v0c0-1.3-1-2.12-2.79-2.12h-3.31v4.37h3.27Z" transform="translate(-36 -36.02)"/><path class="cls-8" d="M167.59,98.15h0.72v9.7h-0.72v-9.7Z" transform="translate(-36 -36.02)"/><path class="cls-8" d="M171.85,98.15h6.9v0.67h-6.18v3.81h5.56v0.66h-5.56v3.9h6.25v0.66h-7v-9.7Z" transform="translate(-36 -36.02)"/><path class="cls-8" d="M186.4,98.15h4.07a3.81,3.81,0,0,1,2.73,1,2.55,2.55,0,0,1,.73,1.8v0c0,1.62-1.21,2.55-2.84,2.77l3.2,4.14h-0.91l-3.09-4h-3.17v4H186.4v-9.7Zm4,5c1.62,0,2.83-.82,2.83-2.22v0c0-1.3-1-2.12-2.78-2.12h-3.31v4.37h3.27Z" transform="translate(-36 -36.02)"/><path class="cls-8" d="M197,98.15h6.9v0.67h-6.18v3.81h5.56v0.66h-5.56v3.9h6.25v0.66h-7v-9.7Z" transform="translate(-36 -36.02)"/><path class="cls-8" d="M206.19,106.44l0.47-.54a4.71,4.71,0,0,0,3.48,1.44c1.46,0,2.46-.82,2.46-1.93v0c0-1-.54-1.62-2.75-2.07s-3.27-1.26-3.27-2.73v0c0-1.44,1.31-2.55,3.12-2.55A4.84,4.84,0,0,1,213,99.19l-0.46.57a4.19,4.19,0,0,0-2.9-1.09c-1.43,0-2.37.82-2.37,1.83v0c0,1,.53,1.65,2.83,2.12s3.19,1.26,3.19,2.67v0c0,1.56-1.34,2.65-3.22,2.65A5.52,5.52,0,0,1,206.19,106.44Z" transform="translate(-36 -36.02)"/><path class="cls-8" d="M216.23,98.15h6.9v0.67H217v3.81h5.56v0.66H217v3.9h6.25v0.66h-7v-9.7Z" transform="translate(-36 -36.02)"/><path class="cls-8" d="M229.76,98.08h0.69l4.52,9.77h-0.79l-1.23-2.71h-5.72L226,107.85h-0.75Zm2.89,6.4-2.55-5.61-2.57,5.61h5.12Z" transform="translate(-36 -36.02)"/><path class="cls-8" d="M237.57,98.15h4.07a3.81,3.81,0,0,1,2.73,1,2.55,2.55,0,0,1,.73,1.8v0c0,1.62-1.21,2.55-2.84,2.77l3.2,4.14h-0.92l-3.09-4H238.3v4h-0.72v-9.7Zm4,5c1.62,0,2.83-.82,2.83-2.22v0c0-1.3-1-2.12-2.79-2.12H238.3v4.37h3.27Z" transform="translate(-36 -36.02)"/><path class="cls-8" d="M247.72,103v0a4.87,4.87,0,0,1,4.85-5,5.1,5.1,0,0,1,3.77,1.55l-0.51.53a4.44,4.44,0,0,0-3.27-1.43,4.15,4.15,0,0,0-4.09,4.34v0a4.18,4.18,0,0,0,4.1,4.37,4.44,4.44,0,0,0,3.34-1.51l0.49,0.47a5.12,5.12,0,0,1-3.85,1.69A4.82,4.82,0,0,1,247.72,103Z" transform="translate(-36 -36.02)"/><path class="cls-8" d="M258.93,98.15h0.72v4.49h6.21V98.15h0.72v9.7h-0.72v-4.54h-6.21v4.54h-0.72v-9.7Z" transform="translate(-36 -36.02)"/><path class="cls-8" d="M274.82,98.15h0.72v9.7h-0.72v-9.7Z" transform="translate(-36 -36.02)"/><path class="cls-8" d="M279.08,98.15h0.68l6.69,8.44V98.15h0.7v9.7H286.6l-6.83-8.62v8.62h-0.69v-9.7Z" transform="translate(-36 -36.02)"/><path class="cls-8" d="M290,106.44l0.47-.54a4.71,4.71,0,0,0,3.48,1.44c1.46,0,2.45-.82,2.45-1.93v0c0-1-.54-1.62-2.74-2.07s-3.27-1.26-3.27-2.73v0c0-1.44,1.32-2.55,3.12-2.55a4.84,4.84,0,0,1,3.33,1.18l-0.46.57a4.19,4.19,0,0,0-2.9-1.09c-1.43,0-2.37.82-2.37,1.83v0c0,1,.53,1.65,2.83,2.12s3.19,1.26,3.19,2.67v0c0,1.56-1.35,2.65-3.22,2.65A5.53,5.53,0,0,1,290,106.44Z" transform="translate(-36 -36.02)"/><path class="cls-8" d="M302.48,98.82H299.1V98.15h7.48v0.67H303.2v9h-0.72v-9Z" transform="translate(-36 -36.02)"/><path class="cls-8" d="M309.42,98.15h0.72v9.7h-0.72v-9.7Z" transform="translate(-36 -36.02)"/><path class="cls-8" d="M316.37,98.82H313V98.15h7.49v0.67h-3.38v9h-0.72v-9Z" transform="translate(-36 -36.02)"/><path class="cls-8" d="M323.06,103.82V98.15h0.72v5.6c0,2.29,1.23,3.6,3.28,3.6s3.23-1.19,3.23-3.53V98.15H331v5.59c0,2.79-1.62,4.27-4,4.27S323.06,106.54,323.06,103.82Z" transform="translate(-36 -36.02)"/><path class="cls-8" d="M337,98.82h-3.38V98.15h7.48v0.67h-3.38v9H337v-9Z" transform="translate(-36 -36.02)"/><path class="cls-8" d="M343.83,98.15h6.9v0.67h-6.18v3.81h5.56v0.66h-5.56v3.89h6.25v0.66h-7v-9.7Z" transform="translate(-36 -36.02)"/></svg>