<?xml version="1.0" encoding="utf-8"?>
<svg version="1.1" id="Capa_1" xmlns="http://www.w3.org/2000/svg" xmlns:xlink="http://www.w3.org/1999/xlink" x="0px" y="0px"
	 viewBox="0 0 160.9 160.2" width="160.9" height="160.2" style="enable-background:new 0 0 160.9 160.2;" xml:space="preserve">
<style type="text/css">
	.st0{fill:none;}
	.st1{fill:url(#SVGID_1_);}
	.st2{fill:url(#SVGID_2_);}
	.st3{fill:url(#SVGID_3_);}
	.st4{fill:url(#SVGID_4_);}
	.st5{fill:url(#SVGID_5_);}
	.st6{fill:url(#SVGID_6_);}
	.st7{fill:url(#SVGID_7_);}
	.st8{fill:url(#SVGID_8_);}
	.st9{fill:url(#SVGID_9_);}
	.st10{fill:url(#SVGID_10_);}
	.st11{fill:url(#SVGID_11_);}
	.st12{fill:url(#SVGID_12_);}
	.st13{fill:url(#SVGID_13_);}
	.st14{fill:url(#SVGID_14_);}
	.st15{fill:url(#SVGID_15_);}
	.st16{fill:url(#SVGID_16_);}
	.st17{fill:url(#SVGID_17_);}
	.st18{fill:url(#SVGID_18_);}
	.st19{fill:url(#SVGID_19_);}
	.st20{fill:url(#SVGID_20_);}
	.st21{fill:url(#SVGID_21_);}
	.st22{fill:url(#SVGID_22_);}
	.st23{fill:url(#SVGID_23_);}
	.st24{fill:url(#SVGID_24_);}
	.st25{fill:url(#SVGID_25_);}
	.st26{fill:url(#SVGID_26_);}
	.st27{fill:url(#SVGID_27_);}
	.st28{fill:url(#SVGID_28_);}
	.st29{fill:url(#SVGID_29_);}
	.st30{fill:url(#SVGID_30_);}
	.st31{fill:url(#SVGID_31_);}
	.st32{fill:url(#SVGID_32_);}
	.st33{fill:url(#SVGID_33_);}
	.st34{fill:url(#SVGID_34_);}
	.st35{fill:url(#SVGID_35_);}
	.st36{fill:url(#SVGID_36_);}
	.st37{fill:url(#SVGID_37_);}
	.st38{fill:url(#SVGID_38_);}
	.st39{fill:url(#SVGID_39_);}
	.st40{fill:url(#SVGID_40_);}
	.st41{fill:url(#SVGID_41_);}
	.st42{fill:url(#SVGID_42_);}
	.st43{fill:url(#SVGID_43_);}
	.st44{fill:url(#SVGID_44_);}
	.st45{fill:url(#SVGID_45_);}
	.st46{fill:url(#SVGID_46_);}
	.st47{fill:url(#SVGID_47_);}
	.st48{fill:url(#SVGID_48_);}
	.st49{fill:url(#SVGID_49_);}
	.st50{fill:url(#SVGID_50_);}
	.st51{fill:url(#SVGID_51_);}
	.st52{fill:url(#SVGID_52_);}
	.st53{fill:url(#SVGID_53_);}
	.st54{fill:url(#SVGID_54_);}
	.st55{fill:#DDBF84;}
	.st56{fill:url(#SVGID_55_);}
	.st57{fill:url(#SVGID_56_);}
	.st58{fill:url(#SVGID_57_);}
	.st59{fill:url(#SVGID_58_);}
	.st60{fill:url(#SVGID_59_);}
	.st61{fill:url(#SVGID_60_);}
	.st62{fill:url(#SVGID_61_);}
	.st63{fill:url(#SVGID_62_);}
	.st64{fill:url(#SVGID_63_);}
	.st65{fill:url(#SVGID_64_);}
	.st66{fill:url(#SVGID_65_);}
	.st67{fill:url(#SVGID_66_);}
	.st68{fill:url(#SVGID_67_);}
	.st69{fill:url(#SVGID_68_);}
	.st70{fill:url(#SVGID_69_);}
	.st71{fill:url(#SVGID_70_);}
	.st72{fill:url(#SVGID_71_);}
	.st73{fill:url(#SVGID_72_);}
	.st74{fill:url(#SVGID_73_);}
	.st75{fill:url(#SVGID_74_);}
	.st76{fill:url(#SVGID_75_);}
	.st77{fill:url(#SVGID_76_);}
	.st78{fill:url(#SVGID_77_);}
	.st79{fill:url(#SVGID_78_);}
	.st80{fill:url(#SVGID_79_);}
	.st81{fill:url(#SVGID_80_);}
	.st82{fill:url(#SVGID_81_);}
	.st83{fill:url(#SVGID_82_);}
	.st84{fill:url(#SVGID_83_);}
	.st85{fill:url(#SVGID_84_);}
	.st86{fill:url(#SVGID_85_);}
	.st87{fill:url(#SVGID_86_);}
	.st88{fill:url(#SVGID_87_);}
	.st89{fill:url(#SVGID_88_);}
	.st90{fill:url(#SVGID_89_);}
	.st91{fill:url(#SVGID_90_);}
	.st92{fill:url(#SVGID_91_);}
	.st93{fill:url(#SVGID_92_);}
	.st94{fill:url(#SVGID_93_);}
	.st95{fill:url(#SVGID_94_);}
	.st96{fill:url(#SVGID_95_);}
	.st97{fill:url(#SVGID_96_);}
	.st98{fill:url(#SVGID_97_);}
	.st99{fill:url(#SVGID_98_);}
	.st100{fill:url(#SVGID_99_);}
	.st101{fill:url(#SVGID_100_);}
	.st102{fill:url(#SVGID_101_);}
	.st103{fill:url(#SVGID_102_);}
	.st104{fill:url(#SVGID_103_);}
	.st105{fill:url(#SVGID_104_);}
	.st106{fill:url(#SVGID_105_);}
	.st107{fill:url(#SVGID_106_);}
	.st108{fill:url(#SVGID_107_);}
	.st109{fill:url(#SVGID_108_);}
	.st110{fill:url(#SVGID_109_);}
	.st111{fill:url(#SVGID_110_);}
	.st112{fill:url(#SVGID_111_);}
	.st113{fill:url(#SVGID_112_);}
	.st114{fill:url(#SVGID_113_);}
	.st115{fill:url(#SVGID_114_);}
	.st116{fill:url(#SVGID_115_);}
	.st117{fill:url(#SVGID_116_);}
	.st118{fill:url(#SVGID_117_);}
	.st119{fill:url(#SVGID_118_);}
	.st120{fill:url(#SVGID_119_);}
	.st121{fill:url(#SVGID_120_);}
	.st122{fill:url(#SVGID_121_);}
	.st123{fill:url(#SVGID_122_);}
	.st124{fill:url(#SVGID_123_);}
	.st125{fill:url(#SVGID_124_);}
	.st126{fill:url(#SVGID_125_);}
	.st127{fill:url(#SVGID_126_);}
	.st128{fill:url(#SVGID_127_);}
	.st129{fill:url(#SVGID_128_);}
	.st130{fill:url(#SVGID_129_);}
	.st131{fill:url(#SVGID_130_);}
	.st132{fill:#FFFFFF;stroke:#AF8400;stroke-width:0.51;}
	.st133{fill:url(#SVGID_131_);}
	.st134{fill:url(#SVGID_132_);stroke:#DBE0EE;stroke-width:8.000000e-02;}
	.st135{fill:url(#SVGID_133_);stroke:#DBE0EE;stroke-width:8.000000e-02;}
	.st136{fill:url(#SVGID_134_);stroke:#DBE0EE;stroke-width:8.000000e-02;}
	.st137{fill:url(#SVGID_135_);stroke:#DBE0EE;stroke-width:8.000000e-02;}
	.st138{fill:url(#SVGID_136_);stroke:#DBE0EE;stroke-width:8.000000e-02;}
	.st139{fill:url(#SVGID_137_);stroke:#DBE0EE;stroke-width:8.000000e-02;}
	.st140{fill:url(#SVGID_138_);stroke:#DBE0EE;stroke-width:8.000000e-02;}
	.st141{fill:#90A6CE;stroke:#DBE0EE;stroke-width:8.000000e-02;}
	.st142{fill:#99ADD2;stroke:#DBE0EE;stroke-width:8.000000e-02;}
	.st143{fill:#BCC8E1;stroke:#DBE0EE;stroke-width:8.000000e-02;}
	.st144{fill:#FFFFFF;stroke:#005699;stroke-width:1.06;}
	.st145{fill:#AF8400;}
	.st146{opacity:0.27;fill:url(#SVGID_139_);enable-background:new    ;}
</style>
<title>Untitled-2</title>
<g>
	<g id="Layer_1">
		<path class="st0" d="M107.5,132.1c0.5,1.7,1,3.8,2.7,4.6l1.1,0.3c2.2-0.6,4.1-1.8,5.8-2.9c1.8-1.5,4.1-3.4,4.7-5.5
			c0.1-1.6-1.2-2.6-2.3-3.6c-4.1-2.8-8.5-5.2-13.1-7l-0.2,0.1C105.8,122.9,106.8,127.4,107.5,132.1z"/>
		<path class="st0" d="M136.5,97.8c1.6,0.8,3.4,2,5.2,1.3l1-0.6c0.9-1.6,1.5-3.4,1.9-5.2c0-0.1,0-0.3,0.1-0.4
			c0.2-2.4,0.7-5.7-0.5-7.7c-1.1-1.2-2.7-1-4.2-0.9c-0.6,0.1-1.2,0.2-1.7,0.3c-3,2.6-6.2,5-9.5,7.2C131.1,94,133.8,95.8,136.5,97.8z
			"/>
		<path class="st0" d="M125.3,118c1.2,1.3,2.4,3.2,4.2,3.2l1.1-0.1c1.6-1.3,3-2.8,4.1-4.6l0.1-0.2c1.2-2.1,2.8-5,2.5-7.3
			c-0.6-1.5-2.1-2-3.5-2.4c-4.8-1.1-9.7-1.6-14.7-1.5l-0.4,0.6C120.2,110.1,122.9,113.9,125.3,118z"/>
		<path class="st0" d="M34.8,93.4c-1.4,1.3-2.6,2.8-3.9,4.3c-0.4,1.4-2.9,2.8-1.3,4.3c3.5,0.6,7.1,0.8,10.7,0.6
			c-1.4-2.5-2.6-5.2-3.6-8C36.1,94.2,35.4,93.8,34.8,93.4z"/>
		<path class="st0" d="M108.9,116.1c2.1,1.2,4.6,1.9,7.1,2.8c1.5-0.2,3.7,1.6,4.5-0.5c-0.8-3.5-2-7-3.7-10.2
			C114.5,111.2,111.9,113.8,108.9,116.1z"/>
		<path class="st0" d="M75.1,125.6c0.6,2.3,1.9,4.5,3,6.9c1.2,0.9,1.5,3.8,3.5,2.8c2-3.1,3.5-6.3,4.7-9.8
			C82.6,126,78.8,126,75.1,125.6z"/>
		<path class="st0" d="M44.3,108.5c-1.2,2.1-1.9,4.5-2.7,6.9c0.2,1.5-1.6,3.7,0.5,4.5c3.5-0.8,6.9-2,10.1-3.6
			C49.2,114,46.6,111.4,44.3,108.5z"/>
		<path class="st0" d="M62.4,135.8c-0.8,1.6-2,3.4-1.3,5.1l0.6,1c2.1,1.2,4.4,1.7,6.6,2.1c2.3,0.2,5.2,0.5,7.1-0.6
			c1.2-1.1,1-2.7,0.9-4.2c-0.8-4.8-2.3-9.6-4.3-14.1l-0.6-0.1C67.8,128.1,65.2,132,62.4,135.8z"/>
		<path class="st0" d="M21.9,84.6c-1.7-0.1-3.9-0.6-5.3,0.7L16,86.2c-0.4,2.6,0.2,5.1,0.7,7.5c0.6,2.1,1.5,4.4,3.1,5.6
			c1.4,0.7,2.9-0.1,4.2-0.8c3.1-1.9,5.9-4.1,8.6-6.5c-3.3-2.1-6.5-4.5-9.4-7.1L21.9,84.6z"/>
		<path class="st0" d="M28.2,106.7c-1.7,0.5-3.8,1-4.6,2.7l-0.3,1.1c0.6,2.4,2,4.4,3.3,6.4c1.4,1.7,3.2,3.8,5.3,4.3
			c1.6,0.1,2.6-1.2,3.6-2.3c2.8-4,5.2-8.3,6.9-12.9l-0.4-0.7C37.3,105,32.8,106,28.2,106.7z"/>
		<path class="st0" d="M39.1,95.9c8.8,22.7,34.4,34.1,57.3,25.3c11.7-4.5,21-13.7,25.5-25.3C96,109.6,64.9,109.6,39.1,95.9z"/>
		<path class="st0" d="M85.4,138.4c-0.1,1.7-0.6,3.9,0.7,5.2l0.9,0.7c2.2,0.3,4.5-0.1,6.6-0.5c2.2-0.7,5.1-1.5,6.5-3.3
			c0.7-1.4-0.1-2.9-0.8-4.2c-2.7-4.2-5.8-8-9.4-11.4l-0.4,0.1C87.4,129.3,86.6,133.8,85.4,138.4z"/>
		<path class="st0" d="M42.5,124.7c-1.3,1.2-3.2,2.3-3.2,4.2l0.1,1.1c1.5,2,3.7,3.4,5.6,4.7c1.9,1,4.2,2.1,6.2,1.8
			c1.5-0.5,2-2.1,2.4-3.5c1.1-4.8,1.6-9.7,1.5-14.6l-0.3-0.2C50.3,119.7,46.5,122.3,42.5,124.7z"/>
		<path class="st0" d="M120.7,102.4c2.4,0.3,4.9,0,7.5-0.1c1.3-0.7,4.1,0.1,4-2.1c-1.7-2.4-3.7-4.7-5.9-6.7
			c-0.7,0.4-1.4,0.9-2.1,1.3C123.3,97.3,122.1,99.9,120.7,102.4z"/>
		<path class="st0" d="M58,127.5c0.7,1.3-0.1,4,2.2,3.9c3-2.1,5.7-4.5,8-7.2c-3.6-1-7-2.4-10.3-4.2C57.5,122.4,57.8,125,58,127.5z"
			/>
		<path class="st0" d="M98.5,129.4c1.4,0.4,2.8,2.9,4.3,1.3c0.6-3.6,0.8-7.2,0.6-10.8c-3.2,1.9-6.7,3.3-10.3,4.3
			C94.5,126.1,96.5,127.7,98.5,129.4z"/>
		
			<radialGradient id="SVGID_1_" cx="311.0576" cy="242.8911" r="523.52" gradientTransform="matrix(0.3069 0 0 -0.3052 -62.6981 88.694)" gradientUnits="userSpaceOnUse">
			<stop  offset="0" style="stop-color:#E5CC9C"/>
			<stop  offset="1" style="stop-color:#AF8400"/>
		</radialGradient>
		<path class="st1" d="M15.8,90.8c0.1,0.5,0.2,1.1,0.4,1.6c0.1,0.4,0.3,0.9,0.4,1.3c-0.4-2.4-1-4.9-0.7-7.5l0.7-0.9
			c1.3-1.3,3.5-0.9,5.3-0.7l1.2,0.3c-4.2-3.6-8.1-7.7-11.6-12l-0.1,0.3C8.7,77.2,4.5,78.2,0,78.1c0,1.3,0,2.9,0,4
			c5-0.3,10.2,1.4,12.4,6.5c0.5,1.2,0.9,2.4,1.3,3.7c0-0.4-0.1-0.8-0.2-1.2L15.8,90.8z"/>
		
			<radialGradient id="SVGID_2_" cx="163.85" cy="469.89" r="523.48" gradientTransform="matrix(0.579 0 0 -0.5758 -1.4648 120.9677)" gradientUnits="userSpaceOnUse">
			<stop  offset="0" style="stop-color:#E5CC9C"/>
			<stop  offset="1" style="stop-color:#AF8400"/>
		</radialGradient>
		<path class="st2" d="M25,114.7c0.3,0.4,0.6,0.9,1,1.3l0.6,0.7c-1.3-1.9-2.7-4-3.3-6.4l0.3-1.1c0.7-1.7,2.9-2.1,4.6-2.7
			c4.6-0.7,9.2-1.6,13.8-1.4c-0.6-0.9-1.1-1.8-1.7-2.7c-3.6,0.2-7.2,0-10.7-0.6c-1.7-1.5,0.9-2.9,1.3-4.3c1.3-1.5,2.6-3,3.9-4.3
			c-0.8-0.5-1.5-1-2.3-1.4c-2.7,2.4-5.5,4.6-8.6,6.6c-1.3,0.7-2.8,1.5-4.2,0.8c-1.6-1.2-2.4-3.5-3.1-5.6c0.1,0.3,0.1,0.6,0.1,0.8
			l-2.2,0.6c-0.3-1-0.5-2-0.9-3c0.3,2.6,0.4,5.2,0.3,7.9c-0.9,4.8-4.4,7.3-8.6,8.9c0.5,1.2,1.1,2.7,1.5,3.7c4.5-2.2,9.9-2.6,14,1.3
			c1,1,1.9,2,2.8,3.1c-0.2-0.4-0.4-0.8-0.7-1.2L25,114.7z"/>
		
			<radialGradient id="SVGID_3_" cx="163.85" cy="469.91" r="523.52" gradientTransform="matrix(0.579 0 0 -0.5758 -1.4648 120.9677)" gradientUnits="userSpaceOnUse">
			<stop  offset="0" style="stop-color:#E5CC9C"/>
			<stop  offset="1" style="stop-color:#AF8400"/>
		</radialGradient>
		<path class="st3" d="M16.8,94.5c0-0.3-0.1-0.5-0.1-0.8c-0.1-0.5-0.3-0.9-0.4-1.3c-0.2-0.5-0.3-1.1-0.4-1.6L13.6,91
			c0.1,0.4,0.1,0.8,0.2,1.2c0.3,1,0.6,2,0.9,3L16.8,94.5z"/>
		
			<radialGradient id="SVGID_4_" cx="163.85" cy="469.89" r="523.48" gradientTransform="matrix(0.579 0 0 -0.5758 -1.4648 120.9677)" gradientUnits="userSpaceOnUse">
			<stop  offset="0" style="stop-color:#E5CC9C"/>
			<stop  offset="1" style="stop-color:#AF8400"/>
		</radialGradient>
		<path class="st4" d="M16.8,94.5c0-0.3-0.1-0.5-0.1-0.8c-0.1-0.5-0.3-0.9-0.4-1.3c-0.2-0.5-0.3-1.1-0.4-1.6L13.6,91
			c0.1,0.4,0.1,0.8,0.2,1.2c0.3,1,0.6,2,0.9,3L16.8,94.5z"/>
		
			<radialGradient id="SVGID_5_" cx="163.85" cy="469.89" r="523.46" gradientTransform="matrix(0.579 0 0 -0.5758 -1.4648 120.9677)" gradientUnits="userSpaceOnUse">
			<stop  offset="0" style="stop-color:#E5CC9C"/>
			<stop  offset="1" style="stop-color:#AF8400"/>
		</radialGradient>
		<path class="st5" d="M42.4,133.2c0.5,0.3,0.9,0.6,1.4,0.9l1.2,0.6c-1.9-1.3-4.1-2.7-5.6-4.7l-0.1-1.1c0-1.9,1.9-3.1,3.2-4.2
			c4.1-2.4,7.9-5,12.3-6.6c-0.9-0.6-1.8-1.2-2.6-1.9c-3.2,1.6-6.6,2.8-10.2,3.6c-2.1-0.8-0.3-3-0.5-4.5c0.9-2.4,1.5-4.8,2.7-6.9
			c-0.7-0.8-1.3-1.7-1.9-2.6c-1.8,4.6-4.1,8.9-6.9,12.9c-0.9,1.2-2,2.4-3.6,2.3c-2-0.5-3.8-2.6-5.3-4.3c0.2,0.3,0.4,0.7,0.6,1
			l-1.7,1.4c-0.6-0.7-1.2-1.5-1.7-2.2c1.2,2.3,2.3,4.6,3.2,7c1,4.8-1.3,8.4-4.5,11.5c0.9,0.9,2,2,2.8,2.8c3.3-3.7,8.2-6.1,13.4-4.2
			c1.2,0.5,2.3,1.1,3.5,1.6c-0.3-0.3-0.7-0.5-1-0.8L42.4,133.2z"/>
		
			<radialGradient id="SVGID_6_" cx="163.85" cy="469.89" r="523.48" gradientTransform="matrix(0.579 0 0 -0.5758 -1.4648 120.9677)" gradientUnits="userSpaceOnUse">
			<stop  offset="0" style="stop-color:#E5CC9C"/>
			<stop  offset="1" style="stop-color:#AF8400"/>
		</radialGradient>
		<path class="st6" d="M27.2,117.8c-0.2-0.3-0.4-0.7-0.6-1l-0.6-0.7c-0.4-0.4-0.7-0.9-1-1.3l-2,1.1c0.2,0.4,0.5,0.8,0.7,1.2
			c0.6,0.7,1.2,1.4,1.7,2.2L27.2,117.8z"/>
		
			<radialGradient id="SVGID_7_" cx="163.85" cy="469.89" r="523.46" gradientTransform="matrix(0.579 0 0 -0.5758 -1.4648 120.9677)" gradientUnits="userSpaceOnUse">
			<stop  offset="0" style="stop-color:#E5CC9C"/>
			<stop  offset="1" style="stop-color:#AF8400"/>
		</radialGradient>
		<path class="st7" d="M27.2,117.8c-0.2-0.3-0.4-0.7-0.6-1l-0.6-0.7c-0.4-0.4-0.7-0.9-1-1.3l-2,1.1c0.2,0.4,0.5,0.8,0.7,1.2
			c0.6,0.7,1.2,1.4,1.7,2.2L27.2,117.8z"/>
		
			<radialGradient id="SVGID_8_" cx="163.85" cy="469.89" r="523.48" gradientTransform="matrix(0.579 0 0 -0.5758 -1.4648 120.9677)" gradientUnits="userSpaceOnUse">
			<stop  offset="0" style="stop-color:#E5CC9C"/>
			<stop  offset="1" style="stop-color:#AF8400"/>
		</radialGradient>
		<path class="st8" d="M65.9,143.7c0.5,0.1,1.1,0.2,1.6,0.2l0.7,0.1c-2.2-0.5-4.6-0.9-6.6-2.1l-0.6-1c-0.7-1.7,0.5-3.6,1.3-5.1
			c2.8-3.8,5.4-7.7,8.9-10.8c-1.1-0.2-2.1-0.5-3.1-0.7c-2.4,2.7-5.1,5.1-8,7.2c-2.3,0.1-1.4-2.6-2.2-3.9c-0.1-2.6-0.5-5.1-0.1-7.5
			c-0.9-0.5-1.8-1.1-2.7-1.7c0.1,4.9-0.4,9.8-1.5,14.6c-0.4,1.4-0.9,3-2.4,3.5c-2,0.3-4.3-0.8-6.2-1.8l0.9,0.6l-1.1,2
			c-0.9-0.5-1.8-1-2.8-1.5c2,1.6,3.9,3.4,5.7,5.3c2.8,4,2.1,8.3,0.2,12.3c1.2,0.5,2.7,1.1,3.7,1.5c1.6-4.7,5.2-8.8,10.8-9
			c1.4,0,2.9,0.1,4.3,0.2c-0.5-0.1-1-0.3-1.4-0.4L65.9,143.7z"/>
		
			<radialGradient id="SVGID_9_" cx="163.85" cy="469.89" r="523.46" gradientTransform="matrix(0.579 0 0 -0.5758 -1.4648 120.9677)" gradientUnits="userSpaceOnUse">
			<stop  offset="0" style="stop-color:#E5CC9C"/>
			<stop  offset="1" style="stop-color:#AF8400"/>
		</radialGradient>
		<path class="st9" d="M45.9,135.3l-0.9-0.6l-1.2-0.6c-0.5-0.3-1-0.6-1.4-0.9L41,135c0.4,0.3,0.7,0.5,1,0.8c0.9,0.5,1.9,1,2.8,1.5
			L45.9,135.3z"/>
		
			<radialGradient id="SVGID_10_" cx="163.85" cy="469.89" r="523.48" gradientTransform="matrix(0.579 0 0 -0.5758 -1.4648 120.9677)" gradientUnits="userSpaceOnUse">
			<stop  offset="0" style="stop-color:#E5CC9C"/>
			<stop  offset="1" style="stop-color:#AF8400"/>
		</radialGradient>
		<path class="st10" d="M45.9,135.3l-0.9-0.6l-1.2-0.6c-0.5-0.3-1-0.6-1.4-0.9L41,135c0.4,0.3,0.7,0.5,1,0.8c0.9,0.5,1.9,1,2.8,1.5
			L45.9,135.3z"/>
		
			<radialGradient id="SVGID_11_" cx="163.86" cy="469.91" r="523.49" gradientTransform="matrix(0.579 0 0 -0.5758 -1.4648 120.9677)" gradientUnits="userSpaceOnUse">
			<stop  offset="0" style="stop-color:#E5CC9C"/>
			<stop  offset="1" style="stop-color:#AF8400"/>
		</radialGradient>
		<path class="st11" d="M91.5,144.4c0.5-0.1,1.1-0.2,1.6-0.4l0.5-0.1c-2.1,0.4-4.3,0.8-6.6,0.5l-0.9-0.7c-1.3-1.3-0.9-3.5-0.7-5.2
			c1.2-4.6,2-9.2,4.1-13.4c-1.1,0.2-2.1,0.4-3.2,0.5c-1.1,3.4-2.7,6.7-4.7,9.8c-2,0.9-2.3-1.9-3.5-2.8c-1.2-2.3-2.4-4.5-3-6.9
			c-1.1-0.1-2.1-0.3-3.2-0.5c2,4.5,3.4,9.2,4.3,14.1c0.1,1.5,0.3,3.1-0.9,4.2c-1.9,1.1-4.8,0.8-7.1,0.6c0.5,0.1,0.9,0.2,1.4,0.3
			l-0.2,2.2c-0.9-0.1-1.8-0.2-2.7-0.3c2.4,0.7,4.8,1.6,7.1,2.7c4.1,2.7,5.1,6.9,5,11.3c1.3,0,2.9,0,4,0c-0.3-5,1.4-10.1,6.5-12.4
			c1.4-0.5,2.7-1,4.1-1.4c-0.6,0.1-1.2,0.1-1.7,0.2L91.5,144.4z"/>
		
			<radialGradient id="SVGID_12_" cx="163.85" cy="469.89" r="523.48" gradientTransform="matrix(0.579 0 0 -0.5758 -1.4648 120.9677)" gradientUnits="userSpaceOnUse">
			<stop  offset="0" style="stop-color:#E5CC9C"/>
			<stop  offset="1" style="stop-color:#AF8400"/>
		</radialGradient>
		<path class="st12" d="M69.7,144.3c-0.5-0.1-0.9-0.2-1.4-0.3l-0.7-0.1c-0.6-0.1-1.1-0.1-1.6-0.2l-0.6,2.1c0.5,0.1,1,0.3,1.4,0.4
			c0.9,0.1,1.8,0.2,2.7,0.3L69.7,144.3z"/>
		
			<radialGradient id="SVGID_13_" cx="163.86" cy="469.91" r="523.49" gradientTransform="matrix(0.579 0 0 -0.5758 -1.4648 120.9677)" gradientUnits="userSpaceOnUse">
			<stop  offset="0" style="stop-color:#E5CC9C"/>
			<stop  offset="1" style="stop-color:#AF8400"/>
		</radialGradient>
		<path class="st13" d="M69.7,144.3c-0.5-0.1-0.9-0.2-1.4-0.3l-0.7-0.1c-0.6-0.1-1.1-0.1-1.6-0.2l-0.6,2.1c0.5,0.1,1,0.3,1.4,0.4
			c0.9,0.1,1.8,0.2,2.7,0.3L69.7,144.3z"/>
		
			<radialGradient id="SVGID_14_" cx="163.85" cy="469.91" r="523.5" gradientTransform="matrix(0.579 0 0 -0.5758 -1.4648 120.9677)" gradientUnits="userSpaceOnUse">
			<stop  offset="0" style="stop-color:#E5CC9C"/>
			<stop  offset="1" style="stop-color:#AF8400"/>
		</radialGradient>
		<path class="st14" d="M115.3,135.4c0.5-0.3,0.9-0.6,1.3-1l0.4-0.3c-1.8,1.2-3.7,2.3-5.8,2.9l-1.1-0.3c-1.7-0.7-2.2-2.9-2.7-4.6
			c-0.7-4.7-1.7-9.3-1.4-13.9c-0.9,0.6-1.8,1.2-2.8,1.7c0.3,3.6,0.1,7.3-0.6,10.8c-1.5,1.6-2.9-0.9-4.3-1.3c-2-1.7-4-3.3-5.4-5.2
			c-1,0.3-2.1,0.5-3.1,0.8c3.6,3.4,6.7,7.2,9.4,11.4c0.7,1.3,1.5,2.7,0.8,4.2c-1.3,1.8-4.2,2.6-6.5,3.3c0.6-0.1,1.2-0.2,1.8-0.3
			l0.6,2.1c-0.9,0.2-1.7,0.5-2.5,0.7c2.5-0.2,4.9-0.3,7.4-0.2c4.8,0.9,7.4,4.4,8.9,8.5c1.2-0.5,2.7-1.1,3.7-1.5
			c-2.2-4.5-2.6-9.9,1.3-13.9c1-1,2.1-1.9,3.2-2.8c-0.5,0.3-1,0.6-1.5,0.9L115.3,135.4z"/>
		
			<radialGradient id="SVGID_15_" cx="163.86" cy="469.91" r="523.49" gradientTransform="matrix(0.579 0 0 -0.5758 -1.4648 120.9677)" gradientUnits="userSpaceOnUse">
			<stop  offset="0" style="stop-color:#E5CC9C"/>
			<stop  offset="1" style="stop-color:#AF8400"/>
		</radialGradient>
		<path class="st15" d="M95.4,143.5c-0.6,0.1-1.2,0.2-1.8,0.3l-0.5,0.1c-0.5,0.2-1.1,0.3-1.6,0.4l0.2,2.2c0.6-0.1,1.2-0.1,1.7-0.2
			c0.8-0.3,1.7-0.5,2.5-0.7L95.4,143.5z"/>
		
			<radialGradient id="SVGID_16_" cx="163.85" cy="469.91" r="523.49" gradientTransform="matrix(0.579 0 0 -0.5758 -1.4648 120.9677)" gradientUnits="userSpaceOnUse">
			<stop  offset="0" style="stop-color:#E5CC9C"/>
			<stop  offset="1" style="stop-color:#AF8400"/>
		</radialGradient>
		<path class="st16" d="M95.4,143.5c-0.6,0.1-1.2,0.2-1.8,0.3l-0.5,0.1c-0.5,0.2-1.1,0.3-1.6,0.4l0.2,2.2c0.6-0.1,1.2-0.1,1.7-0.2
			c0.8-0.3,1.7-0.5,2.5-0.7L95.4,143.5z"/>
		
			<radialGradient id="SVGID_17_" cx="163.85" cy="469.92" r="523.5" gradientTransform="matrix(0.579 0 0 -0.5758 -1.4648 120.9677)" gradientUnits="userSpaceOnUse">
			<stop  offset="0" style="stop-color:#E5CC9C"/>
			<stop  offset="1" style="stop-color:#AF8400"/>
		</radialGradient>
		<path class="st17" d="M134,117.7c0.3-0.4,0.5-0.8,0.7-1.2c-1.1,1.7-2.5,3.3-4.1,4.6l-1.1,0.1c-1.9,0-3.1-1.9-4.2-3.2
			c-2.5-4-5.1-7.9-6.6-12.3c-0.6,0.9-1.2,1.8-1.9,2.6c1.6,3.2,2.9,6.7,3.7,10.2c-0.8,2.1-3,0.3-4.5,0.5c-2.5-0.9-5-1.5-7.1-2.8
			c-0.8,0.7-1.7,1.3-2.6,1.9c4.6,1.8,9,4.1,13.1,7c1.2,0.9,2.4,2,2.3,3.6c-0.5,2.1-2.9,4-4.7,5.5c0.5-0.3,1.1-0.7,1.6-1l1.4,1.7
			c-0.7,0.5-1.4,1.1-2.1,1.7c2.2-1.1,4.4-2.1,6.7-3c4.8-1,8.5,1.2,11.5,4.5c0.9-0.9,2.1-2,2.8-2.8c-3.7-3.3-6.2-8.1-4.2-13.4
			c0.7-1.5,1.3-2.9,2.1-4.3c-0.4,0.5-0.8,1-1.2,1.5L134,117.7z"/>
		
			<radialGradient id="SVGID_18_" cx="163.85" cy="469.91" r="523.5" gradientTransform="matrix(0.579 0 0 -0.5758 -1.4648 120.9677)" gradientUnits="userSpaceOnUse">
			<stop  offset="0" style="stop-color:#E5CC9C"/>
			<stop  offset="1" style="stop-color:#AF8400"/>
		</radialGradient>
		<path class="st18" d="M118.7,133.1c-0.5,0.3-1,0.7-1.6,1l-0.4,0.3c-0.4,0.4-0.9,0.7-1.3,1l1.1,2c0.5-0.3,1-0.6,1.5-0.9
			c0.7-0.6,1.4-1.2,2.1-1.7L118.7,133.1z"/>
		
			<radialGradient id="SVGID_19_" cx="163.85" cy="469.92" r="523.5" gradientTransform="matrix(0.579 0 0 -0.5758 -1.4648 120.9677)" gradientUnits="userSpaceOnUse">
			<stop  offset="0" style="stop-color:#E5CC9C"/>
			<stop  offset="1" style="stop-color:#AF8400"/>
		</radialGradient>
		<path class="st19" d="M118.7,133.1c-0.5,0.3-1,0.7-1.6,1l-0.4,0.3c-0.4,0.4-0.9,0.7-1.3,1l1.1,2c0.5-0.3,1-0.6,1.5-0.9
			c0.7-0.6,1.4-1.2,2.1-1.7L118.7,133.1z"/>
		
			<radialGradient id="SVGID_20_" cx="163.86" cy="469.89" r="523.46" gradientTransform="matrix(0.579 0 0 -0.5758 -1.4648 120.9677)" gradientUnits="userSpaceOnUse">
			<stop  offset="0" style="stop-color:#E5CC9C"/>
			<stop  offset="1" style="stop-color:#AF8400"/>
		</radialGradient>
		<path class="st20" d="M144.3,94.6c0.1-0.4,0.1-0.8,0.2-1.2c-0.3,1.8-1,3.6-1.9,5.2l-1,0.6c-1.7,0.7-3.6-0.5-5.2-1.3
			c-2.7-2-5.4-3.8-7.9-5.9c-0.8,0.5-1.5,1-2.3,1.5c2.2,2.1,4.2,4.3,5.9,6.8c0.1,2.2-2.6,1.4-4,2.1c-2.6,0.1-5.1,0.4-7.5,0.1
			c-0.5,0.9-1.1,1.8-1.7,2.7c4.9-0.1,9.9,0.4,14.7,1.5c1.4,0.4,3,0.9,3.5,2.4c0.3,2.3-1.3,5.2-2.5,7.3l-0.1,0.2
			c0.4-0.6,0.9-1.3,1.3-1.9l2,1.1c-0.4,0.6-0.7,1.3-1.1,1.9c1.5-1.8,3.2-3.6,4.9-5.2c4.1-2.7,8.3-2.1,12.4-0.2
			c0.5-1.2,1.1-2.6,1.5-3.7c-4.7-1.6-8.8-5.2-9-10.7c0-1.6,0.1-3.1,0.3-4.7c-0.2,0.7-0.4,1.4-0.6,2.1L144.3,94.6z"/>
		
			<radialGradient id="SVGID_21_" cx="163.85" cy="469.92" r="523.5" gradientTransform="matrix(0.579 0 0 -0.5758 -1.4648 120.9677)" gradientUnits="userSpaceOnUse">
			<stop  offset="0" style="stop-color:#E5CC9C"/>
			<stop  offset="1" style="stop-color:#AF8400"/>
		</radialGradient>
		<path class="st21" d="M136,114.6c-0.4,0.6-0.9,1.2-1.3,1.9c-0.2,0.4-0.5,0.8-0.7,1.2l1.7,1.4c0.4-0.5,0.8-1,1.2-1.5
			c0.3-0.6,0.7-1.3,1.1-1.9L136,114.6z"/>
		
			<radialGradient id="SVGID_22_" cx="163.86" cy="469.89" r="523.46" gradientTransform="matrix(0.579 0 0 -0.5758 -1.4648 120.9677)" gradientUnits="userSpaceOnUse">
			<stop  offset="0" style="stop-color:#E5CC9C"/>
			<stop  offset="1" style="stop-color:#AF8400"/>
		</radialGradient>
		<path class="st22" d="M136,114.6c-0.4,0.6-0.9,1.2-1.3,1.9c-0.2,0.4-0.5,0.8-0.7,1.2l1.7,1.4c0.4-0.5,0.8-1,1.2-1.5
			c0.3-0.6,0.7-1.3,1.1-1.9L136,114.6z"/>
		
			<radialGradient id="SVGID_23_" cx="163.83" cy="469.9" r="523.5" gradientTransform="matrix(0.579 0 0 -0.5758 -1.4648 120.9677)" gradientUnits="userSpaceOnUse">
			<stop  offset="0" style="stop-color:#E5CC9C"/>
			<stop  offset="1" style="stop-color:#AF8400"/>
		</radialGradient>
		<path class="st23" d="M149.4,72.9c-3.4,4.3-7.1,8.2-11.2,11.8c0.6-0.1,1.1-0.2,1.7-0.3c1.5-0.1,3.1-0.3,4.2,0.9
			c1.2,2,0.8,5.3,0.5,7.7c0,0.1,0,0.3-0.1,0.4c0.2-1,0.4-1.9,0.6-2.8l2.2,0.2c-0.1,0.7-0.2,1.5-0.3,2.2c0.7-2.2,1.5-4.3,2.5-6.4
			c2.7-4.1,6.9-5.1,11.3-4.9c0-1.3,0-2.9,0-4C156.5,78,152,76.7,149.4,72.9z"/>
		
			<radialGradient id="SVGID_24_" cx="163.86" cy="469.89" r="523.46" gradientTransform="matrix(0.579 0 0 -0.5758 -1.4648 120.9677)" gradientUnits="userSpaceOnUse">
			<stop  offset="0" style="stop-color:#E5CC9C"/>
			<stop  offset="1" style="stop-color:#AF8400"/>
		</radialGradient>
		<path class="st24" d="M145.1,90.6c-0.2,0.9-0.4,1.8-0.6,2.8c-0.1,0.4-0.1,0.8-0.2,1.2l2.1,0.6c0.2-0.7,0.4-1.4,0.6-2.1
			c0.1-0.7,0.2-1.5,0.3-2.2L145.1,90.6z"/>
		
			<radialGradient id="SVGID_25_" cx="163.83" cy="469.9" r="523.5" gradientTransform="matrix(0.579 0 0 -0.5758 -1.4648 120.9677)" gradientUnits="userSpaceOnUse">
			<stop  offset="0" style="stop-color:#E5CC9C"/>
			<stop  offset="1" style="stop-color:#AF8400"/>
		</radialGradient>
		<path class="st25" d="M145.1,90.6c-0.2,0.9-0.4,1.8-0.6,2.8c-0.1,0.4-0.1,0.8-0.2,1.2l2.1,0.6c0.2-0.7,0.4-1.4,0.6-2.1
			c0.1-0.7,0.2-1.5,0.3-2.2L145.1,90.6z"/>
		
			<radialGradient id="SVGID_26_" cx="311.0576" cy="242.8711" r="523.48" gradientTransform="matrix(0.3069 0 0 -0.3052 -62.6981 88.694)" gradientUnits="userSpaceOnUse">
			<stop  offset="0" style="stop-color:#F0DEC0"/>
			<stop  offset="1" style="stop-color:#AF8400"/>
		</radialGradient>
		<path class="st26" d="M121.8,95.9c-8.8,22.7-34.4,34.1-57.3,25.3c-11.7-4.5-21-13.7-25.5-25.3c-0.8-0.4-1.6-0.9-2.4-1.3
			c0.9,2.8,2.1,5.4,3.6,8l0.6,0l-0.2-0.4l0.1,0.1c0.3,1.1,0.8,2.2,1.5,3.1H42l0.4,0.7c0.1-0.1,0.1-0.3,0.2-0.4
			c0-0.1-0.1-0.2-0.1-0.3l0.1-0.1c0.4,1.2,1.1,2.2,1.9,3l0,0l0,0l-0.1-0.1c-0.1,0.1-0.1,0.2-0.2,0.3c2.3,2.9,5,5.5,7.9,7.8l0.5-0.3
			l-0.3-0.3h0.1c0.2,0.3,0.5,0.6,0.7,0.9c0.5,0.5,1.1,1,1.7,1.3l-0.1-0.1l0.1-0.1c0.8,0.9,1.8,1.6,3,2.1l0,0l0,0l-0.1,0
			c0,0.1,0,0.2,0,0.2c3.3,1.8,6.7,3.2,10.3,4.2l0.3-0.4l-0.4-0.1l0.1,0c0.3,0.2,0.7,0.4,1,0.5c0.7,0.3,1.5,0.5,2.3,0.6l-0.2,0.2
			l0.6,0.1l-0.1-0.3c-0.1-0.1,3.3,0.5,3.2,0.5s0,0.2,0.1,0.2c3.7,0.4,7.5,0.4,11.2-0.1c0.1-0.1,0.1-0.3,0.2-0.4
			c1.1,0,2.1-0.1,3.2-0.3l-0.1,0.2l0.4-0.1l-0.2-0.2c-0.1,0-0.2,0-0.3,0v-0.2c1.2,0.1,2.4-0.1,3.6-0.6l0,0l0,0l-0.1,0l0.1,0.2
			c3.6-1,7.1-2.5,10.3-4.3c0-0.1,0-0.3,0-0.4l-0.4,0.2c0,0,0-0.1,0.1-0.1c1.1-0.3,2.2-0.8,3.1-1.5c0,0.1,0,0.1,0,0.2l0.2-0.1
			l-0.2-0.1c-0.1,0-0.2,0.1-0.3,0.1l-0.1-0.1c1.2-0.4,2.2-1.1,3.1-1.9l0,0l0,0c0,0,0,0-0.1,0.1l0.2,0.1c2.9-2.3,5.6-5,7.9-7.9
			l-0.2-0.4l-0.3,0.3c0,0,0-0.1,0-0.1c0.3-0.2,0.6-0.5,0.9-0.7c0.6-0.6,1-1.2,1.4-1.9l0.1,0.2l0.4-0.6h-0.4
			c-0.1,0.1-0.2,0.1-0.2,0.2l-0.1-0.1c0.9-0.8,1.6-1.8,2.1-2.9c0,0,0,0,0,0l0,0l0,0.1l0.3,0c1.4-2.5,2.5-5.1,3.4-7.8
			C123.4,95,122.6,95.5,121.8,95.9z"/>
		
			<radialGradient id="SVGID_27_" cx="163.85" cy="469.9" r="523.5" gradientTransform="matrix(0.579 0 0 -0.5758 -1.4648 120.9677)" gradientUnits="userSpaceOnUse">
			<stop  offset="0" style="stop-color:#F0DEC0"/>
			<stop  offset="1" style="stop-color:#AF8400"/>
		</radialGradient>
		<path class="st27" d="M55.1,118l-0.3,0.1l0.3,0.2C55.1,118.3,55.1,118.2,55.1,118L55.1,118z"/>
		
			<radialGradient id="SVGID_28_" cx="163.85" cy="469.89" r="523.48" gradientTransform="matrix(0.579 0 0 -0.5758 -1.4648 120.9677)" gradientUnits="userSpaceOnUse">
			<stop  offset="0" style="stop-color:#E5CC9C"/>
			<stop  offset="1" style="stop-color:#AF8400"/>
		</radialGradient>
		<path class="st28" d="M41.2,103.3c-0.1-0.4-0.3-0.7-0.3-1.1l-0.1-0.1l0.2,0.4l-0.6,0c0.5,0.9,1.1,1.8,1.7,2.7h0.4
			C41.9,104.7,41.5,104,41.2,103.3z"/>
		
			<radialGradient id="SVGID_29_" cx="163.85" cy="469.89" r="523.48" gradientTransform="matrix(0.579 0 0 -0.5758 -1.4648 120.9677)" gradientUnits="userSpaceOnUse">
			<stop  offset="0" style="stop-color:#F0DEC0"/>
			<stop  offset="1" style="stop-color:#AF8400"/>
		</radialGradient>
		<path class="st29" d="M41.2,103.3c-0.1-0.4-0.3-0.7-0.3-1.1l-0.1-0.1l0.2,0.4l-0.6,0c0.5,0.9,1.1,1.8,1.7,2.7h0.4
			C41.9,104.7,41.5,104,41.2,103.3z"/>
		
			<radialGradient id="SVGID_30_" cx="163.85" cy="469.88" r="523.46" gradientTransform="matrix(0.579 0 0 -0.5758 -1.4648 120.9677)" gradientUnits="userSpaceOnUse">
			<stop  offset="0" style="stop-color:#E5CC9C"/>
			<stop  offset="1" style="stop-color:#AF8400"/>
		</radialGradient>
		<path class="st30" d="M55,118c-0.6-0.4-1.2-0.8-1.7-1.3c-0.3-0.3-0.5-0.6-0.7-0.9h-0.1l0.3,0.3l-0.5,0.3c0.8,0.7,1.7,1.3,2.6,1.9
			l0.3-0.1L55,118z"/>
		
			<radialGradient id="SVGID_31_" cx="163.85" cy="469.89" r="523.48" gradientTransform="matrix(0.579 0 0 -0.5758 -1.4648 120.9677)" gradientUnits="userSpaceOnUse">
			<stop  offset="0" style="stop-color:#F0DEC0"/>
			<stop  offset="1" style="stop-color:#AF8400"/>
		</radialGradient>
		<path class="st31" d="M55,118c-0.6-0.4-1.2-0.8-1.7-1.3c-0.3-0.3-0.5-0.6-0.7-0.9h-0.1l0.3,0.3l-0.5,0.3c0.8,0.7,1.7,1.3,2.6,1.9
			l0.3-0.1L55,118z"/>
		
			<radialGradient id="SVGID_32_" cx="163.85" cy="469.89" r="523.46" gradientTransform="matrix(0.579 0 0 -0.5758 -1.4648 120.9677)" gradientUnits="userSpaceOnUse">
			<stop  offset="0" style="stop-color:#E5CC9C"/>
			<stop  offset="1" style="stop-color:#AF8400"/>
		</radialGradient>
		<path class="st32" d="M44.5,108.3L44.5,108.3L44.5,108.3c-0.9-0.8-1.5-1.9-1.9-3l-0.1,0.1c0.1,0.1,0.1,0.2,0.1,0.3
			c-0.1,0.1-0.1,0.3-0.2,0.4c0.6,0.9,1.2,1.7,1.9,2.6C44.4,108.4,44.4,108.3,44.5,108.3L44.5,108.3z"/>
		
			<radialGradient id="SVGID_33_" cx="163.85" cy="469.89" r="523.48" gradientTransform="matrix(0.579 0 0 -0.5758 -1.4648 120.9677)" gradientUnits="userSpaceOnUse">
			<stop  offset="0" style="stop-color:#F0DEC0"/>
			<stop  offset="1" style="stop-color:#AF8400"/>
		</radialGradient>
		<path class="st33" d="M44.5,108.3L44.5,108.3L44.5,108.3c-0.9-0.8-1.5-1.9-1.9-3l-0.1,0.1c0.1,0.1,0.1,0.2,0.1,0.3
			c-0.1,0.1-0.1,0.3-0.2,0.4c0.6,0.9,1.2,1.7,1.9,2.6C44.4,108.4,44.4,108.3,44.5,108.3L44.5,108.3z"/>
		
			<radialGradient id="SVGID_34_" cx="163.85" cy="469.9" r="523.49" gradientTransform="matrix(0.579 0 0 -0.5758 -1.4648 120.9677)" gradientUnits="userSpaceOnUse">
			<stop  offset="0" style="stop-color:#E5CC9C"/>
			<stop  offset="1" style="stop-color:#AF8400"/>
		</radialGradient>
		<path class="st34" d="M69.3,124.2c-0.4-0.1-0.7-0.3-1-0.5l-0.1,0l0.4,0.1l-0.3,0.4c1,0.3,2.1,0.5,3.1,0.7l0.2-0.2
			C70.8,124.7,70,124.5,69.3,124.2z"/>
		
			<radialGradient id="SVGID_35_" cx="163.85" cy="469.9" r="523.49" gradientTransform="matrix(0.579 0 0 -0.5758 -1.4648 120.9677)" gradientUnits="userSpaceOnUse">
			<stop  offset="0" style="stop-color:#F0DEC0"/>
			<stop  offset="1" style="stop-color:#AF8400"/>
		</radialGradient>
		<path class="st35" d="M69.3,124.2c-0.4-0.1-0.7-0.3-1-0.5l-0.1,0l0.4,0.1l-0.3,0.4c1,0.3,2.1,0.5,3.1,0.7l0.2-0.2
			C70.8,124.7,70,124.5,69.3,124.2z"/>
		
			<radialGradient id="SVGID_36_" cx="163.85" cy="469.9" r="523.48" gradientTransform="matrix(0.579 0 0 -0.5758 -1.4648 120.9677)" gradientUnits="userSpaceOnUse">
			<stop  offset="0" style="stop-color:#E5CC9C"/>
			<stop  offset="1" style="stop-color:#AF8400"/>
		</radialGradient>
		<path class="st36" d="M58,119.8L58,119.8L58,119.8c-1.1-0.4-2.2-1.2-3-2.1l-0.1,0.1L55,118l0.1,0.1h0l0,0c0,0.1,0,0.2,0,0.3
			c0.9,0.6,1.8,1.1,2.7,1.7C57.9,119.9,57.9,119.9,58,119.8L58,119.8z"/>
		
			<radialGradient id="SVGID_37_" cx="163.85" cy="469.9" r="523.48" gradientTransform="matrix(0.579 0 0 -0.5758 -1.4648 120.9677)" gradientUnits="userSpaceOnUse">
			<stop  offset="0" style="stop-color:#F0DEC0"/>
			<stop  offset="1" style="stop-color:#AF8400"/>
		</radialGradient>
		<path class="st37" d="M58,119.8L58,119.8L58,119.8c-1.1-0.4-2.2-1.2-3-2.1l-0.1,0.1L55,118l0.1,0.1h0l0,0c0,0.1,0,0.2,0,0.3
			c0.9,0.6,1.8,1.1,2.7,1.7C57.9,119.9,57.9,119.9,58,119.8L58,119.8z"/>
		
			<radialGradient id="SVGID_38_" cx="163.86" cy="469.83" r="523.37" gradientTransform="matrix(0.579 0 0 -0.5758 -1.4648 120.9677)" gradientUnits="userSpaceOnUse">
			<stop  offset="0" style="stop-color:#E5CC9C"/>
			<stop  offset="1" style="stop-color:#AF8400"/>
		</radialGradient>
		<path class="st38" d="M55.1,118L55.1,118L55.1,118L55.1,118z"/>
		
			<radialGradient id="SVGID_39_" cx="163.86" cy="469.84" r="523.39" gradientTransform="matrix(0.579 0 0 -0.5758 -1.4648 120.9677)" gradientUnits="userSpaceOnUse">
			<stop  offset="0" style="stop-color:#E5CC9C"/>
			<stop  offset="1" style="stop-color:#AF8400"/>
		</radialGradient>
		<path class="st39" d="M55.1,118L55.1,118L55.1,118L55.1,118z"/>
		
			<radialGradient id="SVGID_40_" cx="163.86" cy="469.84" r="523.39" gradientTransform="matrix(0.579 0 0 -0.5758 -1.4648 120.9677)" gradientUnits="userSpaceOnUse">
			<stop  offset="0" style="stop-color:#F0DEC0"/>
			<stop  offset="1" style="stop-color:#AF8400"/>
		</radialGradient>
		<path class="st40" d="M55.1,118L55.1,118L55.1,118L55.1,118z"/>
		
			<radialGradient id="SVGID_41_" cx="163.86" cy="469.91" r="523.49" gradientTransform="matrix(0.579 0 0 -0.5758 -1.4648 120.9677)" gradientUnits="userSpaceOnUse">
			<stop  offset="0" style="stop-color:#E5CC9C"/>
			<stop  offset="1" style="stop-color:#AF8400"/>
		</radialGradient>
		<path class="st41" d="M86.4,125.1c0,0.1-0.1,0.3-0.2,0.4c1.1-0.1,2.1-0.3,3.2-0.5l0.1-0.2C88.6,125,87.5,125.1,86.4,125.1z"/>
		
			<radialGradient id="SVGID_42_" cx="163.85" cy="469.9" r="523.48" gradientTransform="matrix(0.579 0 0 -0.5758 -1.4648 120.9677)" gradientUnits="userSpaceOnUse">
			<stop  offset="0" style="stop-color:#F0DEC0"/>
			<stop  offset="1" style="stop-color:#AF8400"/>
		</radialGradient>
		<path class="st42" d="M86.4,125.1c0,0.1-0.1,0.3-0.2,0.4c1.1-0.1,2.1-0.3,3.2-0.5l0.1-0.2C88.6,125,87.5,125.1,86.4,125.1z"/>
		
			<radialGradient id="SVGID_43_" cx="163.86" cy="469.97" r="523.56" gradientTransform="matrix(0.579 0 0 -0.5758 -1.4648 120.9677)" gradientUnits="userSpaceOnUse">
			<stop  offset="0" style="stop-color:#E5CC9C"/>
			<stop  offset="1" style="stop-color:#AF8400"/>
		</radialGradient>
		<path class="st43" d="M71.8,124.8l0.1,0.3c1,0.2,2.1,0.3,3.2,0.5c0-0.1,0-0.2-0.1-0.2S71.7,124.8,71.8,124.8z"/>
		
			<radialGradient id="SVGID_44_" cx="163.85" cy="469.95" r="523.55" gradientTransform="matrix(0.579 0 0 -0.5758 -1.4648 120.9677)" gradientUnits="userSpaceOnUse">
			<stop  offset="0" style="stop-color:#F0DEC0"/>
			<stop  offset="1" style="stop-color:#AF8400"/>
		</radialGradient>
		<path class="st44" d="M71.8,124.8l0.1,0.3c1,0.2,2.1,0.3,3.2,0.5c0-0.1,0-0.2-0.1-0.2S71.7,124.8,71.8,124.8z"/>
		
			<radialGradient id="SVGID_45_" cx="163.85" cy="469.91" r="523.5" gradientTransform="matrix(0.579 0 0 -0.5758 -1.4648 120.9677)" gradientUnits="userSpaceOnUse">
			<stop  offset="0" style="stop-color:#E5CC9C"/>
			<stop  offset="1" style="stop-color:#AF8400"/>
		</radialGradient>
		<path class="st45" d="M104.1,119.1c-0.4,0.1-0.7,0.3-1.1,0.3c0,0,0,0.1-0.1,0.1l0.4-0.2c0,0.1,0,0.3,0,0.4
			c0.9-0.5,1.9-1.1,2.8-1.7c0-0.1,0-0.1,0-0.2C105.5,118.4,104.8,118.8,104.1,119.1z"/>
		
			<radialGradient id="SVGID_46_" cx="163.85" cy="469.89" r="523.48" gradientTransform="matrix(0.579 0 0 -0.5758 -1.4648 120.9677)" gradientUnits="userSpaceOnUse">
			<stop  offset="0" style="stop-color:#F0DEC0"/>
			<stop  offset="1" style="stop-color:#AF8400"/>
		</radialGradient>
		<path class="st46" d="M104.1,119.1c-0.4,0.1-0.7,0.3-1.1,0.3c0,0,0,0.1-0.1,0.1l0.4-0.2c0,0.1,0,0.3,0,0.4
			c0.9-0.5,1.9-1.1,2.8-1.7c0-0.1,0-0.1,0-0.2C105.5,118.4,104.8,118.8,104.1,119.1z"/>
		
			<radialGradient id="SVGID_47_" cx="163.85" cy="469.92" r="523.5" gradientTransform="matrix(0.579 0 0 -0.5758 -1.4648 120.9677)" gradientUnits="userSpaceOnUse">
			<stop  offset="0" style="stop-color:#E5CC9C"/>
			<stop  offset="1" style="stop-color:#AF8400"/>
		</radialGradient>
		<path class="st47" d="M93,124L93,124L93,124c-1.1,0.5-2.3,0.7-3.6,0.6v0.2c0.1,0,0.2,0,0.3,0l0.2,0.2c1-0.2,2.1-0.5,3.1-0.8
			L93,124L93,124z"/>
		
			<radialGradient id="SVGID_48_" cx="163.85" cy="469.9" r="523.48" gradientTransform="matrix(0.579 0 0 -0.5758 -1.4648 120.9677)" gradientUnits="userSpaceOnUse">
			<stop  offset="0" style="stop-color:#F0DEC0"/>
			<stop  offset="1" style="stop-color:#AF8400"/>
		</radialGradient>
		<path class="st48" d="M93,124L93,124L93,124c-1.1,0.5-2.3,0.7-3.6,0.6v0.2c0.1,0,0.2,0,0.3,0l0.2,0.2c1-0.2,2.1-0.5,3.1-0.8
			L93,124L93,124z"/>
		
			<radialGradient id="SVGID_49_" cx="163.84" cy="469.92" r="523.5" gradientTransform="matrix(0.579 0 0 -0.5758 -1.4648 120.9677)" gradientUnits="userSpaceOnUse">
			<stop  offset="0" style="stop-color:#E5CC9C"/>
			<stop  offset="1" style="stop-color:#AF8400"/>
		</radialGradient>
		<path class="st49" d="M117.2,107.3c-0.3,0.3-0.6,0.5-0.9,0.7c0,0.1,0,0.1,0,0.1l0.3-0.3l0.2,0.4c0.7-0.8,1.3-1.7,1.9-2.6l-0.1-0.2
			C118.3,106.1,117.8,106.7,117.2,107.3z"/>
		
			<radialGradient id="SVGID_50_" cx="163.85" cy="469.89" r="523.48" gradientTransform="matrix(0.579 0 0 -0.5758 -1.4648 120.9677)" gradientUnits="userSpaceOnUse">
			<stop  offset="0" style="stop-color:#F0DEC0"/>
			<stop  offset="1" style="stop-color:#AF8400"/>
		</radialGradient>
		<path class="st50" d="M117.2,107.3c-0.3,0.3-0.6,0.5-0.9,0.7c0,0.1,0,0.1,0,0.1l0.3-0.3l0.2,0.4c0.7-0.8,1.3-1.7,1.9-2.6l-0.1-0.2
			C118.3,106.1,117.8,106.7,117.2,107.3z"/>
		
			<radialGradient id="SVGID_51_" cx="163.85" cy="469.92" r="523.5" gradientTransform="matrix(0.579 0 0 -0.5758 -1.4648 120.9677)" gradientUnits="userSpaceOnUse">
			<stop  offset="0" style="stop-color:#E5CC9C"/>
			<stop  offset="1" style="stop-color:#AF8400"/>
		</radialGradient>
		<path class="st51" d="M108.8,116L108.8,116L108.8,116c-0.9,0.9-1.9,1.5-3.1,1.9l0.1,0.1c0.1-0.1,0.2-0.1,0.3-0.1l0.2,0.1
			c0.9-0.6,1.7-1.2,2.6-1.9L108.8,116C108.8,116,108.8,116,108.8,116z"/>
		
			<radialGradient id="SVGID_52_" cx="163.85" cy="469.89" r="523.48" gradientTransform="matrix(0.579 0 0 -0.5758 -1.4648 120.9677)" gradientUnits="userSpaceOnUse">
			<stop  offset="0" style="stop-color:#F0DEC0"/>
			<stop  offset="1" style="stop-color:#AF8400"/>
		</radialGradient>
		<path class="st52" d="M108.8,116L108.8,116L108.8,116c-0.9,0.9-1.9,1.5-3.1,1.9l0.1,0.1c0.1-0.1,0.2-0.1,0.3-0.1l0.2,0.1
			c0.9-0.6,1.7-1.2,2.6-1.9L108.8,116C108.8,116,108.8,116,108.8,116z"/>
		
			<radialGradient id="SVGID_53_" cx="163.87" cy="469.88" r="523.46" gradientTransform="matrix(0.579 0 0 -0.5758 -1.4648 120.9677)" gradientUnits="userSpaceOnUse">
			<stop  offset="0" style="stop-color:#E5CC9C"/>
			<stop  offset="1" style="stop-color:#AF8400"/>
		</radialGradient>
		<path class="st53" d="M120.5,102.2L120.5,102.2C120.5,102.2,120.5,102.3,120.5,102.2c-0.5,1.2-1.2,2.2-2.1,3l0.1,0.1
			c0.1-0.1,0.1-0.2,0.2-0.2h0.4c0.6-0.9,1.1-1.8,1.7-2.7L120.5,102.2L120.5,102.2z"/>
		
			<radialGradient id="SVGID_54_" cx="163.85" cy="469.89" r="523.48" gradientTransform="matrix(0.579 0 0 -0.5758 -1.4648 120.9677)" gradientUnits="userSpaceOnUse">
			<stop  offset="0" style="stop-color:#F0DEC0"/>
			<stop  offset="1" style="stop-color:#AF8400"/>
		</radialGradient>
		<path class="st54" d="M120.5,102.2L120.5,102.2C120.5,102.2,120.5,102.3,120.5,102.2c-0.5,1.2-1.2,2.2-2.1,3l0.1,0.1
			c0.1-0.1,0.1-0.2,0.2-0.2h0.4c0.6-0.9,1.1-1.8,1.7-2.7L120.5,102.2L120.5,102.2z"/>
		<path class="st0" d="M32.8,57.5c-1.3,0.7-4.1-0.1-4,2.1c2.1,3,4.5,5.7,7.3,8.1c1-3.6,2.5-7,4.3-10.3C38,57.1,35.4,57.4,32.8,57.5z
			"/>
		<path class="st0" d="M118.9,40.2c-3.6,0.8-7,2-10.3,3.7c3,2.3,5.7,4.9,8,7.8c1.3-2.1,1.9-4.6,2.8-7
			C119.2,43.1,121.1,40.9,118.9,40.2z"/>
		<path class="st0" d="M121.7,31.1l-0.1-1.1c-1.7-2.2-4.1-3.7-6.2-5.1c-1.8-0.9-3.8-1.7-5.5-1.5c-1.5,0.6-2,2.1-2.4,3.5
			c-1.1,4.9-1.6,9.9-1.5,15l0,0.1c4.5-1.5,8.4-4.2,12.5-6.6C119.8,34.2,121.6,33,121.7,31.1z"/>
		<path class="st0" d="M36,92.4c-0.4,0.3-0.9,0.7-1.3,1.1c0.6,0.4,1.3,0.8,2,1.2C36.5,93.8,36.3,93.1,36,92.4z"/>
		<path class="st0" d="M103.1,40.1L103.1,40.1L103.1,40.1c0.5-2.4,0.2-5,0-7.7c-0.7-1.3,0.1-4-2.1-3.9c-3.1,2.1-5.8,4.6-8.3,7.4
			c4.5,1.2,8.8,3.2,12.8,5.7C104.8,41,104,40.5,103.1,40.1L103.1,40.1z"/>
		<path class="st0" d="M130,62.2c0.4-1.4,2.9-2.8,1.3-4.3c-3.6-0.6-7.2-0.8-10.8-0.6c1.8,3.2,3.3,6.6,4.3,10.2
			C126.7,66.1,128.3,64.2,130,62.2z"/>
		<path class="st0" d="M141.2,60.6c-1.4-0.7-2.9,0.1-4.2,0.8c-4.2,2.6-8,5.7-11.4,9.2c0,0.2,0.1,0.4,0.1,0.5c4.2,2,8.8,2.9,13.3,4
			c1.7,0.1,3.9,0.6,5.3-0.7l0.7-0.9c0.3-2.2-0.1-4.5-0.5-6.6C143.8,64.8,142.9,61.9,141.2,60.6z"/>
		<path class="st0" d="M132.7,53.3c1.7-0.5,3.9-1,4.6-2.7l0.3-1.1c-0.7-2.5-2.2-4.7-3.5-6.7c-1.4-1.6-3.1-3.5-4.9-3.9
			c-1.6-0.1-2.6,1.2-3.6,2.3c-2.9,4-5.2,8.4-7,13l0.3,0.4C123.5,54.9,128,54,132.7,53.3z"/>
		<path class="st0" d="M40.4,41.8c0.8,3.5,2,7,3.6,10.2c2.3-2.9,4.9-5.6,7.9-7.9c-2.1-1.2-4.6-1.9-7-2.8
			C43.4,41.5,41.2,39.7,40.4,41.8z"/>
		<path class="st0" d="M62.8,30.7c-1.4-0.4-2.8-2.9-4.3-1.3c-0.6,3.6-0.8,7.2-0.6,10.8c3.3-1.8,6.7-3.2,10.3-4.2
			C66.8,34,64.7,32.4,62.8,30.7z"/>
		<path class="st0" d="M35.5,42.3c-1.2-1.3-2.4-3.2-4.2-3.2l-1.1,0.1c-2,1.5-3.4,3.7-4.8,5.6c-1,1.9-2,4-1.7,5.9
			c0.6,1.5,2.1,2,3.5,2.4c4.9,1.1,9.9,1.6,14.9,1.5v0C40.6,50.2,38,46.3,35.5,42.3z"/>
		<path class="st0" d="M53.7,28c-0.5-1.7-1-3.8-2.7-4.6L50,23.1c-2.4,0.6-4.5,2.1-6.5,3.3c-1.7,1.4-3.9,3.2-4.4,5.3
			c-0.1,1.6,1.2,2.6,2.3,3.6c4,2.8,8.4,5.2,13,7l0.6-0.4C55.4,37.2,54.5,32.6,53.7,28z"/>
		<path class="st0" d="M124.2,94.6c0.7-0.4,1.4-0.8,2.1-1.3c-0.4-0.4-0.9-0.8-1.4-1.2C124.7,92.9,124.5,93.8,124.2,94.6z"/>
		<path class="st0" d="M75.8,21.8c0.1-1.7,0.6-3.9-0.7-5.2l-0.9-0.7c-2.6-0.4-5.2,0.2-7.6,0.7c-2,0.6-4.4,1.5-5.5,3
			c-0.7,1.4,0.1,2.9,0.8,4.2c2.7,4.2,5.8,8,9.4,11.5l0.5-0.1C73.9,30.9,74.7,26.3,75.8,21.8z"/>
		<path class="st0" d="M79.7,24.9c-1.9,3-3.5,6.3-4.6,9.7c3.7-0.4,7.5-0.4,11.2,0c-0.6-2.3-1.9-4.6-3-6.9
			C82,26.7,81.7,23.9,79.7,24.9z"/>
		<path class="st0" d="M98.6,24.2c0.8-1.6,2-3.4,1.3-5.1l-0.6-1c-1.3-0.7-2.7-1.3-4.2-1.6c-0.5-0.1-1-0.2-1.5-0.2
			c-2.4-0.2-5.7-0.7-7.7,0.5c-1.2,1.1-1,2.7-0.9,4.2c0.8,4.9,2.3,9.6,4.3,14.2c0.7,0.1,1.3,0.3,2,0.4c-0.6-0.2-1.2-0.3-1.8-0.4
			C93.1,32,95.7,28,98.6,24.2z"/>
		<path class="st0" d="M125.7,88.9c0.9,1,1.9,2,3,2.9c3.3-2.2,6.5-4.5,9.5-7.1c-4.3,0.9-8.4,2.2-12.4,3.9L125.7,88.9z"/>
		<path class="st0" d="M80.5,36.1c-24.5,0-44.3,19.8-44.3,44.1c0,5.4,1,10.7,2.9,15.7c25.8,13.7,56.9,13.7,82.7,0
			c8.8-22.7-2.7-48.2-25.5-56.9C91.2,37,85.9,36.1,80.5,36.1z"/>
		<path class="st0" d="M24.5,62c-1.6-0.8-3.4-2-5.2-1.3l-1,0.6c-1,1.9-1.7,3.9-2,5.9c-0.2,2.3-0.6,5.5,0.6,7.5
			c1.1,1.2,2.7,1,4.2,0.9c4.9-0.8,9.6-2.3,14.1-4.2c0-0.1,0.1-0.3,0.1-0.4C32.2,67.3,28.3,64.8,24.5,62z"/>
		<path class="st0" d="M126.2,85.4c2.3-0.6,4.5-1.8,6.8-3c0.9-1.2,3.8-1.5,2.8-3.5c-3-1.9-6.3-3.5-9.7-4.6
			C126.6,78,126.6,81.8,126.2,85.4z"/>
		<path class="st0" d="M34.7,74.4c-2.3,0.6-4.5,1.8-6.9,3c-0.9,1.2-3.8,1.5-2.8,3.5c3,1.9,6.3,3.5,9.7,4.6
			C34.2,81.8,34.3,78.1,34.7,74.4z"/>
		<path class="st0" d="M35.3,89.3c0-0.2-0.1-0.4-0.1-0.7c-3.8-1.8-8-2.7-12.1-3.7c3,2.6,6.1,4.9,9.4,7.1
			C33.5,91.1,34.4,90.2,35.3,89.3z"/>
		<path class="st55" d="M45.5,24.9c-0.5,0.3-0.9,0.6-1.3,1l-0.7,0.6c2-1.3,4.1-2.7,6.5-3.3l1.1,0.3c1.7,0.7,2.2,2.9,2.7,4.6
			c0.7,4.6,1.7,9.2,1.4,13.8c0.9-0.6,1.8-1.1,2.8-1.7c-0.2-3.6-0.1-7.2,0.6-10.8c1.5-1.6,2.9,0.9,4.3,1.3c2,1.7,4,3.3,5.4,5.3
			c1-0.3,2.1-0.5,3.1-0.7c-3.6-3.4-6.8-7.3-9.4-11.4c-0.7-1.3-1.5-2.7-0.8-4.2c1.2-1.5,3.5-2.4,5.5-3l-0.8,0.1l-0.6-2.1
			c1-0.3,2.1-0.6,3.1-0.9c-2.6,0.3-5.3,0.4-8,0.3C55.6,13,53,9.5,51.4,5.3c-1.2,0.5-2.7,1.1-3.7,1.5c2.2,4.5,2.6,9.9-1.3,13.9
			c-1,1-2.1,1.9-3.2,2.8c0.4-0.2,0.8-0.4,1.2-0.7L45.5,24.9z"/>
		<path class="st55" d="M27,42.1c-0.3,0.5-0.6,0.9-0.9,1.4s-0.5,0.9-0.8,1.4c1.4-1.9,2.7-4.1,4.8-5.6l1.1-0.1c1.9,0,3.1,1.9,4.2,3.2
			c2.5,4,5.1,7.9,6.6,12.3c0.6-0.9,1.2-1.8,1.9-2.6c-1.6-3.2-2.8-6.7-3.6-10.2c0.8-2.1,3-0.3,4.5-0.5c2.5,0.9,4.9,1.5,7,2.8
			c0.8-0.7,1.7-1.3,2.6-1.9c-4.6-1.8-9-4.1-13-7c-1.2-0.9-2.4-2-2.3-3.6c0.5-2,2.6-3.8,4.4-5.3L42.6,27l-1.4-1.7
			c0.7-0.5,1.4-1.1,2.1-1.7c-2.3,1.2-4.6,2.3-7.1,3.2c-4.8,1-8.5-1.2-11.5-4.5c-0.9,0.9-2.1,2-2.8,2.8c3.7,3.3,6.2,8.1,4.2,13.4
			c-0.5,1.1-1,2.2-1.5,3.2c0.3-0.3,0.5-0.7,0.8-1L27,42.1z"/>
		
			<radialGradient id="SVGID_55_" cx="163.85" cy="469.89" r="523.49" gradientTransform="matrix(0.579 0 0 -0.5758 -1.4648 120.9677)" gradientUnits="userSpaceOnUse">
			<stop  offset="0" style="stop-color:#E5CC9C"/>
			<stop  offset="1" style="stop-color:#AF8400"/>
		</radialGradient>
		<path class="st56" d="M42.6,27l0.9-0.6l0.7-0.6c0.4-0.4,0.9-0.7,1.3-1l-1.1-2c-0.4,0.2-0.8,0.4-1.2,0.7c-0.7,0.6-1.4,1.2-2.1,1.7
			L42.6,27z"/>
		<path class="st55" d="M42.6,27l0.9-0.6l0.7-0.6c0.4-0.4,0.9-0.7,1.3-1l-1.1-2c-0.4,0.2-0.8,0.4-1.2,0.7c-0.7,0.6-1.4,1.2-2.1,1.7
			L42.6,27z"/>
		<path class="st55" d="M19.3,60.6c1.7-0.7,3.6,0.5,5.2,1.3c3.8,2.8,7.7,5.3,10.9,8.9c0.2-1.1,0.5-2.1,0.8-3.1
			c-2.8-2.4-5.2-5.1-7.3-8.1c-0.1-2.2,2.6-1.4,4-2.1c2.7-0.1,5.2-0.5,7.7-0.1c0.5-0.9,1.1-1.8,1.7-2.7c-5,0.1-10-0.4-14.9-1.5
			c-1.4-0.4-3-0.9-3.5-2.4c-0.3-1.9,0.7-4,1.7-5.9c-0.2,0.3-0.4,0.5-0.6,0.8l-2-1.1c0.6-1,1.1-2,1.6-3c-1.7,2-3.4,3.9-5.4,5.7
			c-4.1,2.7-8.3,2.1-12.4,0.2c-0.5,1.2-1.1,2.6-1.5,3.7c4.7,1.6,8.8,5.2,9,10.7c0,1.5-0.1,3-0.3,4.4c0.2-0.6,0.4-1.2,0.5-1.8
			l2.1,0.6c-0.1,0.5-0.2,1.1-0.2,1.6v0.2c0.3-2.1,1-4.1,2-5.9L19.3,60.6z"/>
		
			<radialGradient id="SVGID_56_" cx="163.85" cy="469.9" r="523.49" gradientTransform="matrix(0.579 0 0 -0.5758 -1.4648 120.9677)" gradientUnits="userSpaceOnUse">
			<stop  offset="0" style="stop-color:#E5CC9C"/>
			<stop  offset="1" style="stop-color:#AF8400"/>
		</radialGradient>
		<path class="st57" d="M24.8,45.7c0.2-0.3,0.4-0.5,0.6-0.8c0.3-0.5,0.5-1,0.8-1.4c0.2-0.4,0.6-1,0.9-1.4l-1.7-1.4
			c-0.3,0.3-0.5,0.7-0.8,1c-0.5,1-1.1,2-1.6,3L24.8,45.7z"/>
		<path class="st55" d="M24.8,45.7c0.2-0.3,0.4-0.5,0.6-0.8c0.3-0.5,0.5-1,0.8-1.4c0.2-0.4,0.6-1,0.9-1.4l-1.7-1.4
			c-0.3,0.3-0.5,0.7-0.8,1c-0.5,1-1.1,2-1.6,3L24.8,45.7z"/>
		<path class="st55" d="M23,84.9c4.2,1,8.3,1.9,12.1,3.7c-0.2-1-0.4-2.1-0.5-3.2c-3.4-1.1-6.6-2.7-9.7-4.6c-0.9-2,1.9-2.3,2.8-3.5
			c2.3-1.1,4.6-2.4,6.9-3c0.1-1.1,0.3-2.1,0.5-3.1c-4.5,2-9.3,3.4-14.1,4.3c-1.5,0.1-3.1,0.3-4.2-0.9c-1.2-2-0.8-5.2-0.6-7.5
			c-0.2,0.7-0.3,1.4-0.5,2.1l-2.2-0.2c0.1-0.8,0.2-1.7,0.3-2.5c-0.7,2.2-1.5,4.3-2.5,6.4C14.9,77.3,18.8,81.3,23,84.9z"/>
		
			<radialGradient id="SVGID_57_" cx="163.85" cy="469.9" r="523.5" gradientTransform="matrix(0.579 0 0 -0.5758 -1.4648 120.9677)" gradientUnits="userSpaceOnUse">
			<stop  offset="0" style="stop-color:#E5CC9C"/>
			<stop  offset="1" style="stop-color:#AF8400"/>
		</radialGradient>
		<path class="st58" d="M16.6,65.3l-2.2-0.6c-0.2,0.6-0.3,1.2-0.5,1.8c-0.1,0.8-0.2,1.7-0.3,2.5l2.2,0.2c0.2-0.7,0.3-1.4,0.5-2.1
			v-0.2C16.4,66.4,16.5,65.8,16.6,65.3z"/>
		<path class="st55" d="M16.6,65.3l-2.2-0.6c-0.2,0.6-0.3,1.2-0.5,1.8c-0.1,0.8-0.2,1.7-0.3,2.5l2.2,0.2c0.2-0.7,0.3-1.4,0.5-2.1
			v-0.2C16.4,66.4,16.5,65.8,16.6,65.3z"/>
		
			<radialGradient id="SVGID_58_" cx="163.85" cy="469.89" r="523.48" gradientTransform="matrix(0.579 0 0 -0.5758 -1.4648 120.9677)" gradientUnits="userSpaceOnUse">
			<stop  offset="0" style="stop-color:#E5CC9C"/>
			<stop  offset="1" style="stop-color:#AF8400"/>
		</radialGradient>
		<path class="st59" d="M35.3,89.3c-0.9,0.9-1.8,1.8-2.8,2.7c0.8,0.5,1.5,1,2.3,1.4c0.4-0.4,0.8-0.7,1.3-1.1
			C35.8,91.3,35.5,90.3,35.3,89.3z"/>
		
			<radialGradient id="SVGID_59_" cx="163.86" cy="469.88" r="523.46" gradientTransform="matrix(0.579 0 0 -0.5758 -1.4648 120.9677)" gradientUnits="userSpaceOnUse">
			<stop  offset="0" style="stop-color:#E5CC9C"/>
			<stop  offset="1" style="stop-color:#AF8400"/>
		</radialGradient>
		<path class="st60" d="M125.7,88.9c-0.2,1.1-0.5,2.1-0.7,3.1c0.5,0.4,0.9,0.8,1.4,1.2c0.8-0.5,1.5-1,2.3-1.5
			C127.6,90.9,126.6,90,125.7,88.9z"/>
		<path class="st55" d="M147,67.2c0.1,0.6,0.1,1.1,0.2,1.7l-2.2,0.2c-0.1-0.5-0.2-1.1-0.4-1.6l-0.2-0.5c0.4,2.1,0.8,4.4,0.5,6.6
			l-0.7,0.9c-1.3,1.3-3.5,0.9-5.3,0.7c-4.6-1.1-9.1-2-13.3-4c0.2,1,0.4,2.1,0.5,3.2c3.4,1.1,6.7,2.7,9.7,4.6c0.9,2-1.9,2.3-2.8,3.5
			c-2.3,1.1-4.5,2.3-6.8,3c-0.1,1.1-0.3,2.1-0.5,3.1c4-1.7,8.1-3,12.4-3.8c4.1-3.6,7.9-7.5,11.2-11.8c-0.4-0.5-0.7-1.1-0.9-1.6
			C147.9,69.9,147.5,68.6,147,67.2z"/>
		<path class="st55" d="M136,45.3c-0.3-0.4-0.6-0.9-1-1.3c-0.4-0.4-0.6-0.8-0.9-1.2c1.3,2,2.9,4.2,3.5,6.7l-0.3,1.1
			c-0.7,1.7-2.9,2.1-4.6,2.7c-4.7,0.7-9.2,1.7-13.9,1.4c0.6,0.9,1.2,1.8,1.7,2.7c3.6-0.2,7.2,0,10.8,0.6c1.7,1.5-0.9,2.9-1.3,4.3
			c-1.7,1.9-3.3,3.9-5.2,5.3c0.3,1,0.5,2,0.8,3.1c3.4-3.5,7.2-6.6,11.4-9.2c1.3-0.7,2.8-1.5,4.2-0.8c1.7,1.3,2.6,4.2,3.3,6.4
			c-0.1-0.6-0.2-1.2-0.3-1.7l2.2-0.6c0.2,0.9,0.5,1.7,0.7,2.6c-0.2-2.4-0.3-4.9-0.2-7.4c0.9-4.8,4.4-7.3,8.6-8.9
			c-0.5-1.2-1.1-2.7-1.5-3.7c-4.5,2.2-9.9,2.6-14-1.3c-0.9-0.9-1.7-1.9-2.5-2.8c0.2,0.3,0.4,0.6,0.6,1L136,45.3z"/>
		
			<radialGradient id="SVGID_60_" cx="163.83" cy="469.9" r="523.5" gradientTransform="matrix(0.579 0 0 -0.5758 -1.4648 120.9677)" gradientUnits="userSpaceOnUse">
			<stop  offset="0" style="stop-color:#E5CC9C"/>
			<stop  offset="1" style="stop-color:#AF8400"/>
		</radialGradient>
		<path class="st61" d="M144.1,65.3c0.1,0.6,0.2,1.1,0.3,1.7l0.2,0.5c0.2,0.5,0.3,1.1,0.4,1.6l2.2-0.2c-0.1-0.6-0.1-1.1-0.2-1.7
			c-0.3-0.8-0.5-1.7-0.7-2.6L144.1,65.3z"/>
		<path class="st55" d="M144.1,65.3c0.1,0.6,0.2,1.1,0.3,1.7l0.2,0.5c0.2,0.5,0.3,1.1,0.4,1.6l2.2-0.2c-0.1-0.6-0.1-1.1-0.2-1.7
			c-0.3-0.8-0.5-1.7-0.7-2.6L144.1,65.3z"/>
		<path class="st55" d="M118.6,26.7c-0.5-0.3-0.9-0.6-1.4-0.9c-0.5-0.3-1.2-0.7-1.9-1c2.1,1.5,4.5,2.9,6.2,5.1l0.1,1.1
			c0,1.9-1.9,3.1-3.2,4.2c-4.1,2.5-8,5.1-12.5,6.6l0,0c0.9,0.6,1.8,1.2,2.6,1.9c3.3-1.6,6.7-2.9,10.3-3.7c2.1,0.8,0.3,3,0.5,4.5
			c-0.9,2.5-1.6,5-2.8,7c0.7,0.8,1.3,1.7,1.9,2.6c1.8-4.6,4.2-9,7-13c0.9-1.2,2-2.4,3.6-2.3c1.9,0.5,3.5,2.3,4.9,3.9l-0.4-0.6
			l1.7-1.4c0.6,0.9,1.3,1.7,2,2.5c-1.3-2.3-2.4-4.7-3.3-7.2c-1-4.8,1.3-8.4,4.5-11.5c-0.9-0.9-2-2-2.8-2.8
			c-3.3,3.7-8.2,6.1-13.4,4.2c-1-0.4-2-0.9-3-1.4L120,25L118.6,26.7z"/>
		
			<radialGradient id="SVGID_61_" cx="163.86" cy="469.9" r="523.47" gradientTransform="matrix(0.579 0 0 -0.5758 -1.4648 120.9677)" gradientUnits="userSpaceOnUse">
			<stop  offset="0" style="stop-color:#E5CC9C"/>
			<stop  offset="1" style="stop-color:#AF8400"/>
		</radialGradient>
		<path class="st62" d="M133.6,42.2l0.4,0.6c0.3,0.4,0.7,0.8,0.9,1.2s0.7,0.9,1,1.3l2-1.1c-0.2-0.3-0.4-0.6-0.6-1
			c-0.7-0.8-1.4-1.6-2-2.5L133.6,42.2z"/>
		<path class="st55" d="M133.6,42.2l0.4,0.6c0.3,0.4,0.7,0.8,0.9,1.2s0.7,0.9,1,1.3l2-1.1c-0.2-0.3-0.4-0.6-0.6-1
			c-0.7-0.8-1.4-1.6-2-2.5L133.6,42.2z"/>
		<path class="st55" d="M95.3,16.5h-0.2c1.5,0.3,2.9,0.9,4.2,1.6l0.6,1c0.7,1.7-0.5,3.6-1.3,5.1c-2.9,3.9-5.5,7.8-9.1,11
			c0.6,0.1,1.2,0.2,1.8,0.4c0.5,0.1,0.9,0.2,1.4,0.3c2.4-2.8,5.2-5.3,8.3-7.4c2.2-0.1,1.4,2.6,2.1,3.9c0.2,2.7,0.5,5.3,0.1,7.8
			l-0.1,0l0,0h0c0.8,0.3,1.6,0.8,2.3,1.5l0.5,0.3l0,0l0-0.1c-0.1-5,0.4-10.1,1.5-15c0.4-1.4,0.9-3,2.4-3.5c1.7-0.2,3.7,0.6,5.5,1.5
			l-0.3-0.2l1.1-2c1.1,0.6,2.1,1.2,3.2,1.8c-2.2-1.7-4.2-3.6-6.1-5.6c-2.7-4-2.1-8.3-0.2-12.3c-1.2-0.5-2.7-1.1-3.7-1.5
			c-1.6,4.7-5.2,8.8-10.8,9c-1.7-0.1-3.4-0.1-5.1-0.3c0.8,0.3,1.7,0.5,2.5,0.7L95.3,16.5z"/>
		
			<radialGradient id="SVGID_62_" cx="163.85" cy="469.9" r="523.48" gradientTransform="matrix(0.579 0 0 -0.5758 -1.4648 120.9677)" gradientUnits="userSpaceOnUse">
			<stop  offset="0" style="stop-color:#E5CC9C"/>
			<stop  offset="1" style="stop-color:#AF8400"/>
		</radialGradient>
		<path class="st63" d="M115.1,24.7l0.3,0.2c0.7,0.3,1.3,0.7,1.9,1c0.6,0.3,1,0.6,1.4,0.9L120,25l-0.6-0.5c-1.1-0.6-2.2-1.2-3.2-1.8
			L115.1,24.7z"/>
		<path class="st55" d="M115.1,24.7l0.3,0.2c0.7,0.3,1.3,0.7,1.9,1c0.6,0.3,1,0.6,1.4,0.9L120,25l-0.6-0.5c-1.1-0.6-2.2-1.2-3.2-1.8
			L115.1,24.7z"/>
		
			<radialGradient id="SVGID_63_" cx="185.615" cy="137.23" r="3.824109e-02" gradientTransform="matrix(0.579 0 0 -0.5758 -1.4648 120.9677)" gradientUnits="userSpaceOnUse">
			<stop  offset="0" style="stop-color:#E5CC9C"/>
			<stop  offset="1" style="stop-color:#AF8400"/>
		</radialGradient>
		<path class="st64" d="M106,41.9L106,41.9L106,41.9L106,41.9z"/>
		
			<radialGradient id="SVGID_64_" cx="185.615" cy="137.23" r="3.824109e-02" gradientTransform="matrix(0.579 0 0 -0.5758 -1.4648 120.9677)" gradientUnits="userSpaceOnUse">
			<stop  offset="0" style="stop-color:#E5CC9C"/>
			<stop  offset="1" style="stop-color:#AF8400"/>
		</radialGradient>
		<path class="st65" d="M106,41.9L106,41.9L106,41.9L106,41.9z"/>
		<path class="st55" d="M69.7,15.7c-0.5,0.1-1.1,0.2-1.6,0.4l-1.4,0.4c2.4-0.4,5-1,7.6-0.7l0.9,0.7c1.3,1.3,0.9,3.5,0.7,5.2
			c-1.1,4.6-2,9.1-4.1,13.3c1-0.2,2.1-0.4,3.2-0.5c1.1-3.4,2.7-6.7,4.6-9.7c2-0.9,2.3,1.9,3.5,2.8c1.2,2.4,2.4,4.6,3,6.9
			c1.1,0.1,2.1,0.3,3.2,0.5c-2-4.5-3.4-9.3-4.3-14.2c-0.2-1.5-0.3-3.1,0.9-4.2c2-1.2,5.4-0.8,7.7-0.5c0.5,0.1,1,0.1,1.5,0.2
			c-1.3-0.3-2.6-0.6-3.8-0.8l0.2-2.2c0.6,0.1,1.2,0.2,1.8,0.2c-2-0.7-4-1.5-6-2.3c-4.1-2.7-5.1-6.9-5-11.3c-1.3,0-2.9,0-4,0
			c0.3,5-1.4,10.1-6.5,12.4c-1.2,0.4-2.4,0.9-3.6,1.3c0.4,0,0.8-0.1,1.2-0.1L69.7,15.7z"/>
		
			<radialGradient id="SVGID_65_" cx="163.85" cy="469.89" r="523.48" gradientTransform="matrix(0.579 0 0 -0.5758 -1.4648 120.9677)" gradientUnits="userSpaceOnUse">
			<stop  offset="0" style="stop-color:#E5CC9C"/>
			<stop  offset="1" style="stop-color:#AF8400"/>
		</radialGradient>
		<path class="st66" d="M65.9,16.7l0.8-0.1l1.4-0.4c0.5-0.2,1.1-0.3,1.6-0.4l-0.2-2.2c-0.4,0.1-0.8,0.1-1.2,0.1
			c-1,0.3-2,0.6-3.1,0.9L65.9,16.7z"/>
		<path class="st55" d="M65.9,16.7l0.8-0.1l1.4-0.4c0.5-0.2,1.1-0.3,1.6-0.4l-0.2-2.2c-0.4,0.1-0.8,0.1-1.2,0.1
			c-1,0.3-2,0.6-3.1,0.9L65.9,16.7z"/>
		
			<radialGradient id="SVGID_66_" cx="163.84" cy="469.9" r="523.5" gradientTransform="matrix(0.579 0 0 -0.5758 -1.4648 120.9677)" gradientUnits="userSpaceOnUse">
			<stop  offset="0" style="stop-color:#E5CC9C"/>
			<stop  offset="1" style="stop-color:#AF8400"/>
		</radialGradient>
		<path class="st67" d="M91.4,15.6c1.2,0.3,2.5,0.5,3.8,0.8h0.2l0.6-2.1c-0.8-0.2-1.7-0.5-2.5-0.7c-0.6-0.1-1.2-0.1-1.8-0.2
			L91.4,15.6z"/>
		<path class="st55" d="M91.4,15.6c1.2,0.3,2.5,0.5,3.8,0.8h0.2l0.6-2.1c-0.8-0.2-1.7-0.5-2.5-0.7c-0.6-0.1-1.2-0.1-1.8-0.2
			L91.4,15.6z"/>
		
			<radialGradient id="SVGID_67_" cx="163.85" cy="469.89" r="523.47" gradientTransform="matrix(0.579 0 0 -0.5758 -1.4648 120.9677)" gradientUnits="userSpaceOnUse">
			<stop  offset="0" style="stop-color:#F0DEC0"/>
			<stop  offset="1" style="stop-color:#AF8400"/>
		</radialGradient>
		<path class="st68" d="M35.6,89c0-0.1,0-0.1,0-0.2l-0.4-0.2c0,0.2,0.1,0.4,0.1,0.7L35.6,89z"/>
		
			<radialGradient id="SVGID_68_" cx="75.365" cy="115.165" r="3.500175e-02" gradientTransform="matrix(0.579 0 0 -0.5758 -1.4648 120.9677)" gradientUnits="userSpaceOnUse">
			<stop  offset="0" style="stop-color:#F0DEC0"/>
			<stop  offset="1" style="stop-color:#AF8400"/>
		</radialGradient>
		<path class="st69" d="M42.2,54.6L42.2,54.6L42.2,54.6L42.2,54.6z"/>
		
			<radialGradient id="SVGID_69_" cx="163.85" cy="469.89" r="523.47" gradientTransform="matrix(0.579 0 0 -0.5758 -1.4648 120.9677)" gradientUnits="userSpaceOnUse">
			<stop  offset="0" style="stop-color:#F0DEC0"/>
			<stop  offset="1" style="stop-color:#AF8400"/>
		</radialGradient>
		<path class="st70" d="M118.5,54.6h0.3l-0.3-0.4l-0.1,0.2C118.4,54.5,118.4,54.6,118.5,54.6z"/>
		
			<radialGradient id="SVGID_70_" cx="163.84" cy="469.88" r="523.47" gradientTransform="matrix(0.579 0 0 -0.5758 -1.4648 120.9677)" gradientUnits="userSpaceOnUse">
			<stop  offset="0" style="stop-color:#F0DEC0"/>
			<stop  offset="1" style="stop-color:#AF8400"/>
		</radialGradient>
		<path class="st71" d="M71.7,35.3l0.1-0.3l-0.5,0.1l0.2,0.2L71.7,35.3L71.7,35.3z"/>
		
			<radialGradient id="SVGID_71_" cx="163.85" cy="469.89" r="523.48" gradientTransform="matrix(0.579 0 0 -0.5758 -1.4648 120.9677)" gradientUnits="userSpaceOnUse">
			<stop  offset="0" style="stop-color:#F0DEC0"/>
			<stop  offset="1" style="stop-color:#AF8400"/>
		</radialGradient>
		<path class="st72" d="M35.3,85.2l0.1,0.1c-0.2,1.1-0.1,2.2,0.2,3.3l0,0h0.2c-0.1,1.2,0.1,2.4,0.6,3.5l0,0l0,0c0,0,0-0.1,0-0.1
			L36,92.3c0.2,0.8,0.4,1.5,0.7,2.2c0.8,0.4,1.6,0.9,2.4,1.3C30.3,73.2,41.8,47.7,64.6,39s48.4,2.7,57.2,25.4
			c3.9,10.1,3.9,21.4,0,31.5c0.8-0.4,1.6-0.9,2.4-1.3c0.3-0.8,0.5-1.7,0.8-2.5l-0.4-0.3l-0.1,0.4l0-0.1c0.2-0.3,0.4-0.7,0.5-1
			c0.3-0.7,0.5-1.5,0.6-2.3l0.2,0.2l0.1-0.4l-0.4,0.2c-0.1,0.1-0.1,0.2-0.1,0.3l-0.2,0c0.5-1.1,0.8-2.3,0.8-3.5c0,0,0,0,0,0l0,0
			c0,0,0,0.1,0,0.1l0.3-0.1c0.4-3.7,0.4-7.4,0-11.1l-0.6-0.2v0.4l-0.1-0.1c0.1-0.4,0.1-0.8,0.1-1.2c0-0.8-0.1-1.6-0.3-2.3l0.3,0.2
			c0-0.2-0.1-0.4-0.1-0.5l-0.3,0.3c0,0.1,0,0.2,0,0.3H125c0.1-1.2-0.1-2.4-0.6-3.5l0,0l0,0l0,0.1l0.3-0.2c-1-3.6-2.5-7-4.3-10.2
			l-0.6,0l0.2,0.4l-0.1-0.1c-0.1-0.4-0.2-0.7-0.3-1.1c-0.3-0.7-0.7-1.3-1.1-1.9l-0.1,0.1c-0.4-1.2-1.1-2.2-1.9-3l0,0l0,0l0.1,0.1
			l0.1-0.1c-2.3-2.9-5-5.6-7.9-7.9l-0.3,0.2l0.3,0.3h-0.2c-0.2-0.3-0.5-0.6-0.7-0.9c-0.5-0.5-1-0.9-1.6-1.2l-0.1,0.1l-0.2-0.2h0l0,0
			c-0.1-0.1-0.3-0.3-0.4-0.4c-3.9-2.5-8.2-4.5-12.8-5.7l-0.1,0.2l0.4,0.1l-0.1,0c-0.3-0.2-0.7-0.4-1-0.5c-0.2-0.1-0.3-0.1-0.5-0.2
			c-0.7-0.2-1.3-0.3-2-0.4l0.1,0.2c0.1,0.1,0.2,0.1,0.3,0.1l0,0.2c-1.1-0.5-2.3-0.8-3.5-0.8h0.1c0-0.1,0-0.1-0.1-0.2
			c-3.7-0.4-7.5-0.4-11.2,0c-0.1,0.2-0.1,0.3-0.2,0.5h0.4l-0.1,0.1c-0.4-0.1-0.8-0.1-1.2-0.1c-0.7,0-1.4,0.1-2.1,0.3v0.2
			c-1.2-0.1-2.4,0.1-3.6,0.5l0,0l0,0l0.1,0l-0.1-0.2c-3.6,1-7.1,2.4-10.4,4.2c0,0.2,0,0.3,0,0.5l0.4-0.2l-0.1,0.1
			c-0.4,0.1-0.7,0.2-1.1,0.3c-0.7,0.3-1.4,0.7-2,1.2c0-0.1,0-0.2,0-0.3l-0.6,0.4l0.3,0.1c0.1,0,0.2-0.1,0.3-0.1l0.1,0.1
			c-1.2,0.4-2.2,1.1-3,1.9l0,0l0,0l0.1-0.1l-0.2-0.1c-2.9,2.3-5.6,5-7.9,7.9c0.1,0.1,0.1,0.3,0.2,0.4l0.3-0.3c0,0,0,0.1,0,0.1
			c-0.3,0.2-0.6,0.5-0.9,0.7c-0.4,0.4-0.8,0.9-1.2,1.4l0.1,0.1c-0.9,0.8-1.6,1.8-2.1,2.9l0,0l0,0c0,0,0-0.1,0-0.1h-0.1
			c-1.9,3.2-3.3,6.7-4.3,10.3l0.3,0.3l0.1-0.4c0,0,0,0.1,0,0.1c-0.2,0.3-0.4,0.7-0.5,1c-0.3,0.7-0.5,1.5-0.6,2.3l-0.2-0.2
			c0,0.1-0.1,0.3-0.1,0.4l0.3-0.1c0.1-0.1,0.1-0.2,0.1-0.3l0.2,0c-0.5,1.1-0.8,2.3-0.8,3.5c0,0,0,0,0,0l0,0c0,0,0-0.1,0-0.1
			l-0.3,0.1c-0.5,3.7-0.5,7.4,0,11.1l0.6,0.2L35.3,85.2z"/>
		
			<radialGradient id="SVGID_72_" cx="163.85" cy="469.89" r="523.48" gradientTransform="matrix(0.579 0 0 -0.5758 -1.4648 120.9677)" gradientUnits="userSpaceOnUse">
			<stop  offset="0" style="stop-color:#E5CC9C"/>
			<stop  offset="1" style="stop-color:#AF8400"/>
		</radialGradient>
		<path class="st73" d="M55.1,42.1c0.6-0.5,1.3-0.9,2-1.2c0.4-0.1,0.7-0.3,1.1-0.3l0.1-0.1l-0.4,0.2c0-0.2,0-0.3,0-0.5
			c-0.9,0.5-1.9,1.1-2.8,1.7C55.1,41.9,55.1,42,55.1,42.1z"/>
		
			<radialGradient id="SVGID_73_" cx="163.85" cy="469.89" r="523.48" gradientTransform="matrix(0.579 0 0 -0.5758 -1.4648 120.9677)" gradientUnits="userSpaceOnUse">
			<stop  offset="0" style="stop-color:#F0DEC0"/>
			<stop  offset="1" style="stop-color:#AF8400"/>
		</radialGradient>
		<path class="st74" d="M55.1,42.1c0.6-0.5,1.3-0.9,2-1.2c0.4-0.1,0.7-0.3,1.1-0.3l0.1-0.1l-0.4,0.2c0-0.2,0-0.3,0-0.5
			c-0.9,0.5-1.9,1.1-2.8,1.7C55.1,41.9,55.1,42,55.1,42.1z"/>
		
			<radialGradient id="SVGID_74_" cx="163.85" cy="469.9" r="523.49" gradientTransform="matrix(0.579 0 0 -0.5758 -1.4648 120.9677)" gradientUnits="userSpaceOnUse">
			<stop  offset="0" style="stop-color:#E5CC9C"/>
			<stop  offset="1" style="stop-color:#AF8400"/>
		</radialGradient>
		<path class="st75" d="M71.7,35.3h-0.2l-0.2-0.2c-1.1,0.2-2.1,0.5-3.1,0.7l0.1,0.2l-0.1,0l0,0l0,0c1.1-0.5,2.3-0.7,3.6-0.6v-0.2
			L71.7,35.3L71.7,35.3z"/>
		
			<radialGradient id="SVGID_75_" cx="163.85" cy="469.89" r="523.48" gradientTransform="matrix(0.579 0 0 -0.5758 -1.4648 120.9677)" gradientUnits="userSpaceOnUse">
			<stop  offset="0" style="stop-color:#F0DEC0"/>
			<stop  offset="1" style="stop-color:#AF8400"/>
		</radialGradient>
		<path class="st76" d="M71.7,35.3h-0.2l-0.2-0.2c-1.1,0.2-2.1,0.5-3.1,0.7l0.1,0.2l-0.1,0l0,0l0,0c1.1-0.5,2.3-0.7,3.6-0.6v-0.2
			L71.7,35.3L71.7,35.3z"/>
		
			<radialGradient id="SVGID_76_" cx="163.85" cy="469.9" r="523.49" gradientTransform="matrix(0.579 0 0 -0.5758 -1.4648 120.9677)" gradientUnits="userSpaceOnUse">
			<stop  offset="0" style="stop-color:#E5CC9C"/>
			<stop  offset="1" style="stop-color:#AF8400"/>
		</radialGradient>
		<path class="st77" d="M42.2,54.7h0.1c0.1-0.1,0.2-0.1,0.2-0.2l0,0c0.3-0.5,0.7-1,1.2-1.4c0.3-0.3,0.6-0.5,0.9-0.7
			c0-0.1,0-0.1,0-0.1l-0.3,0.3c-0.1-0.1-0.1-0.3-0.2-0.4C43.4,52.9,42.7,53.7,42.2,54.7L42.2,54.7z"/>
		
			<radialGradient id="SVGID_77_" cx="163.85" cy="469.89" r="523.48" gradientTransform="matrix(0.579 0 0 -0.5758 -1.4648 120.9677)" gradientUnits="userSpaceOnUse">
			<stop  offset="0" style="stop-color:#F0DEC0"/>
			<stop  offset="1" style="stop-color:#AF8400"/>
		</radialGradient>
		<path class="st78" d="M42.2,54.7h0.1c0.1-0.1,0.2-0.1,0.2-0.2l0,0c0.3-0.5,0.7-1,1.2-1.4c0.3-0.3,0.6-0.5,0.9-0.7
			c0-0.1,0-0.1,0-0.1l-0.3,0.3c-0.1-0.1-0.1-0.3-0.2-0.4C43.4,52.9,42.7,53.7,42.2,54.7L42.2,54.7z"/>
		
			<radialGradient id="SVGID_78_" cx="163.85" cy="469.9" r="523.49" gradientTransform="matrix(0.579 0 0 -0.5758 -1.4648 120.9677)" gradientUnits="userSpaceOnUse">
			<stop  offset="0" style="stop-color:#E5CC9C"/>
			<stop  offset="1" style="stop-color:#AF8400"/>
		</radialGradient>
		<path class="st79" d="M52.1,44.2L52.1,44.2L52.1,44.2L52.1,44.2c0.8-0.8,1.8-1.5,3-1.9L55,42.2c-0.1,0.1-0.2,0.1-0.3,0.1l-0.3-0.1
			c-0.9,0.6-1.7,1.2-2.6,1.9L52.1,44.2z"/>
		
			<radialGradient id="SVGID_79_" cx="163.85" cy="469.89" r="523.48" gradientTransform="matrix(0.579 0 0 -0.5758 -1.4648 120.9677)" gradientUnits="userSpaceOnUse">
			<stop  offset="0" style="stop-color:#F0DEC0"/>
			<stop  offset="1" style="stop-color:#AF8400"/>
		</radialGradient>
		<path class="st80" d="M52.1,44.2L52.1,44.2L52.1,44.2L52.1,44.2c0.8-0.8,1.8-1.5,3-1.9L55,42.2c-0.1,0.1-0.2,0.1-0.3,0.1l-0.3-0.1
			c-0.9,0.6-1.7,1.2-2.6,1.9L52.1,44.2z"/>
		
			<radialGradient id="SVGID_80_" cx="163.85" cy="469.9" r="523.5" gradientTransform="matrix(0.579 0 0 -0.5758 -1.4648 120.9677)" gradientUnits="userSpaceOnUse">
			<stop  offset="0" style="stop-color:#E5CC9C"/>
			<stop  offset="1" style="stop-color:#AF8400"/>
		</radialGradient>
		<path class="st81" d="M35.5,71c0.1-0.8,0.3-1.5,0.6-2.3c0.2-0.3,0.3-0.7,0.5-1c0,0,0-0.1,0-0.1L36.5,68l-0.3-0.3
			c-0.3,1-0.5,2.1-0.8,3.1L35.5,71z"/>
		
			<radialGradient id="SVGID_81_" cx="163.85" cy="469.89" r="523.48" gradientTransform="matrix(0.579 0 0 -0.5758 -1.4648 120.9677)" gradientUnits="userSpaceOnUse">
			<stop  offset="0" style="stop-color:#F0DEC0"/>
			<stop  offset="1" style="stop-color:#AF8400"/>
		</radialGradient>
		<path class="st82" d="M35.5,71c0.1-0.8,0.3-1.5,0.6-2.3c0.2-0.3,0.3-0.7,0.5-1c0,0,0-0.1,0-0.1L36.5,68l-0.3-0.3
			c-0.3,1-0.5,2.1-0.8,3.1L35.5,71z"/>
		
			<radialGradient id="SVGID_82_" cx="163.85" cy="469.9" r="523.49" gradientTransform="matrix(0.579 0 0 -0.5758 -1.4648 120.9677)" gradientUnits="userSpaceOnUse">
			<stop  offset="0" style="stop-color:#E5CC9C"/>
			<stop  offset="1" style="stop-color:#AF8400"/>
		</radialGradient>
		<path class="st83" d="M42.2,54.7L42.2,54.7c-0.6,0.9-1.2,1.8-1.7,2.7h0.1c0,0,0,0.1,0,0.1l0,0l0,0c0.5-1.1,1.2-2.1,2.1-2.9
			l-0.1-0.1c-0.1,0.1-0.2,0.3-0.3,0.4L42.2,54.7z"/>
		
			<radialGradient id="SVGID_83_" cx="163.85" cy="469.89" r="523.48" gradientTransform="matrix(0.579 0 0 -0.5758 -1.4648 120.9677)" gradientUnits="userSpaceOnUse">
			<stop  offset="0" style="stop-color:#F0DEC0"/>
			<stop  offset="1" style="stop-color:#AF8400"/>
		</radialGradient>
		<path class="st84" d="M42.2,54.7L42.2,54.7c-0.6,0.9-1.2,1.8-1.7,2.7h0.1c0,0,0,0.1,0,0.1l0,0l0,0c0.5-1.1,1.2-2.1,2.1-2.9
			l-0.1-0.1c-0.1,0.1-0.2,0.3-0.3,0.4L42.2,54.7z"/>
		
			<radialGradient id="SVGID_84_" cx="163.85" cy="469.9" r="523.49" gradientTransform="matrix(0.579 0 0 -0.5758 -1.4648 120.9677)" gradientUnits="userSpaceOnUse">
			<stop  offset="0" style="stop-color:#E5CC9C"/>
			<stop  offset="1" style="stop-color:#AF8400"/>
		</radialGradient>
		<path class="st85" d="M42.3,54.7h-0.1l0.1,0.2c0.1-0.1,0.2-0.3,0.3-0.4l0,0C42.4,54.5,42.4,54.6,42.3,54.7z"/>
		
			<radialGradient id="SVGID_85_" cx="163.85" cy="469.9" r="523.5" gradientTransform="matrix(0.579 0 0 -0.5758 -1.4648 120.9677)" gradientUnits="userSpaceOnUse">
			<stop  offset="0" style="stop-color:#E5CC9C"/>
			<stop  offset="1" style="stop-color:#AF8400"/>
		</radialGradient>
		<path class="st86" d="M42.3,54.7h-0.1l0.1,0.2c0.1-0.1,0.2-0.3,0.3-0.4l0,0C42.4,54.5,42.4,54.6,42.3,54.7z"/>
		
			<radialGradient id="SVGID_86_" cx="163.85" cy="469.89" r="523.48" gradientTransform="matrix(0.579 0 0 -0.5758 -1.4648 120.9677)" gradientUnits="userSpaceOnUse">
			<stop  offset="0" style="stop-color:#F0DEC0"/>
			<stop  offset="1" style="stop-color:#AF8400"/>
		</radialGradient>
		<path class="st87" d="M42.3,54.7h-0.1l0.1,0.2c0.1-0.1,0.2-0.3,0.3-0.4l0,0C42.4,54.5,42.4,54.6,42.3,54.7z"/>
		
			<radialGradient id="SVGID_87_" cx="163.85" cy="469.91" r="523.52" gradientTransform="matrix(0.579 0 0 -0.5758 -1.4648 120.9677)" gradientUnits="userSpaceOnUse">
			<stop  offset="0" style="stop-color:#E5CC9C"/>
			<stop  offset="1" style="stop-color:#AF8400"/>
		</radialGradient>
		<path class="st88" d="M35,74.4L35,74.4C35,74.4,35,74.4,35,74.4c0-1.2,0.3-2.4,0.8-3.5l-0.2,0c0,0.1-0.1,0.2-0.1,0.3l-0.3,0.1
			c-0.2,1-0.4,2.1-0.5,3.1H35C35,74.3,35,74.4,35,74.4z"/>
		
			<radialGradient id="SVGID_88_" cx="163.85" cy="469.89" r="523.48" gradientTransform="matrix(0.579 0 0 -0.5758 -1.4648 120.9677)" gradientUnits="userSpaceOnUse">
			<stop  offset="0" style="stop-color:#F0DEC0"/>
			<stop  offset="1" style="stop-color:#AF8400"/>
		</radialGradient>
		<path class="st89" d="M35,74.4L35,74.4C35,74.4,35,74.4,35,74.4c0-1.2,0.3-2.4,0.8-3.5l-0.2,0c0,0.1-0.1,0.2-0.1,0.3l-0.3,0.1
			c-0.2,1-0.4,2.1-0.5,3.1H35C35,74.3,35,74.4,35,74.4z"/>
		
			<radialGradient id="SVGID_89_" cx="163.85" cy="469.92" r="523.53" gradientTransform="matrix(0.579 0 0 -0.5758 -1.4648 120.9677)" gradientUnits="userSpaceOnUse">
			<stop  offset="0" style="stop-color:#E5CC9C"/>
			<stop  offset="1" style="stop-color:#AF8400"/>
		</radialGradient>
		<path class="st90" d="M35.6,88.7c-0.3-1.1-0.4-2.2-0.2-3.3l-0.1-0.1v0.4l-0.6-0.2c0.1,1.1,0.3,2.1,0.5,3.2l0.4,0.2
			C35.6,88.7,35.6,88.7,35.6,88.7z"/>
		
			<radialGradient id="SVGID_90_" cx="163.85" cy="469.89" r="523.49" gradientTransform="matrix(0.579 0 0 -0.5758 -1.4648 120.9677)" gradientUnits="userSpaceOnUse">
			<stop  offset="0" style="stop-color:#F0DEC0"/>
			<stop  offset="1" style="stop-color:#AF8400"/>
		</radialGradient>
		<path class="st91" d="M35.6,88.7c-0.3-1.1-0.4-2.2-0.2-3.3l-0.1-0.1v0.4l-0.6-0.2c0.1,1.1,0.3,2.1,0.5,3.2l0.4,0.2
			C35.6,88.7,35.6,88.7,35.6,88.7z"/>
		
			<radialGradient id="SVGID_91_" cx="163.85" cy="469.89" r="523.48" gradientTransform="matrix(0.579 0 0 -0.5758 -1.4648 120.9677)" gradientUnits="userSpaceOnUse">
			<stop  offset="0" style="stop-color:#E5CC9C"/>
			<stop  offset="1" style="stop-color:#AF8400"/>
		</radialGradient>
		<path class="st92" d="M36.3,92.2L36.3,92.2L36.3,92.2c-0.5-1.1-0.7-2.3-0.6-3.5h-0.2l0,0l0,0.1l0,0c0,0.1,0,0.1,0,0.2l-0.3,0.3
			c0.2,1,0.5,2.1,0.7,3.1L36.3,92.2C36.3,92.2,36.3,92.2,36.3,92.2z"/>
		
			<radialGradient id="SVGID_92_" cx="163.85" cy="469.89" r="523.48" gradientTransform="matrix(0.579 0 0 -0.5758 -1.4648 120.9677)" gradientUnits="userSpaceOnUse">
			<stop  offset="0" style="stop-color:#F0DEC0"/>
			<stop  offset="1" style="stop-color:#AF8400"/>
		</radialGradient>
		<path class="st93" d="M36.3,92.2L36.3,92.2L36.3,92.2c-0.5-1.1-0.7-2.3-0.6-3.5h-0.2l0,0l0,0.1l0,0c0,0.1,0,0.1,0,0.2l-0.3,0.3
			c0.2,1,0.5,2.1,0.7,3.1L36.3,92.2C36.3,92.2,36.3,92.2,36.3,92.2z"/>
		
			<radialGradient id="SVGID_93_" cx="63.94" cy="469.93" r="508.9398" gradientTransform="matrix(0.579 0 0 -0.5758 -1.4648 120.9677)" gradientUnits="userSpaceOnUse">
			<stop  offset="0" style="stop-color:#E5CC9C"/>
			<stop  offset="1" style="stop-color:#AF8400"/>
		</radialGradient>
		<path class="st94" d="M35.6,88.7c0,0,0,0.1,0,0.1l0,0V88.7z"/>
		
			<radialGradient id="SVGID_94_" cx="63.94" cy="469.91" r="508.8996" gradientTransform="matrix(0.579 0 0 -0.5758 -1.4648 120.9677)" gradientUnits="userSpaceOnUse">
			<stop  offset="0" style="stop-color:#E5CC9C"/>
			<stop  offset="1" style="stop-color:#AF8400"/>
		</radialGradient>
		<path class="st95" d="M35.6,88.7c0,0,0,0.1,0,0.1l0,0V88.7z"/>
		
			<radialGradient id="SVGID_95_" cx="63.94" cy="469.91" r="508.8996" gradientTransform="matrix(0.579 0 0 -0.5758 -1.4648 120.9677)" gradientUnits="userSpaceOnUse">
			<stop  offset="0" style="stop-color:#F0DEC0"/>
			<stop  offset="1" style="stop-color:#AF8400"/>
		</radialGradient>
		<path class="st96" d="M35.6,88.7c0,0,0,0.1,0,0.1l0,0V88.7z"/>
		
			<radialGradient id="SVGID_96_" cx="163.87" cy="469.89" r="523.46" gradientTransform="matrix(0.579 0 0 -0.5758 -1.4648 120.9677)" gradientUnits="userSpaceOnUse">
			<stop  offset="0" style="stop-color:#E5CC9C"/>
			<stop  offset="1" style="stop-color:#AF8400"/>
		</radialGradient>
		<path class="st97" d="M124.9,91c-0.2,0.3-0.3,0.7-0.5,1l0,0.1l0.1-0.4l0.4,0.3c0.3-1,0.5-2.1,0.7-3.1l-0.2-0.2
			C125.4,89.5,125.2,90.3,124.9,91z"/>
		
			<radialGradient id="SVGID_97_" cx="163.85" cy="469.89" r="523.48" gradientTransform="matrix(0.579 0 0 -0.5758 -1.4648 120.9677)" gradientUnits="userSpaceOnUse">
			<stop  offset="0" style="stop-color:#F0DEC0"/>
			<stop  offset="1" style="stop-color:#AF8400"/>
		</radialGradient>
		<path class="st98" d="M124.9,91c-0.2,0.3-0.3,0.7-0.5,1l0,0.1l0.1-0.4l0.4,0.3c0.3-1,0.5-2.1,0.7-3.1l-0.2-0.2
			C125.4,89.5,125.2,90.3,124.9,91z"/>
		
			<radialGradient id="SVGID_98_" cx="163.82" cy="469.9" r="523.51" gradientTransform="matrix(0.579 0 0 -0.5758 -1.4648 120.9677)" gradientUnits="userSpaceOnUse">
			<stop  offset="0" style="stop-color:#E5CC9C"/>
			<stop  offset="1" style="stop-color:#AF8400"/>
		</radialGradient>
		<path class="st99" d="M125.9,85.4L125.9,85.4C125.9,85.4,125.9,85.4,125.9,85.4c0,1.3-0.3,2.5-0.8,3.5l0.2,0
			c0-0.1,0.1-0.2,0.1-0.3l0.4-0.2c0.2-1,0.4-2.1,0.5-3.1L125.9,85.4C125.9,85.5,125.9,85.5,125.9,85.4z"/>
		
			<radialGradient id="SVGID_99_" cx="163.85" cy="469.89" r="523.48" gradientTransform="matrix(0.579 0 0 -0.5758 -1.4648 120.9677)" gradientUnits="userSpaceOnUse">
			<stop  offset="0" style="stop-color:#F0DEC0"/>
			<stop  offset="1" style="stop-color:#AF8400"/>
		</radialGradient>
		<path class="st100" d="M125.9,85.4L125.9,85.4C125.9,85.4,125.9,85.4,125.9,85.4c0,1.3-0.3,2.5-0.8,3.5l0.2,0
			c0-0.1,0.1-0.2,0.1-0.3l0.4-0.2c0.2-1,0.4-2.1,0.5-3.1L125.9,85.4C125.9,85.5,125.9,85.5,125.9,85.4z"/>
		
			<radialGradient id="SVGID_100_" cx="163.83" cy="469.9" r="523.51" gradientTransform="matrix(0.579 0 0 -0.5758 -1.4648 120.9677)" gradientUnits="userSpaceOnUse">
			<stop  offset="0" style="stop-color:#E5CC9C"/>
			<stop  offset="1" style="stop-color:#AF8400"/>
		</radialGradient>
		<path class="st101" d="M125.6,73.4c0,0.4,0,0.8-0.1,1.2l0.1,0.1v-0.4l0.6,0.2c-0.1-1.1-0.3-2.1-0.5-3.2l-0.3-0.2
			C125.6,71.8,125.7,72.6,125.6,73.4z"/>
		
			<radialGradient id="SVGID_101_" cx="163.85" cy="469.89" r="523.49" gradientTransform="matrix(0.579 0 0 -0.5758 -1.4648 120.9677)" gradientUnits="userSpaceOnUse">
			<stop  offset="0" style="stop-color:#F0DEC0"/>
			<stop  offset="1" style="stop-color:#AF8400"/>
		</radialGradient>
		<path class="st102" d="M125.6,73.4c0,0.4,0,0.8-0.1,1.2l0.1,0.1v-0.4l0.6,0.2c-0.1-1.1-0.3-2.1-0.5-3.2l-0.3-0.2
			C125.6,71.8,125.7,72.6,125.6,73.4z"/>
		
			<radialGradient id="SVGID_102_" cx="163.86" cy="469.9" r="523.47" gradientTransform="matrix(0.579 0 0 -0.5758 -1.4648 120.9677)" gradientUnits="userSpaceOnUse">
			<stop  offset="0" style="stop-color:#E5CC9C"/>
			<stop  offset="1" style="stop-color:#AF8400"/>
		</radialGradient>
		<path class="st103" d="M118.5,54.6l0.1,0.1l0,0c0.4,0.6,0.8,1.2,1.1,1.9c0.1,0.4,0.3,0.7,0.3,1.1l0.1,0.1l-0.2-0.4l0.6,0
			c-0.5-0.9-1.1-1.8-1.7-2.7L118.5,54.6z"/>
		
			<radialGradient id="SVGID_103_" cx="163.85" cy="469.89" r="523.48" gradientTransform="matrix(0.579 0 0 -0.5758 -1.4648 120.9677)" gradientUnits="userSpaceOnUse">
			<stop  offset="0" style="stop-color:#F0DEC0"/>
			<stop  offset="1" style="stop-color:#AF8400"/>
		</radialGradient>
		<path class="st104" d="M118.5,54.6l0.1,0.1l0,0c0.4,0.6,0.8,1.2,1.1,1.9c0.1,0.4,0.3,0.7,0.3,1.1l0.1,0.1l-0.2-0.4l0.6,0
			c-0.5-0.9-1.1-1.8-1.7-2.7L118.5,54.6z"/>
		
			<radialGradient id="SVGID_104_" cx="163.87" cy="469.9" r="523.46" gradientTransform="matrix(0.579 0 0 -0.5758 -1.4648 120.9677)" gradientUnits="userSpaceOnUse">
			<stop  offset="0" style="stop-color:#E5CC9C"/>
			<stop  offset="1" style="stop-color:#AF8400"/>
		</radialGradient>
		<path class="st105" d="M124.5,67.8L124.5,67.8L124.5,67.8L124.5,67.8c0.4,1,0.7,2.2,0.6,3.5h0.2c0-0.1,0-0.2,0-0.3l0.3-0.3
			c-0.2-1-0.5-2.1-0.8-3.1L124.5,67.8z"/>
		
			<radialGradient id="SVGID_105_" cx="163.86" cy="469.89" r="523.47" gradientTransform="matrix(0.579 0 0 -0.5758 -1.4648 120.9677)" gradientUnits="userSpaceOnUse">
			<stop  offset="0" style="stop-color:#F0DEC0"/>
			<stop  offset="1" style="stop-color:#AF8400"/>
		</radialGradient>
		<path class="st106" d="M124.5,67.8L124.5,67.8L124.5,67.8L124.5,67.8c0.4,1,0.7,2.2,0.6,3.5h0.2c0-0.1,0-0.2,0-0.3l0.3-0.3
			c-0.2-1-0.5-2.1-0.8-3.1L124.5,67.8z"/>
		
			<radialGradient id="SVGID_106_" cx="185.34" cy="137.185" r="3.335528e-02" gradientTransform="matrix(0.579 0 0 -0.5758 -1.4648 120.9677)" gradientUnits="userSpaceOnUse">
			<stop  offset="0" style="stop-color:#E5CC9C"/>
			<stop  offset="1" style="stop-color:#AF8400"/>
		</radialGradient>
		<path class="st107" d="M105.8,42L105.8,42L105.8,42L105.8,42L105.8,42z"/>
		
			<radialGradient id="SVGID_107_" cx="185.34" cy="137.185" r="3.335528e-02" gradientTransform="matrix(0.579 0 0 -0.5758 -1.4648 120.9677)" gradientUnits="userSpaceOnUse">
			<stop  offset="0" style="stop-color:#F0DEC0"/>
			<stop  offset="1" style="stop-color:#AF8400"/>
		</radialGradient>
		<path class="st108" d="M105.8,42L105.8,42L105.8,42L105.8,42L105.8,42z"/>
		
			<radialGradient id="SVGID_108_" cx="163.85" cy="469.9" r="523.48" gradientTransform="matrix(0.579 0 0 -0.5758 -1.4648 120.9677)" gradientUnits="userSpaceOnUse">
			<stop  offset="0" style="stop-color:#E5CC9C"/>
			<stop  offset="1" style="stop-color:#AF8400"/>
		</radialGradient>
		<path class="st109" d="M118.5,54.6c0-0.1-0.1-0.1-0.1-0.2l0.1-0.2c-0.6-0.9-1.2-1.7-1.9-2.6l-0.1,0.1l-0.1-0.1l0,0l0,0
			c0.9,0.8,1.5,1.9,1.9,3L118.5,54.6L118.5,54.6L118.5,54.6L118.5,54.6z"/>
		
			<radialGradient id="SVGID_109_" cx="163.85" cy="469.89" r="523.48" gradientTransform="matrix(0.579 0 0 -0.5758 -1.4648 120.9677)" gradientUnits="userSpaceOnUse">
			<stop  offset="0" style="stop-color:#F0DEC0"/>
			<stop  offset="1" style="stop-color:#AF8400"/>
		</radialGradient>
		<path class="st110" d="M118.5,54.6c0-0.1-0.1-0.1-0.1-0.2l0.1-0.2c-0.6-0.9-1.2-1.7-1.9-2.6l-0.1,0.1l-0.1-0.1l0,0l0,0
			c0.9,0.8,1.5,1.9,1.9,3L118.5,54.6L118.5,54.6L118.5,54.6L118.5,54.6z"/>
		
			<radialGradient id="SVGID_110_" cx="163.85" cy="469.9" r="523.48" gradientTransform="matrix(0.579 0 0 -0.5758 -1.4648 120.9677)" gradientUnits="userSpaceOnUse">
			<stop  offset="0" style="stop-color:#E5CC9C"/>
			<stop  offset="1" style="stop-color:#AF8400"/>
		</radialGradient>
		<path class="st111" d="M106.2,42.1L106.2,42.1c0.5,0.4,1,0.8,1.5,1.3c0.3,0.3,0.5,0.6,0.7,0.9h0.2l-0.3-0.3l0.3-0.2
			c-0.8-0.6-1.7-1.3-2.6-1.9C106,42,106.1,42.1,106.2,42.1z"/>
		
			<radialGradient id="SVGID_111_" cx="163.85" cy="469.89" r="523.48" gradientTransform="matrix(0.579 0 0 -0.5758 -1.4648 120.9677)" gradientUnits="userSpaceOnUse">
			<stop  offset="0" style="stop-color:#F0DEC0"/>
			<stop  offset="1" style="stop-color:#AF8400"/>
		</radialGradient>
		<path class="st112" d="M106.2,42.1L106.2,42.1c0.5,0.4,1,0.8,1.5,1.3c0.3,0.3,0.5,0.6,0.7,0.9h0.2l-0.3-0.3l0.3-0.2
			c-0.8-0.6-1.7-1.3-2.6-1.9C106,42,106.1,42.1,106.2,42.1z"/>
		
			<radialGradient id="SVGID_112_" cx="163.85" cy="469.92" r="523.49" gradientTransform="matrix(0.579 0 0 -0.5758 -1.4648 120.9677)" gradientUnits="userSpaceOnUse">
			<stop  offset="0" style="stop-color:#E5CC9C"/>
			<stop  offset="1" style="stop-color:#AF8400"/>
		</radialGradient>
		<path class="st113" d="M118.5,54.6L118.5,54.6l0.1,0.1l0,0L118.5,54.6z"/>
		
			<radialGradient id="SVGID_113_" cx="163.84" cy="469.91" r="523.51" gradientTransform="matrix(0.579 0 0 -0.5758 -1.4648 120.9677)" gradientUnits="userSpaceOnUse">
			<stop  offset="0" style="stop-color:#E5CC9C"/>
			<stop  offset="1" style="stop-color:#AF8400"/>
		</radialGradient>
		<path class="st114" d="M118.5,54.6L118.5,54.6l0.1,0.1l0,0L118.5,54.6z"/>
		
			<radialGradient id="SVGID_114_" cx="163.84" cy="469.91" r="523.51" gradientTransform="matrix(0.579 0 0 -0.5758 -1.4648 120.9677)" gradientUnits="userSpaceOnUse">
			<stop  offset="0" style="stop-color:#F0DEC0"/>
			<stop  offset="1" style="stop-color:#AF8400"/>
		</radialGradient>
		<path class="st115" d="M118.5,54.6L118.5,54.6l0.1,0.1l0,0L118.5,54.6z"/>
		
			<radialGradient id="SVGID_115_" cx="163.84" cy="469.9" r="523.5" gradientTransform="matrix(0.579 0 0 -0.5758 -1.4648 120.9677)" gradientUnits="userSpaceOnUse">
			<stop  offset="0" style="stop-color:#E5CC9C"/>
			<stop  offset="1" style="stop-color:#AF8400"/>
		</radialGradient>
		<path class="st116" d="M91.8,35.7c0.4,0.1,0.7,0.3,1,0.5l0.1,0l-0.4-0.1l0.1-0.2c-0.5-0.1-0.9-0.2-1.4-0.3
			C91.5,35.6,91.6,35.7,91.8,35.7z"/>
		
			<radialGradient id="SVGID_116_" cx="163.85" cy="469.89" r="523.48" gradientTransform="matrix(0.579 0 0 -0.5758 -1.4648 120.9677)" gradientUnits="userSpaceOnUse">
			<stop  offset="0" style="stop-color:#F0DEC0"/>
			<stop  offset="1" style="stop-color:#AF8400"/>
		</radialGradient>
		<path class="st117" d="M91.8,35.7c0.4,0.1,0.7,0.3,1,0.5l0.1,0l-0.4-0.1l0.1-0.2c-0.5-0.1-0.9-0.2-1.4-0.3
			C91.5,35.6,91.6,35.7,91.8,35.7z"/>
		
			<radialGradient id="SVGID_117_" cx="163.85" cy="469.9" r="523.49" gradientTransform="matrix(0.579 0 0 -0.5758 -1.4648 120.9677)" gradientUnits="userSpaceOnUse">
			<stop  offset="0" style="stop-color:#E5CC9C"/>
			<stop  offset="1" style="stop-color:#AF8400"/>
		</radialGradient>
		<path class="st118" d="M106.1,42.2L106.1,42.2l-0.2-0.2L106.1,42.2z"/>
		
			<radialGradient id="SVGID_118_" cx="163.86" cy="469.89" r="523.47" gradientTransform="matrix(0.579 0 0 -0.5758 -1.4648 120.9677)" gradientUnits="userSpaceOnUse">
			<stop  offset="0" style="stop-color:#F0DEC0"/>
			<stop  offset="1" style="stop-color:#AF8400"/>
		</radialGradient>
		<path class="st119" d="M106.1,42.2L106.1,42.2l-0.2-0.2L106.1,42.2z"/>
		
			<radialGradient id="SVGID_119_" cx="163.85" cy="469.9" r="523.5" gradientTransform="matrix(0.579 0 0 -0.5758 -1.4648 120.9677)" gradientUnits="userSpaceOnUse">
			<stop  offset="0" style="stop-color:#E5CC9C"/>
			<stop  offset="1" style="stop-color:#AF8400"/>
		</radialGradient>
		<path class="st120" d="M105.4,41.6c0.1,0.1,0.3,0.3,0.4,0.4l0.1,0L105.4,41.6z"/>
		
			<radialGradient id="SVGID_120_" cx="163.85" cy="469.9" r="523.48" gradientTransform="matrix(0.579 0 0 -0.5758 -1.4648 120.9677)" gradientUnits="userSpaceOnUse">
			<stop  offset="0" style="stop-color:#F0DEC0"/>
			<stop  offset="1" style="stop-color:#AF8400"/>
		</radialGradient>
		<path class="st121" d="M105.4,41.6c0.1,0.1,0.3,0.3,0.4,0.4l0.1,0L105.4,41.6z"/>
		
			<radialGradient id="SVGID_121_" cx="163.84" cy="469.91" r="523.51" gradientTransform="matrix(0.579 0 0 -0.5758 -1.4648 120.9677)" gradientUnits="userSpaceOnUse">
			<stop  offset="0" style="stop-color:#E5CC9C"/>
			<stop  offset="1" style="stop-color:#AF8400"/>
		</radialGradient>
		<path class="st122" d="M106,42L106,42l-0.2,0l0,0l0.2,0.1l0.1-0.1C106.1,42.1,106.1,42,106,42z"/>
		
			<radialGradient id="SVGID_122_" cx="163.83" cy="469.9" r="523.53" gradientTransform="matrix(0.579 0 0 -0.5758 -1.4648 120.9677)" gradientUnits="userSpaceOnUse">
			<stop  offset="0" style="stop-color:#E5CC9C"/>
			<stop  offset="1" style="stop-color:#AF8400"/>
		</radialGradient>
		<path class="st123" d="M106,42L106,42l-0.2,0l0,0l0.2,0.1l0.1-0.1C106.1,42.1,106.1,42,106,42z"/>
		
			<radialGradient id="SVGID_123_" cx="163.84" cy="469.9" r="523.51" gradientTransform="matrix(0.579 0 0 -0.5758 -1.4648 120.9677)" gradientUnits="userSpaceOnUse">
			<stop  offset="0" style="stop-color:#F0DEC0"/>
			<stop  offset="1" style="stop-color:#AF8400"/>
		</radialGradient>
		<path class="st124" d="M106,42L106,42l-0.2,0l0,0l0.2,0.1l0.1-0.1C106.1,42.1,106.1,42,106,42z"/>
		
			<radialGradient id="SVGID_124_" cx="163.84" cy="469.9" r="523.51" gradientTransform="matrix(0.579 0 0 -0.5758 -1.4648 120.9677)" gradientUnits="userSpaceOnUse">
			<stop  offset="0" style="stop-color:#E5CC9C"/>
			<stop  offset="1" style="stop-color:#AF8400"/>
		</radialGradient>
		<path class="st125" d="M86.2,34.8L86.2,34.8c1.2,0,2.4,0.3,3.5,0.8l0-0.2c-0.1,0-0.2-0.1-0.3-0.1l-0.1-0.2c-1-0.2-2.1-0.4-3.2-0.5
			C86.2,34.7,86.2,34.8,86.2,34.8z"/>
		
			<radialGradient id="SVGID_125_" cx="163.85" cy="469.89" r="523.48" gradientTransform="matrix(0.579 0 0 -0.5758 -1.4648 120.9677)" gradientUnits="userSpaceOnUse">
			<stop  offset="0" style="stop-color:#F0DEC0"/>
			<stop  offset="1" style="stop-color:#AF8400"/>
		</radialGradient>
		<path class="st126" d="M86.2,34.8L86.2,34.8c1.2,0,2.4,0.3,3.5,0.8l0-0.2c-0.1,0-0.2-0.1-0.3-0.1l-0.1-0.2c-1-0.2-2.1-0.4-3.2-0.5
			C86.2,34.7,86.2,34.8,86.2,34.8z"/>
		
			<radialGradient id="SVGID_126_" cx="163.84" cy="469.9" r="523.51" gradientTransform="matrix(0.579 0 0 -0.5758 -1.4648 120.9677)" gradientUnits="userSpaceOnUse">
			<stop  offset="0" style="stop-color:#E5CC9C"/>
			<stop  offset="1" style="stop-color:#AF8400"/>
		</radialGradient>
		<path class="st127" d="M71.7,35.3h0.2l0,0c0.7-0.2,1.4-0.3,2.1-0.3c0.4,0,0.8,0,1.2,0.1l0.1-0.1h-0.4c0.1-0.2,0.1-0.3,0.2-0.5
			c-1.1,0.1-2.1,0.3-3.2,0.5L71.7,35.3z"/>
		
			<radialGradient id="SVGID_127_" cx="163.85" cy="469.89" r="523.48" gradientTransform="matrix(0.579 0 0 -0.5758 -1.4648 120.9677)" gradientUnits="userSpaceOnUse">
			<stop  offset="0" style="stop-color:#F0DEC0"/>
			<stop  offset="1" style="stop-color:#AF8400"/>
		</radialGradient>
		<path class="st128" d="M71.7,35.3h0.2l0,0c0.7-0.2,1.4-0.3,2.1-0.3c0.4,0,0.8,0,1.2,0.1l0.1-0.1h-0.4c0.1-0.2,0.1-0.3,0.2-0.5
			c-1.1,0.1-2.1,0.3-3.2,0.5L71.7,35.3z"/>
		
			<radialGradient id="SVGID_128_" cx="126.495" cy="148.67" r="0.1132" gradientTransform="matrix(0.579 0 0 -0.5758 -1.4648 120.9677)" gradientUnits="userSpaceOnUse">
			<stop  offset="0" style="stop-color:#E5CC9C"/>
			<stop  offset="1" style="stop-color:#AF8400"/>
		</radialGradient>
		<path class="st129" d="M71.7,35.3L71.7,35.3l0.2,0l0,0L71.7,35.3z"/>
		
			<radialGradient id="SVGID_129_" cx="126.495" cy="148.67" r="0.1132" gradientTransform="matrix(0.579 0 0 -0.5758 -1.4648 120.9677)" gradientUnits="userSpaceOnUse">
			<stop  offset="0" style="stop-color:#E5CC9C"/>
			<stop  offset="1" style="stop-color:#AF8400"/>
		</radialGradient>
		<path class="st130" d="M71.7,35.3L71.7,35.3l0.2,0l0,0L71.7,35.3z"/>
		
			<radialGradient id="SVGID_130_" cx="126.495" cy="148.67" r="0.1132" gradientTransform="matrix(0.579 0 0 -0.5758 -1.4648 120.9677)" gradientUnits="userSpaceOnUse">
			<stop  offset="0" style="stop-color:#F0DEC0"/>
			<stop  offset="1" style="stop-color:#AF8400"/>
		</radialGradient>
		<path class="st131" d="M71.7,35.3L71.7,35.3l0.2,0l0,0L71.7,35.3z"/>
		<ellipse class="st132" cx="80.5" cy="80.1" rx="54.9" ry="54.6"/>
		<path class="st0" d="M100.8,54.8c1.2-0.2,2.5-2,2.5-2s1.8-2.6,6-2.4c4.2,0.2,5.2,1.6,5.4,2.5c0.2,0.9,1.6,1.1,3.3,1
			c1,0,2,0.5,2.6,1.3c0,0,1.5,0.2,2.5,0.5c1.1,0.2,0-1-0.2-1.4c-0.2-0.6-0.3-1.3-0.2-2c0.2-0.7,2.9,0.6,4.1,0.9c1.2,0.2,0.8-1,0.8-1
			l0.8-0.2l-2.3-3.5l-0.2-0.2l-0.4,0.4l-1-1.9l-0.9-0.1l-0.7,0.9l-0.7-0.8l-1.1-0.3l-1.5-1.1l-1.2-1.4l-0.5-0.3l0.5,1.5l1.4,1.3
			c0.2,0.5,0.4,0.9,0.5,1.4c0,0.3-1.3-0.2-1.6-0.2c-0.6-0.4-1.2-0.9-1.8-1.4l-1.3-1.4l-1.8-1.4c0,0-3.7-2.3-4.2-2.3
			c-1.3-0.3-2.5-0.7-3.7-1.1l1.2,1.1l2.5,1.4c0,0,2.4,0.8,3.3,1.2c0.6,0.3,1.1,0.6,1.5,1.1L114,45l0.7,1.8l-1.5-1.6
			c0,0-2.2-1.4-3.5-1.4s-3.1-1.1-3.5-1.3c-0.5-0.2-1.9-1.3-1.9-0.8s-1.4,0.5-2.7,1c-1.3,0.6-0.2,2-0.2,2l-0.9,1l-0.4,1.4l0.5,1.8
			l0.3,1.6l-0.2,1.7c0,0-0.1,0.6-1.2,0.6c-0.9,0.1-1.6,0.6-1.9,1.4c0,0,0,0,0,0c0.1,0.1,0.5,0.1,0.4,0.2c-0.1,0.1-0.2,0.2-0.2,0.3
			l0,0C98.4,54.8,99.6,54.9,100.8,54.8z"/>
		<path class="st0" d="M95.6,53.3c-0.2-0.2-0.4-0.3-0.5-0.5c-0.2-0.4-0.4-0.7-0.5-1.2c0.1-1.5-0.4-3.1-1.4-4.2
			c-0.1-0.2-0.4-0.3-0.7-0.3l-1.3-1.5c-0.3,0-0.6,0.1-0.8,0.3c-0.4,0.3-0.8,0.6-1.3,0.8c0,0,1,1.1,1.6,1.8c0.6,0.8,0.8,3.5,0.8,3.5
			l1.5,0.8c0,0,0.5,1.3,0.8,1.4s1.7-0.2,2.1-0.2c0.5,0.2,1,0.4,1.4,0.7c0.1,0,0.2,0,0.3-0.1l0,0L95.6,53.3z"/>
		<path class="st0" d="M125.9,48.2L125.9,48.2l0.2,0.2L125.9,48.2z"/>
		<path class="st0" d="M97.7,54.5c-0.1,0.1-0.2,0.1-0.3,0.1l0.3,0.2L96.5,55l0.6,1.4c0,0,0.2-1.2,0.8-1.4c0.1-0.1,0.1-0.2,0.2-0.3
			C98.1,54.6,97.8,54.5,97.7,54.5z"/>
		<path class="st0" d="M97.4,54.6c-0.4,0-0.8-0.1-1.2-0.3l0.3,0.7l1.1-0.3L97.4,54.6z"/>
		
			<radialGradient id="SVGID_131_" cx="392.9076" cy="92.9411" r="252.48" gradientTransform="matrix(0.3069 0 0 -0.3052 -62.6924 88.694)" gradientUnits="userSpaceOnUse">
			<stop  offset="0" style="stop-color:#0FB3E8"/>
			<stop  offset="0.52" style="stop-color:#0781BD"/>
			<stop  offset="1" style="stop-color:#005699"/>
		</radialGradient>
		<ellipse class="st133" cx="80.5" cy="80.1" rx="55.4" ry="55.1"/>
		
			<radialGradient id="SVGID_132_" cx="398.9676" cy="94.0011" r="280.11" gradientTransform="matrix(0.3069 0 0 -0.3052 -62.6981 88.694)" gradientUnits="userSpaceOnUse">
			<stop  offset="0" style="stop-color:#CDD5E9"/>
			<stop  offset="8.000000e-02" style="stop-color:#C4CEE5"/>
			<stop  offset="0.49" style="stop-color:#9AAED2"/>
			<stop  offset="0.81" style="stop-color:#809AC6"/>
			<stop  offset="1" style="stop-color:#7693C2"/>
		</radialGradient>
		<path class="st134" d="M53.8,78.2c1.2,0.2,2-0.4,2.9-0.8l1.6-0.8c0.4-0.2,1-0.1,1.3,0.3c0.5,0.2,1,0,1.3-0.4
			c0.3-0.4,0.7-0.7,1.1-1c0.4,0,0.8-0.1,1.2-0.1c1.3,0.3,2.5,0.9,3.4,1.8c1.7,0.6,3,1.6,4.5,2.5c1.5,0.4,2.9,1,3.7,1.9
			c0.3,0.9,1.2,1.2,2.3,1.2c0.9,0,1.7,0,2.6,0.1c0.7,0.3,1.2,0.8,2.1,1.2c0.6,0,1.2,0.1,1.8,0.2c1,0.6,1.9,1.4,2.6,2.3
			c0.1,0.3,0.1,0.6,0,0.9C85,88.9,84.5,90.9,84,93c-0.2,0.9-0.6,1.8-1,2.7c-0.4,0.5-1,1-1.6,1.3c-0.9,0.6-1.9,1-2.5,1.8
			c-0.8,2.1-1.5,4.2-2,6.3c-0.1,0.5-0.8,0.8-1.4,0.8c-1.3,0.1-2.3,1.1-2.5,2.4c-0.2,0.7-0.7,1.3-1.5,1.4c-0.5,0.2-0.8,0.7-0.8,1.2
			c0,0.5-0.1,1.1-0.5,1.5c-0.2,0.2-0.3,0.6-0.2,0.9c0.6,0.8,1,1.8,1.2,2.8c-0.3,0.9,0.4,1.4,0.8,1.8c0.3,0.4,0.5,0.9,0.3,1.4
			c-0.3,0.2-0.6,0.3-0.9,0.3c-0.8,0.1-1.6,0.1-2.3-0.1c-0.8-0.2-1.1-0.9-1.4-1.7c-0.5-1.1-1-2.2-1.3-3.3c0-1.3-0.8-2-1.1-2.9
			c-0.5-1.6-0.7-3.2-0.7-4.9c-0.2-0.9-0.6-1.6-1.2-2.3c-0.4-0.4-0.6-0.9-0.9-1.4c0.2-1.3-0.1-2.5-0.7-3.6l-0.3-2.8
			c-0.5-0.9-1.4-1.2-2.2-1.7c-0.7-0.4-1.4-0.7-2.1-1c-1-0.7-1.4-2-1.8-3.2c-0.3-0.8-0.8-1.5-1.2-2.2c0-0.9,0-1.8,0.2-2.7
			c0-0.5,0.1-1,0.1-1.5c0.4-0.5,0.8-1,0.9-1.7c0.2-0.8,0-1.6-0.6-2.2c-0.2-0.2-0.5-0.3-0.8-0.3c-1.3-0.1-2.5-0.6-3.5-1.3
			c-0.3-0.1-0.6-0.3-0.9-0.6c-1.1-1.3-2.6-2.2-4.3-2.6c-1.4-0.9-3.3-1.2-4.8-2c-1.1-0.5-1.6-1.7-2-3c-0.1-0.7-0.7-1.3-1.4-1.5
			c-1.1-0.8-1.7-2-1.7-3.3c-0.2-0.8-0.8-1.3-1.1-2.1c-0.1-0.3-0.1-0.7,0-1c0.4-1.5,0.3-3.1-0.3-4.6c0-0.4,0-0.8,0-1.2
			c0.2-1.4,0.5-2.6,1.2-3.5c0.2-0.4,0.3-1,0.2-1.4c-0.3-1,0.1-2.2,0.9-2.8c0.4-0.3,0.6-0.8,0.5-1.3c0.4-0.8,0.6-1.5,1.2-1.9
			c0.2-0.5,0.4-1,0.7-1.4c1.1-2,2.7-3.8,4.5-5.3c1.3-1.2,2.5-2.2,3.9-3.2l2.6-2l3.8-2.3c1.3-0.8,2.7-1.4,4.1-2
			c0.2-0.1,0.5-0.1,0.8-0.1c0.3,0.7,0.8,1.3,1.2,2c0.4-0.1,0.7-0.1,1.1,0c0.3,0.1,0.7,0.3,1,0.5c0.2,0.1,0.4-0.1,0.5,0.1
			c0.2,0.4,0.5,0.7,0.8,1c0.6,0.6,1.2,1.1,1.9,1.6c0.7,0,1.4,0.2,1.6,0.7c0.1,0.1,0.1,0.3,0.1,0.4c0.2,1.3-0.1,2.6-0.8,3.7
			c-0.1,0.2-0.3,0.2-0.5,0.2c-0.6-0.2-1.1-0.6-1.3-1.2c-0.1-0.5-0.4-0.9-0.8-1.3c-0.2-0.1-0.5-0.2-0.7-0.2c-0.4,0-0.7,0.3-0.8,0.6
			c0,0.2-0.1,0.4-0.3,0.6c-0.4,0.3-1,0.3-1.4,0.6c-0.3,0.3-0.4,0.6-0.4,1c-0.3,1.2-1.5,2-3,1.6c-0.9-0.2-1.8,0-2.5,0.6
			c-0.1,0.4,0.1,0.8-0.1,1.2c0,0.2-0.3,0.6-0.4,0.7c0,0.2,0.2,0.4,0.4,0.4c0.4,0.2,0.7,0.3,1.1,0.4l0.9,1.1c0.1,0.1,0.3,0.2,0.5,0.2
			c0.9-0.5,2-0.7,2.7-1.4s1-1.6,1.4-2.6c0.1-0.1,0.2-0.3,0.3-0.3c0.8,0.1,1.7,0.1,2.5-0.1c0.9,0.1,1.6,0.8,1.8,1.7
			c0.2,0.7,0,1.5,0.2,2.1c0.4,0.5,0.8,0.9,1.3,1.3c0.3,0.1,0.6,0.2,0.9,0.4c0.6,0.8,0.5,2.4-0.4,2.9c-0.4,0.2-0.9,0.4-1.3,0.4
			c-0.5-0.1-1.1-0.4-1.7-0.6c-0.9,0.2-1.8,0.7-2.5,1.3c-0.1,0.1-0.2,0.4,0,0.4c0.4,0,0.8,0,1.2-0.3c0.3-0.1,0.7-0.1,1.1,0
			c0.2,0.1,0.3,0.2,0.3,0.4c0,0.5-0.2,1.1-0.6,1.5c-0.7,1-1.8,1.6-3.1,2.2c-1,1-1.5,2.6-2.1,4.1c-1,1.3-2.5,2.1-4.1,2.8
			c-0.5,0.2-0.7,0.8-0.5,1.3c0.3,0.5,0.6,1.1,0.8,1.7c0,0.3,0,0.6,0,0.9c-0.1,0.2-0.2,0.3-0.4,0.4c-0.9,0-1.2-0.6-1.6-1.1
			c-0.4-0.6-0.9-1.1-1.5-1.4c-1.2-0.2-2.4,0.1-3.3,0.7c-0.6,0.1-1.3,0.2-1.7,0.6c-0.1,0.2-0.2,0.4-0.2,0.7c0,0.8-0.3,1.6-0.6,2.4
			c-0.1,0.4-0.2,0.7-0.2,1.1v1.2c0.1,0.3,0.2,0.6,0.4,0.8c0.2,0.2,0.6,0.2,0.8,0.1c0.6-0.5,0.9-1.2,1.8-1.4c0.3,0.1,0.6,0.1,0.9,0.1
			c0.4,0.1,0.7,0.4,0.8,0.8c0.2,0.6,0.1,1.2-0.1,1.7c-0.1,0.1-0.1,0.3,0,0.5c0.3,0.1,0.6,0.1,0.9,0c0.6-0.1,0.7,0.4,1.1,0.6"/>
		
			<radialGradient id="SVGID_133_" cx="251.76" cy="321.03" r="280.11" gradientTransform="matrix(0.579 0 0 -0.5758 -1.4648 120.9677)" gradientUnits="userSpaceOnUse">
			<stop  offset="0" style="stop-color:#CDD5E9"/>
			<stop  offset="8.000000e-02" style="stop-color:#C4CEE5"/>
			<stop  offset="0.49" style="stop-color:#9AAED2"/>
			<stop  offset="0.81" style="stop-color:#809AC6"/>
			<stop  offset="1" style="stop-color:#7693C2"/>
		</radialGradient>
		<path class="st135" d="M87.1,128.7c1.4-0.2,2.4,0.2,3.5,0.3c0.6-0.3,1.3-0.5,1.9-0.7c2.3,0,4.1,0.7,5.8,1.4
			c0.9,0.4,1.7,0.8,2.6,1.3c-0.9,0.4-1.7,0.8-2.5,1.1c-4,1.7-8.8,2.6-14.1,3c-8.1,0.6-16.3-0.6-23.8-3.5c-0.6-0.2-1.2-0.4-1.7-0.7
			c0.7-1.1,1.9-1.8,3.3-1.8l2.4-0.4c1.6-0.1,2.8,0.4,4.1,0.7c0.7,0,1.3,0,2,0.2c1.6-0.2,2.4-1.2,3.2-2c0.3-0.3,0.6-0.8,0.7-1.3
			c0.2-1,0.9-1.9,1.9-2.3c0.1,0,0.3,0,0.2,0.3c-0.2,0.5-0.4,1-0.6,1.5c-0.1,0.3,0,0.6,0.2,0.8c0.4,0.5,0.5,1.5,0.7,2
			c0.7,0.9,1.7,1.4,2.8,1.4c0.8,0,1.5,0.3,2.2,0.4c0.2,0.1,0.4,0,0.6-0.1L87.1,128.7z"/>
		
			<radialGradient id="SVGID_134_" cx="251.77" cy="321.02" r="280.1" gradientTransform="matrix(0.579 0 0 -0.5758 -1.4648 120.9677)" gradientUnits="userSpaceOnUse">
			<stop  offset="0" style="stop-color:#CDD5E9"/>
			<stop  offset="8.000000e-02" style="stop-color:#C4CEE5"/>
			<stop  offset="0.49" style="stop-color:#9AAED2"/>
			<stop  offset="0.81" style="stop-color:#809AC6"/>
			<stop  offset="1" style="stop-color:#7693C2"/>
		</radialGradient>
		<path class="st136" d="M75.9,34.2c0.1-0.3,0.1-0.6,0.3-0.9c0.3-0.4,0.4-0.9,0.2-1.4c-0.1-0.2-0.2-0.4-0.4-0.5
			c-0.5-0.2-0.9-0.6-1.3-1c0.1-0.5,0.3-0.9,0.5-1.3c-0.8-0.5-1.6-1-1.8-1.9c0-0.1-0.2-0.2-0.3-0.2c0,0,0,0,0,0
			c-0.2-0.2,0-0.4,0.1-0.7c-0.2,0.1-0.4,0.1-0.6,0.1c-0.1,0-0.1,0.1-0.1,0.1c-0.9,0.1-1.7,0.2-2.5,0.3c-0.4,0.2-0.8,0.2-1.2,0.2
			c-0.1,0-0.3,0-0.4,0.1c-0.6,0.8-1,1.6-1.2,2.6c0,0.1-0.1,0.3,0.1,0.2c0.1,0.2,0.2,0.3,0.4,0.4c0.1,0,0.6,0,0.7,0
			c0.1,0,0.4,0,0.3,0.2c0,0.3-0.2,0.5-0.3,0.8c-0.4,0.6-0.5,1.3-0.3,2c0.2,0.4,0.2,0.8,0.1,1.2c-0.1,0.3-0.1,0.6,0,0.9
			c0.2,0.4,0.4,0.7,0.7,1c0.3,0.6,0.7,1.1,1.2,1.4l3.1,1c0.2,0,0.3-0.1,0.4-0.2c0.3-0.4,0.5-0.9,0.8-1.4
			C75.1,36.3,75.5,35.2,75.9,34.2z"/>
		
			<radialGradient id="SVGID_135_" cx="251.76" cy="321.02" r="280.11" gradientTransform="matrix(0.579 0 0 -0.5758 -1.4648 120.9677)" gradientUnits="userSpaceOnUse">
			<stop  offset="0" style="stop-color:#CDD5E9"/>
			<stop  offset="8.000000e-02" style="stop-color:#C4CEE5"/>
			<stop  offset="0.49" style="stop-color:#9AAED2"/>
			<stop  offset="0.81" style="stop-color:#809AC6"/>
			<stop  offset="1" style="stop-color:#7693C2"/>
		</radialGradient>
		<path class="st137" d="M54.9,68.1c-0.5-0.2-1.1-0.2-1.7-0.1c-0.1,0-0.1,0-0.2,0.1c-0.6,0.3-1,0.8-1.3,1.3c0.2,0.5,0.7,0.8,1.2,0.7
			l4-0.6c1,0.2,1.8,0.5,2.7,0.7c0.2,0,0.4,0,0.6-0.1c0.2,0,0.3-0.2,0.4-0.4c-0.1-0.5-0.3-0.9-0.7-1.1c-0.8-0.2-1.7-0.3-2.6-0.6
			L54.9,68.1L54.9,68.1z"/>
		
			<radialGradient id="SVGID_136_" cx="251.77" cy="321.02" r="280.1" gradientTransform="matrix(0.579 0 0 -0.5758 -1.4648 120.9677)" gradientUnits="userSpaceOnUse">
			<stop  offset="0" style="stop-color:#CDD5E9"/>
			<stop  offset="8.000000e-02" style="stop-color:#C4CEE5"/>
			<stop  offset="0.49" style="stop-color:#9AAED2"/>
			<stop  offset="0.81" style="stop-color:#809AC6"/>
			<stop  offset="1" style="stop-color:#7693C2"/>
		</radialGradient>
		<path class="st138" d="M77.6,36.1c0.1-0.1,0.2-0.1,0.4-0.1c0.6,0.2,1.2,0.4,1.7,0.7c0.2,0.1,0.3,0.3,0.2,0.5c0,0,0,0.1-0.1,0.1
			c-0.3,0.2-0.6,0.4-0.9,0.5h-1.1c-0.4-0.1-0.8-0.4-1.2-0.7C76.9,36.8,77.2,36.4,77.6,36.1z"/>
		
			<radialGradient id="SVGID_137_" cx="251.76" cy="316.04" r="277.67" gradientTransform="matrix(0.579 0 0 -0.5758 -1.4648 120.9677)" gradientUnits="userSpaceOnUse">
			<stop  offset="0" style="stop-color:#CDD5E9"/>
			<stop  offset="8.000000e-02" style="stop-color:#C4CEE5"/>
			<stop  offset="0.49" style="stop-color:#9AAED2"/>
			<stop  offset="0.81" style="stop-color:#809AC6"/>
			<stop  offset="1" style="stop-color:#7693C2"/>
		</radialGradient>
		<path class="st139" d="M135.7,75.1c-0.2-2.6-0.6-5.1-1.2-7.6c-0.9-3.5-2.1-6.9-3.4-10.3c-1.2-2.5-2.8-5.2-2.8-5.2l-0.8,0.2
			c0,0,0.4,1.2-0.8,1c-1.2-0.2-3.9-1.6-4.1-0.9c-0.1,0.7,0,1.4,0.2,2c0.2,0.5,1.2,1.7,0.2,1.4c-1.1-0.2-2.5-0.5-2.5-0.5
			c-0.6-0.8-1.6-1.3-2.6-1.3c-1.7,0.1-3.1-0.2-3.3-1c-0.2-0.9-1.2-2.2-5.4-2.5c-4.2-0.2-6,2.4-6,2.4s-1.2,1.8-2.5,2s-2.5,0.1-3,0.2
			l0,0c-0.5,0.8-0.6,2-0.7,3.2c-0.5,1-1.1,1.9-1,3.4c-0.2,1.3-0.4,2.7-0.6,3.9c-0.1,1.1-0.1,2.2-0.1,3.4c0,1.2,0.7,2.3,1.9,2.8
			l0.8,0.8c0.4,0.6,0.7,1.3,1.1,1.8c0.8,1.1,1.5,2.2,3.2,2.3c1.1,0.1,2.3-0.1,3.3-0.4c1,0,2.1-0.3,3-0.7c1.2-0.4,2.1-1,3.6-1
			c0.2,0,0.4,0.1,0.6,0.2c1,0.5,1.3,1.7,1.7,2.9c0.1,1,0.5,1.9,1.2,2.6c0.6,1.3,0.7,2.9,1.1,4.4c0.2,0.9,0.6,2.3,0,3
			c-0.3,0.4-0.5,0.9-0.4,1.5l1.5,3.6c0,0.9-0.2,1.7-0.5,2.6c0.1,1.6,0.3,3.2,0.6,4.8c-0.1,1.2-0.5,1.9-0.7,2.9
			c-0.1,0.3,0,0.7,0.3,0.8c2-0.1,3.8-0.4,5.9-0.5c0.4,0,0.8-0.1,1.2-0.4c0.5-1,1-2.1,2-2.7c0.2-0.8,0.6-1.5,1.1-2.2
			c0.5-0.5,1.2-0.9,1.7-1.4c0.4-1.2,0.5-2.6,0.9-3.6c0.5-1.2,4.8-5.2,4.8-5.2C135.9,83.6,136.1,79.3,135.7,75.1z"/>
		
			<radialGradient id="SVGID_138_" cx="251.76" cy="321.02" r="280.11" gradientTransform="matrix(0.579 0 0 -0.5758 -1.4648 120.9677)" gradientUnits="userSpaceOnUse">
			<stop  offset="0" style="stop-color:#CDD5E9"/>
			<stop  offset="8.000000e-02" style="stop-color:#C4CEE5"/>
			<stop  offset="0.49" style="stop-color:#9AAED2"/>
			<stop  offset="0.81" style="stop-color:#809AC6"/>
			<stop  offset="1" style="stop-color:#7693C2"/>
		</radialGradient>
		<path class="st140" d="M91.3,30.2l2,0.8l1,0.4l1.4,0.6l0.5-0.4l-1-0.8L93,28.8l-1.5-0.2l-1.4-1L88.9,27l0.8-0.1l2,1l3,1.1l1.5,0.1
			l0.9,0.8l1.1,0.1l-0.5,0.6l1.7,1.5l-1,0.5c0,0-1.4-0.5-1.3,0s-2.3,0.4-2.3,0.4l-0.7-0.5L94,31.9l-1.2-0.3l-0.8,0.3l2.1,2.1
			L93.4,35l0.2,1.2l-0.4,1.2l-0.6,0.9L92,39.2c-0.6-0.1-1.2,0.1-1.6,0.6c-0.8,0.8,0.4,0.8,2.3,1.3s4,3.8,4,3.8
			c-0.7,0.2-1.5,0.3-2.2,0.4c-1,0-2.1,0.1-3.1,0.3l-1.6,1.2c-0.3,0.1,1,1.5,1.4,2c0.3,0.5,0.5,1,0.5,1.5c0.1,0.8,0.1,1.4,0.2,1.4
			c0.5,0.7,1.6,0.2,1.5,0.9c0.2,0.5,0.5,0.9,0.8,1.3c0.1,0.1,1.4-0.1,1.4-0.1l2.1,0.7l0,0c0,0,0,0,0,0c0.3-0.8,1.1-1.4,1.9-1.4
			c1.1-0.1,1.2-0.6,1.2-0.6l0.2-1.7l-0.3-1.6l-0.5-1.8l0.4-1.4l0.9-1c0,0-1.2-1.4,0.2-2c1.3-0.6,2.7-0.6,2.7-1
			c0-0.5,1.5,0.6,1.9,0.8s2.2,1.3,3.5,1.3c1.3,0,3.5,1.4,3.5,1.4l1.5,1.6L114,45l0.5-0.2c-0.4-0.5-1-0.8-1.6-1.1
			c-0.9-0.4-3.3-1.2-3.3-1.2L107,41l-1.2-1.1c1.2,0.4,2.5,0.8,3.8,1.1c0.5,0,4.2,2.3,4.2,2.3l1.8,1.4l1.3,1.4c0.6,0.5,1.1,1,1.8,1.4
			c0.3,0.1,1.6,0.6,1.6,0.2c-0.1-0.5-0.3-1-0.5-1.4l-1.4-1.3l-0.5-1.4l0.5,0.3l1.2,1.4l1.5,1.1l1.1,0.3l0.7,0.8l0.7-0.9l0.9,0.1
			l1.1,1.9l0.4-0.4c-2-2.8-4.3-5.4-6.9-7.7c-0.3-0.3-0.6-0.6-1-0.8c0,0-4-3.5-4.1-3.6c-0.5-0.5-1.1-0.9-1.7-1.3
			c-7.4-5.2-16.1-8.4-25.1-9.4c-0.2,0-0.3,0.1-0.4,0.2c0,0.1,0,0.3,0.1,0.4c0.1,0.9-0.1,1.8-0.4,2.6c0,0.1,0,0.3,0.1,0.4
			c0.2,0.4,0.5,0.7,0.7,1.1c0.7,0.4,1.5,0.8,2,1C90.1,31.5,91.3,30.2,91.3,30.2z"/>
		<polygon class="st141" points="114,46.8 112.4,47 112.5,47.8 114.7,48.4 114.9,47.8 		"/>
		<polygon class="st141" points="107,46.3 108.3,48.1 109.5,48.4 109.4,47.4 107.9,45.9 107.2,45.8 		"/>
		<polygon class="st141" points="105.5,43.9 106.4,45.1 107,45.1 106.1,43.7 		"/>
		<polygon class="st142" points="89.7,39.1 91.3,38 92.6,37.6 92.1,37 91.8,36.5 90.8,36.4 89.6,35.9 88.6,35.4 88.1,35.3 
			87.8,34.5 86.9,34.5 86.1,34 85.7,34.6 86.6,35.2 86.9,35.9 87.3,36.3 88,36.1 88.9,36.2 89.3,36.8 88.5,36.7 89.2,37.3 
			89.2,37.8 89.9,38.1 		"/>
		<polygon class="st142" points="86.9,36.4 87.6,36.9 88.3,37.4 88.6,38 87.5,38.7 86.5,38.6 86.5,37.8 86,37.5 85.8,37.1 86.1,37 
			86.1,36.6 		"/>
		<polygon class="st143" points="62.9,69.6 62.9,70.4 61,70.8 62.5,71.2 64.8,71.2 66.4,71.8 65.4,70.2 64.6,69.2 		"/>
		<path class="st144" d="M30,97c3.3-0.4,4.8-0.8,4.8-4.3V66.9c-3.1-3.7-3.9-3.9-4.6-3.9v-1.4h11.5l19,23.2h0.1V68.4
			c0-3.3-0.7-5.1-5.1-5.4v-1.4h11.8V63c-3.9,0.5-4.3,1.7-4.3,4.3v32h-1.5L37.4,69.9h-0.1v21.7c0,3.9,1.2,4.9,5.2,5.4v1.4H30V97z"/>
		<path class="st144" d="M93.5,72.6c-1-3.8-4.3-10.1-10.7-10.1c-2.8,0-5.9,1.6-5.9,5.2c0,2.9,1,4.1,5.6,6.4l8,4c3.7,2,6,5.8,6,10
			c0,4.8-3.5,11.4-13.6,11.4c-5.2,0-7.7-1.8-9.4-1.8c-1.2,0-1.4,1-1.6,1.8h-1.6V86h1.6c1.1,5.5,4.3,11.6,11.2,11.6
			c6.6,0,6.8-5.4,6.8-6.1c0-3.6-2.6-4.9-6.1-6.6l-3.7-1.7C71,78.7,71,74,71,71.5c0-3.3,1.7-10.7,12.1-10.7c4.4,0,6.9,1.8,8.5,1.8
			c1.3,0,1.5-0.8,1.8-1.8h1.6v11.8L93.5,72.6L93.5,72.6z"/>
		<path class="st144" d="M99.9,61.6h31v10.9h-1.3c-1.2-5.7-2.7-9.1-12.1-9.1c-3,0-3.9,0.2-3.9,2.6v12.6c6.8,0.1,7.6-3.7,8.4-8.1h1.4
			V89h-1.4c-0.6-4.5-1.5-8.4-8.4-8.4v12.7c0,3.6,2.2,3.7,6,3.9v1.4H99.9v-1.4c3.1-0.3,4.8-0.5,4.8-3.9V66.9c0-3.6-2.2-3.7-4.8-3.9
			L99.9,61.6L99.9,61.6z"/>
		<path class="st145" d="M80.5,25.1c30.5,0,55.3,24.6,55.3,55s-24.8,55-55.3,55s-55.3-24.6-55.3-55C25.2,49.7,49.9,25.2,80.5,25.1
			 M80.5,24.4c-30.9,0-56,24.9-56,55.7s25.1,55.7,56,55.7s56-24.9,56-55.7l0,0C136.4,49.4,111.4,24.4,80.5,24.4L80.5,24.4z"/>
		
			<radialGradient id="SVGID_139_" cx="464.9276" cy="28.1586" r="179.6272" fx="425.2428" fy="-74.4758" gradientTransform="matrix(0.3069 0 0 -0.3052 -62.6924 88.694)" gradientUnits="userSpaceOnUse">
			<stop  offset="0" style="stop-color:#0FB3E8"/>
			<stop  offset="0.24" style="stop-color:#148EB6"/>
			<stop  offset="0.76" style="stop-color:#1F3F4B"/>
			<stop  offset="1" style="stop-color:#231F20"/>
		</radialGradient>
		<ellipse class="st146" cx="80.5" cy="80.1" rx="55.4" ry="55.1"/>
	</g>
</g>
</svg>
