<svg xmlns="http://www.w3.org/2000/svg" xmlns:xlink="http://www.w3.org/1999/xlink" viewBox="0 0 277.95 278.26"><defs><style>.cls-1{isolation:isolate;}.cls-2{fill:none;}.cls-3{fill:url(#radial-gradient);}.cls-4{fill:url(#radial-gradient-2);}.cls-5{fill:url(#radial-gradient-3);}.cls-6{fill:url(#radial-gradient-4);}.cls-7{fill:url(#radial-gradient-5);}.cls-8{fill:url(#radial-gradient-6);}.cls-9{fill:url(#radial-gradient-7);}.cls-10{fill:url(#radial-gradient-8);}.cls-11{fill:url(#radial-gradient-9);}.cls-12{fill:url(#radial-gradient-10);}.cls-13{fill:url(#radial-gradient-11);}.cls-14{fill:url(#radial-gradient-12);}.cls-15{fill:url(#radial-gradient-13);}.cls-16{fill:url(#radial-gradient-14);}.cls-17{fill:url(#radial-gradient-15);}.cls-18{fill:url(#radial-gradient-16);}.cls-19{fill:url(#radial-gradient-17);}.cls-20{fill:url(#radial-gradient-18);}.cls-21{fill:url(#radial-gradient-19);}.cls-22{fill:url(#radial-gradient-20);}.cls-23{fill:url(#radial-gradient-21);}.cls-24{fill:url(#radial-gradient-22);}.cls-25{fill:url(#radial-gradient-23);}.cls-26{fill:url(#radial-gradient-24);}.cls-27{fill:url(#radial-gradient-25);}.cls-28{fill:url(#radial-gradient-26);}.cls-29{fill:url(#radial-gradient-27);}.cls-30{fill:url(#radial-gradient-28);}.cls-31{fill:url(#radial-gradient-29);}.cls-32{fill:url(#radial-gradient-30);}.cls-33{fill:url(#radial-gradient-31);}.cls-34{fill:url(#radial-gradient-32);}.cls-35{fill:url(#radial-gradient-33);}.cls-36{fill:url(#radial-gradient-34);}.cls-37{fill:url(#radial-gradient-35);}.cls-38{fill:url(#radial-gradient-36);}.cls-39{fill:url(#radial-gradient-37);}.cls-40{fill:url(#radial-gradient-38);}.cls-41{fill:url(#radial-gradient-39);}.cls-42{fill:url(#radial-gradient-40);}.cls-43{fill:url(#radial-gradient-41);}.cls-44{fill:url(#radial-gradient-42);}.cls-45{fill:url(#radial-gradient-43);}.cls-46{fill:url(#radial-gradient-44);}.cls-47{fill:url(#radial-gradient-45);}.cls-48{fill:url(#radial-gradient-46);}.cls-49{fill:url(#radial-gradient-47);}.cls-50{fill:url(#radial-gradient-48);}.cls-51{fill:url(#radial-gradient-49);}.cls-52{fill:url(#radial-gradient-50);}.cls-53{fill:url(#radial-gradient-51);}.cls-54{fill:url(#radial-gradient-52);}.cls-55{fill:url(#radial-gradient-53);}.cls-56{fill:url(#radial-gradient-54);}.cls-57{fill:#ddbf84;}.cls-58{fill:url(#radial-gradient-55);}.cls-59{fill:url(#radial-gradient-56);}.cls-60{fill:url(#radial-gradient-57);}.cls-61{fill:url(#radial-gradient-58);}.cls-62{fill:url(#radial-gradient-59);}.cls-63{fill:url(#radial-gradient-60);}.cls-64{fill:url(#radial-gradient-61);}.cls-65{fill:url(#radial-gradient-62);}.cls-66{fill:url(#radial-gradient-63);}.cls-67{fill:url(#radial-gradient-64);}.cls-68{fill:url(#radial-gradient-65);}.cls-69{fill:url(#radial-gradient-66);}.cls-70{fill:url(#radial-gradient-67);}.cls-71{fill:url(#radial-gradient-68);}.cls-72{fill:url(#radial-gradient-69);}.cls-73{fill:url(#radial-gradient-70);}.cls-74{fill:url(#radial-gradient-71);}.cls-75{fill:url(#radial-gradient-72);}.cls-76{fill:url(#radial-gradient-73);}.cls-77{fill:url(#radial-gradient-74);}.cls-78{fill:url(#radial-gradient-75);}.cls-79{fill:url(#radial-gradient-76);}.cls-80{fill:url(#radial-gradient-77);}.cls-81{fill:url(#radial-gradient-78);}.cls-82{fill:url(#radial-gradient-79);}.cls-83{fill:url(#radial-gradient-80);}.cls-84{fill:url(#radial-gradient-81);}.cls-85{fill:url(#radial-gradient-82);}.cls-86{fill:url(#radial-gradient-83);}.cls-87{fill:url(#radial-gradient-84);}.cls-88{fill:url(#radial-gradient-85);}.cls-89{fill:url(#radial-gradient-86);}.cls-90{fill:url(#radial-gradient-87);}.cls-91{fill:url(#radial-gradient-88);}.cls-92{fill:url(#radial-gradient-89);}.cls-93{fill:url(#radial-gradient-90);}.cls-94{fill:url(#radial-gradient-91);}.cls-95{fill:url(#radial-gradient-92);}.cls-96{fill:url(#radial-gradient-93);}.cls-97{fill:url(#radial-gradient-94);}.cls-98{fill:url(#radial-gradient-95);}.cls-99{fill:url(#radial-gradient-96);}.cls-100{fill:url(#radial-gradient-97);}.cls-101{fill:url(#radial-gradient-98);}.cls-102{fill:url(#radial-gradient-99);}.cls-103{fill:url(#radial-gradient-100);}.cls-104{fill:url(#radial-gradient-101);}.cls-105{fill:url(#radial-gradient-102);}.cls-106{fill:url(#radial-gradient-103);}.cls-107{fill:url(#radial-gradient-104);}.cls-108{fill:url(#radial-gradient-105);}.cls-109{fill:url(#radial-gradient-106);}.cls-110{fill:url(#radial-gradient-107);}.cls-111{fill:url(#radial-gradient-108);}.cls-112{fill:url(#radial-gradient-109);}.cls-113{fill:url(#radial-gradient-110);}.cls-114{fill:url(#radial-gradient-111);}.cls-115{fill:url(#radial-gradient-112);}.cls-116{fill:url(#radial-gradient-113);}.cls-117{fill:url(#radial-gradient-114);}.cls-118{fill:url(#radial-gradient-115);}.cls-119{fill:url(#radial-gradient-116);}.cls-120{fill:url(#radial-gradient-117);}.cls-121{fill:url(#radial-gradient-118);}.cls-122{fill:url(#radial-gradient-119);}.cls-123{fill:url(#radial-gradient-120);}.cls-124{fill:url(#radial-gradient-121);}.cls-125{fill:url(#radial-gradient-122);}.cls-126{fill:url(#radial-gradient-123);}.cls-127{fill:url(#radial-gradient-124);}.cls-128{fill:url(#radial-gradient-125);}.cls-129{fill:url(#radial-gradient-126);}.cls-130{fill:url(#radial-gradient-127);}.cls-131{fill:url(#radial-gradient-128);}.cls-132{fill:url(#radial-gradient-129);}.cls-133{fill:url(#radial-gradient-130);}.cls-134,.cls-146{fill:#fff;}.cls-134{stroke:#af8400;stroke-width:0.51px;}.cls-135{fill:url(#radial-gradient-131);}.cls-136,.cls-137,.cls-138,.cls-139,.cls-140,.cls-141,.cls-142,.cls-143,.cls-144,.cls-145{stroke:#dbe0ee;stroke-width:0.08px;}.cls-136{fill:url(#radial-gradient-132);}.cls-137{fill:url(#radial-gradient-133);}.cls-138{fill:url(#radial-gradient-134);}.cls-139{fill:url(#radial-gradient-135);}.cls-140{fill:url(#radial-gradient-136);}.cls-141{fill:url(#radial-gradient-137);}.cls-142{fill:url(#radial-gradient-138);}.cls-143{fill:#90a6ce;}.cls-144{fill:#99add2;}.cls-145{fill:#bcc8e1;}.cls-146{stroke:#005699;stroke-width:1.06px;}.cls-147{fill:#af8400;}.cls-148{opacity:0.27;mix-blend-mode:color-burn;fill:url(#New_Gradient_Swatch_1);}</style><radialGradient id="radial-gradient" cx="222.36" cy="-248.94" r="523.52" gradientTransform="translate(-0.24 168.13) scale(0.53 0.53)" gradientUnits="userSpaceOnUse"><stop offset="0" stop-color="#e5cc9c"/><stop offset="1" stop-color="#af8400"/></radialGradient><radialGradient id="radial-gradient-2" cx="222.36" cy="-248.92" r="523.48" xlink:href="#radial-gradient"/><radialGradient id="radial-gradient-3" cx="222.36" cy="-248.94" r="523.52" xlink:href="#radial-gradient"/><radialGradient id="radial-gradient-4" cx="222.36" cy="-248.92" r="523.48" xlink:href="#radial-gradient"/><radialGradient id="radial-gradient-5" cx="222.36" cy="-248.92" r="523.46" xlink:href="#radial-gradient"/><radialGradient id="radial-gradient-6" cx="222.36" cy="-248.92" r="523.48" xlink:href="#radial-gradient"/><radialGradient id="radial-gradient-7" cx="222.36" cy="-248.92" r="523.46" xlink:href="#radial-gradient"/><radialGradient id="radial-gradient-8" cx="222.36" cy="-248.92" r="523.48" xlink:href="#radial-gradient"/><radialGradient id="radial-gradient-9" cx="222.36" cy="-248.92" r="523.46" xlink:href="#radial-gradient"/><radialGradient id="radial-gradient-10" cx="222.36" cy="-248.92" r="523.48" xlink:href="#radial-gradient"/><radialGradient id="radial-gradient-11" cx="222.37" cy="-248.94" r="523.49" xlink:href="#radial-gradient"/><radialGradient id="radial-gradient-12" cx="222.36" cy="-248.92" r="523.48" xlink:href="#radial-gradient"/><radialGradient id="radial-gradient-13" cx="222.37" cy="-248.94" r="523.49" xlink:href="#radial-gradient"/><radialGradient id="radial-gradient-14" cx="222.36" cy="-248.94" r="523.5" xlink:href="#radial-gradient"/><radialGradient id="radial-gradient-15" cx="222.37" cy="-248.94" r="523.49" xlink:href="#radial-gradient"/><radialGradient id="radial-gradient-16" cx="222.36" cy="-248.94" r="523.49" xlink:href="#radial-gradient"/><radialGradient id="radial-gradient-17" cx="222.36" cy="-248.95" r="523.5" xlink:href="#radial-gradient"/><radialGradient id="radial-gradient-18" cx="222.36" cy="-248.94" r="523.5" xlink:href="#radial-gradient"/><radialGradient id="radial-gradient-19" cx="222.36" cy="-248.95" r="523.5" xlink:href="#radial-gradient"/><radialGradient id="radial-gradient-20" cx="222.37" cy="-248.92" r="523.46" xlink:href="#radial-gradient"/><radialGradient id="radial-gradient-21" cx="222.36" cy="-248.95" r="523.5" xlink:href="#radial-gradient"/><radialGradient id="radial-gradient-22" cx="222.37" cy="-248.92" r="523.46" xlink:href="#radial-gradient"/><radialGradient id="radial-gradient-23" cx="222.34" cy="-248.93" r="523.5" xlink:href="#radial-gradient"/><radialGradient id="radial-gradient-24" cx="222.37" cy="-248.92" r="523.46" xlink:href="#radial-gradient"/><radialGradient id="radial-gradient-25" cx="222.34" cy="-248.93" r="523.5" xlink:href="#radial-gradient"/><radialGradient id="radial-gradient-26" cx="222.36" cy="-248.92" r="523.48" gradientTransform="translate(-0.24 168.13) scale(0.53 0.53)" gradientUnits="userSpaceOnUse"><stop offset="0" stop-color="#f0dec0"/><stop offset="1" stop-color="#af8400"/></radialGradient><radialGradient id="radial-gradient-27" cx="222.36" cy="-248.93" r="523.5" xlink:href="#radial-gradient-26"/><radialGradient id="radial-gradient-28" cx="222.36" cy="-248.92" r="523.48" xlink:href="#radial-gradient"/><radialGradient id="radial-gradient-29" cx="222.36" cy="-248.92" r="523.48" xlink:href="#radial-gradient-26"/><radialGradient id="radial-gradient-30" cx="222.36" cy="-248.91" r="523.46" xlink:href="#radial-gradient"/><radialGradient id="radial-gradient-31" cx="222.36" cy="-248.92" r="523.48" xlink:href="#radial-gradient-26"/><radialGradient id="radial-gradient-32" cx="222.36" cy="-248.92" r="523.46" xlink:href="#radial-gradient"/><radialGradient id="radial-gradient-33" cx="222.36" cy="-248.92" r="523.48" xlink:href="#radial-gradient-26"/><radialGradient id="radial-gradient-34" cx="222.36" cy="-248.93" r="523.49" xlink:href="#radial-gradient"/><radialGradient id="radial-gradient-35" cx="222.36" cy="-248.93" r="523.49" xlink:href="#radial-gradient-26"/><radialGradient id="radial-gradient-36" cx="222.36" cy="-248.93" r="523.48" xlink:href="#radial-gradient"/><radialGradient id="radial-gradient-37" cx="222.36" cy="-248.93" r="523.48" xlink:href="#radial-gradient-26"/><radialGradient id="radial-gradient-38" cx="222.37" cy="-248.86" r="523.37" xlink:href="#radial-gradient"/><radialGradient id="radial-gradient-39" cx="222.37" cy="-248.87" r="523.39" xlink:href="#radial-gradient"/><radialGradient id="radial-gradient-40" cx="222.37" cy="-248.87" r="523.39" xlink:href="#radial-gradient-26"/><radialGradient id="radial-gradient-41" cx="222.37" cy="-248.94" r="523.49" xlink:href="#radial-gradient"/><radialGradient id="radial-gradient-42" cx="222.36" cy="-248.93" r="523.48" xlink:href="#radial-gradient-26"/><radialGradient id="radial-gradient-43" cx="222.37" cy="-249" r="523.56" xlink:href="#radial-gradient"/><radialGradient id="radial-gradient-44" cx="222.36" cy="-248.98" r="523.55" xlink:href="#radial-gradient-26"/><radialGradient id="radial-gradient-45" cx="222.36" cy="-248.94" r="523.5" xlink:href="#radial-gradient"/><radialGradient id="radial-gradient-46" cx="222.36" cy="-248.92" r="523.48" xlink:href="#radial-gradient-26"/><radialGradient id="radial-gradient-47" cx="222.36" cy="-248.95" r="523.5" xlink:href="#radial-gradient"/><radialGradient id="radial-gradient-48" cx="222.36" cy="-248.93" r="523.48" xlink:href="#radial-gradient-26"/><radialGradient id="radial-gradient-49" cx="222.35" cy="-248.95" r="523.5" xlink:href="#radial-gradient"/><radialGradient id="radial-gradient-50" cx="222.36" cy="-248.92" r="523.48" xlink:href="#radial-gradient-26"/><radialGradient id="radial-gradient-51" cx="222.36" cy="-248.95" r="523.5" xlink:href="#radial-gradient"/><radialGradient id="radial-gradient-52" cx="222.36" cy="-248.92" r="523.48" xlink:href="#radial-gradient-26"/><radialGradient id="radial-gradient-53" cx="222.38" cy="-248.91" r="523.46" xlink:href="#radial-gradient"/><radialGradient id="radial-gradient-54" cx="222.36" cy="-248.92" r="523.48" xlink:href="#radial-gradient-26"/><radialGradient id="radial-gradient-55" cx="222.36" cy="-248.92" r="523.49" xlink:href="#radial-gradient"/><radialGradient id="radial-gradient-56" cx="222.36" cy="-248.93" r="523.49" xlink:href="#radial-gradient"/><radialGradient id="radial-gradient-57" cx="222.36" cy="-248.93" r="523.5" xlink:href="#radial-gradient"/><radialGradient id="radial-gradient-58" cx="222.36" cy="-248.92" r="523.48" xlink:href="#radial-gradient"/><radialGradient id="radial-gradient-59" cx="222.37" cy="-248.91" r="523.46" xlink:href="#radial-gradient"/><radialGradient id="radial-gradient-60" cx="222.34" cy="-248.93" r="523.5" xlink:href="#radial-gradient"/><radialGradient id="radial-gradient-61" cx="222.37" cy="-248.93" r="523.47" xlink:href="#radial-gradient"/><radialGradient id="radial-gradient-62" cx="222.36" cy="-248.93" r="523.48" xlink:href="#radial-gradient"/><radialGradient id="radial-gradient-63" cx="222.33" cy="-248.96" r="523.57" xlink:href="#radial-gradient"/><radialGradient id="radial-gradient-64" cx="222.32" cy="-248.96" r="523.59" xlink:href="#radial-gradient"/><radialGradient id="radial-gradient-65" cx="222.36" cy="-248.92" r="523.48" xlink:href="#radial-gradient"/><radialGradient id="radial-gradient-66" cx="222.35" cy="-248.93" r="523.5" xlink:href="#radial-gradient"/><radialGradient id="radial-gradient-67" cx="222.36" cy="-248.92" r="523.47" xlink:href="#radial-gradient-26"/><radialGradient id="radial-gradient-68" cx="222.36" cy="-248.9" r="523.41" xlink:href="#radial-gradient-26"/><radialGradient id="radial-gradient-69" cx="222.36" cy="-248.92" r="523.47" xlink:href="#radial-gradient-26"/><radialGradient id="radial-gradient-70" cx="222.35" cy="-248.91" r="523.47" xlink:href="#radial-gradient-26"/><radialGradient id="radial-gradient-71" cx="222.36" cy="-248.92" r="523.48" xlink:href="#radial-gradient-26"/><radialGradient id="radial-gradient-72" cx="222.36" cy="-248.92" r="523.48" xlink:href="#radial-gradient"/><radialGradient id="radial-gradient-73" cx="222.36" cy="-248.92" r="523.48" xlink:href="#radial-gradient-26"/><radialGradient id="radial-gradient-74" cx="222.36" cy="-248.93" r="523.49" xlink:href="#radial-gradient"/><radialGradient id="radial-gradient-75" cx="222.36" cy="-248.92" r="523.48" xlink:href="#radial-gradient-26"/><radialGradient id="radial-gradient-76" cx="222.36" cy="-248.93" r="523.49" xlink:href="#radial-gradient"/><radialGradient id="radial-gradient-77" cx="222.36" cy="-248.92" r="523.48" xlink:href="#radial-gradient-26"/><radialGradient id="radial-gradient-78" cx="222.36" cy="-248.93" r="523.49" xlink:href="#radial-gradient"/><radialGradient id="radial-gradient-79" cx="222.36" cy="-248.92" r="523.48" xlink:href="#radial-gradient-26"/><radialGradient id="radial-gradient-80" cx="222.36" cy="-248.93" r="523.5" xlink:href="#radial-gradient"/><radialGradient id="radial-gradient-81" cx="222.36" cy="-248.92" r="523.48" xlink:href="#radial-gradient-26"/><radialGradient id="radial-gradient-82" cx="222.36" cy="-248.93" r="523.49" xlink:href="#radial-gradient"/><radialGradient id="radial-gradient-83" cx="222.36" cy="-248.92" r="523.48" xlink:href="#radial-gradient-26"/><radialGradient id="radial-gradient-84" cx="222.36" cy="-248.93" r="523.49" xlink:href="#radial-gradient"/><radialGradient id="radial-gradient-85" cx="222.36" cy="-248.93" r="523.5" xlink:href="#radial-gradient"/><radialGradient id="radial-gradient-86" cx="222.36" cy="-248.92" r="523.48" xlink:href="#radial-gradient-26"/><radialGradient id="radial-gradient-87" cx="222.36" cy="-248.94" r="523.52" xlink:href="#radial-gradient"/><radialGradient id="radial-gradient-88" cx="222.36" cy="-248.92" r="523.48" xlink:href="#radial-gradient-26"/><radialGradient id="radial-gradient-89" cx="222.36" cy="-248.95" r="523.53" xlink:href="#radial-gradient"/><radialGradient id="radial-gradient-90" cx="222.36" cy="-248.92" r="523.49" xlink:href="#radial-gradient-26"/><radialGradient id="radial-gradient-91" cx="222.36" cy="-248.92" r="523.48" xlink:href="#radial-gradient"/><radialGradient id="radial-gradient-92" cx="222.36" cy="-248.92" r="523.48" xlink:href="#radial-gradient-26"/><radialGradient id="radial-gradient-93" cx="222.36" cy="-248.96" r="523.56" xlink:href="#radial-gradient"/><radialGradient id="radial-gradient-94" cx="222.36" cy="-248.94" r="523.52" xlink:href="#radial-gradient"/><radialGradient id="radial-gradient-95" cx="222.36" cy="-248.94" r="523.52" xlink:href="#radial-gradient-26"/><radialGradient id="radial-gradient-96" cx="222.38" cy="-248.92" r="523.46" xlink:href="#radial-gradient"/><radialGradient id="radial-gradient-97" cx="222.36" cy="-248.92" r="523.48" xlink:href="#radial-gradient-26"/><radialGradient id="radial-gradient-98" cx="222.33" cy="-248.93" r="523.51" xlink:href="#radial-gradient"/><radialGradient id="radial-gradient-99" cx="222.36" cy="-248.92" r="523.48" xlink:href="#radial-gradient-26"/><radialGradient id="radial-gradient-100" cx="222.34" cy="-248.93" r="523.51" xlink:href="#radial-gradient"/><radialGradient id="radial-gradient-101" cx="222.36" cy="-248.92" r="523.49" xlink:href="#radial-gradient-26"/><radialGradient id="radial-gradient-102" cx="222.37" cy="-248.93" r="523.47" xlink:href="#radial-gradient"/><radialGradient id="radial-gradient-103" cx="222.36" cy="-248.92" r="523.48" xlink:href="#radial-gradient-26"/><radialGradient id="radial-gradient-104" cx="222.38" cy="-248.93" r="523.46" xlink:href="#radial-gradient"/><radialGradient id="radial-gradient-105" cx="222.37" cy="-248.92" r="523.47" xlink:href="#radial-gradient-26"/><radialGradient id="radial-gradient-106" cx="222.29" cy="-248.91" r="523.61" xlink:href="#radial-gradient"/><radialGradient id="radial-gradient-107" cx="222.28" cy="-248.9" r="523.61" xlink:href="#radial-gradient-26"/><radialGradient id="radial-gradient-108" cx="222.36" cy="-248.93" r="523.48" xlink:href="#radial-gradient"/><radialGradient id="radial-gradient-109" cx="222.36" cy="-248.92" r="523.48" xlink:href="#radial-gradient-26"/><radialGradient id="radial-gradient-110" cx="222.36" cy="-248.93" r="523.48" xlink:href="#radial-gradient"/><radialGradient id="radial-gradient-111" cx="222.36" cy="-248.92" r="523.48" xlink:href="#radial-gradient-26"/><radialGradient id="radial-gradient-112" cx="222.36" cy="-248.95" r="523.49" xlink:href="#radial-gradient"/><radialGradient id="radial-gradient-113" cx="222.35" cy="-248.94" r="523.51" xlink:href="#radial-gradient"/><radialGradient id="radial-gradient-114" cx="222.35" cy="-248.94" r="523.51" xlink:href="#radial-gradient-26"/><radialGradient id="radial-gradient-115" cx="222.35" cy="-248.93" r="523.5" xlink:href="#radial-gradient"/><radialGradient id="radial-gradient-116" cx="222.36" cy="-248.92" r="523.48" xlink:href="#radial-gradient-26"/><radialGradient id="radial-gradient-117" cx="222.36" cy="-248.93" r="523.49" xlink:href="#radial-gradient"/><radialGradient id="radial-gradient-118" cx="222.37" cy="-248.92" r="523.47" xlink:href="#radial-gradient-26"/><radialGradient id="radial-gradient-119" cx="222.36" cy="-248.93" r="523.5" xlink:href="#radial-gradient"/><radialGradient id="radial-gradient-120" cx="222.36" cy="-248.93" r="523.48" xlink:href="#radial-gradient-26"/><radialGradient id="radial-gradient-121" cx="222.35" cy="-248.94" r="523.51" xlink:href="#radial-gradient"/><radialGradient id="radial-gradient-122" cx="222.34" cy="-248.93" r="523.53" xlink:href="#radial-gradient"/><radialGradient id="radial-gradient-123" cx="222.35" cy="-248.93" r="523.51" xlink:href="#radial-gradient-26"/><radialGradient id="radial-gradient-124" cx="222.35" cy="-248.93" r="523.51" xlink:href="#radial-gradient"/><radialGradient id="radial-gradient-125" cx="222.36" cy="-248.92" r="523.48" xlink:href="#radial-gradient-26"/><radialGradient id="radial-gradient-126" cx="222.35" cy="-248.93" r="523.51" xlink:href="#radial-gradient"/><radialGradient id="radial-gradient-127" cx="222.36" cy="-248.92" r="523.48" xlink:href="#radial-gradient-26"/><radialGradient id="radial-gradient-128" cx="222.38" cy="-248.92" r="523.41" xlink:href="#radial-gradient"/><radialGradient id="radial-gradient-129" cx="222.37" cy="-248.92" r="523.43" xlink:href="#radial-gradient"/><radialGradient id="radial-gradient-130" cx="222.38" cy="-248.92" r="523.41" xlink:href="#radial-gradient-26"/><radialGradient id="radial-gradient-131" cx="304.21" cy="-98.99" r="252.48" gradientTransform="translate(-61.26 157.26) scale(0.53 0.53)" gradientUnits="userSpaceOnUse"><stop offset="0" stop-color="#0fb3e8"/><stop offset="0.52" stop-color="#0781bd"/><stop offset="1" stop-color="#005699"/></radialGradient><radialGradient id="radial-gradient-132" cx="310.27" cy="-100.05" r="280.11" gradientTransform="translate(-0.24 168.13) scale(0.53 0.53)" gradientUnits="userSpaceOnUse"><stop offset="0" stop-color="#cdd5e9"/><stop offset="0.08" stop-color="#c4cee5"/><stop offset="0.49" stop-color="#9aaed2"/><stop offset="0.81" stop-color="#809ac6"/><stop offset="1" stop-color="#7693c2"/></radialGradient><radialGradient id="radial-gradient-133" cx="310.27" cy="-100.06" r="280.11" xlink:href="#radial-gradient-132"/><radialGradient id="radial-gradient-134" cx="310.28" cy="-100.05" r="280.1" xlink:href="#radial-gradient-132"/><radialGradient id="radial-gradient-135" cx="310.27" cy="-100.05" r="280.11" xlink:href="#radial-gradient-132"/><radialGradient id="radial-gradient-136" cx="310.28" cy="-100.05" r="280.1" xlink:href="#radial-gradient-132"/><radialGradient id="radial-gradient-137" cx="310.27" cy="-95.07" r="277.67" xlink:href="#radial-gradient-132"/><radialGradient id="radial-gradient-138" cx="310.27" cy="-100.05" r="280.11" xlink:href="#radial-gradient-132"/><radialGradient id="New_Gradient_Swatch_1" cx="376.23" cy="-34.06" fx="336.52915908550904" fy="-136.73602876742586" r="179.7" gradientTransform="translate(-61.26 157.26) scale(0.53 0.53)" gradientUnits="userSpaceOnUse"><stop offset="0" stop-color="#0fb3e8"/><stop offset="0.24" stop-color="#148eb6"/><stop offset="0.76" stop-color="#1f3f4b"/><stop offset="1" stop-color="#231f20"/></radialGradient></defs><title>Untitled-2</title><g class="cls-1"><g id="Layer_1" data-name="Layer 1"><path class="cls-2" d="M246.68,240.34c0.94,2.9,1.66,6.64,4.66,7.93l1.84,0.5c3.74-1,7-3.06,10.09-5.06,3.11-2.52,7.12-5.82,8.06-9.52,0.1-2.74-2.05-4.55-4.05-6.18a106.32,106.32,0,0,0-22.6-12.15l-0.38.25C243.78,224.27,245.45,232.21,246.68,240.34Z" transform="translate(-61.03 -10.87)"/><path class="cls-2" d="M296.84,180.72c2.71,1.39,5.88,3.53,8.9,2.32l1.66-1a31,31,0,0,0,3.2-9c0-.26.07-0.51,0.1-0.77,0.42-4.09,1.17-9.83-.94-13.38-1.86-2-4.67-1.76-7.24-1.51-1,.17-2,0.36-2.93.56a152.16,152.16,0,0,1-16.37,12.43C287.49,174.11,292.21,177.31,296.84,180.72Z" transform="translate(-61.03 -10.87)"/><path class="cls-2" d="M277.52,215.77c2,2.32,4.08,5.51,7.34,5.55l1.9-.24a33.39,33.39,0,0,0,7-7.92l0.19-.33c2-3.62,4.84-8.64,4.25-12.72-1-2.57-3.64-3.41-6.1-4.16a106.44,106.44,0,0,0-25.33-2.57l-0.65,1C268.71,202.07,273.28,208.76,277.52,215.77Z" transform="translate(-61.03 -10.87)"/><path class="cls-2" d="M121.1,173.15c-2.36,2.22-4.48,4.85-6.77,7.42-0.74,2.48-5.08,4.83-2.22,7.46a77.29,77.29,0,0,0,18.5,1,79.16,79.16,0,0,1-6.14-13.85Q122.77,174.17,121.1,173.15Z" transform="translate(-61.03 -10.87)"/><path class="cls-2" d="M249.15,212.59c3.62,2.15,7.91,3.34,12.19,4.84,2.58-.27,6.41,2.84,7.75-0.81a77.4,77.4,0,0,0-6.31-17.73A80,80,0,0,1,249.15,212.59Z" transform="translate(-61.03 -10.87)"/><path class="cls-2" d="M190.78,229c1.05,4.06,3.22,7.9,5.18,12,2,1.63,2.52,6.54,6.05,4.91a77.07,77.07,0,0,0,8.06-17A80.16,80.16,0,0,1,190.78,229Z" transform="translate(-61.03 -10.87)"/><path class="cls-2" d="M137.53,199.3c-2.07,3.58-3.25,7.78-4.72,12,0.27,2.58-2.84,6.41.81,7.75a77.37,77.37,0,0,0,17.53-6.21A80,80,0,0,1,137.53,199.3Z" transform="translate(-61.03 -10.87)"/><path class="cls-2" d="M168.9,246.71c-1.39,2.71-3.52,5.87-2.32,8.9l0.95,1.66c3.56,2.09,7.65,2.9,11.44,3.72,4,0.41,9,.85,12.19-1.07,2-1.86,1.76-4.66,1.51-7.24a106.59,106.59,0,0,0-7.35-24.45l-1.11-.21C178.15,233.39,173.73,240.13,168.9,246.71Z" transform="translate(-61.03 -10.87)"/><path class="cls-2" d="M98.88,157.88c-3-.25-6.77-1-9.1,1.26l-1.17,1.51c-0.61,4.45.4,8.9,1.13,13,1.1,3.58,2.6,7.7,5.3,9.72,2.49,1.15,5-.15,7.26-1.37a108,108,0,0,0,14.86-11.35,152.11,152.11,0,0,1-16.3-12.29Z" transform="translate(-61.03 -10.87)"/><path class="cls-2" d="M109.67,196.15c-2.9.93-6.64,1.66-7.93,4.65l-0.5,1.84c1.08,4.14,3.53,7.72,5.7,11.09,2.47,3,5.61,6.65,9.1,7.53,2.74,0.11,4.55-2,6.18-4a106.38,106.38,0,0,0,12-22.35l-0.76-1.13C125.5,193.29,117.67,194.93,109.67,196.15Z" transform="translate(-61.03 -10.87)"/><path class="cls-2" d="M128.57,177.42a76.52,76.52,0,0,0,142.85,0A151.73,151.73,0,0,1,128.57,177.42Z" transform="translate(-61.03 -10.87)"/><path class="cls-2" d="M208.57,251.28c-0.25,3-1,6.77,1.26,9.11l1.51,1.17c3.87,0.53,7.73-.16,11.37-0.83,3.86-1.14,8.88-2.66,11.19-5.74,1.15-2.49-.16-5-1.37-7.26a106.84,106.84,0,0,0-16.19-19.82l-0.74.15C212,235.36,210.53,243.32,208.57,251.28Z" transform="translate(-61.03 -10.87)"/><path class="cls-2" d="M134.46,227.47c-2.33,2-5.5,4.08-5.55,7.34l0.24,1.89c2.62,3.46,6.32,5.84,9.64,8.16,3.33,1.77,7.34,3.66,10.71,3.17,2.57-.95,3.41-3.63,4.16-6.11a106.21,106.21,0,0,0,2.57-25.44l-0.58-.38C148,218.75,141.41,223.27,134.46,227.47Z" transform="translate(-61.03 -10.87)"/><path class="cls-2" d="M269.57,188.66c4.12,0.57,8.48,0,13-.22,2.28-1.23,7,.18,6.85-3.72A78.23,78.23,0,0,0,279.2,173c-1.22.75-2.44,1.48-3.68,2.2A79.14,79.14,0,0,1,269.57,188.66Z" transform="translate(-61.03 -10.87)"/><path class="cls-2" d="M161.17,232.39c1.24,2.28-.17,7,3.72,6.85a77.49,77.49,0,0,0,13.89-12.52A79.1,79.1,0,0,1,161,219.36C160.38,223.5,160.92,227.89,161.17,232.39Z" transform="translate(-61.03 -10.87)"/><path class="cls-2" d="M231.09,235.67c2.49,0.74,4.83,5.08,7.47,2.22a77.16,77.16,0,0,0,1-18.81,79.08,79.08,0,0,1-17.81,7.49C224.23,229.93,227.72,232.66,231.09,235.67Z" transform="translate(-61.03 -10.87)"/><path class="cls-3" d="M88.35,168.58c0.2,0.93.42,1.86,0.7,2.79,0.21,0.71.44,1.48,0.68,2.28-0.73-4.1-1.74-8.55-1.13-13l1.17-1.51c2.33-2.27,6.07-1.52,9.1-1.26l2,0.48a152.43,152.43,0,0,1-20-20.92l-0.22.51c-4.66,7.06-11.9,8.83-19.61,8.58,0,2.27,0,5,0,6.87,8.63-.5,17.54,2.46,21.5,11.3q1.2,3.14,2.23,6.34-0.11-1-.26-2Z" transform="translate(-61.03 -10.87)"/><path class="cls-4" d="M104.21,210.17c0.54,0.78,1.1,1.56,1.71,2.31l1,1.26c-2.17-3.37-4.62-6.95-5.7-11.09l0.5-1.84c1.29-3,5-3.72,7.93-4.65,8-1.22,15.82-2.86,23.84-2.41q-1.52-2.31-2.89-4.74a77.29,77.29,0,0,1-18.5-1c-2.86-2.64,1.48-5,2.22-7.46,2.29-2.56,4.41-5.19,6.77-7.42-1.33-.81-2.65-1.65-4-2.51A108,108,0,0,1,102.29,182c-2.28,1.22-4.77,2.52-7.26,1.37-2.7-2-4.2-6.14-5.3-9.72,0.09,0.48.17,1,.24,1.43l-3.73,1.1c-0.44-1.74-.94-3.44-1.48-5.14a102.08,102.08,0,0,1,.45,13.66c-1.61,8.32-7.61,12.72-14.83,15.43,0.84,2.11,1.88,4.63,2.6,6.36,7.79-3.77,17.15-4.44,24.19,2.21q2.49,2.62,4.82,5.39c-0.38-.7-0.77-1.39-1.17-2.08Z" transform="translate(-61.03 -10.87)"/><path class="cls-5" d="M90,175.08c-0.07-.47-0.16-0.95-0.24-1.43-0.24-.79-0.47-1.56-0.68-2.28-0.28-.93-0.5-1.86-0.7-2.79l-3.84.42q0.15,1,.26,2c0.54,1.69,1,3.4,1.48,5.14Z" transform="translate(-61.03 -10.87)"/><path class="cls-6" d="M90,175.08c-0.07-.47-0.16-0.95-0.24-1.43-0.24-.79-0.47-1.56-0.68-2.28-0.28-.93-0.5-1.86-0.7-2.79l-3.84.42q0.15,1,.26,2c0.54,1.69,1,3.4,1.48,5.14Z" transform="translate(-61.03 -10.87)"/><path class="cls-7" d="M134.32,242.29c0.8,0.52,1.61,1,2.47,1.48l2,1.08c-3.33-2.31-7-4.69-9.64-8.16l-0.24-1.89c0-3.26,3.22-5.37,5.55-7.34,7-4.2,13.58-8.72,21.2-11.38q-2.31-1.56-4.51-3.27A77.37,77.37,0,0,1,133.61,219c-3.65-1.34-.54-5.17-0.81-7.75,1.47-4.21,2.65-8.41,4.72-12q-1.71-2.16-3.26-4.43a106.38,106.38,0,0,1-12,22.35c-1.63,2-3.44,4.15-6.18,4-3.49-.88-6.63-4.5-9.1-7.53,0.37,0.58.74,1.15,1.08,1.72l-3,2.44c-1-1.3-2-2.56-3-3.79a104.38,104.38,0,0,1,5.49,12.16c1.7,8.3-2.17,14.66-7.8,19.93,1.59,1.62,3.51,3.55,4.84,4.88,5.75-6.46,14.14-10.66,23.19-7.22,2,0.9,4,1.85,6,2.86-0.59-.48-1.19-0.95-1.8-1.4Z" transform="translate(-61.03 -10.87)"/><path class="cls-8" d="M108,215.45c-0.35-.57-0.71-1.14-1.08-1.72l-1-1.26c-0.61-.75-1.18-1.53-1.71-2.31l-3.4,1.85c0.41,0.69.79,1.38,1.17,2.08,1,1.23,2,2.49,3,3.79Z" transform="translate(-61.03 -10.87)"/><path class="cls-9" d="M108,215.45c-0.35-.57-0.71-1.14-1.08-1.72l-1-1.26c-0.61-.75-1.18-1.53-1.71-2.31l-3.4,1.85c0.41,0.69.79,1.38,1.17,2.08,1,1.23,2,2.49,3,3.79Z" transform="translate(-61.03 -10.87)"/><path class="cls-10" d="M174.94,260.43c0.93,0.17,1.88.33,2.84,0.43L179,261c-3.8-.82-7.88-1.63-11.44-3.72l-0.95-1.66c-1.21-3,.92-6.18,2.32-8.9,4.84-6.57,9.25-13.32,15.31-18.69q-2.75-.55-5.44-1.3a77.49,77.49,0,0,1-13.89,12.52c-3.89.15-2.48-4.57-3.72-6.85-0.25-4.5-.79-8.89-0.21-13q-2.42-1.36-4.73-2.89a106.21,106.21,0,0,1-2.57,25.44c-0.74,2.48-1.58,5.16-4.16,6.11-3.37.49-7.38-1.4-10.71-3.17l1.53,1.08-1.86,3.41c-1.56-.94-3.16-1.8-4.77-2.63a103,103,0,0,1,9.8,9.19c4.75,7,3.61,14.37.42,21.39,2.09,0.9,4.6,1.94,6.34,2.67,2.84-8.17,9-15.27,18.67-15.55,2.47,0.07,4.95.19,7.42,0.42-0.83-.25-1.66-0.48-2.5-0.7Z" transform="translate(-61.03 -10.87)"/><path class="cls-11" d="M140.33,245.94l-1.53-1.08-2-1.08c-0.86-.46-1.67-1-2.47-1.48l-2.43,3c0.61,0.46,1.21.93,1.8,1.4,1.61,0.83,3.2,1.69,4.77,2.63Z" transform="translate(-61.03 -10.87)"/><path class="cls-12" d="M140.33,245.94l-1.53-1.08-2-1.08c-0.86-.46-1.67-1-2.47-1.48l-2.43,3c0.61,0.46,1.21.93,1.8,1.4,1.61,0.83,3.2,1.69,4.77,2.63Z" transform="translate(-61.03 -10.87)"/><path class="cls-13" d="M219.11,261.66c0.93-.2,1.86-0.42,2.8-0.7l0.81-.24c-3.64.67-7.51,1.37-11.37,0.83l-1.51-1.17c-2.28-2.33-1.52-6.07-1.26-9.11,2-8,3.45-15.92,7-23.23q-2.74.54-5.54,0.9a77.07,77.07,0,0,1-8.06,17c-3.53,1.63-4-3.28-6.05-4.91-2-4.06-4.13-7.9-5.18-12q-2.76-.32-5.45-0.82a106.59,106.59,0,0,1,7.35,24.45c0.25,2.57.51,5.37-1.51,7.24-3.21,1.91-8.23,1.47-12.19,1.07,0.82,0.18,1.63.35,2.41,0.54L181,265.38c-1.54-.23-3.08-0.4-4.61-0.54a104.1,104.1,0,0,1,12.28,4.65c7.07,4.67,8.83,11.91,8.58,19.61,2.27,0,5,0,6.88,0-0.51-8.64,2.46-17.54,11.29-21.51,2.34-.89,4.7-1.72,7.09-2.47-1,.1-2,0.21-2.95.35Z" transform="translate(-61.03 -10.87)"/><path class="cls-14" d="M181.38,261.52c-0.79-.19-1.59-0.37-2.41-0.54l-1.18-.12c-1-.1-1.91-0.26-2.84-0.43l-1.09,3.71c0.84,0.22,1.67.45,2.5,0.7,1.54,0.14,3.08.32,4.61,0.54Z" transform="translate(-61.03 -10.87)"/><path class="cls-15" d="M181.38,261.52c-0.79-.19-1.59-0.37-2.41-0.54l-1.18-.12c-1-.1-1.91-0.26-2.84-0.43l-1.09,3.71c0.84,0.22,1.67.45,2.5,0.7,1.54,0.14,3.08.32,4.61,0.54Z" transform="translate(-61.03 -10.87)"/><path class="cls-16" d="M260.22,246c0.78-.53,1.56-1.1,2.31-1.71l0.73-.59c-3.08,2-6.35,4.08-10.09,5.06l-1.84-.5c-3-1.29-3.72-5-4.66-7.93-1.23-8.12-2.9-16.07-2.38-24.22q-2.33,1.57-4.78,3a77.16,77.16,0,0,1-1,18.81c-2.63,2.86-5-1.48-7.47-2.22-3.37-3-6.86-5.74-9.38-9.09q-2.65.75-5.37,1.32a106.84,106.84,0,0,1,16.19,19.82c1.21,2.27,2.52,4.77,1.37,7.26-2.3,3.08-7.33,4.6-11.19,5.74,1-.19,2.06-0.38,3.06-0.54l1.09,3.73c-1.48.37-2.94,0.8-4.39,1.25a106.25,106.25,0,0,1,12.75-.37c8.32,1.61,12.71,7.62,15.43,14.84,2.11-.84,4.62-1.89,6.36-2.61-3.77-7.79-4.44-17.15,2.21-24.19q2.67-2.53,5.49-4.89c-0.89.47-1.78,1-2.65,1.48Z" transform="translate(-61.03 -10.87)"/><path class="cls-17" d="M225.78,260.18c-1,.16-2,0.35-3.06.54l-0.81.24c-0.93.28-1.87,0.5-2.8,0.7l0.41,3.85c1-.14,2-0.25,2.95-0.35,1.45-.45,2.91-0.88,4.39-1.25Z" transform="translate(-61.03 -10.87)"/><path class="cls-18" d="M225.78,260.18c-1,.16-2,0.35-3.06.54l-0.81.24c-0.93.28-1.87,0.5-2.8,0.7l0.41,3.85c1-.14,2-0.25,2.95-0.35,1.45-.45,2.91-0.88,4.39-1.25Z" transform="translate(-61.03 -10.87)"/><path class="cls-19" d="M292.43,215.29c0.44-.69.88-1.4,1.29-2.13a33.39,33.39,0,0,1-7,7.92l-1.9.24c-3.26,0-5.36-3.22-7.34-5.55-4.24-7-8.81-13.71-11.45-21.41q-1.57,2.33-3.29,4.54a77.4,77.4,0,0,1,6.31,17.73c-1.34,3.65-5.17.54-7.75,0.81-4.28-1.51-8.58-2.69-12.19-4.84q-2.18,1.71-4.47,3.27A106.32,106.32,0,0,1,267.27,228c2,1.63,4.16,3.43,4.05,6.18-0.94,3.7-4.95,7-8.06,9.52,0.92-.6,1.83-1.19,2.72-1.73l2.43,3c-1.27.94-2.49,1.93-3.69,2.93a106.07,106.07,0,0,1,11.58-5.19c8.29-1.7,14.66,2.17,19.93,7.8,1.62-1.58,3.55-3.51,4.88-4.84-6.46-5.75-10.67-14.14-7.22-23.2,1.13-2.52,2.33-5,3.63-7.44-0.72.86-1.42,1.74-2.1,2.64Z" transform="translate(-61.03 -10.87)"/><path class="cls-20" d="M266,242c-0.89.55-1.8,1.14-2.72,1.73l-0.73.59c-0.75.62-1.54,1.18-2.31,1.71l1.86,3.4c0.87-.52,1.76-1,2.65-1.48,1.2-1,2.42-2,3.69-2.93Z" transform="translate(-61.03 -10.87)"/><path class="cls-21" d="M266,242c-0.89.55-1.8,1.14-2.72,1.73l-0.73.59c-0.75.62-1.54,1.18-2.31,1.71l1.86,3.4c0.87-.52,1.76-1,2.65-1.48,1.2-1,2.42-2,3.69-2.93Z" transform="translate(-61.03 -10.87)"/><path class="cls-22" d="M310.27,175.13c0.12-.68.23-1.38,0.32-2.08a31,31,0,0,1-3.2,9l-1.66,1c-3,1.21-6.19-.93-8.9-2.32-4.63-3.41-9.36-6.61-13.62-10.32q-2,1.31-4,2.56a78.23,78.23,0,0,1,10.18,11.76c0.16,3.89-4.56,2.48-6.85,3.72-4.48.25-8.84,0.78-13,.22q-1.34,2.41-2.85,4.72a106.44,106.44,0,0,1,25.33,2.57c2.47,0.75,5.15,1.59,6.1,4.16,0.59,4.08-2.3,9.1-4.25,12.72l-0.19.33c0.77-1.11,1.52-2.21,2.27-3.25l3.41,1.86c-0.65,1.09-1.26,2.19-1.86,3.3a106.84,106.84,0,0,1,8.51-9c7-4.75,14.37-3.61,21.4-.43,0.89-2.08,1.94-4.59,2.66-6.34-8.17-2.83-15.26-9-15.55-18.66,0.08-2.72.22-5.44,0.49-8.15-0.38,1.22-.75,2.45-1.06,3.7Z" transform="translate(-61.03 -10.87)"/><path class="cls-23" d="M296,209.9c-0.75,1-1.5,2.14-2.27,3.25-0.41.73-.84,1.44-1.29,2.13l3,2.42c0.68-.9,1.38-1.78,2.1-2.64,0.6-1.11,1.21-2.21,1.86-3.3Z" transform="translate(-61.03 -10.87)"/><path class="cls-24" d="M296,209.9c-0.75,1-1.5,2.14-2.27,3.25-0.41.73-.84,1.44-1.29,2.13l3,2.42c0.68-.9,1.38-1.78,2.1-2.64,0.6-1.11,1.21-2.21,1.86-3.3Z" transform="translate(-61.03 -10.87)"/><path class="cls-25" d="M319,137.53A152.47,152.47,0,0,1,299.59,158c1-.2,1.95-0.39,2.93-0.56,2.57-.26,5.38-0.51,7.24,1.51,2.11,3.54,1.36,9.29.94,13.38,0,0.26-.06.51-0.1,0.77,0.37-1.65.69-3.28,1.06-4.82l3.86,0.41c-0.19,1.29-.35,2.59-0.47,3.88a107.63,107.63,0,0,1,4.29-11.08c4.66-7.06,11.9-8.83,19.6-8.58,0-2.27,0-5,0-6.88C331.34,146.43,323.49,144.17,319,137.53Z" transform="translate(-61.03 -10.87)"/><path class="cls-26" d="M311.66,168.23c-0.37,1.54-.69,3.17-1.06,4.82-0.09.7-.2,1.39-0.32,2.08l3.71,1.09c0.32-1.25.68-2.48,1.06-3.7,0.13-1.29.28-2.59,0.47-3.88Z" transform="translate(-61.03 -10.87)"/><path class="cls-27" d="M311.66,168.23c-0.37,1.54-.69,3.17-1.06,4.82-0.09.7-.2,1.39-0.32,2.08l3.71,1.09c0.32-1.25.68-2.48,1.06-3.7,0.13-1.29.28-2.59,0.47-3.88Z" transform="translate(-61.03 -10.87)"/><path class="cls-28" d="M271.42,177.42a76.52,76.52,0,0,1-142.85,0c-1.38-.74-2.74-1.49-4.09-2.27A79.16,79.16,0,0,0,130.62,189l1.08-.07-0.32-.64,0.23,0.12a13.7,13.7,0,0,0,2.66,5.37l-0.75,0,0.76,1.13c0.09-.22.18-0.44,0.27-0.67a1.81,1.81,0,0,0-.23-0.5l0.25-.13a13.44,13.44,0,0,0,3.34,5.29l0,0v0l-0.12-.12c-0.1.16-.19,0.34-0.29,0.5a80,80,0,0,0,13.62,13.52l0.9-.45-0.54-.47,0.25,0a15.49,15.49,0,0,0,1.27,1.51,14.45,14.45,0,0,0,3,2.29l-0.2-.15,0.18-.22a13.41,13.41,0,0,0,5.11,3.6l0,0v0l-0.16-.05c0,0.14,0,.29-0.05.43a79.1,79.1,0,0,0,17.81,7.35l0.6-.69-0.69-.23,0.24-.08a14,14,0,0,0,1.76.9,14.5,14.5,0,0,0,3.93,1l-0.41.36,1.11,0.21-0.22-.53c-0.18-.1,5.62.93,5.56,0.93s0.08,0.28.12,0.42a80.16,80.16,0,0,0,19.29-.1c0.09-.26.18-0.52,0.26-0.78a41.48,41.48,0,0,0,5.46-.52l-0.19.4,0.74-.15-0.37-.36a1.71,1.71,0,0,0-.55,0l0-.29a13.41,13.41,0,0,0,6.16-1.07l0,0h0l-0.15.07,0.24,0.31a79.08,79.08,0,0,0,17.81-7.49c0-.26,0-0.51-0.05-0.77l-0.65.32c0-.08.08-0.16,0.12-0.23a13.77,13.77,0,0,0,5.38-2.66c0,0.12,0,.25,0,0.37l0.38-.25-0.42-.17a1.86,1.86,0,0,0-.49.24l-0.14-.25a13.41,13.41,0,0,0,5.28-3.34l0,0h0s-0.08.08-.11,0.13l0.29,0.17a80,80,0,0,0,13.64-13.7l-0.35-.71-0.47.54c0-.08,0-0.17,0-0.26a14.71,14.71,0,0,0,1.5-1.28,14.3,14.3,0,0,0,2.45-3.24l0.14,0.4,0.65-1h-0.65a1.81,1.81,0,0,0-.36.4l-0.22-.18a13.46,13.46,0,0,0,3.6-5.11,0.15,0.15,0,0,0,0-.05h0l-0.06.16,0.5,0.06a79.14,79.14,0,0,0,5.95-13.5C274.17,175.93,272.8,176.69,271.42,177.42Z" transform="translate(-61.03 -10.87)"/><path class="cls-29" d="M156.2,215.9l-0.54.19,0.58,0.38c0-.18,0-0.36,0-0.53Z" transform="translate(-61.03 -10.87)"/><path class="cls-30" d="M132.21,190.29a14.41,14.41,0,0,1-.6-1.88l-0.23-.12,0.32,0.64-1.08.07q1.36,2.42,2.89,4.74l0.75,0A14.42,14.42,0,0,1,132.21,190.29Z" transform="translate(-61.03 -10.87)"/><path class="cls-31" d="M132.21,190.29a14.41,14.41,0,0,1-.6-1.88l-0.23-.12,0.32,0.64-1.08.07q1.36,2.42,2.89,4.74l0.75,0A14.42,14.42,0,0,1,132.21,190.29Z" transform="translate(-61.03 -10.87)"/><path class="cls-32" d="M156,215.73a14.45,14.45,0,0,1-3-2.29,15.49,15.49,0,0,1-1.27-1.51l-0.25,0,0.54,0.47-0.9.45q2.2,1.71,4.51,3.27l0.54-.19Z" transform="translate(-61.03 -10.87)"/><path class="cls-33" d="M156,215.73a14.45,14.45,0,0,1-3-2.29,15.49,15.49,0,0,1-1.27-1.51l-0.25,0,0.54,0.47-0.9.45q2.2,1.71,4.51,3.27l0.54-.19Z" transform="translate(-61.03 -10.87)"/><path class="cls-34" d="M137.94,198.91v0l0,0a13.44,13.44,0,0,1-3.34-5.29l-0.25.13a1.81,1.81,0,0,1,.23.5c-0.09.22-.18,0.44-0.27,0.67q1.56,2.27,3.26,4.43c0.1-.17.19-0.34,0.29-0.5Z" transform="translate(-61.03 -10.87)"/><path class="cls-35" d="M137.94,198.91v0l0,0a13.44,13.44,0,0,1-3.34-5.29l-0.25.13a1.81,1.81,0,0,1,.23.5c-0.09.22-.18,0.44-0.27,0.67q1.56,2.27,3.26,4.43c0.1-.17.19-0.34,0.29-0.5Z" transform="translate(-61.03 -10.87)"/><path class="cls-36" d="M180.69,226.63a14,14,0,0,1-1.76-.9l-0.24.08,0.69,0.23-0.6.69q2.68,0.74,5.44,1.3l0.41-.36A14.5,14.5,0,0,1,180.69,226.63Z" transform="translate(-61.03 -10.87)"/><path class="cls-37" d="M180.69,226.63a14,14,0,0,1-1.76-.9l-0.24.08,0.69,0.23-0.6.69q2.68,0.74,5.44,1.3l0.41-.36A14.5,14.5,0,0,1,180.69,226.63Z" transform="translate(-61.03 -10.87)"/><path class="cls-38" d="M161.18,219v0l0,0a13.41,13.41,0,0,1-5.11-3.6l-0.18.22,0.2,0.15,0.25,0.15-0.08,0,0,0c0,0.18,0,.36,0,0.53q2.31,1.52,4.73,2.89c0-.14,0-0.29.05-0.43Z" transform="translate(-61.03 -10.87)"/><path class="cls-39" d="M161.18,219v0l0,0a13.41,13.41,0,0,1-5.11-3.6l-0.18.22,0.2,0.15,0.25,0.15-0.08,0,0,0c0,0.18,0,.36,0,0.53q2.31,1.52,4.73,2.89c0-.14,0-0.29.05-0.43Z" transform="translate(-61.03 -10.87)"/><path class="cls-40" d="M156.2,215.9l0.08,0-0.25-.15Z" transform="translate(-61.03 -10.87)"/><path class="cls-41" d="M156.2,215.9l0.08,0-0.25-.15Z" transform="translate(-61.03 -10.87)"/><path class="cls-42" d="M156.2,215.9l0.08,0-0.25-.15Z" transform="translate(-61.03 -10.87)"/><path class="cls-43" d="M210.33,228.17c-0.08.26-.18,0.52-0.26,0.78q2.8-.35,5.54-0.9l0.19-.4A41.48,41.48,0,0,1,210.33,228.17Z" transform="translate(-61.03 -10.87)"/><path class="cls-44" d="M210.33,228.17c-0.08.26-.18,0.52-0.26,0.78q2.8-.35,5.54-0.9l0.19-.4A41.48,41.48,0,0,1,210.33,228.17Z" transform="translate(-61.03 -10.87)"/><path class="cls-45" d="M185.1,227.7l0.22,0.53q2.7,0.5,5.45.82c0-.14-0.08-0.28-0.12-0.42S184.92,227.6,185.1,227.7Z" transform="translate(-61.03 -10.87)"/><path class="cls-46" d="M185.1,227.7l0.22,0.53q2.7,0.5,5.45.82c0-.14-0.08-0.28-0.12-0.42S184.92,227.6,185.1,227.7Z" transform="translate(-61.03 -10.87)"/><path class="cls-47" d="M240.82,217.8a14.19,14.19,0,0,1-1.88.6c0,0.07-.08.15-0.12,0.23l0.65-.32c0,0.26,0,.51.05,0.77q2.45-1.4,4.78-3c0-.12,0-0.25,0-0.37A14.25,14.25,0,0,1,240.82,217.8Z" transform="translate(-61.03 -10.87)"/><path class="cls-48" d="M240.82,217.8a14.19,14.19,0,0,1-1.88.6c0,0.07-.08.15-0.12,0.23l0.65-.32c0,0.26,0,.51.05,0.77q2.45-1.4,4.78-3c0-.12,0-0.25,0-0.37A14.25,14.25,0,0,1,240.82,217.8Z" transform="translate(-61.03 -10.87)"/><path class="cls-49" d="M221.62,226.2h0l0,0a13.41,13.41,0,0,1-6.16,1.07l0,0.29a1.71,1.71,0,0,1,.55,0l0.37,0.36q2.72-.57,5.37-1.32l-0.24-.31Z" transform="translate(-61.03 -10.87)"/><path class="cls-50" d="M221.62,226.2h0l0,0a13.41,13.41,0,0,1-6.16,1.07l0,0.29a1.71,1.71,0,0,1,.55,0l0.37,0.36q2.72-.57,5.37-1.32l-0.24-.31Z" transform="translate(-61.03 -10.87)"/><path class="cls-51" d="M263.49,197.2a14.71,14.71,0,0,1-1.5,1.28c0,0.09,0,.17,0,0.26l0.47-.54,0.35,0.71q1.72-2.21,3.29-4.54l-0.14-.4A14.3,14.3,0,0,1,263.49,197.2Z" transform="translate(-61.03 -10.87)"/><path class="cls-52" d="M263.49,197.2a14.71,14.71,0,0,1-1.5,1.28c0,0.09,0,.17,0,0.26l0.47-.54,0.35,0.71q1.72-2.21,3.29-4.54l-0.14-.4A14.3,14.3,0,0,1,263.49,197.2Z" transform="translate(-61.03 -10.87)"/><path class="cls-53" d="M249,212.3h0l0,0a13.41,13.41,0,0,1-5.28,3.34l0.14,0.25a1.86,1.86,0,0,1,.49-0.24l0.42,0.17q2.29-1.56,4.47-3.27l-0.29-.17S248.93,212.35,249,212.3Z" transform="translate(-61.03 -10.87)"/><path class="cls-54" d="M249,212.3h0l0,0a13.41,13.41,0,0,1-5.28,3.34l0.14,0.25a1.86,1.86,0,0,1,.49-0.24l0.42,0.17q2.29-1.56,4.47-3.27l-0.29-.17S248.93,212.35,249,212.3Z" transform="translate(-61.03 -10.87)"/><path class="cls-55" d="M269.13,188.44h0a0.15,0.15,0,0,1,0,.05,13.46,13.46,0,0,1-3.6,5.11l0.22,0.18a1.81,1.81,0,0,1,.36-0.4h0.65q1.5-2.31,2.85-4.72l-0.5-.06Z" transform="translate(-61.03 -10.87)"/><path class="cls-56" d="M269.13,188.44h0a0.15,0.15,0,0,1,0,.05,13.46,13.46,0,0,1-3.6,5.11l0.22,0.18a1.81,1.81,0,0,1,.36-0.4h0.65q1.5-2.31,2.85-4.72l-0.5-.06Z" transform="translate(-61.03 -10.87)"/><path class="cls-2" d="M117.61,110.77c-2.28,1.23-7-.17-6.84,3.71a77.18,77.18,0,0,0,12.61,14,79.08,79.08,0,0,1,7.48-17.86C126.64,110,122.19,110.52,117.61,110.77Z" transform="translate(-61.03 -10.87)"/><path class="cls-2" d="M266.47,80.65A77.29,77.29,0,0,0,248.63,87a80,80,0,0,1,13.79,13.63c2.16-3.63,3.35-7.94,4.86-12.24C267,85.81,270.12,82,266.47,80.65Z" transform="translate(-61.03 -10.87)"/><path class="cls-2" d="M271.17,64.89L270.93,63c-2.91-3.84-7.13-6.35-10.72-8.91-3.06-1.55-6.52-3-9.49-2.53-2.57,1-3.42,3.64-4.16,6.11a106.29,106.29,0,0,0-2.56,26l0.08,0.09c7.76-2.63,14.48-7.23,21.54-11.5C268,70.24,271.13,68.14,271.17,64.89Z" transform="translate(-61.03 -10.87)"/><path class="cls-2" d="M123.3,171.28a27.9,27.9,0,0,0-2.2,1.87q1.68,1,3.38,2Q123.84,173.24,123.3,171.28Z" transform="translate(-61.03 -10.87)"/><path class="cls-2" d="M239.06,80.59h0l0.16,0.06c0.68-4.27.11-8.8-.15-13.46-1.24-2.28.17-7-3.71-6.85A77.34,77.34,0,0,0,221.1,73.26a79.18,79.18,0,0,1,22.06,9.88,13.86,13.86,0,0,0-4-2.52Z" transform="translate(-61.03 -10.87)"/><path class="cls-2" d="M285.53,119c0.74-2.49,5.08-4.83,2.21-7.47a77.61,77.61,0,0,0-18.61-1,79.09,79.09,0,0,1,7.44,17.71C279.87,125.76,282.56,122.32,285.53,119Z" transform="translate(-61.03 -10.87)"/><path class="cls-2" d="M304.83,116.19c-2.49-1.15-5,.15-7.26,1.38a106.26,106.26,0,0,0-19.68,16.05c0.06,0.31.13,0.62,0.19,0.93,7.26,3.51,15.15,5,23,6.95,3,0.25,6.78,1,9.11-1.27l1.17-1.51c0.54-3.9-.17-7.81-0.85-11.48C309.4,123.41,307.88,118.47,304.83,116.19Z" transform="translate(-61.03 -10.87)"/><path class="cls-2" d="M290.19,103.42c2.9-.93,6.65-1.66,7.93-4.65l0.5-1.85c-1.15-4.4-3.85-8.17-6.11-11.72-2.36-2.85-5.27-6-8.48-6.78-2.74-.1-4.55,2.05-6.18,4.05a106.32,106.32,0,0,0-12.15,22.63l0.48,0.71C274.26,106.29,282.14,104.64,290.19,103.42Z" transform="translate(-61.03 -10.87)"/><path class="cls-2" d="M130.83,83.52a77.2,77.2,0,0,0,6.29,17.7,80,80,0,0,1,13.59-13.71c-3.61-2.13-7.88-3.31-12.14-4.8C136,83,132.17,79.87,130.83,83.52Z" transform="translate(-61.03 -10.87)"/><path class="cls-2" d="M169.45,64.14c-2.48-.74-4.83-5.07-7.47-2.21a77.35,77.35,0,0,0-1,18.69,79.09,79.09,0,0,1,17.84-7.35C176.34,69.9,172.83,67.16,169.45,64.14Z" transform="translate(-61.03 -10.87)"/><path class="cls-2" d="M122.39,84.37c-2-2.33-4.07-5.5-7.33-5.55l-1.9.24c-3.51,2.66-5.91,6.42-8.25,9.78-1.7,3.24-3.4,7-2.93,10.26,0.95,2.58,3.64,3.41,6.11,4.16a106.52,106.52,0,0,0,25.7,2.57l0-.07C131.19,98.07,126.63,91.38,122.39,84.37Z" transform="translate(-61.03 -10.87)"/><path class="cls-2" d="M153.86,59.47c-0.93-2.91-1.66-6.64-4.65-7.93L147.37,51c-4.19,1.09-7.78,3.57-11.18,5.75-3,2.48-6.71,5.64-7.6,9.16-0.11,2.74,2.05,4.55,4,6.18a106.87,106.87,0,0,0,22.52,12.11l1.09-.73C156.74,75.43,155.09,67.54,153.86,59.47Z" transform="translate(-61.03 -10.87)"/><path class="cls-2" d="M275.52,175.16c1.24-.71,2.47-1.45,3.68-2.2q-1.16-1.1-2.38-2.15Q276.23,173,275.52,175.16Z" transform="translate(-61.03 -10.87)"/><path class="cls-2" d="M192,48.73c0.25-3,1-6.78-1.26-9.11l-1.51-1.17c-4.49-.62-9,0.41-13.11,1.14-3.54,1.1-7.54,2.59-9.52,5.24-1.14,2.49.16,5,1.37,7.26A106.85,106.85,0,0,0,184.27,72l0.8-.15C188.6,64.55,190.1,56.63,192,48.73Z" transform="translate(-61.03 -10.87)"/><path class="cls-2" d="M198.61,54.09a77.18,77.18,0,0,0-8,16.89,80.1,80.1,0,0,1,19.29,0c-1-4.08-3.23-7.95-5.2-12C202.64,57.35,202.14,52.45,198.61,54.09Z" transform="translate(-61.03 -10.87)"/><path class="cls-2" d="M231.33,52.86c1.4-2.71,3.53-5.87,2.32-8.9l-1-1.66a27.39,27.39,0,0,0-7.29-2.78c-0.85-.15-1.71-0.29-2.58-0.38-4.09-.42-9.83-1.17-13.37.94-2,1.86-1.76,4.67-1.5,7.23a106.09,106.09,0,0,0,7.4,24.59q1.72,0.34,3.41.74a14.64,14.64,0,0,0-3.14-.73C221.89,66.49,226.39,59.59,231.33,52.86Z" transform="translate(-61.03 -10.87)"/><path class="cls-2" d="M278.1,165.34a54.66,54.66,0,0,0,5.13,5.05A152.16,152.16,0,0,0,299.59,158a105.83,105.83,0,0,0-21.37,6.73Z" transform="translate(-61.03 -10.87)"/><path class="cls-2" d="M200,73.51a76.53,76.53,0,0,0-71.42,103.91,151.73,151.73,0,0,0,142.85,0A76.53,76.53,0,0,0,200,73.51Z" transform="translate(-61.03 -10.87)"/><path class="cls-2" d="M103.29,118.49c-2.71-1.4-5.87-3.52-8.9-2.32l-1.66,1a34.19,34.19,0,0,0-3.47,10.29c-0.42,4.06-1.08,9.6,1,13,1.87,2,4.67,1.77,7.24,1.51a106.46,106.46,0,0,0,24.43-7.34c0-.25.1-0.51,0.15-0.76C116.67,127.78,109.89,123.35,103.29,118.49Z" transform="translate(-61.03 -10.87)"/><path class="cls-2" d="M279,159.25c4-1.06,7.79-3.2,11.8-5.13,1.64-2,6.55-2.52,4.92-6.05a77.59,77.59,0,0,0-16.79-8A80.11,80.11,0,0,1,279,159.25Z" transform="translate(-61.03 -10.87)"/><path class="cls-2" d="M121,140.1c-4,1.06-7.85,3.21-11.88,5.16-1.64,2-6.54,2.52-4.9,6.05a77,77,0,0,0,16.71,8A80.07,80.07,0,0,1,121,140.1Z" transform="translate(-61.03 -10.87)"/><path class="cls-2" d="M122,165.91c-0.08-.38-0.15-0.76-0.22-1.15-6.62-3.18-13.75-4.7-20.94-6.41a152.11,152.11,0,0,0,16.3,12.29Q119.66,168.36,122,165.91Z" transform="translate(-61.03 -10.87)"/><path class="cls-57" d="M139.7,54.12c-0.79.54-1.56,1.1-2.32,1.71l-1.19,1c3.39-2.19,7-4.67,11.18-5.75l1.84,0.49c3,1.29,3.72,5,4.65,7.93,1.23,8.07,2.88,16,2.39,24q2.33-1.53,4.76-2.9a77.35,77.35,0,0,1,1-18.69c2.64-2.86,5,1.48,7.47,2.21,3.38,3,6.89,5.76,9.41,9.13q2.67-.73,5.4-1.28A106.85,106.85,0,0,1,168,52.1c-1.21-2.28-2.52-4.77-1.37-7.26,2-2.65,6-4.15,9.52-5.24l-1.32.22-1.09-3.73c1.79-.45,3.56-1,5.31-1.53a102.2,102.2,0,0,1-13.74.47C157,33.41,152.6,27.4,149.88,20.19c-2.11.84-4.62,1.88-6.36,2.6,3.77,7.79,4.44,17.15-2.21,24.19q-2.68,2.53-5.5,4.9c0.68-.37,1.36-0.75,2-1.15Z" transform="translate(-61.03 -10.87)"/><path class="cls-57" d="M107.71,83.93c-0.52.8-1,1.61-1.48,2.46s-0.87,1.59-1.32,2.46c2.34-3.37,4.74-7.13,8.25-9.78l1.9-.24c3.25,0,5.36,3.22,7.33,5.55,4.24,7,8.81,13.7,11.45,21.4q1.56-2.33,3.28-4.54a77.2,77.2,0,0,1-6.29-17.7c1.34-3.65,5.17-.54,7.75-0.81,4.26,1.49,8.52,2.67,12.14,4.8q2.17-1.71,4.45-3.27a106.87,106.87,0,0,1-22.52-12.11c-2-1.64-4.16-3.44-4-6.18,0.89-3.52,4.56-6.68,7.6-9.16l-1.63,1-2.44-3c1.27-.94,2.49-1.93,3.69-2.93a103.38,103.38,0,0,1-12.21,5.51c-8.29,1.7-14.66-2.17-19.93-7.8-1.63,1.58-3.55,3.51-4.88,4.84,6.46,5.75,10.66,14.14,7.22,23.19-0.85,1.89-1.73,3.76-2.67,5.61,0.46-.57.91-1.15,1.35-1.74Z" transform="translate(-61.03 -10.87)"/><path class="cls-58" d="M134.56,57.83l1.63-1,1.19-1c0.75-.62,1.53-1.17,2.32-1.71l-1.86-3.39c-0.67.4-1.35,0.78-2,1.15-1.2,1-2.42,2-3.69,2.93Z" transform="translate(-61.03 -10.87)"/><path class="cls-57" d="M134.56,57.83l1.63-1,1.19-1c0.75-.62,1.53-1.17,2.32-1.71l-1.86-3.39c-0.67.4-1.35,0.78-2,1.15-1.2,1-2.42,2-3.69,2.93Z" transform="translate(-61.03 -10.87)"/><path class="cls-57" d="M94.4,116.18c3-1.2,6.19.92,8.9,2.32,6.6,4.86,13.37,9.29,18.76,15.39q0.57-2.75,1.32-5.43a77.18,77.18,0,0,1-12.61-14c-0.16-3.88,4.56-2.48,6.84-3.71,4.58-.26,9-0.81,13.24-0.19q1.39-2.43,2.94-4.75a106.52,106.52,0,0,1-25.7-2.57c-2.47-.75-5.16-1.59-6.11-4.16-0.47-3.22,1.24-7,2.93-10.26-0.33.47-.65,0.94-1,1.39l-3.41-1.86c1-1.68,1.94-3.4,2.83-5.14a102.4,102.4,0,0,1-9.25,9.87c-7,4.74-14.37,3.6-21.4.42-0.9,2.09-1.94,4.6-2.66,6.34,8.17,2.84,15.27,9,15.55,18.66-0.07,2.57-.21,5.14-0.45,7.7,0.31-1,.61-2,0.88-3.08l3.71,1.09c-0.17.93-.33,1.88-0.43,2.85l0,0.33a34.19,34.19,0,0,1,3.47-10.29Z" transform="translate(-61.03 -10.87)"/><path class="cls-59" d="M103.93,90.24c0.33-.45.65-0.92,1-1.39,0.45-.87.91-1.69,1.32-2.46s1-1.67,1.48-2.46l-3-2.43c-0.44.59-.89,1.17-1.35,1.74-0.88,1.74-1.82,3.45-2.83,5.14Z" transform="translate(-61.03 -10.87)"/><path class="cls-57" d="M103.93,90.24c0.33-.45.65-0.92,1-1.39,0.45-.87.91-1.69,1.32-2.46s1-1.67,1.48-2.46l-3-2.43c-0.44.59-.89,1.17-1.35,1.74-0.88,1.74-1.82,3.45-2.83,5.14Z" transform="translate(-61.03 -10.87)"/><path class="cls-57" d="M100.85,158.36c7.18,1.72,14.32,3.23,20.94,6.41q-0.51-2.71-.83-5.48a77,77,0,0,1-16.71-8c-1.64-3.53,3.27-4,4.9-6.05,4-1.95,7.86-4.1,11.88-5.16q0.34-2.76.88-5.47A106.46,106.46,0,0,1,97.48,142c-2.57.25-5.37,0.51-7.24-1.51-2-3.45-1.39-9-1-13-0.26,1.22-.51,2.41-0.79,3.56l-3.86-.42c0.21-1.44.38-2.88,0.52-4.33a104.71,104.71,0,0,1-4.25,11.19A152.43,152.43,0,0,0,100.85,158.36Z" transform="translate(-61.03 -10.87)"/><path class="cls-60" d="M89.73,124.25L86,123.16c-0.27,1-.56,2.06-0.88,3.08-0.14,1.44-.3,2.88-0.52,4.33L88.48,131c0.28-1.15.53-2.35,0.79-3.56l0-.33C89.4,126.13,89.55,125.18,89.73,124.25Z" transform="translate(-61.03 -10.87)"/><path class="cls-57" d="M89.73,124.25L86,123.16c-0.27,1-.56,2.06-0.88,3.08-0.14,1.44-.3,2.88-0.52,4.33L88.48,131c0.28-1.15.53-2.35,0.79-3.56l0-.33C89.4,126.13,89.55,125.18,89.73,124.25Z" transform="translate(-61.03 -10.87)"/><path class="cls-61" d="M122,165.91q-2.35,2.44-4.86,4.73c1.3,0.85,2.62,1.69,4,2.51a27.9,27.9,0,0,1,2.2-1.87Q122.57,168.63,122,165.91Z" transform="translate(-61.03 -10.87)"/><path class="cls-62" d="M278.1,165.34q-0.54,2.77-1.27,5.47,1.22,1.05,2.38,2.15,2-1.25,4-2.56A54.66,54.66,0,0,1,278.1,165.34Z" transform="translate(-61.03 -10.87)"/><path class="cls-57" d="M315,127.65c0.1,1,.2,1.94.34,2.91l-3.85.41c-0.2-.93-0.42-1.86-0.69-2.79l-0.28-.94c0.67,3.67,1.39,7.57.85,11.48l-1.17,1.51c-2.33,2.27-6.06,1.51-9.11,1.27-7.89-1.95-15.78-3.44-23-6.95q0.54,2.72.89,5.51a77.59,77.59,0,0,1,16.79,8c1.63,3.53-3.28,4-4.92,6.05-4,1.93-7.8,4.07-11.8,5.13q-0.32,2.75-.82,5.44A105.83,105.83,0,0,1,299.59,158,152.47,152.47,0,0,0,319,137.53a19.14,19.14,0,0,1-1.58-2.84C316.57,132.37,315.76,130,315,127.65Z" transform="translate(-61.03 -10.87)"/><path class="cls-57" d="M295.87,89.52c-0.54-.78-1.1-1.56-1.71-2.31s-1.06-1.31-1.64-2c2.26,3.55,5,7.32,6.11,11.72l-0.5,1.85c-1.29,3-5,3.72-7.93,4.65-8.05,1.23-15.93,2.87-24,2.4q1.55,2.32,2.94,4.75a77.61,77.61,0,0,1,18.61,1c2.86,2.64-1.48,5-2.21,7.47-3,3.32-5.66,6.76-9,9.27q0.75,2.64,1.31,5.35a106.26,106.26,0,0,1,19.68-16.05c2.27-1.23,4.77-2.52,7.26-1.38,3,2.28,4.57,7.22,5.71,11.06-0.18-1-.37-2-0.52-3l3.73-1.09c0.38,1.5.81,3,1.27,4.44a104.06,104.06,0,0,1-.37-12.79c1.6-8.32,7.61-12.72,14.83-15.43-0.84-2.11-1.88-4.62-2.6-6.37-7.78,3.77-17.14,4.45-24.19-2.2q-2.25-2.38-4.38-4.88,0.47,0.85,1,1.68Z" transform="translate(-61.03 -10.87)"/><path class="cls-63" d="M310,124.3c0.15,1,.33,1.95.52,3l0.28,0.94c0.28,0.93.5,1.86,0.69,2.79l3.85-.41c-0.14-1-.25-1.94-0.34-2.91-0.46-1.47-.89-2.94-1.27-4.44Z" transform="translate(-61.03 -10.87)"/><path class="cls-57" d="M310,124.3c0.15,1,.33,1.95.52,3l0.28,0.94c0.28,0.93.5,1.86,0.69,2.79l3.85-.41c-0.14-1-.25-1.94-0.34-2.91-0.46-1.47-.89-2.94-1.27-4.44Z" transform="translate(-61.03 -10.87)"/><path class="cls-57" d="M265.9,57.28c-0.8-.52-1.62-1-2.46-1.48s-2.08-1.14-3.23-1.72c3.59,2.56,7.81,5.07,10.72,8.91l0.24,1.9c0,3.26-3.22,5.36-5.55,7.33-7.06,4.27-13.78,8.87-21.54,11.5l0.06,0.07q2.3,1.54,4.49,3.23a77.29,77.29,0,0,1,17.84-6.36c3.65,1.34.54,5.16,0.81,7.75-1.5,4.3-2.69,8.6-4.86,12.24q1.72,2.17,3.29,4.46a106.32,106.32,0,0,1,12.15-22.63c1.63-2,3.44-4.15,6.18-4.05,3.21,0.82,6.12,3.94,8.48,6.78l-0.68-1.09,3-2.44c1.1,1.48,2.26,2.91,3.44,4.31a101.75,101.75,0,0,1-5.71-12.55c-1.69-8.3,2.17-14.66,7.8-19.94-1.59-1.63-3.51-3.55-4.85-4.89-5.75,6.47-14.14,10.67-23.19,7.22q-2.6-1.16-5.14-2.43l1.11,0.86Z" transform="translate(-61.03 -10.87)"/><path class="cls-64" d="M291.84,84.11l0.68,1.09c0.58,0.7,1.13,1.38,1.64,2s1.17,1.53,1.71,2.31l3.4-1.85q-0.49-.84-1-1.68c-1.19-1.4-2.34-2.83-3.44-4.31Z" transform="translate(-61.03 -10.87)"/><path class="cls-57" d="M291.84,84.11l0.68,1.09c0.58,0.7,1.13,1.38,1.64,2s1.17,1.53,1.71,2.31l3.4-1.85q-0.49-.84-1-1.68c-1.19-1.4-2.34-2.83-3.44-4.31Z" transform="translate(-61.03 -10.87)"/><path class="cls-57" d="M225.67,39.57l-0.27,0a27.39,27.39,0,0,1,7.29,2.78l1,1.66c1.21,3-.92,6.19-2.32,8.9-4.94,6.72-9.44,13.63-15.71,19.06a14.64,14.64,0,0,1,3.14.73q1.18,0.28,2.35.6a77.34,77.34,0,0,1,14.25-12.92c3.88-.16,2.47,4.56,3.71,6.85,0.26,4.66.83,9.19,0.15,13.46l-0.16-.06h0l0.06,0a13.86,13.86,0,0,1,4,2.52l0.89,0.59h0L244,83.63a106.29,106.29,0,0,1,2.56-26c0.75-2.47,1.59-5.16,4.16-6.11,3-.43,6.43,1,9.49,2.53l-0.46-.33,1.87-3.41c1.83,1.1,3.7,2.11,5.6,3.06a100,100,0,0,1-10.49-9.74c-4.74-7-3.61-14.37-.42-21.4-2.09-.9-4.6-1.94-6.34-2.66-2.84,8.17-9,15.26-18.66,15.55-3-.09-5.9-0.25-8.85-0.56,1.42,0.46,2.86.89,4.32,1.27Z" transform="translate(-61.03 -10.87)"/><path class="cls-65" d="M259.75,53.75l0.46,0.33c1.15,0.58,2.24,1.18,3.23,1.72s1.67,1,2.46,1.48l2.43-3-1.11-.86c-1.89-1-3.77-2-5.6-3.06Z" transform="translate(-61.03 -10.87)"/><path class="cls-57" d="M259.75,53.75l0.46,0.33c1.15,0.58,2.24,1.18,3.23,1.72s1.67,1,2.46,1.48l2.43-3-1.11-.86c-1.89-1-3.77-2-5.6-3.06Z" transform="translate(-61.03 -10.87)"/><path class="cls-66" d="M244.08,83.71h0l0.09,0.06Z" transform="translate(-61.03 -10.87)"/><path class="cls-67" d="M244.08,83.71h0l0.09,0.06Z" transform="translate(-61.03 -10.87)"/><path class="cls-57" d="M181.43,38.15c-0.93.19-1.86,0.42-2.8,0.69l-2.47.74c4.13-.73,8.62-1.77,13.11-1.14l1.51,1.17c2.27,2.33,1.51,6.07,1.26,9.11-1.95,7.91-3.44,15.82-7,23.1q2.72-.52,5.5-0.85a77.18,77.18,0,0,1,8-16.89c3.53-1.63,4,3.27,6,4.91,2,4.09,4.16,8,5.2,12q2.78,0.34,5.49.88a106.09,106.09,0,0,1-7.4-24.59c-0.26-2.57-.51-5.37,1.5-7.23,3.54-2.11,9.29-1.36,13.37-.94,0.88,0.09,1.73.23,2.58,0.38-2.24-.56-4.48-1-6.56-1.47l0.42-3.87c1.06,0.16,2.12.29,3.18,0.4A111.93,111.93,0,0,1,212,30.51c-7.07-4.66-8.83-11.9-8.58-19.61-2.27,0-5,0-6.88,0,0.5,8.63-2.46,17.54-11.29,21.5-2,.78-4.1,1.51-6.18,2.18q1-.11,2-0.25Z" transform="translate(-61.03 -10.87)"/><path class="cls-68" d="M174.84,39.82l1.32-.22,2.47-.74c0.93-.28,1.86-0.5,2.8-0.69L181,34.31q-1,.14-2,0.25c-1.75.56-3.51,1.08-5.31,1.53Z" transform="translate(-61.03 -10.87)"/><path class="cls-57" d="M174.84,39.82l1.32-.22,2.47-.74c0.93-.28,1.86-0.5,2.8-0.69L181,34.31q-1,.14-2,0.25c-1.75.56-3.51,1.08-5.31,1.53Z" transform="translate(-61.03 -10.87)"/><path class="cls-69" d="M218.85,38.05c2.08,0.5,4.32.91,6.56,1.47l0.27,0,1.09-3.71c-1.46-.38-2.9-0.81-4.32-1.27-1.06-.11-2.12-0.25-3.18-0.4Z" transform="translate(-61.03 -10.87)"/><path class="cls-57" d="M218.85,38.05c2.08,0.5,4.32.91,6.56,1.47l0.27,0,1.09-3.71c-1.46-.38-2.9-0.81-4.32-1.27-1.06-.11-2.12-0.25-3.18-0.4Z" transform="translate(-61.03 -10.87)"/><path class="cls-70" d="M122.48,165.44a1.87,1.87,0,0,0,0-.34l-0.68-.33c0.07,0.38.14,0.77,0.22,1.15Z" transform="translate(-61.03 -10.87)"/><path class="cls-71" d="M133.84,105.77l0,0.07h0.07Z" transform="translate(-61.03 -10.87)"/><path class="cls-72" d="M265.67,105.78l0.52,0-0.48-.71-0.16.39A1.53,1.53,0,0,0,265.67,105.78Z" transform="translate(-61.03 -10.87)"/><path class="cls-73" d="M184.85,72.28l0.22-.46-0.8.15,0.3,0.3h0.28Z" transform="translate(-61.03 -10.87)"/><path class="cls-74" d="M121.94,158.92l0.16,0.2a13.6,13.6,0,0,0,.34,5.78h0l0.28,0a13.43,13.43,0,0,0,1.07,6.15,0.1,0.1,0,0,0,0,0,0.09,0.09,0,0,1,0,0s0-.11-0.07-0.15l-0.44.35q0.54,2,1.18,3.88c1.35,0.78,2.72,1.53,4.09,2.27a76.49,76.49,0,1,1,142.85,0c1.38-.74,2.74-1.49,4.1-2.27q0.71-2.15,1.31-4.35l-0.65-.57-0.23.69-0.07-.25a14.94,14.94,0,0,0,.9-1.76,14.32,14.32,0,0,0,1-3.92l0.31,0.34,0.13-.65-0.68.29a1.63,1.63,0,0,0-.18.52l-0.28-.08a13.35,13.35,0,0,0,1.38-6.1s0,0,0-.06h0a1.43,1.43,0,0,1,0,.16l0.57-.16a80.11,80.11,0,0,0-.08-19.19l-1-.32,0,0.72-0.17-.2a14.11,14.11,0,0,0,.16-2,14.46,14.46,0,0,0-.56-4l0.58,0.28c-0.06-.31-0.12-0.62-0.19-0.93l-0.49.5a1.63,1.63,0,0,0,0,.54l-0.28,0a13.53,13.53,0,0,0-1.07-6.16,0.2,0.2,0,0,0,0,0v0l0.07,0.15,0.45-.35a79.09,79.09,0,0,0-7.44-17.71l-1,.06,0.32,0.65-0.23-.12a14.1,14.1,0,0,0-.6-1.88,14.57,14.57,0,0,0-1.9-3.29l-0.22.12a13.44,13.44,0,0,0-3.35-5.28,0.11,0.11,0,0,0,0,0v0l0.13,0.11,0.14-.25A80,80,0,0,0,248.63,87l-0.6.29,0.54,0.48-0.26,0a15,15,0,0,0-1.27-1.5,14.37,14.37,0,0,0-2.73-2.15l-0.09.11-0.33-.36-0.08,0h0c-0.22-.23-0.44-0.45-0.68-0.66a79.18,79.18,0,0,0-22.06-9.88l-0.25.28,0.69,0.23-0.25.08a14.32,14.32,0,0,0-1.76-.9c-0.26-.11-0.52-0.2-0.78-0.29q-1.69-.41-3.41-0.74l0.17,0.39a1.67,1.67,0,0,0,.52.19l-0.08.27a13.47,13.47,0,0,0-6.1-1.37H210c0-.11-0.06-0.22-0.09-0.34a80.1,80.1,0,0,0-19.29,0c-0.09.28-.2,0.57-0.29,0.85l0.72,0-0.2.16a13.89,13.89,0,0,0-2-.16,14.61,14.61,0,0,0-3.71.48l0,0.27A13.45,13.45,0,0,0,179,73.6l0,0h0l0.16-.07-0.22-.28A79.09,79.09,0,0,0,161,80.61c0,0.3,0,.59.06,0.89l0.64-.32-0.12.23a13.56,13.56,0,0,0-1.88.6,14.4,14.4,0,0,0-3.49,2.05c0-.18,0-0.37,0-0.55l-1.09.73,0.5,0.2a1.93,1.93,0,0,0,.5-0.24l0.14,0.25A13.43,13.43,0,0,0,151,87.81l0,0h0l0.11-.12-0.36-.2a80,80,0,0,0-13.59,13.71c0.12,0.25.24,0.49,0.36,0.74l0.48-.54c0,0.08,0,.17,0,0.26a15.48,15.48,0,0,0-1.51,1.28,14.51,14.51,0,0,0-2,2.48l0.22,0.18a13.37,13.37,0,0,0-3.6,5.11,0.14,0.14,0,0,0,0,0h0c0-.05,0-0.11.06-0.16l-0.22,0a79.08,79.08,0,0,0-7.48,17.86L124,129l0.23-.68c0,0.08.06,0.16,0.08,0.24a15.14,15.14,0,0,0-.9,1.76,14.37,14.37,0,0,0-1,3.92l-0.3-.34c-0.05.25-.1,0.5-0.15,0.76l0.55-.24a1.68,1.68,0,0,0,.18-0.52l0.27,0.08a13.43,13.43,0,0,0-1.37,6.1,0.2,0.2,0,0,0,0,.05l0,0c0-.06,0-0.12,0-0.17l-0.5.14a80.07,80.07,0,0,0-.07,19.19l1,0.35Z" transform="translate(-61.03 -10.87)"/><path class="cls-75" d="M156.23,84.06A14.4,14.4,0,0,1,159.72,82a13.56,13.56,0,0,1,1.88-.6l0.12-.23-0.64.32c0-.3,0-0.59-0.06-0.89q-2.44,1.37-4.76,2.9C156.25,83.7,156.24,83.88,156.23,84.06Z" transform="translate(-61.03 -10.87)"/><path class="cls-76" d="M156.23,84.06A14.4,14.4,0,0,1,159.72,82a13.56,13.56,0,0,1,1.88-.6l0.12-.23-0.64.32c0-.3,0-0.59-0.06-0.89q-2.44,1.37-4.76,2.9C156.25,83.7,156.24,83.88,156.23,84.06Z" transform="translate(-61.03 -10.87)"/><path class="cls-77" d="M184.85,72.28h-0.28l-0.3-.3q-2.74.55-5.4,1.28l0.22,0.28-0.16.07h0l0,0a13.45,13.45,0,0,1,6.16-1.07l0-.27-0.31.08Z" transform="translate(-61.03 -10.87)"/><path class="cls-78" d="M184.85,72.28h-0.28l-0.3-.3q-2.74.55-5.4,1.28l0.22,0.28-0.16.07h0l0,0a13.45,13.45,0,0,1,6.16-1.07l0-.27-0.31.08Z" transform="translate(-61.03 -10.87)"/><path class="cls-79" d="M133.86,105.84h0.2a1.64,1.64,0,0,0,.37-0.41h0a14.51,14.51,0,0,1,2-2.48,15.48,15.48,0,0,1,1.51-1.28c0-.09,0-0.17,0-0.26l-0.48.54c-0.13-.24-0.24-0.49-0.36-0.74q-1.72,2.21-3.28,4.54Z" transform="translate(-61.03 -10.87)"/><path class="cls-80" d="M133.86,105.84h0.2a1.64,1.64,0,0,0,.37-0.41h0a14.51,14.51,0,0,1,2-2.48,15.48,15.48,0,0,1,1.51-1.28c0-.09,0-0.17,0-0.26l-0.48.54c-0.13-.24-0.24-0.49-0.36-0.74q-1.72,2.21-3.28,4.54Z" transform="translate(-61.03 -10.87)"/><path class="cls-81" d="M151.07,87.72l-0.11.12h0l0,0a13.43,13.43,0,0,1,5.29-3.35l-0.14-.25a1.93,1.93,0,0,1-.5.24l-0.5-.2q-2.28,1.56-4.45,3.27Z" transform="translate(-61.03 -10.87)"/><path class="cls-82" d="M151.07,87.72l-0.11.12h0l0,0a13.43,13.43,0,0,1,5.29-3.35l-0.14-.25a1.93,1.93,0,0,1-.5.24l-0.5-.2q-2.28,1.56-4.45,3.27Z" transform="translate(-61.03 -10.87)"/><path class="cls-83" d="M122.35,134.22a14.37,14.37,0,0,1,1-3.92,15.14,15.14,0,0,1,.9-1.76c0-.08-0.06-0.16-0.08-0.24L124,129l-0.6-.52q-0.75,2.68-1.32,5.43Z" transform="translate(-61.03 -10.87)"/><path class="cls-84" d="M122.35,134.22a14.37,14.37,0,0,1,1-3.92,15.14,15.14,0,0,1,.9-1.76c0-.08-0.06-0.16-0.08-0.24L124,129l-0.6-.52q-0.75,2.68-1.32,5.43Z" transform="translate(-61.03 -10.87)"/><path class="cls-85" d="M133.86,105.84h-0.07q-1.55,2.32-2.94,4.75l0.22,0c0,0.05,0,.11-0.06.16h0a0.14,0.14,0,0,1,0,0,13.37,13.37,0,0,1,3.6-5.11l-0.22-.18c-0.16.25-.31,0.5-0.45,0.75Z" transform="translate(-61.03 -10.87)"/><path class="cls-86" d="M133.86,105.84h-0.07q-1.55,2.32-2.94,4.75l0.22,0c0,0.05,0,.11-0.06.16h0a0.14,0.14,0,0,1,0,0,13.37,13.37,0,0,1,3.6-5.11l-0.22-.18c-0.16.25-.31,0.5-0.45,0.75Z" transform="translate(-61.03 -10.87)"/><path class="cls-87" d="M134.06,105.84h-0.2l0.12,0.35c0.14-.25.29-0.5,0.45-0.75h0A1.64,1.64,0,0,1,134.06,105.84Z" transform="translate(-61.03 -10.87)"/><path class="cls-88" d="M134.06,105.84h-0.2l0.12,0.35c0.14-.25.29-0.5,0.45-0.75h0A1.64,1.64,0,0,1,134.06,105.84Z" transform="translate(-61.03 -10.87)"/><path class="cls-89" d="M134.06,105.84h-0.2l0.12,0.35c0.14-.25.29-0.5,0.45-0.75h0A1.64,1.64,0,0,1,134.06,105.84Z" transform="translate(-61.03 -10.87)"/><path class="cls-90" d="M121.53,140.14l0,0a0.2,0.2,0,0,1,0-.05,13.43,13.43,0,0,1,1.37-6.1l-0.27-.08a1.68,1.68,0,0,1-.18.52l-0.55.24q-0.53,2.7-.88,5.47l0.5-.14C121.53,140,121.53,140.08,121.53,140.14Z" transform="translate(-61.03 -10.87)"/><path class="cls-91" d="M121.53,140.14l0,0a0.2,0.2,0,0,1,0-.05,13.43,13.43,0,0,1,1.37-6.1l-0.27-.08a1.68,1.68,0,0,1-.18.52l-0.55.24q-0.53,2.7-.88,5.47l0.5-.14C121.53,140,121.53,140.08,121.53,140.14Z" transform="translate(-61.03 -10.87)"/><path class="cls-92" d="M122.45,164.9a13.6,13.6,0,0,1-.34-5.78l-0.16-.2,0,0.72-1-.35q0.32,2.77.83,5.48l0.68,0.33C122.47,165,122.46,165,122.45,164.9Z" transform="translate(-61.03 -10.87)"/><path class="cls-93" d="M122.45,164.9a13.6,13.6,0,0,1-.34-5.78l-0.16-.2,0,0.72-1-.35q0.32,2.77.83,5.48l0.68,0.33C122.47,165,122.46,165,122.45,164.9Z" transform="translate(-61.03 -10.87)"/><path class="cls-94" d="M123.81,171.09a0.09,0.09,0,0,0,0,0,0.1,0.1,0,0,1,0,0,13.43,13.43,0,0,1-1.07-6.15l-0.28,0h0l0.05,0.21h0a1.87,1.87,0,0,1,0,.34l-0.47.48q0.55,2.72,1.29,5.36l0.44-.35S123.79,171,123.81,171.09Z" transform="translate(-61.03 -10.87)"/><path class="cls-95" d="M123.81,171.09a0.09,0.09,0,0,0,0,0,0.1,0.1,0,0,1,0,0,13.43,13.43,0,0,1-1.07-6.15l-0.28,0h0l0.05,0.21h0a1.87,1.87,0,0,1,0,.34l-0.47.48q0.55,2.72,1.29,5.36l0.44-.35S123.79,171,123.81,171.09Z" transform="translate(-61.03 -10.87)"/><path class="cls-96" d="M122.45,164.9c0,0.06,0,.13,0,0.2h0Z" transform="translate(-61.03 -10.87)"/><path class="cls-97" d="M122.45,164.9c0,0.06,0,.13,0,0.2h0Z" transform="translate(-61.03 -10.87)"/><path class="cls-98" d="M122.45,164.9c0,0.06,0,.13,0,0.2h0Z" transform="translate(-61.03 -10.87)"/><path class="cls-99" d="M276.77,168.93a14.94,14.94,0,0,1-.9,1.76l0.07,0.25,0.23-.69,0.65,0.57q0.73-2.7,1.27-5.47l-0.31-.34A14.32,14.32,0,0,1,276.77,168.93Z" transform="translate(-61.03 -10.87)"/><path class="cls-100" d="M276.77,168.93a14.94,14.94,0,0,1-.9,1.76l0.07,0.25,0.23-.69,0.65,0.57q0.73-2.7,1.27-5.47l-0.31-.34A14.32,14.32,0,0,1,276.77,168.93Z" transform="translate(-61.03 -10.87)"/><path class="cls-101" d="M278.46,159.25h0s0,0,0,.06a13.35,13.35,0,0,1-1.38,6.1l0.28,0.08a1.63,1.63,0,0,1,.18-0.52l0.68-.29q0.5-2.69.82-5.44l-0.57.16A1.43,1.43,0,0,0,278.46,159.25Z" transform="translate(-61.03 -10.87)"/><path class="cls-102" d="M278.46,159.25h0s0,0,0,.06a13.35,13.35,0,0,1-1.38,6.1l0.28,0.08a1.63,1.63,0,0,1,.18-0.52l0.68-.29q0.5-2.69.82-5.44l-0.57.16A1.43,1.43,0,0,0,278.46,159.25Z" transform="translate(-61.03 -10.87)"/><path class="cls-103" d="M278.05,138.3a14.11,14.11,0,0,1-.16,2l0.17,0.2,0-.72,1,0.32q-0.35-2.78-.89-5.51l-0.58-.28A14.46,14.46,0,0,1,278.05,138.3Z" transform="translate(-61.03 -10.87)"/><path class="cls-104" d="M278.05,138.3a14.11,14.11,0,0,1-.16,2l0.17,0.2,0-.72,1,0.32q-0.35-2.78-.89-5.51l-0.58-.28A14.46,14.46,0,0,1,278.05,138.3Z" transform="translate(-61.03 -10.87)"/><path class="cls-105" d="M265.67,105.78l0.11,0.2h0a14.57,14.57,0,0,1,1.9,3.29,14.1,14.1,0,0,1,.6,1.88l0.23,0.12-0.32-.65,1-.06q-1.39-2.43-2.94-4.75Z" transform="translate(-61.03 -10.87)"/><path class="cls-106" d="M265.67,105.78l0.11,0.2h0a14.57,14.57,0,0,1,1.9,3.29,14.1,14.1,0,0,1,.6,1.88l0.23,0.12-0.32-.65,1-.06q-1.39-2.43-2.94-4.75Z" transform="translate(-61.03 -10.87)"/><path class="cls-107" d="M276.12,128.62l-0.07-.15v0a0.2,0.2,0,0,1,0,0,13.53,13.53,0,0,1,1.07,6.16l0.28,0a1.63,1.63,0,0,1,0-.54l0.49-.5q-0.57-2.71-1.31-5.35Z" transform="translate(-61.03 -10.87)"/><path class="cls-108" d="M276.12,128.62l-0.07-.15v0a0.2,0.2,0,0,1,0,0,13.53,13.53,0,0,1,1.07,6.16l0.28,0a1.63,1.63,0,0,1,0-.54l0.49-.5q-0.57-2.71-1.31-5.35Z" transform="translate(-61.03 -10.87)"/><path class="cls-109" d="M243.81,83.81l0.08,0-0.05-.05h0Z" transform="translate(-61.03 -10.87)"/><path class="cls-110" d="M243.81,83.81l0.08,0-0.05-.05h0Z" transform="translate(-61.03 -10.87)"/><path class="cls-111" d="M265.67,105.78a1.53,1.53,0,0,1-.12-0.3l0.16-.39q-1.57-2.29-3.29-4.46l-0.14.25-0.13-.11v0a0.11,0.11,0,0,1,0,0,13.44,13.44,0,0,1,3.35,5.28l0.22-.12-0.16-.21h0.07Z" transform="translate(-61.03 -10.87)"/><path class="cls-112" d="M265.67,105.78a1.53,1.53,0,0,1-.12-0.3l0.16-.39q-1.57-2.29-3.29-4.46l-0.14.25-0.13-.11v0a0.11,0.11,0,0,1,0,0,13.44,13.44,0,0,1,3.35,5.28l0.22-.12-0.16-.21h0.07Z" transform="translate(-61.03 -10.87)"/><path class="cls-113" d="M244.4,84l-0.09.11A14.37,14.37,0,0,1,247,86.26a15,15,0,0,1,1.27,1.5l0.26,0L248,87.31l0.6-.29q-2.19-1.69-4.49-3.23A2.22,2.22,0,0,0,244.4,84Z" transform="translate(-61.03 -10.87)"/><path class="cls-114" d="M244.4,84l-0.09.11A14.37,14.37,0,0,1,247,86.26a15,15,0,0,1,1.27,1.5l0.26,0L248,87.31l0.6-.29q-2.19-1.69-4.49-3.23A2.22,2.22,0,0,0,244.4,84Z" transform="translate(-61.03 -10.87)"/><path class="cls-115" d="M265.67,105.78H265.6l0.16,0.21h0Z" transform="translate(-61.03 -10.87)"/><path class="cls-116" d="M265.67,105.78H265.6l0.16,0.21h0Z" transform="translate(-61.03 -10.87)"/><path class="cls-117" d="M265.67,105.78H265.6l0.16,0.21h0Z" transform="translate(-61.03 -10.87)"/><path class="cls-118" d="M219.54,72.94a14.32,14.32,0,0,1,1.76.9l0.25-.08-0.69-.23,0.25-.28q-1.17-.32-2.35-0.6C219,72.74,219.28,72.83,219.54,72.94Z" transform="translate(-61.03 -10.87)"/><path class="cls-119" d="M219.54,72.94a14.32,14.32,0,0,1,1.76.9l0.25-.08-0.69-.23,0.25-.28q-1.17-.32-2.35-0.6C219,72.74,219.28,72.83,219.54,72.94Z" transform="translate(-61.03 -10.87)"/><path class="cls-120" d="M244.22,84.22l0.09-.11-0.42-.25Z" transform="translate(-61.03 -10.87)"/><path class="cls-121" d="M244.22,84.22l0.09-.11-0.42-.25Z" transform="translate(-61.03 -10.87)"/><path class="cls-122" d="M243.16,83.13c0.24,0.22.46,0.44,0.68,0.66l0.22-.08Z" transform="translate(-61.03 -10.87)"/><path class="cls-123" d="M243.16,83.13c0.24,0.22.46,0.44,0.68,0.66l0.22-.08Z" transform="translate(-61.03 -10.87)"/><path class="cls-124" d="M244.15,83.78l-0.09-.06-0.22.08,0.05,0.05,0.42,0.25L244.4,84A2.22,2.22,0,0,1,244.15,83.78Z" transform="translate(-61.03 -10.87)"/><path class="cls-125" d="M244.15,83.78l-0.09-.06-0.22.08,0.05,0.05,0.42,0.25L244.4,84A2.22,2.22,0,0,1,244.15,83.78Z" transform="translate(-61.03 -10.87)"/><path class="cls-126" d="M244.15,83.78l-0.09-.06-0.22.08,0.05,0.05,0.42,0.25L244.4,84A2.22,2.22,0,0,1,244.15,83.78Z" transform="translate(-61.03 -10.87)"/><path class="cls-127" d="M210,71.37h-0.1a13.47,13.47,0,0,1,6.1,1.37l0.08-.27a1.67,1.67,0,0,1-.52-0.19l-0.17-.39q-2.71-.53-5.49-0.88C209.89,71.14,209.93,71.25,210,71.37Z" transform="translate(-61.03 -10.87)"/><path class="cls-128" d="M210,71.37h-0.1a13.47,13.47,0,0,1,6.1,1.37l0.08-.27a1.67,1.67,0,0,1-.52-0.19l-0.17-.39q-2.71-.53-5.49-0.88C209.89,71.14,209.93,71.25,210,71.37Z" transform="translate(-61.03 -10.87)"/><path class="cls-129" d="M184.85,72.28l0.28,0v0a14.61,14.61,0,0,1,3.71-.48,13.89,13.89,0,0,1,2,.16l0.2-.16-0.72,0c0.09-.29.19-0.57,0.29-0.85q-2.78.33-5.5,0.85Z" transform="translate(-61.03 -10.87)"/><path class="cls-130" d="M184.85,72.28l0.28,0v0a14.61,14.61,0,0,1,3.71-.48,13.89,13.89,0,0,1,2,.16l0.2-.16-0.72,0c0.09-.29.19-0.57,0.29-0.85q-2.78.33-5.5,0.85Z" transform="translate(-61.03 -10.87)"/><path class="cls-131" d="M184.85,72.28l0,0.06,0.31-.08v0Z" transform="translate(-61.03 -10.87)"/><path class="cls-132" d="M184.85,72.28l0,0.06,0.31-.08v0Z" transform="translate(-61.03 -10.87)"/><path class="cls-133" d="M184.85,72.28l0,0.06,0.31-.08v0Z" transform="translate(-61.03 -10.87)"/><circle class="cls-134" cx="138.97" cy="139.13" r="94.83"/><path class="cls-2" d="M235.18,106c2.13-.28,4.25-3.48,4.25-3.48s3.19-4.6,10.36-4.18,8.9,2.79,9.3,4.32,2.79,1.95,5.71,1.81a5.45,5.45,0,0,1,4.52,2.23s2.53,0.42,4.39.84,0-1.67-.27-2.51a7.18,7.18,0,0,1-.4-3.48c0.27-1.25,5,1.11,7,1.53s1.33-1.67,1.33-1.67l1.33-.28-4-6.16-0.27-.37-0.65.68L276,91.91l-1.59-.14-1.2,1.53L272,91.91l-1.86-.56L267.6,89.4l-2-2.37-0.93-.56L265.61,89,268,91.21a12.07,12.07,0,0,1,.93,2.51c0,0.56-2.26-.28-2.79-0.42a23,23,0,0,1-3.06-2.37l-2.26-2.37-3.19-2.37s-6.38-4-7.18-4A66.91,66.91,0,0,1,244,80.21l2,1.95,4.39,2.51s4.12,1.39,5.71,2.09a8.16,8.16,0,0,1,2.66,1.95l-0.8.42,1.2,3.06-2.52-2.78s-3.72-2.37-6-2.37-5.32-1.95-6.11-2.23-3.32-2.23-3.32-1.39-2.39.84-4.65,1.81-0.27,3.48-.27,3.48l-1.59,1.81L234,93l0.93,3.06,0.53,2.78-0.4,2.92s-0.13,1-2,1.11a4,4,0,0,0-3.32,2.51,0.24,0.24,0,0,1,0,.08c0.23,0.12.84,0.16,0.7,0.33a3.9,3.9,0,0,0-.41.57h0C230.93,106.11,233.05,106.25,235.18,106Z" transform="translate(-61.03 -10.87)"/><path class="cls-2" d="M226.22,103.45a5.13,5.13,0,0,1-.9-0.93,8.11,8.11,0,0,1-.82-2,10.6,10.6,0,0,0-2.39-7.37,1.29,1.29,0,0,0-1.13-.55L218.73,90a3.36,3.36,0,0,0-1.46.54A7.3,7.3,0,0,1,215,91.89s1.71,1.84,2.76,3.16,1.31,6.05,1.31,6.05l2.63,1.32s0.92,2.24,1.45,2.37,2.89-.39,3.55-0.39a8.25,8.25,0,0,1,2.46,1.28,0.55,0.55,0,0,0,.51-0.17h0Z" transform="translate(-61.03 -10.87)"/><path class="cls-2" d="M278.5,94.55l0,0,0.27,0.37Z" transform="translate(-61.03 -10.87)"/><path class="cls-2" d="M229.7,105.49a0.55,0.55,0,0,1-.51.17l0.44,0.3-1.91.44,1,2.36s0.4-2.07,1.32-2.36a3.9,3.9,0,0,1,.41-0.57C230.53,105.66,229.93,105.61,229.7,105.49Z" transform="translate(-61.03 -10.87)"/><path class="cls-2" d="M229.19,105.66a7.72,7.72,0,0,1-2-.52l0.51,1.26,1.91-.44Z" transform="translate(-61.03 -10.87)"/><circle class="cls-135" cx="138.97" cy="139.13" r="95.64"/><path class="cls-136" d="M153.94,146.69c2.13,0.33,3.5-.76,5-1.38l2.83-1.47a1.88,1.88,0,0,1,2.23.46,1.86,1.86,0,0,0,2.23-.77,12.28,12.28,0,0,1,1.86-1.66,11.68,11.68,0,0,0,2.05-.25,11.32,11.32,0,0,1,5.84,3.2c2.85,1,5.1,2.83,7.69,4.33,2.52,0.75,5,1.65,6.42,3.37,0.49,1.62,2.07,2.14,4,2.15a27.6,27.6,0,0,1,4.43.19c1.22,0.54,2.12,1.47,3.62,2a17.74,17.74,0,0,1,3.18.42,14.08,14.08,0,0,1,4.43,4,2.45,2.45,0,0,1-.07,1.55c-1.87,2.52-2.73,6-3.6,9.54a15.65,15.65,0,0,1-1.79,4.61,9.29,9.29,0,0,1-2.77,2.23c-1.47,1.05-3.28,1.81-4.3,3.07a73.88,73.88,0,0,0-3.46,11c-0.22.93-1.34,1.38-2.5,1.31a5,5,0,0,0-4.39,4.18,3.35,3.35,0,0,1-2.53,2.45,2.11,2.11,0,0,0-1.42,2.09,3.73,3.73,0,0,1-.82,2.56,1.57,1.57,0,0,0-.37,1.64,12.23,12.23,0,0,1,2,4.92c-0.58,1.5.67,2.42,1.39,3.17a2.32,2.32,0,0,1,.5,2.38,3.69,3.69,0,0,1-1.57.54,9.55,9.55,0,0,1-4-.23c-1.33-.39-1.95-1.63-2.47-2.9a36,36,0,0,1-2.31-5.78c0-2.33-1.34-3.42-1.91-5.09a26.57,26.57,0,0,1-1.25-8.44,8.79,8.79,0,0,0-2-4,10.05,10.05,0,0,1-1.5-2.36,9.46,9.46,0,0,0-1.28-6.28l-0.53-4.83c-0.85-1.51-2.48-2.14-3.83-3a25,25,0,0,0-3.6-1.76c-1.69-1.24-2.36-3.4-3.14-5.49a28.28,28.28,0,0,0-2.1-3.78,25.8,25.8,0,0,1,.31-4.69c0-.81.09-1.8,0.13-2.6a6.64,6.64,0,0,0,1.59-2.9,3.86,3.86,0,0,0-1.11-3.77,2.37,2.37,0,0,0-1.37-.46,13,13,0,0,1-6.09-2.34,6.19,6.19,0,0,1-1.57-1,13.63,13.63,0,0,0-7.45-4.49c-2.5-1.59-5.71-2.13-8.33-3.41-1.89-.92-2.78-2.91-3.47-5.18a3.42,3.42,0,0,0-2.35-2.62,7.31,7.31,0,0,1-3-5.72c-0.42-1.41-1.35-2.29-1.88-3.56a2.57,2.57,0,0,1,0-1.78,12,12,0,0,0-.45-7.94,8.73,8.73,0,0,1,0-2.05c0.35-2.43.79-4.49,2-6a3.2,3.2,0,0,0,.27-2.49A4.4,4.4,0,0,1,123,96.69a2.19,2.19,0,0,0,.89-2.3c0.63-1.31,1.07-2.52,2-3.22a8.9,8.9,0,0,1,1.22-2.48,32,32,0,0,1,7.72-9.16c2.25-2,4.39-3.78,6.82-5.57l4.51-3.49,6.57-4a58,58,0,0,1,7.16-3.51,2.9,2.9,0,0,1,1.32-.15c0.48,1.26,1.36,2.22,2,3.54a6.48,6.48,0,0,1,1.9,0,9.66,9.66,0,0,1,1.66.92c0.3,0.15.77-.09,0.89,0.21a4.7,4.7,0,0,0,1.39,1.69A29.51,29.51,0,0,0,172.39,72c1.29,0,2.5.4,2.81,1.23a3.54,3.54,0,0,1,.22.74A10,10,0,0,1,174,80.37a0.82,0.82,0,0,1-.9.33,3.21,3.21,0,0,1-2.19-2,5.19,5.19,0,0,0-1.33-2.26,2.84,2.84,0,0,0-1.23-.38A1.38,1.38,0,0,0,167,77.13a1.78,1.78,0,0,1-.44,1c-0.62.57-1.71,0.59-2.38,1.11a2,2,0,0,0-.66,1.75c-0.56,2.16-2.65,3.39-5.18,2.85a5.43,5.43,0,0,0-4.34,1c-0.22.7,0.1,1.4-.09,2.06-0.07.27-.57,1-0.63,1.26a0.74,0.74,0,0,0,.63.75,19,19,0,0,0,1.89.77l1.53,1.87a0.94,0.94,0,0,0,.87.31c1.55-.81,3.4-1.3,4.67-2.48s1.73-2.84,2.36-4.51a0.79,0.79,0,0,1,.57-0.51,14.28,14.28,0,0,0,4.26-.12,3.81,3.81,0,0,1,3.18,2.9c0.29,1.13.08,2.62,0.41,3.68a16.06,16.06,0,0,0,2.18,2.3,2.87,2.87,0,0,1,1.53.75c0.95,1.4.83,4.17-.64,4.95a7.42,7.42,0,0,1-2.27.77c-0.88-.25-1.85-0.7-3-1.1a9.34,9.34,0,0,0-4.35,2.31c-0.17.17-.35,0.65,0,0.77a3,3,0,0,0,2-.46,2.87,2.87,0,0,1,1.87-.07,0.75,0.75,0,0,1,.48.7,4.35,4.35,0,0,1-1,2.59c-1.19,1.78-3.18,2.83-5.32,3.75-1.74,1.78-2.57,4.59-3.58,7.09-1.72,2.25-4.3,3.64-7.09,4.85a1.75,1.75,0,0,0-.82,2.3,14.34,14.34,0,0,1,1.31,3,5.17,5.17,0,0,1-.08,1.64,0.94,0.94,0,0,1-.69.62c-1.47,0-2.09-1.08-2.8-1.94a8.25,8.25,0,0,0-2.67-2.5,7.75,7.75,0,0,0-5.77,1.27c-1,.26-2.25.33-3,1a1.68,1.68,0,0,0-.35,1.16,9.7,9.7,0,0,1-1.11,4.14,4.65,4.65,0,0,0-.27,1.91l0,2.05a3.16,3.16,0,0,0,.66,1.36,1.19,1.19,0,0,0,1.42.15c1-.8,1.64-2,3.12-2.38a3.36,3.36,0,0,0,1.5.15,2,2,0,0,1,1.46,1.38,4.05,4.05,0,0,1-.25,3,0.75,0.75,0,0,0,.05.8,2.2,2.2,0,0,0,1.49,0c1-.13,1.28.67,1.86,1" transform="translate(-61.03 -10.87)"/><path class="cls-137" d="M211.54,234.38c2.35-.36,4.23.29,6,0.6a28.81,28.81,0,0,1,3.35-1.16c4,0,7,1.28,9.94,2.39a31,31,0,0,1,4.43,2.24c-1.47.68-3,1.33-4.39,1.93-6.95,2.92-15.27,4.59-24.42,5.25a94.35,94.35,0,0,1-41.18-6,14.08,14.08,0,0,1-2.92-1.23,7.33,7.33,0,0,1,5.62-3.19l4.19-.65c2.77-.1,4.8.68,7,1.21a13.5,13.5,0,0,1,3.43.33c2.71-.27,4.07-2,5.52-3.53a4.09,4.09,0,0,0,1.13-2.23,5.59,5.59,0,0,1,3.32-4c0.15-.07.58,0,0.4,0.53a18.12,18.12,0,0,0-1.05,2.52,1.7,1.7,0,0,0,.36,1.44c0.72,0.95.89,2.58,1.17,3.54a6.45,6.45,0,0,0,4.91,2.49c1.4,0.06,2.52.51,3.82,0.67a1.35,1.35,0,0,0,1-.12Z" transform="translate(-61.03 -10.87)"/><path class="cls-138" d="M192.1,70.23a6.54,6.54,0,0,1,.47-1.52,2.6,2.6,0,0,0,.37-2.39,3.06,3.06,0,0,0-.65-0.94,6.58,6.58,0,0,1-2.19-1.71,7,7,0,0,1,.93-2.3c-1.34-.84-2.71-1.69-3.19-3.25a0.42,0.42,0,0,0-.57-0.27c-0.36-.32.06-0.76,0.13-1.16a2.35,2.35,0,0,1-1,.15,0.87,0.87,0,0,0-.23.19c-1.47.23-3,.35-4.24,0.53a2.8,2.8,0,0,1-2,.27,0.67,0.67,0,0,0-.64.2,11.67,11.67,0,0,0-2,4.45c0,0.12-.16.59,0.22,0.39a3.5,3.5,0,0,0,.68.73c0.23,0.07,1,0,1.22,0s0.62,0,.57.29a2.83,2.83,0,0,1-.6,1.33,3.74,3.74,0,0,0-.49,3.44,3.24,3.24,0,0,1,.13,2.16,2.14,2.14,0,0,0,0,1.57,16.17,16.17,0,0,0,1.18,1.8,5.27,5.27,0,0,0,2.13,2.43l5.27,1.66a0.73,0.73,0,0,0,.7-0.33c0.44-.74.91-1.61,1.46-2.37A29.11,29.11,0,0,0,192.1,70.23Z" transform="translate(-61.03 -10.87)"/><path class="cls-139" d="M155.9,129.17A6,6,0,0,0,153,129a2.63,2.63,0,0,0-.32.11,4.74,4.74,0,0,0-2.19,2.34,2,2,0,0,0,2.14,1.27l6.89-1c1.7,0.29,3.09.82,4.66,1.21a2.47,2.47,0,0,0,1-.11,0.69,0.69,0,0,0,.63-0.63,2.84,2.84,0,0,0-1.23-1.93c-1.37-.41-3-0.6-4.44-1.12H155.9Z" transform="translate(-61.03 -10.87)"/><path class="cls-140" d="M195,73.63a1.6,1.6,0,0,1,.62-0.15,10.54,10.54,0,0,1,2.93,1.25,0.71,0.71,0,0,1,.27,1.1,6.87,6.87,0,0,1-1.53.88h-1.83a4.48,4.48,0,0,1-2-1.21A4.89,4.89,0,0,1,195,73.63Z" transform="translate(-61.03 -10.87)"/><path class="cls-141" d="M295.48,141.25a116,116,0,0,0-2-13.24,174.87,174.87,0,0,0-5.86-17.83c-2-4.3-4.87-9.08-4.87-9.08l-1.33.28s0.66,2.09-1.33,1.67-6.78-2.78-7-1.53a7.18,7.18,0,0,0,.4,3.48c0.27,0.84,2.13,2.92.27,2.51s-4.39-.84-4.39-0.84a5.45,5.45,0,0,0-4.52-2.23c-2.92.14-5.32-.28-5.71-1.81s-2.13-3.9-9.3-4.32-10.36,4.18-10.36,4.18-2.13,3.2-4.25,3.48-4.25.14-5.18,0.42h0c-0.84,1.41-1,3.51-1.26,5.56-0.82,1.76-1.86,3.3-1.76,5.93-0.33,2.29-.64,4.64-1,6.81a33.56,33.56,0,0,0-.12,5.85,5.17,5.17,0,0,0,3.27,4.85l1.3,1.34c0.71,1,1.13,2.22,1.82,3.18,1.33,1.85,2.61,3.77,5.46,4a14.74,14.74,0,0,0,5.75-.76,11.35,11.35,0,0,0,5.17-1.28c2.08-.61,3.63-1.78,6.24-1.8a2.64,2.64,0,0,1,1.08.38c1.8,0.85,2.29,3,2.86,5.12a7.31,7.31,0,0,0,2.1,4.6c1,2.25,1.28,5.1,1.91,7.7,0.38,1.55,1,3.93-.08,5.22a3.4,3.4,0,0,0-.75,2.57l2.63,6.31a13.87,13.87,0,0,1-.91,4.43,52.22,52.22,0,0,0,1,8.28c-0.12,2-.84,3.25-1.18,4.95a1.22,1.22,0,0,0,.57,1.44c3.41-.22,6.64-0.7,10.22-0.94a3.68,3.68,0,0,0,2-.65c0.86-1.82,1.81-3.66,3.52-4.68a9.08,9.08,0,0,1,1.9-3.78c0.85-.92,2-1.51,2.89-2.44,0.61-2.06.79-4.49,1.55-6.27,0.84-2,8.32-9,8.32-9A86.16,86.16,0,0,0,295.48,141.25Z" transform="translate(-61.03 -10.87)"/><path class="cls-142" d="M218.71,63.34l3.42,1.31,1.71,0.66,2.5,1.05,0.92-.66-1.71-1.45L221.6,61,219,60.58l-2.5-1.71-2-1.05,1.45-.13,3.42,1.71,5.26,1.84,2.63,0.26,1.58,1.32,1.84,0.13L229.89,64l3,2.63-1.71.79s-2.37-.79-2.23,0-3.94.66-3.94,0.66l-1.18-.92-0.39-.92-2-.53-1.31.53,3.68,3.68-1.45,1.84,0.39,2.1-0.66,2-1.05,1.58L219.9,79A3.32,3.32,0,0,0,217.14,80c-1.31,1.32.66,1.32,3.94,2.24s6.83,6.58,6.83,6.58a26.8,26.8,0,0,1-3.81.66,34.88,34.88,0,0,0-5.37.51l-2.68,2c-0.53.09,1.69,2.57,2.39,3.46a4.93,4.93,0,0,1,.8,2.66c0.18,1.42.18,2.38,0.26,2.5,0.86,1.18,2.71.37,2.63,1.58a10.26,10.26,0,0,0,1.44,2.23c0.14,0.25,2.38-.2,2.49-0.13l3.59,1.2h0a0.24,0.24,0,0,0,0-.08,4,4,0,0,1,3.32-2.51c1.86-.14,2-1.11,2-1.11l0.4-2.92-0.53-2.78L234,93l0.66-2.51,1.59-1.81s-2-2.51.27-3.48,4.65-1,4.65-1.81,2.53,1.11,3.32,1.39S248.34,87,250.59,87s6,2.37,6,2.37l2.52,2.78-1.2-3.06,0.8-.42A8.16,8.16,0,0,0,256,86.76c-1.59-.7-5.71-2.09-5.71-2.09l-4.39-2.51-2-1.95a66.91,66.91,0,0,0,6.51,1.95c0.8,0,7.18,4,7.18,4l3.19,2.37,2.26,2.37a23,23,0,0,0,3.06,2.37c0.53,0.14,2.79,1,2.79.42a12.07,12.07,0,0,0-.93-2.51L265.61,89l-0.93-2.51L265.61,87l2,2.37,2.52,1.95L272,91.91l1.2,1.39,1.2-1.53L276,91.91l1.86,3.34,0.65-.68a78.42,78.42,0,0,0-11.92-13.31,5,5,0,0,0-1.65-1.4s-6.88-6-7.12-6.18a26.58,26.58,0,0,0-2.93-2.34A94.58,94.58,0,0,0,211.58,55a0.65,0.65,0,0,0-.65.4,0.75,0.75,0,0,0,.15.62,8.67,8.67,0,0,1-.76,4.47,0.93,0.93,0,0,0,.1.65c0.38,0.66.81,1.27,1.24,1.88,1.26,0.74,2.62,1.41,3.38,1.76C216.74,65.58,218.71,63.34,218.71,63.34Z" transform="translate(-61.03 -10.87)"/><polygon class="cls-143" points="196.9 81.29 194.11 81.57 194.39 83.1 198.15 84.08 198.43 82.96 196.9 81.29"/><polygon class="cls-143" points="184.76 80.43 187.12 83.49 189.07 84.05 188.93 82.38 186.43 79.73 185.17 79.59 184.76 80.43"/><polygon class="cls-143" points="182.16 76.27 183.83 78.36 184.81 78.36 183.28 75.99 182.16 76.27"/><polygon class="cls-144" points="154.87 67.93 157.72 66.08 159.89 65.25 159.14 64.23 158.64 63.49 156.88 63.21 154.7 62.29 153.11 61.46 152.1 61.37 151.68 59.89 150.09 59.89 148.75 59.15 148.08 60.07 149.59 61.18 150.09 62.38 150.76 63.03 152.02 62.75 153.53 62.94 154.2 63.95 152.94 63.77 154.03 64.78 154.03 65.71 155.29 66.17 154.87 67.93"/><polygon class="cls-144" points="150.12 63.32 151.37 64.13 152.53 65.02 152.97 66 151.1 67.17 149.4 67.08 149.4 65.64 148.51 65.2 148.24 64.48 148.78 64.3 148.78 63.59 150.12 63.32"/><polygon class="cls-145" points="108.65 120.87 108.65 122.3 105.43 123.01 107.93 123.73 111.86 123.73 114.72 124.8 112.93 121.94 111.5 120.16 108.65 120.87"/><path class="cls-146" d="M112.92,179.41c5.66-.66,8.31-1.32,8.31-7.55V127.1c-5.29-6.51-6.8-6.8-8-6.8v-2.36h19.92l32.76,40.32h0.19V129.65c0-5.66-1.13-8.78-8.78-9.35v-2.36h20.3v2.36c-6.8.85-7.37,3-7.37,7.55v55.61h-2.64l-42-51.17h-0.19v37.77c0,6.8,2,8.59,9,9.35v2.36H112.92v-2.36Z" transform="translate(-61.03 -10.87)"/><path class="cls-146" d="M222.61,136.92c-1.7-6.61-7.37-17.46-18.5-17.46-4.91,0-10.11,2.83-10.11,9,0,5.1,1.79,7.17,9.73,11.14l13.88,6.89A19.55,19.55,0,0,1,228,163.83c0,8.31-6,19.74-23.41,19.74-9,0-13.22-3.21-16.15-3.21-2,0-2.46,1.7-2.83,3.21h-2.73V160.24h2.73c1.89,9.54,7.37,20.21,19.36,20.21,11.33,0,11.8-9.35,11.8-10.58,0-6.33-4.44-8.59-10.57-11.52l-6.33-3c-16.15-7.74-16.15-15.86-16.15-20.21,0-5.76,2.93-18.6,20.87-18.6,7.55,0,12,3.11,14.73,3.11,2.17,0,2.64-1.42,3.11-3.21h2.83v20.48h-2.65Z" transform="translate(-61.03 -10.87)"/><path class="cls-146" d="M233.55,117.94h53.53v19h-2.26c-2.08-9.82-4.63-15.76-20.87-15.76-5.1,0-6.8.38-6.8,4.44v21.9c11.71,0.19,13.13-6.51,14.45-14.06H274v31.91H271.6c-1-7.74-2.55-14.64-14.45-14.64v22c0,6.23,3.78,6.42,10.39,6.71v2.36h-34v-2.36c5.38-.57,8.31-0.85,8.31-6.71V127c0-6.23-3.87-6.41-8.31-6.7v-2.36Z" transform="translate(-61.03 -10.87)"/><path class="cls-147" d="M200,54.52A95.48,95.48,0,1,1,104.52,150,95.59,95.59,0,0,1,200,54.52m0-1.2A96.68,96.68,0,1,0,296.68,150,96.68,96.68,0,0,0,200,53.32h0Z" transform="translate(-61.03 -10.87)"/><circle class="cls-148" cx="138.97" cy="139.13" r="95.64"/></g></g></svg>