<svg id="Layer_2" data-name="Layer 2" xmlns="http://www.w3.org/2000/svg" viewBox="0 0 71.95 109.23" width="100px">
  <defs>
    <style>
      .cls-1 {
        fill: #00c069;
      }

      .cls-2 {
        fill: #036884;
      }
    </style>
  </defs>
  <g id="Layer_2-2" data-name="Layer 2">
    <g id="Layer_1-2" data-name="Layer 1-2">
      <g>
        <g>
          <path class="cls-2" d="m16.45,86.93c-.14.27-.29.46-.47.58-.18.11-.39.17-.64.17s-.53-.1-.84-.29-.67-.41-1.1-.64c-.42-.24-.91-.45-1.48-.64-.56-.19-1.23-.29-2-.29-.69,0-1.3.08-1.81.25-.51.17-.95.4-1.3.7-.35.3-.62.65-.79,1.07s-.26.87-.26,1.37c0,.63.18,1.16.53,1.58s.82.78,1.4,1.08c.58.3,1.25.56,1.99.8.74.24,1.5.49,2.28.75.77.27,1.53.58,2.28.93s1.41.8,1.99,1.34c.58.54,1.05,1.2,1.4,1.98.35.78.53,1.73.53,2.84,0,1.21-.21,2.35-.62,3.41-.42,1.06-1.02,1.98-1.82,2.77-.8.79-1.78,1.41-2.93,1.86-1.15.45-2.47.68-3.96.68-.85,0-1.7-.08-2.53-.25s-1.63-.41-2.39-.72-1.47-.68-2.14-1.12c-.66-.43-1.25-.92-1.77-1.45l1.45-2.4c.14-.17.3-.32.49-.44s.41-.18.64-.18c.31,0,.64.13,1,.38s.78.54,1.27.85,1.07.59,1.73.85,1.46.38,2.39.38c1.42,0,2.53-.34,3.31-1.01s1.17-1.65,1.17-2.91c0-.71-.18-1.28-.53-1.73-.35-.45-.82-.82-1.4-1.12s-1.25-.56-1.99-.77-1.5-.44-2.27-.69-1.52-.54-2.27-.89-1.41-.8-1.99-1.36c-.58-.56-1.05-1.25-1.4-2.09s-.53-1.87-.53-3.09c0-.98.2-1.93.58-2.86.39-.93.96-1.75,1.71-2.47.75-.72,1.67-1.29,2.76-1.73,1.09-.43,2.33-.65,3.74-.65,1.59,0,3.05.25,4.39.74,1.34.5,2.48,1.19,3.42,2.08l-1.23,2.36h.01Z"/>
          <path class="cls-2" d="m38.93,82.04v3.98h-11.91v7.95h10.05v4h-10.05v10.95h-5.04v-26.87h16.95Z"/>
          <path class="cls-2" d="m55.19,105.23c1.13,0,2.11-.1,2.95-.31.84-.2,1.63-.49,2.39-.85v-4.89h-3.36c-.32,0-.58-.09-.76-.27s-.28-.4-.28-.66v-2.82h8.94v10.87c-.68.5-1.39.93-2.13,1.29-.74.37-1.52.67-2.36.9-.84.24-1.73.41-2.69.53s-1.98.18-3.08.18c-1.96,0-3.76-.34-5.41-1.02s-3.07-1.63-4.27-2.84-2.14-2.66-2.82-4.35c-.68-1.69-1.01-3.52-1.01-5.52s.33-3.87.98-5.56c.66-1.68,1.59-3.13,2.8-4.35,1.21-1.21,2.67-2.16,4.4-2.82,1.72-.67,3.65-1,5.8-1s4.09.33,5.7.98,2.96,1.5,4.08,2.54l-1.45,2.27c-.29.46-.66.69-1.13.69-.3,0-.6-.1-.91-.3-.4-.24-.8-.47-1.22-.71-.42-.23-.87-.44-1.38-.61-.5-.17-1.07-.32-1.69-.43-.63-.11-1.35-.17-2.17-.17-1.33,0-2.52.22-3.6.67-1.07.45-1.99,1.08-2.74,1.91-.76.83-1.34,1.83-1.75,2.99-.41,1.17-.61,2.47-.61,3.9,0,1.55.22,2.93.65,4.13s1.04,2.23,1.82,3.06,1.71,1.47,2.79,1.9c1.08.44,2.25.66,3.53.66h0Z"/>
        </g>
        <g>
          <g>
            <g>
              <path class="cls-1" d="m51.49,38.14c-1.61-5.77-4.96-10.81-9.45-14.52-.11-.09-.23-.19-.34-.28-2.74-2.2-5.88-3.91-9.3-5-.72-.21-1.2-.32-1.78-.51-1.23-.39-2.42-.87-3.57-1.43-.09-.04-.17-.08-.26-.12-.23-.11-.46-.23-.69-.35-.13-.07-.27-.14-.4-.22-.08-.04-.17-.09-.25-.14-.16-.09-.32-.18-.48-.28-.42-.24-.83-.5-1.23-.77-.01,0-.02-.02-.04-.02-.14-.09-.27-.18-.41-.28-.02-.01-.04-.03-.06-.04s-.04-.02-.06-.04c-.02-.01-.03-.02-.04-.03-.17-.11-.34-.23-.5-.35-.15-.1-.29-.21-.44-.33-.11-.08-.22-.17-.33-.25-.2-.15-.39-.31-.59-.48-.12-.1-.24-.2-.36-.31-.04-.03-.07-.06-.11-.09-.11-.09-.21-.19-.32-.28-.17-.15-.33-.3-.5-.45-.37-.35-.74-.71-1.1-1.08-.1-.1-.19-.2-.28-.3-.2-.21-.39-.43-.59-.65-.11-.13-.23-.26-.34-.39-.07-.09-.15-.18-.22-.27-.12-.15-.25-.3-.37-.45s-.23-.3-.35-.45c-.29-.38-.56-.76-.83-1.15-.03-.04-.06-.09-.09-.13-.21-.3-.41-.61-.6-.92-.02-.03-.04-.06-.06-.09-.12-.2-.24-.39-.36-.6-.1-.18-.21-.36-.31-.54-.24-.43-.47-.87-.69-1.32-.08-.17-.17-.35-.25-.53-.11-.23-.21-.45-.31-.69-.1-.23-.19-.46-.29-.69-.09-.22-.17-.44-.25-.66-.08-.22-.17-.44-.24-.66v.02c.65,13.27,4.81,25.62,11.56,36.15,1.55-4.42,2.7-9.04,3.39-13.8.51,3.48.77,7.05.77,10.67,0,2.83-.17,5.61-.48,8.35,2.84,3.69,6.02,7.1,9.5,10.19,2.45-6.13,4.1-12.66,4.83-19.47.09.87.17,1.75.23,2.63l.12,2.12c.04,1.05.07,2.1.07,3.16,0,5.03-.51,9.94-1.47,14.68,2.52,1.96,5.16,3.76,7.93,5.39,1.34-2.4,2.35-5.01,2.97-7.76.04-.2.09-.39.12-.59.03-.15.06-.31.09-.46l.06-.33c.02-.11.04-.23.06-.34.02-.15.05-.29.06-.44.05-.33.1-.67.13-1.01.03-.27.05-.54.08-.81.02-.25.04-.5.05-.74.02-.26.02-.52.03-.79,0-.26,0-.53,0-.79v-.04c0-2.72-.37-5.34-1.07-7.83v-.02Z"/>
              <path class="cls-1" d="m22.07,59.28l-7.12-2c-.62.99-1.71,1.65-2.96,1.65-1.93,0-3.49-1.56-3.49-3.49s1.56-3.49,3.49-3.49c1.76,0,3.21,1.3,3.45,2.99l15.8,4.43c-3.26-2.63-7.09-5.86-10.03-8.72-.97.14-1.87.21-2.69.21-4.34,0-6.73-1.81-9.05-3.57-.19-.14-.39-.29-.58-.43-.56.39-1.25.62-1.99.62-1.93,0-3.49-1.56-3.49-3.49s1.56-3.49,3.49-3.49,3.49,1.56,3.49,3.49c0,.32-.05.62-.12.91.22.16.44.32.65.48,2.35,1.78,4.29,3.24,8.15,3.08-4.29-4.53-5.98-7.25-8.24-10.89-.44-.71-.91-1.47-1.43-2.28l-.14-.22c-.19.03-.38.05-.57.05-1.93,0-3.49-1.56-3.49-3.49s1.56-3.49,3.49-3.49,3.49,1.56,3.49,3.49c0,.86-.32,1.65-.84,2.26l.07.11c.52.82.99,1.58,1.44,2.3,2.46,3.97,4.09,6.59,9.08,11.69,3.03,3.1,7.56,6.9,11.24,9.86-.18-.17-.3-.29-.28-.29-.09-.08-.17-.16-.26-.25-.22-.21-.43-.42-.65-.63-.18-.17-.36-.35-.53-.53-.18-.18-.35-.36-.53-.54-.07-.07-.14-.14-.21-.22-.21-.21-.42-.43-.62-.65-.27-.28-.53-.57-.8-.86-.26-.28-.52-.57-.78-.87-.09-.1-.18-.2-.27-.3,0,0-.01,0-.02-.02-.18-.21-.36-.41-.54-.62-.22-.25-.43-.51-.64-.77l-.5-.6c-.19-.24-.39-.48-.58-.72-.19-.23-.37-.47-.56-.71-.18-.24-.55-.72-.55-.72l-1.86-2.59s-.61-.9-.91-1.36c-.35-.54-.7-1.09-1.05-1.65-.13-.22-.27-.44-.4-.66-.28-.47-.56-.94-.83-1.41-.15-.25-.29-.51-.43-.76-.31-.57-.62-1.13-.92-1.71-.14-.27-.28-.53-.41-.8s-.27-.53-.4-.8-.26-.54-.39-.81c-.09-.2-.18-.4-.28-.6-.12-.26-.25-.53-.37-.8-.14-.31-.28-.63-.41-.95-.13-.31-.26-.62-.39-.93-.12-.28-.23-.56-.34-.83-.09-.23-.18-.46-.27-.69-.24-.61-.47-1.23-.69-1.84-.12-.35-.24-.7-.36-1.04h0c-.1-.3-.2-.6-.3-.9-.13-.4-.26-.8-.38-1.2-.04-.12-.07-.24-.11-.36-.08-.27-.16-.54-.24-.81-.09-.29-.17-.59-.25-.88-.04-.16-.09-.32-.13-.49-.01-.04-.02-.09-.03-.13-.04-.13-.07-.27-.11-.4-.06-.25-.12-.5-.18-.75-.01-.04-.02-.09-.03-.13-.06-.25-.12-.5-.18-.76-.07-.32-.15-.63-.21-.95-.07-.32-.14-.64-.2-.96-.14-.7-.28-1.41-.4-2.12-.02-.11-.04-.22-.06-.33-.04-.22-.07-.43-.11-.65-.04-.25-.08-.51-.12-.77s-.08-.52-.11-.78c-.05-.39-.11-.78-.15-1.17h0c-.01-.15-.03-.3-.05-.45-.03-.28-.06-.55-.09-.82-.03-.29-.06-.59-.08-.88-.02-.2-.03-.4-.05-.6-.01-.14-.02-.28-.03-.42-.01-.19-.1-2.14-.11-2.33,0,4.92-1.95,10.11-4.06,14.21C2.76,29.52.41,36.95.6,43.54c.14,4.81,2.95,15.06,12.56,21.47,1.45-1.76,4.91-4.88,8.91-5.73Z"/>
              <path class="cls-2" d="m61.98,75.03h0c-1.55,0-2.94-.84-3.74-2.17-1.02-1.69-2.38-3.15-3.99-4.28h0s-6.38-4.44-7.19-4.93c-.09-.05-.17-.11-.26-.16-2.94-1.79-5.75-3.78-8.4-5.95l-.04-.04-1.84-1.57c-2.59-2.27-5.01-4.73-7.25-7.35-.81-.93-1.59-1.89-2.34-2.87-.44-.57-.88-1.16-1.31-1.75l-1.8-2.61c-2.59-3.93-4.82-8.14-6.62-12.56-.9-2.2-1.69-4.46-2.37-6.76-.22-.72-.42-1.45-.61-2.19-.39-1.48-.73-2.97-1.02-4.49-.24-1.23-.45-2.48-.62-3.74-.18-1.24-.32-2.48-.43-3.73-.05-.54-.09-1.09-.12-1.64-.1-1.56-1.48-3.71-1.54-3.91h0c-.04-.09-.06-.19-.09-.28,0,.11-.01.34-.01.34-.03.87-.05,1.74-.05,2.62v1.06c0,.36.01.71.02,1.06,0,.23.01.46.02.7,0,.19.01.38.02.58,0,.15.01.29.02.44.01.33.04.66.06.99,0,.07,0,.15.01.22.01.19.02.38.04.57.01.14.02.28.03.42.02.2.04.4.05.6.03.29.06.59.08.88.03.28.06.55.09.82.02.15.04.3.05.45h0c.05.4.1.79.15,1.18.04.26.07.52.11.78.04.25.08.51.11.76.04.22.1.59.13.81.01.06.02.12.03.18.12.71.25,1.41.4,2.12.07.32.13.64.2.96s.14.63.21.95c.06.25.12.5.18.76.01.04.02.09.03.13.06.25.12.5.18.75.04.13.07.27.11.4,0,.04.02.09.03.13.04.16.09.32.13.49.08.29.16.59.25.88.08.27.16.54.24.81.04.12.07.24.11.36.12.4.25.8.38,1.2.1.3.2.6.3.9h0c.12.35.24.7.36,1.04.22.62.45,1.23.69,1.84.09.23.18.46.27.69.11.28.22.56.34.83.13.31.26.62.39.93.13.32.28.63.41.95.12.27.24.54.37.8.09.2.19.4.28.6.13.28.26.54.39.81s.27.54.4.8c.13.27.27.53.41.8.3.58.6,1.14.92,1.71.14.25.29.51.43.76.27.48.55.95.83,1.41.13.22.27.44.4.66.34.56.7,1.11,1.05,1.65.3.46.91,1.36.91,1.36l1.86,2.59s.36.48.55.72.37.48.56.71c.19.24.38.48.58.72l.5.6c.21.25.43.51.64.77.18.21.36.41.54.62,0,0,.01,0,.02.02.09.1.18.2.27.3.26.3.52.59.78.87.27.29.53.58.8.86.2.22.41.43.62.65.07.07.14.15.21.22.18.18.35.36.53.54.17.18.35.35.53.53.21.21.43.42.65.63.09.08.17.17.26.25-.07,0,1.68,1.55,1.72,1.59.32.29.64.57.96.85s.64.56.97.83c.14.11.28.22.41.34.15.12.29.24.44.35.28.23.56.45.84.67.16.12.31.24.47.36.31.24.62.48.94.7.16.12.32.24.48.36.29.21.59.43.88.63.21.15.42.3.64.44.04.03.08.06.11.08.22.15.44.3.66.45.07.05.15.1.23.15.04.03.09.06.13.09l-12.81-3.84c-5.34-1.6-11.13.16-14.67,4.47l-3.3,4.01c-1.86,2.27-2.88,4.51-5.78,4.95h-1.9c-1.02,0-1.85.83-1.84,1.86,0,.81.66,1.46,1.47,1.46h2.68c4.16-.62,5.97-3.96,8.81-7.06l3.29-3.59c2.69-2.93,6.66-3.93,10.5-2.91l9.84,3.03c-2.4,1.37-4.36,3.42-5.62,5.88-.41.81-1.25,1.31-2.15,1.31h-1.19c-.86,0-1.55.69-1.55,1.55,0,.99.8,1.79,1.79,1.79h2.51c1.38,0,2.66-.81,3.17-2.1,1.6-4.03,5.48-6.99,10.05-6.99,4.13,0,7.79,2.63,9.66,6.15.95,1.79,2.77,2.94,4.79,2.94h1.2c.99,0,1.79-.8,1.79-1.79,0-.86-.69-1.55-1.55-1.55l.05-.02Z"/>
            </g>
            <path class="cls-2" d="m39.14,10.29c15.3,6.75,25.74,22.54,25.42,39.28.01.9-.02,1.8-.08,2.69-.24-.21-1.61-1.5-2.02-1.87-4.46-4.03-5.86-5.34-5.97-3.31-.3,5.51-1.76,10.87-4.39,15.22,3.39,2.32,5.55,3.76,7.87,6.25,1.79,1.92,4.86,1.95,6.63.01.02-.02.04-.04.05-.06.72-.83,1.11-1.46,1.4-2.36.35-1.07.59-2.13.75-3.13.29-1.8.32-3.38.25-4.45,2.84-7.44,3.57-15.51,2.29-23.31-.06-.59-.3-1.53-.42-2.12-.14-.6-.3-1.51-.49-2.1-.23-.73-.67-2.39-.95-3.09-.37-.92-.75-2.11-1.17-3-.17-.36-.98-2.11-1.13-2.43-.37-.68-.92-1.67-1.3-2.34-1.98-3.34-4.41-6.53-7.2-9.21-2.47-2.49-5.37-4.62-8.36-6.46-.9-.51-1.87-1.01-2.78-1.51-.65-.3-2.19-.99-2.88-1.3.67.35,2.12,1.1,2.8,1.45.87.54,1.82,1.1,2.68,1.65.64.47,1.92,1.35,2.55,1.84,4.09,3.22,7.64,7.14,10.35,11.58.19.33,1.12,1.94,1.29,2.24.33.67.8,1.65,1.13,2.32.12.23.33.7.42.94.25.66.93,2.23,1.11,2.89.22.71.56,1.74.77,2.45.08.35.5,2.1.59,2.5,1.38,6.54,1.19,13.47-.57,19.93-.14-18.15-11.55-34.81-28.65-41.18h.01Zm24.23,52.35c-2.02.53-3.94-1.05-3.8-3.14.09-1.26.99-2.36,2.22-2.68,2.02-.53,3.94,1.05,3.8,3.14-.09,1.26-.99,2.36-2.22,2.68Z"/>
          </g>
          <path class="cls-1" d="m6.73,31.63c0,1.07.87,1.94,1.94,1.94s1.94-.87,1.94-1.94-.87-1.94-1.94-1.94-1.94.87-1.94,1.94Z"/>
          <path class="cls-1" d="m4.93,43.99c0,1.07.87,1.94,1.94,1.94s1.94-.87,1.94-1.94-.87-1.94-1.94-1.94-1.94.87-1.94,1.94Z"/>
          <path class="cls-1" d="m10.03,55.45c0,1.07.87,1.94,1.94,1.94s1.94-.87,1.94-1.94-.87-1.94-1.94-1.94-1.94.87-1.94,1.94Z"/>
        </g>
      </g>
    </g>
  </g>
</svg>