<?xml version="1.0" encoding="utf-8"?>
<!-- Generator: Adobe Illustrator 21.1.0, SVG Export Plug-In . SVG Version: 6.00 Build 0)  -->
<svg version="1.1" id="Capa_1" xmlns="http://www.w3.org/2000/svg" xmlns:xlink="http://www.w3.org/1999/xlink" x="0px" y="0px"
	 viewBox="0 0 120.1 113.5" width="120.1" height="113.5" style="enable-background:new 0 0 120.1 113.5;" xml:space="preserve">
<style type="text/css">
	.st0{fill:#00845D;}
	.st1{fill:#28221B;}
</style>
<g>
	<path class="st0" d="M14.7,2.4v3.3c-1.6-1-3.4-1.5-5.6-1.5c-1.6,0-2.8,0.4-3.7,1.1S4,6.9,4,8.1c0,0.6,0.1,1.2,0.4,1.7
		s0.7,0.9,1.3,1.4c0.6,0.4,1.1,0.8,1.6,0.9c0.4,0.2,1.1,0.5,2,0.9c0.9,0.4,1.5,0.7,2,0.9c0.5,0.2,1,0.6,1.8,1
		c0.7,0.5,1.3,0.9,1.7,1.4c0.4,0.4,0.7,1,1,1.8c0.3,0.7,0.4,1.5,0.4,2.4c0,2.3-0.8,4-2.3,5.3s-3.6,1.9-6,1.9c-2.7,0-5-0.6-6.9-1.7
		v-3.3c1.9,1.4,4.1,2.1,6.8,2.1c1.6,0,2.9-0.4,3.8-1.1c0.9-0.7,1.4-1.8,1.4-3.1c0-0.6-0.1-1-0.3-1.5c-0.2-0.4-0.6-0.9-1.1-1.2
		c-0.5-0.4-0.9-0.7-1.4-0.9c-0.4-0.2-1-0.5-1.8-0.9c-0.1-0.1-0.4-0.2-0.7-0.3c-1.1-0.5-1.9-0.9-2.5-1.2c-0.6-0.3-1.2-0.8-2-1.4
		c-0.8-0.6-1.3-1.3-1.7-2.1c-0.4-0.8-0.5-1.7-0.5-2.8c0-2.2,0.8-3.9,2.4-5.2s3.6-1.9,5.9-1.9C11.2,1.2,13.1,1.6,14.7,2.4z"/>
	<path class="st1" d="M23.5,7.8v2.8c1.4-2.1,3.4-3.1,6-3.1c2.6,0,4.7,0.9,6.1,2.8c1.5,1.9,2.2,4.2,2.2,7c0,3-0.8,5.5-2.3,7.4
		c-1.6,1.9-3.6,2.8-6,2.8c-2.5,0-4.5-1.1-5.9-3.2V35h-2.3V7.8H23.5z M29.4,25.4c1.8,0,3.2-0.7,4.3-2.1s1.7-3.4,1.7-6
		c0-2.2-0.5-4-1.6-5.5s-2.5-2.1-4.1-2.1c-1.7,0-3.1,0.6-4.3,1.8c-1.2,1.2-1.8,3.2-1.8,6.1c0,1.4,0.2,2.7,0.6,3.7
		c0.4,1,0.9,1.9,1.5,2.4c0.6,0.6,1.2,0.9,1.9,1.2C28.1,25.2,28.8,25.4,29.4,25.4z"/>
	<path class="st1" d="M56.4,24v2.4c-1.5,0.8-3.3,1.1-5.4,1.1c-2.9,0-5.2-0.9-7-2.7c-1.8-1.8-2.7-4.2-2.7-7.1c0-3.1,0.8-5.6,2.4-7.4
		c1.6-1.8,3.7-2.7,6.2-2.7c2.4,0,4.3,0.8,5.7,2.3c1.4,1.6,2.1,3.7,2.1,6.6c0,0.9,0,1.6-0.1,2.1H43.8c0.2,2.1,0.9,3.8,2.2,4.9
		c1.3,1.1,3,1.7,5.2,1.7C53.3,25.2,55.1,24.8,56.4,24z M55.2,16.5v-0.9c0-1.8-0.5-3.2-1.5-4.2s-2.3-1.6-4-1.6c-1.6,0-3,0.6-4.1,1.7
		c-1.1,1.1-1.8,2.8-1.9,4.9L55.2,16.5L55.2,16.5z"/>
	<path class="st1" d="M63.6,17.7c0,2.2,0.7,4,2,5.6s3.3,2.3,5.8,2.3c1.6,0,2.9-0.4,4-1.2v2.4c-1.1,0.8-2.5,1.1-4.3,1.1
		c-3.1,0-5.6-1-7.4-3s-2.7-4.4-2.7-7.2c0-2.7,0.9-5.1,2.7-7.1s4.2-3,7.3-3c1.6,0,3,0.3,4.3,1v2.4c-1.1-0.8-2.5-1.1-4-1.1
		c-2.4,0-4.3,0.8-5.7,2.3C64.3,13.6,63.6,15.5,63.6,17.7z"/>
	<path class="st1" d="M80.6,2.8c-0.3-0.3-0.5-0.7-0.5-1.1s0.1-0.9,0.5-1.2C80.9,0.1,81.3,0,81.8,0s0.9,0.1,1.2,0.5
		c0.3,0.3,0.5,0.7,0.5,1.2s-0.1,0.9-0.5,1.1c-0.3,0.3-0.7,0.5-1.2,0.5S80.9,3.1,80.6,2.8z M80.6,27.3V7.8h2.3v19.5H80.6z"/>
	<path class="st1" d="M102.9,24v2.4c-1.5,0.8-3.3,1.1-5.4,1.1c-2.9,0-5.2-0.9-7-2.7c-1.8-1.8-2.7-4.2-2.7-7.1c0-3.1,0.8-5.6,2.4-7.4
		s3.7-2.7,6.2-2.7c2.4,0,4.3,0.8,5.7,2.3c1.4,1.6,2.1,3.7,2.1,6.6c0,0.9,0,1.6-0.1,2.1H90.3c0.2,2.1,0.9,3.8,2.2,4.9
		c1.3,1.1,3,1.7,5.2,1.7C99.8,25.2,101.5,24.8,102.9,24z M101.7,16.5v-0.9c0-1.8-0.5-3.2-1.5-4.2c-1-1-2.3-1.6-4-1.6
		c-1.6,0-3,0.6-4.1,1.7c-1.1,1.1-1.8,2.8-1.9,4.9L101.7,16.5L101.7,16.5z"/>
	<path class="st1" d="M119,8.5v2.3c-1.2-0.7-2.8-1-4.9-1c-1.1,0-2,0.3-2.7,0.8c-0.7,0.5-1,1.2-1,2c0,0.5,0.1,0.9,0.3,1.3
		c0.2,0.4,0.5,0.7,1,1c0.5,0.3,0.9,0.6,1.2,0.7c0.3,0.1,0.9,0.4,1.6,0.7c1.8,0.7,3.2,1.5,4.1,2.4c0.9,0.9,1.4,2,1.4,3.5
		c0,1.6-0.6,2.9-1.7,3.8c-1.1,0.9-2.7,1.4-4.6,1.4c-2.4,0-4.2-0.4-5.7-1.1v-2.4c1.7,0.9,3.6,1.5,5.5,1.5c1.3,0,2.3-0.3,3-0.8
		c0.7-0.5,1-1.2,1-2.1c0-1-0.3-1.8-1-2.4c-0.7-0.6-1.9-1.2-3.5-1.8c-1.6-0.6-2.8-1.3-3.7-2.1c-0.9-0.8-1.4-1.9-1.4-3.4
		c0-1.6,0.6-2.8,1.7-3.7c1.1-0.9,2.6-1.4,4.3-1.4C116.3,7.6,117.9,7.9,119,8.5z"/>
	<path class="st0" d="M15.3,45.4H4.2v9.2H14v2.7H4.2v11.2H1.1V42.7h14.2V45.4z"/>
	<path class="st1" d="M20,44c-0.3-0.3-0.5-0.7-0.5-1.1c0-0.4,0.1-0.9,0.5-1.2c0.3-0.3,0.7-0.5,1.1-0.5s0.9,0.1,1.2,0.5
		c0.3,0.3,0.5,0.7,0.5,1.2c0,0.5-0.1,0.9-0.5,1.1c-0.3,0.3-0.7,0.5-1.2,0.5S20.3,44.4,20,44z M20,68.6V49.1h2.3v19.5H20z"/>
	<path class="st1" d="M28.5,68.6V41.5h2.3v27.1H28.5z"/>
	<path class="st1" d="M50.7,65.2v2.4c-1.5,0.8-3.3,1.1-5.4,1.1c-2.9,0-5.2-0.9-7-2.7s-2.7-4.2-2.7-7.1c0-3.1,0.8-5.6,2.4-7.4
		s3.7-2.7,6.2-2.7c2.4,0,4.3,0.8,5.7,2.3c1.4,1.6,2.1,3.7,2.1,6.6c0,0.9,0,1.6-0.1,2.1H38.1c0.2,2.1,0.9,3.8,2.2,4.9
		c1.3,1.1,3,1.7,5.2,1.7C47.6,66.5,49.4,66.1,50.7,65.2z M49.5,57.7v-0.9c0-1.8-0.5-3.2-1.5-4.2s-2.3-1.6-4-1.6
		c-1.6,0-3,0.6-4.1,1.7c-1.1,1.1-1.8,2.8-1.9,4.9L49.5,57.7L49.5,57.7z"/>
	<path class="st0" d="M21.3,91.1v12.3h0l0,0.1c-2.1,1.6-4.7,2.3-8,2.3c-4,0-7.2-1.2-9.6-3.6S0,96.7,0,92.5c0-3.9,1.2-7.1,3.6-9.6
		c2.4-2.5,5.5-3.7,9.2-3.7c3,0,5.6,0.6,7.5,1.8v3.3c-2.1-1.4-4.5-2.1-7.3-2.1c-2.9,0-5.2,0.9-7.1,2.8c-1.8,1.9-2.7,4.4-2.7,7.5
		c0,3.2,0.9,5.7,2.7,7.5s4.3,2.8,7.4,2.8c1.8,0,3.4-0.3,4.8-1v-8.1h-5.7V91L21.3,91.1L21.3,91.1L21.3,91.1z"/>
	<path class="st1" d="M29.1,86.1v3.3c1.1-2.4,2.9-3.5,5.5-3.5c0.2,0,0.5,0,0.9,0.1v2.4c-0.5-0.1-1-0.2-1.5-0.2c-1.4,0-2.5,0.7-3.5,2
		c-0.9,1.4-1.4,2.9-1.4,4.6v10.9h-2.3V86.2L29.1,86.1L29.1,86.1z"/>
	<path class="st1" d="M46.6,105.9c-2.8,0-4.9-0.9-6.5-2.8s-2.4-4.3-2.4-7.1c0-2.8,0.9-5.2,2.5-7.2c1.7-1.9,3.8-2.9,6.5-2.9
		c2.9,0,5.1,0.9,6.7,2.8c1.6,1.9,2.4,4.3,2.4,7.2c0,2.9-0.8,5.3-2.4,7.2C51.6,105,49.4,105.9,46.6,105.9z M46.6,88.1
		c-2,0-3.6,0.8-4.7,2.3c-1.1,1.5-1.7,3.4-1.7,5.6c0,2.1,0.6,3.9,1.8,5.5s2.8,2.3,4.7,2.3c2.1,0,3.7-0.8,4.9-2.2
		c1.2-1.5,1.8-3.3,1.8-5.5c0-2.2-0.6-4.1-1.7-5.6C50.5,88.8,48.8,88.1,46.6,88.1z"/>
	<path class="st1" d="M72.5,86.1h2.3v19.5h-2.3v-3.5c-1,2.5-3.1,3.7-6.2,3.7c-1.9,0-3.4-0.6-4.5-1.7c-1.1-1.1-1.7-2.7-1.7-4.5V86.1
		h2.3V99c0,1.5,0.4,2.6,1.2,3.4c0.8,0.8,1.8,1.2,3.1,1.2c1.7,0,3.1-0.6,4.2-1.9c1.1-1.2,1.6-2.8,1.6-4.8L72.5,86.1L72.5,86.1z"/>
	<path class="st1" d="M82.9,86.1V89c1.4-2.1,3.4-3.1,6-3.1c2.6,0,4.7,0.9,6.1,2.8c1.5,1.9,2.2,4.2,2.2,7c0,3-0.8,5.5-2.3,7.4
		c-1.6,1.9-3.6,2.8-6,2.8c-2.5,0-4.5-1.1-5.9-3.2v10.5h-2.3V86.1H82.9z M88.8,103.6c1.8,0,3.2-0.7,4.3-2.1c1.1-1.4,1.7-3.4,1.7-6
		c0-2.2-0.5-4-1.6-5.5c-1.1-1.4-2.5-2.1-4.1-2.1c-1.7,0-3.1,0.6-4.3,1.8c-1.2,1.2-1.8,3.2-1.8,6.1c0,1.4,0.2,2.7,0.6,3.7
		c0.4,1,0.9,1.9,1.5,2.4c0.6,0.6,1.2,0.9,1.9,1.2C87.6,103.5,88.2,103.6,88.8,103.6z"/>
</g>
</svg>
