<?xml version="1.0" encoding="utf-8"?>
<!-- Generator: Adobe Illustrator 19.2.0, SVG Export Plug-In . SVG Version: 6.00 Build 0)  -->
<svg version="1.1" id="Capa_1" xmlns="http://www.w3.org/2000/svg" xmlns:xlink="http://www.w3.org/1999/xlink" x="0px" y="0px"
	 viewBox="0 0 400 300" style="enable-background:new 0 0 400 300;" xml:space="preserve">
<style type="text/css">
	.st0{fill:#00845D;}
	.st1{fill:#28221B;}
</style>
<g>
	<path class="st0" d="M108.6,40.5v6.9c-3.3-2.2-7.2-3.2-11.8-3.2c-3.3,0-5.9,0.8-7.8,2.3s-2.9,3.5-2.9,6c0,1.3,0.3,2.5,0.8,3.5
		s1.4,2,2.7,2.9s2.4,1.6,3.3,2c0.9,0.5,2.3,1.1,4.3,2c1.8,0.8,3.2,1.4,4.2,1.9s2.2,1.2,3.8,2.2c1.5,1,2.7,2,3.5,2.9
		c0.8,0.9,1.5,2.2,2.1,3.7s0.9,3.2,0.9,5c0,4.8-1.6,8.5-4.9,11.1s-7.5,3.9-12.7,3.9c-5.7,0-10.6-1.2-14.5-3.5v-7
		c3.9,3,8.7,4.4,14.4,4.4c3.4,0,6.1-0.8,8-2.3s2.9-3.7,2.9-6.5c0-1.2-0.2-2.2-0.7-3.2c-0.5-0.9-1.2-1.8-2.3-2.6
		c-1.1-0.8-2-1.4-3-1.9c-0.9-0.5-2.2-1.1-3.8-1.9c-0.3-0.2-0.8-0.4-1.5-0.6c-2.3-1-4.1-1.9-5.3-2.5c-1.2-0.6-2.6-1.6-4.3-2.9
		c-1.6-1.3-2.8-2.7-3.6-4.4c-0.8-1.7-1.1-3.6-1.1-5.8c0-4.6,1.7-8.3,5-10.9c3.3-2.6,7.5-3.9,12.5-3.9
		C101.3,38,105.3,38.8,108.6,40.5z"/>
	<path class="st1" d="M127.3,51.9v6c2.9-4.4,7.1-6.6,12.7-6.6c5.5,0,9.8,2,12.8,6c3.1,4,4.6,8.9,4.6,14.7c0,6.4-1.6,11.5-4.9,15.6
		c-3.3,4-7.5,6-12.7,6c-5.3,0-9.5-2.3-12.5-6.8v22.3h-4.9V51.9H127.3z M139.6,88.9c3.7,0,6.7-1.5,9.1-4.4c2.4-2.9,3.6-7.1,3.6-12.6
		c0-4.7-1.1-8.5-3.4-11.5c-2.3-3-5.2-4.4-8.7-4.4s-6.5,1.3-9.1,3.8c-2.5,2.6-3.8,6.8-3.8,12.8c0,3,0.4,5.6,1.3,7.9
		c0.8,2.2,1.9,3.9,3.2,5.1s2.6,2,4,2.5C137,88.6,138.3,88.9,139.6,88.9z"/>
	<path class="st1" d="M196.5,85.9v5c-3.2,1.6-7,2.4-11.3,2.4c-6.1,0-11-1.9-14.8-5.7c-3.8-3.8-5.7-8.8-5.7-15c0-6.6,1.7-11.7,5-15.5
		s7.7-5.7,13-5.7c5,0,9,1.6,12,4.9c3,3.3,4.4,7.9,4.4,13.9c0,1.8-0.1,3.3-0.3,4.4h-28.9c0.4,4.5,1.9,8,4.7,10.4
		c2.7,2.4,6.4,3.6,10.9,3.6C190.1,88.6,193.8,87.7,196.5,85.9z M194,70.1v-1.9c0-3.7-1-6.7-3.1-8.9S186,56,182.5,56
		c-3.4,0-6.3,1.2-8.6,3.6c-2.3,2.4-3.7,5.9-4,10.4L194,70.1L194,70.1z"/>
	<path class="st1" d="M211.8,72.6c0,4.6,1.4,8.5,4.3,11.7c2.9,3.2,6.9,4.8,12.2,4.8c3.3,0,6.1-0.9,8.4-2.6v5c-2.3,1.6-5.3,2.3-9,2.3
		c-6.6,0-11.8-2.1-15.5-6.3c-3.7-4.2-5.6-9.2-5.6-15.1c0-5.7,1.9-10.7,5.7-15s8.9-6.4,15.4-6.4c3.3,0,6.3,0.7,9,2.2v5
		c-2.4-1.6-5.3-2.4-8.5-2.4c-5,0-9,1.6-12,4.9C213.3,64.1,211.8,68,211.8,72.6z"/>
	<path class="st1" d="M247.6,41.3c-0.6-0.6-1-1.5-1-2.4c0-0.9,0.3-1.8,1-2.5c0.6-0.7,1.5-1,2.4-1s1.8,0.3,2.5,1c0.7,0.7,1,1.5,1,2.5
		s-0.3,1.8-1,2.4s-1.5,1-2.5,1S248.2,41.9,247.6,41.3z M247.6,92.9v-41h4.9v41H247.6z"/>
	<path class="st1" d="M294.5,85.9v5c-3.2,1.6-7,2.4-11.3,2.4c-6.1,0-11-1.9-14.8-5.7c-3.8-3.8-5.7-8.8-5.7-15c0-6.6,1.7-11.7,5-15.5
		s7.7-5.7,13-5.7c5,0,9,1.6,12,4.9c3,3.3,4.4,7.9,4.4,13.9c0,1.8-0.1,3.3-0.3,4.4h-28.9c0.4,4.5,1.9,8,4.7,10.4
		c2.7,2.4,6.4,3.6,10.9,3.6C288,88.6,291.7,87.7,294.5,85.9z M292,70.1v-1.9c0-3.7-1-6.7-3.1-8.9S284,56,280.5,56
		c-3.4,0-6.3,1.2-8.6,3.6c-2.3,2.4-3.7,5.9-4,10.4L292,70.1L292,70.1z"/>
	<path class="st1" d="M328.5,53.4v4.9c-2.5-1.5-6-2.2-10.3-2.2c-2.4,0-4.2,0.6-5.6,1.7c-1.4,1.1-2.1,2.5-2.1,4.3
		c0,1.1,0.2,2,0.6,2.8s1.1,1.5,2.1,2.2c1,0.7,1.8,1.2,2.5,1.5c0.7,0.3,1.8,0.8,3.4,1.5c3.8,1.5,6.7,3.2,8.7,5c2,1.8,3,4.2,3,7.3
		c0,3.4-1.2,6.1-3.5,8c-2.3,2-5.6,2.9-9.7,2.9c-5,0-8.9-0.8-12-2.4v-5.1c3.6,2,7.5,3.1,11.6,3.1c2.7,0,4.8-0.6,6.3-1.7
		c1.4-1.1,2.1-2.6,2.1-4.4c0-2.2-0.7-3.8-2.2-5s-3.9-2.5-7.3-3.8c-3.3-1.3-5.9-2.8-7.8-4.5c-1.9-1.7-2.9-4.1-2.9-7.1
		c0-3.3,1.2-5.9,3.6-7.9s5.5-2.9,9.1-2.9C322.7,51.5,326.1,52.1,328.5,53.4z"/>
	<path class="st0" d="M110,131.1H86.6v19.3h20.5v5.7H86.6v23.7h-6.5v-54.5H110V131.1z"/>
	<path class="st1" d="M119.8,128.2c-0.6-0.6-1-1.5-1-2.4s0.3-1.8,1-2.5c0.6-0.7,1.5-1,2.4-1s1.8,0.3,2.5,1s1,1.5,1,2.5
		s-0.3,1.8-1,2.4c-0.7,0.6-1.5,1-2.5,1S120.5,128.9,119.8,128.2z M119.8,179.9v-41h4.9v41H119.8z"/>
	<path class="st1" d="M137.7,179.9v-57.1h4.9v57.1H137.7z"/>
	<path class="st1" d="M184.6,172.8v5c-3.2,1.6-7,2.4-11.3,2.4c-6.1,0-11-1.9-14.8-5.7s-5.7-8.8-5.7-15c0-6.6,1.7-11.7,5-15.5
		s7.7-5.7,13-5.7c5,0,9,1.6,12,4.9s4.4,7.9,4.4,13.9c0,1.8-0.1,3.3-0.3,4.4H158c0.4,4.5,1.9,8,4.7,10.4c2.7,2.4,6.4,3.6,10.9,3.6
		C178.1,175.6,181.8,174.7,184.6,172.8z M182.1,157.1v-1.9c0-3.7-1-6.7-3.1-8.9s-4.9-3.3-8.4-3.3c-3.4,0-6.3,1.2-8.6,3.6
		c-2.3,2.4-3.7,5.9-4,10.4L182.1,157.1L182.1,157.1z"/>
	<path class="st0" d="M122.6,227.3v26h-0.1l0.1,0.2c-4.4,3.3-10,4.9-16.9,4.9c-8.4,0-15.2-2.5-20.3-7.5c-5.1-5-7.7-11.8-7.7-20.5
		c0-8.2,2.5-15,7.6-20.2c5.1-5.3,11.5-7.9,19.3-7.9c6.4,0,11.7,1.2,15.9,3.7v7c-4.4-2.9-9.5-4.4-15.4-4.4c-6.1,0-11,2-14.9,5.9
		c-3.8,4-5.7,9.2-5.7,15.8c0,6.7,1.9,12,5.7,15.9c3.8,3.9,9,5.8,15.6,5.8c3.7,0,7.1-0.7,10.2-2.2v-17h-12v-5.7h18.6V227.3z"/>
	<path class="st1" d="M139.1,216.9v7c2.3-5,6.1-7.4,11.5-7.4c0.4,0,1.1,0.1,2,0.2v5c-1.1-0.3-2.2-0.5-3.2-0.5
		c-2.9,0-5.3,1.4-7.3,4.3c-2,2.9-2.9,6.1-2.9,9.6V258h-4.9v-41h4.8C139.1,217,139.1,216.9,139.1,216.9z"/>
	<path class="st1" d="M175.8,258.6c-5.8,0-10.3-2-13.7-6s-5.1-9-5.1-15s1.8-11,5.3-15.1s8-6.1,13.6-6.1c6.1,0,10.8,2,14.2,6
		s5.1,9.1,5.1,15.2s-1.7,11.1-5.1,15.1C186.5,256.6,181.8,258.6,175.8,258.6z M175.8,221c-4.3,0-7.6,1.6-10,4.8s-3.6,7.1-3.6,11.7
		c0,4.5,1.3,8.3,3.8,11.5s5.8,4.8,9.9,4.8c4.5,0,7.9-1.6,10.4-4.7c2.5-3.2,3.7-7,3.7-11.6c0-4.7-1.2-8.7-3.5-11.8
		C184.1,222.6,180.6,221,175.8,221z"/>
	<path class="st1" d="M230.4,216.9h4.9v41h-4.9v-7.4c-2.2,5.3-6.5,7.9-13,7.9c-4,0-7.2-1.2-9.5-3.6c-2.3-2.4-3.5-5.6-3.5-9.5v-28.4
		h4.9V244c0,3.1,0.8,5.5,2.5,7.2c1.6,1.7,3.8,2.5,6.5,2.5c3.6,0,6.5-1.3,8.8-3.9s3.4-6,3.4-10.1L230.4,216.9L230.4,216.9z"/>
	<path class="st1" d="M252.5,216.9v6c2.9-4.4,7.1-6.6,12.7-6.6c5.5,0,9.8,2,12.8,6c3.1,4,4.6,8.9,4.6,14.7c0,6.4-1.6,11.5-4.9,15.6
		c-3.3,4-7.5,6-12.7,6c-5.3,0-9.5-2.3-12.5-6.8V274h-4.9v-57.1H252.5z M264.9,253.8c3.7,0,6.7-1.5,9.1-4.4c2.4-2.9,3.6-7.1,3.6-12.6
		c0-4.7-1.1-8.5-3.4-11.5s-5.2-4.4-8.7-4.4s-6.5,1.3-9.1,3.8c-2.5,2.6-3.8,6.8-3.8,12.8c0,3,0.4,5.6,1.3,7.9
		c0.8,2.2,1.9,3.9,3.2,5.1c1.3,1.2,2.6,2,4,2.5C262.3,253.6,263.6,253.8,264.9,253.8z"/>
</g>
</svg>
